<?xml version="1.0" standalone="no"?>
<!DOCTYPE svg PUBLIC "-//W3C//DTD SVG 1.1//EN" "http://www.w3.org/Graphics/SVG/1.1/DTD/svg11.dtd" >
<svg xmlns="http://www.w3.org/2000/svg" xmlns:xlink="http://www.w3.org/1999/xlink" version="1.1">
<metadata>
Created by FontForge 20170731 at Mon May 15 13:03:48 2023
 By Aleksey,,,
Copyright (c) Olivier Gourvat - Mostardesign Studio, 2014. All rights reserved. |DCNT
</metadata>
<defs>
<font id="FilsonPro-LightItalic" horiz-adv-x="1392" >
  <font-face 
    font-family="Filson Pro Light"
    font-weight="300"
    font-style="italic"
    font-stretch="normal"
    units-per-em="2048"
    panose-1="2 0 0 0 0 0 0 0 0 0"
    ascent="1481"
    descent="-567"
    x-height="1016"
    cap-height="1434"
    bbox="-469 -512 2666.34 2032"
    underline-thickness="102"
    underline-position="-307"
    unicode-range="U+000D-FB04"
  />
<missing-glyph horiz-adv-x="1378" 
d="M205 0l254 1436h968l-253 -1436h-969zM674 526h123q1 4 2.5 14t2 13.5t2 11t2.5 10t3.5 8t4.5 8t5.5 6t7.5 6t9 5.5q118 67 174 113q120 99 141 211q20 121 -56.5 193.5t-211.5 72.5q-150 0 -239 -70.5t-103 -156.5q-10 -57 2 -94h129q-9 27 0 90q11 52 59.5 84t122.5 32
q88 0 132.5 -41.5t31.5 -113.5q-13 -67 -64.5 -114t-160.5 -107q-67 -35 -84 -62.5t-35 -118.5zM596 295q-10 -42 14 -71t66 -29t76 28.5t45 71.5q8 41 -16.5 70.5t-67.5 29.5q-41 0 -75 -29.5t-42 -70.5z" />
    <glyph glyph-name="f_f" unicode="ff" horiz-adv-x="1376" 
d="M1038 1346l-88 -52q-2 58 -44.5 91.5t-119.5 33.5q-41 0 -79 -15t-74.5 -47.5t-66 -93.5t-44.5 -145l-18 -102h594l16 94q16 90 46 159.5t67 112.5t82.5 71t89.5 39t92 11q132 0 192 -67t41 -174l-4 -17q-4 -19 -14 -37h-86q16 18 16 47q14 75 -28.5 119.5t-132.5 44.5
q-89 0 -162 -70.5t-103 -230.5l-18 -102h305l-12 -78h-305l-166 -938h-94l165 938h-593l-166 -938h-95l166 938h-178l12 78h179l16 94q16 90 46 159.5t67 112.5t82.5 71t89.5 39t92 11q102 0 162.5 -42.5t72.5 -114.5z" />
    <glyph glyph-name="fi" unicode="fi" horiz-adv-x="1167" 
d="M397 938h-178l12 78h179l20 117q16 88 51 155t79 106.5t100 64.5t107.5 33.5t109.5 8.5q71 0 128.5 -19t103 -71t56.5 -133l-94 -25q-11 85 -70.5 124.5t-138.5 39.5q-286 0 -338 -284l-20 -117h657l-178 -1016h-94l166 938h-563l-166 -938h-95z" />
    <glyph glyph-name="fl" unicode="fl" horiz-adv-x="1150" 
d="M397 938h-178l12 78h179l20 117q16 88 51 155t79 106.5t100 64.5t107.5 33.5t109.5 8.5q217 0 342 -67l-252 -1434h-95l244 1380q-101 37 -254 37q-286 0 -338 -284l-20 -117h305l-12 -78h-305l-166 -938h-95z" />
    <glyph glyph-name="f_f_i" unicode="ffi" horiz-adv-x="1855" 
d="M1102 1405l-66 -68q-35 39 -88 59.5t-104 20.5q-56 0 -102 -12t-91.5 -41t-78.5 -87.5t-48 -143.5l-20 -117h594l20 117q16 88 51 155t79 106.5t100 64.5t107.5 33.5t109.5 8.5q71 0 128.5 -19t103 -71t56.5 -133l-94 -25q-11 85 -70.5 124.5t-138.5 39.5
q-286 0 -338 -284l-20 -117h657l-178 -1016h-94l166 938h-563l-166 -938h-94l165 938h-593l-166 -938h-95l166 938h-178l12 78h179l20 117q66 368 428 368q67 0 135 -25.5t109 -70.5z" />
    <glyph glyph-name="f_f_l" unicode="ffl" horiz-adv-x="1839" 
d="M1192 1016h305l-12 -78h-305l-166 -938h-94l165 938h-593l-166 -938h-95l166 938h-178l12 78h179l20 117q66 368 428 368q67 0 135 -25.5t109 -70.5l-66 -68q-35 39 -88 59.5t-104 20.5q-56 0 -102 -12t-91.5 -41t-78.5 -87.5t-48 -143.5l-20 -117h594l20 117
q16 88 51 155t79 106.5t100 64.5t107.5 33.5t109.5 8.5q217 0 342 -67l-252 -1434h-94l243 1380q-101 37 -254 37q-286 0 -338 -284z" />
    <glyph glyph-name="f_f_j" unicode="ffj" horiz-adv-x="1914" 
d="M1102 1405l-66 -68q-35 39 -88 59.5t-104 20.5q-56 0 -102 -12t-91.5 -41t-78.5 -87.5t-48 -143.5l-20 -117h594l20 117q16 88 51 155t79 106.5t100 64.5t107.5 33.5t109.5 8.5q71 0 128.5 -19t103 -71t56.5 -133l-94 -25q-11 85 -70.5 124.5t-138.5 39.5
q-286 0 -338 -284l-20 -117h717l-211 -1180q-15 -91 -50.5 -156t-83 -98.5t-96.5 -48t-104 -14.5q-124 0 -180 67.5t-37 173.5l6 23q2 15 18 47h89q-23 -38 -23 -61q-12 -71 24.5 -118.5t112.5 -47.5q29 0 55.5 5.5t56 22t52 42t41.5 68.5t29 99l194 1098h-622l-166 -938
h-94l165 938h-593l-166 -938h-95l166 938h-178l12 78h179l20 117q66 368 428 368q67 0 135 -25.5t109 -70.5z" />
    <glyph glyph-name="f_j" unicode="fj" horiz-adv-x="1226" 
d="M397 938h-178l12 78h179l20 117q16 88 51 155t79 106.5t100 64.5t107.5 33.5t109.5 8.5q71 0 128.5 -19t103 -71t56.5 -133l-94 -25q-11 85 -70.5 124.5t-138.5 39.5q-286 0 -338 -284l-20 -117h717l-211 -1180q-15 -91 -50.5 -156t-83 -98.5t-96.5 -48t-104 -14.5
q-124 0 -180 67.5t-37 173.5l6 23q2 15 18 47h88q-22 -36 -22 -61q-12 -71 24.5 -118.5t112.5 -47.5q29 0 55.5 5.5t56 22t52 42t41.5 68.5t29 99l194 1098h-622l-166 -938h-95z" />
    <glyph glyph-name=".notdef" horiz-adv-x="1378" 
d="M205 0l254 1436h968l-253 -1436h-969zM674 526h123q1 4 2.5 14t2 13.5t2 11t2.5 10t3.5 8t4.5 8t5.5 6t7.5 6t9 5.5q118 67 174 113q120 99 141 211q20 121 -56.5 193.5t-211.5 72.5q-150 0 -239 -70.5t-103 -156.5q-10 -57 2 -94h129q-9 27 0 90q11 52 59.5 84t122.5 32
q88 0 132.5 -41.5t31.5 -113.5q-13 -67 -64.5 -114t-160.5 -107q-67 -35 -84 -62.5t-35 -118.5zM596 295q-10 -42 14 -71t66 -29t76 28.5t45 71.5q8 41 -16.5 70.5t-67.5 29.5q-41 0 -75 -29.5t-42 -70.5z" />
    <glyph glyph-name=".null" horiz-adv-x="0" 
 />
    <glyph glyph-name="nonmarkingreturn" horiz-adv-x="682" 
 />
    <glyph glyph-name="NULL" horiz-adv-x="0" 
 />
    <glyph glyph-name="NULL" horiz-adv-x="0" 
 />
    <glyph glyph-name="CR" unicode="&#xd;" horiz-adv-x="512" 
 />
    <glyph glyph-name="space" unicode=" " horiz-adv-x="573" 
 />
    <glyph glyph-name="exclam" unicode="!" horiz-adv-x="450" 
d="M424 1434h106l-30 -179l-172 -841h-62l127 843zM154 59q6 35 32.5 58.5t61.5 23.5t55 -23.5t14 -58.5t-34.5 -58.5t-63.5 -23.5t-53 23t-12 59z" />
    <glyph glyph-name="quotedbl" unicode="&#x22;" horiz-adv-x="770" 
d="M508 1481l-102 -551h-78l90 551h90zM872 1481l-102 -551h-78l90 551h90z" />
    <glyph glyph-name="numbersign" unicode="#" horiz-adv-x="1509" 
d="M1327 1108h299l-35 -78h-299l-256 -584h299l-35 -77h-299l-161 -369h-86l164 369h-390l-161 -369h-84l161 369h-303l35 77h303l256 584h-301l35 78h301l145 326h84l-145 -326h389l146 326h84zM819 1030l-256 -584h389l256 584h-389z" />
    <glyph glyph-name="dollar" unicode="$" horiz-adv-x="1073" 
d="M545 -158h-72l33 195q-154 7 -252.5 87t-120.5 189l94 25q19 -82 95.5 -143.5t199.5 -71.5l105 571l-66 23q-86 34 -141.5 72.5t-79 77t-30 81.5t4.5 86q28 152 150 244t283 100l34 203h72l-35 -201q135 -10 219 -83.5t95 -186.5l-89 -25q-11 90 -73 145.5t-168 61.5
l-94 -526q49 -20 70 -26t22 -7q129 -45 197 -134.5t46 -211.5q-26 -140 -154.5 -241.5t-311.5 -108.5zM758 649l-66 23l-98 -549q141 7 238.5 82.5t115.5 181.5q18 98 -41 165t-149 97zM412 1042q-7 -26 -1.5 -58.5t19 -63t54.5 -60.5t104 -51q8 -5 28 -10t27 -8l88 503
q-118 -8 -208.5 -76t-110.5 -176z" />
    <glyph glyph-name="percent" unicode="%" horiz-adv-x="1759" 
d="M276 1126q25 141 135 235.5t248 94.5q139 0 214.5 -94.5t50.5 -235.5q-25 -136 -135.5 -231.5t-247.5 -95.5t-213.5 95.5t-51.5 231.5zM426 0l1051 1434h92l-1053 -1434h-90zM354 1126q-17 -106 39.5 -179t161.5 -73q104 0 188 73.5t101 178.5q20 110 -36.5 183
t-162.5 73q-104 0 -187.5 -73.5t-103.5 -182.5zM1085 305q25 140 135 235t248 95q139 0 214.5 -95t50.5 -235q-25 -138 -134 -233t-247 -95t-215 95.5t-52 232.5zM1165 305q-17 -107 39.5 -180.5t161.5 -73.5q104 0 188 74t101 180q20 110 -36.5 182t-162.5 72
q-105 0 -188 -72.5t-103 -181.5z" />
    <glyph glyph-name="ampersand" unicode="&#x26;" horiz-adv-x="1624" 
d="M1026 311l-301 441q-85 -30 -159.5 -66t-146 -85t-118.5 -113t-59 -134q-16 -88 27 -157t121 -103.5t173 -34.5q123 0 231 61.5t232 190.5zM1169 104l-100 144l-29 -35q-233 -236 -497 -236q-69 0 -133 15.5t-117 47t-89.5 75t-52 104t-4.5 129.5q51 287 533 469
q-85 99 -120 180.5t-17 173.5q11 61 41.5 111t70 81.5t87 53t91.5 30.5t85 9q151 0 229 -83.5t57 -194.5q-20 -107 -134.5 -216.5t-258.5 -168.5l281 -404l270 291h104l-329 -356l114 -164q42 -51 79.5 -75t99.5 -24q99 0 153 41l25 -71q-77 -54 -191 -54q-89 0 -141 31
t-107 96zM766 850q130 57 227.5 147.5t114.5 176.5q13 82 -42 141t-169 59q-83 0 -162 -56.5t-98 -152.5q-16 -80 16 -151t113 -164z" />
    <glyph glyph-name="quotesingle" unicode="'" horiz-adv-x="405" 
d="M508 1481l-102 -551h-78l90 551h90z" />
    <glyph glyph-name="parenleft" unicode="(" horiz-adv-x="571" 
d="M203 573q26 147 80 288t113 243t131 196t123.5 148t101.5 98l59 -41q-49 -46 -96 -98.5t-114.5 -144t-122 -188.5t-104.5 -230.5t-75 -272.5q-21 -116 -23 -227t12.5 -202t35 -169.5t51 -144t54.5 -108.5t50 -80l-71 -39q-27 35 -53.5 78.5t-60.5 111t-58 149.5t-41 178
t-15.5 214t23.5 241z" />
    <glyph glyph-name="parenright" unicode=")" horiz-adv-x="571" 
d="M569 573q-27 -147 -81 -287.5t-113 -242.5t-131.5 -196t-124 -148t-101.5 -98l-51 39q412 412 506 931q18 100 21.5 198.5t-4 177.5t-25.5 157t-37.5 134.5t-46 112.5t-45.5 88.5t-41 65.5l70 41q28 -36 54 -79t60 -111t57.5 -149.5t40.5 -177.5t15.5 -214.5
t-23.5 -241.5z" />
    <glyph glyph-name="asterisk" unicode="*" horiz-adv-x="897" 
d="M639 1081l-219 -241l-55 47l227 229l-266 92l41 78l256 -108l47 303h82l-64 -303l297 108l12 -78l-297 -90l152 -227l-74 -49z" />
    <glyph glyph-name="plus" unicode="+" horiz-adv-x="1105" 
d="M621 160h-84l73 411h-409l14 84h410l71 412h84l-71 -412h411l-14 -84h-412z" />
    <glyph glyph-name="comma" unicode="," horiz-adv-x="495" 
d="M88 -250l-18 43q77 36 133 101t73 145v22q-20 -10 -40 -10q-29 0 -44 20t-10 50q6 33 32 54.5t65 21.5q27 0 44 -14t22 -37.5t5 -46.5t-4 -48q-4 -29 -19.5 -65t-43.5 -79.5t-79 -85.5t-116 -71z" />
    <glyph glyph-name="hyphen" unicode="-" horiz-adv-x="915" 
d="M250 569l14 86h617l-15 -86h-616z" />
    <glyph glyph-name="period" unicode="." horiz-adv-x="458" 
d="M156 59q6 35 33.5 58.5t62.5 23.5t55 -23.5t15 -58.5q-8 -35 -36 -58.5t-63 -23.5t-54 23.5t-13 58.5z" />
    <glyph glyph-name="slash" unicode="/" horiz-adv-x="1007" 
d="M1114 1505h94l-1067 -1591h-92z" />
    <glyph glyph-name="zero" unicode="0" horiz-adv-x="1445" 
d="M1452 719q-35 -205 -136.5 -372.5t-259 -268.5t-339.5 -101t-302.5 101t-162 268t-6.5 373q29 154 94 288t158 234t217.5 157.5t263.5 57.5q182 0 304 -99t164.5 -266t4.5 -372zM1356 719q33 181 -1 328t-135.5 235t-254.5 88q-115 0 -220.5 -51t-185 -139.5t-136 -207
t-81.5 -253.5q-33 -180 1 -328.5t135 -238t253 -89.5q116 0 221.5 52t185.5 141.5t136.5 208.5t81.5 254z" />
    <glyph glyph-name="one" unicode="1" horiz-adv-x="698" 
d="M268 1143l-8 84l469 207h51l-252 -1434h-94l232 1313z" />
    <glyph glyph-name="two" unicode="2" horiz-adv-x="1214" 
d="M897 571l-649 -499q144 10 336 10h551l-13 -82h-1005v72l725 563q62 48 105 87.5t86.5 90t71 106.5t38.5 119q29 157 -60.5 244.5t-269.5 87.5q-74 0 -137 -14.5t-107.5 -38.5t-78.5 -57t-54 -67t-30 -71h-99q8 46 33 91.5t69.5 89.5t103 78t141 54.5t177.5 20.5
q221 0 334.5 -109.5t77.5 -304.5q-27 -143 -112 -249.5t-234 -221.5z" />
    <glyph glyph-name="three" unicode="3" horiz-adv-x="1208" 
d="M547 63q221 0 361 109t171 272q28 161 -69.5 256t-270.5 95q-157 0 -241 -54l-35 64l665 545h-757l14 84h915l-10 -58l-628 -510l2 -4q62 10 102 10q135 0 235.5 -49.5t149.5 -148t25 -230.5q-33 -202 -207 -334.5t-437 -132.5q-144 0 -253 36t-166 98l67 63
q123 -111 367 -111z" />
    <glyph glyph-name="four" unicode="4" horiz-adv-x="1374" 
d="M268 500h699l139 768zM954 416h-831l8 61l1038 957h58l-166 -934h336l-13 -84h-335l-72 -416h-94z" />
    <glyph glyph-name="five" unicode="5" horiz-adv-x="1208" 
d="M139 111l68 65q53 -49 164 -81t219 -32t198.5 32t153 87t102 124.5t54.5 148.5q13 75 -0.5 142.5t-53 122.5t-116 87.5t-180.5 32.5q-96 0 -210.5 -31t-183.5 -76l-69 35l164 666h806l-14 -84h-721l-131 -523q190 99 383 99q122 0 213.5 -39.5t141 -106t66.5 -150
t1 -175.5q-39 -207 -202.5 -342.5t-416.5 -135.5q-132 0 -252 38.5t-184 95.5z" />
    <glyph glyph-name="six" unicode="6" horiz-adv-x="1267" 
d="M336 641h4q55 86 144 148t182 90t182 28q97 0 179.5 -33.5t139.5 -93t81.5 -149.5t6.5 -195q-36 -203 -201.5 -331t-381.5 -128q-173 0 -284.5 88.5t-146 244t0.5 368.5q29 163 94 304.5t158 247t216.5 166t262.5 60.5q106 0 188.5 -31.5t126.5 -81.5q-32 -28 -76 -59
q-37 38 -103 62t-148 24q-110 0 -210.5 -45t-174 -118.5t-128.5 -165t-82.5 -187t-27.5 -182.5q0 -3 -1 -15.5t-1 -15.5zM324 410q0 -66 24 -127t68.5 -110.5t115 -79.5t156.5 -30q171 0 307.5 105t165.5 270q16 83 -5 156t-69 122t-115.5 77t-144.5 28q-64 0 -133.5 -18
t-135 -54t-118 -84.5t-84.5 -115t-32 -139.5z" />
    <glyph glyph-name="seven" unicode="7" horiz-adv-x="1069" 
d="M299 1350l14 84h987l-14 -76l-999 -1358h-109l1004 1350h-883z" />
    <glyph glyph-name="eight" unicode="8" horiz-adv-x="1345" 
d="M682 63q203 0 351 97.5t173 245.5q26 135 -82.5 222t-326.5 87q-223 0 -356.5 -88t-159.5 -226q-25 -146 87 -242t314 -96zM668 -23q-161 0 -279.5 55.5t-172 152.5t-32.5 216q24 127 122.5 223t258.5 138q-113 42 -163 127t-31 192q30 161 186.5 268t372.5 107
q218 0 336 -106t90 -267q-19 -106 -101.5 -192.5t-210.5 -128.5q147 -41 214.5 -135.5t44.5 -220.5q-32 -185 -211 -307t-424 -122zM915 1370q-176 0 -299.5 -81.5t-148.5 -207.5q-9 -51 4.5 -101t47.5 -92.5t97.5 -68.5t147.5 -26h96q82 0 154.5 26t122.5 68.5t82 93
t41 102.5q21 125 -73.5 206t-271.5 81z" />
    <glyph glyph-name="nine" unicode="9" horiz-adv-x="1267" 
d="M1184 793h-4q-82 -128 -225.5 -197.5t-282.5 -69.5q-96 0 -179 34t-140.5 94t-83 149.5t-7.5 193.5q24 134 109.5 239.5t210 162.5t266.5 57q172 0 283.5 -88t146.5 -243.5t0 -368.5q-29 -163 -94 -304.5t-158 -247.5t-216.5 -166.5t-262.5 -60.5q-106 0 -191 32t-125 81
q50 43 76 60q37 -38 104.5 -62.5t149.5 -24.5q111 0 212 45.5t173.5 119.5t127 166t81.5 187.5t27 180.5q0 3 1 15.5t1 15.5zM1196 1026q0 65 -24 125.5t-68.5 110t-115.5 79t-157 29.5q-171 0 -307.5 -105t-165.5 -270q-28 -167 72 -275t262 -108q81 0 168.5 29.5t163 81
t124 131.5t48.5 172z" />
    <glyph glyph-name="colon" unicode=":" horiz-adv-x="462" 
d="M158 59q6 35 33.5 58.5t62.5 23.5t55 -23.5t15 -58.5q-8 -35 -36 -58.5t-63 -23.5t-54 23.5t-13 58.5zM317 956q6 35 34 58.5t63 23.5t54 -23.5t13 -58.5t-33.5 -58.5t-62.5 -23.5t-54.5 23.5t-13.5 58.5z" />
    <glyph glyph-name="semicolon" unicode=";" horiz-adv-x="520" 
d="M117 -250l-19 43q72 35 124.5 100t76.5 146q3 9 0 22q-17 -10 -39 -10q-29 0 -44.5 20t-10.5 50q5 33 30 54.5t64 21.5q34 0 53.5 -24.5t20.5 -57t-2 -64.5q-4 -30 -18.5 -65.5t-42.5 -79t-78 -85.5t-115 -71zM352 956q6 35 34 58.5t63 23.5t54 -23.5t13 -58.5
t-33.5 -58.5t-62.5 -23.5t-54.5 23.5t-13.5 58.5z" />
    <glyph glyph-name="less" unicode="&#x3c;" horiz-adv-x="1253" 
d="M184 504l17 98l1073 379l-14 -88l-984 -340l863 -340l-19 -88z" />
    <glyph glyph-name="equal" unicode="=" horiz-adv-x="1224" 
d="M1122 334h-905l14 84h906zM1223 905h-906l15 84h905z" />
    <glyph glyph-name="greater" unicode="&#x3e;" horiz-adv-x="1253" 
d="M1262 602l-17 -98l-1075 -379l18 88l983 340l-864 340l17 88z" />
    <glyph glyph-name="question" unicode="?" horiz-adv-x="1048" 
d="M575 414h-92l19 92q13 61 39.5 94.5t111.5 79.5q61 33 100.5 56.5t98 65t95 79t68 90.5t40.5 108q24 130 -64 210.5t-243 80.5q-164 0 -259.5 -68t-115.5 -161l-6 -70h-88q-3 44 6 78q8 52 40 103t88 98t148 76.5t205 29.5q192 0 306 -105t83 -272q-7 -39 -23 -77
t-33.5 -69t-48 -64t-53 -55.5t-61.5 -51t-60 -43.5t-63.5 -40t-57.5 -33t-55 -30q-20 -11 -36.5 -23t-27.5 -22t-20 -24.5t-14 -22.5t-10 -25.5t-6.5 -25.5t-5 -29.5t-5.5 -29.5zM387 59q6 36 31.5 59t60.5 23q36 0 57 -23.5t15 -58.5t-34.5 -58.5t-63.5 -23.5t-53.5 23.5
t-12.5 58.5z" />
    <glyph glyph-name="at" unicode="@" horiz-adv-x="2174" 
d="M1438 258q-71 -109 -177.5 -167t-232.5 -58q-132 0 -221.5 61.5t-123 163t-11.5 225.5q33 191 175.5 321t340.5 130q124 0 207 -57.5t118 -167.5l39 198h84l-127 -717q-16 -88 21.5 -131t111.5 -43q153 0 266.5 136.5t162.5 410.5q33 181 -3.5 337.5t-131.5 268t-249 175
t-348 63.5q-192 0 -373 -71t-321.5 -194t-239.5 -294t-133 -365q-25 -129 -16 -247.5t42 -220.5t96.5 -185t147 -141.5t194 -90.5t237.5 -32q107 0 222.5 19t205.5 53l24 -68q-202 -80 -462 -80q-168 0 -308.5 48.5t-238.5 137t-162 212t-78 273.5t14 322q38 211 145 396.5
t260 318t350 209t407 76.5q212 0 380 -68t272 -188.5t144 -292t4 -371.5q-59 -318 -194.5 -466t-327.5 -148q-63 0 -105.5 16.5t-64 41.5t-29 68t-5 83.5t11.5 99.5zM1473 483q29 162 -52.5 266.5t-240.5 104.5q-162 0 -278.5 -107t-141.5 -264q-17 -102 9 -185t98.5 -134
t181.5 -51q158 0 276.5 104t147.5 266z" />
    <glyph glyph-name="A" unicode="A" horiz-adv-x="1349" 
d="M369 406h753l-211 935zM1139 322h-820l-184 -322h-102l831 1434h123l330 -1434h-103z" />
    <glyph glyph-name="B" unicode="B" horiz-adv-x="1335" 
d="M1343 1081q-24 -128 -115.5 -221t-250.5 -133q178 -29 257 -129.5t54 -245.5q-29 -163 -169 -257.5t-339 -94.5h-557l252 1434h488q91 0 166 -22t129 -64.5t77.5 -111t7.5 -155.5zM795 680h-357l-106 -598h461q154 0 262.5 73.5t132.5 200.5q26 139 -76 231.5t-317 92.5z
M455 762h307q110 0 197.5 25.5t144.5 70t91.5 99.5t47.5 120q16 89 -21.5 152.5t-108.5 92t-165 28.5h-391z" />
    <glyph glyph-name="C" unicode="C" horiz-adv-x="1425" 
d="M231 717q27 150 104.5 284t193 235t273.5 160.5t335 59.5q264 0 440 -149l-53 -78q-156 139 -404 139q-155 0 -293.5 -52t-239 -141.5t-168 -207.5t-89.5 -250q-19 -88 -11 -170.5t33 -155t74.5 -132t115 -102.5t155 -67t192.5 -24q245 0 454 137l23 -78
q-112 -73 -229 -110.5t-263 -37.5q-119 0 -221.5 27t-177.5 76t-132 117.5t-85.5 150.5t-37.5 175.5t11 193.5z" />
    <glyph glyph-name="D" unicode="D" horiz-adv-x="1480" 
d="M332 84h301q158 0 292.5 49.5t229 136.5t155.5 201t83 246q15 105 8.5 199.5t-46.5 174t-104 137t-165 90t-228 32.5h-301zM621 0h-398l252 1434h397q123 0 225 -25.5t174.5 -72.5t125.5 -112.5t78 -145t31.5 -171t-13.5 -190.5q-22 -120 -70 -226.5t-124 -196.5
t-174.5 -155.5t-227.5 -102t-276 -36.5z" />
    <glyph glyph-name="E" unicode="E" horiz-adv-x="1200" 
d="M1102 82l-12 -82h-867l252 1434h866l-14 -84h-770l-106 -607h673l-16 -84h-674l-102 -577h770z" />
    <glyph glyph-name="F" unicode="F" horiz-adv-x="1173" 
d="M319 0h-96l252 1434h864l-14 -84h-768l-106 -607h671l-16 -84h-672z" />
    <glyph glyph-name="G" unicode="G" horiz-adv-x="1515" 
d="M1079 1368q-165 0 -324.5 -84.5t-275 -235.5t-147.5 -331q-22 -130 5 -248.5t95.5 -207.5t185.5 -142t265 -53q255 0 446 129l70 393h-428l14 86h520l-92 -516q-232 -181 -547 -181q-219 0 -378 101t-226 269.5t-31 369.5q28 153 113.5 291t203.5 235.5t262 155t286 57.5
q155 0 273 -29t212 -102l-53 -78q-96 74 -200 97.5t-249 23.5z" />
    <glyph glyph-name="H" unicode="H" horiz-adv-x="1466" 
d="M1260 639h-828l-113 -639h-96l252 1434h96l-125 -711h828l125 711h96l-252 -1434h-96z" />
    <glyph glyph-name="I" unicode="I" horiz-adv-x="542" 
d="M571 1434l-252 -1434h-96l252 1434h96z" />
    <glyph glyph-name="J" unicode="J" horiz-adv-x="1372" 
d="M1427 1434l-137 -783q-57 -328 -236 -501t-456 -173q-91 0 -165 19.5t-124.5 53.5t-87 82t-52 104t-19.5 119.5t10 129.5q18 94 55 150h98q-41 -62 -57 -146q-12 -55 -8 -107.5t16.5 -99.5t42.5 -86.5t71 -68.5t101 -45t133 -16q230 0 381.5 151.5t200.5 433.5l139 783
h94z" />
    <glyph glyph-name="K" unicode="K" horiz-adv-x="1239" 
d="M442 694l738 740h112l-768 -772l189 -283q38 -57 62 -91.5t63.5 -81.5t71 -73t72.5 -45.5t81 -19.5q94 0 172 53q21 -53 33 -74q-50 -34 -117.5 -52t-118.5 -18q-53 0 -103.5 21.5t-89 53t-78 78.5t-66.5 86t-58 88q-13 20 -19 30l-188 293l-111 -627h-96l252 1434h96z
" />
    <glyph glyph-name="L" unicode="L" horiz-adv-x="1036" 
d="M1024 82l-12 -82h-789l252 1434h96l-239 -1352h692z" />
    <glyph glyph-name="M" unicode="M" horiz-adv-x="1998" 
d="M952 18l-348 1280l-346 -1298h-98l385 1434h123l354 -1297l811 1297h125l-121 -1434h-98l108 1298l-805 -1280h-90z" />
    <glyph glyph-name="N" unicode="N" horiz-adv-x="1550" 
d="M1249 0l-706 1264l-224 -1264h-96l252 1434h80l705 -1262l223 1262h96l-252 -1434h-78z" />
    <glyph glyph-name="O" unicode="O" horiz-adv-x="1699" 
d="M231 717q35 200 165.5 370.5t319.5 269.5t390 99q151 0 278 -58.5t208.5 -157.5t116.5 -236t9 -287q-27 -150 -110 -287t-200.5 -236.5t-265.5 -158t-298 -58.5q-151 0 -278 58.5t-209 158t-117 236.5t-9 287zM330 717q-24 -132 5.5 -253t101 -208t181.5 -138.5
t240 -51.5q175 0 338 87t275 237t145 327q24 132 -5.5 253t-100.5 208t-180.5 138.5t-239.5 51.5q-174 0 -337.5 -87t-277 -237t-145.5 -327z" />
    <glyph glyph-name="P" unicode="P" horiz-adv-x="1257" 
d="M319 0h-96l252 1434h543q123 0 207.5 -60t115.5 -157.5t9 -212.5q-30 -177 -164 -298.5t-318 -121.5h-446zM436 666h434q146 0 250 96.5t129 241.5q26 147 -42.5 246.5t-215.5 99.5h-434z" />
    <glyph glyph-name="Q" unicode="Q" horiz-adv-x="1699" 
d="M330 717q-24 -132 5.5 -253t101 -208t181.5 -138.5t240 -51.5q174 0 337.5 87t277 237t145.5 327q24 132 -5.5 253t-101 208t-181.5 138.5t-240 51.5q-174 0 -337.5 -87t-277 -237t-145.5 -327zM918 -16q40 -291 278 -291q94 0 190 47l23 -74q-105 -55 -225 -55
q-46 0 -86 8t-70 20t-56.5 33t-44 38.5t-33.5 46.5t-25 48t-18.5 50t-13 46t-9.5 44t-7 35q-194 5 -342 104.5t-215.5 267.5t-32.5 365q35 200 165.5 370.5t319.5 269.5t390 99q151 0 278.5 -58.5t210 -157.5t117.5 -236t8 -287q-32 -190 -151 -353t-291 -263.5t-360 -116.5
z" />
    <glyph glyph-name="R" unicode="R" horiz-adv-x="1378" 
d="M317 0h-96l252 1434h574q123 0 207 -60t115 -157.5t9 -212.5q-30 -171 -150 -288.5t-292 -129.5q-7 -44 -4 -99.5t8.5 -113.5t25.5 -113t47.5 -98t74.5 -69.5t106 -26.5q89 0 160 45l26 -70q-45 -31 -101 -47.5t-103 -16.5q-67 0 -122 23.5t-91 62.5t-62 92t-39 108.5
t-19 115.5t-5 110t6 95h-424zM434 666h465q146 0 250 96.5t129 241.5q26 147 -42.5 246.5t-215.5 99.5h-465z" />
    <glyph glyph-name="S" unicode="S" horiz-adv-x="1169" 
d="M831 1368q-144 0 -257.5 -77t-137.5 -206q-33 -180 195 -258l235 -82q64 -21 117.5 -56.5t92 -83t55 -109t4.5 -129.5q-30 -166 -181.5 -278t-367.5 -112q-189 0 -308.5 88t-146.5 214l102 26q23 -98 116.5 -168.5t248.5 -70.5q176 0 295.5 85.5t140.5 210.5
q10 57 -5 107t-48 85.5t-73 60t-87 40.5l-237 82q-297 99 -248 344q21 114 99 201t185.5 130.5t227.5 43.5q169 0 271.5 -81t113.5 -214l-94 -28q-6 106 -90 170.5t-218 64.5z" />
    <glyph glyph-name="T" unicode="T" horiz-adv-x="1220" 
d="M281 1434h1159l-13 -84h-530l-238 -1350h-96l238 1350h-533z" />
    <glyph glyph-name="U" unicode="U" horiz-adv-x="1499" 
d="M1454 1434h96l-161 -918q-24 -130 -86 -234t-148.5 -169.5t-190 -100.5t-216.5 -35q-114 0 -207 35t-157.5 100.5t-89.5 169.5t-1 234l162 918h96l-162 -918q-20 -110 0.5 -197.5t74 -141.5t129.5 -82.5t169 -28.5t178.5 28t157 82.5t123 142t71.5 197.5z" />
    <glyph glyph-name="V" unicode="V" horiz-adv-x="1273" 
d="M688 0h-102l-273 1434h103l241 -1305l705 1305h102z" />
    <glyph glyph-name="W" unicode="W" horiz-adv-x="2033" 
d="M1305 1386l170 -1239l643 1287h98l-715 -1434h-96l-170 1235l-606 -1235h-99l-208 1434h98l186 -1287l608 1239h91z" />
    <glyph glyph-name="X" unicode="X" horiz-adv-x="1341" 
d="M784 662l-651 -662h-117l723 741l-432 693h115l391 -617l606 617h115l-676 -693l465 -741h-117z" />
    <glyph glyph-name="Y" unicode="Y" horiz-adv-x="1284" 
d="M594 0l102 596l-387 838h113l340 -748l606 748h111l-686 -838l-103 -596h-96z" />
    <glyph glyph-name="Z" unicode="Z" horiz-adv-x="1263" 
d="M1219 82l-13 -82h-1153l13 78l1202 1272h-924l14 84h1051l-14 -80l-1207 -1272h1031z" />
    <glyph glyph-name="bracketleft" unicode="[" horiz-adv-x="557" 
d="M92 -383l338 1899h352l-16 -78h-262l-309 -1743h262l-13 -78h-352z" />
    <glyph glyph-name="backslash" unicode="\" horiz-adv-x="1007" 
d="M926 -86h-92l-502 1591h94z" />
    <glyph glyph-name="bracketright" unicode="]" horiz-adv-x="557" 
d="M664 1516l-338 -1899h-349l13 78h258l309 1743h-262l16 78h353z" />
    <glyph glyph-name="asciicircum" unicode="^" horiz-adv-x="978" 
d="M1008 821h-86l-187 574l-387 -574h-86l447 660h82z" />
    <glyph glyph-name="underscore" unicode="_" horiz-adv-x="1433" 
d="M-47 -272l14 86h1430l-15 -86h-1429z" />
    <glyph glyph-name="grave" unicode="`" horiz-adv-x="860" 
d="M526 1481h111l133 -307h-80z" />
    <glyph glyph-name="a" unicode="a" horiz-adv-x="1327" 
d="M1057 0l43 256q-80 -127 -210.5 -203t-279.5 -76q-153 0 -260 71.5t-149.5 192.5t-18.5 269q25 145 110 264.5t219.5 191.5t289.5 72q151 0 254.5 -75.5t134.5 -200.5l45 254h94l-178 -1016h-94zM629 61q189 0 337.5 129.5t180.5 319.5q22 123 -14 223.5t-126.5 160.5
t-220.5 60q-192 0 -333 -127.5t-174 -316.5q-33 -193 63.5 -321t286.5 -128z" />
    <glyph glyph-name="b" unicode="b" horiz-adv-x="1327" 
d="M313 256l-43 -256h-94l260 1481h94l-124 -719q77 126 205.5 201t279.5 75q158 0 265.5 -72t148.5 -191t16 -265q-37 -225 -212 -379t-404 -154q-149 0 -252.5 76t-139.5 203zM715 61q191 0 334 128.5t176 320.5q22 124 -11 224t-120.5 160t-216.5 60q-195 0 -341.5 -128
t-179.5 -316q-21 -125 16.5 -227.5t127.5 -162t215 -59.5z" />
    <glyph glyph-name="c" unicode="c" horiz-adv-x="1095" 
d="M180 504q21 112 76.5 209t140 169.5t201.5 114t252 41.5q193 0 332 -114l-60 -68q-116 98 -284 98q-220 0 -373 -126t-191 -320q-20 -127 19.5 -227.5t139 -160t245.5 -59.5q165 0 319 99l37 -68q-180 -115 -372 -115q-133 0 -234.5 41t-161 112.5t-82 167.5t-4.5 206z
" />
    <glyph glyph-name="d" unicode="d" horiz-adv-x="1327" 
d="M1057 0l43 256q-80 -127 -210.5 -203t-279.5 -76q-153 0 -260 71.5t-149.5 192.5t-18.5 269q25 145 110 264.5t219.5 191.5t289.5 72q151 0 254.5 -75.5t134.5 -200.5l127 719h94l-260 -1481h-94zM629 61q189 0 337.5 129.5t180.5 319.5q22 123 -14 223.5t-126.5 160.5
t-220.5 60q-192 0 -333 -127.5t-174 -316.5q-33 -193 63.5 -321t286.5 -128z" />
    <glyph glyph-name="e" unicode="e" horiz-adv-x="1214" 
d="M1057 201q7 -11 23.5 -28.5t23.5 -29.5q-186 -166 -449 -166q-169 0 -287 72t-165.5 191.5t-22.5 263.5q18 109 77 207.5t143.5 170.5t194.5 114t226 42q97 0 177.5 -29.5t140.5 -88t85 -157.5t5 -226h-946q0 -2 -4 -16t-5 -23q-34 -185 75.5 -311t320.5 -126
q219 0 387 140zM807 954q-162 0 -300.5 -94.5t-199.5 -247.5h838q4 88 -22 155.5t-74.5 107.5t-109.5 59.5t-132 19.5z" />
    <glyph glyph-name="f" unicode="f" horiz-adv-x="688" 
d="M948 1255q14 74 -29 119t-133 45q-41 0 -79 -15t-74.5 -47.5t-66 -93.5t-44.5 -145l-18 -102h305l-12 -78h-305l-166 -938h-95l166 938h-178l12 78h179l16 94q16 90 46 159.5t67 112.5t82.5 71t89.5 39t92 11q132 0 192 -67t41 -174l-4 -17q-4 -19 -14 -37h-86
q16 18 16 47z" />
    <glyph glyph-name="g" unicode="g" horiz-adv-x="1325" 
d="M1059 23l41 233q-80 -127 -210.5 -203t-279.5 -76q-153 0 -260 71.5t-149.5 192.5t-18.5 269q25 145 110 264.5t219.5 191.5t289.5 72q151 0 254.5 -75.5t134.5 -200.5l45 254h94l-178 -1000q-41 -229 -208.5 -363t-397.5 -134q-130 0 -228.5 31.5t-183.5 99.5
q12 13 28 39t27 39q135 -125 369 -125q191 0 328 115t174 305zM629 61q189 0 337.5 129.5t180.5 319.5q22 123 -14 223.5t-126.5 160.5t-220.5 60q-192 0 -333 -127.5t-174 -316.5q-33 -193 63.5 -321t286.5 -128z" />
    <glyph glyph-name="h" unicode="h" horiz-adv-x="1226" 
d="M975 0l102 588q17 86 5.5 149t-35 104.5t-64 66.5t-82 35.5t-88.5 10.5q-36 0 -80 -9.5t-103.5 -38.5t-110 -74.5t-94.5 -125.5t-63 -182l-92 -524h-94l260 1481h94l-124 -701q52 90 128.5 150.5t149 84t143.5 23.5q67 0 123 -13.5t107 -45t80 -83t41.5 -128t-7.5 -180.5
l-102 -588h-94z" />
    <glyph glyph-name="i" unicode="i" horiz-adv-x="462" 
d="M457 1016l-178 -1016h-95l178 1016h95zM397 1374q6 36 31.5 59t58.5 23q32 0 48 -22.5t10 -59.5q-6 -36 -30.5 -59t-57.5 -23q-32 0 -49 22.5t-11 59.5z" />
    <glyph glyph-name="j" unicode="j" horiz-adv-x="536" 
d="M227 -160l209 1176h94l-211 -1180q-15 -91 -50 -156t-82 -98.5t-95 -48t-102 -14.5q-124 0 -180 67.5t-37 173.5l6 23q2 15 18 47h88q-22 -36 -22 -61q-12 -71 24.5 -118.5t112.5 -47.5q28 0 53.5 5.5t54 22t50.5 42t40.5 68.5t28.5 99zM473 1374q6 36 30.5 59t57.5 23
q32 0 49 -22.5t11 -59.5q-6 -36 -31 -59t-58 -23q-32 0 -48.5 22.5t-10.5 59.5z" />
    <glyph glyph-name="k" unicode="k" horiz-adv-x="1038" 
d="M367 563l542 453h117l-561 -475l209 -308q27 -41 45.5 -66.5t45 -52t56 -39t64.5 -12.5q80 0 137 41l25 -69q-78 -58 -183 -58q-22 0 -43 4.5t-38.5 10t-36 17.5t-31 20t-29 25t-24.5 25.5t-23 28.5l-19.5 26t-18.5 27t-15 23l-226 342l-92 -526h-94l260 1481h94z" />
    <glyph glyph-name="l" unicode="l" horiz-adv-x="462" 
d="M539 1481l-260 -1481h-95l260 1481h95z" />
    <glyph glyph-name="m" unicode="m" horiz-adv-x="1955" 
d="M940 0l102 584q17 86 8 149.5t-30.5 105.5t-60 68t-81 36.5t-94.5 10.5q-40 0 -84.5 -12t-97.5 -43t-98 -77.5t-84 -123.5t-58 -174l-92 -524h-94l178 1016h95l-41 -228q72 126 184 188t217 62q45 0 86 -7t84.5 -25.5t76.5 -48.5t56.5 -79.5t30.5 -113.5q41 76 97 132
t114.5 85.5t111 43t101.5 13.5q57 0 105.5 -9t93 -30.5t74.5 -55.5t51 -84.5t22 -118.5t-12 -156l-103 -584h-94l102 584q17 86 8 149.5t-30.5 105.5t-60 68t-81 36.5t-94.5 10.5q-39 0 -82.5 -11t-96.5 -41.5t-98 -76t-84.5 -122t-60.5 -173.5l-92 -530h-94z" />
    <glyph glyph-name="n" unicode="n" horiz-adv-x="1224" 
d="M973 0l102 584q17 86 7 149.5t-32.5 105.5t-63 68t-84 36.5t-95.5 10.5q-41 0 -87.5 -11.5t-103 -43t-105 -78t-89.5 -123.5t-60 -174l-92 -524h-94l178 1016h95l-43 -236q51 90 128.5 150.5t149.5 84t141 23.5q68 0 124 -14t107 -46t79.5 -84t41 -129t-7.5 -181
l-102 -584h-94z" />
    <glyph glyph-name="o" unicode="o" horiz-adv-x="1253" 
d="M180 506q24 144 118.5 267t230.5 194t278 71q146 0 256.5 -72t160 -194t25.5 -266q-24 -142 -118 -264t-231 -193.5t-282 -71.5q-143 0 -252.5 70t-159.5 192t-26 267zM276 506q-32 -184 72.5 -314.5t284.5 -130.5q119 0 231.5 59.5t190 162t98.5 223.5q32 185 -73 316.5
t-287 131.5q-117 0 -228.5 -60t-189.5 -163.5t-99 -224.5z" />
    <glyph glyph-name="p" unicode="p" horiz-adv-x="1327" 
d="M449 1016l-46 -256q79 127 209.5 202.5t280.5 75.5q152 0 260 -71t151.5 -192t16.5 -269q-25 -145 -110 -265t-219.5 -192t-289.5 -72q-151 0 -253.5 75.5t-135.5 201.5l-127 -713h-94l262 1475h95zM874 954q-124 0 -235.5 -59t-186.5 -162t-96 -227q-33 -188 68 -316.5
t295 -128.5q193 0 333 127.5t173 317.5q33 192 -64 320t-287 128z" />
    <glyph glyph-name="q" unicode="q" horiz-adv-x="1325" 
d="M1188 760l47 256h94l-262 -1475h-94l127 713q-77 -126 -207 -201.5t-281 -75.5q-119 0 -211 42t-145 114t-72.5 168t-1.5 205q20 111 76 208.5t136 169t185.5 113t219.5 41.5q150 0 254 -76t135 -202zM788 954q-191 0 -333.5 -128t-175.5 -320q-22 -123 11.5 -224
t121 -161t215.5 -60q195 0 341 128.5t179 316.5q33 191 -68 319.5t-291 128.5z" />
    <glyph glyph-name="r" unicode="r" horiz-adv-x="688" 
d="M449 1016l-48 -268q128 290 387 290q48 0 72 -8l-14 -94q-37 12 -78 12q-163 0 -273 -152.5t-157 -404.5l-68 -391h-94l178 1016h95z" />
    <glyph glyph-name="s" unicode="s" horiz-adv-x="858" 
d="M113 188l94 25q17 -71 79.5 -108t157.5 -37q100 0 179 52t96 140q23 130 -129 184l-146 48q-227 66 -194 266q22 112 122.5 196t248.5 84q96 0 167 -49.5t89 -142.5l-86 -25q-16 65 -68 96t-119 31q-103 0 -174 -57t-84 -133q-11 -75 27.5 -115.5t111.5 -64.5l146 -48
q112 -37 157 -108t27 -162q-24 -127 -135.5 -205t-251.5 -78q-126 0 -210.5 56t-104.5 155z" />
    <glyph glyph-name="t" unicode="t" horiz-adv-x="782" 
d="M473 938l-113 -631q-40 -246 142 -246q87 0 147 50.5t60 113.5l1 13q2 12 2 25.5t-3 23.5h88q2 -16 2 -47q0 -15 -2 -23q-19 -106 -102.5 -173t-207.5 -67q-281 0 -221 334l113 627h-182l12 78h182l82 327h72l-60 -327h336l-12 -78h-336z" />
    <glyph glyph-name="u" unicode="u" horiz-adv-x="1226" 
d="M430 1016l-104 -584q-17 -86 -7 -149.5t33 -106t63 -68t83.5 -36.5t95.5 -11q40 0 87 12t103 43t104.5 77.5t90.5 124t63 174.5l93 524h94l-178 -1016h-95l41 233q-77 -130 -194 -193t-228 -63q-68 0 -124 14t-106.5 46t-79.5 84.5t-41.5 129.5t7.5 181l105 584h94z" />
    <glyph glyph-name="v" unicode="v" horiz-adv-x="1040" 
d="M1161 1016l-590 -1016h-102l-233 1016h100l203 -910l522 910h100z" />
    <glyph glyph-name="w" unicode="w" horiz-adv-x="1697" 
d="M526 119l449 858h88l143 -858l512 897h99l-580 -1016h-92l-152 846l-440 -846h-92l-223 1016h98z" />
    <glyph glyph-name="x" unicode="x" horiz-adv-x="1095" 
d="M958 0l-327 481l-494 -481h-117l558 539l-324 477h115l284 -418l432 418h113l-496 -477l373 -539h-117z" />
    <glyph glyph-name="y" unicode="y" horiz-adv-x="1083" 
d="M561 94l539 922h108l-880 -1475h-99l260 443l-260 1032h107z" />
    <glyph glyph-name="z" unicode="z" horiz-adv-x="1110" 
d="M1049 0h-994l11 72l972 864h-762l13 80h891l-15 -72l-970 -864h866z" />
    <glyph glyph-name="braceleft" unicode="{" horiz-adv-x="557" 
d="M358 565q51 -28 69.5 -60.5t8.5 -94.5q-3 -14 -7.5 -29t-8.5 -27.5t-12.5 -32t-14 -31.5t-18 -36.5t-18.5 -36t-21.5 -41.5t-22.5 -43q-96 -188 -110 -276q-16 -87 20 -129.5t109 -42.5q45 0 86 8l-12 -72q-47 -12 -93 -12q-104 0 -166 58.5t-43 174.5q7 44 33.5 110
t47 107.5t59.5 116.5q92 174 106 248q1 16 3 27.5t-3 20.5t-8 15t-12.5 10.5t-16.5 7t-21 5.5t-25 4.5t-28 5t-32 6.5l12 78q20 4 49.5 9t43 7.5t31.5 9t27 15t17 24t12 38.5q15 75 -18 247q-39 228 -19 334q19 115 102.5 174.5t186.5 59.5q44 0 88 -13l-12 -71q-41 8 -82 8
q-73 0 -123 -42.5t-67 -129.5q-20 -88 14 -277q2 -14 7.5 -48.5t7 -47.5t5 -39.5t4 -40t1.5 -33.5t-0.5 -35.5t-4.5 -31.5q-11 -62 -41 -94.5t-90 -61.5z" />
    <glyph glyph-name="bar" unicode="|" horiz-adv-x="407" 
d="M78 -459l360 2026h84l-360 -2026h-84z" />
    <glyph glyph-name="braceright" unicode="}" horiz-adv-x="557" 
d="M395 565q-52 29 -70.5 61.5t-7.5 94.5q5 26 18 60t24.5 58t38 77l40.5 81q98 195 115 277q16 87 -21 129.5t-110 42.5q-48 0 -84 -8l12 71q50 13 92 13q104 0 165 -59t42 -175q-21 -110 -137 -334q-97 -183 -109 -247q-3 -15 -3 -27t3 -20.5t7 -15t12.5 -11t16.5 -7.5
t21 -5.5t24.5 -4.5t29.5 -5.5t33 -6.5l-15 -78q-21 -4 -49.5 -9t-42.5 -7.5t-32 -8.5t-27 -15t-17 -24t-12 -38q-13 -68 19 -236q1 -8 2 -12q37 -219 18 -334t-102 -174t-187 -59q-47 0 -88 12l13 72q36 -8 82 -8q73 0 124 42.5t68 129.5q12 75 -16 276q-3 22 -10 66t-10 64
t-6 50.5t-2 53t5 43.5q10 61 40.5 93.5t92.5 61.5z" />
    <glyph glyph-name="asciitilde" unicode="~" horiz-adv-x="1308" 
d="M1217 721l51 -51q-121 -178 -297 -178q-50 0 -98.5 21.5t-89 52.5t-79.5 62t-85 52.5t-91 21.5q-69 0 -126.5 -39.5t-88.5 -105.5l-51 45q38 84 111 136.5t172 52.5q49 0 99 -21.5t91 -52.5t80.5 -62.5t83.5 -53t84 -21.5q71 0 131 37.5t103 103.5z" />
    <glyph glyph-name="uni00A0" unicode="&#xa0;" horiz-adv-x="573" 
 />
    <glyph glyph-name="exclamdown" unicode="&#xa1;" horiz-adv-x="423" 
d="M186 -428h-106l31 176l172 844h61l-125 -842zM297 946q6 35 33.5 58.5t62.5 23.5t54.5 -23.5t13.5 -58.5t-34.5 -58.5t-64.5 -23.5q-35 0 -53 23t-12 59z" />
    <glyph glyph-name="cent" unicode="&#xa2;" horiz-adv-x="1153" 
d="M197 504q21 112 76.5 209t140.5 169.5t203.5 114t256.5 41.5l72 193h74l-74 -199q154 -28 252 -108l-59 -68q-91 77 -224 94l-321 -880q46 -9 102 -9q166 0 320 99l35 -68q-180 -115 -373 -115q-46 0 -117 11l-76 -209h-75l82 223q-170 49 -247.5 184.5t-47.5 317.5z
M293 508q-23 -151 37 -263t194 -159l320 868q-216 -4 -364.5 -129.5t-186.5 -316.5z" />
    <glyph glyph-name="sterling" unicode="&#xa3;" horiz-adv-x="1263" 
d="M1165 0h-1085l12 82q67 0 129.5 16.5t122.5 51.5t103.5 100t58.5 153q15 92 8 152h-272l12 68h252l-19 104q-6 32 -17.5 87.5t-15 75t-9 54.5t-6 52t0 40t4.5 45q32 170 179.5 272.5t343.5 102.5q69 0 126.5 -13t95.5 -36t66.5 -53t40.5 -64.5t17.5 -70.5t-2.5 -70h-99
q14 88 -50.5 153.5t-209.5 65.5q-158 0 -270.5 -77t-136.5 -210q-3 -42 -4 -62.5t6.5 -68t14.5 -83t19.5 -106.5t22.5 -138h400l-13 -68h-381q6 -78 -6 -152q-39 -225 -246 -321l-2 -6q49 6 142 6h680z" />
    <glyph glyph-name="currency" unicode="&#xa4;" horiz-adv-x="1050" 
d="M592 385q115 0 208 81t113 198t-44 197.5t-179 80.5q-111 0 -204 -81t-115 -197q-22 -117 43 -198t178 -81zM580 309q-116 0 -205 76l-117 -104l-51 59l119 104q-58 93 -39 220q22 111 106 208l-76 101l74 59l76 -96q109 82 238 82q127 0 215 -82l108 96l47 -59
l-112 -101q57 -88 32 -208q-21 -121 -110 -220l80 -104l-70 -59l-86 104q-107 -76 -229 -76z" />
    <glyph glyph-name="yen" unicode="&#xa5;" horiz-adv-x="1318" 
d="M1163 289h-405l-49 -289h-97l50 289h-404l14 84h404l31 162h-404l14 83h390l-379 816h112l342 -748l604 748h111l-666 -816h392l-15 -83h-405l-31 -162h406z" />
    <glyph glyph-name="brokenbar" unicode="&#xa6;" horiz-adv-x="432" 
d="M90 -459l152 850h84l-152 -850h-84zM299 717l152 852h84l-152 -852h-84z" />
    <glyph glyph-name="section" unicode="&#xa7;" horiz-adv-x="1167" 
d="M1030 -66q-24 -137 -168 -218t-342 -81q-291 13 -438 111l55 70q139 -83 400 -95q160 0 271 56t126 157q12 63 -45 127t-199 117l-223 80q-124 48 -183 130.5t-40 184.5q17 95 100.5 171.5t206.5 119.5q-251 122 -223 295q24 137 167 217t341 80q298 -13 438 -108
l-55 -70q-126 81 -400 94q-160 0 -267.5 -55.5t-127.5 -157.5q-19 -146 242 -246l223 -79q124 -48 184 -130t41 -184q-18 -96 -102.5 -174.5t-208.5 -120.5q255 -122 227 -291zM340 573q-13 -73 33 -136.5t139 -100.5l188 -70q125 24 215 99.5t103 154.5q12 74 -35 137.5
t-139 98.5l-189 69q-128 -25 -214.5 -97.5t-100.5 -154.5z" />
    <glyph glyph-name="dieresis" unicode="&#xa8;" horiz-adv-x="1110" 
d="M498 1319q6 32 31.5 55t56.5 23q32 0 49.5 -23t11.5 -55q-5 -31 -30.5 -52.5t-57.5 -21.5q-31 0 -49 21.5t-12 52.5zM926 1319q6 32 31.5 55t56.5 23q32 0 49.5 -23t11.5 -55q-5 -31 -30.5 -52.5t-57.5 -21.5q-31 0 -49 21.5t-12 52.5z" />
    <glyph glyph-name="copyright" unicode="&#xa9;" horiz-adv-x="1685" 
d="M240 717q38 203 162.5 372t309 268t386.5 99q121 0 226.5 -37.5t182 -104.5t128.5 -159.5t66 -203t-5 -234.5q-35 -202 -162 -372t-312 -269t-386 -99q-152 0 -276.5 58.5t-203.5 157.5t-111 235.5t-5 288.5zM311 717q-24 -136 4.5 -260t99.5 -214.5t183 -144t248 -53.5
q181 0 349 90.5t282 245t147 336.5q24 136 -5 260t-100 214.5t-183.5 144t-248.5 53.5q-181 0 -348.5 -90.5t-281 -245t-146.5 -336.5zM936 401q114 0 225 72l21 -59q-127 -82 -256 -82q-181 0 -272.5 108.5t-61.5 266.5q29 160 156 268t309 108q137 0 229 -82l-41 -55
q-85 68 -198 68q-150 0 -253 -89.5t-124 -215.5q-14 -81 9.5 -150t90 -113.5t166.5 -44.5z" />
    <glyph glyph-name="ordfeminine" unicode="&#xaa;" horiz-adv-x="1048" 
d="M354 1104q25 149 136.5 249.5t265.5 100.5q93 0 157.5 -42t94.5 -118l26 144h78l-119 -672h-78l25 143q-55 -73 -136 -115t-171 -42q-151 0 -229.5 101t-49.5 251zM434 1104q-21 -122 37 -201.5t180 -79.5q117 0 210.5 79t113.5 200q21 120 -42.5 200t-184.5 80
q-123 0 -208 -79.5t-106 -198.5zM276 494l13 67h659l-12 -67h-660z" />
    <glyph glyph-name="guillemotleft" unicode="&#xab;" horiz-adv-x="1058" 
d="M209 600l428 410l51 -47l-379 -363l250 -362l-67 -50zM618 600l429 410l51 -47l-379 -363l250 -362l-68 -50z" />
    <glyph glyph-name="logicalnot" unicode="&#xac;" horiz-adv-x="1269" 
d="M305 819l14 88h945l-86 -469h-84l69 381h-858z" />
    <glyph glyph-name="uni00AD" unicode="&#xad;" horiz-adv-x="1179" 
d="M285 672l14 88h838l-15 -88h-837z" />
    <glyph glyph-name="registered" unicode="&#xae;" horiz-adv-x="1685" 
d="M240 717q35 201 160.5 371t311 269t386.5 99q121 0 226.5 -37.5t181.5 -105t128 -160t66 -203t-4 -233.5q-35 -202 -162 -372t-312 -269t-386 -99q-152 0 -276.5 58.5t-203.5 157.5t-111 235.5t-5 288.5zM311 717q-24 -138 4.5 -262t99.5 -214t183 -143t248 -53t267.5 53
t235.5 143t177.5 214t97.5 262q33 183 -26.5 336.5t-195 243t-317.5 89.5t-349 -89.5t-279.5 -243t-145.5 -336.5zM1077 354l-119 289h-167l-52 -289h-71l129 727h276q99 0 144.5 -63.5t27.5 -159.5q-14 -81 -67 -137.5t-136 -73.5l125 -293h-90zM803 707h198q66 0 112.5 43
t57.5 108q11 69 -19 114.5t-95 45.5h-199z" />
    <glyph glyph-name="macron" unicode="&#xaf;" horiz-adv-x="1030" 
d="M508 1374h498l-15 -78h-497z" />
    <glyph glyph-name="degree" unicode="&#xb0;" horiz-adv-x="849" 
d="M309 1155q25 139 133.5 232.5t243.5 93.5q137 0 212 -93.5t50 -232.5q-25 -134 -134 -227.5t-245 -93.5q-135 0 -210 93.5t-50 227.5zM387 1155q-17 -104 39.5 -176t159.5 -72t184 72t98 176q19 109 -35.5 180.5t-158.5 71.5q-103 0 -185 -72.5t-102 -179.5z" />
    <glyph glyph-name="plusminus" unicode="&#xb1;" horiz-adv-x="1273" 
d="M760 467h-84l61 346h-409l14 84h410l59 344h84l-59 -344h411l-14 -84h-412zM1128 223h-905l13 82h905z" />
    <glyph glyph-name="twosuperior" unicode="&#xb2;" horiz-adv-x="657" 
d="M641 1182l-274 -203q17 0 47 1t45 1h311l-12 -70h-522q0 1 1 20.5t5 33.5l358 266q121 86 139 190q12 71 -27 108.5t-122 37.5q-79 0 -124.5 -35.5t-59.5 -85.5h-80q14 75 87 132.5t191 57.5q115 0 171.5 -59t39.5 -158q-20 -122 -174 -237z" />
    <glyph glyph-name="threesuperior" unicode="&#xb3;" horiz-adv-x="653" 
d="M229 971l58 53q29 -29 77 -46t99 -17q100 0 165.5 48.5t78.5 120.5q13 76 -33 121t-127 45q-70 0 -119 -28l-22 49l313 248h-361l11 63h477l-6 -39l-289 -235h14q112 0 173.5 -62t43.5 -164q-20 -103 -106.5 -169t-222.5 -66q-146 0 -224 78z" />
    <glyph glyph-name="acute" unicode="&#xb4;" horiz-adv-x="860" 
d="M715 1481h110l-276 -307h-78z" />
    <glyph glyph-name="mu" unicode="&#xb5;" horiz-adv-x="1208" 
d="M430 1016l-104 -584q-17 -86 -7 -149.5t33 -106t63 -68t83.5 -36.5t95.5 -11q40 0 86.5 12t103.5 43t105.5 77.5t90 124.5t60.5 174l95 524h94l-178 -1016h-95l41 233q-77 -130 -194 -193t-228 -63q-225 0 -305 136l-73 -404h-95l234 1307h94z" />
    <glyph glyph-name="paragraph" unicode="&#xb6;" horiz-adv-x="1224" 
d="M637 1448h309l-2 -10q-49 -30 -76 -71.5t-39 -111.5l-274 -1542h-82l197 1118h-144q-128 0 -202.5 90.5t-49.5 219.5q20 126 127 216.5t236 90.5zM1044 1235l-270 -1522h-82l269 1520q20 111 78.5 172t170.5 61q97 0 141.5 -49t30.5 -125l-4 -22q-2 -15 -18 -47h-78
q18 30 18 63q6 49 -20 77t-84 28q-127 0 -152 -156z" />
    <glyph glyph-name="periodcentered" unicode="&#xb7;" horiz-adv-x="462" 
d="M246 553q6 35 32.5 58.5t61.5 23.5t55.5 -23.5t16.5 -58.5q-7 -35 -37 -58.5t-66 -23.5q-35 0 -52 23t-11 59z" />
    <glyph glyph-name="cedilla" unicode="&#xb8;" horiz-adv-x="933" 
d="M512 4l4 16h64q73 -51 94.5 -115.5t11.5 -123.5q-20 -112 -109 -175t-190 -63t-160.5 61.5t-64.5 157.5l61 31q5 -75 53.5 -124.5t122.5 -49.5q72 0 135.5 47t77.5 127q9 53 -12.5 109.5t-87.5 101.5z" />
    <glyph glyph-name="onesuperior" unicode="&#xb9;" horiz-adv-x="395" 
d="M305 1458l-6 64l242 106h43l-127 -717h-78l110 625z" />
    <glyph glyph-name="ordmasculine" unicode="&#xba;" horiz-adv-x="1028" 
d="M354 1100q25 145 146.5 248.5t267.5 103.5t232 -105t61 -247q-28 -146 -149 -248t-269 -102t-231 101t-58 249zM432 1100q-22 -117 44.5 -198t180.5 -81q111 0 207.5 81.5t118.5 197.5q20 115 -47 197.5t-180 82.5t-208.5 -82.5t-115.5 -197.5zM270 494l13 67h659
l-12 -67h-660z" />
    <glyph glyph-name="guillemotright" unicode="&#xbb;" horiz-adv-x="1058" 
d="M776 1010l283 -410l-428 -412l-53 50l380 362l-251 363zM367 1010l282 -410l-428 -412l-53 50l381 362l-252 363z" />
    <glyph glyph-name="onequarter" unicode="&#xbc;" horiz-adv-x="1654" 
d="M1659 1507l-1409 -1591h-94l1409 1591h94zM317 1264l-8 63l242 107h43l-129 -721h-78l115 628zM1079 260h305l60 332zM1376 195h-401l4 45l514 477h49l-82 -457h160l-8 -65h-160l-35 -195h-76z" />
    <glyph glyph-name="onehalf" unicode="&#xbd;" horiz-adv-x="1714" 
d="M1649 1507l-1409 -1591h-95l1409 1591h95zM317 1264l-8 63l242 107h43l-129 -721h-78l115 628zM1513 274l-274 -206q17 0 47 1t45 1h311l-12 -70h-522q-2 16 4 53l358 271q125 93 142 190q12 71 -27.5 108t-122.5 37q-80 0 -127 -35.5t-59 -84.5h-80q13 74 88 132t191 58
q115 0 172.5 -59t40.5 -158q-20 -122 -175 -238z" />
    <glyph glyph-name="threequarters" unicode="&#xbe;" horiz-adv-x="1812" 
d="M1819 1507l-1411 -1591h-95l1411 1591h95zM1237 260h305l62 332zM1534 195h-401l6 45l514 477h49l-84 -457h160l-9 -65h-159l-33 -195h-76zM227 776l56 53q31 -29 79 -46t99 -17q100 0 164 48.5t77 121.5q13 76 -32 121t-125 45q-68 0 -121 -29l-21 49l314 248h-361l9 64
h477l-4 -39l-289 -236h14q112 0 172.5 -61t42.5 -164t-104.5 -169.5t-222.5 -66.5q-68 0 -128 20.5t-96 57.5z" />
    <glyph glyph-name="questiondown" unicode="&#xbf;" horiz-adv-x="1030" 
d="M637 592h90l-16 -92q-8 -58 -36 -92.5t-114 -81.5q-44 -25 -71 -40t-71 -43.5t-72.5 -50.5t-64 -54.5t-57.5 -63.5t-40 -69.5t-25 -78.5q-24 -129 66.5 -210t244.5 -81q85 0 154 20t112.5 54.5t69.5 73.5t35 82l6 69h88q4 -56 -2 -77q-8 -51 -41 -103t-90 -99
t-149.5 -76.5t-204.5 -29.5q-193 0 -306 104.5t-84 272.5q12 67 49.5 130t80 107.5t105.5 90.5t105 71t100 57q9 5 13 7q23 13 40.5 25t30 28t20 25t14 30t8 27.5t6.5 34t6 33.5zM827 946q-6 -35 -32.5 -58.5t-61.5 -23.5t-55 23.5t-14 58.5t35 58.5t65 23.5q35 0 52 -23
t11 -59z" />
    <glyph glyph-name="Agrave" unicode="&#xc0;" horiz-adv-x="1349" 
d="M369 406h753l-211 935zM1139 322h-820l-184 -322h-102l831 1434h123l330 -1434h-103zM795 1851h108l119 -284h-78z" />
    <glyph glyph-name="Aacute" unicode="&#xc1;" horiz-adv-x="1349" 
d="M369 406h753l-211 935zM1139 322h-820l-184 -322h-102l831 1434h123l330 -1434h-103zM1102 1851h106l-252 -284h-77z" />
    <glyph glyph-name="Acircumflex" unicode="&#xc2;" horiz-adv-x="1349" 
d="M369 406h753l-211 935zM1139 322h-820l-184 -322h-102l831 1434h123l330 -1434h-103zM950 1851h107l162 -284h-76q-96 145 -154 223q-112 -112 -229 -223h-74z" />
    <glyph glyph-name="Atilde" unicode="&#xc3;" horiz-adv-x="1349" 
d="M369 406h753l-211 935zM1139 322h-820l-184 -322h-102l831 1434h123l330 -1434h-103zM1098 1620q-48 0 -129 44t-125 44q-35 0 -55 -19t-58 -79l-47 12q43 92 81.5 127t90.5 35q48 0 130 -45t122 -45q35 0 55 18t58 76l47 -10q-43 -91 -80 -124.5t-90 -33.5z" />
    <glyph glyph-name="Adieresis" unicode="&#xc4;" horiz-adv-x="1349" 
d="M369 406h753l-211 935zM1139 322h-820l-184 -322h-102l831 1434h123l330 -1434h-103zM686 1690q6 31 31 53t55 22q32 0 50.5 -22t13.5 -53q-6 -31 -32.5 -53.5t-58.5 -22.5q-31 0 -48 22.5t-11 53.5zM1114 1690q6 31 31 53t55 22q32 0 50.5 -22t13.5 -53
q-6 -31 -32 -53.5t-58 -22.5q-31 0 -48.5 22.5t-11.5 53.5z" />
    <glyph glyph-name="Aring" unicode="&#xc5;" horiz-adv-x="1349" 
d="M369 406h753l-211 935zM1139 322h-820l-184 -322h-102l831 1434h123l330 -1434h-103zM793 1726q13 76 76 124t143 48t125 -47.5t32 -124.5q-13 -76 -76 -123t-143 -47t-125 47t-32 123zM852 1726q-10 -53 20 -85.5t86 -32.5q55 0 97.5 32.5t52.5 85.5t-21 86t-86 33
q-56 0 -97.5 -32.5t-51.5 -86.5z" />
    <glyph glyph-name="AE" unicode="&#xc6;" horiz-adv-x="1845" 
d="M655 731h383l111 619h-19zM1020 82h727l-12 -82h-824l113 649h-430l-498 -649h-106l1102 1434h895l-15 -84h-727l-110 -619h637l-15 -84h-637z" />
    <glyph glyph-name="Ccedilla" unicode="&#xc7;" horiz-adv-x="1427" 
d="M233 717q27 150 104 284t192.5 235t273.5 160.5t336 59.5q264 0 440 -149l-53 -78q-156 139 -404 139q-155 0 -293 -52t-238.5 -141.5t-167.5 -207.5t-89 -250q-17 -107 -8 -203t53.5 -178t113 -142t171.5 -94t227 -34q246 0 455 137l22 -78q-104 -70 -213 -107t-244 -41
q76 -82 58 -196q-20 -112 -109 -175t-190 -63t-161 61.5t-65 157.5l62 31q5 -75 53.5 -124.5t122.5 -49.5q72 0 135.5 47t77.5 127q19 104 -68 187q-166 8 -292.5 70t-199.5 162t-100 229.5t-2 275.5z" />
    <glyph glyph-name="Egrave" unicode="&#xc8;" horiz-adv-x="1200" 
d="M1102 82l-12 -82h-867l252 1434h866l-14 -84h-770l-106 -607h673l-16 -84h-674l-102 -577h770zM762 1851h108l119 -284h-78z" />
    <glyph glyph-name="Eacute" unicode="&#xc9;" horiz-adv-x="1200" 
d="M1102 82l-12 -82h-867l252 1434h866l-14 -84h-770l-106 -607h673l-16 -84h-674l-102 -577h770zM1055 1851h106l-252 -284h-78z" />
    <glyph glyph-name="Ecircumflex" unicode="&#xca;" horiz-adv-x="1200" 
d="M1102 82l-12 -82h-867l252 1434h866l-14 -84h-770l-106 -607h673l-16 -84h-674l-102 -577h770zM913 1851h107l162 -284h-76l-154 223l-229 -223h-74z" />
    <glyph glyph-name="Edieresis" unicode="&#xcb;" horiz-adv-x="1200" 
d="M1102 82l-12 -82h-867l252 1434h866l-14 -84h-770l-106 -607h673l-16 -84h-674l-102 -577h770zM629 1690q6 31 31 53t55 22q32 0 50 -22t13 -53q-6 -31 -32 -53.5t-58 -22.5q-31 0 -48 22.5t-11 53.5zM1057 1690q6 31 31 53t55 22q32 0 50 -22t13 -53q-6 -31 -32 -53.5
t-58 -22.5q-31 0 -48 22.5t-11 53.5z" />
    <glyph glyph-name="Igrave" unicode="&#xcc;" horiz-adv-x="542" 
d="M571 1434l-252 -1434h-96l252 1434h96zM389 1851h109l118 -284h-77z" />
    <glyph glyph-name="Iacute" unicode="&#xcd;" horiz-adv-x="542" 
d="M571 1434l-252 -1434h-96l252 1434h96zM700 1851h107l-252 -284h-78z" />
    <glyph glyph-name="Icircumflex" unicode="&#xce;" horiz-adv-x="542" 
d="M571 1434l-252 -1434h-96l252 1434h96zM545 1851h106l162 -284h-76l-153 223l-230 -223h-73z" />
    <glyph glyph-name="Idieresis" unicode="&#xcf;" horiz-adv-x="542" 
d="M571 1434l-252 -1434h-96l252 1434h96zM281 1690q6 31 31 53t55 22q32 0 50 -22t13 -53q-6 -31 -32 -53.5t-58 -22.5q-31 0 -48 22.5t-11 53.5zM709 1690q6 31 31 53t55 22q32 0 50 -22t13 -53q-6 -31 -32 -53.5t-58 -22.5q-31 0 -48 22.5t-11 53.5z" />
    <glyph glyph-name="Eth" unicode="&#xd0;" horiz-adv-x="1480" 
d="M621 0h-398l115 659h-170l12 76h170l123 699h397q123 0 225 -25.5t175 -72.5t126 -112.5t78.5 -145t32 -171t-13.5 -190.5q-22 -120 -70 -226.5t-124 -196.5t-174.5 -155.5t-227.5 -102t-276 -36.5zM332 84h301q158 0 292.5 49.5t229 136.5t155.5 201t83 246
q15 105 8.5 199.5t-46.5 174t-104 137t-165 90t-228 32.5h-301l-111 -615h396l-13 -76h-395z" />
    <glyph glyph-name="Ntilde" unicode="&#xd1;" horiz-adv-x="1550" 
d="M1249 0l-706 1264l-224 -1264h-96l252 1434h80l705 -1262l223 1262h96l-252 -1434h-78zM1194 1620q-48 0 -129 44t-125 44q-35 0 -55 -19t-58 -79l-47 12q43 92 81.5 127t90.5 35q48 0 130 -45t122 -45q35 0 55 18t58 76l47 -10q-43 -91 -80 -124.5t-90 -33.5z" />
    <glyph glyph-name="Ograve" unicode="&#xd2;" horiz-adv-x="1699" 
d="M231 717q35 200 165.5 370.5t319.5 269.5t390 99q151 0 278 -58.5t208.5 -157.5t116.5 -236t9 -287q-27 -150 -110 -287t-200.5 -236.5t-265.5 -158t-298 -58.5q-151 0 -278 58.5t-209 158t-117 236.5t-9 287zM330 717q-24 -132 5.5 -253t101 -208t181.5 -138.5
t240 -51.5q175 0 338 87t275 237t145 327q24 132 -5.5 253t-100.5 208t-180.5 138.5t-239.5 51.5q-174 0 -337.5 -87t-277 -237t-145.5 -327zM909 1851h109l117 -284h-78z" />
    <glyph glyph-name="Oacute" unicode="&#xd3;" horiz-adv-x="1699" 
d="M231 717q35 200 165.5 370.5t319.5 269.5t390 99q151 0 278 -58.5t208.5 -157.5t116.5 -236t9 -287q-27 -150 -110 -287t-200.5 -236.5t-265.5 -158t-298 -58.5q-151 0 -278 58.5t-209 158t-117 236.5t-9 287zM330 717q-24 -132 5.5 -253t101 -208t181.5 -138.5
t240 -51.5q175 0 338 87t275 237t145 327q24 132 -5.5 253t-100.5 208t-180.5 138.5t-239.5 51.5q-174 0 -337.5 -87t-277 -237t-145.5 -327zM1264 1851h106l-254 -284h-78z" />
    <glyph glyph-name="Ocircumflex" unicode="&#xd4;" horiz-adv-x="1699" 
d="M231 717q35 200 165.5 370.5t319.5 269.5t390 99q151 0 278 -58.5t208.5 -157.5t116.5 -236t9 -287q-27 -150 -110 -287t-200.5 -236.5t-265.5 -158t-298 -58.5q-151 0 -278 58.5t-209 158t-117 236.5t-9 287zM330 717q-24 -132 5.5 -253t101 -208t181.5 -138.5
t240 -51.5q175 0 338 87t275 237t145 327q24 132 -5.5 253t-100.5 208t-180.5 138.5t-239.5 51.5q-174 0 -337.5 -87t-277 -237t-145.5 -327zM1124 1851h107l160 -284h-76l-154 223l-229 -223h-74z" />
    <glyph glyph-name="Otilde" unicode="&#xd5;" horiz-adv-x="1699" 
d="M231 717q35 200 165.5 370.5t319.5 269.5t390 99q151 0 278 -58.5t208.5 -157.5t116.5 -236t9 -287q-27 -150 -110 -287t-200.5 -236.5t-265.5 -158t-298 -58.5q-151 0 -278 58.5t-209 158t-117 236.5t-9 287zM330 717q-24 -132 5.5 -253t101 -208t181.5 -138.5
t240 -51.5q175 0 338 87t275 237t145 327q24 132 -5.5 253t-100.5 208t-180.5 138.5t-239.5 51.5q-174 0 -337.5 -87t-277 -237t-145.5 -327zM1272 1620q-48 0 -129 44t-125 44q-35 0 -57 -20t-56 -78l-47 12q44 92 81 127t89 35q48 0 130 -45t122 -45q36 0 58 19t55 75
l47 -10q-42 -91 -78.5 -124.5t-89.5 -33.5z" />
    <glyph glyph-name="Odieresis" unicode="&#xd6;" horiz-adv-x="1699" 
d="M231 717q35 200 165.5 370.5t319.5 269.5t390 99q151 0 278 -58.5t208.5 -157.5t116.5 -236t9 -287q-27 -150 -110 -287t-200.5 -236.5t-265.5 -158t-298 -58.5q-151 0 -278 58.5t-209 158t-117 236.5t-9 287zM330 717q-24 -132 5.5 -253t101 -208t181.5 -138.5
t240 -51.5q175 0 338 87t275 237t145 327q24 132 -5.5 253t-100.5 208t-180.5 138.5t-239.5 51.5q-174 0 -337.5 -87t-277 -237t-145.5 -327zM858 1690q6 31 31.5 53t56.5 22q32 0 50 -22t12 -53q-5 -31 -30.5 -53.5t-57.5 -22.5q-31 0 -49.5 22.5t-12.5 53.5zM1286 1690
q6 31 31.5 53t56.5 22q32 0 50 -22t12 -53q-5 -31 -30.5 -53.5t-57.5 -22.5q-31 0 -49.5 22.5t-12.5 53.5z" />
    <glyph glyph-name="multiply" unicode="&#xd7;" horiz-adv-x="1011" 
d="M924 309l-72 -61l-250 307l-360 -307l-47 61l356 305l-248 306l68 59l252 -305l356 305l53 -59l-362 -306z" />
    <glyph glyph-name="Oslash" unicode="&#xd8;" horiz-adv-x="1697" 
d="M231 717q37 201 167 371t319 269t391 99q204 0 358 -104l140 161l59 -47l-137 -161q119 -105 170.5 -258t19.5 -330q-27 -150 -110 -287t-200.5 -236.5t-265.5 -158t-298 -58.5q-201 0 -357 99l-125 -152q-33 23 -57 47l125 150q-125 106 -179 260.5t-20 335.5zM332 717
q-29 -156 15.5 -291.5t146.5 -228.5l909 1079q-142 92 -313 92q-174 0 -337 -87t-276 -237t-145 -327zM1618 717q29 153 -12.5 286.5t-141.5 225.5l-911 -1077q133 -86 305 -86q174 0 337.5 87t277 237t145.5 327z" />
    <glyph glyph-name="Ugrave" unicode="&#xd9;" horiz-adv-x="1499" 
d="M1454 1434h96l-161 -918q-24 -130 -86 -234t-148.5 -169.5t-190 -100.5t-216.5 -35q-114 0 -207 35t-157.5 100.5t-89.5 169.5t-1 234l162 918h96l-162 -918q-20 -110 0.5 -197.5t74 -141.5t129.5 -82.5t169 -28.5t178.5 28t157 82.5t123 142t71.5 197.5zM870 1851h109
l117 -284h-78z" />
    <glyph glyph-name="Uacute" unicode="&#xda;" horiz-adv-x="1499" 
d="M1454 1434h96l-161 -918q-24 -130 -86 -234t-148.5 -169.5t-190 -100.5t-216.5 -35q-114 0 -207 35t-157.5 100.5t-89.5 169.5t-1 234l162 918h96l-162 -918q-20 -110 0.5 -197.5t74 -141.5t129.5 -82.5t169 -28.5t178.5 28t157 82.5t123 142t71.5 197.5zM1167 1851h107
l-254 -284h-78z" />
    <glyph glyph-name="Ucircumflex" unicode="&#xdb;" horiz-adv-x="1499" 
d="M1454 1434h96l-161 -918q-24 -130 -86 -234t-148.5 -169.5t-190 -100.5t-216.5 -35q-114 0 -207 35t-157.5 100.5t-89.5 169.5t-1 234l162 918h96l-162 -918q-20 -110 0.5 -197.5t74 -141.5t129.5 -82.5t169 -28.5t178.5 28t157 82.5t123 142t71.5 197.5zM1026 1851h107
l159 -284h-75l-154 223l-229 -223h-74z" />
    <glyph glyph-name="Udieresis" unicode="&#xdc;" horiz-adv-x="1499" 
d="M1454 1434h96l-161 -918q-24 -130 -86 -234t-148.5 -169.5t-190 -100.5t-216.5 -35q-114 0 -207 35t-157.5 100.5t-89.5 169.5t-1 234l162 918h96l-162 -918q-20 -110 0.5 -197.5t74 -141.5t129.5 -82.5t169 -28.5t178.5 28t157 82.5t123 142t71.5 197.5zM760 1690
q6 31 31 53t55 22q32 0 50.5 -22t12.5 -53t-31 -53.5t-57 -22.5q-31 0 -49 22.5t-12 53.5zM1188 1690q6 31 31 53t55 22q32 0 50.5 -22t12.5 -53t-31 -53.5t-57 -22.5q-31 0 -49 22.5t-12 53.5z" />
    <glyph glyph-name="Yacute" unicode="&#xdd;" horiz-adv-x="1284" 
d="M594 0l102 596l-387 838h113l340 -748l606 748h111l-686 -838l-103 -596h-96zM1071 1851h107l-252 -284h-78z" />
    <glyph glyph-name="Thorn" unicode="&#xde;" horiz-adv-x="1165" 
d="M815 352h-436l-60 -352h-96l252 1434h96l-59 -344h444q94 0 159.5 -52t90.5 -136.5t8 -182.5q-26 -150 -138.5 -258.5t-260.5 -108.5zM940 1006h-444l-101 -570h436q102 0 182 84t101 199q22 115 -28 201t-146 86z" />
    <glyph glyph-name="germandbls" unicode="&#xdf;" horiz-adv-x="1185" 
d="M809 1409q-140 0 -228.5 -83.5t-117.5 -240.5l-191 -1085h-96l191 1085q35 198 152.5 303t303.5 105q177 0 266 -89.5t60 -250.5q-21 -116 -106.5 -206.5t-227.5 -127.5q189 -25 282.5 -146t63.5 -294q-30 -163 -169 -271t-328 -108h-107q-3 12 -3.5 25.5t0.5 31.5t1 25
h121q144 0 256.5 86.5t132.5 210.5q30 159 -74.5 268t-310.5 121l-6 90q158 11 260.5 96.5t118.5 192.5q23 126 -44 194t-200 68z" />
    <glyph glyph-name="agrave" unicode="&#xe0;" horiz-adv-x="1327" 
d="M1057 0l43 256q-80 -127 -210.5 -203t-279.5 -76q-153 0 -260 71.5t-149.5 192.5t-18.5 269q25 145 110 264.5t219.5 191.5t289.5 72q151 0 254.5 -75.5t134.5 -200.5l45 254h94l-178 -1016h-94zM629 61q189 0 337.5 129.5t180.5 319.5q22 123 -14 223.5t-126.5 160.5
t-220.5 60q-192 0 -333 -127.5t-174 -316.5q-33 -193 63.5 -321t286.5 -128zM659 1481h111l133 -307h-80z" />
    <glyph glyph-name="aacute" unicode="&#xe1;" horiz-adv-x="1327" 
d="M1057 0l43 256q-80 -127 -210.5 -203t-279.5 -76q-153 0 -260 71.5t-149.5 192.5t-18.5 269q25 145 110 264.5t219.5 191.5t289.5 72q151 0 254.5 -75.5t134.5 -200.5l45 254h94l-178 -1016h-94zM629 61q189 0 337.5 129.5t180.5 319.5q22 123 -14 223.5t-126.5 160.5
t-220.5 60q-192 0 -333 -127.5t-174 -316.5q-33 -193 63.5 -321t286.5 -128zM1006 1481h110l-276 -307h-78z" />
    <glyph glyph-name="acircumflex" unicode="&#xe2;" horiz-adv-x="1327" 
d="M1057 0l43 256q-80 -127 -210.5 -203t-279.5 -76q-153 0 -260 71.5t-149.5 192.5t-18.5 269q25 145 110 264.5t219.5 191.5t289.5 72q151 0 254.5 -75.5t134.5 -200.5l45 254h94l-178 -1016h-94zM629 61q189 0 337.5 129.5t180.5 319.5q22 123 -14 223.5t-126.5 160.5
t-220.5 60q-192 0 -333 -127.5t-174 -316.5q-33 -193 63.5 -321t286.5 -128zM817 1481h109l174 -307h-74l-166 243l-254 -243h-74z" />
    <glyph glyph-name="atilde" unicode="&#xe3;" horiz-adv-x="1327" 
d="M1057 0l43 256q-80 -127 -210.5 -203t-279.5 -76q-153 0 -260 71.5t-149.5 192.5t-18.5 269q25 145 110 264.5t219.5 191.5t289.5 72q151 0 254.5 -75.5t134.5 -200.5l45 254h94l-178 -1016h-94zM629 61q189 0 337.5 129.5t180.5 319.5q22 123 -14 223.5t-126.5 160.5
t-220.5 60q-192 0 -333 -127.5t-174 -316.5q-33 -193 63.5 -321t286.5 -128zM948 1260q-49 0 -128.5 45t-123.5 45q-34 0 -54 -19t-60 -80l-47 11q46 94 83 127.5t89 33.5q49 0 130 -44t121 -44q35 0 56 18.5t59 76.5l47 -11q-43 -93 -80.5 -126t-91.5 -33z" />
    <glyph glyph-name="adieresis" unicode="&#xe4;" horiz-adv-x="1327" 
d="M1057 0l43 256q-80 -127 -210.5 -203t-279.5 -76q-153 0 -260 71.5t-149.5 192.5t-18.5 269q25 145 110 264.5t219.5 191.5t289.5 72q151 0 254.5 -75.5t134.5 -200.5l45 254h94l-178 -1016h-94zM629 61q189 0 337.5 129.5t180.5 319.5q22 123 -14 223.5t-126.5 160.5
t-220.5 60q-192 0 -333 -127.5t-174 -316.5q-33 -193 63.5 -321t286.5 -128zM532 1319q6 32 32 55t57 23q32 0 49.5 -23t11.5 -55q-5 -31 -30.5 -52.5t-57.5 -21.5q-31 0 -49.5 21.5t-12.5 52.5zM961 1319q6 32 31.5 55t56.5 23q32 0 49.5 -23t11.5 -55q-5 -31 -30.5 -52.5
t-57.5 -21.5q-31 0 -49 21.5t-12 52.5z" />
    <glyph glyph-name="aring" unicode="&#xe5;" horiz-adv-x="1327" 
d="M1057 0l43 256q-80 -127 -210.5 -203t-279.5 -76q-153 0 -260 71.5t-149.5 192.5t-18.5 269q25 145 110 264.5t219.5 191.5t289.5 72q151 0 254.5 -75.5t134.5 -200.5l45 254h94l-178 -1016h-94zM629 61q189 0 337.5 129.5t180.5 319.5q22 123 -14 223.5t-126.5 160.5
t-220.5 60q-192 0 -333 -127.5t-174 -316.5q-33 -193 63.5 -321t286.5 -128zM662 1362q12 76 78 132t143 56q78 0 123.5 -55t31.5 -133q-12 -78 -78.5 -133t-144.5 -55t-122.5 55t-30.5 133zM721 1362q-11 -56 19 -92.5t85 -36.5q54 0 98 37t54 92q10 54 -20.5 90.5
t-84.5 36.5q-55 0 -97.5 -36.5t-53.5 -90.5z" />
    <glyph glyph-name="ae" unicode="&#xe6;" horiz-adv-x="1968" 
d="M954 461q-86 30 -189.5 45.5t-174.5 15.5q-172 0 -260.5 -65.5t-108.5 -165.5q-19 -106 62 -168t213 -62q112 0 239 60t223 180q-1 9 -3.5 31t-3.5 32t-1.5 27.5t0.5 34t4 35.5zM1567 954q-161 0 -295 -93.5t-201 -248.5h827q7 172 -87 257t-244 85zM967 537l14 75
q8 57 8.5 107.5t-17.5 93.5t-49.5 73.5t-86.5 48t-129 17.5q-204 0 -367 -108q-7 17 -25 74q79 57 188.5 88.5t225.5 31.5q96 0 165 -23.5t106 -65.5t54 -87t19 -100q88 127 219.5 201.5t288.5 74.5q77 0 144 -18.5t123 -56.5t91 -97.5t49 -141.5t-3 -187h-932
q-13 -78 -9.5 -148.5t31.5 -130.5t73.5 -104t118 -68.5t163.5 -24.5q214 0 382 140l43 -58q-184 -166 -440 -166q-163 0 -272.5 66t-155.5 182q-219 -248 -520 -248q-75 0 -141.5 20.5t-116.5 58.5t-74 98.5t-12 134.5q27 134 144 223.5t308 89.5q214 0 392 -65z" />
    <glyph glyph-name="ccedilla" unicode="&#xe7;" horiz-adv-x="1095" 
d="M180 504q21 112 76.5 209t140 169.5t201.5 114t252 41.5q193 0 332 -114l-60 -68q-116 98 -284 98q-221 0 -372.5 -125.5t-189.5 -320.5q-15 -95 4.5 -176.5t69 -141.5t134 -94.5t194.5 -34.5q165 0 319 99l37 -68q-152 -94 -313 -110q76 -82 57 -201q-20 -112 -109 -175
t-190 -63t-160.5 61.5t-64.5 157.5l61 31q5 -75 54 -124.5t123 -49.5q72 0 135.5 47t77.5 127q20 100 -68 184q-127 4 -223.5 46t-152.5 113t-77 165t-4 203z" />
    <glyph glyph-name="egrave" unicode="&#xe8;" horiz-adv-x="1214" 
d="M1057 201q7 -11 23.5 -28.5t23.5 -29.5q-186 -166 -449 -166q-169 0 -287 72t-165.5 191.5t-22.5 263.5q18 109 77 207.5t143.5 170.5t194.5 114t226 42q97 0 177.5 -29.5t140.5 -88t85 -157.5t5 -226h-946q0 -2 -4 -16t-5 -23q-34 -185 75.5 -311t320.5 -126
q219 0 387 140zM807 954q-162 0 -300.5 -94.5t-199.5 -247.5h838q4 88 -22 155.5t-74.5 107.5t-109.5 59.5t-132 19.5zM641 1481h111l133 -307h-80z" />
    <glyph glyph-name="eacute" unicode="&#xe9;" horiz-adv-x="1214" 
d="M1057 201q7 -11 23.5 -28.5t23.5 -29.5q-186 -166 -449 -166q-169 0 -287 72t-165.5 191.5t-22.5 263.5q18 109 77 207.5t143.5 170.5t194.5 114t226 42q97 0 177.5 -29.5t140.5 -88t85 -157.5t5 -226h-946q0 -2 -4 -16t-5 -23q-34 -185 75.5 -311t320.5 -126
q219 0 387 140zM807 954q-162 0 -300.5 -94.5t-199.5 -247.5h838q4 88 -22 155.5t-74.5 107.5t-109.5 59.5t-132 19.5zM993 1481h111l-277 -307h-77z" />
    <glyph glyph-name="ecircumflex" unicode="&#xea;" horiz-adv-x="1214" 
d="M1057 201q7 -11 23.5 -28.5t23.5 -29.5q-186 -166 -449 -166q-169 0 -287 72t-165.5 191.5t-22.5 263.5q18 109 77 207.5t143.5 170.5t194.5 114t226 42q97 0 177.5 -29.5t140.5 -88t85 -157.5t5 -226h-946q0 -2 -4 -16t-5 -23q-34 -185 75.5 -311t320.5 -126
q219 0 387 140zM807 954q-162 0 -300.5 -94.5t-199.5 -247.5h838q4 88 -22 155.5t-74.5 107.5t-109.5 59.5t-132 19.5zM815 1481h109l174 -307h-74l-166 243l-254 -243h-74z" />
    <glyph glyph-name="edieresis" unicode="&#xeb;" horiz-adv-x="1214" 
d="M1057 201q7 -11 23.5 -28.5t23.5 -29.5q-186 -166 -449 -166q-169 0 -287 72t-165.5 191.5t-22.5 263.5q18 109 77 207.5t143.5 170.5t194.5 114t226 42q97 0 177.5 -29.5t140.5 -88t85 -157.5t5 -226h-946q0 -2 -4 -16t-5 -23q-34 -185 75.5 -311t320.5 -126
q219 0 387 140zM807 954q-162 0 -300.5 -94.5t-199.5 -247.5h838q4 88 -22 155.5t-74.5 107.5t-109.5 59.5t-132 19.5zM553 1319q6 32 31.5 55t56.5 23q32 0 49.5 -23t11.5 -55q-5 -31 -30.5 -52.5t-57.5 -21.5q-31 0 -49 21.5t-12 52.5zM981 1319q6 32 31.5 55t56.5 23
q32 0 49.5 -23t11.5 -55q-5 -31 -30.5 -52.5t-57.5 -21.5q-31 0 -49 21.5t-12 52.5z" />
    <glyph glyph-name="igrave" unicode="&#xec;" horiz-adv-x="462" 
d="M457 1016l-178 -1016h-95l178 1016h95zM260 1481h111l133 -307h-80z" />
    <glyph glyph-name="iacute" unicode="&#xed;" horiz-adv-x="462" 
d="M457 1016l-178 -1016h-95l178 1016h95zM612 1481h111l-277 -307h-77z" />
    <glyph glyph-name="icircumflex" unicode="&#xee;" horiz-adv-x="462" 
d="M457 1016l-178 -1016h-95l178 1016h95zM426 1481h109l174 -307h-74l-166 243l-254 -243h-74z" />
    <glyph glyph-name="idieresis" unicode="&#xef;" horiz-adv-x="462" 
d="M457 1016l-178 -1016h-95l178 1016h95zM164 1319q6 32 31.5 55t56.5 23q32 0 49.5 -23t11.5 -55q-5 -31 -30.5 -52.5t-57.5 -21.5q-31 0 -49 21.5t-12 52.5zM592 1319q6 32 31.5 55t56.5 23q32 0 49.5 -23t11.5 -55q-5 -31 -30.5 -52.5t-57.5 -21.5q-31 0 -49 21.5
t-12 52.5z" />
    <glyph glyph-name="eth" unicode="&#xf0;" horiz-adv-x="1257" 
d="M885 1270l-318 -125l-20 59l293 115q-50 58 -148 141l80 58q105 -90 162 -160l268 106l25 -59l-250 -98q93 -116 160.5 -246t100 -279.5t9.5 -279.5q-41 -224 -222.5 -374.5t-401.5 -150.5q-145 0 -256.5 70t-162 191.5t-24.5 265.5q27 145 119 266.5t225 191.5t275 70
q87 0 168.5 -32t132.5 -95q-69 194 -215 365zM276 506q-22 -122 18.5 -224.5t130.5 -161.5t208 -59q187 0 335 127.5t185 315.5q25 189 -74 317.5t-284 128.5q-183 0 -335 -130t-184 -314z" />
    <glyph glyph-name="ntilde" unicode="&#xf1;" horiz-adv-x="1224" 
d="M973 0l102 584q17 86 7 149.5t-32.5 105.5t-63 68t-84 36.5t-95.5 10.5q-41 0 -87.5 -11.5t-103 -43t-105 -78t-89.5 -123.5t-60 -174l-92 -524h-94l178 1016h95l-43 -236q51 90 128.5 150.5t149.5 84t141 23.5q68 0 124 -14t107 -46t79.5 -84t41 -129t-7.5 -181
l-102 -584h-94zM967 1260q-49 0 -128.5 45t-123.5 45q-34 0 -55 -19.5t-60 -79.5l-47 11q46 94 83 127.5t89 33.5q49 0 132 -44t122 -44q35 0 55 18t58 77l47 -11q-43 -93 -80.5 -126t-91.5 -33z" />
    <glyph glyph-name="ograve" unicode="&#xf2;" horiz-adv-x="1253" 
d="M180 506q24 144 118.5 267t230.5 194t278 71q146 0 256.5 -72t160 -194t25.5 -266q-24 -142 -118 -264t-231 -193.5t-282 -71.5q-143 0 -252.5 70t-159.5 192t-26 267zM276 506q-32 -184 72.5 -314.5t284.5 -130.5q119 0 231.5 59.5t190 162t98.5 223.5q32 185 -73 316.5
t-287 131.5q-117 0 -228.5 -60t-189.5 -163.5t-99 -224.5zM606 1481h111l133 -307h-80z" />
    <glyph glyph-name="oacute" unicode="&#xf3;" horiz-adv-x="1253" 
d="M180 506q24 144 118.5 267t230.5 194t278 71q146 0 256.5 -72t160 -194t25.5 -266q-24 -142 -118 -264t-231 -193.5t-282 -71.5q-143 0 -252.5 70t-159.5 192t-26 267zM276 506q-32 -184 72.5 -314.5t284.5 -130.5q119 0 231.5 59.5t190 162t98.5 223.5q32 185 -73 316.5
t-287 131.5q-117 0 -228.5 -60t-189.5 -163.5t-99 -224.5zM999 1481h111l-276 -307h-78z" />
    <glyph glyph-name="ocircumflex" unicode="&#xf4;" horiz-adv-x="1253" 
d="M180 506q24 144 118.5 267t230.5 194t278 71q146 0 256.5 -72t160 -194t25.5 -266q-24 -142 -118 -264t-231 -193.5t-282 -71.5q-143 0 -252.5 70t-159.5 192t-26 267zM276 506q-32 -184 72.5 -314.5t284.5 -130.5q119 0 231.5 59.5t190 162t98.5 223.5q32 185 -73 316.5
t-287 131.5q-117 0 -228.5 -60t-189.5 -163.5t-99 -224.5zM831 1481h109l174 -307h-74l-166 243l-253 -243h-74z" />
    <glyph glyph-name="otilde" unicode="&#xf5;" horiz-adv-x="1253" 
d="M180 506q24 144 118.5 267t230.5 194t278 71q146 0 256.5 -72t160 -194t25.5 -266q-24 -142 -118 -264t-231 -193.5t-282 -71.5q-143 0 -252.5 70t-159.5 192t-26 267zM276 506q-32 -184 72.5 -314.5t284.5 -130.5q119 0 231.5 59.5t190 162t98.5 223.5q32 185 -73 316.5
t-287 131.5q-117 0 -228.5 -60t-189.5 -163.5t-99 -224.5zM983 1260q-49 0 -128.5 45t-123.5 45q-34 0 -55 -19.5t-60 -79.5l-47 11q46 94 83 127.5t89 33.5q49 0 131 -44t121 -44q35 0 56 18.5t59 76.5l47 -11q-43 -93 -80.5 -126t-91.5 -33z" />
    <glyph glyph-name="odieresis" unicode="&#xf6;" horiz-adv-x="1253" 
d="M180 506q24 144 118.5 267t230.5 194t278 71q146 0 256.5 -72t160 -194t25.5 -266q-24 -142 -118 -264t-231 -193.5t-282 -71.5q-143 0 -252.5 70t-159.5 192t-26 267zM276 506q-32 -184 72.5 -314.5t284.5 -130.5q119 0 231.5 59.5t190 162t98.5 223.5q32 185 -73 316.5
t-287 131.5q-117 0 -228.5 -60t-189.5 -163.5t-99 -224.5zM569 1319q6 32 31.5 55t56.5 23q32 0 50 -23t12 -55q-5 -31 -30.5 -52.5t-57.5 -21.5q-31 0 -49.5 21.5t-12.5 52.5zM997 1319q6 32 31.5 55t56.5 23q32 0 50 -23t12 -55q-5 -31 -30.5 -52.5t-57.5 -21.5
q-31 0 -49.5 21.5t-12.5 52.5z" />
    <glyph glyph-name="divide" unicode="&#xf7;" horiz-adv-x="1320" 
d="M616 215q6 36 32 59t61 23q36 0 56.5 -23.5t14.5 -58.5t-35 -58.5t-65 -23.5q-35 0 -52.5 23t-11.5 59zM758 1020q6 35 32.5 58.5t61.5 23.5t55.5 -23.5t14.5 -58.5t-34 -58.5t-63 -23.5t-54 23.5t-13 58.5zM258 569l14 86h1006l-14 -86h-1006z" />
    <glyph glyph-name="oslash" unicode="&#xf8;" horiz-adv-x="1253" 
d="M180 506q24 144 118.5 267t230.5 194t278 71q147 0 266 -82l121 134l49 -48l-117 -127q78 -76 112 -183t11 -226q-24 -142 -118 -264t-231 -193.5t-282 -71.5q-155 0 -270 80l-112 -127l-50 47l113 123q-77 74 -109.5 180t-9.5 226zM1153 506q18 97 -7.5 184.5
t-84.5 151.5l-647 -713q95 -68 219 -68q119 0 231.5 59.5t190 162t98.5 223.5zM276 506q-18 -97 6 -183.5t83 -148.5l645 713q-94 67 -217 67q-117 0 -228.5 -60t-189.5 -163.5t-99 -224.5z" />
    <glyph glyph-name="ugrave" unicode="&#xf9;" horiz-adv-x="1226" 
d="M430 1016l-104 -584q-17 -86 -7 -149.5t33 -106t63 -68t83.5 -36.5t95.5 -11q40 0 87 12t103 43t104.5 77.5t90.5 124t63 174.5l93 524h94l-178 -1016h-95l41 233q-77 -130 -194 -193t-228 -63q-68 0 -124 14t-106.5 46t-79.5 84.5t-41.5 129.5t7.5 181l105 584h94z
M623 1481h110l133 -307h-80z" />
    <glyph glyph-name="uacute" unicode="&#xfa;" horiz-adv-x="1226" 
d="M430 1016l-104 -584q-17 -86 -7 -149.5t33 -106t63 -68t83.5 -36.5t95.5 -11q40 0 87 12t103 43t104.5 77.5t90.5 124t63 174.5l93 524h94l-178 -1016h-95l41 233q-77 -130 -194 -193t-228 -63q-68 0 -124 14t-106.5 46t-79.5 84.5t-41.5 129.5t7.5 181l105 584h94z
M973 1481h110l-276 -307h-78z" />
    <glyph glyph-name="ucircumflex" unicode="&#xfb;" horiz-adv-x="1226" 
d="M430 1016l-104 -584q-17 -86 -7 -149.5t33 -106t63 -68t83.5 -36.5t95.5 -11q40 0 87 12t103 43t104.5 77.5t90.5 124t63 174.5l93 524h94l-178 -1016h-95l41 233q-77 -130 -194 -193t-228 -63q-68 0 -124 14t-106.5 46t-79.5 84.5t-41.5 129.5t7.5 181l105 584h94z
M821 1481h109l174 -307h-74l-166 243l-254 -243h-73z" />
    <glyph glyph-name="udieresis" unicode="&#xfc;" horiz-adv-x="1226" 
d="M430 1016l-104 -584q-17 -86 -7 -149.5t33 -106t63 -68t83.5 -36.5t95.5 -11q40 0 87 12t103 43t104.5 77.5t90.5 124t63 174.5l93 524h94l-178 -1016h-95l41 233q-77 -130 -194 -193t-228 -63q-68 0 -124 14t-106.5 46t-79.5 84.5t-41.5 129.5t7.5 181l105 584h94z
M559 1319q6 32 31.5 55t56.5 23q32 0 49.5 -23t10.5 -55q-5 -31 -29.5 -52.5t-56.5 -21.5q-31 0 -49.5 21.5t-12.5 52.5zM987 1319q6 32 31.5 55t56.5 23q32 0 49.5 -23t10.5 -55q-5 -31 -29.5 -52.5t-56.5 -21.5q-31 0 -49.5 21.5t-12.5 52.5z" />
    <glyph glyph-name="yacute" unicode="&#xfd;" horiz-adv-x="1083" 
d="M561 94l539 922h108l-880 -1475h-99l260 443l-260 1032h107zM893 1481h111l-277 -307h-78z" />
    <glyph glyph-name="thorn" unicode="&#xfe;" horiz-adv-x="1327" 
d="M313 256l-127 -715h-94l344 1940h94l-124 -719q77 126 205.5 201t279.5 75q158 0 265.5 -72t148.5 -191t16 -265q-37 -225 -212 -379t-404 -154q-149 0 -252.5 76t-139.5 203zM717 61q190 0 332.5 128.5t175.5 320.5q22 124 -11 224t-120.5 160t-216.5 60
q-195 0 -341.5 -128t-179.5 -316q-21 -125 17 -227.5t128.5 -162t215.5 -59.5z" />
    <glyph glyph-name="ydieresis" unicode="&#xff;" horiz-adv-x="1083" 
d="M561 94l539 922h108l-880 -1475h-99l260 443l-260 1032h107zM477 1319q6 32 31.5 55t56.5 23q32 0 50 -23t12 -55q-5 -31 -30.5 -52.5t-57.5 -21.5q-31 0 -49.5 21.5t-12.5 52.5zM905 1319q6 32 31.5 55t56.5 23q32 0 50 -23t12 -55q-5 -31 -30.5 -52.5t-57.5 -21.5
q-31 0 -49.5 21.5t-12.5 52.5z" />
    <glyph glyph-name="Amacron" unicode="&#x100;" horiz-adv-x="1349" 
d="M369 406h753l-211 935zM1139 322h-820l-184 -322h-102l831 1434h123l330 -1434h-103zM729 1724h498l-15 -77h-497z" />
    <glyph glyph-name="amacron" unicode="&#x101;" horiz-adv-x="1327" 
d="M1057 0l43 256q-80 -127 -210.5 -203t-279.5 -76q-153 0 -260 71.5t-149.5 192.5t-18.5 269q25 145 110 264.5t219.5 191.5t289.5 72q151 0 254.5 -75.5t134.5 -200.5l45 254h94l-178 -1016h-94zM629 61q189 0 337.5 129.5t180.5 319.5q22 123 -14 223.5t-126.5 160.5
t-220.5 60q-192 0 -333 -127.5t-174 -316.5q-33 -193 63.5 -321t286.5 -128zM604 1374h498l-15 -78h-497z" />
    <glyph glyph-name="Abreve" unicode="&#x102;" horiz-adv-x="1349" 
d="M369 406h753l-211 935zM1139 322h-820l-184 -322h-102l831 1434h123l330 -1434h-103zM1196 1839l64 -6q-32 -119 -116 -190.5t-192 -71.5q-106 0 -164.5 72t-48.5 190l64 6q-2 -87 40 -143t124 -56t141.5 56t87.5 143z" />
    <glyph glyph-name="abreve" unicode="&#x103;" horiz-adv-x="1327" 
d="M1057 0l43 256q-80 -127 -210.5 -203t-279.5 -76q-153 0 -260 71.5t-149.5 192.5t-18.5 269q25 145 110 264.5t219.5 191.5t289.5 72q151 0 254.5 -75.5t134.5 -200.5l45 254h94l-178 -1016h-94zM629 61q189 0 337.5 129.5t180.5 319.5q22 123 -14 223.5t-126.5 160.5
t-220.5 60q-192 0 -333 -127.5t-174 -316.5q-33 -193 63.5 -321t286.5 -128zM1120 1464l66 -6q-35 -127 -119 -198.5t-195 -71.5q-110 0 -167.5 71.5t-47.5 198.5l66 6q-5 -89 38.5 -144.5t127.5 -55.5q83 0 143.5 55t87.5 145z" />
    <glyph glyph-name="Aogonek" unicode="&#x104;" horiz-adv-x="1347" 
d="M1137 322h-820l-184 -322h-102l831 1434h123l330 -1434q-97 -18 -157 -78.5t-73 -132.5q-13 -78 33 -124t119 -46q74 0 140.5 49.5t97.5 124.5l53 -31q-38 -95 -121.5 -157t-185.5 -62q-103 0 -169 62.5t-46 175.5q6 37 25.5 77t65.5 85t109 73zM367 406h753l-211 935z
" />
    <glyph glyph-name="aogonek" unicode="&#x105;" horiz-adv-x="1327" 
d="M1153 23l-39 -23q-80 -45 -120.5 -100t-49.5 -107q-14 -80 33 -127t119 -47q74 0 140 49.5t97 124.5l53 -31q-38 -95 -121.5 -157t-185.5 -62q-103 0 -168 62.5t-45 175.5q9 57 55.5 122.5t137.5 116.5l41 236q-80 -127 -210.5 -203t-279.5 -76q-153 0 -260 71.5
t-149.5 192.5t-18.5 269q25 145 110 264.5t219.5 191.5t289.5 72q151 0 254.5 -75.5t134.5 -200.5l45 254h94zM629 61q189 0 337.5 129.5t180.5 319.5q22 123 -14 223.5t-126.5 160.5t-220.5 60q-192 0 -333 -127.5t-174 -316.5q-33 -193 63.5 -321t286.5 -128z" />
    <glyph glyph-name="Cacute" unicode="&#x106;" horiz-adv-x="1425" 
d="M231 717q27 150 104.5 284t193 235t273.5 160.5t335 59.5q264 0 440 -149l-53 -78q-156 139 -404 139q-155 0 -293.5 -52t-239 -141.5t-168 -207.5t-89.5 -250q-19 -88 -11 -170.5t33 -155t74.5 -132t115 -102.5t155 -67t192.5 -24q245 0 454 137l23 -78
q-112 -73 -229 -110.5t-263 -37.5q-119 0 -221.5 27t-177.5 76t-132 117.5t-85.5 150.5t-37.5 175.5t11 193.5zM1270 1851h106l-254 -284h-78z" />
    <glyph glyph-name="cacute" unicode="&#x107;" horiz-adv-x="1095" 
d="M180 504q21 112 76.5 209t140 169.5t201.5 114t252 41.5q193 0 332 -114l-60 -68q-116 98 -284 98q-220 0 -373 -126t-191 -320q-20 -127 19.5 -227.5t139 -160t245.5 -59.5q165 0 319 99l37 -68q-180 -115 -372 -115q-133 0 -234.5 41t-161 112.5t-82 167.5t-4.5 206z
M985 1481h111l-277 -307h-78z" />
    <glyph glyph-name="Ccircumflex" unicode="&#x108;" horiz-adv-x="1425" 
d="M231 717q27 150 104.5 284t193 235t273.5 160.5t335 59.5q264 0 440 -149l-53 -78q-156 139 -404 139q-155 0 -293.5 -52t-239 -141.5t-168 -207.5t-89.5 -250q-19 -88 -11 -170.5t33 -155t74.5 -132t115 -102.5t155 -67t192.5 -24q245 0 454 137l23 -78
q-112 -73 -229 -110.5t-263 -37.5q-119 0 -221.5 27t-177.5 76t-132 117.5t-85.5 150.5t-37.5 175.5t11 193.5zM1079 1851h107l160 -284h-76l-154 223l-229 -223h-74z" />
    <glyph glyph-name="ccircumflex" unicode="&#x109;" horiz-adv-x="1095" 
d="M180 504q21 112 76.5 209t140 169.5t201.5 114t252 41.5q193 0 332 -114l-60 -68q-116 98 -284 98q-220 0 -373 -126t-191 -320q-20 -127 19.5 -227.5t139 -160t245.5 -59.5q165 0 319 99l37 -68q-180 -115 -372 -115q-133 0 -234.5 41t-161 112.5t-82 167.5t-4.5 206z
M809 1481h109l174 -307h-74l-166 243l-254 -243h-74z" />
    <glyph glyph-name="Cdotaccent" unicode="&#x10a;" horiz-adv-x="1425" 
d="M231 717q27 150 104.5 284t193 235t273.5 160.5t335 59.5q264 0 440 -149l-53 -78q-156 139 -404 139q-155 0 -293.5 -52t-239 -141.5t-168 -207.5t-89.5 -250q-19 -88 -11 -170.5t33 -155t74.5 -132t115 -102.5t155 -67t192.5 -24q245 0 454 137l23 -78
q-112 -73 -229 -110.5t-263 -37.5q-119 0 -221.5 27t-177.5 76t-132 117.5t-85.5 150.5t-37.5 175.5t11 193.5zM1042 1702q8 37 31 58.5t55 21.5q33 0 50 -22t10 -58q-6 -35 -30 -57.5t-56 -22.5t-49 22.5t-11 57.5z" />
    <glyph glyph-name="cdotaccent" unicode="&#x10b;" horiz-adv-x="1095" 
d="M180 504q21 112 76.5 209t140 169.5t201.5 114t252 41.5q193 0 332 -114l-60 -68q-116 98 -284 98q-220 0 -373 -126t-191 -320q-20 -127 19.5 -227.5t139 -160t245.5 -59.5q165 0 319 99l37 -68q-180 -115 -372 -115q-133 0 -234.5 41t-161 112.5t-82 167.5t-4.5 206z
M776 1309q6 36 31.5 60t58.5 24q32 0 48 -23.5t10 -60.5q-6 -36 -30.5 -58t-57.5 -22t-49.5 22t-10.5 58z" />
    <glyph glyph-name="Ccaron" unicode="&#x10c;" horiz-adv-x="1425" 
d="M231 717q27 150 104.5 284t193 235t273.5 160.5t335 59.5q264 0 440 -149l-53 -78q-156 139 -404 139q-155 0 -293.5 -52t-239 -141.5t-168 -207.5t-89.5 -250q-19 -88 -11 -170.5t33 -155t74.5 -132t115 -102.5t155 -67t192.5 -24q245 0 454 137l23 -78
q-112 -73 -229 -110.5t-263 -37.5q-119 0 -221.5 27t-177.5 76t-132 117.5t-85.5 150.5t-37.5 175.5t11 193.5zM1151 1567h-107l-159 284h73l150 -225l233 225h76z" />
    <glyph glyph-name="ccaron" unicode="&#x10d;" horiz-adv-x="1095" 
d="M180 504q21 112 76.5 209t140 169.5t201.5 114t252 41.5q193 0 332 -114l-60 -68q-116 98 -284 98q-220 0 -373 -126t-191 -320q-20 -127 19.5 -227.5t139 -160t245.5 -59.5q165 0 319 99l37 -68q-180 -115 -372 -115q-133 0 -234.5 41t-161 112.5t-82 167.5t-4.5 206z
M864 1174h-108l-174 307h73l166 -244l254 244h74z" />
    <glyph glyph-name="Dcaron" unicode="&#x10e;" horiz-adv-x="1480" 
d="M956 1567h-106l-162 284h74l149 -225l234 225h76zM332 84h301q158 0 292.5 49.5t229 136.5t155.5 201t83 246q15 105 8.5 199.5t-46.5 174t-104 137t-165 90t-228 32.5h-301zM621 0h-398l252 1434h397q123 0 225 -25.5t174.5 -72.5t125.5 -112.5t78 -145t31.5 -171
t-13.5 -190.5q-22 -120 -70 -226.5t-124 -196.5t-174.5 -155.5t-227.5 -102t-276 -36.5z" />
    <glyph glyph-name="dcaron" unicode="&#x10f;" horiz-adv-x="1333" 
d="M1057 0l43 256q-80 -127 -210.5 -203t-279.5 -76q-153 0 -260 71.5t-149.5 192.5t-18.5 269q25 145 110 264.5t219.5 191.5t289.5 72q151 0 254.5 -75.5t134.5 -200.5l127 719h94l-260 -1481h-94zM629 61q189 0 337.5 129.5t180.5 319.5q22 123 -14 223.5t-126.5 160.5
t-220.5 60q-192 0 -333 -127.5t-174 -316.5q-33 -193 63.5 -321t286.5 -128zM1612 1329q-15 -6 -33 -6q-29 0 -46 16t-11 50q5 30 27.5 49.5t56.5 19.5q48 0 65.5 -33.5t9.5 -81.5q-27 -143 -174 -229l-18 37q42 30 79 73t44 83q3 13 0 22z" />
    <glyph glyph-name="Dcroat" unicode="&#x110;" horiz-adv-x="1480" 
d="M621 0h-398l115 659h-170l12 76h170l123 699h397q123 0 225 -25.5t175 -72.5t126 -112.5t78.5 -145t32 -171t-13.5 -190.5q-22 -120 -70 -226.5t-124 -196.5t-174.5 -155.5t-227.5 -102t-276 -36.5zM332 84h301q158 0 292.5 49.5t229 136.5t155.5 201t83 246
q15 105 8.5 199.5t-46.5 174t-104 137t-165 90t-228 32.5h-301l-111 -615h396l-13 -76h-395z" />
    <glyph glyph-name="dcroat" unicode="&#x111;" horiz-adv-x="1327" 
d="M1057 0l43 256q-80 -127 -210.5 -203t-279.5 -76q-153 0 -260 71.5t-149.5 192.5t-18.5 269q25 145 110 264.5t219.5 191.5t289.5 72q151 0 254.5 -75.5t134.5 -200.5l80 455h-344l12 61h344l35 203h94l-35 -203h160l-12 -61h-160l-213 -1217h-94zM629 61
q189 0 337.5 129.5t180.5 319.5q22 123 -14 223.5t-126.5 160.5t-220.5 60q-192 0 -333 -127.5t-174 -316.5q-33 -193 63.5 -321t286.5 -128z" />
    <glyph glyph-name="Emacron" unicode="&#x112;" horiz-adv-x="1200" 
d="M1102 82l-12 -82h-867l252 1434h866l-14 -84h-770l-106 -607h673l-16 -84h-674l-102 -577h770zM674 1724h497l-14 -77h-498z" />
    <glyph glyph-name="emacron" unicode="&#x113;" horiz-adv-x="1214" 
d="M1057 201q7 -11 23.5 -28.5t23.5 -29.5q-186 -166 -449 -166q-169 0 -287 72t-165.5 191.5t-22.5 263.5q18 109 77 207.5t143.5 170.5t194.5 114t226 42q97 0 177.5 -29.5t140.5 -88t85 -157.5t5 -226h-946q0 -2 -4 -16t-5 -23q-34 -185 75.5 -311t320.5 -126
q219 0 387 140zM807 954q-162 0 -300.5 -94.5t-199.5 -247.5h838q4 88 -22 155.5t-74.5 107.5t-109.5 59.5t-132 19.5zM602 1374h498l-15 -78h-497z" />
    <glyph glyph-name="Ebreve" unicode="&#x114;" horiz-adv-x="1200" 
d="M1102 82l-12 -82h-867l252 1434h866l-14 -84h-770l-106 -607h673l-16 -84h-674l-102 -577h770zM1182 1839l63 -6q-32 -119 -115.5 -190.5t-191.5 -71.5q-106 0 -164.5 72t-48.5 190l63 6q-2 -87 40 -143t124 -56t142 56t88 143z" />
    <glyph glyph-name="ebreve" unicode="&#x115;" horiz-adv-x="1214" 
d="M1057 201q7 -11 23.5 -28.5t23.5 -29.5q-186 -166 -449 -166q-169 0 -287 72t-165.5 191.5t-22.5 263.5q18 109 77 207.5t143.5 170.5t194.5 114t226 42q97 0 177.5 -29.5t140.5 -88t85 -157.5t5 -226h-946q0 -2 -4 -16t-5 -23q-34 -185 75.5 -311t320.5 -126
q219 0 387 140zM807 954q-162 0 -300.5 -94.5t-199.5 -247.5h838q4 88 -22 155.5t-74.5 107.5t-109.5 59.5t-132 19.5zM1065 1464l65 -6q-35 -127 -118.5 -198.5t-194.5 -71.5q-110 0 -167.5 71.5t-47.5 198.5l66 6q-5 -89 38.5 -144.5t127.5 -55.5q83 0 143.5 55t87.5 145z
" />
    <glyph glyph-name="Edotaccent" unicode="&#x116;" horiz-adv-x="1200" 
d="M1102 82l-12 -82h-867l252 1434h866l-14 -84h-770l-106 -607h673l-16 -84h-674l-102 -577h770zM846 1702q8 37 31 58.5t55 21.5q33 0 49.5 -22t9.5 -58q-6 -35 -30 -57.5t-56 -22.5t-48.5 22.5t-10.5 57.5z" />
    <glyph glyph-name="edotaccent" unicode="&#x117;" horiz-adv-x="1214" 
d="M1057 201q7 -11 23.5 -28.5t23.5 -29.5q-186 -166 -449 -166q-169 0 -287 72t-165.5 191.5t-22.5 263.5q18 109 77 207.5t143.5 170.5t194.5 114t226 42q97 0 177.5 -29.5t140.5 -88t85 -157.5t5 -226h-946q0 -2 -4 -16t-5 -23q-34 -185 75.5 -311t320.5 -126
q219 0 387 140zM807 954q-162 0 -300.5 -94.5t-199.5 -247.5h838q4 88 -22 155.5t-74.5 107.5t-109.5 59.5t-132 19.5zM766 1309q6 36 31.5 60t58.5 24q32 0 47.5 -23.5t9.5 -60.5q-6 -36 -30.5 -58t-57.5 -22q-32 0 -48.5 21.5t-10.5 58.5z" />
    <glyph glyph-name="Eogonek" unicode="&#x118;" horiz-adv-x="1200" 
d="M1102 82l-12 -82h-359q-79 -45 -120 -100.5t-50 -106.5q-14 -80 33 -127t119 -47q74 0 140.5 49.5t96.5 124.5l54 -31q-38 -95 -122 -157t-186 -62q-103 0 -168 62.5t-45 175.5q23 132 160 219h-420l252 1434h866l-14 -84h-770l-106 -607h673l-16 -84h-674l-102 -577h770
z" />
    <glyph glyph-name="eogonek" unicode="&#x119;" horiz-adv-x="1214" 
d="M1229 537h-948q0 -1 -5 -21q-22 -124 15.5 -226.5t135.5 -165.5t241 -63q221 0 389 140q7 -11 22.5 -28.5t22.5 -29.5q-124 -85 -228 -133q-86 -41 -134 -100t-60 -117q-12 -72 33.5 -123t117.5 -51q74 0 140.5 49.5t97.5 124.5l53 -31q-38 -95 -121.5 -157t-185.5 -62
q-103 0 -168 62.5t-45 175.5q7 45 39 99.5t94 103.5q-51 -7 -82 -7q-168 0 -285.5 71.5t-165 190.5t-22.5 263q24 146 116 269t230.5 195t290.5 72q99 0 180.5 -30.5t140.5 -90t84 -157t7 -223.5zM805 954q-158 0 -294 -92.5t-206 -249.5h840q2 89 -24 156t-74 107
t-109 59.5t-133 19.5z" />
    <glyph glyph-name="Ecaron" unicode="&#x11a;" horiz-adv-x="1200" 
d="M1102 82l-12 -82h-867l252 1434h866l-14 -84h-770l-106 -607h673l-16 -84h-674l-102 -577h770zM979 1567h-107l-161 284h73l150 -225l233 225h76z" />
    <glyph glyph-name="ecaron" unicode="&#x11b;" horiz-adv-x="1214" 
d="M1057 201q7 -11 23.5 -28.5t23.5 -29.5q-186 -166 -449 -166q-169 0 -287 72t-165.5 191.5t-22.5 263.5q18 109 77 207.5t143.5 170.5t194.5 114t226 42q97 0 177.5 -29.5t140.5 -88t85 -157.5t5 -226h-946q0 -2 -4 -16t-5 -23q-34 -185 75.5 -311t320.5 -126
q219 0 387 140zM807 954q-162 0 -300.5 -94.5t-199.5 -247.5h838q4 88 -22 155.5t-74.5 107.5t-109.5 59.5t-132 19.5zM868 1174h-108l-174 307h73l166 -244l254 244h74z" />
    <glyph glyph-name="Gcircumflex" unicode="&#x11c;" horiz-adv-x="1515" 
d="M1079 1368q-165 0 -324.5 -84.5t-275 -235.5t-147.5 -331q-22 -130 5 -248.5t95.5 -207.5t185.5 -142t265 -53q255 0 446 129l70 393h-428l14 86h520l-92 -516q-232 -181 -547 -181q-219 0 -378 101t-226 269.5t-31 369.5q28 153 113.5 291t203.5 235.5t262 155t286 57.5
q155 0 273 -29t212 -102l-53 -78q-96 74 -200 97.5t-249 23.5zM1077 1851h107l159 -284h-75l-154 223l-229 -223h-74z" />
    <glyph glyph-name="gcircumflex" unicode="&#x11d;" horiz-adv-x="1325" 
d="M1059 23l41 233q-80 -127 -210.5 -203t-279.5 -76q-153 0 -260 71.5t-149.5 192.5t-18.5 269q25 145 110 264.5t219.5 191.5t289.5 72q151 0 254.5 -75.5t134.5 -200.5l45 254h94l-178 -1000q-41 -229 -208.5 -363t-397.5 -134q-130 0 -228.5 31.5t-183.5 99.5
q12 13 28 39t27 39q135 -125 369 -125q191 0 328 115t174 305zM629 61q189 0 337.5 129.5t180.5 319.5q22 123 -14 223.5t-126.5 160.5t-220.5 60q-192 0 -333 -127.5t-174 -316.5q-33 -193 63.5 -321t286.5 -128zM823 1481h109l174 -307h-74l-166 243l-254 -243h-73z" />
    <glyph glyph-name="Gbreve" unicode="&#x11e;" horiz-adv-x="1515" 
d="M1079 1368q-165 0 -324.5 -84.5t-275 -235.5t-147.5 -331q-22 -130 5 -248.5t95.5 -207.5t185.5 -142t265 -53q255 0 446 129l70 393h-428l14 86h520l-92 -516q-232 -181 -547 -181q-219 0 -378 101t-226 269.5t-31 369.5q28 153 113.5 291t203.5 235.5t262 155t286 57.5
q155 0 273 -29t212 -102l-53 -78q-96 74 -200 97.5t-249 23.5zM1343 1839l64 -6q-36 -120 -118.5 -191t-190.5 -71q-106 0 -164.5 72t-46.5 190l63 6q-2 -87 40 -143t124 -56t141.5 56t87.5 143z" />
    <glyph glyph-name="gbreve" unicode="&#x11f;" horiz-adv-x="1325" 
d="M1059 23l41 233q-80 -127 -210.5 -203t-279.5 -76q-153 0 -260 71.5t-149.5 192.5t-18.5 269q25 145 110 264.5t219.5 191.5t289.5 72q151 0 254.5 -75.5t134.5 -200.5l45 254h94l-178 -1000q-41 -229 -208.5 -363t-397.5 -134q-130 0 -228.5 31.5t-183.5 99.5
q12 13 28 39t27 39q135 -125 369 -125q191 0 328 115t174 305zM629 61q189 0 337.5 129.5t180.5 319.5q22 123 -14 223.5t-126.5 160.5t-220.5 60q-192 0 -333 -127.5t-174 -316.5q-33 -193 63.5 -321t286.5 -128zM1112 1464l66 -6q-35 -127 -119 -198.5t-195 -71.5
q-110 0 -167.5 71.5t-47.5 198.5l66 6q-5 -89 38.5 -144.5t127.5 -55.5q83 0 143.5 55t87.5 145z" />
    <glyph glyph-name="Gdotaccent" unicode="&#x120;" horiz-adv-x="1515" 
d="M1079 1368q-165 0 -324.5 -84.5t-275 -235.5t-147.5 -331q-22 -130 5 -248.5t95.5 -207.5t185.5 -142t265 -53q255 0 446 129l70 393h-428l14 86h520l-92 -516q-232 -181 -547 -181q-219 0 -378 101t-226 269.5t-31 369.5q28 153 113.5 291t203.5 235.5t262 155t286 57.5
q155 0 273 -29t212 -102l-53 -78q-96 74 -200 97.5t-249 23.5zM1044 1702q8 37 30 58.5t54 21.5q33 0 51 -22t11 -58q-6 -35 -30 -57.5t-56 -22.5t-49 22.5t-11 57.5z" />
    <glyph glyph-name="gdotaccent" unicode="&#x121;" horiz-adv-x="1325" 
d="M1059 23l41 233q-80 -127 -210.5 -203t-279.5 -76q-153 0 -260 71.5t-149.5 192.5t-18.5 269q25 145 110 264.5t219.5 191.5t289.5 72q151 0 254.5 -75.5t134.5 -200.5l45 254h94l-178 -1000q-41 -229 -208.5 -363t-397.5 -134q-130 0 -228.5 31.5t-183.5 99.5
q12 13 28 39t27 39q135 -125 369 -125q191 0 328 115t174 305zM629 61q189 0 337.5 129.5t180.5 319.5q22 123 -14 223.5t-126.5 160.5t-220.5 60q-192 0 -333 -127.5t-174 -316.5q-33 -193 63.5 -321t286.5 -128zM778 1309q6 36 31.5 60t58.5 24q32 0 48 -23.5t10 -60.5
q-6 -36 -30.5 -58t-57.5 -22t-49.5 22t-10.5 58z" />
    <glyph glyph-name="Gcommaaccent" unicode="&#x122;" horiz-adv-x="1515" 
d="M1079 1368q-165 0 -324.5 -84.5t-275 -235.5t-147.5 -331q-22 -130 5 -248.5t95.5 -207.5t185.5 -142t265 -53q255 0 446 129l70 393h-428l14 86h520l-92 -516q-232 -181 -547 -181q-219 0 -378 101t-226 269.5t-31 369.5q28 153 113.5 291t203.5 235.5t262 155t286 57.5
q155 0 273 -29t212 -102l-53 -78q-96 74 -200 97.5t-249 23.5zM850 -256q-18 -6 -37 -6q-29 0 -46 15.5t-11 49.5q5 30 28.5 50t57.5 20q48 0 66 -34t10 -81q-11 -60 -54.5 -121t-118.5 -108l-24 37q49 34 88 79.5t39 80.5q0 16 2 18z" />
    <glyph glyph-name="gcommaaccent" unicode="&#x123;" horiz-adv-x="1325" 
d="M1059 23l41 233q-80 -127 -210.5 -203t-279.5 -76q-153 0 -260 71.5t-149.5 192.5t-18.5 269q25 145 110 264.5t219.5 191.5t289.5 72q151 0 254.5 -75.5t134.5 -200.5l45 254h94l-178 -1000q-41 -229 -208.5 -363t-397.5 -134q-130 0 -228.5 31.5t-183.5 99.5
q12 13 28 39t27 39q135 -125 369 -125q191 0 328 115t174 305zM629 61q189 0 337.5 129.5t180.5 319.5q22 123 -14 223.5t-126.5 160.5t-220.5 60q-192 0 -333 -127.5t-174 -316.5q-33 -193 63.5 -321t286.5 -128zM803 1303q18 6 35 6q30 0 48 -16t11 -50q-6 -30 -30 -49.5
t-58 -19.5q-47 0 -64.5 33t-9.5 81q28 146 174 230l19 -37q-41 -29 -78 -72t-47 -84v-22z" />
    <glyph glyph-name="Hcircumflex" unicode="&#x124;" horiz-adv-x="1466" 
d="M1260 639h-828l-113 -639h-96l252 1434h96l-125 -711h828l125 711h96l-252 -1434h-96zM1008 1851h106l162 -284h-76l-153 223l-230 -223h-74z" />
    <glyph glyph-name="hcircumflex" unicode="&#x125;" horiz-adv-x="1226" 
d="M975 0l102 588q17 86 5.5 149t-35 104.5t-64 66.5t-82 35.5t-88.5 10.5q-36 0 -80 -9.5t-103.5 -38.5t-110 -74.5t-94.5 -125.5t-63 -182l-92 -524h-94l260 1481h94l-124 -701q52 90 128.5 150.5t149 84t143.5 23.5q67 0 123 -13.5t107 -45t80 -83t41.5 -128t-7.5 -180.5
l-102 -588h-94zM502 1851h106l162 -284h-76l-153 223l-230 -223h-73z" />
    <glyph glyph-name="Hbar" unicode="&#x126;" horiz-adv-x="1466" 
d="M1260 639h-828l-113 -639h-96l174 1001h-143l14 70h144l63 363h96l-63 -363h827l64 363h96l-63 -363h143l-14 -70h-144l-174 -1001h-96zM446 723h828l47 278h-827z" />
    <glyph glyph-name="hbar" unicode="&#x127;" horiz-adv-x="1226" 
d="M975 0l102 588q17 86 5.5 149t-35 104.5t-64 66.5t-82 35.5t-88.5 10.5q-36 0 -80 -9.5t-103.5 -38.5t-110 -74.5t-94.5 -125.5t-63 -182l-92 -524h-94l215 1219h-149l10 59h149l35 203h94l-34 -203h340l-11 -59h-340l-79 -439q52 90 128.5 150.5t149 84t143.5 23.5
q67 0 123 -13.5t107 -45t80 -83t41.5 -128t-7.5 -180.5l-102 -588h-94z" />
    <glyph glyph-name="Itilde" unicode="&#x128;" horiz-adv-x="542" 
d="M571 1434l-252 -1434h-96l252 1434h96zM692 1620q-48 0 -129 44t-125 44q-34 0 -53.5 -18.5t-58.5 -79.5l-47 12q43 92 81.5 127t90.5 35q49 0 130 -45t121 -45q35 0 55 18t58 76l47 -10q-43 -91 -80 -124.5t-90 -33.5z" />
    <glyph glyph-name="itilde" unicode="&#x129;" horiz-adv-x="462" 
d="M457 1016l-178 -1016h-95l178 1016h95zM578 1260q-49 0 -128.5 45t-123.5 45q-34 0 -55 -19.5t-60 -79.5l-47 11q46 94 83 127.5t89 33.5q48 0 130.5 -44t121.5 -44q35 0 55.5 18.5t58.5 76.5l48 -11q-43 -93 -80.5 -126t-91.5 -33z" />
    <glyph glyph-name="Imacron" unicode="&#x12a;" horiz-adv-x="542" 
d="M571 1434l-252 -1434h-96l252 1434h96zM324 1724h497l-14 -77h-498z" />
    <glyph glyph-name="imacron" unicode="&#x12b;" horiz-adv-x="462" 
d="M457 1016l-178 -1016h-95l178 1016h95zM213 1374h498l-15 -78h-497z" />
    <glyph glyph-name="Ibreve" unicode="&#x12c;" horiz-adv-x="542" 
d="M571 1434l-252 -1434h-96l252 1434h96zM791 1839l63 -6q-32 -119 -115.5 -190.5t-191.5 -71.5q-106 0 -164.5 72t-48.5 190l63 6q-2 -87 40 -143t124 -56t142 56t88 143z" />
    <glyph glyph-name="ibreve" unicode="&#x12d;" horiz-adv-x="462" 
d="M457 1016l-178 -1016h-95l178 1016h95zM678 1464l65 -6q-35 -127 -119.5 -198.5t-195.5 -71.5q-110 0 -167.5 72t-45.5 198l66 6q-5 -90 37 -145t126 -55q83 0 143 54.5t91 145.5z" />
    <glyph glyph-name="Iogonek" unicode="&#x12e;" horiz-adv-x="542" 
d="M571 1434l-249 -1409l-41 -25q-80 -45 -120.5 -100t-49.5 -107q-14 -80 32.5 -127t118.5 -47q74 0 140.5 49.5t97.5 124.5l53 -31q-38 -95 -121.5 -157t-185.5 -62q-100 0 -166 63t-47 175q9 57 55 122.5t137 116.5l250 1414h96z" />
    <glyph glyph-name="iogonek" unicode="&#x12f;" horiz-adv-x="460" 
d="M457 1016l-178 -993l-37 -23q-79 -47 -120 -102t-50 -105q-14 -80 32.5 -127t118.5 -47q74 0 140.5 49.5t97.5 124.5l53 -31q-38 -95 -121.5 -157t-185.5 -62q-63 0 -114.5 25t-80.5 81t-16 132q10 59 54 123.5t136 115.5l176 996h95zM397 1374q6 36 30.5 59t57.5 23
q32 0 49 -22.5t11 -59.5q-6 -36 -30.5 -59t-57.5 -23q-32 0 -49 22.5t-11 59.5z" />
    <glyph glyph-name="Idotaccent" unicode="&#x130;" horiz-adv-x="542" 
d="M571 1434l-252 -1434h-96l252 1434h96zM496 1702q8 37 31 58.5t55 21.5q33 0 49.5 -22t9.5 -58q-6 -35 -30 -57.5t-56 -22.5t-48.5 22.5t-10.5 57.5z" />
    <glyph glyph-name="dotlessi" unicode="&#x131;" horiz-adv-x="462" 
d="M457 1016l-178 -1016h-95l178 1016h95z" />
    <glyph glyph-name="IJ" unicode="&#x132;" horiz-adv-x="1914" 
d="M571 1434l-252 -1434h-96l252 1434h96zM1972 1434l-137 -783q-57 -328 -237 -501t-457 -173q-91 0 -165 19.5t-124.5 53.5t-87.5 82t-52.5 104t-19.5 119.5t10 129.5q17 88 58 150h98q-21 -32 -37.5 -75t-21.5 -71q-12 -55 -8 -107.5t16.5 -99.5t42.5 -86.5t71 -68.5
t101 -45t133 -16q229 0 381 151.5t201 433.5l139 783h96z" />
    <glyph glyph-name="ij" unicode="&#x133;" horiz-adv-x="999" 
d="M457 1016l-178 -1016h-95l178 1016h95zM397 1374q6 36 31.5 59t58.5 23q32 0 48 -22.5t10 -59.5q-6 -36 -30.5 -59t-57.5 -23q-32 0 -49 22.5t-11 59.5zM690 -160l209 1176h96l-211 -1180q-15 -92 -50.5 -157t-83.5 -98.5t-97 -47.5t-104 -14q-124 0 -180.5 67.5
t-37.5 173.5l7 23q2 15 18 47h88q-22 -36 -22 -61q-12 -71 24.5 -118.5t112.5 -47.5q191 0 231 237zM936 1374q6 36 31.5 59t58.5 23q32 0 47.5 -22.5t9.5 -59.5q-6 -36 -30.5 -59t-57.5 -23q-32 0 -48.5 22.5t-10.5 59.5z" />
    <glyph glyph-name="Jcircumflex" unicode="&#x134;" horiz-adv-x="1372" 
d="M1427 1434l-137 -783q-57 -328 -236 -501t-456 -173q-91 0 -165 19.5t-124.5 53.5t-87 82t-52 104t-19.5 119.5t10 129.5q18 94 55 150h98q-41 -62 -57 -146q-12 -55 -8 -107.5t16.5 -99.5t42.5 -86.5t71 -68.5t101 -45t133 -16q230 0 381.5 151.5t200.5 433.5l139 783
h94zM1403 1851h106l162 -284h-76l-153 223l-230 -223h-73z" />
    <glyph glyph-name="jcircumflex" unicode="&#x135;" horiz-adv-x="536" 
d="M227 -160l209 1176h94l-211 -1180q-15 -91 -50 -156t-82 -98.5t-95 -48t-102 -14.5q-124 0 -180 67.5t-37 173.5l6 23q2 15 18 47h88q-22 -36 -22 -61q-12 -71 24.5 -118.5t112.5 -47.5q28 0 53.5 5.5t54 22t50.5 42t40.5 68.5t28.5 99zM510 1481h108l175 -307h-74
l-166 243l-254 -243h-74z" />
    <glyph glyph-name="Kcommaaccent" unicode="&#x136;" horiz-adv-x="1239" 
d="M602 -256q-18 -6 -37 -6q-29 0 -46 15.5t-11 49.5q5 30 28.5 50t57.5 20q48 0 66 -34t10 -81q-11 -61 -54 -121.5t-118 -107.5l-23 37q46 32 85.5 78.5t39.5 81.5q0 16 2 18zM442 694l738 740h112l-766 -772l187 -283q37 -56 62 -91.5t64 -81.5t71 -73t72.5 -46t80.5 -19
q94 0 172 53q21 -53 33 -74q-50 -34 -117.5 -52t-118.5 -18q-53 0 -103.5 21.5t-89 53t-78 78.5t-66.5 86t-58 88q-13 20 -19 30l-188 293l-111 -627h-96l252 1434h96z" />
    <glyph glyph-name="kcommaaccent" unicode="&#x137;" horiz-adv-x="1038" 
d="M367 563l542 453h117l-561 -475l209 -308q27 -41 45.5 -66.5t45 -52t56 -39t64.5 -12.5q80 0 137 41l25 -69q-78 -58 -183 -58q-22 0 -43 4.5t-38.5 10t-36 17.5t-31 20t-29 25t-24.5 25.5t-23 28.5l-19.5 26t-18.5 27t-15 23l-226 342l-92 -526h-94l260 1481h94z
M469 -256q-18 -6 -37 -6q-29 0 -46 15.5t-11 49.5q5 30 28.5 50t57.5 20q48 0 66 -34t10 -81q-11 -61 -54 -121.5t-118 -107.5l-23 37q46 32 85.5 78.5t39.5 81.5q0 16 2 18z" />
    <glyph glyph-name="kgreenlandic" unicode="&#x138;" horiz-adv-x="1009" 
d="M360 526l584 490h117l-619 -524l240 -310q28 -38 46.5 -60t51 -42.5t66.5 -20.5q65 0 133 43l29 -67q-42 -31 -94.5 -44.5t-92.5 -13.5q-21 0 -41.5 5t-35.5 10t-33.5 20.5t-27.5 22t-28 29.5t-23.5 28.5t-25 34t-22.5 31.5l-236 301l-80 -459h-94l178 1016h94z" />
    <glyph glyph-name="Lacute" unicode="&#x139;" horiz-adv-x="1036" 
d="M1024 82l-12 -82h-789l252 1434h96l-239 -1352h692zM723 1851h106l-251 -284h-78z" />
    <glyph glyph-name="lacute" unicode="&#x13a;" horiz-adv-x="462" 
d="M539 1481l-260 -1481h-95l260 1481h95zM664 1851h106l-252 -284h-78z" />
    <glyph glyph-name="Lcommaaccent" unicode="&#x13b;" horiz-adv-x="1036" 
d="M1024 82l-12 -82h-789l252 1434h96l-239 -1352h692zM586 -256q-18 -6 -37 -6q-29 0 -46 15.5t-11 49.5q5 30 28.5 50t57.5 20q48 0 65.5 -33.5t9.5 -81.5q-11 -61 -54 -121.5t-118 -107.5l-22 37q46 32 85.5 78.5t39.5 81.5q0 16 2 18z" />
    <glyph glyph-name="lcommaaccent" unicode="&#x13c;" horiz-adv-x="462" 
d="M541 1481l-262 -1481h-95l262 1481h95zM205 -274v18q-15 -6 -35 -6q-30 0 -47.5 15.5t-11.5 49.5q5 30 28.5 50t57.5 20q48 0 65.5 -33.5t9.5 -81.5q-27 -141 -172 -229l-22 37q49 34 88 79.5t39 80.5z" />
    <glyph glyph-name="Lcaron" unicode="&#x13d;" horiz-adv-x="1040" 
d="M1024 82l-12 -82h-789l252 1434h96l-239 -1352h692zM1010 1329q-18 -6 -35 -6q-29 0 -46 16t-11 50q5 30 28.5 49.5t57.5 19.5q48 0 65.5 -33.5t9.5 -81.5q-12 -61 -54.5 -122t-119.5 -107l-20 37q42 30 79 73t44 83q2 6 2 22z" />
    <glyph glyph-name="lcaron" unicode="&#x13e;" horiz-adv-x="460" 
d="M539 1481l-260 -1481h-95l260 1481h95zM741 1329q-18 -6 -34 -6q-29 0 -46.5 16t-11.5 50q5 30 28.5 49.5t57.5 19.5q48 0 66 -34t10 -81q-12 -61 -54.5 -122t-119.5 -107l-21 37q42 30 79 73t44 83q2 6 2 22z" />
    <glyph glyph-name="Ldot" unicode="&#x13f;" horiz-adv-x="1056" 
d="M1024 82l-12 -82h-789l252 1434h96l-239 -1352h692zM774 553q6 35 32.5 58.5t61.5 23.5t55.5 -23.5t14.5 -58.5t-35 -58.5t-65 -23.5q-35 0 -52.5 23t-11.5 59z" />
    <glyph glyph-name="ldot" unicode="&#x140;" horiz-adv-x="563" 
d="M539 1481l-260 -1481h-95l260 1481h95zM535 553q6 35 32.5 58.5t61.5 23.5t55 -23.5t14 -58.5t-35 -58.5t-65 -23.5q-35 0 -52 23t-11 59z" />
    <glyph glyph-name="Lslash" unicode="&#x141;" horiz-adv-x="1046" 
d="M457 735l370 150l-10 -74l-373 -149l-102 -580h692l-12 -82h-789l107 618l-225 -90l12 74l227 90l129 742h97z" />
    <glyph glyph-name="lslash" unicode="&#x142;" horiz-adv-x="559" 
d="M575 1481l-137 -762l248 98l-14 -74l-246 -98l-113 -645h-94l105 604l-197 -80l12 76l201 78l141 803h94z" />
    <glyph glyph-name="Nacute" unicode="&#x143;" horiz-adv-x="1550" 
d="M1249 0l-706 1264l-224 -1264h-96l252 1434h80l705 -1262l223 1262h96l-252 -1434h-78zM1202 1851h107l-252 -284h-78z" />
    <glyph glyph-name="nacute" unicode="&#x144;" horiz-adv-x="1224" 
d="M973 0l102 584q17 86 7 149.5t-32.5 105.5t-63 68t-84 36.5t-95.5 10.5q-41 0 -87.5 -11.5t-103 -43t-105 -78t-89.5 -123.5t-60 -174l-92 -524h-94l178 1016h95l-43 -236q51 90 128.5 150.5t149.5 84t141 23.5q68 0 124 -14t107 -46t79.5 -84t41 -129t-7.5 -181
l-102 -584h-94zM987 1481h111l-277 -307h-78z" />
    <glyph glyph-name="Ncommaaccent" unicode="&#x145;" horiz-adv-x="1550" 
d="M1249 0l-706 1264l-224 -1264h-96l252 1434h80l705 -1262l223 1262h96l-252 -1434h-78zM743 -256q-18 -6 -36 -6q-30 0 -47 15.5t-11 49.5q5 30 28.5 50t57.5 20q48 0 66 -34t10 -81q-11 -61 -54 -121.5t-118 -107.5l-23 37q46 32 85.5 78.5t39.5 81.5q0 16 2 18z" />
    <glyph glyph-name="ncommaaccent" unicode="&#x146;" horiz-adv-x="1224" 
d="M973 0l102 584q17 86 7 149.5t-32.5 105.5t-63 68t-84 36.5t-95.5 10.5q-41 0 -87.5 -11.5t-103 -43t-105 -78t-89.5 -123.5t-60 -174l-92 -524h-94l178 1016h95l-43 -236q51 90 128.5 150.5t149.5 84t141 23.5q68 0 124 -14t107 -46t79.5 -84t41 -129t-7.5 -181
l-102 -584h-94zM582 -256q-18 -6 -37 -6q-30 0 -47 15.5t-11 49.5q5 30 28.5 50t57.5 20q48 0 66 -34t10 -81q-11 -61 -54 -121.5t-118 -107.5l-22 37q46 32 85.5 78.5t39.5 81.5q0 16 2 18z" />
    <glyph glyph-name="Ncaron" unicode="&#x147;" horiz-adv-x="1550" 
d="M1249 0l-706 1264l-224 -1264h-96l252 1434h80l705 -1262l223 1262h96l-252 -1434h-78zM1092 1567h-107l-162 284h74l150 -225l233 225h76z" />
    <glyph glyph-name="ncaron" unicode="&#x148;" horiz-adv-x="1224" 
d="M973 0l102 584q17 86 7 149.5t-32.5 105.5t-63 68t-84 36.5t-95.5 10.5q-41 0 -87.5 -11.5t-103 -43t-105 -78t-89.5 -123.5t-60 -174l-92 -524h-94l178 1016h95l-43 -236q51 90 128.5 150.5t149.5 84t141 23.5q68 0 124 -14t107 -46t79.5 -84t41 -129t-7.5 -181
l-102 -584h-94zM868 1174h-108l-174 307h73l166 -244l254 244h74z" />
    <glyph glyph-name="napostrophe" unicode="&#x149;" horiz-adv-x="1290" 
d="M1071 0l103 584q17 86 6.5 149.5t-33 105.5t-63 68t-84 36.5t-95.5 10.5q-41 0 -87.5 -11.5t-103.5 -43t-105.5 -78t-89.5 -124t-60 -173.5l-90 -524h-95l179 1016h94l-43 -236q51 90 129 150.5t150 84t141 23.5q68 0 124 -14t107 -46t79.5 -84t41 -129t-7.5 -181
l-103 -584h-94zM391 1327q-15 -6 -33 -6q-30 0 -47.5 15.5t-11.5 49.5q5 30 28.5 50t57.5 20q48 0 66 -34t10 -81q-27 -143 -174 -229l-19 37q42 30 79 73t44 83q3 13 0 22z" />
    <glyph glyph-name="Eng" unicode="&#x14a;" horiz-adv-x="1548" 
d="M1194 207l-655 1046l-222 -1253h-96l252 1434h66l737 -1168l207 1168h96l-213 -1196q-63 -354 -228.5 -531t-435.5 -188l11 88q389 21 520 463q10 72 -39 137z" />
    <glyph glyph-name="eng" unicode="&#x14b;" horiz-adv-x="1222" 
d="M983 78l90 506q17 86 7 149.5t-32.5 105.5t-63 68t-84 36.5t-95.5 10.5q-41 0 -87.5 -11.5t-103 -43t-105 -78t-89.5 -123.5t-60 -174l-92 -524h-94l178 1016h94l-43 -236q51 90 129 150.5t150 84t141 23.5q68 0 124 -14t107 -46t79.5 -84t41 -129t-7.5 -181l-88 -496
q-49 -273 -186.5 -415.5t-345.5 -153.5q0 9 4 43t4 43q168 8 277.5 127.5t150.5 345.5z" />
    <glyph glyph-name="Omacron" unicode="&#x14c;" horiz-adv-x="1699" 
d="M231 717q35 200 165.5 370.5t319.5 269.5t390 99q151 0 278 -58.5t208.5 -157.5t116.5 -236t9 -287q-27 -150 -110 -287t-200.5 -236.5t-265.5 -158t-298 -58.5q-151 0 -278 58.5t-209 158t-117 236.5t-9 287zM330 717q-24 -132 5.5 -253t101 -208t181.5 -138.5
t240 -51.5q175 0 338 87t275 237t145 327q24 132 -5.5 253t-100.5 208t-180.5 138.5t-239.5 51.5q-174 0 -337.5 -87t-277 -237t-145.5 -327zM903 1724h498l-15 -77h-497z" />
    <glyph glyph-name="omacron" unicode="&#x14d;" horiz-adv-x="1253" 
d="M180 506q24 144 118.5 267t230.5 194t278 71q146 0 256.5 -72t160 -194t25.5 -266q-24 -142 -118 -264t-231 -193.5t-282 -71.5q-143 0 -252.5 70t-159.5 192t-26 267zM276 506q-32 -184 72.5 -314.5t284.5 -130.5q119 0 231.5 59.5t190 162t98.5 223.5q32 185 -73 316.5
t-287 131.5q-117 0 -228.5 -60t-189.5 -163.5t-99 -224.5zM618 1374h498l-14 -78h-498z" />
    <glyph glyph-name="Obreve" unicode="&#x14e;" horiz-adv-x="1699" 
d="M231 717q35 200 165.5 370.5t319.5 269.5t390 99q151 0 278 -58.5t208.5 -157.5t116.5 -236t9 -287q-27 -150 -110 -287t-200.5 -236.5t-265.5 -158t-298 -58.5q-151 0 -278 58.5t-209 158t-117 236.5t-9 287zM330 717q-24 -132 5.5 -253t101 -208t181.5 -138.5
t240 -51.5q175 0 338 87t275 237t145 327q24 132 -5.5 253t-100.5 208t-180.5 138.5t-239.5 51.5q-174 0 -337.5 -87t-277 -237t-145.5 -327zM1372 1839l64 -6q-36 -120 -119 -191t-191 -71q-106 0 -164.5 72t-46.5 190l64 6q-2 -87 40 -143t124 -56t141.5 56t87.5 143z" />
    <glyph glyph-name="obreve" unicode="&#x14f;" horiz-adv-x="1253" 
d="M180 506q24 144 118.5 267t230.5 194t278 71q146 0 256.5 -72t160 -194t25.5 -266q-24 -142 -118 -264t-231 -193.5t-282 -71.5q-143 0 -252.5 70t-159.5 192t-26 267zM276 506q-32 -184 72.5 -314.5t284.5 -130.5q119 0 231.5 59.5t190 162t98.5 223.5q32 185 -73 316.5
t-287 131.5q-117 0 -228.5 -60t-189.5 -163.5t-99 -224.5zM1081 1464l66 -6q-35 -127 -118.5 -198.5t-194.5 -71.5q-110 0 -168 72t-48 198l66 6q-5 -89 38.5 -144.5t127.5 -55.5q83 0 143.5 55t87.5 145z" />
    <glyph glyph-name="Ohungarumlaut" unicode="&#x150;" horiz-adv-x="1699" 
d="M231 717q35 200 165.5 370.5t319.5 269.5t390 99q151 0 278 -58.5t208.5 -157.5t116.5 -236t9 -287q-27 -150 -110 -287t-200.5 -236.5t-265.5 -158t-298 -58.5q-151 0 -278 58.5t-209 158t-117 236.5t-9 287zM330 717q-24 -132 5.5 -253t101 -208t181.5 -138.5
t240 -51.5q175 0 338 87t275 237t145 327q24 132 -5.5 253t-100.5 208t-180.5 138.5t-239.5 51.5q-174 0 -337.5 -87t-277 -237t-145.5 -327zM1133 1851h100l-246 -284h-80zM1425 1851h101l-246 -284h-82z" />
    <glyph glyph-name="ohungarumlaut" unicode="&#x151;" horiz-adv-x="1253" 
d="M180 506q24 144 118.5 267t230.5 194t278 71q146 0 256.5 -72t160 -194t25.5 -266q-24 -142 -118 -264t-231 -193.5t-282 -71.5q-143 0 -252.5 70t-159.5 192t-26 267zM276 506q-32 -184 72.5 -314.5t284.5 -130.5q119 0 231.5 59.5t190 162t98.5 223.5q32 185 -73 316.5
t-287 131.5q-117 0 -228.5 -60t-189.5 -163.5t-99 -224.5zM848 1481h100l-264 -307h-80zM1141 1481h100l-266 -307h-78z" />
    <glyph glyph-name="OE" unicode="&#x152;" horiz-adv-x="2037" 
d="M860 82h217l226 1268h-218q-175 0 -335.5 -81t-272 -225t-143.5 -321q-24 -133 5.5 -252.5t100.5 -204.5t180.5 -134.5t239.5 -49.5zM1927 0h-1079q-203 0 -356 94.5t-222 261t-34 367.5q37 202 163.5 365t310.5 254.5t388 91.5h1079l-12 -84h-766l-109 -605h668l-14 -83
h-668l-102 -580h765z" />
    <glyph glyph-name="oe" unicode="&#x153;" horiz-adv-x="2009" 
d="M1855 201l46 -58q-186 -166 -449 -166q-281 0 -397 195q-87 -92 -201.5 -143.5t-237.5 -51.5q-145 0 -255 70t-160 192t-23 267q24 143 117.5 266t229.5 194.5t280 71.5q121 0 216.5 -52.5t152.5 -145.5q185 198 444 198q99 0 179.5 -30.5t138.5 -90t82.5 -157
t6.5 -223.5h-921q-1 -4 -1 -11.5t-1 -11.5q-19 -92 -2.5 -174t58 -144t122 -98.5t188.5 -36.5q219 0 387 140zM272 504q-21 -121 19.5 -223t130.5 -161t209 -59q109 0 210.5 50t174.5 137q-39 117 -15 254q23 135 105 258q-42 90 -124.5 142t-190.5 52q-180 0 -333.5 -133
t-185.5 -317zM1604 954q-157 0 -283.5 -91.5t-194.5 -250.5h818q4 88 -22.5 155.5t-75.5 107.5t-110 59.5t-132 19.5z" />
    <glyph glyph-name="Racute" unicode="&#x154;" horiz-adv-x="1378" 
d="M317 0h-96l252 1434h574q123 0 207 -60t115 -157.5t9 -212.5q-30 -171 -150 -288.5t-292 -129.5q-7 -44 -4 -99.5t8.5 -113.5t25.5 -113t47.5 -98t74.5 -69.5t106 -26.5q89 0 160 45l26 -70q-45 -31 -101 -47.5t-103 -16.5q-67 0 -122 23.5t-91 62.5t-62 92t-39 108.5
t-19 115.5t-5 110t6 95h-424zM434 666h465q147 0 250 96.5t129 241.5q26 147 -42.5 246.5t-215.5 99.5h-465zM1059 1851h106l-252 -284h-77z" />
    <glyph glyph-name="racute" unicode="&#x155;" horiz-adv-x="688" 
d="M449 1016l-48 -268q128 290 387 290q48 0 72 -8l-14 -94q-37 12 -78 12q-163 0 -273 -152.5t-157 -404.5l-68 -391h-94l178 1016h95zM612 1481h111l-277 -307h-77z" />
    <glyph glyph-name="Rcommaaccent" unicode="&#x156;" horiz-adv-x="1378" 
d="M317 0h-96l252 1434h574q123 0 207 -60t115 -157.5t9 -212.5q-30 -171 -150 -288.5t-292 -129.5q-7 -44 -4 -99.5t8.5 -113.5t25.5 -113t47.5 -98t74.5 -69.5t106 -26.5q89 0 160 45l26 -70q-45 -31 -101 -47.5t-103 -16.5q-67 0 -122 23.5t-91 62.5t-62 92t-39 108.5
t-19 115.5t-5 110t6 95h-424zM434 666h465q147 0 250 96.5t129 241.5q26 147 -42.5 246.5t-215.5 99.5h-465zM616 -256q-18 -6 -36 -6q-30 0 -47 15.5t-11 49.5q5 30 28.5 50t57.5 20q48 0 66 -34t10 -81q-11 -61 -54 -121.5t-118 -107.5l-23 37q46 32 85.5 78.5t39.5 81.5
q0 16 2 18z" />
    <glyph glyph-name="rcommaaccent" unicode="&#x157;" horiz-adv-x="688" 
d="M451 1016l-50 -268q128 290 387 290q43 0 74 -8l-16 -94q-37 12 -78 12q-163 0 -273 -152.5t-157 -404.5l-68 -391h-94l180 1016h95zM215 -274v18q-15 -6 -35 -6q-30 0 -47.5 15.5t-11.5 49.5q5 30 28.5 50t57.5 20q48 0 66 -34t10 -81q-27 -141 -172 -229l-23 37
q49 34 88 79.5t39 80.5z" />
    <glyph glyph-name="Rcaron" unicode="&#x158;" horiz-adv-x="1378" 
d="M317 0h-96l252 1434h574q123 0 207 -60t115 -157.5t9 -212.5q-30 -171 -150 -288.5t-292 -129.5q-7 -44 -4 -99.5t8.5 -113.5t25.5 -113t47.5 -98t74.5 -69.5t106 -26.5q89 0 160 45l26 -70q-45 -31 -101 -47.5t-103 -16.5q-67 0 -122 23.5t-91 62.5t-62 92t-39 108.5
t-19 115.5t-5 110t6 95h-424zM434 666h465q147 0 250 96.5t129 241.5q26 147 -42.5 246.5t-215.5 99.5h-465zM956 1567h-106l-162 284h74l149 -225l234 225h76z" />
    <glyph glyph-name="rcaron" unicode="&#x159;" horiz-adv-x="688" 
d="M449 1016l-48 -268q128 290 387 290q48 0 72 -8l-14 -94q-37 12 -78 12q-163 0 -273 -152.5t-157 -404.5l-68 -391h-94l178 1016h95zM612 1174h-108l-174 307h73l166 -244l254 244h74z" />
    <glyph glyph-name="Sacute" unicode="&#x15a;" horiz-adv-x="1169" 
d="M987 1851h107l-254 -284h-78zM831 1368q-144 0 -257.5 -77t-137.5 -206q-33 -180 195 -258l235 -82q64 -21 117.5 -56.5t92 -83t55 -109t4.5 -129.5q-30 -166 -181.5 -278t-367.5 -112q-189 0 -308.5 88t-146.5 214l102 26q23 -98 116.5 -168.5t248.5 -70.5
q176 0 295.5 85.5t140.5 210.5q10 57 -5 107t-48 85.5t-73 60t-87 40.5l-237 82q-297 99 -248 344q21 114 99 201t185.5 130.5t227.5 43.5q169 0 271.5 -81t113.5 -214l-94 -28q-6 106 -90 170.5t-218 64.5z" />
    <glyph glyph-name="sacute" unicode="&#x15b;" horiz-adv-x="858" 
d="M113 188l94 25q17 -71 79.5 -108t157.5 -37q100 0 179 52t96 140q23 130 -129 184l-146 48q-227 66 -194 266q22 112 122.5 196t248.5 84q96 0 167 -49.5t89 -142.5l-86 -25q-16 65 -68 96t-119 31q-103 0 -174 -57t-84 -133q-11 -75 27.5 -115.5t111.5 -64.5l146 -48
q112 -37 157 -108t27 -162q-24 -127 -135.5 -205t-251.5 -78q-126 0 -210.5 56t-104.5 155zM795 1481h110l-276 -307h-78z" />
    <glyph glyph-name="Scircumflex" unicode="&#x15c;" horiz-adv-x="1169" 
d="M856 1851h107l159 -284h-75l-154 223l-229 -223h-74zM831 1368q-144 0 -257.5 -77t-137.5 -206q-33 -180 195 -258l235 -82q64 -21 117.5 -56.5t92 -83t55 -109t4.5 -129.5q-30 -166 -181.5 -278t-367.5 -112q-189 0 -308.5 88t-146.5 214l102 26q23 -98 116.5 -168.5
t248.5 -70.5q176 0 295.5 85.5t140.5 210.5q10 57 -5 107t-48 85.5t-73 60t-87 40.5l-237 82q-297 99 -248 344q21 114 99 201t185.5 130.5t227.5 43.5q169 0 271.5 -81t113.5 -214l-94 -28q-6 106 -90 170.5t-218 64.5z" />
    <glyph glyph-name="scircumflex" unicode="&#x15d;" horiz-adv-x="858" 
d="M113 188l94 25q17 -71 79.5 -108t157.5 -37q100 0 179 52t96 140q23 130 -129 184l-146 48q-227 66 -194 266q22 112 122.5 196t248.5 84q96 0 167 -49.5t89 -142.5l-86 -25q-16 65 -68 96t-119 31q-103 0 -174 -57t-84 -133q-11 -75 27.5 -115.5t111.5 -64.5l146 -48
q112 -37 157 -108t27 -162q-24 -127 -135.5 -205t-251.5 -78q-126 0 -210.5 56t-104.5 155zM631 1481h108l174 -307h-73l-166 243l-254 -243h-74z" />
    <glyph glyph-name="Scedilla" unicode="&#x15e;" horiz-adv-x="1169" 
d="M831 1368q-144 0 -257.5 -77t-137.5 -206q-33 -180 195 -258l235 -82q133 -45 212.5 -145.5t56.5 -232.5q-25 -141 -143.5 -245.5t-293.5 -133.5q88 -88 66 -207q-20 -112 -109 -175t-190 -63t-160.5 61.5t-64.5 157.5l61 31q5 -75 54.5 -124.5t123.5 -49.5q71 0 133 46
t78 128q19 103 -65 187q-2 0 -5.5 -1t-11.5 -1.5t-22 -0.5q-189 0 -308.5 88t-146.5 214l102 26q23 -98 116.5 -168.5t248.5 -70.5q176 0 295.5 85.5t140.5 210.5q10 57 -5 107t-48 85.5t-73 60t-87 40.5l-237 82q-297 99 -248 344q21 114 99 201t185.5 130.5t227.5 43.5
q169 0 271.5 -81t113.5 -214l-94 -28q-6 106 -90 170.5t-218 64.5z" />
    <glyph glyph-name="scedilla" unicode="&#x15f;" horiz-adv-x="858" 
d="M113 188l94 25q17 -71 79.5 -108t157.5 -37q100 0 179 52t96 140q23 132 -129 184l-144 48q-229 66 -196 266q22 112 122.5 196t248.5 84q96 0 168 -49.5t90 -142.5l-88 -25q-16 65 -68 96t-119 31q-103 0 -173 -57t-83 -133q-11 -76 26.5 -115t112.5 -65l144 -48
q112 -37 157 -108t27 -162q-18 -105 -99.5 -176t-193.5 -96q51 -40 66 -97.5t6 -109.5q-20 -112 -109 -175t-190 -63t-160.5 61.5t-64.5 157.5l61 31q5 -75 53.5 -124.5t122.5 -49.5q72 0 135.5 47t77.5 127q18 97 -74 184h-18q-125 0 -208.5 55.5t-106.5 155.5z" />
    <glyph glyph-name="Scaron" unicode="&#x160;" horiz-adv-x="1169" 
d="M909 1567h-106l-160 284h74l149 -225l234 225h76zM831 1368q-144 0 -257.5 -77t-137.5 -206q-33 -180 195 -258l235 -82q64 -21 117.5 -56.5t92 -83t55 -109t4.5 -129.5q-30 -166 -181.5 -278t-367.5 -112q-189 0 -308.5 88t-146.5 214l102 26q23 -98 116.5 -168.5
t248.5 -70.5q176 0 295.5 85.5t140.5 210.5q10 57 -5 107t-48 85.5t-73 60t-87 40.5l-237 82q-297 99 -248 344q21 114 99 201t185.5 130.5t227.5 43.5q169 0 271.5 -81t113.5 -214l-94 -28q-6 106 -90 170.5t-218 64.5z" />
    <glyph glyph-name="scaron" unicode="&#x161;" horiz-adv-x="858" 
d="M113 188l94 25q17 -71 79.5 -108t157.5 -37q100 0 179 52t96 140q23 130 -129 184l-146 48q-227 66 -194 266q22 112 122.5 196t248.5 84q96 0 167 -49.5t89 -142.5l-86 -25q-16 65 -68 96t-119 31q-103 0 -174 -57t-84 -133q-11 -75 27.5 -115.5t111.5 -64.5l146 -48
q112 -37 157 -108t27 -162q-24 -127 -135.5 -205t-251.5 -78q-126 0 -210.5 56t-104.5 155zM684 1174h-109l-174 307h74l166 -244l254 244h74z" />
    <glyph glyph-name="Tcommaaccent" unicode="&#x162;" horiz-adv-x="1220" 
d="M281 1434h1159l-13 -84h-530l-238 -1350h-96l238 1350h-533zM582 -256q-18 -6 -37 -6q-30 0 -48 15.5t-12 49.5q5 30 29 50t59 20q47 0 64.5 -33.5t9.5 -81.5q-12 -61 -54 -122t-116 -107l-24 37q49 34 88 79.5t39 80.5q0 16 2 18z" />
    <glyph glyph-name="tcommaaccent" unicode="&#x163;" horiz-adv-x="782" 
d="M471 -256q-18 -6 -37 -6q-29 0 -46 15.5t-11 49.5q5 30 28.5 50t57.5 20q48 0 66 -34t10 -81q-11 -61 -54 -121.5t-118 -107.5l-23 37q46 32 85.5 78.5t39.5 81.5q0 16 2 18zM473 938l-113 -631q-40 -246 142 -246q87 0 147 50.5t60 113.5l1 13q2 12 2 25.5t-3 23.5h88
q2 -16 2 -47q0 -15 -2 -23q-19 -106 -102.5 -173t-207.5 -67q-281 0 -221 334l113 627h-182l12 78h182l82 327h72l-60 -327h336l-12 -78h-336z" />
    <glyph glyph-name="Tcaron" unicode="&#x164;" horiz-adv-x="1220" 
d="M281 1434h1159l-13 -84h-530l-238 -1350h-96l238 1350h-533zM938 1567h-107l-159 284h73l150 -225l233 225h76z" />
    <glyph glyph-name="tcaron" unicode="&#x165;" horiz-adv-x="782" 
d="M891 1419q-21 -6 -37 -6q-30 0 -47 16t-10 50q6 30 29 49.5t57 19.5q48 0 65.5 -33t9.5 -81q-27 -144 -174 -230l-20 37q41 28 78 71.5t47 84.5q1 3 1 11t1 11zM473 938l-113 -631q-40 -246 142 -246q87 0 147 50.5t60 113.5l1 13q2 12 2 25.5t-3 23.5h88q2 -16 2 -47
q0 -15 -2 -23q-19 -106 -102.5 -173t-207.5 -67q-281 0 -221 334l113 627h-182l12 78h182l82 327h72l-60 -327h336l-12 -78h-336z" />
    <glyph glyph-name="Tbar" unicode="&#x166;" horiz-adv-x="1253" 
d="M297 1434h1159l-12 -84h-531l-92 -510h318l-13 -74h-317l-133 -766h-96l133 766h-320l13 74h319l92 510h-532z" />
    <glyph glyph-name="tbar" unicode="&#x167;" horiz-adv-x="784" 
d="M475 938l-63 -334h252l-11 -65h-252l-41 -232q-40 -246 144 -246q87 0 147 50.5t60 113.5q0 1 0.5 9l1 16t-0.5 18.5t-3 18.5h88q4 -32 4 -47t-2 -23q-19 -106 -102.5 -173t-207.5 -67q-281 0 -221 334l39 228h-147l10 65h147l64 334h-182l12 78h182l80 327h72l-58 -327
h336l-12 -78h-336z" />
    <glyph glyph-name="Utilde" unicode="&#x168;" horiz-adv-x="1499" 
d="M1454 1434h96l-161 -918q-24 -130 -86 -234t-148.5 -169.5t-190 -100.5t-216.5 -35q-114 0 -207 35t-157.5 100.5t-89.5 169.5t-1 234l162 918h96l-162 -918q-20 -110 0.5 -197.5t74 -141.5t129.5 -82.5t169 -28.5t178.5 28t157 82.5t123 142t71.5 197.5zM1174 1620
q-48 0 -129 44t-125 44q-35 0 -57 -20t-56 -78l-47 12q42 92 80 127t90 35q48 0 130 -45t122 -45q35 0 56.5 19t55.5 75l47 -10q-43 -92 -79 -125t-88 -33z" />
    <glyph glyph-name="utilde" unicode="&#x169;" horiz-adv-x="1226" 
d="M430 1016l-104 -584q-17 -86 -7 -149.5t33 -106t63 -68t83.5 -36.5t95.5 -11q40 0 87 12t103 43t104.5 77.5t90.5 124t63 174.5l93 524h94l-178 -1016h-95l41 233q-77 -130 -194 -193t-228 -63q-68 0 -124 14t-106.5 46t-79.5 84.5t-41.5 129.5t7.5 181l105 584h94z
M973 1260q-49 0 -128.5 45t-123.5 45q-34 0 -55 -19.5t-60 -79.5l-47 11q46 94 83 127.5t89 33.5q49 0 131 -44t121 -44q35 0 56 18.5t59 76.5l47 -11q-43 -93 -80.5 -126t-91.5 -33z" />
    <glyph glyph-name="Umacron" unicode="&#x16a;" horiz-adv-x="1499" 
d="M1454 1434h96l-161 -918q-24 -130 -86 -234t-148.5 -169.5t-190 -100.5t-216.5 -35q-114 0 -207 35t-157.5 100.5t-89.5 169.5t-1 234l162 918h96l-162 -918q-20 -110 0.5 -197.5t74 -141.5t129.5 -82.5t169 -28.5t178.5 28t157 82.5t123 142t71.5 197.5zM807 1724h498
l-17 -77h-497z" />
    <glyph glyph-name="umacron" unicode="&#x16b;" horiz-adv-x="1226" 
d="M430 1016l-104 -584q-17 -86 -7 -149.5t33 -106t63 -68t83.5 -36.5t95.5 -11q40 0 87 12t103 43t104.5 77.5t90.5 124t63 174.5l93 524h94l-178 -1016h-95l41 233q-77 -130 -194 -193t-228 -63q-68 0 -124 14t-106.5 46t-79.5 84.5t-41.5 129.5t7.5 181l105 584h94z
M608 1374h498l-14 -78h-498z" />
    <glyph glyph-name="Ubreve" unicode="&#x16c;" horiz-adv-x="1499" 
d="M1454 1434h96l-161 -918q-24 -130 -86 -234t-148.5 -169.5t-190 -100.5t-216.5 -35q-114 0 -207 35t-157.5 100.5t-89.5 169.5t-1 234l162 918h96l-162 -918q-20 -110 0.5 -197.5t74 -141.5t129.5 -82.5t169 -28.5t178.5 28t157 82.5t123 142t71.5 197.5zM1274 1839
l63 -6q-36 -120 -118.5 -191t-190.5 -71q-106 0 -164.5 72t-46.5 190l64 6q-2 -88 38.5 -143.5t122.5 -55.5t143 56t89 143z" />
    <glyph glyph-name="ubreve" unicode="&#x16d;" horiz-adv-x="1226" 
d="M430 1016l-104 -584q-17 -86 -7 -149.5t33 -106t63 -68t83.5 -36.5t95.5 -11q40 0 87 12t103 43t104.5 77.5t90.5 124t63 174.5l93 524h94l-178 -1016h-95l41 233q-77 -130 -194 -193t-228 -63q-68 0 -124 14t-106.5 46t-79.5 84.5t-41.5 129.5t7.5 181l105 584h94z
M1071 1464l66 -6q-35 -127 -119 -198.5t-195 -71.5q-110 0 -167.5 71.5t-47.5 198.5l66 6q-5 -89 38.5 -144.5t127.5 -55.5q83 0 143.5 55t87.5 145z" />
    <glyph glyph-name="Uring" unicode="&#x16e;" horiz-adv-x="1499" 
d="M1454 1434h96l-161 -918q-24 -130 -86 -234t-148.5 -169.5t-190 -100.5t-216.5 -35q-114 0 -207 35t-157.5 100.5t-89.5 169.5t-1 234l162 918h96l-162 -918q-20 -110 0.5 -197.5t74 -141.5t129.5 -82.5t169 -28.5t178.5 28t157 82.5t123 142t71.5 197.5zM874 1726
q13 76 75.5 124t142.5 48t126 -48t33 -124t-77 -123t-144 -47t-124.5 47t-31.5 123zM932 1726q-10 -53 20.5 -85.5t87.5 -32.5q55 0 96.5 32.5t51.5 85.5t-20 86t-85 33q-56 0 -98.5 -33t-52.5 -86z" />
    <glyph glyph-name="uring" unicode="&#x16f;" horiz-adv-x="1226" 
d="M430 1016l-104 -584q-17 -86 -7 -149.5t33 -106t63 -68t83.5 -36.5t95.5 -11q40 0 87 12t103 43t104.5 77.5t90.5 124t63 174.5l93 524h94l-178 -1016h-95l41 233q-77 -130 -194 -193t-228 -63q-68 0 -124 14t-106.5 46t-79.5 84.5t-41.5 129.5t7.5 181l105 584h94z
M668 1362q12 76 78 132t143 56q78 0 123.5 -55t31.5 -133q-12 -78 -78.5 -133t-144.5 -55t-122.5 55t-30.5 133zM727 1362q-11 -56 19 -92.5t85 -36.5q54 0 98 37t54 92q10 54 -20 90.5t-84 36.5q-55 0 -98 -36.5t-54 -90.5z" />
    <glyph glyph-name="Uhungarumlaut" unicode="&#x170;" horiz-adv-x="1499" 
d="M1454 1434h96l-161 -918q-24 -130 -86 -234t-148.5 -169.5t-190 -100.5t-216.5 -35q-114 0 -207 35t-157.5 100.5t-89.5 169.5t-1 234l162 918h96l-162 -918q-20 -110 0.5 -197.5t74 -141.5t129.5 -82.5t169 -28.5t178.5 28t157 82.5t123 142t71.5 197.5zM1026 1851h100
l-245 -284h-80zM1319 1851h100l-245 -284h-82z" />
    <glyph glyph-name="uhungarumlaut" unicode="&#x171;" horiz-adv-x="1226" 
d="M430 1016l-104 -584q-17 -86 -7 -149.5t33 -106t63 -68t83.5 -36.5t95.5 -11q40 0 87 12t103 43t104.5 77.5t90.5 124t63 174.5l93 524h94l-178 -1016h-95l41 233q-77 -130 -194 -193t-228 -63q-68 0 -124 14t-106.5 46t-79.5 84.5t-41.5 129.5t7.5 181l105 584h94z
M813 1481h100l-264 -307h-80zM1106 1481h100l-266 -307h-78z" />
    <glyph glyph-name="Uogonek" unicode="&#x172;" horiz-adv-x="1499" 
d="M1452 1434h96l-162 -918q-22 -123 -79 -223.5t-138 -166t-178.5 -103t-204.5 -43.5q-116 -81 -135 -187q-14 -80 33.5 -127t120.5 -47q74 0 139.5 49.5t95.5 124.5l56 -31q-38 -95 -123 -157t-187 -62q-103 0 -168 62.5t-45 175.5q18 115 129 199q-105 6 -189 43.5
t-142 103t-80 166t0 223.5l162 918h96l-162 -918q-20 -110 0.5 -197.5t74 -141.5t129.5 -82.5t169 -28.5t178.5 28t157 82.5t123 142t71.5 197.5z" />
    <glyph glyph-name="uogonek" unicode="&#x173;" horiz-adv-x="1224" 
d="M430 1016l-104 -584q-17 -86 -7 -149.5t33 -106t63 -68t83.5 -36.5t95.5 -11q40 0 87 12t103 43t104.5 77.5t90.5 124t63 174.5l93 524h94l-176 -993l-39 -23q-80 -45 -120.5 -100t-49.5 -107q-14 -80 32.5 -127t118.5 -47q74 0 140 49.5t96 124.5l55 -31
q-38 -95 -121.5 -157t-185.5 -62q-103 0 -168 62.5t-45 175.5q9 57 55 122.5t137 116.5l39 213q-77 -130 -194 -193t-228 -63q-68 0 -124 14t-106.5 46t-79.5 84.5t-41.5 129.5t7.5 181l105 584h94z" />
    <glyph glyph-name="Wcircumflex" unicode="&#x174;" horiz-adv-x="2033" 
d="M1305 1386l170 -1239l643 1287h98l-715 -1434h-96l-170 1235l-606 -1235h-99l-208 1434h98l186 -1287l608 1239h91zM1290 1851h107l162 -284h-76l-154 223l-229 -223h-74z" />
    <glyph glyph-name="wcircumflex" unicode="&#x175;" horiz-adv-x="1697" 
d="M526 119l449 858h88l143 -858l512 897h99l-580 -1016h-92l-152 846l-440 -846h-92l-223 1016h98zM1053 1481h108l174 -307h-73l-166 243l-254 -243h-74z" />
    <glyph glyph-name="Ycircumflex" unicode="&#x176;" horiz-adv-x="1284" 
d="M594 0l102 596l-387 838h113l340 -748l606 748h111l-686 -838l-103 -596h-96zM918 1851h106l162 -284h-76l-154 223l-229 -223h-74z" />
    <glyph glyph-name="ycircumflex" unicode="&#x177;" horiz-adv-x="1083" 
d="M561 94l539 922h108l-880 -1475h-99l260 443l-260 1032h107zM741 1481h109l174 -307h-74l-166 243l-254 -243h-73z" />
    <glyph glyph-name="Ydieresis" unicode="&#x178;" horiz-adv-x="1284" 
d="M594 0l102 596l-387 838h113l340 -748l606 748h111l-686 -838l-103 -596h-96zM653 1690q6 31 31 53t55 22q32 0 50.5 -22t13.5 -53q-6 -31 -32 -53.5t-58 -22.5q-31 0 -48.5 22.5t-11.5 53.5zM1081 1690q6 31 31 53t55 22q32 0 50.5 -22t13.5 -53q-6 -31 -32 -53.5
t-58 -22.5q-31 0 -48.5 22.5t-11.5 53.5z" />
    <glyph glyph-name="Zacute" unicode="&#x179;" horiz-adv-x="1263" 
d="M1219 82l-13 -82h-1153l13 78l1202 1272h-924l14 84h1051l-14 -80l-1207 -1272h1031zM1040 1851h107l-252 -284h-78z" />
    <glyph glyph-name="zacute" unicode="&#x17a;" horiz-adv-x="1110" 
d="M1049 0h-994l11 72l972 864h-762l13 80h891l-15 -72l-970 -864h866zM885 1481h110l-276 -307h-78z" />
    <glyph glyph-name="Zdotaccent" unicode="&#x17b;" horiz-adv-x="1263" 
d="M1219 82l-13 -82h-1153l13 78l1202 1272h-924l14 84h1051l-14 -80l-1207 -1272h1031zM860 1702q8 37 31 58.5t55 21.5q33 0 50 -22t10 -58q-6 -35 -30 -57.5t-56 -22.5t-49 22.5t-11 57.5z" />
    <glyph glyph-name="zdotaccent" unicode="&#x17c;" horiz-adv-x="1110" 
d="M1049 0h-994l11 72l972 864h-762l13 80h891l-15 -72l-970 -864h866zM713 1309q6 36 31.5 60t58.5 24q32 0 47.5 -23.5t9.5 -60.5q-6 -36 -29.5 -58t-56.5 -22t-50 22t-11 58z" />
    <glyph glyph-name="Zcaron" unicode="&#x17d;" horiz-adv-x="1263" 
d="M1219 82l-13 -82h-1153l13 78l1202 1272h-924l14 84h1051l-14 -80l-1207 -1272h1031zM915 1567h-106l-162 284h74l149 -225l234 225h76z" />
    <glyph glyph-name="zcaron" unicode="&#x17e;" horiz-adv-x="1110" 
d="M1049 0h-994l11 72l972 864h-762l13 80h891l-15 -72l-970 -864h866zM815 1174h-108l-175 307h74l166 -244l254 244h74z" />
    <glyph glyph-name="longs" unicode="&#x17f;" horiz-adv-x="542" 
d="M948 1255q14 74 -29 119t-133 45q-41 0 -79 -15t-74.5 -47.5t-66 -93.5t-44.5 -145l-196 -1118h-95l166 938h-178l12 78h179l16 94q16 90 46 159.5t67 112.5t82.5 71t89.5 39t92 11q132 0 192 -67t41 -174l-4 -17q-4 -19 -14 -37h-86q16 18 16 47z" />
    <glyph glyph-name="florin" unicode="&#x192;" horiz-adv-x="821" 
d="M514 713l-139 -799q-17 -96 -51 -168.5t-74.5 -114.5t-91.5 -68t-95.5 -35t-93.5 -9q-82 0 -127 32l49 68q35 -16 93 -16q35 0 67 7t68.5 27.5t65.5 52.5t54 87t37 127l142 809h-180l16 78h180l47 270q17 96 51.5 168.5t75 114.5t92 68t97.5 35t96 9q81 0 125 -29
l-51 -71q-35 16 -90 16q-47 0 -89 -12.5t-85 -43.5t-75.5 -93.5t-47.5 -151.5l-50 -280h310l-17 -78h-309z" />
    <glyph glyph-name="Aringacute" unicode="&#x1fa;" horiz-adv-x="1349" 
d="M369 406h753l-211 935zM1139 322h-820l-184 -322h-102l831 1434h123l330 -1434h-103zM786 1720q12 69 65 111.5t126 50.5l110 150h105l-141 -154q62 -14 92 -54t20 -104q-13 -75 -74.5 -118t-142.5 -43t-127 43t-33 118zM846 1720q-10 -52 21 -81t89 -29q56 0 96 28.5
t50 81.5q10 52 -20.5 81.5t-86.5 29.5q-57 0 -98 -29t-51 -82z" />
    <glyph glyph-name="aringacute" unicode="&#x1fb;" horiz-adv-x="1325" 
d="M1055 0l43 256q-80 -127 -210.5 -203t-279.5 -76q-153 0 -260 71.5t-149.5 192.5t-18.5 269q25 145 110 264.5t219.5 191.5t289.5 72q151 0 254.5 -75.5t134.5 -200.5l45 254h94l-178 -1016h-94zM627 61q189 0 337.5 129.5t180.5 319.5q22 123 -14 223.5t-126.5 160.5
t-220.5 60q-192 0 -333.5 -127.5t-174.5 -316.5q-33 -192 64 -320.5t287 -128.5zM682 1341q12 71 65 116.5t127 53.5l111 150h105l-140 -154q59 -14 89 -58t20 -108q-13 -76 -75 -123t-142 -47t-126.5 47t-33.5 123zM741 1341q-10 -53 20.5 -85.5t86.5 -32.5q55 0 97 32.5
t52 85.5t-20.5 86t-85.5 33q-56 0 -98 -32.5t-52 -86.5z" />
    <glyph glyph-name="AEacute" unicode="&#x1fc;" horiz-adv-x="1845" 
d="M1436 1851h106l-252 -284h-78zM655 731h383l111 619h-19zM1020 82h727l-12 -82h-824l113 649h-430l-498 -649h-106l1102 1434h895l-15 -84h-727l-110 -619h637l-15 -84h-637z" />
    <glyph glyph-name="aeacute" unicode="&#x1fd;" horiz-adv-x="1968" 
d="M1378 1481h111l-277 -307h-77zM954 461q-86 30 -189.5 45.5t-174.5 15.5q-172 0 -260.5 -65.5t-108.5 -165.5q-19 -106 62 -168t213 -62q112 0 239 60t223 180q-1 9 -3.5 31t-3.5 32t-1.5 27.5t0.5 34t4 35.5zM1567 954q-161 0 -295 -93.5t-201 -248.5h827q7 172 -87 257
t-244 85zM967 537l14 75q8 57 8.5 107.5t-17.5 93.5t-49.5 73.5t-86.5 48t-129 17.5q-204 0 -367 -108q-7 17 -25 74q79 57 188.5 88.5t225.5 31.5q96 0 165 -23.5t106 -65.5t54 -87t19 -100q88 127 219.5 201.5t288.5 74.5q77 0 144 -18.5t123 -56.5t91 -97.5t49 -141.5
t-3 -187h-932q-13 -78 -9.5 -148.5t31.5 -130.5t73.5 -104t118 -68.5t163.5 -24.5q214 0 382 140l43 -58q-184 -166 -440 -166q-163 0 -272.5 66t-155.5 182q-219 -248 -520 -248q-101 0 -184 34.5t-130 107.5t-28 170q27 134 142.5 223.5t307.5 89.5q214 0 392 -65z" />
    <glyph glyph-name="Oslashacute" unicode="&#x1fe;" horiz-adv-x="1697" 
d="M231 717q37 201 167 371t319 269t391 99q204 0 358 -104l140 161l59 -47l-137 -161q119 -105 170.5 -258t19.5 -330q-27 -150 -110 -287t-200.5 -236.5t-265.5 -158t-298 -58.5q-201 0 -357 99l-125 -152q-33 23 -57 47l125 150q-125 106 -179 260.5t-20 335.5zM332 717
q-29 -156 15.5 -291.5t146.5 -228.5l909 1079q-142 92 -313 92q-174 0 -337 -87t-276 -237t-145 -327zM1618 717q29 153 -12.5 286.5t-141.5 225.5l-911 -1077q133 -86 305 -86q174 0 337.5 87t277 237t145.5 327zM1270 1851h106l-252 -284h-77z" />
    <glyph glyph-name="oslashacute" unicode="&#x1ff;" horiz-adv-x="1253" 
d="M1008 1481h110l-276 -307h-78zM180 506q24 144 118.5 267t230.5 194t278 71q147 0 266 -82l121 134l49 -48l-117 -127q78 -76 112 -183t11 -226q-24 -142 -118 -264t-231 -193.5t-282 -71.5q-155 0 -270 80l-112 -127l-50 47l113 123q-77 74 -109.5 180t-9.5 226z
M1153 506q18 97 -7.5 184.5t-84.5 151.5l-647 -713q95 -68 219 -68q119 0 231.5 59.5t190 162t98.5 223.5zM276 506q-18 -97 6 -183.5t83 -148.5l645 713q-94 67 -217 67q-117 0 -228.5 -60t-189.5 -163.5t-99 -224.5z" />
    <glyph glyph-name="Scommaaccent" unicode="&#x218;" horiz-adv-x="1169" 
d="M588 -256q-18 -6 -37 -6q-30 0 -47.5 15.5t-11.5 49.5q5 30 28.5 50t57.5 20q48 0 65.5 -33.5t9.5 -81.5q-27 -141 -172 -229l-22 37q49 34 88 79.5t39 80.5q0 16 2 18zM831 1368q-144 0 -257.5 -77t-137.5 -206q-33 -180 195 -258l235 -82q64 -21 117.5 -56.5t92 -83
t55 -109t4.5 -129.5q-30 -166 -181.5 -278t-367.5 -112q-189 0 -308.5 88t-146.5 214l102 26q23 -98 116.5 -168.5t248.5 -70.5q176 0 295.5 85.5t140.5 210.5q10 57 -5 107t-48 85.5t-73 60t-87 40.5l-237 82q-297 99 -248 344q21 114 99 201t185.5 130.5t227.5 43.5
q169 0 271.5 -81t113.5 -214l-94 -28q-6 106 -90 170.5t-218 64.5z" />
    <glyph glyph-name="scommaaccent" unicode="&#x219;" horiz-adv-x="858" 
d="M422 -256q-18 -6 -37 -6q-30 0 -47.5 15.5t-11.5 49.5q5 30 29 50t59 20q48 0 65.5 -33.5t9.5 -81.5q-11 -61 -54 -121.5t-118 -107.5l-24 37q49 34 88 79.5t39 80.5q0 16 2 18zM113 188l94 25q17 -71 79.5 -108t157.5 -37q100 0 179 52t96 140q23 130 -129 184l-144 48
q-229 66 -196 266q22 112 122.5 196t248.5 84q96 0 167 -49.5t89 -142.5l-86 -25q-16 65 -68 96t-119 31q-103 0 -174 -57t-84 -133q-11 -75 27.5 -115.5t111.5 -64.5l146 -48q112 -37 157 -108t27 -162q-24 -127 -135.5 -205t-251.5 -78q-126 0 -210.5 56t-104.5 155z" />
    <glyph glyph-name="uni021A" unicode="&#x21a;" horiz-adv-x="1220" 
d="M283 1434h1159l-15 -84h-530l-238 -1350h-2q101 -89 78 -219q-20 -112 -109 -175t-190 -63t-160.5 61.5t-64.5 157.5l61 31q5 -75 54 -124.5t123 -49.5q72 0 135.5 47t77.5 127q9 51 -11.5 106.5t-81.5 100.5h-6l238 1350h-533z" />
    <glyph glyph-name="uni021B" unicode="&#x21b;" horiz-adv-x="782" 
d="M473 938l-113 -631q-40 -246 142 -246q87 0 147 50.5t60 113.5l1 13q2 12 2 25.5t-3 23.5h88q2 -16 2 -47q0 -15 -2 -23q-18 -96 -89.5 -160.5t-179.5 -76.5q78 -84 60 -199q-20 -112 -109 -175t-190 -63t-161 61.5t-65 157.5l62 31q5 -75 53.5 -124.5t122.5 -49.5
q72 0 135.5 47t77.5 127q19 105 -70 187q-38 3 -69 15t-58.5 36t-41.5 61t-18.5 91.5t9.5 127.5l113 627h-182l12 78h182l82 327h72l-60 -327h336l-12 -78h-336z" />
    <glyph glyph-name="circumflex" unicode="&#x2c6;" horiz-adv-x="1107" 
d="M760 1481h108l174 -307h-73l-166 243l-254 -243h-74z" />
    <glyph glyph-name="caron" unicode="&#x2c7;" horiz-adv-x="1099" 
d="M809 1174h-109l-174 307h74l166 -244l254 244h74z" />
    <glyph glyph-name="uni02C9" unicode="&#x2c9;" horiz-adv-x="1030" 
d="M508 1374h498l-15 -78h-497z" />
    <glyph glyph-name="breve" unicode="&#x2d8;" horiz-adv-x="1021" 
d="M967 1464l65 -6q-35 -127 -119.5 -198.5t-195.5 -71.5q-110 0 -167.5 72t-45.5 198l65 6q-5 -89 37.5 -144.5t126.5 -55.5q83 0 143 54.5t91 145.5z" />
    <glyph glyph-name="dotaccent" unicode="&#x2d9;" horiz-adv-x="630" 
d="M471 1309q6 36 31.5 60t58.5 24q32 0 47.5 -23.5t9.5 -60.5q-6 -36 -30.5 -58t-57.5 -22q-32 0 -48.5 21.5t-10.5 58.5z" />
    <glyph glyph-name="ring" unicode="&#x2da;" horiz-adv-x="847" 
d="M475 1362q12 76 78 132t143 56q78 0 123.5 -55t32.5 -133q-12 -78 -78.5 -133t-144.5 -55t-123 55t-31 133zM535 1362q-11 -56 19 -92.5t85 -36.5q54 0 98 37t54 92q10 54 -20.5 90.5t-84.5 36.5q-55 0 -97.5 -36.5t-53.5 -90.5z" />
    <glyph glyph-name="ogonek" unicode="&#x2db;" horiz-adv-x="933" 
d="M420 20l-4 -16q-83 -45 -124 -101.5t-50 -109.5q-14 -80 32.5 -127t118.5 -47q74 0 140.5 49.5t97.5 124.5l53 -31q-38 -95 -121.5 -157t-185.5 -62q-103 0 -168 62.5t-45 175.5q9 57 55 122.5t137 116.5h64z" />
    <glyph glyph-name="tilde" unicode="&#x2dc;" horiz-adv-x="1046" 
d="M879 1260q-49 0 -128.5 45t-123.5 45q-34 0 -55 -19.5t-60 -79.5l-47 11q46 94 83 127.5t89 33.5q49 0 131 -44t121 -44q35 0 56 18.5t59 76.5l47 -11q-43 -93 -80.5 -126t-91.5 -33z" />
    <glyph glyph-name="hungarumlaut" unicode="&#x2dd;" horiz-adv-x="1077" 
d="M696 1481h101l-265 -307h-79zM989 1481h101l-267 -307h-78z" />
    <glyph glyph-name="uni0394" unicode="&#x394;" horiz-adv-x="1464" 
d="M1260 82l-281 1257h-16l-730 -1257h1027zM913 1434h144l321 -1434h-1290z" />
    <glyph glyph-name="uni03A9" unicode="&#x3a9;" horiz-adv-x="1652" 
d="M1067 1372q-134 0 -257.5 -49.5t-217.5 -134t-158.5 -199.5t-87.5 -244q-20 -103 -1 -206.5t64 -192.5t117.5 -159.5t159.5 -106.5l-12 -80h-531l13 82h368q-149 99 -229.5 290t-44.5 384q26 144 100.5 272t182 222.5t251 150t299.5 55.5q209 0 355.5 -95t205 -254
t23.5 -351q-36 -191 -184.5 -382.5t-331.5 -291.5h373l-13 -82h-534l12 80q202 74 372.5 268.5t207.5 396.5q30 173 -20 315.5t-176 227t-306 84.5z" />
    <glyph glyph-name="uni03BC" unicode="&#x3bc;" horiz-adv-x="1245" 
d="M449 1016l-105 -584q-17 -86 -7 -149.5t33 -106t63 -68t83.5 -36.5t95.5 -11q40 0 87 12t103.5 43t105.5 77.5t90.5 124.5t60.5 174l94 524h94l-178 -1016h-94l41 233q-77 -130 -194 -193t-228 -63q-225 0 -305 136l-74 -404h-94l233 1307h95z" />
    <glyph glyph-name="pi" unicode="&#x3c0;" horiz-adv-x="1370" 
d="M1026 932l-104 -594q-48 -279 145 -279q77 0 143 51t66 113v47h84q2 -12 2 -37q0 -10 -2 -16q-19 -106 -101 -173t-206 -67q-293 0 -228 351l107 604h-436l-164 -932h-94l163 932h-192l14 84h1084l-15 -84h-266z" />
    <glyph glyph-name="Wgrave" unicode="&#x1e80;" horiz-adv-x="2033" 
d="M1305 1386l170 -1239l643 1287h98l-715 -1434h-96l-170 1235l-606 -1235h-99l-208 1434h98l186 -1287l608 1239h91zM1133 1851h108l119 -284h-78z" />
    <glyph glyph-name="wgrave" unicode="&#x1e81;" horiz-adv-x="1697" 
d="M526 119l449 858h88l143 -858l512 897h99l-580 -1016h-92l-152 846l-440 -846h-92l-223 1016h98zM874 1481h111l133 -307h-80z" />
    <glyph glyph-name="Wacute" unicode="&#x1e82;" horiz-adv-x="2033" 
d="M1305 1386l170 -1239l643 1287h98l-715 -1434h-96l-170 1235l-606 -1235h-99l-208 1434h98l186 -1287l608 1239h91zM1454 1851h107l-252 -284h-78z" />
    <glyph glyph-name="wacute" unicode="&#x1e83;" horiz-adv-x="1697" 
d="M526 119l449 858h88l143 -858l512 897h99l-580 -1016h-92l-152 846l-440 -846h-92l-223 1016h98zM1231 1481h110l-276 -307h-78z" />
    <glyph glyph-name="Wdieresis" unicode="&#x1e84;" horiz-adv-x="2033" 
d="M1305 1386l170 -1239l643 1287h98l-715 -1434h-96l-170 1235l-606 -1235h-99l-208 1434h98l186 -1287l608 1239h91zM1026 1690q6 31 31 53t55 22q32 0 50.5 -22t13.5 -53q-6 -31 -32.5 -53.5t-58.5 -22.5q-31 0 -48 22.5t-11 53.5zM1454 1690q6 31 31 53t55 22
q32 0 50.5 -22t13.5 -53q-6 -31 -32.5 -53.5t-58.5 -22.5q-31 0 -48 22.5t-11 53.5z" />
    <glyph glyph-name="wdieresis" unicode="&#x1e85;" horiz-adv-x="1697" 
d="M526 119l449 858h88l143 -858l512 897h99l-580 -1016h-92l-152 846l-440 -846h-92l-223 1016h98zM788 1319q6 32 32 55t57 23q32 0 49.5 -23t9.5 -55q-5 -31 -29.5 -52.5t-56.5 -21.5q-31 0 -49.5 21.5t-12.5 52.5zM1217 1319q6 32 31.5 55t56.5 23q32 0 49.5 -23
t9.5 -55q-5 -31 -29.5 -52.5t-56.5 -21.5q-31 0 -49 21.5t-12 52.5z" />
    <glyph glyph-name="Ygrave" unicode="&#x1ef2;" horiz-adv-x="1284" 
d="M594 0l102 596l-387 838h113l340 -748l606 748h111l-686 -838l-103 -596h-96zM756 1851h108l119 -284h-78z" />
    <glyph glyph-name="ygrave" unicode="&#x1ef3;" horiz-adv-x="1083" 
d="M561 94l539 922h108l-880 -1475h-99l260 443l-260 1032h107zM567 1481h111l133 -307h-80z" />
    <glyph glyph-name="thinspace" unicode="&#x2009;" horiz-adv-x="34" 
 />
    <glyph glyph-name="endash" unicode="&#x2013;" horiz-adv-x="1114" 
d="M244 580l14 86h832l-15 -86h-831z" />
    <glyph glyph-name="emdash" unicode="&#x2014;" horiz-adv-x="1624" 
d="M244 580l14 86h1339l-14 -86h-1339z" />
    <glyph glyph-name="quoteleft" unicode="&#x2018;" horiz-adv-x="428" 
d="M526 1481l23 -43q-54 -37 -95 -92.5t-51 -112.5q-3 -16 0 -29q17 10 41 10q29 0 44 -19.5t10 -49.5q-5 -32 -30 -54t-65 -22q-34 0 -53 24.5t-19 56.5t3 64q4 26 15.5 56t32.5 68t58.5 76t85.5 67z" />
    <glyph glyph-name="quoteright" unicode="&#x2019;" horiz-adv-x="417" 
d="M352 1069l-18 43q54 36 92.5 90.5t48.5 114.5q2 10 2 29q-22 -11 -41 -11q-29 0 -43.5 20t-9.5 50q6 33 30.5 54.5t63.5 21.5q34 0 53 -24.5t19.5 -57t-2.5 -64.5q-4 -26 -15.5 -56t-32.5 -67.5t-59 -75.5t-88 -67z" />
    <glyph glyph-name="quotesinglbase" unicode="&#x201a;" horiz-adv-x="499" 
d="M154 -201l-21 43q53 37 92 92t49 113q4 24 2 29q-18 -10 -40 -10q-29 0 -43 19.5t-9 49.5q5 33 29 54.5t63 21.5q34 0 53 -24.5t19.5 -56.5t-2.5 -64q-4 -26 -15.5 -56t-32.5 -68t-58.5 -76t-85.5 -67z" />
    <glyph glyph-name="quotedblleft" unicode="&#x201c;" horiz-adv-x="739" 
d="M838 1481l22 -43q-54 -37 -94.5 -92.5t-50.5 -112.5q-3 -16 0 -29q17 10 41 10q29 0 43.5 -19.5t9.5 -49.5q-5 -33 -30 -54.5t-64 -21.5q-34 0 -53 24.5t-19.5 56.5t2.5 64q6 37 23 78t62 96t108 93zM526 1481l23 -43q-54 -37 -95 -92.5t-51 -112.5q-3 -16 0 -29
q17 10 41 10q29 0 44 -19.5t10 -49.5q-5 -32 -30 -54t-65 -22q-34 0 -53 24.5t-19 56.5t3 64q4 26 15.5 56t32.5 68t58.5 76t85.5 67z" />
    <glyph glyph-name="quotedblright" unicode="&#x201d;" horiz-adv-x="729" 
d="M352 1069l-18 43q54 36 92.5 90.5t48.5 114.5q2 10 2 29q-22 -11 -41 -11q-29 0 -43.5 20t-9.5 50q6 33 30.5 54.5t63.5 21.5q34 0 53 -24.5t19.5 -57t-2.5 -64.5q-4 -26 -15.5 -56t-32.5 -67.5t-59 -75.5t-88 -67zM664 1069l-19 43q54 36 92.5 90.5t48.5 114.5
q2 10 2 29q-22 -11 -40 -11q-29 0 -44 20t-10 50q6 33 30.5 54.5t63.5 21.5q34 0 53 -24.5t19.5 -57t-2.5 -64.5q-4 -26 -15 -55.5t-32 -67.5t-59 -76t-88 -67z" />
    <glyph glyph-name="quotedblbase" unicode="&#x201e;" horiz-adv-x="813" 
d="M156 -201l-21 43q53 37 92 92t49 113q4 27 3 29q-17 -10 -41 -10q-29 0 -43 19.5t-9 49.5q5 33 29.5 54.5t63.5 21.5q34 0 53 -24.5t19 -56.5t-3 -64q-4 -26 -15.5 -56t-32.5 -68t-58.5 -76t-85.5 -67zM467 -201l-21 43q53 37 92.5 92t49.5 113q4 25 2 29
q-18 -10 -41 -10q-29 0 -42.5 19.5t-8.5 49.5q5 33 29 54.5t63 21.5q34 0 53 -24.5t19 -56.5t-3 -64q-4 -26 -15.5 -56t-32.5 -68t-58.5 -76t-85.5 -67z" />
    <glyph glyph-name="dagger" unicode="&#x2020;" horiz-adv-x="1044" 
d="M731 956l-233 -1306h-82l233 1306h-411l14 78h412l94 533h82l-95 -533h412l-14 -78h-412z" />
    <glyph glyph-name="daggerdbl" unicode="&#x2021;" horiz-adv-x="1101" 
d="M1051 276h-412l-113 -626h-82l113 626h-412l13 78h411l109 602h-412l17 78h411l92 533h82l-92 -533h412l-17 -78h-411l-109 -602h412z" />
    <glyph glyph-name="bullet" unicode="&#x2022;" horiz-adv-x="800" 
d="M274 492q17 86 89.5 147t158.5 61q87 0 137.5 -60.5t38.5 -147.5q-17 -87 -89.5 -149t-159.5 -62q-88 0 -140 61t-35 150z" />
    <glyph glyph-name="ellipsis" unicode="&#x2026;" horiz-adv-x="1466" 
d="M156 59q6 35 33.5 58.5t62.5 23.5t55 -23.5t15 -58.5q-8 -35 -36 -58.5t-63 -23.5t-54 23.5t-13 58.5zM659 59q6 35 34 58.5t63 23.5t54.5 -23t14.5 -59q-8 -35 -35.5 -58.5t-62.5 -23.5t-54.5 23.5t-13.5 58.5zM1165 59q6 35 33 58.5t62 23.5t54.5 -23t14.5 -59
q-8 -35 -35.5 -58.5t-62.5 -23.5t-53.5 23.5t-12.5 58.5z" />
    <glyph glyph-name="perthousand" unicode="&#x2030;" horiz-adv-x="2635" 
d="M276 1126q25 141 135 235.5t248 94.5q139 0 214.5 -94.5t50.5 -235.5q-25 -136 -135.5 -231.5t-247.5 -95.5t-213.5 95.5t-51.5 231.5zM354 1126q-17 -106 39.5 -179t161.5 -73q104 0 188 73.5t101 178.5q20 110 -36.5 183t-162.5 73q-104 0 -187.5 -73.5t-103.5 -182.5z
M1085 305q25 140 135 235t248 95q139 0 214.5 -95t50.5 -235q-25 -138 -134 -233t-247 -95t-215 95.5t-52 232.5zM1165 305q-17 -107 39.5 -180.5t161.5 -73.5q104 0 188 74t101 180q20 110 -36.5 182t-162.5 72q-105 0 -188 -72.5t-103 -181.5zM1962 305q25 140 135 235
t248 95q140 0 215.5 -95t50.5 -235q-25 -137 -135.5 -232.5t-247.5 -95.5t-214 95.5t-52 232.5zM2042 305q-17 -107 39.5 -180.5t161.5 -73.5q104 0 187.5 74t100.5 180q20 110 -36 182t-162 72q-105 0 -188 -72.5t-103 -181.5zM426 0l1051 1434h92l-1053 -1434h-90z" />
    <glyph glyph-name="guilsinglleft" unicode="&#x2039;" horiz-adv-x="649" 
d="M209 600l428 410l51 -47l-379 -363l250 -362l-67 -50z" />
    <glyph glyph-name="guilsinglright" unicode="&#x203a;" horiz-adv-x="649" 
d="M367 1010l282 -410l-428 -412l-53 50l381 362l-252 363z" />
    <glyph glyph-name="fraction" unicode="&#x2044;" horiz-adv-x="307" 
d="M1030 1507l-1405 -1591h-94l1405 1591h94z" />
    <glyph glyph-name="zerosuperior" unicode="&#x2070;" horiz-adv-x="763" 
d="M915 1270q-30 -161 -133.5 -269t-244.5 -108q-137 0 -204.5 109.5t-37.5 267.5q30 157 134 263.5t243 106.5t206 -107t37 -263zM838 1270q25 130 -23.5 216.5t-155.5 86.5q-104 0 -181 -85.5t-103 -217.5q-24 -133 24 -219t152 -86q107 0 184 86t103 219z" />
    <glyph glyph-name="foursuperior" unicode="&#x2074;" horiz-adv-x="714" 
d="M338 1167h305l62 336zM631 1102h-402l11 45l512 481h49l-82 -461h160l-13 -65h-159l-33 -191h-76z" />
    <glyph glyph-name="fivesuperior" unicode="&#x2075;" horiz-adv-x="645" 
d="M481 956q99 0 159 51t73 128q13 75 -25.5 127.5t-134.5 52.5q-91 0 -188 -51l-50 22l82 342h420l-10 -63h-352l-58 -228q91 41 174 41q124 0 180 -71t37 -172q-20 -108 -104 -177t-215 -69q-61 0 -123.5 21.5t-105.5 56.5l55 53q35 -29 86.5 -46.5t99.5 -17.5z" />
    <glyph glyph-name="sixsuperior" unicode="&#x2076;" horiz-adv-x="675" 
d="M649 1579q-95 0 -172.5 -89.5t-107.5 -223.5q44 55 109.5 80.5t131.5 25.5q101 0 165 -68t44 -174q-17 -102 -105.5 -168.5t-199.5 -66.5q-135 0 -194 96.5t-29 257.5q30 169 132.5 282.5t238.5 113.5q58 0 105.5 -20t68.5 -50l-54 -43q-18 19 -55.5 33t-77.5 14z
M358 1122q0 -65 44.5 -112t125.5 -47q79 0 139.5 46.5t73.5 123.5q16 81 -29 127.5t-122 46.5q-85 0 -158.5 -52.5t-73.5 -132.5z" />
    <glyph glyph-name="sevensuperior" unicode="&#x2077;" horiz-adv-x="579" 
d="M322 1565l12 63h508l-11 -49l-487 -668h-84l481 654h-419z" />
    <glyph glyph-name="eightsuperior" unicode="&#x2078;" horiz-adv-x="716" 
d="M526 963q93 0 160 43.5t78 107.5q11 65 -37.5 106.5t-148.5 41.5q-98 0 -160.5 -40.5t-73.5 -105.5q-11 -67 39 -110t143 -43zM637 1579q-80 0 -135.5 -35t-65.5 -94q-11 -57 28.5 -93t123.5 -36q88 0 142 37t65 94q11 56 -31.5 91.5t-126.5 35.5zM518 897
q-128 0 -198.5 62t-53.5 159q11 59 55.5 106t114.5 70q-95 50 -78 158q13 85 94.5 139t194.5 54q114 0 175.5 -55t47.5 -138q-8 -45 -45.5 -89.5t-91.5 -68.5q65 -24 93.5 -70.5t17.5 -107.5q-18 -94 -108.5 -156.5t-217.5 -62.5z" />
    <glyph glyph-name="ninesuperior" unicode="&#x2079;" horiz-adv-x="675" 
d="M471 961q96 0 174.5 88t106.5 223q-41 -53 -108.5 -80t-133.5 -27q-99 0 -161.5 68.5t-45.5 173.5q20 104 106 169.5t199 65.5q135 0 194 -96t29 -256q-30 -170 -132.5 -283.5t-241.5 -113.5q-111 0 -174 74l57 41q18 -20 54.5 -33.5t76.5 -13.5zM766 1389q12 76 -41 132
t-133 56q-79 0 -138.5 -47.5t-72.5 -124.5q-17 -78 28 -125t121 -47q48 0 98.5 18.5t90 55.5t47.5 82z" />
    <glyph glyph-name="parenleftsuperior" unicode="&#x207d;" horiz-adv-x="401" 
d="M305 1245q15 88 50.5 171t80.5 145.5t82 103.5t72 72l41 -31q-203 -221 -248 -461q-13 -66 -10.5 -129.5t10 -111.5t23.5 -92.5t30.5 -73t30.5 -52.5l-55 -28q-18 24 -34.5 53t-37.5 77t-30.5 99t-14.5 119.5t10 138.5z" />
    <glyph glyph-name="parenrightsuperior" unicode="&#x207e;" horiz-adv-x="401" 
d="M535 1245q-15 -86 -50.5 -168.5t-79 -144.5t-81 -104t-70.5 -70l-45 28q32 32 63 70t71 97t71 135.5t45 156.5q46 245 -86 461l55 31q18 -24 34.5 -53t37.5 -77t30.5 -99.5t14.5 -121t-10 -141.5z" />
    <glyph glyph-name="zeroinferior" unicode="&#x2080;" horiz-adv-x="763" 
d="M707 90q-30 -161 -134 -269t-245 -108q-137 0 -204.5 109.5t-37.5 267.5q30 157 134 264t241 107q141 0 208.5 -107.5t37.5 -263.5zM629 90q21 132 -26 217.5t-154 85.5q-104 0 -183 -86.5t-100 -216.5q-24 -133 23 -219t151 -86q109 0 186 85.5t103 219.5z" />
    <glyph glyph-name="oneinferior" unicode="&#x2081;" horiz-adv-x="395" 
d="M94 279l-4 63l242 107h43l-129 -719h-78l111 626z" />
    <glyph glyph-name="twoinferior" unicode="&#x2082;" horiz-adv-x="657" 
d="M432 2l-278 -205q17 0 48 1t46 1h311l-12 -69h-522l6 53l358 268q124 93 141 191q12 71 -28 108t-123 37q-79 0 -124.5 -35.5t-61.5 -85.5h-80q20 76 92.5 133.5t189.5 57.5q115 0 171.5 -59t37.5 -158q-20 -121 -172 -238z" />
    <glyph glyph-name="threeinferior" unicode="&#x2083;" horiz-adv-x="651" 
d="M18 -209l56 53q31 -29 79 -46t99 -17q100 0 164.5 48.5t77.5 121.5q13 76 -31.5 121t-124.5 45q-71 0 -121 -29l-22 49l311 248h-361l13 64h477l-6 -39l-289 -236h14q112 0 172.5 -61t42.5 -164t-104.5 -169.5t-222.5 -66.5q-146 0 -224 78z" />
    <glyph glyph-name="fourinferior" unicode="&#x2084;" horiz-adv-x="716" 
d="M129 -12h305l62 336zM422 -78h-402l11 45l514 482h49l-84 -461h160l-13 -66h-159l-33 -192h-76z" />
    <glyph glyph-name="fiveinferior" unicode="&#x2085;" horiz-adv-x="645" 
d="M270 -223q99 0 159 50.5t73 127.5q13 75 -25 127.5t-133 52.5q-86 0 -190 -51l-48 22l82 343h420l-12 -64h-352l-56 -227q87 41 172 41q123 0 180.5 -72t39.5 -172q-20 -107 -105 -176.5t-217 -69.5q-61 0 -122.5 21t-106.5 57l57 53q35 -29 85.5 -46t98.5 -17z" />
    <glyph glyph-name="sixinferior" unicode="&#x2086;" horiz-adv-x="677" 
d="M442 395q-96 0 -174 -89.5t-108 -223.5q44 55 109.5 80.5t131.5 25.5q101 0 165 -67.5t44 -173.5q-17 -103 -104.5 -169.5t-198.5 -66.5q-135 0 -195 97.5t-30 257.5q30 169 132.5 282t240.5 113q58 0 104.5 -20t67.5 -50l-49 -43q-19 19 -57.5 33t-78.5 14zM150 -63
q0 -63 45.5 -110.5t126.5 -47.5q79 0 138 46.5t72 123.5q13 81 -31 127.5t-120 46.5q-85 0 -158 -53t-73 -133z" />
    <glyph glyph-name="seveninferior" unicode="&#x2087;" horiz-adv-x="573" 
d="M106 385l15 64h508l-11 -50l-489 -669h-84l481 655h-420z" />
    <glyph glyph-name="eightinferior" unicode="&#x2088;" horiz-adv-x="716" 
d="M317 -219q92 0 158.5 43.5t77.5 107.5q11 65 -36.5 106.5t-147.5 41.5q-98 0 -160.5 -40.5t-73.5 -105.5q-11 -67 39 -110t143 -43zM428 397q-81 0 -137 -35t-66 -94q-11 -57 28.5 -93t123.5 -36q88 0 143 37t66 94q11 56 -31.5 91.5t-126.5 35.5zM307 -285
q-127 0 -197 62.5t-53 159.5q11 59 55 106t115 70q-94 50 -77 157q13 85 95 139t195 54q114 0 175 -55t47 -138q-8 -45 -45.5 -89t-92.5 -68q65 -24 93.5 -71t17.5 -108q-17 -95 -109.5 -157t-218.5 -62z" />
    <glyph glyph-name="nineinferior" unicode="&#x2089;" horiz-adv-x="677" 
d="M262 -221q96 0 174.5 88t106.5 223q-44 -53 -110 -79.5t-132 -26.5q-99 0 -161.5 68t-45.5 173q20 104 105 170t198 66q135 0 194.5 -96t29.5 -256q-30 -171 -131.5 -284.5t-241.5 -113.5q-113 0 -176 74l57 41q18 -19 55.5 -33t77.5 -14zM555 207q12 76 -39 132t-133 56
q-79 0 -138.5 -47.5t-72.5 -124.5q-17 -78 28.5 -125t121.5 -47q74 0 148 44.5t85 111.5z" />
    <glyph glyph-name="parenleftinferior" unicode="&#x208d;" horiz-adv-x="401" 
d="M96 66q15 88 50.5 171t81 145.5t82 103t71.5 71.5l41 -31q-203 -222 -248 -460q-12 -90 -10 -159.5t20 -131.5t36.5 -100.5t39.5 -67.5l-55 -29q-18 24 -34.5 52.5t-37.5 77.5t-31.5 100t-15.5 120t10 138z" />
    <glyph glyph-name="parenrightinferior" unicode="&#x208e;" horiz-adv-x="401" 
d="M324 66q-15 -86 -50 -168.5t-78.5 -144t-80 -104t-70.5 -71.5l-41 29q36 40 60 70.5t67 93.5t73 138.5t44 156.5q15 65 12 128.5t-10.5 111.5t-24.5 93.5t-31.5 73.5t-31.5 53l55 31q18 -25 34.5 -53t37.5 -76.5t30.5 -99.5t14.5 -120.5t-10 -141.5z" />
    <glyph glyph-name="lira" unicode="&#x20a4;" horiz-adv-x="1261" 
d="M549 1081q-5 -25 -6 -47.5t3.5 -57t8.5 -55.5t15.5 -78.5t17.5 -90.5h444l-14 -68h-418q16 -82 16 -152h375l-10 -65h-363q-3 -11 -5 -32t-5 -32q-39 -225 -246 -321l-2 -6q47 6 134 6h688l-13 -82h-1085l12 82q72 0 136 17t122 53t99 100t57 151q7 25 10 64h-289l11 65
h276q-3 79 -18 152h-232l15 68h204q-3 16 -10.5 50t-10.5 46.5t-8.5 39t-7 37.5t-4.5 31.5t-3.5 32t-1 27.5t1 28.5t3.5 26.5q32 177 178 281t347 104q69 0 126.5 -13t95.5 -36t66.5 -53t40.5 -64.5t17.5 -70.5t-2.5 -70h-98q14 88 -51 153.5t-210 65.5q-158 0 -270.5 -77
t-136.5 -210z" />
    <glyph glyph-name="rupee" unicode="&#x20a8;" horiz-adv-x="1310" 
d="M326 1038l12 74h772q-11 109 -78 173.5t-184 64.5h-467l14 84h1035l-13 -74h-315q104 -91 110 -248h160l-12 -74h-150q0 -6 -4 -34q-30 -171 -150 -288.5t-292 -129.5q-8 -44 -5.5 -99.5t8 -113.5t26 -113t49 -98t75 -69.5t105.5 -26.5q89 0 160 45l26 -70
q-45 -31 -101 -47.5t-103 -16.5q-67 0 -122 23.5t-91 62.5t-62 92t-39 108.5t-19 115.5t-5 110t6 95h-426l14 82h467q146 0 250 96.5t129 241.5q4 28 4 34h-784z" />
    <glyph glyph-name="uni20A9" unicode="&#x20a9;" horiz-adv-x="2164" 
d="M260 834l14 77h189l-78 523h98l78 -523h486l233 475h90l66 -475h487l258 523h98l-258 -523h189l-15 -77h-215l-102 -203h281l-13 -78h-305l-274 -553h-97l-77 553h-430l-269 -553h-98l-82 553h-303l12 78h279l-29 203h-213zM1446 834l27 -203h307l102 203h-436zM571 834
l29 -203h307l101 203h-437zM1100 834l-101 -203h381l-26 203h-254zM1485 553l53 -406l205 406h-258zM612 553l58 -406l200 406h-258zM1298 1235l-159 -324h204z" />
    <glyph glyph-name="afii57636" unicode="&#x20aa;" horiz-adv-x="1417" 
d="M426 1010l-176 -1010h-92l194 1102h357q186 0 283.5 -118t64.5 -292l-58 -319h-92l58 319q25 135 -51 226.5t-224 91.5h-264zM1182 92l180 1010h92l-194 -1102h-357q-126 0 -213.5 55t-123 147.5t-15.5 207.5l57 319h92l-55 -319q-25 -135 50 -226.5t223 -91.5h264z" />
    <glyph glyph-name="Euro" unicode="&#x20ac;" horiz-adv-x="1343" 
d="M1184 102q0 -14 -1 -41t-1 -41q-115 -43 -226 -43q-185 0 -314.5 71.5t-191 193.5t-61.5 284h-209l13 74h198l17 105q14 78 20 96h-197l11 73h207q33 100 82 186t118 159.5t152.5 125.5t191 81.5t228.5 29.5q160 0 282 -65q-10 -14 -27.5 -41.5t-23.5 -36.5
q-98 55 -250 55q-125 0 -231.5 -37t-186 -105t-138.5 -155.5t-99 -196.5h706l-30 -73h-695q-6 -14 -10 -28.5t-7.5 -37t-4.5 -28.5l-17 -107h639l-32 -74h-604q5 -207 127.5 -333.5t355.5 -126.5q113 0 209 36z" />
    <glyph glyph-name="uni2113" unicode="&#x2113;" horiz-adv-x="935" 
d="M1051 1118q-55 -294 -243.5 -523t-426.5 -278q-6 -76 5 -128.5t38 -79t60 -37.5t79 -11q177 0 213 162q16 0 43 1t43 1l-4 -24q-18 -99 -98.5 -161.5t-210.5 -62.5q-50 0 -90 8t-77 30t-60.5 57.5t-34.5 94.5t-4 138q-107 0 -162 23l10 69q77 -30 166 -18l131 739
q16 87 51.5 153t76 101t91.5 56.5t88.5 27.5t75.5 6q24 0 45.5 -2.5t48 -8t47.5 -17.5t42.5 -29t35.5 -43.5t23 -60t8.5 -80.5t-10.5 -103zM961 1118q8 56 8.5 97t-13 69.5t-29.5 47t-39.5 28.5t-44 14t-42.5 4q-29 0 -58 -5.5t-64 -22.5t-64 -44t-54 -75.5t-37 -112.5
l-127 -719q104 25 202 101.5t170 178t122.5 216.5t69.5 223z" />
    <glyph glyph-name="afii61352" unicode="&#x2116;" horiz-adv-x="2324" 
d="M1784 1147q25 132 131.5 220.5t238.5 88.5q133 0 208.5 -88.5t50.5 -220.5q-25 -131 -130.5 -218t-238.5 -87q-132 0 -208 87t-52 218zM1696 610l12 70h612l-12 -70h-612zM1196 0l-707 1264l-223 -1264h-96l252 1434h80l706 -1262l224 1262h96l-252 -1434h-80zM1858 1147
q-19 -104 38 -171t160 -67q104 0 184.5 67t100.5 171q19 104 -38 173t-161 69q-103 0 -183.5 -69t-100.5 -173z" />
    <glyph glyph-name="uni2117" unicode="&#x2117;" horiz-adv-x="1685" 
d="M240 717q35 201 160.5 371t311 269t386.5 99q121 0 226.5 -37.5t181.5 -105t128 -160t66 -203t-4 -233.5q-35 -202 -162 -372t-312 -269t-386 -99q-152 0 -276.5 58.5t-203.5 157.5t-111 235.5t-5 288.5zM311 717q-24 -138 4.5 -262t99.5 -214t183 -143t248 -53t267.5 53
t235.5 143t177.5 214t97.5 262q33 183 -26.5 336.5t-195 243t-317.5 89.5t-349 -89.5t-279.5 -243t-145.5 -336.5zM1286 838q-18 -94 -86 -154.5t-164 -60.5h-205l-49 -289h-73l129 729h278q99 0 143.5 -65t26.5 -160zM846 686h198q64 0 110.5 44t57.5 108q12 68 -19 113.5
t-95 45.5h-199z" />
    <glyph glyph-name="trademark" unicode="&#x2122;" horiz-adv-x="1732" 
d="M330 1434h606l-8 -64h-269l-114 -647h-70l115 647h-268zM1696 723h-70l47 592l-373 -584h-61l-164 584l-157 -592h-70l188 711h78l176 -605l383 605h80z" />
    <glyph glyph-name="Omega" unicode="&#x2126;" horiz-adv-x="1665" 
d="M1073 1372q-134 0 -257.5 -49.5t-217.5 -134t-158.5 -199.5t-87.5 -244q-20 -103 -1 -206.5t64 -192.5t117.5 -159.5t159.5 -106.5l-12 -80h-530l12 82h368q-149 99 -229.5 290t-44.5 384q26 144 100.5 272t182.5 222.5t251.5 150t299.5 55.5q157 0 281 -55.5t198 -150
t102 -222.5t2 -272q-36 -191 -184.5 -382.5t-331.5 -291.5h373l-12 -82h-535l12 80q202 74 372.5 268.5t207.5 396.5q30 173 -20 315.5t-176 227t-306 84.5z" />
    <glyph glyph-name="estimated" unicode="&#x212e;" horiz-adv-x="1343" 
d="M1346 578h-879l-70 -396q113 -129 289 -129q82 0 153 20t129 59t101.5 80.5t93.5 100.5l56 -39q-56 -68 -108 -116t-118 -89.5t-145.5 -62t-173.5 -20.5q-99 0 -181.5 31t-138 85.5t-92.5 129.5t-44 163t7 185q22 123 80 230.5t142.5 188.5t199.5 128t244 47
q102 0 186.5 -31t141 -86t93 -130t43 -163t-8.5 -186zM1112 645l59 334q-51 55 -127.5 91t-162.5 36q-197 0 -342 -127l-60 -334h633z" />
    <glyph glyph-name="arrowleft" unicode="&#x2190;" horiz-adv-x="1343" 
d="M1188 551l-17 -78h-782l223 -323l-67 -50l-283 412l428 410l51 -48l-335 -323h782z" />
    <glyph glyph-name="arrowup" unicode="&#x2191;" horiz-adv-x="1157" 
d="M625 57h-78l139 783l-371 -281l-39 62l474 354l348 -354l-58 -62l-276 281z" />
    <glyph glyph-name="arrowright" unicode="&#x2192;" horiz-adv-x="1343" 
d="M336 473l14 78h783l-224 323l70 48l283 -410l-428 -412l-54 50l338 323h-782z" />
    <glyph glyph-name="arrowdown" unicode="&#x2193;" horiz-adv-x="1157" 
d="M709 975h77l-139 -782l373 280l39 -61l-475 -355l-346 355l57 61l274 -280z" />
    <glyph glyph-name="partialdiff" unicode="&#x2202;" horiz-adv-x="1327" 
d="M834 1337l-21 76q124 43 242 43q94 0 165 -26t114 -72.5t67.5 -111t25.5 -143t-12 -167.5q-22 -119 -72 -246q-130 -334 -345 -523.5t-486 -189.5q-195 0 -290.5 100.5t-65.5 264.5q21 124 93 230.5t170 176t211.5 109t221.5 39.5q139 0 246 -71.5t119 -190.5h6
q68 127 94 283q38 212 -34.5 334t-262.5 122q-94 0 -186 -37zM827 809q-121 0 -242 -53.5t-214.5 -159.5t-116.5 -240q-24 -134 57.5 -214.5t233.5 -80.5q115 0 234 53t220.5 155t155.5 233q12 75 -15 135.5t-78.5 97t-112.5 55.5t-122 19z" />
    <glyph glyph-name="Delta" unicode="&#x2206;" horiz-adv-x="1421" 
d="M1237 82l-281 1257h-16l-729 -1257h1026zM891 1434h143l322 -1434h-1290z" />
    <glyph glyph-name="product" unicode="&#x220f;" horiz-adv-x="1452" 
d="M1409 1350l-305 -1698h-94l305 1698h-697l-305 -1698h-94l305 1698h-205l13 84h1290l-12 -84h-201z" />
    <glyph glyph-name="summation" unicode="&#x2211;" horiz-adv-x="1136" 
d="M25 -285l698 826l-383 827l12 66h895l-12 -84h-780l-2 -2l372 -809l-678 -805h863l-17 -82h-981z" />
    <glyph glyph-name="minus" unicode="&#x2212;" horiz-adv-x="1255" 
d="M260 569l14 86h936l-14 -86h-936z" />
    <glyph glyph-name="uni2219" unicode="&#x2219;" horiz-adv-x="483" 
d="M276 670q6 35 34.5 58.5t64.5 23.5q35 0 53.5 -23t13.5 -59q-8 -35 -35.5 -58.5t-62.5 -23.5t-54.5 23.5t-13.5 58.5z" />
    <glyph glyph-name="radical" unicode="&#x221a;" horiz-adv-x="1087" 
d="M143 719l248 106l158 -880l100 248l572 1374h82l-734 -1762h-84l-163 914l-160 -70z" />
    <glyph glyph-name="infinity" unicode="&#x221e;" horiz-adv-x="1759" 
d="M322 604q-20 -109 36.5 -173t159.5 -64q124 0 264 118l142 117q-14 16 -40.5 48.5t-39.5 47t-36 39.5t-37.5 37t-36.5 28.5t-40.5 23.5t-42.5 12.5t-49 5.5q-103 0 -181.5 -64t-98.5 -176zM975 547l-141 -117q-89 -74 -169.5 -109.5t-168.5 -35.5q-136 0 -211.5 86.5
t-51.5 232.5q24 147 134 234.5t245 87.5q97 0 162.5 -40t143.5 -132l79 -92q17 14 61 50t59 48t51.5 40t53 38t47.5 29t51 26t48.5 17t55 13t55.5 3q138 0 211 -86.5t49 -235.5q-24 -145 -131.5 -232t-245.5 -87q-89 0 -154 35t-129 110l-102 117h-2zM1651 604
q20 112 -37.5 176t-161.5 64q-29 0 -56 -5t-57 -19.5t-51 -25.5t-57 -38.5t-54.5 -42.5t-65 -54t-67.5 -57l99 -117q50 -61 103.5 -89.5t121.5 -28.5q103 0 183 64t100 173z" />
    <glyph glyph-name="integral" unicode="&#x222b;" horiz-adv-x="956" 
d="M739 1210l-235 -1327q-15 -86 -45.5 -152t-67.5 -105.5t-84.5 -64t-91 -33.5t-92.5 -9q-44 0 -103 16.5t-94 46.5q20 31 45 76q62 -51 181 -51q40 0 76.5 13t72 42t63.5 83.5t42 129.5l233 1327q16 86 47.5 152.5t69 105.5t85.5 64t91.5 34t91.5 9q44 0 103.5 -17
t99.5 -47l-49 -76q-72 50 -183 50q-86 0 -157.5 -62.5t-98.5 -204.5z" />
    <glyph glyph-name="approxequal" unicode="&#x2248;" horiz-adv-x="1243" 
d="M1208 952l27 -67q-104 -86 -234 -86q-59 0 -125 21.5t-115 47t-112.5 47t-118.5 21.5q-104 0 -180 -76l-26 62q87 100 219 100q59 0 125.5 -21.5t116.5 -47t113.5 -47t117.5 -21.5q102 0 192 67zM1122 449l23 -66q-103 -88 -234 -88q-58 0 -124.5 21.5t-117 47t-114.5 47
t-119 21.5q-100 0 -176 -76l-29 62q87 100 218 100q60 0 127 -21.5t117.5 -47t114 -47t116.5 -21.5q103 0 198 68z" />
    <glyph glyph-name="notequal" unicode="&#x2260;" horiz-adv-x="1200" 
d="M1210 905h-282l-346 -487h542l-14 -84h-586l-202 -285l-60 39l174 246h-231l14 84h277l346 487h-537l14 84h582l213 297l57 -39l-184 -258h238z" />
    <glyph glyph-name="lessequal" unicode="&#x2264;" horiz-adv-x="1366" 
d="M295 735l16 101l1071 366l-14 -90l-975 -328l858 -325l-16 -90zM195 137l14 78h1001l-14 -78h-1001z" />
    <glyph glyph-name="greaterequal" unicode="&#x2265;" horiz-adv-x="1366" 
d="M1346 836l-17 -101l-1071 -366l16 90l973 325l-856 328l15 90zM1231 215l-14 -78h-1002l14 78h1002z" />
    <glyph glyph-name="lozenge" unicode="&#x25ca;" horiz-adv-x="1122" 
d="M793 1434h45l327 -719l-579 -715h-45l-334 715zM1059 717l-264 594l-484 -594l271 -594z" />
    <glyph glyph-name="commaaccent" unicode="&#xf6c3;" horiz-adv-x="538" 
d="M242 -274v18q-15 -6 -35 -6q-30 0 -48 15.5t-12 49.5q5 30 28.5 50t57.5 20q48 0 66 -34t10 -81q-27 -141 -172 -229l-22 37q49 34 88 79.5t39 80.5z" />
    <glyph glyph-name="rupiah" unicode="&#xf6dd;" horiz-adv-x="2650" 
d="M268 0h-96l252 1434h573q123 0 207.5 -60t115.5 -157.5t9 -212.5q-30 -171 -150 -288.5t-292 -129.5q-7 -44 -4 -99.5t8.5 -113.5t25.5 -113t47.5 -98t74.5 -69.5t106 -26.5q89 0 160 45l26 -70q-45 -31 -101.5 -47.5t-103.5 -16.5q-67 0 -122 23.5t-90.5 62.5t-61.5 92
t-39 108.5t-19 115.5t-5 110t6 95h-424zM385 666h465q146 0 250 96.5t129 241.5q26 147 -42.5 246.5t-215.5 99.5h-465zM1784 1016l-45 -256q80 127 209.5 202.5t279.5 75.5q152 0 260 -71t151.5 -192t16.5 -269q-18 -108 -72.5 -204.5t-134.5 -168.5t-187 -114t-224 -42
q-151 0 -253.5 75.5t-135.5 201.5l-127 -713h-95l263 1475h94zM2210 954q-124 0 -235.5 -59t-186.5 -162t-96 -227q-33 -188 67 -316.5t293 -128.5t334 128t174 317q33 192 -63.5 320t-286.5 128z" />
    <glyph glyph-name="centinferior" unicode="&#xf6df;" horiz-adv-x="618" 
d="M233 -285h-55l39 113q-79 30 -117.5 98.5t-21.5 155.5q21 111 108.5 188.5t214.5 81.5l37 101h58l-37 -101q78 -13 139 -63l-37 -56q-50 41 -123 54q-20 -56 -70.5 -192.5t-76.5 -213.5q62 -10 110 1.5t99 43.5l30 -49q-134 -82 -264 -61zM154 82q-11 -63 12 -112t76 -72
l137 389q-89 -7 -150 -64.5t-75 -140.5z" />
    <glyph glyph-name="centsuperior" unicode="&#xf6e0;" horiz-adv-x="618" 
d="M444 901h-55l39 113q-79 30 -117.5 98.5t-21.5 155.5q21 111 108.5 188.5t214.5 81.5l39 100h58l-39 -100q73 -12 141 -63l-41 -56q-51 42 -121 54q-24 -70 -74 -203.5t-75 -202.5q110 -18 211 45l28 -49q-130 -83 -262 -62zM365 1268q-11 -63 12 -112.5t76 -72.5
l137 390q-89 -7 -150 -64.5t-75 -140.5z" />
    <glyph glyph-name="commainferior" unicode="&#xf6e1;" horiz-adv-x="329" 
d="M59 -403l-16 30q36 28 58 60t27 47t5 22l2 15l-12 -2l-9 -1.5t-5 -0.5q-48 0 -39 49q11 55 65 55q64 0 49 -100q-18 -105 -125 -174z" />
    <glyph glyph-name="commasuperior" unicode="&#xf6e2;" horiz-adv-x="329" 
d="M268 776l-16 31q36 28 58.5 60t28 47t5.5 22v14q-20 -4 -25 -4q-49 0 -40 49q11 56 67 56q24 0 37 -17.5t12.5 -40t-2.5 -43.5q-18 -105 -125 -174z" />
    <glyph glyph-name="dollarinferior" unicode="&#xf6e3;" horiz-adv-x="602" 
d="M266 -356h-51l14 92q-83 4 -135 49.5t-63 110.5l78 20q7 -42 42 -74.5t91 -38.5l47 260l-39 17q-82 34 -110 75t-17 95q13 77 80.5 127.5t150.5 56.5l17 90h51l-16 -90q70 -6 112.5 -48t50.5 -105q-56 -19 -71 -25q-9 99 -105 111l-43 -240l43 -16q64 -26 103 -75
t28 -112q-14 -76 -80 -129t-163 -59zM446 -78q7 41 -17.5 71.5t-63.5 43.5l-29 10l-43 -244q63 6 104 40t49 79zM203 252q-5 -30 10 -52t61 -44l27 -13l41 226q-53 -6 -92.5 -37.5t-46.5 -79.5z" />
    <glyph glyph-name="dollarsuperior" unicode="&#xf6e4;" horiz-adv-x="602" 
d="M473 827h-51l18 93q-83 4 -135 49t-63 110l77 21q7 -42 42 -74.5t92 -38.5l47 260l-39 17q-82 34 -110 75t-17 95q12 75 81 127t148 57l19 90h51l-19 -90q72 -6 115 -48.5t49 -105.5q-3 -1 -26 -8.5t-43 -15.5q-9 98 -107 110l-41 -239l41 -17q66 -25 104 -74t27 -112
q-14 -76 -79 -129t-162 -59zM657 1106q7 41 -18 71.5t-64 43.5l-28 10l-43 -244q64 6 105.5 40t47.5 79zM414 1436q-5 -31 10 -53t61 -44l27 -12l41 225q-53 -6 -92.5 -37t-46.5 -79z" />
    <glyph glyph-name="hypheninferior" unicode="&#xf6e5;" horiz-adv-x="561" 
d="M109 49l12 68h360l-12 -68h-360z" />
    <glyph glyph-name="hyphensuperior" unicode="&#xf6e6;" horiz-adv-x="561" 
d="M317 1229l11 67h360l-10 -67h-361z" />
    <glyph glyph-name="periodinferior" unicode="&#xf6e7;" horiz-adv-x="319" 
d="M106 -283q-54 0 -45 56q9 51 64 51q56 0 47 -51q-9 -56 -66 -56z" />
    <glyph glyph-name="periodsuperior" unicode="&#xf6e8;" horiz-adv-x="319" 
d="M317 899q-54 0 -45 55q9 52 64 52q56 0 47 -52q-9 -55 -66 -55z" />
    <glyph glyph-name="apple" unicode="&#xf8ff;" horiz-adv-x="1423" 
d="M961 311h153q27 153 -40 241t-183 105q119 207 213 338l-43 -399h153l70 684h-149q-183 -254 -267 -416q-31 171 -118 416h-150l-176 -684h154l104 399q11 -31 24 -76t20 -73t24 -97t22 -87q-60 -6 -116.5 -30t-107.5 -65t-88.5 -107t-53.5 -149h155q19 106 89.5 161.5
t148.5 55.5q35 0 67 -12.5t57.5 -37.5t36.5 -68.5t1 -98.5zM205 0l248 1413h1028l-248 -1413h-1028zM326 168l-15 -80h17l8 55l10 -55h14l31 57l-10 -57h16l15 80h-25l-29 -55l-8 55h-24zM457 170q-37 0 -47 -43q-5 -18 3.5 -29.5t26.5 -11.5q38 0 49 41q5 19 -4 31t-28 12z
M444 100q-20 0 -16 27q2 11 9.5 20t17.5 9q20 0 16 -29q-4 -27 -27 -27zM504 115h-17q-8 -29 29 -29q36 0 39 27q3 16 -18 22q-23 10 -23 12q0 9 14 9t11 -13h18q7 27 -27 27q-12 0 -22.5 -7t-11.5 -18q-3 -19 20 -22q12 -3 18 -6t5 -6q-3 -11 -19 -11q-7 0 -12 4t-4 11z
M584 154l-11 -66h19l10 66h25l4 14h-68l-4 -14h25zM647 168l-45 -80h19l10 18h28l3 -18h18l-14 80h-19zM655 119h-20l16 28zM696 168l-14 -80h18l5 31h16q15 0 12 -15q-3 -10 0 -16h19l-1 3q-1 3 -1 7q0 23 -11 27l2 2q16 3 19 18q3 23 -21 23h-43zM707 131l4 23h18
q10 0 10 -11q0 -12 -14 -12h-18zM772 168l-14 -80h35q37 0 43 41q6 39 -29 39h-35zM778 102l8 52h13q21 0 18 -27q-3 -25 -24 -25h-15zM850 168l-14 -80h61l2 14h-45l2 21h39l4 14h-39l2 17h43l4 14h-59zM920 115h-19q-8 -29 29 -29q36 0 39 27q3 16 -19 22q-22 9 -22 12
q0 9 14 9q12 0 12 -13h17q7 27 -27 27q-12 0 -23 -7t-12 -18q-3 -19 21 -22q12 -3 17.5 -6t4.5 -6q-3 -11 -18 -11q-17 0 -14 15zM985 168l-14 -80h16l14 80h-16zM1055 96l2 -8h12l6 43h-35l-2 -12h19q-3 -19 -21 -19q-22 0 -18 27q2 11 10 20t19 9q12 0 12 -15h16
q3 29 -26 29q-40 0 -50 -43q-5 -18 4 -29.5t29 -11.5q13 0 23 10zM1092 168l-15 -80h17l8 53l24 -53h19l14 80h-16l-10 -53l-25 53h-16z" />
    <glyph glyph-name="Euro.dnom" horiz-adv-x="712" 
d="M575 260h-294q5 -96 62.5 -151.5t164.5 -55.5q50 0 115 25l2 -66q-59 -26 -129 -26q-144 0 -217.5 73.5t-75.5 200.5h-109l12 51h101q0 39 12 80h-100l8 51h106q44 131 143.5 211t250.5 80q85 0 157 -39l-41 -59q-62 33 -125 33q-220 0 -305 -226h344l-22 -51h-338
q-9 -35 -12 -80h317q-20 -34 -27 -51z" />
    <glyph glyph-name="Euro.numr" horiz-adv-x="716" 
d="M707 969h-295q5 -96 62.5 -151.5t164.5 -55.5q50 0 113 24l2 -65q-62 -27 -127 -27q-144 0 -218.5 74t-74.5 201h-109l11 51h100q4 45 14 80h-100l8 51h107q44 132 142.5 211.5t248.5 79.5q85 0 157 -39l-39 -60q-62 33 -126 33q-223 0 -304 -225h344l-22 -51h-338
q-11 -33 -14 -80h317q-6 -11 -24 -51z" />
    <glyph glyph-name="Euroinferior" horiz-adv-x="718" 
d="M532 -12h-294q5 -96 61.5 -151.5t163.5 -55.5q49 0 112 24l7 -65q-65 -27 -131 -27q-144 0 -218.5 74t-72.5 201h-109l10 51h101q0 26 12 80h-100l8 51h106q46 132 145 211.5t249 79.5q86 0 155 -39l-39 -60q-62 33 -125 33q-221 0 -305 -225h344l-22 -51h-338
q-12 -50 -12 -80h317q-15 -21 -25 -51z" />
    <glyph glyph-name="Eurosuperior" horiz-adv-x="712" 
d="M739 1169h-295q5 -96 61 -151t163 -55q51 0 114 24l4 -65q-64 -27 -131 -27q-144 0 -217 73.5t-71 200.5h-109l8 52h101q3 39 12 79h-100l10 52h106q46 132 144.5 211t248.5 79q89 0 156 -38l-39 -60q-62 33 -127 33q-222 0 -303 -225h344l-24 -52h-338q-10 -43 -13 -79
h318q-14 -24 -23 -52z" />
    <glyph glyph-name="a.alt" horiz-adv-x="1128" 
d="M877 0l30 188q-85 -98 -211.5 -154.5t-251.5 -56.5q-156 0 -250.5 83t-70.5 225q23 133 142 223t310 90q209 0 390 -66l14 80q15 72 6 134.5t-38 108t-91.5 71.5t-153.5 26q-204 0 -362 -108q-7 17 -25 74q79 57 188 88.5t226 31.5q79 0 140.5 -16t100 -41.5t64.5 -62.5
t37.5 -74.5t14 -82.5t-0.5 -80.5t-10 -74.5l-106 -606h-92zM588 518q-170 0 -260 -65t-109 -164q-13 -70 17.5 -123t90.5 -79t138 -26q117 0 244.5 61.5t214.5 164.5l32 170q-86 29 -191.5 45t-176.5 16z" />
    <glyph glyph-name="aacute.alt" horiz-adv-x="1128" 
d="M948 1481h111l-277 -307h-77zM877 0l30 188q-85 -98 -211.5 -154.5t-251.5 -56.5q-156 0 -250.5 83t-70.5 225q23 133 142 223t310 90q209 0 390 -66l14 80q15 72 6 134.5t-38 108t-91.5 71.5t-153.5 26q-204 0 -362 -108q-7 17 -25 74q79 57 188 88.5t226 31.5
q79 0 140.5 -16t100 -41.5t64.5 -62.5t37.5 -74.5t14 -82.5t-0.5 -80.5t-10 -74.5l-106 -606h-92zM588 518q-170 0 -260 -65t-109 -164q-13 -70 17.5 -123t90.5 -79t138 -26q117 0 244.5 61.5t214.5 164.5l32 170q-86 29 -191.5 45t-176.5 16z" />
    <glyph glyph-name="abreve.alt" horiz-adv-x="1128" 
d="M1016 1464l65 -6q-35 -127 -118.5 -198.5t-194.5 -71.5q-110 0 -167.5 71.5t-47.5 198.5l65 6q-5 -89 38.5 -144.5t127.5 -55.5q83 0 144 55t88 145zM877 0l30 188q-85 -98 -211.5 -154.5t-251.5 -56.5q-156 0 -250.5 83t-70.5 225q23 133 142 223t310 90q209 0 390 -66
l14 80q15 72 6 134.5t-38 108t-91.5 71.5t-153.5 26q-204 0 -362 -108q-7 17 -25 74q79 57 188 88.5t226 31.5q79 0 140.5 -16t100 -41.5t64.5 -62.5t37.5 -74.5t14 -82.5t-0.5 -80.5t-10 -74.5l-106 -606h-92zM588 518q-170 0 -260 -65t-109 -164q-13 -70 17.5 -123
t90.5 -79t138 -26q117 0 244.5 61.5t214.5 164.5l32 170q-86 29 -191.5 45t-176.5 16z" />
    <glyph glyph-name="acircumflex.alt" horiz-adv-x="1130" 
d="M745 1481h109l174 -307h-74l-166 243l-253 -243h-74zM877 0l30 188q-85 -98 -211.5 -154.5t-251.5 -56.5q-156 0 -250.5 83t-70.5 225q23 133 142 223t310 90q209 0 390 -66l14 80q15 72 6 134.5t-38 108t-91.5 71.5t-153.5 26q-204 0 -362 -108q-7 17 -25 74
q79 57 188 88.5t226 31.5q79 0 140.5 -16t100 -41.5t64.5 -62.5t37.5 -74.5t14 -82.5t-0.5 -80.5t-10 -74.5l-106 -606h-92zM588 518q-170 0 -260 -65t-109 -164q-13 -70 17.5 -123t90.5 -79t138 -26q117 0 244.5 61.5t214.5 164.5l32 170q-86 29 -191.5 45t-176.5 16z" />
    <glyph glyph-name="acute.case" horiz-adv-x="675" 
d="M700 1851h107l-254 -284h-78z" />
    <glyph glyph-name="adieresis.alt" horiz-adv-x="1130" 
d="M481 1319q6 32 31.5 55t56.5 23q32 0 50 -23t12 -55q-6 -31 -31 -52.5t-57 -21.5q-31 0 -49.5 21.5t-12.5 52.5zM909 1319q6 32 31.5 55t56.5 23q32 0 50 -23t12 -55q-6 -31 -31 -52.5t-57 -21.5q-31 0 -49.5 21.5t-12.5 52.5zM877 0l30 188q-85 -98 -211.5 -154.5
t-251.5 -56.5q-156 0 -250.5 83t-70.5 225q23 133 142 223t310 90q209 0 390 -66l14 80q15 72 6 134.5t-38 108t-91.5 71.5t-153.5 26q-204 0 -362 -108q-7 17 -25 74q79 57 188 88.5t226 31.5q79 0 140.5 -16t100 -41.5t64.5 -62.5t37.5 -74.5t14 -82.5t-0.5 -80.5
t-10 -74.5l-106 -606h-92zM588 518q-170 0 -260 -65t-109 -164q-13 -70 17.5 -123t90.5 -79t138 -26q117 0 244.5 61.5t214.5 164.5l32 170q-86 29 -191.5 45t-176.5 16z" />
    <glyph glyph-name="agrave.alt" horiz-adv-x="1128" 
d="M573 1481h111l133 -307h-80zM877 0l30 188q-85 -98 -211.5 -154.5t-251.5 -56.5q-156 0 -250.5 83t-70.5 225q23 133 142 223t310 90q209 0 390 -66l14 80q15 72 6 134.5t-38 108t-91.5 71.5t-153.5 26q-204 0 -362 -108q-7 17 -25 74q79 57 188 88.5t226 31.5
q79 0 140.5 -16t100 -41.5t64.5 -62.5t37.5 -74.5t14 -82.5t-0.5 -80.5t-10 -74.5l-106 -606h-92zM588 518q-170 0 -260 -65t-109 -164q-13 -70 17.5 -123t90.5 -79t138 -26q117 0 244.5 61.5t214.5 164.5l32 170q-86 29 -191.5 45t-176.5 16z" />
    <glyph glyph-name="amacron.alt" horiz-adv-x="1130" 
d="M532 1374h498l-14 -78h-498zM877 0l30 188q-85 -98 -211.5 -154.5t-251.5 -56.5q-156 0 -250.5 83t-70.5 225q23 133 142 223t310 90q209 0 390 -66l14 80q15 72 6 134.5t-38 108t-91.5 71.5t-153.5 26q-204 0 -362 -108q-7 17 -25 74q79 57 188 88.5t226 31.5
q79 0 140.5 -16t100 -41.5t64.5 -62.5t37.5 -74.5t14 -82.5t-0.5 -80.5t-10 -74.5l-106 -606h-92zM588 518q-170 0 -260 -65t-109 -164q-13 -70 17.5 -123t90.5 -79t138 -26q117 0 244.5 61.5t214.5 164.5l32 170q-86 29 -191.5 45t-176.5 16z" />
    <glyph glyph-name="aogonek.alt" horiz-adv-x="1128" 
d="M971 23l-37 -23q-150 -89 -170 -207q-14 -80 32.5 -127t118.5 -47q74 0 140.5 49.5t97.5 124.5l53 -31q-38 -95 -121.5 -157t-185.5 -62q-103 0 -168 62.5t-45 175.5q9 57 55.5 122.5t137.5 116.5l28 168q-85 -98 -211.5 -154.5t-251.5 -56.5q-156 0 -250.5 83t-70.5 225
q23 133 142 223t310 90q209 0 390 -66l14 80q15 72 6 134.5t-38 108t-91.5 71.5t-153.5 26q-204 0 -362 -108q-7 17 -25 74q79 57 188 88.5t226 31.5q79 0 140.5 -16t100 -41.5t64.5 -62.5t37.5 -74.5t14 -82.5t-0.5 -80.5t-10 -74.5zM588 518q-170 0 -260 -65t-109 -164
q-13 -70 17.5 -123t90.5 -79t138 -26q117 0 244.5 61.5t214.5 164.5l32 170q-86 29 -191.5 45t-176.5 16z" />
    <glyph glyph-name="aring.alt" horiz-adv-x="1130" 
d="M606 1362q12 76 78 132t143 56q78 0 123.5 -55t32.5 -133q-12 -78 -78.5 -133t-144.5 -55t-123 55t-31 133zM666 1362q-11 -56 19 -92.5t85 -36.5q54 0 98 37t54 92q10 54 -20.5 90.5t-84.5 36.5q-55 0 -97.5 -36.5t-53.5 -90.5zM877 0l30 188q-85 -98 -211.5 -154.5
t-251.5 -56.5q-156 0 -250.5 83t-70.5 225q23 133 142 223t310 90q209 0 390 -66l14 80q15 72 6 134.5t-38 108t-91.5 71.5t-153.5 26q-204 0 -362 -108q-7 17 -25 74q79 57 188 88.5t226 31.5q79 0 140.5 -16t100 -41.5t64.5 -62.5t37.5 -74.5t14 -82.5t-0.5 -80.5
t-10 -74.5l-106 -606h-92zM588 518q-170 0 -260 -65t-109 -164q-13 -70 17.5 -123t90.5 -79t138 -26q117 0 244.5 61.5t214.5 164.5l32 170q-86 29 -191.5 45t-176.5 16z" />
    <glyph glyph-name="aringacute.alt" horiz-adv-x="1128" 
d="M575 1341q12 70 65.5 116t127.5 54l111 150h104l-139 -154q59 -14 88.5 -58t19.5 -108q-13 -76 -75 -123t-142 -47t-126.5 47t-33.5 123zM635 1341q-10 -53 20 -85.5t86 -32.5q55 0 97.5 32.5t52.5 85.5t-21 86t-86 33q-56 0 -97.5 -32.5t-51.5 -86.5zM877 0l30 188
q-85 -98 -211.5 -154.5t-251.5 -56.5q-156 0 -250.5 83t-70.5 225q23 133 142 223t310 90q209 0 390 -66l14 80q15 72 6 134.5t-38 108t-91.5 71.5t-153.5 26q-204 0 -362 -108q-7 17 -25 74q79 57 188 88.5t226 31.5q79 0 140.5 -16t100 -41.5t64.5 -62.5t37.5 -74.5
t14 -82.5t-0.5 -80.5t-10 -74.5l-106 -606h-92zM588 518q-170 0 -260 -65t-109 -164q-13 -70 17.5 -123t90.5 -79t138 -26q117 0 244.5 61.5t214.5 164.5l32 170q-86 29 -191.5 45t-176.5 16z" />
    <glyph glyph-name="at.case" horiz-adv-x="2172" 
d="M1479 489q-71 -109 -177.5 -167t-232.5 -58q-132 0 -221.5 62t-123 163.5t-11.5 225.5q33 191 175.5 320.5t340.5 129.5q124 0 207 -57.5t118 -167.5l39 199h84l-127 -717q-16 -88 21.5 -131t111.5 -43q153 0 266 136.5t162 410.5q33 182 -3.5 338t-131 267t-248.5 174.5
t-348 63.5q-192 0 -373 -71t-321.5 -193.5t-239.5 -293.5t-133 -365q-25 -129 -16 -247.5t42 -220.5t96.5 -185t147 -142t194 -91t237.5 -32q107 0 222.5 19t205.5 53l24 -68q-202 -80 -462 -80q-140 0 -261.5 34t-214 97t-162.5 152.5t-106.5 200t-46.5 239.5t18 271
q50 282 217.5 510.5t416 358.5t528.5 130q213 0 380 -68t270.5 -188.5t143.5 -291t6 -371.5q-28 -162 -79.5 -282t-120.5 -192t-149 -106.5t-173 -34.5q-63 0 -105.5 16.5t-64 41.5t-29 68t-5 83.5t11.5 99.5zM1513 715q29 162 -52 266t-240 104q-162 0 -276 -106t-144 -264
q-29 -156 49.5 -263.5t239.5 -107.5q157 0 275.5 104.5t147.5 266.5z" />
    <glyph glyph-name="atilde.alt" horiz-adv-x="1130" 
d="M885 1260q-49 0 -128.5 45t-123.5 45q-34 0 -55 -19.5t-60 -79.5l-47 11q46 94 83 127.5t89 33.5q49 0 131 -44t121 -44q35 0 56 18.5t59 76.5l47 -11q-43 -93 -80.5 -126t-91.5 -33zM877 0l30 188q-85 -98 -211.5 -154.5t-251.5 -56.5q-156 0 -250.5 83t-70.5 225
q23 133 142 223t310 90q209 0 390 -66l14 80q15 72 6 134.5t-38 108t-91.5 71.5t-153.5 26q-204 0 -362 -108q-7 17 -25 74q79 57 188 88.5t226 31.5q79 0 140.5 -16t100 -41.5t64.5 -62.5t37.5 -74.5t14 -82.5t-0.5 -80.5t-10 -74.5l-106 -606h-92zM588 518
q-170 0 -260 -65t-109 -164q-13 -70 17.5 -123t90.5 -79t138 -26q117 0 244.5 61.5t214.5 164.5l32 170q-86 29 -191.5 45t-176.5 16z" />
    <glyph glyph-name="bitcoin" horiz-adv-x="1239" 
d="M883 1581l-39 -219h33q123 0 213.5 -35t137 -109.5t27.5 -179.5q-21 -118 -111 -204t-249 -121q179 -24 259 -117t56 -227q-29 -150 -166.5 -237t-332.5 -87h-103l-30 -186h-72l31 186h-142l-30 -186h-72l31 186h-164l235 1317h164l39 219h72l-39 -219h141l39 219h72z
M719 670h-352l-99 -541h457q153 0 261 65t128 179q21 128 -80.5 212.5t-314.5 84.5zM379 745h305q212 0 331.5 82t141.5 207q23 121 -64 182.5t-233 61.5h-387z" />
    <glyph glyph-name="braceleft.case" horiz-adv-x="587" 
d="M395 715q51 -28 69.5 -61t8.5 -95q-5 -26 -18 -60t-24.5 -58t-38 -77l-40.5 -81q-89 -174 -112 -277q-16 -87 20 -129.5t109 -42.5q45 0 86 8l-13 -71q-50 -13 -92 -13q-104 0 -165 59t-42 175q17 100 138 334q95 180 108 247q0 16 2.5 27.5t-2.5 21t-8 15t-12.5 10.5
t-16.5 7.5t-21 5.5t-25 4.5t-28.5 5t-31.5 6.5l12 78q21 4 49.5 9t42.5 7.5t32 8.5t27 15t17 24t12 38q14 70 -20 248q-38 222 -19 334q19 115 102 174t187 59q48 0 88 -12l-12 -72q-36 8 -82 8q-73 0 -123 -42.5t-67 -129.5q-13 -82 14 -276q3 -18 10.5 -66t9.5 -65t5 -49
t2 -54t-5 -43q-10 -61 -40.5 -93.5t-92.5 -61.5z" />
    <glyph glyph-name="braceright.case" horiz-adv-x="587" 
d="M440 717q-49 29 -67 61t-8 94q7 35 25.5 81.5t36.5 82t58 113.5q97 190 111 276q16 87 -20 129.5t-109 42.5q-43 0 -84 -8l12 72q47 12 92 12q104 0 165 -58.5t42 -174.5q-17 -103 -137 -334q-92 -174 -106 -248q-3 -15 -3 -27t3 -20.5t7 -14.5t12 -10.5t16 -7.5t21 -6
t25 -4.5t29.5 -5l32.5 -6.5l-14 -78q-20 -4 -49.5 -9t-43 -7.5t-32 -9t-27.5 -15t-17 -24t-12 -38.5q-13 -68 18 -234q2 -9 3 -13q37 -219 18 -334t-102 -174.5t-186 -59.5q-41 0 -91 13l13 71q41 -8 82 -8q73 0 123 42.5t67 129.5q18 89 -12 277q-3 23 -10 66.5t-10 63.5
t-6 50t-2 52.5t5 43.5q11 62 41 94.5t90 61.5z" />
    <glyph glyph-name="bracketleft.case" horiz-adv-x="593" 
d="M125 -231l340 1898h352l-16 -78h-262l-308 -1743h263l-17 -77h-352z" />
    <glyph glyph-name="bracketright.case" horiz-adv-x="593" 
d="M719 1667l-340 -1898h-352l16 77h262l307 1743h-262l17 78h352z" />
    <glyph glyph-name="breve.case" horiz-adv-x="919" 
d="M981 1839l63 -6q-36 -120 -118.5 -191t-190.5 -71q-106 0 -164.5 72t-46.5 190l64 6q-2 -87 39 -143t123 -56t142.5 56t88.5 143z" />
    <glyph glyph-name="bullet.case" horiz-adv-x="792" 
d="M309 719q17 87 90 148t160 61t139 -61.5t35 -147.5q-17 -87 -90 -149t-160 -62q-88 0 -139.5 61t-34.5 150z" />
    <glyph glyph-name="caron.case" horiz-adv-x="929" 
d="M793 1567h-107l-160 284h74l150 -225l233 225h76z" />
    <glyph glyph-name="cedilla.case" horiz-adv-x="921" 
d="M512 4l4 16h64q73 -51 94.5 -115.5t11.5 -123.5q-20 -112 -109 -175t-190 -63t-160.5 61.5t-64.5 157.5l61 31q5 -75 53.5 -124.5t122.5 -49.5q72 0 135.5 47t77.5 127q9 53 -12.5 109.5t-87.5 101.5z" />
    <glyph glyph-name="cent.case" horiz-adv-x="1146" 
d="M236 727q21 112 76.5 209t140.5 170t203.5 114.5t256.5 41.5l72 192h74l-74 -199q154 -27 254 -108l-59 -68q-96 79 -226 95l-321 -881q41 -8 102 -8q167 0 320 98l35 -68q-178 -114 -373 -114q-52 0 -117 10l-76 -209h-75l83 223q-172 49 -249 184.5t-47 317.5zM332 731
q-24 -151 37 -263t196 -159l318 869q-216 -4 -364.5 -130t-186.5 -317z" />
    <glyph glyph-name="cent.dnom" horiz-adv-x="616" 
d="M283 -12h-56l39 112q-79 30 -118.5 99t-22.5 155q21 110 110 188.5t216 82.5l36 100h58l-37 -100q71 -12 141 -64l-41 -55q-48 40 -119 53l-151 -405q110 -18 211 45l29 -49q-130 -83 -261 -62zM201 354q-11 -62 13 -111.5t77 -72.5l139 389q-90 -7 -150.5 -64
t-78.5 -141z" />
    <glyph glyph-name="cent.numr" horiz-adv-x="616" 
d="M410 700h-56l39 113q-79 30 -118.5 99t-22.5 155q21 110 110 188t216 82l36 101h58l-37 -101q73 -12 141 -63l-41 -55q-49 41 -121 53q-22 -62 -46.5 -129t-55 -148.5t-47.5 -128.5q110 -18 211 45l29 -49q-129 -82 -261 -61zM328 1067q-11 -62 13 -111.5t77 -72.5
l137 389q-89 -7 -151 -64.5t-76 -140.5z" />
    <glyph glyph-name="circumflex.case" horiz-adv-x="929" 
d="M741 1851h107l160 -284h-76l-154 223l-229 -223h-74z" />
    <glyph glyph-name="comma.dnom" horiz-adv-x="325" 
d="M106 -131l-18 31q36 28 58 60t27 47t5 22l2 14q-16 -4 -22 -4q-23 0 -34 13t-7 36q11 55 63 55q41 0 47 -37q8 -30 4 -63q-18 -105 -125 -174z" />
    <glyph glyph-name="comma.numr" horiz-adv-x="325" 
d="M233 582l-18 30q36 28 58 60t27 47t5 22l2 15q-16 -4 -22 -4q-23 0 -34 13t-7 36q11 55 63 55q37 0 48 -31.5t3 -68.5q-23 -108 -125 -174z" />
    <glyph glyph-name="commaaccent.case" horiz-adv-x="538" 
d="M242 -274v18q-15 -6 -35 -6q-30 0 -48 15.5t-12 49.5q5 30 28.5 50t57.5 20q48 0 66 -34t10 -81q-27 -141 -172 -229l-22 37q49 34 88 79.5t39 80.5z" />
    <glyph glyph-name="dieresis.case" horiz-adv-x="1060" 
d="M541 1690q6 31 31 53t55 22q32 0 50 -22t13 -53q-6 -31 -32 -53.5t-58 -22.5q-31 0 -48 22.5t-11 53.5zM969 1690q6 31 31 53t55 22q32 0 50 -22t13 -53q-6 -31 -32 -53.5t-58 -22.5q-31 0 -48 22.5t-11 53.5z" />
    <glyph glyph-name="dollar.dnom" horiz-adv-x="602" 
d="M313 -84h-51l14 92q-82 4 -133.5 49.5t-62.5 110.5l78 20q7 -42 41.5 -74t91.5 -38l47 260l-41 16q-81 34 -107.5 75t-15.5 95q13 77 79 128t148 57l19 90h51l-18 -90q71 -6 114 -48t51 -106q-51 -17 -71 -25q-9 99 -105 111l-43 -240l41 -16q64 -26 103.5 -74.5
t29.5 -111.5q-12 -75 -79.5 -129t-165.5 -60zM496 195q7 41 -17 71t-63 43l-29 10l-45 -243q64 6 106 40t48 79zM252 524q-5 -31 11 -54t61 -42l28 -12l39 225q-52 -6 -90.5 -37.5t-48.5 -79.5z" />
    <glyph glyph-name="dollar.numr" horiz-adv-x="602" 
d="M438 629h-51l14 92q-82 4 -133.5 49.5t-62.5 110.5l78 20q7 -42 42 -74.5t91 -38.5l47 261l-41 16q-81 34 -107.5 75t-15.5 95q13 77 78.5 127.5t148.5 56.5l19 90h51l-18 -90q70 -6 113.5 -48t51.5 -105q-51 -17 -71 -25q-9 99 -105 111l-43 -240l41 -16
q64 -26 103.5 -75t29.5 -112q-12 -75 -79.5 -128.5t-165.5 -59.5zM621 907q7 41 -16.5 70.5t-63.5 44.5l-29 10l-45 -244q64 6 106 40t48 79zM377 1237q-6 -30 10 -53t62 -43l28 -13l39 226q-53 -6 -92.5 -37.5t-46.5 -79.5z" />
    <glyph glyph-name="dotaccent.case" horiz-adv-x="555" 
d="M506 1702q8 37 30 58.5t54 21.5q33 0 50 -22t11 -58q-8 -36 -32 -58t-56 -22t-47.5 22t-9.5 58z" />
    <glyph glyph-name="eight.dnom" horiz-adv-x="716" 
d="M365 51q92 0 159 44t78 108q11 65 -37.5 106t-148.5 41q-98 0 -160.5 -40.5t-73.5 -104.5q-11 -67 39.5 -110.5t143.5 -43.5zM475 668q-81 0 -137 -35t-66 -94q-11 -57 28.5 -93t123.5 -36q88 0 143 37t66 94q11 56 -31.5 91.5t-126.5 35.5zM354 -14q-127 0 -197 62
t-53 159q11 59 54 106.5t114 69.5q-47 26 -66.5 68t-8.5 90q17 85 96.5 138.5t191.5 53.5q115 0 178 -55t46 -137q-11 -47 -48 -90.5t-92 -67.5q65 -25 94.5 -71t18.5 -107q-17 -93 -109.5 -156t-218.5 -63z" />
    <glyph glyph-name="eight.numr" horiz-adv-x="716" 
d="M492 764q93 0 159.5 43.5t77.5 107.5q11 65 -38.5 106.5t-149.5 41.5q-98 0 -159.5 -40t-72.5 -105q-11 -67 39.5 -110.5t143.5 -43.5zM602 1380q-81 0 -137 -35t-66 -94q-11 -57 28.5 -93t123.5 -36q88 0 143 37t66 94q11 56 -31.5 91.5t-126.5 35.5zM481 698
q-127 0 -197 62.5t-53 159.5q11 59 54 106.5t114 69.5q-47 26 -66.5 67.5t-8.5 89.5q17 85 96.5 139t191.5 54q115 0 178 -55.5t46 -137.5q-11 -47 -48 -90t-92 -67q65 -25 94.5 -71t18.5 -107q-17 -94 -109.5 -157t-218.5 -63z" />
    <glyph glyph-name="eight.oldstyle" horiz-adv-x="1347" 
d="M684 61q201 0 345 88t169 222q21 123 -85 202.5t-327 79.5h-6q-215 0 -348 -80.5t-156 -203.5q-25 -135 90 -221.5t318 -86.5zM668 -23q-245 0 -382.5 110.5t-107.5 277.5q21 114 119.5 203t257.5 130q-113 40 -165 119.5t-34 175.5q25 148 181 245t372 97
q219 0 338 -96.5t94 -245.5q-18 -96 -99.5 -175t-209.5 -120q147 -38 215 -125t47 -204q-29 -168 -206 -280t-420 -112zM895 1251q-179 0 -301.5 -71.5t-142.5 -186.5q-21 -114 69 -190t277 -76q189 0 307 75t139 191q20 116 -74.5 187t-273.5 71z" />
    <glyph glyph-name="eight.taboldstyle" 
d="M707 61q201 0 345 88t169 222q21 123 -85 202.5t-327 79.5h-6q-215 0 -348 -80.5t-156 -203.5q-25 -135 90 -221.5t318 -86.5zM690 -23q-245 0 -382 110.5t-107 277.5q21 114 119.5 203t257.5 130q-113 40 -165 119.5t-34 175.5q25 148 181 245t372 97q219 0 338 -96.5
t94 -245.5q-18 -96 -99.5 -175t-209.5 -120q147 -38 215 -125t47 -204q-29 -168 -206.5 -280t-420.5 -112zM918 1251q-179 0 -302 -71.5t-143 -186.5q-21 -114 69 -190t277 -76q189 0 307.5 75.5t139.5 190.5q20 116 -74.5 187t-273.5 71z" />
    <glyph glyph-name="eight.tnum" 
d="M705 63q203 0 351 97.5t173 245.5q26 135 -83 222t-327 87q-223 0 -356.5 -88t-159.5 -226q-25 -146 87.5 -242t314.5 -96zM690 -23q-161 0 -279.5 56t-171.5 152.5t-32 215.5q24 127 122.5 223t258.5 138q-113 42 -163.5 127.5t-31.5 191.5q30 161 186.5 268t372.5 107
q218 0 336 -106t90 -267q-19 -106 -101 -192.5t-210 -128.5q146 -41 213.5 -135.5t44.5 -220.5q-32 -185 -211 -307t-424 -122zM938 1370q-176 0 -300 -81.5t-149 -207.5q-9 -51 4.5 -101t47.5 -92.5t97.5 -68.5t147.5 -26h97q82 0 154.5 26t122 68.5t81.5 93t41 102.5
q21 125 -73 206t-271 81z" />
    <glyph glyph-name="emdash.case" horiz-adv-x="1656" 
d="M276 674l15 86h1339l-14 -86h-1340z" />
    <glyph glyph-name="endash.case" horiz-adv-x="1148" 
d="M276 674l15 86h831l-14 -86h-832z" />
    <glyph glyph-name="exclamdown.case" horiz-adv-x="477" 
d="M291 0h-107l29 176l172 844h61l-127 -842zM399 1374q6 35 34 58.5t63 23.5t54 -23.5t13 -58.5t-34.5 -58.5t-63.5 -23.5t-53.5 23.5t-12.5 58.5z" />
    <glyph glyph-name="five.dnom" horiz-adv-x="645" 
d="M319 49q99 0 158 50.5t72 127.5q13 75 -25 128t-133 53q-86 0 -192 -52l-47 23l81 338h420l-10 -64h-352l-55 -223q87 41 170 41q123 0 180 -72t39 -172q-18 -107 -102 -176t-216 -69q-62 0 -125 21t-104 56l55 54q35 -29 86.5 -46.5t99.5 -17.5z" />
    <glyph glyph-name="five.numr" horiz-adv-x="645" 
d="M446 762q99 0 158 50.5t72 127.5q13 75 -25 127.5t-133 52.5q-88 0 -192 -51l-47 23l81 342h420l-8 -64h-352l-58 -227q87 41 170 41q123 0 180.5 -72t39.5 -172q-18 -107 -102 -176.5t-216 -69.5q-62 0 -125 21.5t-104 56.5l53 53q34 -29 87 -46t101 -17z" />
    <glyph glyph-name="five.oldstyle" horiz-adv-x="1177" 
d="M524 -236q205 0 337.5 102.5t158.5 252.5q13 69 -1.5 131t-55 112t-116.5 79.5t-179 29.5q-98 0 -207 -26t-182 -76l-68 39l154 608h798l-16 -84h-715l-121 -471q200 94 383 94q157 0 262 -61.5t143.5 -159.5t16.5 -217q-15 -88 -62.5 -166t-122 -138.5t-182.5 -96
t-235 -35.5q-139 0 -254 36.5t-186 94.5l69 65q64 -53 169 -83t212 -30z" />
    <glyph glyph-name="five.taboldstyle" 
d="M633 -236q205 0 337 102t158 253q13 69 -1.5 131t-55 112t-116.5 79.5t-179 29.5q-98 0 -207 -26t-182 -76l-68 39l154 608h799l-17 -84h-714l-121 -471q200 94 383 94q157 0 262 -61.5t143.5 -159.5t16.5 -217q-15 -88 -62.5 -166t-122 -138.5t-182.5 -96t-235 -35.5
q-139 0 -255 36.5t-186 94.5l70 65q64 -53 169 -83t212 -30z" />
    <glyph glyph-name="five.tnum" 
d="M231 111l68 65q53 -49 164 -81t219 -32t198.5 32t153 87t102 124.5t54.5 148.5q13 75 -0.5 142.5t-53 122.5t-116 87.5t-180.5 32.5q-96 0 -210.5 -31t-183.5 -76l-69 35l164 666h807l-15 -84h-721l-131 -523q190 99 383 99q122 0 213.5 -39.5t141 -106t66.5 -150
t1 -175.5q-19 -100 -68.5 -185.5t-126 -151.5t-186 -103.5t-237.5 -37.5q-133 0 -253 38.5t-184 95.5z" />
    <glyph glyph-name="florin.dnom" horiz-adv-x="544" 
d="M367 344l-68 -381q-39 -203 -215 -203q-45 0 -76 19l39 57q24 -12 45 -12q44 0 80.5 31.5t48.5 105.5l68 383h-86l10 53h86l23 129q39 203 217 203q45 0 71 -20l-35 -52q-22 11 -43 11q-45 0 -82 -32.5t-49 -105.5l-24 -133h151l-10 -53h-151z" />
    <glyph glyph-name="florin.numr" horiz-adv-x="544" 
d="M492 1057l-66 -381q-39 -203 -217 -203q-43 0 -74 19l39 57q24 -12 45 -12q44 0 79.5 31.5t47.5 105.5l68 383h-86l12 53h86l23 129q10 61 33 103t55.5 62.5t63 29t65.5 8.5q44 0 71 -21l-35 -51q-20 10 -43 10q-45 0 -82 -32t-49 -105l-24 -133h151l-12 -53h-151z" />
    <glyph glyph-name="florininferior" horiz-adv-x="544" 
d="M317 72l-69 -381q-10 -61 -33 -103t-55 -62.5t-62.5 -29t-64.5 -8.5q-36 0 -70 18l39 58q23 -13 41 -13q44 0 80.5 32t48.5 106l68 383h-86l8 53h86l22 129q39 203 222 203q44 0 71 -21l-39 -51q-20 10 -41 10q-45 0 -83 -32t-50 -105l-24 -133h151l-8 -53h-152z" />
    <glyph glyph-name="florinsuperior" horiz-adv-x="544" 
d="M526 1251l-67 -381q-8 -49 -25.5 -86t-38.5 -58.5t-48.5 -35t-51.5 -18t-51 -4.5q-44 0 -74 18l39 57q21 -12 43 -12q100 0 129 137l68 383h-87l11 54h86l22 129q39 202 219 202q46 0 72 -20l-37 -51q-20 10 -43 10q-45 0 -82 -32t-49 -105l-24 -133h151l-10 -54h-152z
" />
    <glyph glyph-name="four.dnom" horiz-adv-x="710" 
d="M172 260h305l62 332zM469 195h-401l6 45l514 477h49l-84 -457h160l-8 -65h-160l-33 -195h-76z" />
    <glyph glyph-name="four.numr" horiz-adv-x="710" 
d="M299 973h305l62 336zM596 907h-401l6 45l514 482h49l-84 -461h160l-9 -66h-159l-35 -190h-76z" />
    <glyph glyph-name="four.oldstyle" horiz-adv-x="1355" 
d="M211 170h680l123 688zM877 84h-807l10 66l999 866h58l-152 -846h324l-15 -86h-323l-72 -397h-94z" />
    <glyph glyph-name="four.taboldstyle" 
d="M229 170h680l123 688zM895 84h-807l10 66l1000 866h57l-151 -846h323l-14 -86h-324l-71 -397h-95z" />
    <glyph glyph-name="four.tnum" 
d="M276 500h699l139 768zM963 416h-832l8 61l1039 957h57l-166 -934h336l-12 -84h-336l-72 -416h-94z" />
    <glyph glyph-name="g.alt" horiz-adv-x="1153" 
d="M1038 659q24 126 -67 209.5t-236 83.5q-97 0 -183.5 -37t-146 -104.5t-75.5 -151.5q-24 -126 65.5 -209t237.5 -83t264.5 82.5t140.5 209.5zM498 -397q201 0 326.5 56t144.5 153q4 16 1.5 34t-7 36.5t-21 35.5t-39 30t-60.5 21t-87 8l-346 9q-102 0 -154 34
q-64 -37 -106 -87t-52 -103q-10 -50 10 -89.5t59 -65t95 -42t114.5 -23.5t121.5 -7zM1102 852q53 -88 33 -195q-19 -109 -98 -196t-190 -132.5t-231 -45.5q-127 0 -219 51q-116 -53 -129 -133q-7 -34 1.5 -58t22.5 -37t43 -21t47 -10.5t52 -4.5l367 -9q61 0 108.5 -12
t75.5 -32t48.5 -46t26.5 -53t8.5 -54t-3.5 -50q-24 -132 -175.5 -213.5t-400.5 -81.5q-79 0 -150 9t-138.5 31t-114.5 55t-70 86t-12 120q11 73 63.5 135.5t127.5 107.5q-30 59 -19 130q16 101 156 184q-130 116 -99 282q21 111 101 198.5t190 133t226 45.5q198 0 313 -121
q42 5 82 39.5t51 94.5q3 23 -2 36h90q1 -6 3 -21t1.5 -18.5l-2.5 -17.5q-11 -68 -64.5 -114.5t-119.5 -61.5z" />
    <glyph glyph-name="gbreve.alt" horiz-adv-x="1153" 
d="M1038 659q24 126 -67 209.5t-236 83.5q-97 0 -183.5 -37t-146 -104.5t-75.5 -151.5q-24 -126 65.5 -209t237.5 -83t264.5 82.5t140.5 209.5zM498 -397q201 0 326.5 56t144.5 153q4 16 1.5 34t-7 36.5t-21 35.5t-39 30t-60.5 21t-87 8l-346 9q-102 0 -154 34
q-64 -37 -106 -87t-52 -103q-10 -50 10 -89.5t59 -65t95 -42t114.5 -23.5t121.5 -7zM1102 852q53 -88 33 -195q-19 -109 -98 -196t-190 -132.5t-231 -45.5q-127 0 -219 51q-116 -53 -129 -133q-7 -34 1.5 -58t22.5 -37t43 -21t47 -10.5t52 -4.5l367 -9q61 0 108.5 -12
t75.5 -32t48.5 -46t26.5 -53t8.5 -54t-3.5 -50q-24 -132 -175.5 -213.5t-400.5 -81.5q-79 0 -150 9t-138.5 31t-114.5 55t-70 86t-12 120q11 73 63.5 135.5t127.5 107.5q-30 59 -19 130q16 101 156 184q-130 116 -99 282q21 111 101 198.5t190 133t226 45.5q198 0 313 -121
q42 5 82 39.5t51 94.5q3 23 -2 36h90q1 -6 3 -21t1.5 -18.5l-2.5 -17.5q-11 -68 -64.5 -114.5t-119.5 -61.5zM1018 1464l65 -6q-35 -127 -119.5 -198.5t-195.5 -71.5q-110 0 -167.5 72t-45.5 198l66 6q-5 -89 38 -144.5t127 -55.5q83 0 144 55t88 145z" />
    <glyph glyph-name="gcircumflex.alt" horiz-adv-x="1153" 
d="M778 1481h109l172 -307h-74l-166 243l-254 -243h-73zM1038 659q24 126 -67 209.5t-236 83.5q-97 0 -183.5 -37t-146 -104.5t-75.5 -151.5q-24 -126 65.5 -209t237.5 -83t264.5 82.5t140.5 209.5zM498 -397q201 0 326.5 56t144.5 153q4 16 1.5 34t-7 36.5t-21 35.5t-39 30
t-60.5 21t-87 8l-346 9q-102 0 -154 34q-64 -37 -106 -87t-52 -103q-10 -50 10 -89.5t59 -65t95 -42t114.5 -23.5t121.5 -7zM1102 852q53 -88 33 -195q-19 -109 -98 -196t-190 -132.5t-231 -45.5q-127 0 -219 51q-116 -53 -129 -133q-7 -34 1.5 -58t22.5 -37t43 -21
t47 -10.5t52 -4.5l367 -9q61 0 108.5 -12t75.5 -32t48.5 -46t26.5 -53t8.5 -54t-3.5 -50q-24 -132 -175.5 -213.5t-400.5 -81.5q-79 0 -150 9t-138.5 31t-114.5 55t-70 86t-12 120q11 73 63.5 135.5t127.5 107.5q-30 59 -19 130q16 101 156 184q-130 116 -99 282
q21 111 101 198.5t190 133t226 45.5q198 0 313 -121q42 5 82 39.5t51 94.5q3 23 -2 36h90q1 -6 3 -21t1.5 -18.5l-2.5 -17.5q-11 -68 -64.5 -114.5t-119.5 -61.5z" />
    <glyph glyph-name="gcommaaccent.alt" horiz-adv-x="1153" 
d="M756 1303q18 6 35 6q30 0 49 -16t12 -50q-6 -30 -30.5 -49.5t-59.5 -19.5q-48 0 -65 33t-9 81q27 145 176 230l19 -37q-41 -29 -78 -72t-47 -84q-2 -6 -2 -22zM1038 659q24 126 -67 209.5t-236 83.5q-97 0 -183.5 -37t-146 -104.5t-75.5 -151.5q-24 -126 65.5 -209
t237.5 -83t264.5 82.5t140.5 209.5zM498 -397q201 0 326.5 56t144.5 153q4 16 1.5 34t-7 36.5t-21 35.5t-39 30t-60.5 21t-87 8l-346 9q-102 0 -154 34q-64 -37 -106 -87t-52 -103q-10 -50 10 -89.5t59 -65t95 -42t114.5 -23.5t121.5 -7zM1102 852q53 -88 33 -195
q-19 -109 -98 -196t-190 -132.5t-231 -45.5q-127 0 -219 51q-116 -53 -129 -133q-7 -34 1.5 -58t22.5 -37t43 -21t47 -10.5t52 -4.5l367 -9q61 0 108.5 -12t75.5 -32t48.5 -46t26.5 -53t8.5 -54t-3.5 -50q-24 -132 -175.5 -213.5t-400.5 -81.5q-79 0 -150 9t-138.5 31
t-114.5 55t-70 86t-12 120q11 73 63.5 135.5t127.5 107.5q-30 59 -19 130q16 101 156 184q-130 116 -99 282q21 111 101 198.5t190 133t226 45.5q198 0 313 -121q42 5 82 39.5t51 94.5q3 23 -2 36h90q1 -6 3 -21t1.5 -18.5l-2.5 -17.5q-11 -68 -64.5 -114.5t-119.5 -61.5z
" />
    <glyph glyph-name="gdotaccent.alt" horiz-adv-x="1153" 
d="M733 1309q6 36 31.5 60t58.5 24q32 0 48 -23.5t8 -60.5q-4 -36 -28.5 -58t-57.5 -22t-49.5 22t-10.5 58zM1038 659q24 126 -67 209.5t-236 83.5q-97 0 -183.5 -37t-146 -104.5t-75.5 -151.5q-24 -126 65.5 -209t237.5 -83t264.5 82.5t140.5 209.5zM498 -397
q201 0 326.5 56t144.5 153q4 16 1.5 34t-7 36.5t-21 35.5t-39 30t-60.5 21t-87 8l-346 9q-102 0 -154 34q-64 -37 -106 -87t-52 -103q-10 -50 10 -89.5t59 -65t95 -42t114.5 -23.5t121.5 -7zM1102 852q53 -88 33 -195q-19 -109 -98 -196t-190 -132.5t-231 -45.5
q-127 0 -219 51q-116 -53 -129 -133q-7 -34 1.5 -58t22.5 -37t43 -21t47 -10.5t52 -4.5l367 -9q61 0 108.5 -12t75.5 -32t48.5 -46t26.5 -53t8.5 -54t-3.5 -50q-24 -132 -175.5 -213.5t-400.5 -81.5q-79 0 -150 9t-138.5 31t-114.5 55t-70 86t-12 120q11 73 63.5 135.5
t127.5 107.5q-30 59 -19 130q16 101 156 184q-130 116 -99 282q21 111 101 198.5t190 133t226 45.5q198 0 313 -121q42 5 82 39.5t51 94.5q3 23 -2 36h90q1 -6 3 -21t1.5 -18.5l-2.5 -17.5q-11 -68 -64.5 -114.5t-119.5 -61.5z" />
    <glyph glyph-name="grave.case" horiz-adv-x="675" 
d="M526 1851h109l117 -284h-78z" />
    <glyph glyph-name="guillemotleft.case" horiz-adv-x="1087" 
d="M244 717l428 409l53 -47l-381 -362l250 -363l-68 -49zM653 717l428 409l54 -47l-381 -362l250 -363l-68 -49z" />
    <glyph glyph-name="guillemotright.case" horiz-adv-x="1087" 
d="M811 1126l283 -409l-428 -412l-54 49l381 363l-250 362zM401 1126l283 -409l-428 -412l-53 49l381 363l-250 362z" />
    <glyph glyph-name="guilsinglleft.case" horiz-adv-x="677" 
d="M244 717l428 409l53 -47l-381 -362l250 -363l-68 -49z" />
    <glyph glyph-name="guilsinglright.case" horiz-adv-x="677" 
d="M401 1126l283 -409l-428 -412l-53 49l381 363l-250 362z" />
    <glyph glyph-name="hungarumlaut.case" horiz-adv-x="964" 
d="M700 1851h101l-246 -284h-80zM993 1851h101l-246 -284h-82z" />
    <glyph glyph-name="hyphen.case" horiz-adv-x="935" 
d="M276 674l15 86h616l-14 -86h-617z" />
    <glyph glyph-name="hyphen.dnom" horiz-adv-x="561" 
d="M156 322l10 67h360l-10 -67h-360z" />
    <glyph glyph-name="hyphen.numr" horiz-adv-x="561" 
d="M283 1034l10 68h360l-10 -68h-360z" />
    <glyph glyph-name="macron.case" horiz-adv-x="894" 
d="M502 1724h497l-14 -77h-498z" />
    <glyph glyph-name="nine.dnom" horiz-adv-x="675" 
d="M311 51q95 0 174.5 88.5t104.5 222.5q-41 -53 -108 -79.5t-134 -26.5q-98 0 -162 68.5t-45 173.5q20 104 106 169.5t199 65.5q135 0 194.5 -96t29.5 -256q-30 -171 -131.5 -284t-241.5 -113q-58 0 -104 20.5t-72 52.5l59 41q18 -20 54.5 -33.5t76.5 -13.5zM602 479
q12 77 -38 133t-132 56q-79 0 -139.5 -47.5t-73.5 -124.5q-13 -79 32 -125.5t120 -46.5q47 0 96 18t88 55t47 82z" />
    <glyph glyph-name="nine.numr" horiz-adv-x="675" 
d="M436 760q96 0 174.5 88t106.5 223q-41 -53 -108 -79.5t-134 -26.5q-99 0 -161.5 68t-45.5 173q20 104 105 170t198 66q135 0 195.5 -96t30.5 -256q-30 -170 -133 -284t-242 -114q-114 0 -174 74l57 41q18 -20 54.5 -33.5t76.5 -13.5zM729 1188q12 76 -39 132t-133 56
q-79 0 -139.5 -47.5t-73.5 -124.5q-13 -79 32.5 -125.5t121.5 -46.5q75 0 147.5 44t83.5 112z" />
    <glyph glyph-name="nine.oldstyle" horiz-adv-x="1245" 
d="M596 182q-95 0 -177.5 30.5t-140 85t-84 136.5t-10.5 178q22 125 104.5 222.5t207 150.5t268.5 53q260 0 377.5 -175t62.5 -468q-27 -150 -90 -280t-154.5 -226.5t-215 -152t-263.5 -55.5q-105 0 -190.5 28.5t-128.5 73.5l76 59q35 -35 105.5 -56.5t152.5 -21.5
q117 0 222.5 51t183 138t131 200.5t75.5 241.5q2 10 2.5 17.5t0.5 9.5v4t0.5 3.5t2.5 6.5q-79 -117 -225 -185.5t-293 -68.5zM614 266q58 0 124.5 14.5t133.5 45.5t121.5 73.5t88.5 104.5t34 133q0 60 -23 115.5t-66.5 101t-115 73t-161.5 27.5q-114 0 -214.5 -42.5
t-168.5 -121t-86 -178.5q-18 -104 26 -185t125.5 -121t181.5 -40z" />
    <glyph glyph-name="nine.taboldstyle" 
d="M670 182q-95 0 -177.5 30.5t-140 85t-84 136.5t-10.5 178q22 125 104.5 222.5t207 150.5t268.5 53q260 0 377.5 -175t62.5 -468q-27 -150 -90 -280t-154.5 -226.5t-215 -152t-263.5 -55.5q-105 0 -190.5 28.5t-128.5 73.5l75 59q35 -35 105.5 -56.5t152.5 -21.5
q117 0 222.5 51t183 138t131.5 200.5t76 241.5q2 10 2.5 17.5t0.5 9.5v4t0.5 3.5t2.5 6.5q-79 -117 -225 -185.5t-293 -68.5zM688 266q58 0 124.5 14.5t133.5 45.5t121.5 73.5t88.5 104.5t34 133q0 60 -23 115.5t-67 101t-115.5 73t-161.5 27.5q-114 0 -214.5 -42.5
t-168.5 -121t-86 -178.5q-13 -79 9 -145.5t70 -109.5t114.5 -67t140.5 -24z" />
    <glyph glyph-name="nine.tnum" 
d="M1247 793h-4q-82 -128 -225.5 -197.5t-282.5 -69.5q-96 0 -179 34t-140 94t-82.5 149.5t-7.5 193.5q24 134 109 239.5t209.5 162.5t266.5 57q172 0 283.5 -88t146.5 -243.5t0 -368.5q-29 -163 -94 -304.5t-158 -247.5t-216.5 -166.5t-262.5 -60.5q-106 0 -190.5 32
t-124.5 81q50 43 76 60q37 -38 104.5 -62.5t149.5 -24.5q111 0 211.5 45.5t173.5 119.5t127 166t81 187.5t27 180.5q0 3 1 15.5t1 15.5zM1260 1026q0 65 -24 125.5t-68.5 110t-115.5 79t-157 29.5q-171 0 -307.5 -105t-165.5 -270q-28 -167 72 -275t262 -108
q81 0 168.5 29.5t163 81t124 131.5t48.5 172z" />
    <glyph glyph-name="ogonek.case" horiz-adv-x="921" 
d="M420 20l-4 -16q-83 -45 -124 -101.5t-50 -109.5q-14 -80 32.5 -127t118.5 -47q74 0 140.5 49.5t97.5 124.5l53 -31q-38 -95 -121.5 -157t-185.5 -62q-103 0 -168 62.5t-45 175.5q9 57 55 122.5t137 116.5h64z" />
    <glyph glyph-name="one.dnom" horiz-adv-x="395" 
d="M143 547l-6 63l242 107h43l-125 -717h-78l109 625z" />
    <glyph glyph-name="one.numr" horiz-adv-x="395" 
d="M272 1264l-8 63l242 107h43l-129 -721h-78l115 628z" />
    <glyph glyph-name="one.oldstyle" horiz-adv-x="1017" 
d="M264 727l-6 84l479 205h51l-165 -934h358l-12 -82h-832l13 82h378l146 815z" />
    <glyph glyph-name="one.taboldstyle" 
d="M451 727l-7 84l480 205h51l-166 -934h358l-12 -82h-831l12 82h379l145 815z" />
    <glyph glyph-name="one.tnum" 
d="M1051 1434l-240 -1352h348l-12 -82h-819l12 82h375l219 1231l-397 -172l-7 86l469 207h52z" />
    <glyph glyph-name="parenleft.case" horiz-adv-x="608" 
d="M240 719q26 147 80 288t112.5 243t130.5 196t123.5 148t101.5 98l58 -41q-50 -48 -96 -98.5t-114.5 -143.5t-122.5 -189t-104 -230.5t-73 -272.5q-20 -116 -22 -227.5t12.5 -202.5t34.5 -169t49.5 -143.5t53.5 -109t50 -80.5l-70 -39q-27 35 -53.5 78.5t-60.5 111
t-57.5 150t-40.5 178.5t-15.5 214t23.5 241z" />
    <glyph glyph-name="parenleft.dnom" horiz-adv-x="399" 
d="M145 338q15 88 50.5 170.5t81 145.5t80.5 102.5t71 72.5l41 -30q-199 -211 -246 -461q-13 -66 -10.5 -130t10 -112t24 -93t30.5 -72.5t30 -51.5l-55 -29q-18 24 -34.5 53t-37.5 77t-31 99.5t-14.5 120t10.5 138.5z" />
    <glyph glyph-name="parenleft.numr" horiz-adv-x="397" 
d="M268 1051q46 265 285 491l41 -31q-199 -211 -246 -460q-13 -66 -10.5 -129.5t9.5 -111.5t23 -93t30 -73t30 -52l-53 -29q-18 24 -34.5 52.5t-37.5 77.5t-31.5 100t-15.5 120t10 138z" />
    <glyph glyph-name="parenright.case" horiz-adv-x="608" 
d="M618 719q-27 -147 -81 -287.5t-112.5 -243t-130 -196.5t-123 -148t-101.5 -98l-58 39q49 47 96.5 99t115.5 144t122 188.5t103.5 230t72.5 270.5q20 117 21.5 229t-13 203.5t-34.5 169t-50.5 144t-53 108t-48.5 80.5l72 41q28 -36 54 -79.5t59.5 -111t57 -149t40 -177.5
t15 -214.5t-23.5 -241.5z" />
    <glyph glyph-name="parenright.dnom" horiz-adv-x="399" 
d="M373 338q-15 -86 -50 -168t-79 -144.5t-81 -104t-71 -71.5l-45 29q207 207 250 459q46 243 -88 461l55 30q19 -25 35.5 -53t37.5 -76.5t31 -99.5t15 -121t-10 -141z" />
    <glyph glyph-name="parenright.numr" horiz-adv-x="399" 
d="M500 1051q-15 -86 -50 -168t-79 -144.5t-81 -104t-71 -71.5l-47 29q44 40 89.5 96.5t95.5 157.5t67 205q46 242 -88 460l55 31q15 -20 28.5 -42t31.5 -59t29 -75.5t21.5 -90.5t8.5 -105t-10 -119z" />
    <glyph glyph-name="period.dnom" horiz-adv-x="317" 
d="M154 -14q-54 0 -45 55q9 51 63 51q56 0 47 -51q-9 -55 -65 -55z" />
    <glyph glyph-name="period.numr" horiz-adv-x="317" 
d="M281 698q-54 0 -45 56q9 51 63 51q56 0 47 -51q-9 -56 -65 -56z" />
    <glyph glyph-name="periodcentered.case" horiz-adv-x="483" 
d="M285 717q6 35 32.5 58.5t61.5 23.5t55.5 -23.5t14.5 -58.5t-35.5 -58.5t-65.5 -23.5q-35 0 -52 23t-11 59z" />
    <glyph glyph-name="questiondown.case" horiz-adv-x="1046" 
d="M727 1042h90l-18 -92q-13 -62 -38.5 -94t-111.5 -80q-61 -33 -101 -56.5t-97.5 -65t-94 -79t-68 -90.5t-40.5 -108q-24 -130 65 -210.5t244 -80.5q165 0 259 68t114 161q1 6 1.5 16.5t1 26t1.5 27.5h88q4 -56 -2 -78q-8 -51 -40.5 -102.5t-89 -98.5t-148 -76.5
t-203.5 -29.5q-125 0 -221 46t-143 132.5t-28 198.5q9 50 32.5 98.5t49.5 85t69.5 76t73 63t82.5 56t75 45t71 39.5q16 9 29.5 18t24 17t19 19t14.5 18t11.5 20t8 19t6.5 21.5t5 21.5t4.5 24t4.5 24zM915 1397q-6 -35 -32.5 -58.5t-61.5 -23.5t-55 23.5t-14 58.5t35 58.5
t65 23.5q35 0 52 -23t11 -59z" />
    <glyph glyph-name="ring.case" horiz-adv-x="774" 
d="M504 1726q13 76 76 124t143 48t125.5 -48t32.5 -124t-76 -123t-143 -47t-125.5 47t-32.5 123zM563 1726q-10 -53 20.5 -85.5t86.5 -32.5q55 0 97 32.5t52 85.5t-20.5 86t-85.5 33q-56 0 -98 -32.5t-52 -86.5z" />
    <glyph glyph-name="seven.dnom" horiz-adv-x="573" 
d="M156 653l12 64h508l-8 -49l-488 -668h-84l479 653h-419z" />
    <glyph glyph-name="seven.numr" horiz-adv-x="571" 
d="M285 1370l10 64h508l-8 -50l-490 -667h-84l484 653h-420z" />
    <glyph glyph-name="seven.oldstyle" horiz-adv-x="1056" 
d="M213 932l16 84h990l-17 -74l-962 -1255h-109l967 1245h-885z" />
    <glyph glyph-name="seven.taboldstyle" 
d="M381 932l16 84h989l-16 -74l-962 -1255h-109l967 1245h-885z" />
    <glyph glyph-name="seven.tnum" 
d="M461 1350l14 84h987l-14 -76l-999 -1358h-109l1003 1350h-882z" />
    <glyph glyph-name="six.dnom" horiz-adv-x="675" 
d="M489 668q-95 0 -173 -89.5t-111 -224.5q47 56 113 81.5t131 25.5q101 0 164.5 -68t43.5 -174q-17 -103 -104.5 -169t-198.5 -66q-135 0 -194 96.5t-29 257.5q30 169 132.5 282t238.5 113q58 0 104.5 -19.5t67.5 -49.5l-51 -43q-18 19 -56 33t-78 14zM197 207
q0 -62 46 -109t126 -47q79 0 138.5 46.5t72.5 123.5q16 81 -28.5 127.5t-121.5 46.5q-84 0 -158.5 -53.5t-74.5 -134.5z" />
    <glyph glyph-name="six.numr" horiz-adv-x="675" 
d="M614 1376q-95 0 -173.5 -90t-108.5 -223q46 55 112 80.5t131 25.5q101 0 165 -67.5t44 -173.5q-17 -102 -105.5 -169t-199.5 -67q-135 0 -194 97t-29 258q34 170 134 282.5t237 112.5q58 0 104 -19.5t70 -50.5l-53 -43q-18 19 -56 33t-78 14zM324 915q2 -63 46 -109
t124 -46q79 0 139.5 46.5t73.5 123.5q16 81 -29.5 127.5t-122.5 46.5q-85 0 -158 -54t-73 -135z" />
    <glyph glyph-name="six.oldstyle" horiz-adv-x="1273" 
d="M836 834q75 0 143.5 -19t124 -57t93.5 -89t52 -120t0 -146q-22 -125 -105 -222.5t-207 -150.5t-267 -53q-259 0 -374 174.5t-65 469.5q27 151 89.5 280.5t153.5 226t214.5 152t263.5 55.5q106 0 192 -29t126 -73l-76 -59q-32 35 -102.5 56t-153.5 21q-117 0 -222.5 -51
t-183 -137.5t-131 -200t-75.5 -241.5q-4 -26 -4 -41q79 118 223 186t291 68zM819 750q-59 0 -126 -14.5t-135.5 -46t-123 -75t-87.5 -107t-30 -136.5q2 -57 26 -111t67.5 -99t114.5 -72.5t159 -27.5q174 0 307 95t162 247q14 79 -8 146t-70.5 110t-114.5 67t-141 24z" />
    <glyph glyph-name="six.taboldstyle" 
d="M895 834q94 0 177 -30.5t142 -85t86 -137t9 -178.5q-33 -188 -197.5 -307t-382.5 -119q-172 0 -283 80.5t-149.5 225t-5.5 338.5q27 151 89.5 280.5t153.5 226t214.5 152t263.5 55.5q105 0 191 -29t126 -73l-76 -59q-32 35 -102.5 56t-153.5 21q-117 0 -222.5 -51
t-183 -137.5t-131 -200t-75.5 -241.5q-4 -26 -4 -41q79 118 223 186t291 68zM879 750q-59 0 -126 -14.5t-135.5 -46t-123 -75t-87.5 -107t-30 -136.5q2 -57 26 -111t67 -99t114 -72.5t159 -27.5q174 0 307 95t162 247q19 105 -25 186t-125.5 121t-182.5 40z" />
    <glyph glyph-name="six.tnum" 
d="M397 641h4q55 86 144 148t182 90t182 28q97 0 179.5 -33.5t139.5 -93t82 -149.5t7 -195q-36 -203 -202 -331t-382 -128q-173 0 -284.5 88.5t-146 244t0.5 368.5q29 163 94 304.5t158 247t216.5 166t262.5 60.5q106 0 189.5 -31.5t126.5 -81.5q-32 -28 -76 -59
q-37 38 -103.5 62t-148.5 24q-110 0 -210.5 -45t-174 -118.5t-128.5 -165t-82.5 -187t-27.5 -182.5q0 -3 -1 -15.5t-1 -15.5zM385 410q0 -89 40.5 -166.5t125.5 -129t199 -51.5q171 0 307.5 105t165.5 270q16 83 -5 156t-69 122t-115.5 77t-144.5 28q-81 0 -168 -29
t-162.5 -80.5t-124.5 -131t-49 -170.5z" />
    <glyph glyph-name="sterling.dnom" horiz-adv-x="673" 
d="M489 666q-69 0 -118 -34.5t-60 -90.5q-9 -54 17 -148l12 -69h199l-11 -58h-182q0 -37 -4 -49q-17 -94 -94 -151h375l-9 -66h-559l8 66q46 0 86 12.5t74 47t43 87.5q3 8 3.5 16.5t-0.5 21t-1 19.5h-135l8 54h119q-2 22 -14 69q-25 97 -17 146q17 85 93 137.5t176 52.5
q96 0 144 -47.5t40 -106.5q-4 -25 -10 -38h-72l2 16q5 45 -21 79t-92 34z" />
    <glyph glyph-name="sterling.numr" horiz-adv-x="677" 
d="M618 1378q-69 0 -118 -34.5t-60 -90.5q-9 -53 17 -147l12 -70h199l-11 -57h-182q0 -37 -4 -49q-15 -86 -92 -148h375l-13 -65h-559l13 65q84 0 142 35.5t58 112.5q0 8 1 26t1 27h-135l8 53h119q-3 12 -7 35t-7 35q-25 96 -17 145q17 85 93 138t176 53q96 0 144 -47.5
t40 -106.5q-4 -27 -10 -39h-74l4 17q7 44 -20 78t-93 34z" />
    <glyph glyph-name="sterlinginferior" horiz-adv-x="673" 
d="M438 393q-69 0 -117 -34.5t-59 -90.5q-9 -53 17 -147l12 -70h198l-8 -57h-182q0 -31 -6 -49q-25 -99 -94 -150h374l-10 -65h-557l8 65q73 0 131.5 34.5t69.5 111.5q7 33 4 57h-135l8 53h119q-3 12 -7 35t-7 35q-23 91 -15 145q12 84 90.5 137.5t178.5 53.5
q97 0 143.5 -47.5t38.5 -106.5q-4 -27 -10 -39h-74l4 17q12 42 -18 77t-97 35z" />
    <glyph glyph-name="sterlingsuperior" horiz-adv-x="673" 
d="M649 1573q-69 0 -117 -34.5t-59 -90.5q-10 -61 14 -148l13 -69h198l-10 -57h-182q3 -28 -4 -50q-25 -97 -92 -147h374l-10 -66h-559l10 66q172 0 201 143q5 31 2 58h-135l8 53h119q-2 22 -14 69q-22 86 -13 146q13 85 89.5 137.5t176.5 52.5q97 0 144 -47t39 -106
q-3 -24 -11 -39h-73l4 16q12 43 -17 78t-96 35z" />
    <glyph glyph-name="three.dnom" horiz-adv-x="651" 
d="M66 63l57 54q29 -29 77 -46.5t99 -17.5q100 0 164 48.5t78 121.5q17 75 -30.5 118.5t-129.5 43.5q-69 0 -119 -29l-20 50l311 247h-360l10 64h477l-4 -39l-291 -236h14q113 0 174 -59.5t43 -161.5q-18 -103 -104.5 -169t-222.5 -66q-68 0 -127.5 20t-95.5 57z" />
    <glyph glyph-name="three.numr" horiz-adv-x="651" 
d="M193 776l55 53q31 -29 79 -46t99 -17q100 0 164.5 48.5t77.5 121.5q13 76 -32.5 121t-125.5 45q-68 0 -121 -29l-20 49l313 248h-360l8 64h477l-4 -39l-289 -236h14q112 0 172.5 -61t42.5 -164t-104.5 -169.5t-222.5 -66.5q-68 0 -127.5 20.5t-95.5 57.5z" />
    <glyph glyph-name="three.oldstyle" horiz-adv-x="1187" 
d="M492 -236q214 0 355 101t167 246q24 146 -71.5 233.5t-266.5 87.5q-158 0 -244 -47l-33 61l635 486h-745l16 84h916l-13 -53l-616 -463l2 -4q52 8 115 8q200 0 316 -107t85 -286q-30 -186 -200 -308t-435 -122q-143 0 -252.5 34.5t-169.5 91.5l70 68q120 -111 369 -111z
" />
    <glyph glyph-name="three.taboldstyle" 
d="M594 -236q214 0 355 101t167 246q24 146 -71.5 233.5t-266.5 87.5q-157 0 -243 -47l-33 61l635 486h-746l17 84h915l-12 -53l-617 -463l2 -4q52 8 115 8q200 0 316 -107t85 -286q-30 -186 -199.5 -308t-434.5 -122q-143 0 -252.5 34.5t-169.5 91.5l69 68
q120 -111 369 -111z" />
    <glyph glyph-name="three.tnum" 
d="M639 63q221 0 361 109t171 272q28 161 -69.5 256t-270.5 95q-157 0 -241 -54l-35 64l666 545h-758l14 84h916l-11 -58l-628 -510l2 -4q62 10 102 10q135 0 235.5 -49.5t149.5 -148t25 -230.5q-33 -202 -206.5 -334.5t-436.5 -132.5q-144 0 -253.5 36t-166.5 98l67 63
q123 -111 367 -111z" />
    <glyph glyph-name="tilde.case" horiz-adv-x="946" 
d="M895 1620q-47 0 -128 44t-126 44q-35 0 -57 -20t-56 -78l-47 12q43 92 81.5 127t90.5 35q47 0 128.5 -45t121.5 -45q35 0 56.5 18.5t58.5 75.5l47 -10q-43 -91 -80 -124.5t-90 -33.5z" />
    <glyph glyph-name="two.dnom" horiz-adv-x="655" 
d="M479 274l-274 -206q17 0 47 1t45 1h311l-12 -70h-522q-2 16 4 53l358 271q125 93 142 190q12 71 -27.5 108t-122.5 37q-80 0 -127 -35.5t-59 -84.5h-80q13 74 87.5 132t190.5 58q115 0 172.5 -59t40.5 -158q-20 -123 -174 -238z" />
    <glyph glyph-name="two.numr" horiz-adv-x="655" 
d="M606 987l-278 -207q17 0 48 1t46 1h311l-14 -69h-522q5 43 8 53l358 270q126 97 142 191q12 71 -28.5 108t-123.5 37q-79 0 -125.5 -35.5t-60.5 -85.5h-80q20 76 92 133.5t188 57.5q115 0 172.5 -59t40.5 -158q-20 -123 -174 -238z" />
    <glyph glyph-name="two.oldstyle" horiz-adv-x="1236" 
d="M526 82h619l-12 -82h-1012l6 70l666 358q162 87 238.5 156t92.5 157q20 102 -79 157.5t-273 55.5q-176 0 -278.5 -48.5t-131.5 -121.5h-96q16 47 51 89t95 80.5t157 61.5t219 23q214 0 336.5 -78t98.5 -215q-22 -117 -120 -207.5t-290 -189.5l-510 -270q49 4 223 4z" />
    <glyph glyph-name="two.taboldstyle" 
d="M604 82h619l-13 -82h-1011l6 70l665 358q162 87 239 156t93 157q20 102 -79 157.5t-273 55.5q-176 0 -278.5 -48.5t-131.5 -121.5h-96q16 47 51 89t95 80.5t157 61.5t219 23q214 0 336 -78t98 -215q-22 -117 -119.5 -208t-289.5 -189l-510 -270q49 4 223 4z" />
    <glyph glyph-name="two.tnum" 
d="M987 571l-649 -499q144 10 336 10h551l-13 -82h-1005v72l725 563q62 48 105 87.5t86.5 90t71 106.5t38.5 119q29 157 -60.5 244.5t-269.5 87.5q-74 0 -137 -14.5t-107.5 -38.5t-78.5 -57t-54 -67t-30 -71h-99q11 58 48.5 114.5t100 107t161 81.5t215.5 31
q221 0 334 -109.5t77 -304.5q-27 -143 -112 -249.5t-234 -221.5z" />
    <glyph glyph-name="uni02C9.case" horiz-adv-x="894" 
d="M502 1724h497l-14 -77h-498z" />
    <glyph glyph-name="y.alt" horiz-adv-x="1081" 
d="M561 94l539 922h108l-542 -907q-105 -173 -154 -241q-252 -349 -532 -349q-113 0 -199 61q21 31 47 78q84 -53 164 -53q248 0 500 383l-263 1028h107z" />
    <glyph glyph-name="yacute.alt" horiz-adv-x="1081" 
d="M561 94l539 922h108l-542 -907q-105 -173 -154 -241q-252 -349 -532 -349q-113 0 -199 61q21 31 47 78q84 -53 164 -53q248 0 500 383l-263 1028h107zM903 1481h111l-279 -307h-78z" />
    <glyph glyph-name="ycircumflex.alt" horiz-adv-x="1081" 
d="M561 94l539 922h108l-542 -907q-105 -173 -154 -241q-252 -349 -532 -349q-113 0 -199 61q21 31 47 78q84 -53 164 -53q248 0 500 383l-263 1028h107zM737 1481h109l172 -307h-74l-166 243l-254 -243h-73z" />
    <glyph glyph-name="ydieresis.alt" horiz-adv-x="1081" 
d="M561 94l539 922h108l-542 -907q-105 -173 -154 -241q-252 -349 -532 -349q-113 0 -199 61q21 31 47 78q84 -53 164 -53q248 0 500 383l-263 1028h107zM473 1319q6 32 31.5 55t56.5 23q32 0 49.5 -23t10.5 -55q-5 -31 -29.5 -52.5t-56.5 -21.5q-31 0 -49.5 21.5
t-12.5 52.5zM901 1319q6 32 31.5 55t56.5 23q32 0 49.5 -23t10.5 -55q-5 -31 -29.5 -52.5t-56.5 -21.5q-31 0 -49.5 21.5t-12.5 52.5z" />
    <glyph glyph-name="yen.dnom" horiz-adv-x="716" 
d="M319 0l21 131h-199l11 49h198l10 68h-198l12 51h195l-201 418h90l162 -355l289 355h90l-344 -418h194l-12 -51h-199l-10 -68h199l-11 -49h-198l-21 -131h-78z" />
    <glyph glyph-name="yen.numr" horiz-adv-x="716" 
d="M444 717l23 131h-199l13 49h198l8 64h-198l12 51h195l-201 422h90l162 -359l289 359h90l-344 -422h194l-12 -51h-199l-8 -64h199l-13 -49h-198l-23 -131h-78z" />
    <glyph glyph-name="yeninferior" horiz-adv-x="712" 
d="M266 -270l25 131h-199l8 49h199l12 63h-198l8 52h194l-196 424h90l162 -361l288 361h91l-349 -424h195l-8 -52h-199l-12 -63h198l-8 -49h-198l-25 -131h-78z" />
    <glyph glyph-name="yensuperior" horiz-adv-x="712" 
d="M477 911l25 131h-199l8 50h199l10 63h-198l10 51h194l-198 422h90l162 -358l288 358h90l-346 -422h195l-10 -51h-199l-10 -63h198l-8 -50h-198l-25 -131h-78z" />
    <glyph glyph-name="ygrave.alt" horiz-adv-x="1081" 
d="M561 94l539 922h108l-542 -907q-105 -173 -154 -241q-252 -349 -532 -349q-113 0 -199 61q21 31 47 78q84 -53 164 -53q248 0 500 383l-263 1028h107zM557 1481h111l131 -307h-80z" />
    <glyph glyph-name="zero.dnom" horiz-adv-x="761" 
d="M756 362q-30 -160 -134 -268t-245 -108q-137 0 -204.5 109t-37.5 267q30 157 134 264t241 107q141 0 208.5 -107.5t37.5 -263.5zM678 362q25 130 -23 217t-155 87q-104 0 -181.5 -86t-103.5 -218q-24 -133 23 -219t151 -86q109 0 186 85.5t103 219.5z" />
    <glyph glyph-name="zero.numr" horiz-adv-x="763" 
d="M881 1071q-30 -161 -132.5 -269t-244.5 -108q-137 0 -205.5 109.5t-38.5 267.5q30 157 134 264t241 107q141 0 208.5 -107.5t37.5 -263.5zM803 1071q21 133 -24.5 218t-153.5 85q-104 0 -184 -87t-101 -216q-24 -133 24 -219t152 -86q107 0 184 86t103 219z" />
    <glyph glyph-name="zero.oldstyle" horiz-adv-x="1419" 
d="M1395 510q-25 -147 -118.5 -267.5t-245 -193t-331.5 -72.5q-136 0 -241 42t-166.5 114.5t-85.5 169.5t-6 207q21 109 79.5 204.5t146 167.5t207.5 114t255 42q180 0 306 -72t177 -191.5t23 -264.5zM1298 510q22 124 -20.5 224t-147.5 160t-256 60q-226 0 -385 -127
t-192 -317q-16 -92 4.5 -174t72.5 -143t140 -96.5t201 -35.5q227 0 388.5 129.5t194.5 319.5z" />
    <glyph glyph-name="zero.taboldstyle" 
d="M1382 510q-25 -147 -118 -267.5t-244.5 -193t-331.5 -72.5q-136 0 -241 42t-167 114.5t-86 169.5t-6 207q21 109 79.5 204.5t146.5 167.5t208 114t255 42t241.5 -42t170.5 -113.5t89 -168t4 -204.5zM1286 510q22 124 -20.5 224t-147.5 160t-256 60q-226 0 -385 -127
t-192 -317q-22 -124 19 -225.5t144.5 -162.5t253.5 -61q227 0 389 129.5t195 319.5z" />
    <glyph glyph-name="zero.tnum" 
d="M1425 719q-35 -205 -136.5 -372.5t-259 -268.5t-339.5 -101t-302.5 101t-162 268t-6.5 373q29 154 94 288t158 234t217.5 157.5t263.5 57.5q182 0 304 -99t164.5 -266t4.5 -372zM1329 719q33 181 -1 328t-135.5 235t-254.5 88q-115 0 -220.5 -51t-185 -139.5t-136 -207
t-81.5 -253.5q-33 -180 1 -328.5t135.5 -238t253.5 -89.5q154 0 286.5 90t218.5 237.5t119 328.5z" />
    </font>
</defs>
</svg>
