<?xml version="1.0" standalone="no"?>
<!DOCTYPE svg PUBLIC "-//W3C//DTD SVG 1.1//EN" "http://www.w3.org/Graphics/SVG/1.1/DTD/svg11.dtd" >
<svg xmlns="http://www.w3.org/2000/svg" xmlns:xlink="http://www.w3.org/1999/xlink" version="1.1">
<metadata>
Created by FontForge 20170731 at Mon May 15 13:03:47 2023
 By Aleksey,,,
Copyright (c) Olivier Gourvat - Mostardesign Studio, 2014. All rights reserved. |DCNT
</metadata>
<defs>
<font id="FilsonPro-RegularItalic" horiz-adv-x="1234" >
  <font-face 
    font-family="Filson Pro"
    font-weight="400"
    font-style="italic"
    font-stretch="normal"
    units-per-em="2048"
    panose-1="2 0 0 0 0 0 0 0 0 0"
    ascent="1481"
    descent="-567"
    x-height="1024"
    cap-height="1434"
    bbox="-500 -600 2775.72 2091"
    underline-thickness="102"
    underline-position="-307"
    unicode-range="U+000D-FB04"
  />
<missing-glyph horiz-adv-x="1378" 
d="M205 0l254 1436h968l-253 -1436h-969zM674 526h123q1 4 2.5 14t2 13.5t2 11t2.5 10t3.5 8t4.5 8t5.5 6t7.5 6t9 5.5q7 4 33.5 18.5t43.5 24t47 28.5t50.5 36t46 42t42.5 50.5t31.5 58t20.5 66.5q20 121 -56.5 193.5t-211.5 72.5q-150 0 -239 -70.5t-103 -156.5
q-10 -57 2 -94h129q-9 27 0 90q11 52 59.5 84t122.5 32q87 0 128.5 -40.5t29.5 -110.5q-13 -71 -62.5 -118.5t-156.5 -106.5q-67 -35 -84 -62.5t-35 -118.5zM596 295q-10 -42 14 -71t66 -29t76 28.5t45 71.5q8 41 -16.5 70.5t-67.5 29.5q-41 0 -75 -29.5t-42 -70.5z" />
    <glyph glyph-name="f_f" unicode="ff" horiz-adv-x="1523" 
d="M1092 1290l-181 -53q1 50 -30 70t-82 20q-58 0 -104.5 -46t-65.5 -153l-19 -104h555l15 78q72 399 411 399q145 0 213 -72t47 -186l-4 -16q-3 -5 -8.5 -18.5t-9.5 -20.5h-170q8 18 10 35q10 57 -21.5 80.5t-86.5 23.5q-58 0 -104.5 -46t-65.5 -153l-19 -104h268l-28 -156
h-269l-153 -868h-205l154 868h-557l-154 -868h-205l154 868h-162l29 156h159l15 78q72 399 411 399q129 0 195 -57.5t68 -153.5z" />
    <glyph glyph-name="fi" unicode="fi" horiz-adv-x="1316" 
d="M1108 868h-526l-154 -868h-205l154 868h-162l29 156h159l13 74q16 96 54.5 169.5t86.5 117t110 70.5t119 36.5t119 9.5q57 0 107 -12.5t95 -40t75.5 -76.5t40.5 -115l-185 -38q-19 112 -157 112q-220 0 -260 -233l-13 -74h727l-182 -1024h-199z" />
    <glyph glyph-name="fl" unicode="fl" horiz-adv-x="1288" 
d="M223 0l154 868h-162l29 156h159l13 74q13 80 45 145.5t76.5 108t94.5 73t107.5 46.5t108 23t102.5 7q110 0 235.5 -20t190.5 -49l-252 -1432h-198l227 1296q-88 31 -229 31q-46 0 -89.5 -9.5t-89.5 -33t-79 -71.5t-45 -115l-13 -74h271l-29 -156h-268l-154 -868h-205z
" />
    <glyph glyph-name="f_f_i" unicode="ffi" horiz-adv-x="2078" 
d="M621 1098l-13 -74h557l13 74q16 96 54.5 169.5t86.5 117t110 70.5t119 36.5t119 9.5q57 0 107 -12.5t95 -40t75.5 -76.5t40.5 -115l-185 -38q-19 112 -158 112q-220 0 -260 -233l-12 -74h727l-182 -1024h-199l154 868h-527l-153 -868h-205l154 868h-557l-154 -868h-205
l154 868h-162l29 156h159l13 74q16 96 54.5 169.5t86.5 117t110 70.5t119 36.5t119 9.5q80 0 150 -32t116 -93l-155 -112q-56 67 -135 67q-220 0 -260 -233z" />
    <glyph glyph-name="f_f_l" unicode="ffl" horiz-adv-x="2050" 
d="M1612 868h-269l-153 -868h-205l154 868h-557l-154 -868h-205l154 868h-162l29 156h159l13 74q16 96 54.5 169.5t86.5 117t110 70.5t119 36.5t119 9.5q183 0 269 -115l-156 -112q-47 57 -137 57q-220 0 -260 -233l-13 -74h557l13 74q13 80 45 145.5t76.5 108t94.5 73
t107.5 46.5t108 23t102.5 7q110 0 235.5 -20t190.5 -49l-252 -1432h-198l227 1296q-88 31 -229 31q-46 0 -89.5 -9.5t-90 -33t-79.5 -71.5t-45 -115l-12 -74h270z" />
    <glyph glyph-name="f_f_j" unicode="ffj" horiz-adv-x="2127" 
d="M1731 -184l188 1052h-576l-153 -868h-205l154 868h-557l-154 -868h-205l154 868h-162l29 156h159l13 74q16 96 54.5 169.5t86.5 117t110 70.5t119 36.5t119 9.5q183 0 269 -115l-156 -112q-47 57 -137 57q-220 0 -260 -233l-13 -74h557l13 74q16 96 54.5 169.5t86.5 117
t110 70.5t119 36.5t119 9.5q57 0 107 -12.5t95 -40t75.5 -76.5t40.5 -115l-185 -38q-19 112 -158 112q-220 0 -260 -233l-12 -74h776l-219 -1219q-16 -92 -73.5 -158.5t-133 -97t-159.5 -30.5q-144 0 -212.5 73.5t-48.5 186.5q2 11 11 39q6 25 26 71h181q-26 -51 -31 -84
q-10 -54 19.5 -83t80.5 -29q54 0 94 31.5t50 91.5z" />
    <glyph glyph-name="f_j" unicode="fj" horiz-adv-x="1366" 
d="M223 0l154 868h-162l29 156h159l13 74q16 96 54.5 169.5t86.5 117t110 70.5t119 36.5t119 9.5q57 0 107 -12.5t95 -40t75.5 -76.5t40.5 -115l-185 -38q-19 112 -157 112q-220 0 -260 -233l-13 -74h774l-217 -1219q-16 -92 -74 -159t-133.5 -97t-158.5 -30
q-144 0 -212 73.5t-48 186.5q2 16 10 39q6 25 26 71h181q-26 -51 -31 -84q-10 -54 19.5 -83t80.5 -29q54 0 94 31.5t50 91.5l188 1052h-575l-154 -868h-205z" />
    <glyph glyph-name=".notdef" horiz-adv-x="1378" 
d="M205 0l254 1436h968l-253 -1436h-969zM674 526h123q1 4 2.5 14t2 13.5t2 11t2.5 10t3.5 8t4.5 8t5.5 6t7.5 6t9 5.5q7 4 33.5 18.5t43.5 24t47 28.5t50.5 36t46 42t42.5 50.5t31.5 58t20.5 66.5q20 121 -56.5 193.5t-211.5 72.5q-150 0 -239 -70.5t-103 -156.5
q-10 -57 2 -94h129q-9 27 0 90q11 52 59.5 84t122.5 32q87 0 128.5 -40.5t29.5 -110.5q-13 -71 -62.5 -118.5t-156.5 -106.5q-67 -35 -84 -62.5t-35 -118.5zM596 295q-10 -42 14 -71t66 -29t76 28.5t45 71.5q8 41 -16.5 70.5t-67.5 29.5q-41 0 -75 -29.5t-42 -70.5z" />
    <glyph glyph-name=".null" horiz-adv-x="0" 
 />
    <glyph glyph-name="nonmarkingreturn" horiz-adv-x="682" 
 />
    <glyph glyph-name="NULL" horiz-adv-x="0" 
 />
    <glyph glyph-name="NULL" horiz-adv-x="0" 
 />
    <glyph glyph-name="CR" unicode="&#xd;" horiz-adv-x="512" 
 />
    <glyph glyph-name="space" unicode=" " horiz-adv-x="540" 
 />
    <glyph glyph-name="exclam" unicode="!" horiz-adv-x="528" 
d="M631 1434l-217 -985h-144l127 985h234zM137 127q11 63 62 107.5t114 44.5t99.5 -44.5t25.5 -107.5q-10 -63 -61.5 -106.5t-114.5 -43.5t-99.5 43.5t-25.5 106.5z" />
    <glyph glyph-name="quotedbl" unicode="&#x22;" horiz-adv-x="892" 
d="M592 1481l-121 -572h-156l80 572h197zM1018 1481l-121 -572h-156l80 572h197z" />
    <glyph glyph-name="numbersign" unicode="#" horiz-adv-x="1544" 
d="M1382 1133h289l-67 -158h-287l-203 -477h289l-70 -158h-286l-146 -340h-176l145 340h-268l-145 -340h-174l143 340h-295l68 158h295l204 477h-295l68 158h291l133 301h172l-129 -301h268l131 301h174zM870 975l-200 -477h268l203 477h-271z" />
    <glyph glyph-name="dollar" unicode="$" horiz-adv-x="1110" 
d="M594 -182h-121l37 215q-168 12 -268.5 102.5t-108.5 222.5l186 48q0 -77 60 -133t162 -66l77 434l-61 23q-71 24 -122 58t-76.5 71t-40.5 78t-13 78.5t6 72.5q28 151 152 247.5t287 114.5l41 232h120l-41 -234q141 -17 221 -99.5t85 -207.5l-177 -53q-11 159 -159 184
l-74 -415l65 -27q147 -48 214 -144.5t47 -207.5q-29 -158 -154.5 -258t-306.5 -121zM739 594l-8 4l-69 -389q98 17 157.5 67t73.5 125q12 69 -27 110.5t-127 82.5zM508 1026q-6 -19 -2.5 -42.5t14 -46t42 -48t81.5 -49.5l8 -4l68 372q-81 -12 -137.5 -59t-73.5 -123z" />
    <glyph glyph-name="percent" unicode="%" horiz-adv-x="1818" 
d="M428 0l1047 1434h161l-1046 -1434h-162zM262 1094q25 153 150 257.5t278 104.5q154 0 238 -103.5t59 -258.5q-25 -151 -149 -255t-277 -104t-238.5 103t-60.5 256zM426 1094q-17 -92 29 -151.5t133 -59.5t153.5 59t83.5 152q17 92 -29 153.5t-134 61.5q-86 0 -152.5 -61
t-83.5 -154zM1079 336q28 154 151 258t277 104t239.5 -104t57.5 -258q-29 -153 -150.5 -256t-275.5 -103t-241 103.5t-58 255.5zM1243 336q-17 -92 28.5 -151.5t131.5 -59.5q88 0 155 59.5t84 151.5q17 93 -28.5 154t-132.5 61q-86 0 -153.5 -61t-84.5 -154z" />
    <glyph glyph-name="ampersand" unicode="&#x26;" horiz-adv-x="1628" 
d="M958 311l-258 375q-53 -15 -106.5 -41t-106 -63t-90 -89t-47.5 -110q-17 -105 57 -173.5t201 -68.5q194 0 350 170zM1098 115l-49 67q-76 -97 -204.5 -151t-264.5 -54q-139 0 -244 45.5t-158 137.5t-31 215q51 279 469 442q-65 57 -97 143.5t-15 172.5q12 71 49.5 128.5
t85.5 92.5t106 59t108 33.5t95 9.5q145 0 229 -93t62 -220q-19 -113 -127 -214t-242 -155l224 -311l245 272h199l-4 -18l-352 -381l82 -113q31 -39 61 -55t74 -16q45 0 95 15.5t79 43.5l43 -137q-112 -97 -256 -97q-90 0 -147.5 33.5t-114.5 104.5zM788 883
q117 54 182.5 121.5t76.5 132.5q11 64 -27.5 112.5t-116.5 48.5q-71 0 -126 -45.5t-72 -128.5q-22 -130 83 -241z" />
    <glyph glyph-name="quotesingle" unicode="'" horiz-adv-x="466" 
d="M592 1481l-121 -572h-156l80 572h197z" />
    <glyph glyph-name="parenleft" unicode="(" horiz-adv-x="643" 
d="M741 1559l115 -78q-377 -425 -465 -901q-19 -105 -22 -207t9.5 -191t27.5 -159.5t43 -143t44.5 -109.5t41.5 -89l-140 -76q-27 37 -52.5 80.5t-58.5 112t-56 151t-40 178.5t-15.5 215t22.5 242q26 144 80 284.5t112.5 243t130 197.5t123 150t100.5 100z" />
    <glyph glyph-name="parenright" unicode=")" horiz-adv-x="643" 
d="M309 1481l140 78q27 -35 54 -79.5t60 -112.5t57 -151.5t41 -179.5t15.5 -213.5t-23.5 -238.5q-25 -146 -79 -287t-113.5 -244.5t-132 -199t-125 -150.5t-101.5 -98l-110 76q35 42 46 56t51.5 65t60 80.5t58.5 88t62.5 103t56 110t53.5 123.5t41.5 130t33.5 143
q20 106 23.5 209t-9.5 192.5t-28.5 161t-44 143t-45.5 109t-42 86.5z" />
    <glyph glyph-name="asterisk" unicode="*" horiz-adv-x="942" 
d="M442 754l-108 90l219 225l-262 78l74 147l247 -102l37 289h160l-66 -289l287 102l27 -145l-295 -78l141 -225l-141 -92l-115 239z" />
    <glyph glyph-name="plus" unicode="+" horiz-adv-x="1122" 
d="M672 152h-174l71 391h-391l31 174h391l68 389h174l-68 -389h389l-30 -174h-390z" />
    <glyph glyph-name="comma" unicode="," horiz-adv-x="522" 
d="M106 -266l-26 73q88 25 139 92.5t60 135.5q-72 -23 -110 11.5t-28 90.5q8 57 51.5 94t114.5 37q40 0 67.5 -18.5t36 -45t12 -55t-2.5 -49.5q-24 -131 -106 -230t-208 -136z" />
    <glyph glyph-name="hyphen" unicode="-" horiz-adv-x="958" 
d="M229 535l31 182h684l-31 -182h-684z" />
    <glyph glyph-name="period" unicode="." horiz-adv-x="530" 
d="M135 127q11 63 62 107.5t114 44.5t99.5 -44.5t25.5 -107.5q-10 -63 -61.5 -106.5t-114.5 -43.5t-99.5 43.5t-25.5 106.5z" />
    <glyph glyph-name="slash" unicode="/" horiz-adv-x="1085" 
d="M1298 1505l-1062 -1585h-199l1061 1585h200z" />
    <glyph glyph-name="zero" unicode="0" horiz-adv-x="1447" 
d="M1466 717q-26 -153 -93.5 -288t-164 -235t-224 -158.5t-267.5 -58.5q-187 0 -311 100.5t-167 267t-8 372.5q27 154 94 289t163 235.5t223.5 158.5t267.5 58q187 0 311.5 -100t168 -267.5t7.5 -373.5zM1268 717q23 117 10.5 220t-50.5 179.5t-110 121t-168 44.5
q-190 0 -334 -162t-186 -403q-23 -117 -10.5 -219.5t50 -179t109 -120.5t166.5 -44q127 0 238 76t184 203.5t101 283.5z" />
    <glyph glyph-name="one" unicode="1" horiz-adv-x="763" 
d="M268 1047l-22 165l514 222h100l-252 -1434h-198l208 1192z" />
    <glyph glyph-name="two" unicode="2" horiz-adv-x="1245" 
d="M444 168l-2 -8q96 8 326 8h418l-29 -168h-1028l-6 131l694 539q110 83 176.5 164t83.5 176q23 127 -46 198.5t-206 71.5q-85 0 -151 -23t-103 -60.5t-57 -76t-27 -78.5h-202q9 52 32.5 105t70 109.5t108.5 100t156 71.5t206 28q230 0 343.5 -119.5t76.5 -322.5
q-14 -79 -46.5 -147.5t-82.5 -127t-98.5 -102t-116.5 -94.5z" />
    <glyph glyph-name="three" unicode="3" horiz-adv-x="1245" 
d="M594 158q90 0 169 28.5t131.5 74.5t85.5 100t42 108q22 124 -56.5 205.5t-215.5 81.5q-47 0 -109 -15t-111 -53l-77 117l553 461h-652l29 168h960l-22 -125l-504 -400q91 0 171 -29t139 -82.5t85.5 -138.5t8.5 -188q-18 -102 -73 -192t-138 -157t-199.5 -106t-249.5 -39
q-316 0 -467 166l142 131q82 -69 158 -92.5t200 -23.5z" />
    <glyph glyph-name="four" unicode="4" horiz-adv-x="1374" 
d="M395 555h508l96 549zM870 385h-757l24 133l996 916h122l-153 -879h313l-33 -170h-313l-65 -385h-199z" />
    <glyph glyph-name="five" unicode="5" horiz-adv-x="1230" 
d="M121 143l141 131q39 -46 149 -81t203 -35q181 0 288 90.5t134 230.5q9 36 5 71.5t-15 68.5t-35 61t-56.5 49t-79 33t-101.5 12q-193 0 -355 -106l-133 63l170 703h858l-28 -168h-678l-111 -424q136 112 334 112q115 0 204 -39.5t140 -106t70.5 -151.5t3.5 -178
q-37 -226 -211.5 -364t-439.5 -138q-151 0 -271.5 47.5t-185.5 118.5z" />
    <glyph glyph-name="six" unicode="6" horiz-adv-x="1290" 
d="M438 731q179 203 430 203q100 0 185.5 -34.5t143.5 -95.5t83.5 -152t7.5 -197q-37 -208 -207 -343t-397 -135q-181 0 -298 89t-157 248.5t-2 369.5q40 217 139.5 390t257.5 277.5t349 104.5q128 0 222.5 -44.5t145.5 -115.5l-153 -120q-31 47 -100 73.5t-146 26.5
q-177 0 -318 -148.5t-186 -396.5zM414 457q-24 -131 64.5 -215t228.5 -84q138 0 247 83.5t133 215.5t-56 215.5t-218 83.5q-140 0 -257.5 -84t-141.5 -215z" />
    <glyph glyph-name="seven" unicode="7" horiz-adv-x="1116" 
d="M285 1266l28 168h1028l-24 -140l-944 -1294h-219l942 1266h-811z" />
    <glyph glyph-name="eight" unicode="8" horiz-adv-x="1347" 
d="M698 154q163 0 281 77t139 189q21 108 -62 184t-253 76h-17q-172 0 -279.5 -75t-129.5 -185q-21 -112 69 -189t252 -77zM670 -23q-163 0 -284 59.5t-176 160.5t-34 223q22 112 115.5 207t226.5 141q-93 43 -139 123t-29 172q33 168 196.5 280.5t385.5 112.5
q219 0 344.5 -113.5t93.5 -279.5q-17 -92 -91 -172t-179 -123q117 -45 178 -140.5t41 -207.5q-33 -186 -218 -314.5t-431 -128.5zM901 1280q-138 0 -236.5 -62t-113.5 -155q-19 -94 48 -165t210 -71h14q143 0 235 70.5t111 165.5q18 94 -55.5 155.5t-212.5 61.5z" />
    <glyph glyph-name="nine" unicode="9" horiz-adv-x="1282" 
d="M1112 733q-78 -122 -198 -177.5t-240 -55.5q-100 0 -185 34.5t-143 95.5t-83 152t-7 197q37 207 207 342t397 135q180 0 294.5 -89t151.5 -247.5t-1 -369.5q-29 -162 -94.5 -301.5t-159 -245t-220 -166t-270.5 -60.5q-128 0 -224 44.5t-147 115.5l154 121
q34 -48 102.5 -74t145.5 -26q185 0 330.5 161.5t189.5 413.5zM1120 977q24 132 -59.5 215.5t-222.5 83.5q-138 0 -247.5 -83.5t-133.5 -215.5t56 -215.5t218 -83.5q139 0 252 83.5t137 215.5z" />
    <glyph glyph-name="colon" unicode=":" horiz-adv-x="575" 
d="M158 127q11 63 62 107.5t114 44.5t99.5 -44.5t25.5 -107.5q-10 -63 -61.5 -106.5t-114.5 -43.5t-99 43.5t-26 106.5zM295 895q11 63 62 107.5t114 44.5t99.5 -44.5t25.5 -107.5q-10 -63 -62.5 -106.5t-115.5 -43.5t-98.5 43.5t-24.5 106.5z" />
    <glyph glyph-name="semicolon" unicode=";" horiz-adv-x="569" 
d="M293 895q11 63 62 107.5t114 44.5t99.5 -44.5t25.5 -107.5q-10 -63 -62.5 -106.5t-115.5 -43.5t-98.5 43.5t-24.5 106.5zM129 -266l-27 73q88 25 139 92.5t60 135.5q-72 -23 -109.5 11.5t-27.5 90.5q8 57 51.5 94t114.5 37q33 0 57 -12t35 -31t18 -42t5.5 -44.5
t-3.5 -38.5q-24 -131 -105.5 -230t-207.5 -136z" />
    <glyph glyph-name="less" unicode="&#x3c;" horiz-adv-x="1173" 
d="M158 471l32 180l1045 402l-33 -179l-858 -313l746 -313l-31 -178z" />
    <glyph glyph-name="equal" unicode="=" horiz-adv-x="1245" 
d="M1157 328h-954l30 174h955zM1251 872h-954l33 175h954z" />
    <glyph glyph-name="greater" unicode="&#x3e;" horiz-adv-x="1173" 
d="M1208 651l-32 -180l-1041 -401l29 178l862 313l-750 313l35 179z" />
    <glyph glyph-name="question" unicode="?" horiz-adv-x="1073" 
d="M647 449h-184q10 55 14.5 76t14.5 53t18.5 43t28 31t41.5 33t61 34q158 84 234 158t94 180q17 105 -44 166t-190 61q-116 0 -191.5 -52t-92.5 -145q-4 -32 -2 -63h-179q-10 44 0 92q12 58 47 114.5t93.5 108.5t154 84.5t211.5 32.5q133 0 231.5 -48t145 -139.5
t25.5 -211.5q-10 -57 -34.5 -110.5t-62 -97.5t-74 -79.5t-86 -69.5t-81 -53.5t-76.5 -45t-57 -32.5q-29 -16 -38.5 -38t-21.5 -82zM348 127q11 63 62 107.5t114 44.5t99.5 -44.5t25.5 -107.5q-10 -63 -62.5 -106.5t-115.5 -43.5t-98.5 43.5t-24.5 106.5z" />
    <glyph glyph-name="at" unicode="@" horiz-adv-x="2119" 
d="M1597 92q128 5 221 122.5t136 358.5q41 216 -28.5 388t-234 269t-395.5 97q-229 0 -434 -109t-343.5 -298.5t-178.5 -421.5q-22 -141 -11 -265t62.5 -227.5t130.5 -177.5t193.5 -115t251.5 -41q251 0 430 80l45 -135q-109 -47 -241 -72.5t-257 -25.5q-118 0 -223.5 24.5
t-190 71t-153 112.5t-114 149t-72.5 181.5t-28.5 209t17.5 231.5q36 208 142.5 390.5t257.5 312.5t345 205t400 75q210 0 375 -67.5t267 -187t141.5 -287.5t5.5 -366q-30 -165 -83 -286t-123.5 -193t-153.5 -106.5t-181 -34.5q-148 0 -197.5 70.5t-25.5 197.5
q-58 -89 -165 -137.5t-212 -48.5q-124 0 -211.5 62.5t-122.5 167.5t-14 233q33 194 179 327t341 133q210 0 293 -172l26 152h172l-129 -717q-11 -64 16 -97.5t74 -31.5zM797 498q-25 -131 41.5 -221.5t197.5 -90.5q129 0 225.5 84.5t120.5 223.5q25 137 -40.5 225t-198.5 88
q-135 0 -227.5 -88t-118.5 -221z" />
    <glyph glyph-name="A" unicode="A" horiz-adv-x="1394" 
d="M492 463h577l-156 774zM1098 297h-701l-159 -297h-211l802 1434h238l301 -1434h-207z" />
    <glyph glyph-name="B" unicode="B" horiz-adv-x="1347" 
d="M1370 1065q-21 -119 -105.5 -208.5t-226.5 -123.5q162 -17 234.5 -115t46.5 -237q-32 -172 -181 -276.5t-362 -104.5h-575l252 1434h510q208 0 322 -100t85 -269zM784 641h-266l-84 -473h371q118 0 203 60t102 159q9 51 -5 95.5t-50.5 80.5t-106 57t-164.5 21zM547 801
h223q176 0 273 72.5t116 177.5q19 101 -47.5 158t-177.5 57h-305z" />
    <glyph glyph-name="C" unicode="C" horiz-adv-x="1398" 
d="M219 717q27 150 104 284t192 235t273 160.5t336 59.5q150 0 255.5 -39t191.5 -114l-107 -154q-65 55 -164.5 89t-207.5 34q-132 0 -247.5 -44t-199.5 -120t-140 -176.5t-77 -214.5q-28 -153 15.5 -278t160 -201t289.5 -76q109 0 223 34t193 89l53 -154
q-113 -75 -232 -114.5t-268 -39.5q-119 0 -221.5 27t-177.5 76t-132 117.5t-85.5 150.5t-37.5 175.5t11 193.5z" />
    <glyph glyph-name="D" unicode="D" horiz-adv-x="1490" 
d="M1311 717q14 92 7 173.5t-41 150.5t-87.5 119t-133 78t-175.5 28h-252l-195 -1098h252q160 0 294.5 74.5t218.5 198t112 276.5zM1520 717q-27 -148 -101 -278.5t-184 -228t-259.5 -154t-318.5 -56.5h-456l252 1434h456q168 0 298.5 -56.5t207 -154t104.5 -228t1 -278.5z
" />
    <glyph glyph-name="E" unicode="E" horiz-adv-x="1212" 
d="M1141 168l-29 -168h-911l252 1434h911l-29 -168h-706l-86 -480h616l-29 -168h-616l-80 -450h707z" />
    <glyph glyph-name="F" unicode="F" horiz-adv-x="1187" 
d="M406 0h-205l252 1434h911l-29 -168h-706l-86 -480h616l-29 -168h-616z" />
    <glyph glyph-name="G" unicode="G" horiz-adv-x="1505" 
d="M1061 1272q-144 0 -280 -73.5t-231 -202t-122 -281.5q-15 -70 -9 -138t23.5 -129.5t57 -113.5t93 -90.5t130 -60t168.5 -21.5q188 0 354 96l55 293h-403l29 166h590l-97 -539q-261 -201 -569 -201q-163 0 -295.5 58t-215 157.5t-116 234.5t-6.5 286q35 203 166 374.5
t320 270t391 98.5q157 0 275 -36.5t218 -121.5l-106 -157q-53 38 -103 64t-86 39t-82.5 19.5t-72.5 7.5t-76 1z" />
    <glyph glyph-name="H" unicode="H" horiz-adv-x="1480" 
d="M1180 600h-670l-104 -600h-205l252 1434h204l-118 -668h669l119 668h205l-252 -1434h-205z" />
    <glyph glyph-name="I" unicode="I" horiz-adv-x="606" 
d="M657 1434l-251 -1434h-205l252 1434h204z" />
    <glyph glyph-name="J" unicode="J" horiz-adv-x="1363" 
d="M1440 1434l-137 -785q-57 -328 -240.5 -500t-466.5 -172q-93 0 -169.5 20.5t-128 56.5t-89 85t-53 106.5t-20 120.5t10.5 128q6 35 27 93t43 83h195q-22 -39 -40.5 -89t-23.5 -77q-15 -67 -4 -128.5t41 -109t92.5 -76t149.5 -28.5q189 0 308 127t161 360l139 785h205z
" />
    <glyph glyph-name="K" unicode="K" horiz-adv-x="1300" 
d="M532 733l629 701h221l-4 -23l-655 -721l205 -362q42 -78 89 -125t107 -47q85 0 160 53l47 -143q-43 -43 -123 -66t-139 -23q-31 0 -60 5.5t-51.5 12.5t-46 23t-38.5 26.5t-34.5 33.5t-29 33.5t-26 37.5t-21.5 35.5t-20 36.5t-17 31l-209 385l-113 -637h-204l252 1434h204
z" />
    <glyph glyph-name="L" unicode="L" horiz-adv-x="1091" 
d="M1090 168l-29 -168h-860l252 1434h204l-223 -1266h656z" />
    <glyph glyph-name="M" unicode="M" horiz-adv-x="1957" 
d="M903 18l-262 1112l-297 -1130h-207l387 1434h230l276 -1143l678 1143h229l-116 -1434h-207l100 1130l-659 -1112h-152z" />
    <glyph glyph-name="N" unicode="N" horiz-adv-x="1544" 
d="M1192 0l-600 1061l-186 -1061h-205l252 1434h151l598 -1057l187 1057h206l-252 -1434h-151z" />
    <glyph glyph-name="O" unicode="O" horiz-adv-x="1675" 
d="M219 717q35 200 165.5 370.5t319.5 269.5t390 99q151 0 278 -58.5t208.5 -157.5t116.5 -236t9 -287q-27 -150 -110.5 -287t-201 -236.5t-265.5 -158t-298 -58.5q-151 0 -278 58.5t-208.5 158t-116.5 236.5t-9 287zM428 717q-27 -156 21.5 -283.5t157.5 -199.5t255 -72
q144 0 280 72t232 200t123 283q29 155 -21 283t-160.5 200t-254.5 72q-147 0 -281.5 -72t-228.5 -199.5t-123 -283.5z" />
    <glyph glyph-name="P" unicode="P" horiz-adv-x="1277" 
d="M406 0h-205l252 1434h573q132 0 220.5 -63t121 -164.5t10.5 -223.5q-22 -121 -89.5 -220t-178 -159.5t-242.5 -60.5h-368zM528 707h326q121 0 205 76.5t108 201.5q24 126 -33.5 203.5t-179.5 77.5h-325z" />
    <glyph glyph-name="Q" unicode="Q" horiz-adv-x="1673" 
d="M426 717q-27 -156 21.5 -283.5t157.5 -199.5t255 -72q144 0 280 72t232 200t123 283q29 155 -21 283t-160.5 200t-254.5 72q-147 0 -281.5 -72t-228.5 -199.5t-123 -283.5zM961 -10q5 -99 56 -152t163 -53q45 0 109 19.5t97 45.5l48 -147q-126 -88 -293 -88
q-358 0 -379 367q-185 16 -321.5 118t-196.5 264.5t-27 352.5q35 200 165.5 370.5t319.5 269.5t390 99q150 0 277.5 -58.5t210.5 -157.5t117.5 -236t6.5 -287q-32 -179 -140.5 -335.5t-267 -259.5t-335.5 -132z" />
    <glyph glyph-name="R" unicode="R" horiz-adv-x="1402" 
d="M403 0h-204l252 1434h598q132 0 220.5 -63t121 -164.5t10.5 -223.5q-30 -164 -141 -282t-273 -150q-4 -62 5 -128.5t31 -128.5t65 -102t100 -40q102 0 180 65l47 -139q-115 -101 -270 -101q-69 0 -126 22t-94 59.5t-65.5 86.5t-41.5 102t-22.5 107.5t-7.5 102.5t3 86
h-293zM526 707h351q121 0 205 76.5t108 201.5q24 126 -33.5 203.5t-179.5 77.5h-350z" />
    <glyph glyph-name="S" unicode="S" horiz-adv-x="1187" 
d="M125 336l201 49q5 -95 83.5 -160t208.5 -65q138 0 231.5 61.5t111.5 157.5q30 152 -175 225l-198 72q-314 116 -264 385q21 119 101 210.5t192.5 138t236.5 46.5q188 0 295.5 -93.5t112.5 -246.5l-193 -55q-15 211 -248 211q-107 0 -190.5 -56t-100.5 -151
q-24 -139 152 -205l203 -78q160 -61 229.5 -164.5t48.5 -224.5q-34 -190 -191 -303t-382 -113q-209 0 -330.5 101t-134.5 258z" />
    <glyph glyph-name="T" unicode="T" horiz-adv-x="1232" 
d="M289 1434h1159l-29 -168h-477l-223 -1266h-205l223 1266h-477z" />
    <glyph glyph-name="U" unicode="U" horiz-adv-x="1495" 
d="M1364 1434h205l-160 -904q-24 -131 -88.5 -237.5t-154.5 -174.5t-198.5 -104.5t-224.5 -36.5t-212 36.5t-162.5 104.5t-92.5 174.5t-2 237.5l160 904h205l-160 -904q-32 -178 54 -273t241 -95q156 0 277 95.5t153 272.5z" />
    <glyph glyph-name="V" unicode="V" horiz-adv-x="1310" 
d="M760 0h-209l-248 1434h209l186 -1182l605 1182h208z" />
    <glyph glyph-name="W" unicode="W" horiz-adv-x="2035" 
d="M1178 1386h168l139 -1042l534 1090h205l-698 -1434h-176l-144 1077l-520 -1077h-176l-195 1434h205l150 -1090z" />
    <glyph glyph-name="X" unicode="X" horiz-adv-x="1437" 
d="M821 596l-585 -596h-234l2 23l729 737l-420 651l4 23h226l336 -523l520 523h225l-4 -23l-649 -651l467 -737l-2 -23h-234z" />
    <glyph glyph-name="Y" unicode="Y" horiz-adv-x="1388" 
d="M694 590l-397 821l4 23h225l301 -670l539 670h225l-4 -23l-688 -821l-102 -590h-205z" />
    <glyph glyph-name="Z" unicode="Z" horiz-adv-x="1316" 
d="M1280 168l-29 -168h-1190l27 156l1069 1110h-819l29 168h1089l-26 -156l-1078 -1110h928z" />
    <glyph glyph-name="bracketleft" unicode="[" horiz-adv-x="669" 
d="M76 -403l342 1923h469l-29 -156h-287l-284 -1612h286l-28 -155h-469z" />
    <glyph glyph-name="backslash" unicode="\" horiz-adv-x="1085" 
d="M817 -80l-498 1585h201l496 -1585h-199z" />
    <glyph glyph-name="bracketright" unicode="]" horiz-adv-x="669" 
d="M788 1520l-342 -1923h-464l26 155h285l285 1612h-287l28 156h469z" />
    <glyph glyph-name="asciicircum" unicode="^" horiz-adv-x="1054" 
d="M1094 764h-187l-153 520l-342 -520h-185l486 717h149z" />
    <glyph glyph-name="underscore" unicode="_" horiz-adv-x="1443" 
d="M-51 -293l31 182h1439l-30 -182h-1440z" />
    <glyph glyph-name="grave" unicode="`" horiz-adv-x="1028" 
d="M524 1481h224l122 -307h-174z" />
    <glyph glyph-name="a" unicode="a" horiz-adv-x="1316" 
d="M172 512q24 147 108.5 269t214.5 194t279 72q236 0 338 -187l29 164h198l-180 -1024h-198l26 164q-165 -187 -403 -187q-149 0 -253.5 72t-145 194t-13.5 269zM1055 512q25 157 -55 257.5t-234 100.5q-155 0 -263 -103t-134 -255q-26 -153 44.5 -255.5t225.5 -102.5
q153 0 270 101t146 257z" />
    <glyph glyph-name="b" unicode="b" horiz-adv-x="1318" 
d="M1325 512q-28 -148 -111.5 -269t-213 -193.5t-279.5 -72.5q-239 0 -336 187l-29 -164h-198l260 1481h198l-108 -621q165 187 403 187q149 0 254 -72t146 -194t14 -269zM442 512q-29 -156 50.5 -257t234.5 -101t263 103t134 255q26 153 -44 255.5t-224 102.5t-269.5 -101
t-144.5 -257z" />
    <glyph glyph-name="c" unicode="c" horiz-adv-x="1081" 
d="M168 500q21 114 77 212.5t140.5 173.5t202.5 118t254 43q199 0 344 -125l-119 -136q-96 84 -250 84q-167 0 -293.5 -100.5t-154.5 -257.5t63 -257.5t256 -100.5q157 0 281 84l71 -136q-188 -125 -389 -125q-177 0 -296.5 71t-165.5 188.5t-21 263.5z" />
    <glyph glyph-name="d" unicode="d" horiz-adv-x="1318" 
d="M174 512q28 148 111 269t212 193.5t279 72.5q236 0 338 -187l109 621h198l-260 -1481h-198l26 164q-165 -187 -403 -187q-149 0 -253.5 72t-145 194t-13.5 269zM1057 512q25 157 -55 257.5t-234 100.5q-155 0 -263 -103t-134 -255q-26 -153 44.5 -255.5t225.5 -102.5
q153 0 270 101t146 257z" />
    <glyph glyph-name="e" unicode="e" horiz-adv-x="1218" 
d="M1042 283l91 -115q-203 -191 -482 -191q-130 0 -232 42.5t-162 115t-83.5 169t-5.5 204.5q42 228 226 383.5t421 155.5q82 0 154 -21t131 -64.5t96 -109t50 -155t-7 -203.5h-874q-32 -148 58.5 -244t260.5 -96q186 0 358 129zM786 872q-49 0 -97 -10.5t-99.5 -34.5
t-98.5 -70t-81 -110h651q-8 66 -36 113t-69 70t-82 32.5t-88 9.5z" />
    <glyph glyph-name="f" unicode="f" horiz-adv-x="761" 
d="M629 1128l-19 -104h269l-29 -156h-268l-154 -868h-205l154 868h-162l29 156h159l15 78q72 399 411 399q145 0 213.5 -72t47.5 -186l-5 -16q-3 -5 -8.5 -18.5t-9.5 -20.5h-170q8 18 10 35q10 57 -21.5 80.5t-86.5 23.5q-58 0 -104.5 -46t-65.5 -153z" />
    <glyph glyph-name="g" unicode="g" horiz-adv-x="1316" 
d="M1339 1024l-182 -1016q-22 -123 -82.5 -219t-145.5 -153.5t-184 -87t-206 -29.5q-150 0 -247.5 39t-166.5 108l106 156q126 -129 336 -129q154 0 260.5 86t135.5 248l24 137q-165 -187 -403 -187q-149 0 -253.5 72t-145 194t-13.5 269q28 148 111 269t212 193.5t279 72.5
q236 0 338 -187l29 164h198zM1055 512q25 157 -55 257.5t-234 100.5q-155 0 -263 -103t-134 -255q-26 -153 44.5 -255.5t225.5 -102.5q153 0 270 101t146 257z" />
    <glyph glyph-name="h" unicode="h" 
d="M895 0l100 578q26 152 -19.5 222t-135.5 70q-36 0 -77.5 -9.5t-93.5 -37t-96.5 -69.5t-81.5 -114.5t-53 -164.5l-82 -475h-198l260 1481h198l-114 -662q50 109 152 168.5t231 59.5q85 0 150 -27t110 -84t57.5 -145.5t-8.5 -212.5l-100 -578h-199z" />
    <glyph glyph-name="i" unicode="i" horiz-adv-x="526" 
d="M362 0l181 1024h-199l-180 -1024h198zM362 1354q11 60 56.5 99.5t105.5 39.5t92.5 -39.5t22.5 -99.5t-56 -98.5t-106 -38.5t-92.5 38.5t-22.5 98.5z" />
    <glyph glyph-name="j" unicode="j" horiz-adv-x="602" 
d="M420 1024l-215 -1208q-10 -60 -51 -91.5t-95 -31.5q-48 0 -76 29t-18 83q6 41 31 84h-180q-13 -22 -29 -71l-8 -39q-21 -114 45 -187t209 -73q84 0 160 30t134 97t74 159l217 1219h-198zM438 1354q11 60 56.5 99.5t105.5 39.5t92.5 -39.5t22.5 -99.5t-56 -98.5
t-106 -38.5t-92.5 38.5t-22.5 98.5z" />
    <glyph glyph-name="k" unicode="k" horiz-adv-x="1103" 
d="M457 594l430 430h221l-6 -23l-453 -448l129 -264q35 -74 66 -105.5t88 -31.5q89 0 139 38l45 -133q-92 -80 -237 -80q-66 0 -115 18t-81.5 57t-46 63t-33.5 71q-4 8 -5 11l-154 329l-90 -526h-198l260 1481h198z" />
    <glyph glyph-name="l" unicode="l" horiz-adv-x="526" 
d="M623 1481l-261 -1481h-198l260 1481h199z" />
    <glyph glyph-name="m" unicode="m" horiz-adv-x="1896" 
d="M856 0l100 578q26 152 -19.5 222t-135.5 70q-35 0 -73 -9.5t-84.5 -37t-85 -70t-71.5 -114.5t-49 -164l-82 -475h-198l180 1024h199l-35 -205q50 110 148.5 169t217.5 59q33 0 63.5 -5t66 -19t64 -37t54 -63t39.5 -92q138 216 387 216q392 0 311 -469l-100 -578h-199
l101 578q26 152 -20 222t-136 70q-32 0 -67 -8t-80 -33t-83.5 -64t-73.5 -108.5t-54 -158.5l-86 -498h-199z" />
    <glyph glyph-name="n" unicode="n" horiz-adv-x="1236" 
d="M895 0l100 578q26 152 -19.5 222t-135.5 70q-36 0 -77.5 -9.5t-93.5 -37t-96.5 -69.5t-81.5 -114.5t-53 -164.5l-82 -475h-198l180 1024h199l-35 -205q50 109 152 168.5t231 59.5q175 0 263 -116.5t46 -352.5l-100 -578h-199z" />
    <glyph glyph-name="o" unicode="o" 
d="M170 512q24 145 118 268.5t231 195t282 71.5q147 0 258 -72t160.5 -194.5t25.5 -268.5q-27 -145 -121 -268t-230.5 -195t-283.5 -72q-144 0 -255 71t-161.5 194.5t-23.5 269.5zM365 510q-25 -148 56 -252t220 -104q140 0 259 104.5t144 251.5q25 149 -55 254.5
t-221 105.5q-139 0 -256.5 -105.5t-146.5 -254.5z" />
    <glyph glyph-name="p" unicode="p" horiz-adv-x="1316" 
d="M1325 512q-28 -148 -111.5 -269t-213 -193.5t-279.5 -72.5q-239 0 -336 187l-113 -623h-198l264 1483h199l-29 -164q165 187 403 187q149 0 254 -72t146 -194t14 -269zM442 512q-29 -156 50.5 -257t234.5 -101q154 0 263.5 103.5t135.5 254.5q26 153 -44.5 255.5
t-225.5 102.5q-154 0 -269.5 -101t-144.5 -257z" />
    <glyph glyph-name="q" unicode="q" horiz-adv-x="1316" 
d="M172 512q28 148 111 269t212 193.5t279 72.5q236 0 338 -187l29 164h198l-264 -1483h-198l110 623q-165 -187 -403 -187q-149 0 -253.5 72t-145 194t-13.5 269zM1055 512q25 157 -55 257.5t-234 100.5q-155 0 -263 -103t-134 -255q-26 -153 44.5 -255.5t225.5 -102.5
q153 0 270 101t146 257z" />
    <glyph glyph-name="r" unicode="r" horiz-adv-x="749" 
d="M537 1024l-41 -231q46 120 133 187t186 67q46 0 90 -23l-35 -195q-46 27 -104 27q-27 0 -55 -6.5t-72.5 -34.5t-81.5 -75t-74 -138.5t-59 -214.5l-68 -387h-198l180 1024h199z" />
    <glyph glyph-name="s" unicode="s" horiz-adv-x="903" 
d="M936 803l-182 -39q-22 113 -142 113q-72 0 -124 -44.5t-52 -105.5q0 -68 103 -104l139 -50q199 -63 199 -235q0 -109 -63 -193t-159 -126t-206 -42q-139 0 -238 71.5t-111 197.5l185 43q8 -62 63 -102t133 -40q83 0 143 45.5t60 112.5q0 70 -106 111l-127 47
q-107 33 -160 87.5t-53 137.5q0 149 117 254t282 105q75 0 135 -21.5t106.5 -78t57.5 -144.5z" />
    <glyph glyph-name="t" unicode="t" horiz-adv-x="858" 
d="M559 868l-98 -559q-16 -81 10.5 -119t81.5 -38q51 0 93 29t52 83q8 54 0 84h174q6 -23 2 -69l-6 -41q-18 -115 -109.5 -188t-236.5 -73q-64 0 -115.5 17.5t-92.5 58t-53 107t3 164.5l96 544h-167l28 156h168l94 295h154l-49 -295h325l-28 -156h-326z" />
    <glyph glyph-name="u" unicode="u" 
d="M520 1024l-102 -578q-26 -152 19.5 -222t135.5 -70q36 0 77.5 9.5t93.5 37t96.5 69.5t81.5 114.5t53 164.5l84 475h198l-180 -1024h-198l34 205q-54 -109 -155 -168.5t-230 -59.5q-177 0 -262.5 116t-46.5 353l103 578h198z" />
    <glyph glyph-name="v" unicode="v" horiz-adv-x="1110" 
d="M1243 1024l-575 -1024h-226l-215 1024h209l156 -805l442 805h209z" />
    <glyph glyph-name="w" unicode="w" horiz-adv-x="1683" 
d="M567 266l365 727h168l102 -727l404 758h206l-550 -1024h-189l-108 713l-355 -713h-188l-191 1024h207z" />
    <glyph glyph-name="x" unicode="x" horiz-adv-x="1179" 
d="M928 0l-266 408l-410 -408h-236l533 530l-324 494h224l253 -379l390 379h223l-500 -494l348 -530h-235z" />
    <glyph glyph-name="y" unicode="y" horiz-adv-x="1134" 
d="M621 260l428 764h231l-893 -1483h-192l278 494l-256 989h227z" />
    <glyph glyph-name="z" unicode="z" horiz-adv-x="1140" 
d="M1075 0h-1014l19 125l825 739h-647l29 160h925l-22 -125l-823 -739h737z" />
    <glyph glyph-name="braceleft" unicode="{" horiz-adv-x="659" 
d="M412 557v-8q63 -10 87.5 -64.5t12.5 -122.5q-11 -59 -56 -144t-91 -174.5t-60 -160.5q-13 -77 12 -112t89 -35q61 0 133 8l-23 -137q-119 -13 -154 -13q-127 0 -200.5 69t-50.5 202q15 91 109.5 273t113.5 237q9 15 12 35q5 27 -10 46t-64 29l-100 19l18 106l109 19
q51 10 72 29t26 47q0 1 -2 4q-45 58 -45 378q0 126 8 162q16 91 70.5 154t125 90t151.5 27q41 0 147 -13l-23 -137q-68 8 -131 8q-128 0 -153 -147q-14 -71 1 -160.5t31 -174.5t5 -144q-12 -68 -56.5 -122.5t-111.5 -64.5q-2 -2 -2 -8z" />
    <glyph glyph-name="bar" unicode="|" horiz-adv-x="464" 
d="M66 -459l360 2026h166l-361 -2026h-165z" />
    <glyph glyph-name="braceright" unicode="}" horiz-adv-x="659" 
d="M440 551v6q0 4 2 6v2q-62 10 -87 64.5t-13 122.5q11 59 55.5 144t90 174.5t59.5 160.5q13 77 -10.5 112t-87.5 35q-62 0 -134 -8l25 137q119 13 152 13q126 0 199 -68.5t50 -202.5q-12 -69 -54 -160.5t-95.5 -192.5t-75.5 -157q-4 -7 -8 -34q-12 -60 72 -76l100 -19
l-18 -106l-107 -19q-89 -17 -100 -75q-4 -28 -4 -35q2 -49 13.5 -123t21.5 -130.5t15 -131.5t-5 -125q-16 -90 -70.5 -153t-126 -90.5t-152.5 -27.5q-39 0 -141 13l21 137q66 -8 129 -8q64 0 101 35t50 112q14 71 -0.5 160.5t-30 174.5t-4.5 144q12 68 55.5 122.5
t110.5 64.5z" />
    <glyph glyph-name="asciitilde" unicode="~" horiz-adv-x="1269" 
d="M1171 786l84 -118q-48 -100 -133 -159.5t-186 -59.5q-50 0 -95 18.5t-80 45.5t-69.5 54t-76.5 45.5t-87 18.5q-59 0 -117 -39t-92 -109l-79 123q39 89 126 151t191 62q49 0 96.5 -18.5t85 -45.5t73.5 -54t75 -45.5t76 -18.5q127 0 208 149z" />
    <glyph glyph-name="uni00A0" unicode="&#xa0;" horiz-adv-x="540" 
 />
    <glyph glyph-name="exclamdown" unicode="&#xa1;" horiz-adv-x="503" 
d="M291 -410l131 985h-143l-222 -985h234zM262 897q10 63 61.5 106.5t114.5 43.5t99.5 -43.5t25.5 -106.5q-10 -63 -63.5 -107.5t-116.5 -44.5q-62 0 -97 44t-24 108z" />
    <glyph glyph-name="cent" unicode="&#xa2;" horiz-adv-x="1134" 
d="M489 -223h-116l82 231q-159 54 -231.5 186.5t-41.5 305.5q20 111 74 208t135.5 171.5t194.5 119t243 48.5l72 194h117l-74 -203q151 -26 256 -116l-117 -136q-83 67 -200 80l-254 -706q37 -6 76 -6q154 0 278 84l72 -136q-188 -125 -387 -125q-54 0 -103 9zM385 512
q-20 -109 17 -190.5t124 -126.5l238 671q-144 -21 -249.5 -117t-129.5 -237z" />
    <glyph glyph-name="sterling" unicode="&#xa3;" horiz-adv-x="1302" 
d="M1210 0h-1128l29 168q89 0 155 17t103.5 41t63 63.5t34.5 70t18 76.5q10 66 0 162h-258l21 119h215q-37 169 -40 239q-3 55 5 101q21 120 102 212t197.5 139.5t249.5 47.5q68 0 125.5 -11t98.5 -31t73.5 -46.5t51 -58t30.5 -65.5t12 -68.5t-4 -67.5h-197q14 80 -42 128
t-169 48q-130 0 -215 -61t-104 -166q-5 -24 -7 -48t-1 -51t2.5 -46t6.5 -50.5t8 -46t10.5 -50.5t9.5 -48h389l-21 -119h-348q10 -101 0 -172q-36 -202 -194 -258l-3 -6q63 6 287 6h463z" />
    <glyph glyph-name="currency" unicode="&#xa4;" horiz-adv-x="1081" 
d="M616 440q88 0 164.5 68t93.5 160q17 94 -35 161.5t-141 67.5t-165 -67.5t-93 -161.5q-17 -93 34.5 -160.5t141.5 -67.5zM592 293q-109 0 -186 53l-125 -102l-101 121l123 100q-44 96 -24 205q22 111 90 194l-82 99l143 120l80 -96q102 60 215 60q110 0 195 -60l112 96
l98 -120l-114 -99q39 -85 20 -194q-21 -114 -94 -205l82 -100l-141 -121l-88 102q-95 -53 -203 -53z" />
    <glyph glyph-name="yen" unicode="&#xa5;" horiz-adv-x="1439" 
d="M721 590l-6 12h-389l22 123h307l-338 698l2 11h234l299 -670l541 670h233l-2 -11l-586 -698h305l-22 -123h-385l-10 -12l-21 -115h393l-22 -123h-393l-60 -352h-205l60 352h-397l22 123h397z" />
    <glyph glyph-name="brokenbar" unicode="&#xa6;" horiz-adv-x="489" 
d="M78 -459l153 856h166l-153 -856h-166zM285 713l153 856h166l-153 -856h-166z" />
    <glyph glyph-name="section" unicode="&#xa7;" horiz-adv-x="1210" 
d="M59 -150l97 140q179 -156 419 -156q146 0 229 50t97 132q6 37 -9 68t-45.5 52.5t-63.5 35t-72 23.5l-195 51q-93 26 -155.5 65.5t-89.5 84.5t-34.5 86t-0.5 83q17 92 86 165.5t174 115.5q-55 29 -92.5 66.5t-52.5 73t-20.5 73t3.5 67.5q16 98 93.5 174t190.5 116t240 40
q244 0 416 -102l-107 -150q-90 52 -165.5 70t-159.5 18q-270 0 -303 -166q-6 -46 28 -90.5t138 -74.5l184 -50q179 -46 260 -122t59 -199q-17 -87 -82.5 -166t-164.5 -133q177 -88 147 -262q-26 -155 -177.5 -257t-385.5 -102q-170 0 -294.5 50.5t-191.5 129.5zM997 559
q21 112 -92 152l-229 61q-96 -30 -158 -78t-72 -106q-23 -132 109 -164l227 -64q89 23 146 76.5t69 122.5z" />
    <glyph glyph-name="dieresis" unicode="&#xa8;" horiz-adv-x="1226" 
d="M500 1327q11 56 53 92.5t96 36.5q56 0 86.5 -37t20.5 -92q-11 -54 -55 -90.5t-99 -36.5q-54 0 -83.5 36.5t-18.5 90.5zM938 1327q11 56 53 92.5t96 36.5q56 0 86.5 -37t20.5 -92q-11 -54 -55 -90.5t-99 -36.5q-54 0 -83.5 36.5t-18.5 90.5z" />
    <glyph glyph-name="copyright" unicode="&#xa9;" horiz-adv-x="1650" 
d="M227 717q27 151 107 287.5t193.5 235.5t258.5 157.5t295 58.5t274 -58.5t202 -157.5t110 -235.5t6 -287.5q-36 -201 -160.5 -371t-309 -269.5t-384.5 -99.5t-348.5 99.5t-213.5 269t-30 371.5zM350 717q-29 -168 25.5 -309.5t178 -224.5t288.5 -83q166 0 319 83
t256.5 224.5t132.5 309.5q22 126 -4.5 239.5t-91.5 196.5t-168 131.5t-227 48.5q-166 0 -319 -82.5t-257 -224t-133 -309.5zM561 715q28 161 166 273t320 112q77 0 124.5 -21t112.5 -71l-90 -107q-45 29 -83 43t-93 14q-128 0 -203.5 -73.5t-89.5 -167.5q-5 -33 -4.5 -67
t15.5 -65.5t38.5 -56t65 -39t94.5 -14.5q38 0 73 8.5t57 18t64 30.5l54 -106q-62 -36 -91 -50.5t-77.5 -28t-102.5 -13.5q-181 0 -279.5 112t-70.5 269z" />
    <glyph glyph-name="ordfeminine" unicode="&#xaa;" horiz-adv-x="1030" 
d="M956 1434h154l-121 -674h-153l18 90q-50 -48 -118.5 -76.5t-129.5 -28.5q-142 0 -215.5 102.5t-48.5 252.5q25 147 136.5 248.5t258.5 101.5q143 0 203 -102zM496 1100q-18 -93 26 -154t135 -61q88 0 154.5 57.5t83.5 153.5q17 93 -28 154t-136 61q-93 0 -155 -60
t-80 -151zM240 444l22 125h688l-22 -125h-688z" />
    <glyph glyph-name="guillemotleft" unicode="&#xab;" horiz-adv-x="1130" 
d="M625 594l8 33l457 436l104 -94l-375 -359l248 -356l-137 -94zM195 594l8 33l456 436l105 -94l-375 -359l248 -356l-137 -94z" />
    <glyph glyph-name="logicalnot" unicode="&#xac;" horiz-adv-x="1267" 
d="M260 762l29 182h987l-94 -536h-176l63 354h-809z" />
    <glyph glyph-name="uni00AD" unicode="&#xad;" horiz-adv-x="1173" 
d="M264 604l33 182h854l-33 -182h-854z" />
    <glyph glyph-name="registered" unicode="&#xae;" horiz-adv-x="1650" 
d="M227 717q27 151 107 287.5t193.5 235.5t258.5 157.5t295 58.5t274 -58.5t202 -157.5t110 -235.5t6 -287.5q-36 -201 -160.5 -371t-309 -269.5t-384.5 -99.5t-348.5 99.5t-213.5 269t-30 371.5zM350 717q-29 -168 25.5 -309.5t178 -224.5t288.5 -83q166 0 319 83
t256.5 224.5t132.5 309.5q22 126 -4.5 239.5t-91.5 196.5t-168 131.5t-227 48.5q-166 0 -319 -82.5t-257 -224t-133 -309.5zM1014 358l-82 269h-86l-47 -269h-148l129 734h297q105 0 155 -69.5t32 -170.5q-14 -80 -63 -136t-128 -79l111 -279h-170zM866 745h129q46 0 77 29
t42 78t-11.5 85t-68.5 36h-129z" />
    <glyph glyph-name="macron" unicode="&#xaf;" horiz-adv-x="1103" 
d="M512 1391h571l-28 -156h-572z" />
    <glyph glyph-name="degree" unicode="&#xb0;" horiz-adv-x="872" 
d="M287 1133q25 142 145.5 245t263.5 103q145 0 228.5 -102.5t58.5 -245.5q-25 -142 -146 -243.5t-264 -101.5q-145 0 -228 101t-58 244zM440 1133q-17 -85 31 -145t129 -60q83 0 149.5 60t81.5 145q17 87 -28 148.5t-129 61.5q-79 0 -148 -62t-86 -148z" />
    <glyph glyph-name="plusminus" unicode="&#xb1;" horiz-adv-x="1261" 
d="M799 459h-174l57 315h-391l28 174h392l57 314h174l-57 -314h389l-29 -174h-389zM1135 160h-955l33 168h954z" />
    <glyph glyph-name="twosuperior" unicode="&#xb2;" horiz-adv-x="684" 
d="M670 1190l-213 -156q22 0 52 0.5t52.5 1t24.5 0.5h225l-18 -108h-551l-2 78l354 264q99 74 117 157q10 55 -19 85t-86 30q-68 0 -106 -33.5t-47 -76.5h-142q6 36 28 73.5t58.5 73t96.5 58t133 22.5q119 0 176 -66.5t39 -162.5q-12 -75 -55.5 -129.5t-116.5 -110.5z" />
    <glyph glyph-name="threesuperior" unicode="&#xb3;" horiz-adv-x="669" 
d="M225 1008l86 88q35 -36 84.5 -55t96.5 -19q73 0 122 38.5t60 96.5q10 60 -28 101.5t-99 41.5q-62 0 -107 -24l-45 67l262 205h-313l21 101h509l-14 -72l-242 -193q103 -10 153.5 -74t33.5 -157q-20 -104 -110 -172t-226 -68q-154 0 -244 95z" />
    <glyph glyph-name="acute" unicode="&#xb4;" horiz-adv-x="1028" 
d="M702 1481h224l-283 -307h-174z" />
    <glyph glyph-name="mu" unicode="&#xb5;" horiz-adv-x="1222" 
d="M346 20l-57 -325h-201l238 1329h198l-112 -625q-23 -123 28 -184t135 -61q36 0 77.5 9.5t93.5 37t96.5 69.5t81.5 114.5t53 164.5l84 475h201l-183 -1024h-198l37 205q-53 -109 -155 -168.5t-231 -59.5q-110 0 -186 43z" />
    <glyph glyph-name="paragraph" unicode="&#xb6;" horiz-adv-x="1335" 
d="M657 1434h326l-4 -19q-27 -19 -44.5 -36.5t-37 -54t-27.5 -85.5l-270 -1526h-154l187 1051h-94q-140 0 -220 96.5t-55 237.5q25 140 139.5 238t253.5 98zM1130 1208l-266 -1495h-153l268 1504q13 79 58.5 134t106 80t130.5 25q121 0 176 -60.5t37 -156.5l-8 -33
q-9 -36 -21 -59h-145q13 25 22 70q7 45 -18 69.5t-66 24.5q-45 0 -78 -25.5t-43 -77.5z" />
    <glyph glyph-name="periodcentered" unicode="&#xb7;" horiz-adv-x="571" 
d="M233 565q12 63 63 107.5t114 44.5t100 -44.5t25 -107.5t-63 -106t-114 -43t-100 43t-25 106z" />
    <glyph glyph-name="cedilla" unicode="&#xb8;" horiz-adv-x="931" 
d="M494 18l4 17h84q131 -113 102 -260q-19 -113 -109.5 -172.5t-191.5 -59.5q-97 0 -156.5 62t-64.5 157l96 50q37 -121 145 -121q47 0 90.5 34.5t53.5 90.5q8 42 -4.5 96.5t-48.5 105.5z" />
    <glyph glyph-name="onesuperior" unicode="&#xb9;" horiz-adv-x="434" 
d="M309 1432l-16 100l270 117h72l-127 -723h-135l100 573z" />
    <glyph glyph-name="ordmasculine" unicode="&#xba;" horiz-adv-x="1001" 
d="M340 1092q25 146 145.5 249t266.5 103q147 0 233.5 -103.5t61.5 -248.5q-25 -146 -149 -249.5t-271 -103.5t-229.5 103t-57.5 250zM492 1090q-17 -87 30 -149t131 -62q83 0 152 62t86 149t-31.5 151t-130.5 64q-84 0 -151.5 -63t-85.5 -152zM236 444l22 125h686l-22 -125
h-686z" />
    <glyph glyph-name="guillemotright" unicode="&#xbb;" horiz-adv-x="1130" 
d="M719 627l-8 -33l-457 -434l-104 94l374 356l-248 359l138 94zM1149 627l-8 -33l-457 -434l-104 94l374 356l-247 359l137 94z" />
    <glyph glyph-name="onequarter" unicode="&#xbc;" horiz-adv-x="1681" 
d="M315 1217l-16 100l268 117h72l-129 -723h-135l104 573zM1161 289h211l43 233zM1356 190h-352l12 72l477 461h88l-78 -434h148l-17 -99h-147l-33 -190h-131zM1745 1505l-1405 -1585h-143l1402 1585h146z" />
    <glyph glyph-name="onehalf" unicode="&#xbd;" horiz-adv-x="1742" 
d="M1735 1505l-1403 -1585h-144l1401 1585h146zM315 1217l-16 100l268 117h72l-129 -723h-135l104 573zM1540 262l-215 -156q22 0 52 1t52.5 1.5t24.5 0.5h225l-18 -109h-551v78l352 264q102 76 115 158q10 56 -17.5 85t-84.5 29q-68 0 -105.5 -33.5t-46.5 -76.5h-141
q7 37 27.5 74t56.5 72.5t96 58t133 22.5q119 0 176 -66.5t39 -162.5q-12 -75 -55 -130t-115 -110z" />
    <glyph glyph-name="threequarters" unicode="&#xbe;" horiz-adv-x="1734" 
d="M1782 1505l-1405 -1585h-144l1403 1585h146zM1221 289h211l43 233zM1415 190h-352l14 72l477 461h88l-79 -434h147l-16 -99h-148l-30 -190h-132zM223 793l86 88q33 -36 82 -55t96 -19q73 0 122.5 38.5t60.5 96.5q10 61 -27 102t-98 41q-64 0 -109 -24l-43 67l262 205
h-313l18 101h510l-12 -72l-242 -193q103 -10 152.5 -74t32.5 -157q-18 -104 -107.5 -172t-226.5 -68q-157 0 -244 95z" />
    <glyph glyph-name="questiondown" unicode="&#xbf;" horiz-adv-x="1052" 
d="M592 575h184q-9 -46 -13.5 -66t-11.5 -48.5t-15 -40.5t-19 -29t-29 -29t-38.5 -25.5t-53.5 -31.5q-157 -84 -233 -157.5t-95 -180.5q-19 -105 44.5 -166t193.5 -61q116 0 189.5 51.5t90.5 145.5q7 56 7 63h178q7 -32 -2 -92q-9 -57 -44 -114t-95 -109t-155.5 -84.5
t-211.5 -32.5q-133 0 -232 48t-146 139.5t-26 211.5q10 57 35 110.5t62.5 97.5t75 79.5t87 69t82 54t77 45t57.5 32.5q27 16 36 37.5t21 82.5zM891 897q-10 -63 -62.5 -107.5t-115.5 -44.5t-98.5 44.5t-24.5 107.5q10 63 62.5 106.5t115.5 43.5t98.5 -43.5t24.5 -106.5z" />
    <glyph glyph-name="Agrave" unicode="&#xc0;" horiz-adv-x="1394" 
d="M782 1851h211l109 -284h-170zM1069 463h-577l421 774zM397 297h701l63 -297h207l-301 1434h-238l-802 -1434h211z" />
    <glyph glyph-name="Aacute" unicode="&#xc1;" horiz-adv-x="1394" 
d="M1053 1851h211l-252 -284h-170zM1069 463h-577l421 774zM397 297h701l63 -297h207l-301 1434h-238l-802 -1434h211z" />
    <glyph glyph-name="Acircumflex" unicode="&#xc2;" horiz-adv-x="1394" 
d="M920 1851h208l172 -284h-155l-141 176l-203 -176h-156zM1069 463h-577l421 774zM397 297h701l63 -297h207l-301 1434h-238l-802 -1434h211z" />
    <glyph glyph-name="Atilde" unicode="&#xc3;" horiz-adv-x="1394" 
d="M1069 463h-577l421 774zM397 297h701l63 -297h207l-301 1434h-238l-802 -1434h211zM1317 1821q-47 -114 -98 -163.5t-119 -49.5q-46 0 -128 41t-112 41q-36 0 -61 -22t-58 -79l-84 27q49 115 99 164t118 49q45 0 129 -41t115 -41q36 0 59.5 21.5t55.5 78.5z" />
    <glyph glyph-name="Adieresis" unicode="&#xc4;" horiz-adv-x="1394" 
d="M647 1694q10 55 53 92t97 37q56 0 86 -37t20 -92q-11 -54 -53.5 -90.5t-97.5 -36.5q-54 0 -84.5 36.5t-20.5 90.5zM1085 1694q10 55 53 92t97 37q56 0 86 -37t20 -92q-11 -54 -53.5 -90.5t-97.5 -36.5q-54 0 -84.5 36.5t-20.5 90.5zM1069 463h-577l421 774zM397 297h701
l63 -297h207l-301 1434h-238l-802 -1434h211z" />
    <glyph glyph-name="Aring" unicode="&#xc5;" horiz-adv-x="1394" 
d="M788 1737q17 91 87.5 149t162.5 58q94 0 147 -58t36 -149q-15 -88 -89.5 -146.5t-166.5 -58.5t-143 57.5t-34 147.5zM891 1737q-8 -48 18.5 -80.5t73.5 -32.5t86.5 33t46.5 80t-20 78.5t-74 31.5q-48 0 -86 -31.5t-45 -78.5zM1069 463h-577l421 774zM397 297h701l63 -297
h207l-301 1434h-238l-802 -1434h211z" />
    <glyph glyph-name="AE" unicode="&#xc6;" horiz-adv-x="1898" 
d="M743 764h306l90 502h-41zM1149 168h674l-29 -168h-879l105 598h-393l-418 -598h-221l1026 1434h1032l-29 -168h-674l-90 -502h607l-31 -168h-606z" />
    <glyph glyph-name="Ccedilla" unicode="&#xc7;" horiz-adv-x="1398" 
d="M219 717q27 150 104.5 284t193 235t274 160.5t335.5 59.5q149 0 254 -39t191 -114l-107 -154q-63 55 -163.5 89t-208.5 34q-132 0 -247.5 -44t-199.5 -120t-140 -176.5t-77 -214.5q-14 -92 -7 -174t44.5 -152t94.5 -121t143.5 -79.5t191.5 -28.5q109 0 222 34t194 89
l51 -154q-113 -75 -232 -114.5t-268 -39.5h-12q69 -91 49 -202q-19 -113 -109.5 -172.5t-191.5 -59.5q-97 0 -156.5 62t-64.5 157l96 50q37 -121 145 -121q47 0 90.5 34.5t53.5 90.5q15 86 -33 172q-116 16 -210.5 62.5t-158 114.5t-104 156t-47.5 187.5t10 208.5z" />
    <glyph glyph-name="Egrave" unicode="&#xc8;" horiz-adv-x="1212" 
d="M1141 168l-29 -168h-911l252 1434h911l-29 -168h-706l-86 -480h616l-29 -168h-616l-80 -450h707zM729 1851h211l109 -284h-170z" />
    <glyph glyph-name="Eacute" unicode="&#xc9;" horiz-adv-x="1212" 
d="M1141 168l-29 -168h-911l252 1434h911l-29 -168h-706l-86 -480h616l-29 -168h-616l-80 -450h707zM1010 1851h211l-252 -284h-170z" />
    <glyph glyph-name="Ecircumflex" unicode="&#xca;" horiz-adv-x="1212" 
d="M1141 168l-29 -168h-911l252 1434h911l-29 -168h-706l-86 -480h616l-29 -168h-616l-80 -450h707zM850 1851h209l172 -284h-156l-141 176l-203 -176h-156z" />
    <glyph glyph-name="Edieresis" unicode="&#xcb;" horiz-adv-x="1212" 
d="M1141 168l-29 -168h-911l252 1434h911l-29 -168h-706l-86 -480h616l-29 -168h-616l-80 -450h707zM578 1694q11 56 53 92.5t96 36.5q56 0 86.5 -37t20.5 -92q-11 -54 -54 -90.5t-98 -36.5q-54 0 -84 36.5t-20 90.5zM1016 1694q11 56 53 92.5t96 36.5q56 0 86.5 -37
t20.5 -92q-11 -54 -54 -90.5t-98 -36.5q-54 0 -84 36.5t-20 90.5z" />
    <glyph glyph-name="Igrave" unicode="&#xcc;" horiz-adv-x="606" 
d="M406 0l251 1434h-204l-252 -1434h205zM373 1851h211l108 -284h-170z" />
    <glyph glyph-name="Iacute" unicode="&#xcd;" horiz-adv-x="606" 
d="M406 0l251 1434h-204l-252 -1434h205zM678 1851h211l-252 -284h-170z" />
    <glyph glyph-name="Icircumflex" unicode="&#xce;" horiz-adv-x="606" 
d="M406 0l251 1434h-204l-252 -1434h205zM528 1851h209l172 -284h-155l-142 176l-202 -176h-156z" />
    <glyph glyph-name="Idieresis" unicode="&#xcf;" horiz-adv-x="606" 
d="M406 0l251 1434h-204l-252 -1434h205zM256 1694q10 55 53 92t97 37q56 0 86 -37t20 -92q-11 -54 -54 -90.5t-98 -36.5q-54 0 -84 36.5t-20 90.5zM694 1694q10 55 53 92t97 37q56 0 86 -37t20 -92q-11 -54 -53.5 -90.5t-97.5 -36.5q-54 0 -84.5 36.5t-20.5 90.5z" />
    <glyph glyph-name="Eth" unicode="&#xd0;" horiz-adv-x="1492" 
d="M1524 717q-27 -148 -101.5 -278.5t-185 -228t-260.5 -154t-318 -56.5h-456l112 643h-159l26 143h160l113 648h456q168 0 299 -56.5t207.5 -154t105 -228t1.5 -278.5zM1313 717q27 153 -13 276.5t-148 198t-267 74.5h-252l-86 -480h332l-27 -143h-332l-84 -475h252
q160 0 294.5 74.5t218.5 198t112 276.5z" />
    <glyph glyph-name="Ntilde" unicode="&#xd1;" horiz-adv-x="1544" 
d="M592 1061l600 -1061h151l252 1434h-206l-187 -1057l-598 1057h-151l-252 -1434h205zM1403 1821q-47 -114 -98 -163.5t-119 -49.5q-46 0 -128 41t-112 41q-36 0 -61 -22t-58 -79l-84 27q49 115 99.5 164t118.5 49q45 0 129 -41t114 -41q36 0 59.5 21.5t55.5 78.5z" />
    <glyph glyph-name="Ograve" unicode="&#xd2;" horiz-adv-x="1675" 
d="M219 717q35 200 165.5 370.5t319.5 269.5t390 99q151 0 278 -58.5t208.5 -157.5t116.5 -236t9 -287q-27 -150 -110.5 -287t-201 -236.5t-265.5 -158t-298 -58.5q-151 0 -278 58.5t-208.5 158t-116.5 236.5t-9 287zM428 717q-27 -156 21.5 -283.5t157.5 -199.5t255 -72
q144 0 280 72t232 200t123 283q29 155 -21 283t-160.5 200t-254.5 72q-147 0 -281.5 -72t-228.5 -199.5t-123 -283.5zM883 1851h211l106 -284h-170z" />
    <glyph glyph-name="Oacute" unicode="&#xd3;" horiz-adv-x="1675" 
d="M219 717q35 200 165.5 370.5t319.5 269.5t390 99q151 0 278 -58.5t208.5 -157.5t116.5 -236t9 -287q-27 -150 -110.5 -287t-201 -236.5t-265.5 -158t-298 -58.5q-151 0 -278 58.5t-208.5 158t-116.5 236.5t-9 287zM428 717q-27 -156 21.5 -283.5t157.5 -199.5t255 -72
q144 0 280 72t232 200t123 283q29 155 -21 283t-160.5 200t-254.5 72q-147 0 -281.5 -72t-228.5 -199.5t-123 -283.5zM1227 1851h211l-254 -284h-170z" />
    <glyph glyph-name="Ocircumflex" unicode="&#xd4;" horiz-adv-x="1675" 
d="M219 717q35 200 165.5 370.5t319.5 269.5t390 99q151 0 278 -58.5t208.5 -157.5t116.5 -236t9 -287q-27 -150 -110.5 -287t-201 -236.5t-265.5 -158t-298 -58.5q-151 0 -278 58.5t-208.5 158t-116.5 236.5t-9 287zM428 717q-27 -156 21.5 -283.5t157.5 -199.5t255 -72
q144 0 280 72t232 200t123 283q29 155 -21 283t-160.5 200t-254.5 72q-147 0 -281.5 -72t-228.5 -199.5t-123 -283.5zM1061 1851h209l170 -284h-156l-139 176l-205 -176h-156z" />
    <glyph glyph-name="Otilde" unicode="&#xd5;" horiz-adv-x="1675" 
d="M219 717q35 200 165.5 370.5t319.5 269.5t390 99q151 0 278 -58.5t208.5 -157.5t116.5 -236t9 -287q-27 -150 -110.5 -287t-201 -236.5t-265.5 -158t-298 -58.5q-151 0 -278 58.5t-208.5 158t-116.5 236.5t-9 287zM428 717q-27 -156 21.5 -283.5t157.5 -199.5t255 -72
q144 0 280 72t232 200t123 283q29 155 -21 283t-160.5 200t-254.5 72q-147 0 -281.5 -72t-228.5 -199.5t-123 -283.5zM1386 1847l84 -26q-49 -115 -99 -164t-118 -49q-47 0 -129 41t-112 41q-36 0 -60.5 -22t-56.5 -79l-84 27q49 115 99 164t118 49q46 0 130 -41t114 -41
q36 0 59 21t55 79z" />
    <glyph glyph-name="Odieresis" unicode="&#xd6;" horiz-adv-x="1675" 
d="M219 717q35 200 165.5 370.5t319.5 269.5t390 99q151 0 278 -58.5t208.5 -157.5t116.5 -236t9 -287q-27 -150 -110.5 -287t-201 -236.5t-265.5 -158t-298 -58.5q-151 0 -278 58.5t-208.5 158t-116.5 236.5t-9 287zM428 717q-27 -156 21.5 -283.5t157.5 -199.5t255 -72
q144 0 280 72t232 200t123 283q29 155 -21 283t-160.5 200t-254.5 72q-147 0 -281.5 -72t-228.5 -199.5t-123 -283.5zM786 1694q10 55 54 92t98 37q55 0 85 -36.5t19 -92.5q-11 -54 -53.5 -90.5t-97.5 -36.5q-54 0 -84.5 36.5t-20.5 90.5zM1225 1694q10 55 53.5 92t97.5 37
q56 0 85.5 -37t19.5 -92q-11 -54 -54 -90.5t-98 -36.5q-54 0 -84 36.5t-20 90.5z" />
    <glyph glyph-name="multiply" unicode="&#xd7;" horiz-adv-x="1056" 
d="M1001 340l-145 -125l-240 293l-342 -293l-100 125l342 291l-240 289l148 122l235 -288l342 288l103 -122l-342 -289z" />
    <glyph glyph-name="Oslash" unicode="&#xd8;" horiz-adv-x="1675" 
d="M283 0l114 137q-113 105 -161.5 255.5t-16.5 324.5q37 201 167 371t319 269t391 99q191 0 344 -94l137 160l113 -88l-140 -162q101 -105 143 -249t13 -306q-27 -150 -110.5 -287t-201 -236.5t-265.5 -158t-298 -58.5q-181 0 -315 76l-123 -141zM428 717
q-23 -126 6.5 -234.5t100.5 -185.5l770 907q-109 68 -244 68q-147 0 -281.5 -72t-228.5 -199.5t-123 -283.5zM1497 717q22 113 -1 213.5t-83 177.5l-764 -897q100 -49 215 -49q222 0 407 160t226 395z" />
    <glyph glyph-name="Ugrave" unicode="&#xd9;" horiz-adv-x="1495" 
d="M1364 1434h205l-160 -904q-24 -131 -88.5 -237.5t-154.5 -174.5t-198.5 -104.5t-224.5 -36.5t-212 36.5t-162.5 104.5t-92.5 174.5t-2 237.5l160 904h205l-160 -904q-32 -178 54 -273t241 -95q156 0 277 95.5t153 272.5zM821 1851h211l107 -284h-170z" />
    <glyph glyph-name="Uacute" unicode="&#xda;" horiz-adv-x="1495" 
d="M1364 1434h205l-160 -904q-24 -131 -88.5 -237.5t-154.5 -174.5t-198.5 -104.5t-224.5 -36.5t-212 36.5t-162.5 104.5t-92.5 174.5t-2 237.5l160 904h205l-160 -904q-32 -178 54 -273t241 -95q156 0 277 95.5t153 272.5zM1112 1851h211l-254 -284h-170z" />
    <glyph glyph-name="Ucircumflex" unicode="&#xdb;" horiz-adv-x="1495" 
d="M1364 1434h205l-160 -904q-24 -131 -88.5 -237.5t-154.5 -174.5t-198.5 -104.5t-224.5 -36.5t-212 36.5t-162.5 104.5t-92.5 174.5t-2 237.5l160 904h205l-160 -904q-32 -178 54 -273t241 -95q156 0 277 95.5t153 272.5zM973 1851h209l170 -284h-156l-139 176l-205 -176
h-156z" />
    <glyph glyph-name="Udieresis" unicode="&#xdc;" horiz-adv-x="1495" 
d="M1364 1434h205l-160 -904q-24 -131 -88.5 -237.5t-154.5 -174.5t-198.5 -104.5t-224.5 -36.5t-212 36.5t-162.5 104.5t-92.5 174.5t-2 237.5l160 904h205l-160 -904q-32 -178 54 -273t241 -95q156 0 277 95.5t153 272.5zM698 1694q10 55 54 92t98 37q55 0 85 -36.5
t19 -92.5q-11 -54 -53.5 -90.5t-97.5 -36.5q-54 0 -84.5 36.5t-20.5 90.5zM1137 1694q10 55 53.5 92t97.5 37q56 0 85.5 -37t19.5 -92q-11 -54 -54 -90.5t-98 -36.5q-54 0 -84 36.5t-20 90.5z" />
    <glyph glyph-name="Yacute" unicode="&#xdd;" horiz-adv-x="1388" 
d="M694 590l-397 821l4 23h225l301 -670l539 670h225l-4 -23l-688 -821l-102 -590h-205zM1065 1851h211l-252 -284h-170z" />
    <glyph glyph-name="Thorn" unicode="&#xde;" horiz-adv-x="1296" 
d="M463 332l-57 -332h-205l252 1434h204l-57 -330h485q96 0 165.5 -55t97 -143.5t8.5 -188.5q-31 -159 -146.5 -272t-269.5 -113h-477zM492 500h393q109 0 177 64t81 153q9 42 4 81t-21 70t-57 49.5t-104 18.5h-394z" />
    <glyph glyph-name="germandbls" unicode="&#xdf;" horiz-adv-x="1224" 
d="M817 1329q-110 0 -179.5 -68t-92.5 -196l-187 -1065h-200l186 1065q36 208 168.5 318t333.5 110q203 0 299 -97.5t65 -271.5q-44 -244 -323 -311q173 -18 267.5 -128.5t62.5 -278.5q-30 -174 -181 -290t-360 -116h-117l-18 168h164q114 0 201.5 71.5t105.5 172.5
q25 138 -80 223.5t-301 85.5l-15 160q177 0 271.5 63t113.5 166q19 105 -30 162t-154 57z" />
    <glyph glyph-name="agrave" unicode="&#xe0;" horiz-adv-x="1318" 
d="M598 1481h223l123 -307h-174zM174 512q-27 -147 13.5 -269t145 -194t253.5 -72q238 0 403 187l-26 -164h198l180 1024h-198l-29 -164q-102 187 -338 187q-150 0 -279 -72.5t-212 -193.5t-111 -269zM1057 512q-29 -156 -146 -257t-270 -101q-155 0 -225.5 102.5
t-44.5 255.5q26 152 134 255t263 103q154 0 234 -100.5t55 -257.5z" />
    <glyph glyph-name="aacute" unicode="&#xe1;" horiz-adv-x="1316" 
d="M958 1481h224l-283 -307h-174zM172 512q-27 -147 13.5 -269t145 -194t253.5 -72q238 0 403 187l-26 -164h198l180 1024h-198l-29 -164q-102 187 -338 187q-150 0 -279 -72.5t-212 -193.5t-111 -269zM1055 512q-29 -156 -146 -257t-270 -101q-155 0 -225.5 102.5
t-44.5 255.5q26 152 134 255t263 103q154 0 234 -100.5t55 -257.5z" />
    <glyph glyph-name="acircumflex" unicode="&#xe2;" horiz-adv-x="1316" 
d="M791 1481h208l187 -307h-156l-156 188l-225 -188h-155zM172 512q-27 -147 13.5 -269t145 -194t253.5 -72q238 0 403 187l-26 -164h198l180 1024h-198l-29 -164q-102 187 -338 187q-150 0 -279 -72.5t-212 -193.5t-111 -269zM1055 512q-29 -156 -146 -257t-270 -101
q-155 0 -225.5 102.5t-44.5 255.5q26 152 134 255t263 103q154 0 234 -100.5t55 -257.5z" />
    <glyph glyph-name="atilde" unicode="&#xe3;" horiz-adv-x="1316" 
d="M1206 1432q-49 -115 -100 -164t-119 -49q-47 0 -129.5 40.5t-112.5 40.5q-35 0 -57.5 -20.5t-56.5 -79.5l-86 27q51 115 101 164t118 49q46 0 128 -41t112 -41q36 0 60 21.5t56 78.5zM172 512q-27 -147 13.5 -269t145 -194t253.5 -72q238 0 403 187l-26 -164h198
l180 1024h-198l-29 -164q-102 187 -338 187q-150 0 -279 -72.5t-212 -193.5t-111 -269zM1055 512q-29 -156 -146 -257t-270 -101q-155 0 -225.5 102.5t-44.5 255.5q26 152 134 255t263 103q154 0 234 -100.5t55 -257.5z" />
    <glyph glyph-name="adieresis" unicode="&#xe4;" horiz-adv-x="1316" 
d="M528 1327q10 55 53 92t97 37q56 0 86 -37t20 -92q-11 -54 -53.5 -90.5t-97.5 -36.5q-54 0 -84.5 36.5t-20.5 90.5zM967 1327q11 56 53 92.5t96 36.5q56 0 86.5 -37t20.5 -92q-11 -54 -54 -90.5t-98 -36.5q-54 0 -84 36.5t-20 90.5zM172 512q-27 -147 13.5 -269t145 -194
t253.5 -72q238 0 403 187l-26 -164h198l180 1024h-198l-29 -164q-102 187 -338 187q-150 0 -279 -72.5t-212 -193.5t-111 -269zM1055 512q-29 -156 -146 -257t-270 -101q-155 0 -225.5 102.5t-44.5 255.5q26 152 134 255t263 103q154 0 234 -100.5t55 -257.5z" />
    <glyph glyph-name="aring" unicode="&#xe5;" horiz-adv-x="1316" 
d="M659 1389q17 91 89.5 154t162.5 63q91 0 144.5 -63.5t36.5 -153.5q-15 -89 -91 -152t-167 -63t-141.5 62t-33.5 153zM762 1389q-8 -48 18.5 -80.5t73.5 -32.5t86.5 33t46.5 80q8 47 -19.5 79.5t-74.5 32.5t-85.5 -32.5t-45.5 -79.5zM172 512q-27 -147 13.5 -269t145 -194
t253.5 -72q238 0 403 187l-26 -164h198l180 1024h-198l-29 -164q-102 187 -338 187q-150 0 -279 -72.5t-212 -193.5t-111 -269zM1055 512q-29 -156 -146 -257t-270 -101q-155 0 -225.5 102.5t-44.5 255.5q26 152 134 255t263 103q154 0 234 -100.5t55 -257.5z" />
    <glyph glyph-name="ae" unicode="&#xe6;" horiz-adv-x="1912" 
d="M883 328l6 116q-79 22 -173.5 32.5t-142.5 10.5q-116 0 -180 -52.5t-78 -123.5q-14 -72 37 -126t170 -54q91 0 184.5 48.5t176.5 148.5zM897 584l6 34q42 252 -221 252q-174 0 -338 -110l-47 143q85 73 201.5 108.5t232.5 35.5q295 0 350 -185q88 88 203 136.5t242 48.5
q103 0 186.5 -33t143 -101.5t80 -172.5t-2.5 -246h-862q-32 -147 59.5 -243.5t262.5 -96.5q91 0 173 31t171 98l90 -115q-203 -191 -465 -191q-162 0 -272.5 62t-161.5 172q-70 -104 -191 -169t-272 -65q-111 0 -195.5 37.5t-128 114t-24.5 180.5q26 142 146 232t317 90
q192 0 317 -47zM1497 872q-49 0 -97 -10.5t-99.5 -34.5t-99 -70t-81.5 -110h635q-28 225 -258 225z" />
    <glyph glyph-name="ccedilla" unicode="&#xe7;" horiz-adv-x="1083" 
d="M670 -23q69 -91 49 -202q-19 -113 -109.5 -172.5t-191.5 -59.5q-97 0 -156.5 62t-64.5 157l96 50q37 -121 145 -121q47 0 90.5 34.5t53.5 90.5q15 82 -31 170q-216 29 -318 171.5t-65 342.5q21 114 77 212.5t140.5 173.5t202.5 118t254 43q199 0 344 -125l-119 -136
q-94 84 -248 84q-167 0 -293.5 -100.5t-154.5 -257.5t63 -257.5t256 -100.5q155 0 279 84l71 -136q-172 -112 -370 -125z" />
    <glyph glyph-name="egrave" unicode="&#xe8;" horiz-adv-x="1218" 
d="M1042 283l91 -115q-203 -191 -482 -191q-130 0 -232 42.5t-162 115t-83.5 169t-5.5 204.5q42 228 226 383.5t421 155.5q82 0 154 -21t131 -64.5t96 -109t50 -155t-7 -203.5h-874q-32 -148 58.5 -244t260.5 -96q186 0 358 129zM786 872q-49 0 -97 -10.5t-99.5 -34.5
t-98.5 -70t-81 -110h651q-8 66 -36 113t-69 70t-82 32.5t-88 9.5zM606 1481h223l123 -307h-174z" />
    <glyph glyph-name="eacute" unicode="&#xe9;" horiz-adv-x="1218" 
d="M1042 283l91 -115q-203 -191 -482 -191q-130 0 -232 42.5t-162 115t-83.5 169t-5.5 204.5q42 228 226 383.5t421 155.5q82 0 154 -21t131 -64.5t96 -109t50 -155t-7 -203.5h-874q-32 -148 58.5 -244t260.5 -96q186 0 358 129zM786 872q-49 0 -97 -10.5t-99.5 -34.5
t-98.5 -70t-81 -110h651q-8 66 -36 113t-69 70t-82 32.5t-88 9.5zM938 1481h223l-282 -307h-174z" />
    <glyph glyph-name="ecircumflex" unicode="&#xea;" horiz-adv-x="1218" 
d="M1042 283l91 -115q-203 -191 -482 -191q-130 0 -232 42.5t-162 115t-83.5 169t-5.5 204.5q42 228 226 383.5t421 155.5q82 0 154 -21t131 -64.5t96 -109t50 -155t-7 -203.5h-874q-32 -148 58.5 -244t260.5 -96q186 0 358 129zM786 872q-49 0 -97 -10.5t-99.5 -34.5
t-98.5 -70t-81 -110h651q-8 66 -36 113t-69 70t-82 32.5t-88 9.5zM766 1481h209l186 -307h-155l-156 188l-225 -188h-156z" />
    <glyph glyph-name="edieresis" unicode="&#xeb;" horiz-adv-x="1218" 
d="M1042 283l91 -115q-203 -191 -482 -191q-130 0 -232 42.5t-162 115t-83.5 169t-5.5 204.5q42 228 226 383.5t421 155.5q82 0 154 -21t131 -64.5t96 -109t50 -155t-7 -203.5h-874q-32 -148 58.5 -244t260.5 -96q186 0 358 129zM786 872q-49 0 -97 -10.5t-99.5 -34.5
t-98.5 -70t-81 -110h651q-8 66 -36 113t-69 70t-82 32.5t-88 9.5zM498 1327q11 56 53 92.5t96 36.5q56 0 86.5 -37t20.5 -92q-11 -54 -54 -90.5t-98 -36.5q-54 0 -84 36.5t-20 90.5zM936 1327q11 56 53 92.5t96 36.5q56 0 86.5 -37t20.5 -92q-11 -54 -54 -90.5t-98 -36.5
q-54 0 -84 36.5t-20 90.5z" />
    <glyph glyph-name="igrave" unicode="&#xec;" horiz-adv-x="526" 
d="M362 0l181 1024h-199l-180 -1024h198zM231 1481h224l123 -307h-175z" />
    <glyph glyph-name="iacute" unicode="&#xed;" horiz-adv-x="526" 
d="M362 0l181 1024h-199l-180 -1024h198zM592 1481h223l-283 -307h-174z" />
    <glyph glyph-name="icircumflex" unicode="&#xee;" horiz-adv-x="526" 
d="M362 0l181 1024h-199l-180 -1024h198zM412 1481h209l186 -307h-156l-155 188l-226 -188h-155z" />
    <glyph glyph-name="idieresis" unicode="&#xef;" horiz-adv-x="526" 
d="M362 0l181 1024h-199l-180 -1024h198zM143 1327q10 55 53 92t97 37q56 0 86 -37t20 -92q-11 -54 -54.5 -90.5t-98.5 -36.5q-54 0 -83.5 36.5t-19.5 90.5zM582 1327q11 56 53 92.5t96 36.5q56 0 86.5 -37t20.5 -92q-11 -54 -55 -90.5t-99 -36.5q-54 0 -83.5 36.5
t-18.5 90.5z" />
    <glyph glyph-name="eth" unicode="&#xf0;" horiz-adv-x="1243" 
d="M817 1190l-264 -105l-27 107l209 84q-25 24 -72.5 65.5t-60.5 53.5l172 104q15 -15 47.5 -44t58 -53.5t46.5 -49.5l250 100l34 -106l-209 -84q142 -176 210.5 -372.5t33.5 -387.5q-21 -122 -82 -222.5t-146 -166t-186.5 -101t-207.5 -35.5q-152 0 -265 71.5t-162.5 193.5
t-25.5 268q41 221 214 369.5t384 148.5q163 0 205 -65q-51 107 -156 227zM369 512q-25 -152 54.5 -255t221.5 -103q160 0 267 101.5t137 262.5q17 95 -8 171.5t-92 122.5t-167 46q-152 0 -270 -99t-143 -247z" />
    <glyph glyph-name="ntilde" unicode="&#xf1;" horiz-adv-x="1236" 
d="M995 578l-100 -578h199l100 578q42 236 -46 352.5t-263 116.5q-129 0 -231 -59.5t-152 -168.5l35 205h-199l-180 -1024h198l82 475q16 92 53 164.5t81.5 114.5t96.5 69.5t93.5 37t77.5 9.5q90 0 135.5 -70t19.5 -222zM1161 1432q-49 -115 -99 -164t-118 -49
q-46 0 -130 40.5t-114 40.5q-35 0 -57.5 -20.5t-56.5 -79.5l-84 27q49 115 99 164t118 49q45 0 127 -41t112 -41q36 0 61 21.5t58 78.5z" />
    <glyph glyph-name="ograve" unicode="&#xf2;" 
d="M170 512q24 145 118 268.5t231 195t282 71.5q147 0 258 -72t160.5 -194.5t25.5 -268.5q-27 -145 -121 -268t-230.5 -195t-283.5 -72q-144 0 -255 71t-161.5 194.5t-23.5 269.5zM365 510q-25 -148 56 -252t220 -104q140 0 259 104.5t144 251.5q25 149 -55 254.5
t-221 105.5q-139 0 -256.5 -105.5t-146.5 -254.5zM571 1481h224l123 -307h-175z" />
    <glyph glyph-name="oacute" unicode="&#xf3;" 
d="M170 512q24 145 118 268.5t231 195t282 71.5q147 0 258 -72t160.5 -194.5t25.5 -268.5q-27 -145 -121 -268t-230.5 -195t-283.5 -72q-144 0 -255 71t-161.5 194.5t-23.5 269.5zM365 510q-25 -148 56 -252t220 -104q140 0 259 104.5t144 251.5q25 149 -55 254.5
t-221 105.5q-139 0 -256.5 -105.5t-146.5 -254.5zM942 1481h223l-282 -307h-174z" />
    <glyph glyph-name="ocircumflex" unicode="&#xf4;" 
d="M170 512q24 145 118 268.5t231 195t282 71.5q147 0 258 -72t160.5 -194.5t25.5 -268.5q-27 -145 -121 -268t-230.5 -195t-283.5 -72q-144 0 -255 71t-161.5 194.5t-23.5 269.5zM365 510q-25 -148 56 -252t220 -104q140 0 259 104.5t144 251.5q25 149 -55 254.5
t-221 105.5q-139 0 -256.5 -105.5t-146.5 -254.5zM774 1481h209l186 -307h-155l-156 188l-225 -188h-156z" />
    <glyph glyph-name="otilde" unicode="&#xf5;" 
d="M170 512q24 145 118 268.5t231 195t282 71.5q147 0 258 -72t160.5 -194.5t25.5 -268.5q-27 -145 -121 -268t-230.5 -195t-283.5 -72q-144 0 -255 71t-161.5 194.5t-23.5 269.5zM365 510q-25 -148 56 -252t220 -104q140 0 259 104.5t144 251.5q25 149 -55 254.5
t-221 105.5q-139 0 -256.5 -105.5t-146.5 -254.5zM1092 1458l86 -26q-49 -115 -100.5 -164t-119.5 -49q-47 0 -129 40.5t-112 40.5q-35 0 -58 -21t-57 -79l-86 27q51 115 101 164t118 49q45 0 127 -41t113 -41q36 0 61 21.5t56 78.5z" />
    <glyph glyph-name="odieresis" unicode="&#xf6;" 
d="M170 512q24 145 118 268.5t231 195t282 71.5q147 0 258 -72t160.5 -194.5t25.5 -268.5q-27 -145 -121 -268t-230.5 -195t-283.5 -72q-144 0 -255 71t-161.5 194.5t-23.5 269.5zM365 510q-25 -148 56 -252t220 -104q140 0 259 104.5t144 251.5q25 149 -55 254.5
t-221 105.5q-139 0 -256.5 -105.5t-146.5 -254.5zM504 1327q11 56 53 92.5t96 36.5q56 0 86.5 -37t20.5 -92q-11 -54 -54 -90.5t-98 -36.5q-54 0 -84 36.5t-20 90.5zM942 1327q10 55 53 92t97 37q56 0 86 -37t20 -92q-11 -54 -53.5 -90.5t-97.5 -36.5q-54 0 -84.5 36.5
t-20.5 90.5z" />
    <glyph glyph-name="divide" unicode="&#xf7;" horiz-adv-x="1284" 
d="M530 238q12 63 63 107t114 44t99.5 -44t24.5 -107t-62.5 -106.5t-113.5 -43.5t-100 43.5t-25 106.5zM672 1022q11 63 61 107.5t113 44.5t100 -44.5t27 -107.5t-63.5 -106.5t-116.5 -43.5t-97.5 43.5t-23.5 106.5zM205 535l31 182h1058l-30 -182h-1059z" />
    <glyph glyph-name="oslash" unicode="&#xf8;" horiz-adv-x="1236" 
d="M109 31l135 127q-108 153 -72 354q20 109 80.5 208t145 170.5t190.5 114t215 42.5q166 0 282 -95l127 119l84 -88l-125 -117q113 -151 76 -354q-27 -145 -121 -268t-230.5 -195t-283.5 -72q-163 0 -284 93l-135 -127zM1047 510q22 123 -27 213l-547 -514q74 -55 170 -55
q140 0 259.5 104.5t144.5 251.5zM369 510q-22 -122 28 -209l545 514q-76 55 -170 55q-139 0 -258.5 -106.5t-144.5 -253.5z" />
    <glyph glyph-name="ugrave" unicode="&#xf9;" 
d="M418 446l102 578h-198l-103 -578q-39 -237 46.5 -353t262.5 -116q129 0 230 59.5t155 168.5l-34 -205h198l180 1024h-198l-84 -475q-16 -92 -53 -164.5t-81.5 -114.5t-96.5 -69.5t-93.5 -37t-77.5 -9.5q-90 0 -135.5 70t-19.5 222zM590 1481h223l123 -307h-174z" />
    <glyph glyph-name="uacute" unicode="&#xfa;" 
d="M418 446l102 578h-198l-103 -578q-39 -237 46.5 -353t262.5 -116q129 0 230 59.5t155 168.5l-34 -205h198l180 1024h-198l-84 -475q-16 -92 -53 -164.5t-81.5 -114.5t-96.5 -69.5t-93.5 -37t-77.5 -9.5q-90 0 -135.5 70t-19.5 222zM944 1481h223l-282 -307h-174z" />
    <glyph glyph-name="ucircumflex" unicode="&#xfb;" 
d="M418 446l102 578h-198l-103 -578q-39 -237 46.5 -353t262.5 -116q129 0 230 59.5t155 168.5l-34 -205h198l180 1024h-198l-84 -475q-16 -92 -53 -164.5t-81.5 -114.5t-96.5 -69.5t-93.5 -37t-77.5 -9.5q-90 0 -135.5 70t-19.5 222zM770 1481h209l186 -307h-155l-156 188
l-225 -188h-156z" />
    <glyph glyph-name="udieresis" unicode="&#xfc;" 
d="M418 446l102 578h-198l-103 -578q-39 -237 46.5 -353t262.5 -116q129 0 230 59.5t155 168.5l-34 -205h198l180 1024h-198l-84 -475q-16 -92 -53 -164.5t-81.5 -114.5t-96.5 -69.5t-93.5 -37t-77.5 -9.5q-90 0 -135.5 70t-19.5 222zM510 1327q10 55 54 92t98 37
q55 0 85 -36.5t19 -92.5q-11 -54 -54 -90.5t-98 -36.5q-54 0 -84 36.5t-20 90.5zM948 1327q10 55 54 92t98 37q55 0 85 -36.5t19 -92.5q-11 -54 -53.5 -90.5t-97.5 -36.5q-54 0 -84.5 36.5t-20.5 90.5z" />
    <glyph glyph-name="yacute" unicode="&#xfd;" horiz-adv-x="1134" 
d="M621 260l428 764h231l-893 -1483h-192l278 494l-256 989h227zM881 1481h223l-283 -307h-174z" />
    <glyph glyph-name="thorn" unicode="&#xfe;" horiz-adv-x="1316" 
d="M1325 512q-28 -148 -111.5 -269t-213 -193.5t-279.5 -72.5q-239 0 -336 187l-113 -623h-198l344 1940h198l-108 -621q165 187 403 187q149 0 254 -72t146 -194t14 -269zM442 512q-29 -156 50.5 -257t234.5 -101q154 0 263.5 103.5t135.5 254.5q26 153 -44.5 255.5
t-225.5 102.5q-154 0 -269.5 -101t-144.5 -257z" />
    <glyph glyph-name="ydieresis" unicode="&#xff;" horiz-adv-x="1134" 
d="M621 260l428 764h231l-893 -1483h-192l278 494l-256 989h227zM455 1327q10 55 53.5 92t97.5 37q56 0 85.5 -37t19.5 -92q-11 -54 -54 -90.5t-98 -36.5q-54 0 -84 36.5t-20 90.5zM893 1327q10 55 53.5 92t97.5 37q56 0 85.5 -37t19.5 -92q-11 -54 -54 -90.5t-98 -36.5
q-54 0 -84 36.5t-20 90.5z" />
    <glyph glyph-name="Amacron" unicode="&#x100;" horiz-adv-x="1394" 
d="M721 1757h571l-28 -155h-572zM492 463h577l-156 774zM1098 297h-701l-159 -297h-211l802 1434h238l301 -1434h-207z" />
    <glyph glyph-name="amacron" unicode="&#x101;" horiz-adv-x="1318" 
d="M623 1391h571l-29 -156h-571zM174 512q28 148 111 269t212 193.5t279 72.5q236 0 338 -187l29 164h198l-180 -1024h-198l26 164q-165 -187 -403 -187q-149 0 -253.5 72t-145 194t-13.5 269zM1057 512q25 157 -55 257.5t-234 100.5q-155 0 -263 -103t-134 -255
q-26 -153 44.5 -255.5t225.5 -102.5q153 0 270 101t146 257z" />
    <glyph glyph-name="Abreve" unicode="&#x102;" horiz-adv-x="1394" 
d="M1169 1849l121 -8q-25 -92 -80 -156.5t-116 -91t-123 -26.5q-98 0 -164 69t-55 205l120 8q1 -82 32.5 -117.5t88.5 -35.5q124 0 176 153zM1069 463h-577l421 774zM397 297h701l63 -297h207l-301 1434h-238l-802 -1434h211z" />
    <glyph glyph-name="abreve" unicode="&#x103;" horiz-adv-x="1316" 
d="M1055 1479l127 -11q-20 -80 -58 -139.5t-85 -92t-94.5 -47.5t-96.5 -15q-48 0 -90 15t-77 47.5t-51.5 92t-8.5 139.5l131 11q-12 -158 125 -158q138 0 178 158zM172 512q-27 -147 13.5 -269t145 -194t253.5 -72q238 0 403 187l-26 -164h198l180 1024h-198l-29 -164
q-102 187 -338 187q-150 0 -279 -72.5t-212 -193.5t-111 -269zM1055 512q-29 -156 -146 -257t-270 -101q-155 0 -225.5 102.5t-44.5 255.5q26 152 134 255t263 103q154 0 234 -100.5t55 -257.5z" />
    <glyph glyph-name="Aogonek" unicode="&#x104;" horiz-adv-x="1390" 
d="M1366 0h-12q-108 -4 -179.5 -63.5t-84.5 -133.5q-10 -51 20 -81.5t76 -30.5q54 0 103.5 32t86.5 89l80 -50q-39 -95 -122.5 -157t-180.5 -62q-46 0 -87.5 13.5t-75.5 40.5t-50 73t-6 105q14 72 70.5 144t146.5 99l-55 279h-701l-159 -297h-211l802 1434h238zM489 463h578
l-156 774z" />
    <glyph glyph-name="aogonek" unicode="&#x105;" horiz-adv-x="1318" 
d="M1341 1024l-180 -1008q-63 -9 -109.5 -33.5t-71 -56.5t-36.5 -57.5t-18 -52.5q-10 -57 21 -91t77 -34q54 0 103.5 32t84.5 89l82 -50q-39 -95 -122.5 -157t-180.5 -62q-46 0 -87.5 13.5t-75.5 40.5t-50 73t-6 105q8 40 27.5 79t61.5 81.5t100 72.5l28 156
q-165 -187 -403 -187q-149 0 -253.5 72t-145 194t-13.5 269q28 148 111 269t212 193.5t279 72.5q236 0 338 -187l29 164h198zM1057 512q25 157 -55 257.5t-234 100.5q-155 0 -263 -103t-134 -255q-26 -153 44.5 -255.5t225.5 -102.5q153 0 270 101t146 257z" />
    <glyph glyph-name="Cacute" unicode="&#x106;" horiz-adv-x="1396" 
d="M1255 1851h211l-254 -284h-170zM219 717q-20 -100 -11 -193.5t37.5 -175.5t85.5 -150.5t132 -117.5t177.5 -76t221.5 -27q149 0 268 39.5t232 114.5l-53 154q-79 -55 -193 -89t-223 -34q-173 0 -289.5 76t-160 201t-15.5 278q21 114 77 214.5t140 176.5t199.5 120
t247.5 44q108 0 207.5 -34t164.5 -89l107 154q-86 75 -191.5 114t-255.5 39q-177 0 -335 -59.5t-273 -160.5t-192.5 -235t-104.5 -284z" />
    <glyph glyph-name="cacute" unicode="&#x107;" horiz-adv-x="1083" 
d="M168 500q21 114 77 212.5t140.5 173.5t202.5 118t254 43q199 0 344 -125l-119 -136q-96 84 -250 84q-167 0 -293.5 -100.5t-154.5 -257.5t63 -257.5t256 -100.5q157 0 281 84l71 -136q-188 -125 -389 -125q-177 0 -296.5 71t-165.5 188.5t-21 263.5zM930 1481h223
l-283 -307h-174z" />
    <glyph glyph-name="Ccircumflex" unicode="&#x108;" horiz-adv-x="1396" 
d="M1061 1851h209l170 -284h-156l-139 176l-205 -176h-156zM219 717q-20 -100 -11 -193.5t37.5 -175.5t85.5 -150.5t132 -117.5t177.5 -76t221.5 -27q149 0 268 39.5t232 114.5l-53 154q-79 -55 -193 -89t-223 -34q-173 0 -289.5 76t-160 201t-15.5 278q21 114 77 214.5
t140 176.5t199.5 120t247.5 44q108 0 207.5 -34t164.5 -89l107 154q-86 75 -191.5 114t-255.5 39q-177 0 -335 -59.5t-273 -160.5t-192.5 -235t-104.5 -284z" />
    <glyph glyph-name="ccircumflex" unicode="&#x109;" horiz-adv-x="1083" 
d="M168 500q21 114 77 212.5t140.5 173.5t202.5 118t254 43q199 0 344 -125l-119 -136q-96 84 -250 84q-167 0 -293.5 -100.5t-154.5 -257.5t63 -257.5t256 -100.5q157 0 281 84l71 -136q-188 -125 -389 -125q-177 0 -296.5 71t-165.5 188.5t-21 263.5zM764 1481h209
l186 -307h-155l-156 188l-225 -188h-156z" />
    <glyph glyph-name="Cdotaccent" unicode="&#x10a;" horiz-adv-x="1398" 
d="M981 1700q11 56 56 94.5t102 38.5q56 0 87 -39t21 -94q-10 -57 -55.5 -95t-101.5 -38q-57 0 -88 38t-21 95zM219 717q-20 -100 -11 -193.5t37.5 -175.5t85.5 -150.5t132 -117.5t177.5 -76t221.5 -27q149 0 268 39.5t232 114.5l-53 154q-79 -55 -193 -89t-223 -34
q-173 0 -289.5 76t-160 201t-15.5 278q21 114 77 214.5t140 176.5t199.5 120t247.5 44q108 0 207.5 -34t164.5 -89l107 154q-86 75 -191.5 114t-255.5 39q-177 0 -335 -59.5t-273 -160.5t-192.5 -235t-104.5 -284z" />
    <glyph glyph-name="cdotaccent" unicode="&#x10b;" horiz-adv-x="1083" 
d="M168 500q21 114 77 212.5t140.5 173.5t202.5 118t254 43q199 0 344 -125l-119 -136q-96 84 -250 84q-167 0 -293.5 -100.5t-154.5 -257.5t63 -257.5t256 -100.5q157 0 281 84l71 -136q-188 -125 -389 -125q-177 0 -296.5 71t-165.5 188.5t-21 263.5zM719 1317
q11 60 56.5 99.5t105.5 39.5t92.5 -39.5t21.5 -99.5q-10 -60 -57 -98.5t-107 -38.5t-91.5 38.5t-20.5 98.5z" />
    <glyph glyph-name="Ccaron" unicode="&#x10c;" horiz-adv-x="1396" 
d="M1210 1567h-209l-170 284h156l137 -176l207 176h156zM219 717q-20 -100 -11 -193.5t37.5 -175.5t85.5 -150.5t132 -117.5t177.5 -76t221.5 -27q149 0 268 39.5t232 114.5l-53 154q-79 -55 -193 -89t-223 -34q-173 0 -289.5 76t-160 201t-15.5 278q21 114 77 214.5
t140 176.5t199.5 120t247.5 44q108 0 207.5 -34t164.5 -89l107 154q-86 75 -191.5 114t-255.5 39q-177 0 -335 -59.5t-273 -160.5t-192.5 -235t-104.5 -284z" />
    <glyph glyph-name="ccaron" unicode="&#x10d;" horiz-adv-x="1083" 
d="M168 500q21 114 77 212.5t140.5 173.5t202.5 118t254 43q199 0 344 -125l-119 -136q-96 84 -250 84q-167 0 -293.5 -100.5t-154.5 -257.5t63 -257.5t256 -100.5q157 0 281 84l71 -136q-188 -125 -389 -125q-177 0 -296.5 71t-165.5 188.5t-21 263.5zM911 1174h-209
l-186 307h156l157 -189l224 189h155z" />
    <glyph glyph-name="Dcaron" unicode="&#x10e;" horiz-adv-x="1490" 
d="M1001 1567h-208l-172 284h155l139 -176l205 176h156zM1311 717q-28 -153 -112 -276.5t-218.5 -198t-294.5 -74.5h-252l195 1098h252q96 0 175.5 -28t133 -78t87.5 -119t41 -150.5t-7 -173.5zM1520 717q27 148 -1 278.5t-104.5 228t-207 154t-298.5 56.5h-456l-252 -1434
h456q169 0 318.5 56.5t259.5 154t184 228t101 278.5z" />
    <glyph glyph-name="dcaron" unicode="&#x10f;" horiz-adv-x="1357" 
d="M1489 1016l-21 74q93 30 136.5 72.5t54.5 105.5q-72 -23 -112.5 11.5t-30.5 90.5q8 57 48.5 94t104.5 37q35 0 60.5 -12t38.5 -31t21 -42t7.5 -44.5t-2.5 -38.5q-23 -125 -98 -201.5t-207 -115.5zM174 512q-27 -147 13.5 -269t145 -194t253.5 -72q238 0 403 187l-26 -164
h198l260 1481h-198l-109 -621q-102 187 -338 187q-150 0 -279 -72.5t-212 -193.5t-111 -269zM1057 512q-29 -156 -146 -257t-270 -101q-155 0 -225.5 102.5t-44.5 255.5q26 152 134 255t263 103q154 0 234 -100.5t55 -257.5z" />
    <glyph glyph-name="Dcroat" unicode="&#x110;" horiz-adv-x="1492" 
d="M1524 717q-27 -148 -101.5 -278.5t-185 -228t-260.5 -154t-318 -56.5h-456l112 643h-159l26 143h160l113 648h456q168 0 299 -56.5t207.5 -154t105 -228t1.5 -278.5zM1313 717q27 153 -13 276.5t-148 198t-267 74.5h-252l-86 -480h332l-27 -143h-332l-84 -475h252
q160 0 294.5 74.5t218.5 198t112 276.5z" />
    <glyph glyph-name="dcroat" unicode="&#x111;" horiz-adv-x="1318" 
d="M174 512q28 148 111 269t212 193.5t279 72.5q236 0 338 -187l51 295h-241l18 107h242l39 219h198l-39 -219h148l-19 -107h-147l-203 -1155h-198l26 164q-165 -187 -403 -187q-149 0 -253.5 72t-145 194t-13.5 269zM1057 512q25 157 -55 257.5t-234 100.5
q-155 0 -263 -103t-134 -255q-26 -153 44.5 -255.5t225.5 -102.5q153 0 270 101t146 257z" />
    <glyph glyph-name="Emacron" unicode="&#x112;" horiz-adv-x="1212" 
d="M1141 168l-29 -168h-911l252 1434h911l-29 -168h-706l-86 -480h616l-29 -168h-616l-80 -450h707zM651 1757h572l-29 -155h-571z" />
    <glyph glyph-name="emacron" unicode="&#x113;" horiz-adv-x="1218" 
d="M1042 283l91 -115q-203 -191 -482 -191q-130 0 -232 42.5t-162 115t-83.5 169t-5.5 204.5q42 228 226 383.5t421 155.5q82 0 154 -21t131 -64.5t96 -109t50 -155t-7 -203.5h-874q-32 -148 58.5 -244t260.5 -96q186 0 358 129zM786 872q-49 0 -97 -10.5t-99.5 -34.5
t-98.5 -70t-81 -110h651q-8 66 -36 113t-69 70t-82 32.5t-88 9.5zM594 1391h571l-28 -156h-572z" />
    <glyph glyph-name="Ebreve" unicode="&#x114;" horiz-adv-x="1212" 
d="M1141 168l-29 -168h-911l252 1434h911l-29 -168h-706l-86 -480h616l-29 -168h-616l-80 -450h707zM1100 1849l121 -8q-25 -92 -80.5 -156.5t-116.5 -91t-123 -26.5q-98 0 -164 69t-55 205l121 8q1 -82 32.5 -117.5t88.5 -35.5q124 0 176 153z" />
    <glyph glyph-name="ebreve" unicode="&#x115;" horiz-adv-x="1218" 
d="M1042 283l91 -115q-203 -191 -482 -191q-130 0 -232 42.5t-162 115t-83.5 169t-5.5 204.5q42 228 226 383.5t421 155.5q82 0 154 -21t131 -64.5t96 -109t50 -155t-7 -203.5h-874q-32 -148 58.5 -244t260.5 -96q186 0 358 129zM786 872q-49 0 -97 -10.5t-99.5 -34.5
t-98.5 -70t-81 -110h651q-8 66 -36 113t-69 70t-82 32.5t-88 9.5zM1042 1479l127 -11q-16 -64 -44.5 -115.5t-62 -84.5t-73 -54.5t-77.5 -30.5t-76 -9q-48 0 -90 15t-77.5 47.5t-52 92t-8.5 139.5l131 11q-12 -158 125 -158q138 0 178 158z" />
    <glyph glyph-name="Edotaccent" unicode="&#x116;" horiz-adv-x="1212" 
d="M1141 168l-29 -168h-911l252 1434h911l-29 -168h-706l-86 -480h616l-29 -168h-616l-80 -450h707zM795 1700q11 56 55 94.5t100 38.5t88.5 -39t22.5 -94q-10 -57 -56 -95t-102 -38q-57 0 -88 38t-20 95z" />
    <glyph glyph-name="edotaccent" unicode="&#x117;" horiz-adv-x="1218" 
d="M1042 283l91 -115q-203 -191 -482 -191q-130 0 -232 42.5t-162 115t-83.5 169t-5.5 204.5q42 228 226 383.5t421 155.5q82 0 154 -21t131 -64.5t96 -109t50 -155t-7 -203.5h-874q-32 -148 58.5 -244t260.5 -96q186 0 358 129zM786 872q-49 0 -97 -10.5t-99.5 -34.5
t-98.5 -70t-81 -110h651q-8 66 -36 113t-69 70t-82 32.5t-88 9.5zM721 1317q11 60 56.5 99.5t105.5 39.5t92.5 -39.5t21.5 -99.5q-10 -60 -56.5 -98.5t-106.5 -38.5t-92 38.5t-21 98.5z" />
    <glyph glyph-name="Eogonek" unicode="&#x118;" horiz-adv-x="1210" 
d="M1137 168l-29 -168h-231q-84 -2 -144 -21.5t-90 -50t-43 -57t-18 -55.5q-10 -57 21 -91t77 -34q54 0 103.5 32t86.5 89l80 -50q-39 -95 -122.5 -157t-180.5 -62q-46 0 -87.5 13.5t-75.5 40.5t-50 73t-6 105q29 147 201 225h-430l252 1434h909l-29 -168h-704l-86 -480h614
l-29 -168h-614l-80 -450h705z" />
    <glyph glyph-name="eogonek" unicode="&#x119;" horiz-adv-x="1218" 
d="M1239 494h-874q-32 -148 58.5 -244t260.5 -96q186 0 358 129l91 -115q-164 -78 -273 -170t-125 -182q-10 -57 20 -91t76 -34q54 0 105 32t86 89l82 -50q-39 -95 -122.5 -157t-180.5 -62q-46 0 -87.5 13.5t-75.5 40.5t-50 73t-6 105q20 110 123 205q-9 0 -27.5 -1.5
t-26.5 -1.5q-130 0 -232 42.5t-162 115t-83.5 169t-5.5 204.5q42 228 226 383.5t421 155.5q82 0 154 -21t131 -64.5t96 -109t50 -155t-7 -203.5zM786 872q-49 0 -97 -10.5t-99.5 -34.5t-98.5 -70t-81 -110h651q-8 66 -36 113t-69 70t-82 32.5t-88 9.5z" />
    <glyph glyph-name="Ecaron" unicode="&#x11a;" horiz-adv-x="1212" 
d="M1141 168l-29 -168h-911l252 1434h911l-29 -168h-706l-86 -480h616l-29 -168h-616l-80 -450h707zM997 1567h-209l-172 284h156l139 -176l205 176h156z" />
    <glyph glyph-name="ecaron" unicode="&#x11b;" horiz-adv-x="1218" 
d="M1042 283l91 -115q-203 -191 -482 -191q-130 0 -232 42.5t-162 115t-83.5 169t-5.5 204.5q42 228 226 383.5t421 155.5q82 0 154 -21t131 -64.5t96 -109t50 -155t-7 -203.5h-874q-32 -148 58.5 -244t260.5 -96q186 0 358 129zM786 872q-49 0 -97 -10.5t-99.5 -34.5
t-98.5 -70t-81 -110h651q-8 66 -36 113t-69 70t-82 32.5t-88 9.5zM920 1174h-209l-187 307h156l158 -189l223 189h156z" />
    <glyph glyph-name="Gcircumflex" unicode="&#x11c;" horiz-adv-x="1505" 
d="M1051 1851h209l170 -284h-156l-139 176l-205 -176h-156zM1061 1272q50 0 76 -1t72.5 -7.5t82.5 -19.5t86 -39t103 -64l106 157q-100 85 -218 121.5t-275 36.5q-202 0 -391 -98.5t-320 -270t-166 -374.5q-27 -151 6.5 -286t116 -234.5t215 -157.5t295.5 -58q308 0 569 201
l97 539h-590l-29 -166h403l-55 -293q-166 -96 -354 -96q-92 0 -168.5 21.5t-130 60t-93 90.5t-57 113.5t-23.5 129.5t9 138q27 153 122 281.5t231 202t280 73.5z" />
    <glyph glyph-name="gcircumflex" unicode="&#x11d;" horiz-adv-x="1318" 
d="M815 1481h209l186 -307h-155l-156 188l-225 -188h-156zM1159 8l182 1016h-198l-29 -164q-102 187 -338 187q-150 0 -279 -72.5t-212 -193.5t-111 -269q-27 -147 13.5 -269t145 -194t253.5 -72q238 0 403 187l-24 -137q-29 -162 -135.5 -248t-260.5 -86q-210 0 -336 129
l-106 -156q69 -69 166.5 -108t247.5 -39q107 0 206 29.5t184 87t145.5 153.5t82.5 219zM1057 512q-29 -156 -146 -257t-270 -101q-155 0 -225.5 102.5t-44.5 255.5q26 152 134 255t263 103q154 0 234 -100.5t55 -257.5z" />
    <glyph glyph-name="Gbreve" unicode="&#x11e;" horiz-adv-x="1505" 
d="M1294 1849l121 -8q-37 -135 -130 -204.5t-191 -69.5t-163 69t-54 205l120 8q1 -83 31.5 -118t87.5 -35q126 0 178 153zM1061 1272q50 0 76 -1t72.5 -7.5t82.5 -19.5t86 -39t103 -64l106 157q-100 85 -218 121.5t-275 36.5q-202 0 -391 -98.5t-320 -270t-166 -374.5
q-27 -151 6.5 -286t116 -234.5t215 -157.5t295.5 -58q308 0 569 201l97 539h-590l-29 -166h403l-55 -293q-166 -96 -354 -96q-92 0 -168.5 21.5t-130 60t-93 90.5t-57 113.5t-23.5 129.5t9 138q27 153 122 281.5t231 202t280 73.5z" />
    <glyph glyph-name="gbreve" unicode="&#x11f;" horiz-adv-x="1318" 
d="M1055 1479l127 -11q-20 -80 -58 -139.5t-85 -92t-94.5 -47.5t-96.5 -15q-48 0 -90 15t-77 47.5t-51.5 92t-8.5 139.5l131 11q-12 -158 125 -158q138 0 178 158zM1159 8l182 1016h-198l-29 -164q-102 187 -338 187q-150 0 -279 -72.5t-212 -193.5t-111 -269
q-27 -147 13.5 -269t145 -194t253.5 -72q238 0 403 187l-24 -137q-29 -162 -135.5 -248t-260.5 -86q-210 0 -336 129l-106 -156q69 -69 166.5 -108t247.5 -39q107 0 206 29.5t184 87t145.5 153.5t82.5 219zM1057 512q-29 -156 -146 -257t-270 -101q-155 0 -225.5 102.5
t-44.5 255.5q26 152 134 255t263 103q154 0 234 -100.5t55 -257.5z" />
    <glyph glyph-name="Gdotaccent" unicode="&#x120;" horiz-adv-x="1505" 
d="M989 1700q11 56 56 94.5t102 38.5q56 0 87 -39t21 -94q-10 -57 -55.5 -95t-101.5 -38q-57 0 -88 38t-21 95zM1061 1272q50 0 76 -1t72.5 -7.5t82.5 -19.5t86 -39t103 -64l106 157q-100 85 -218 121.5t-275 36.5q-202 0 -391 -98.5t-320 -270t-166 -374.5
q-27 -151 6.5 -286t116 -234.5t215 -157.5t295.5 -58q308 0 569 201l97 539h-590l-29 -166h403l-55 -293q-166 -96 -354 -96q-92 0 -168.5 21.5t-130 60t-93 90.5t-57 113.5t-23.5 129.5t9 138q27 153 122 281.5t231 202t280 73.5z" />
    <glyph glyph-name="gdotaccent" unicode="&#x121;" horiz-adv-x="1318" 
d="M707 1317q11 60 56 99.5t105 39.5t92.5 -39.5t22.5 -99.5t-57 -98.5t-107 -38.5t-91.5 38.5t-20.5 98.5zM1159 8l182 1016h-198l-29 -164q-102 187 -338 187q-150 0 -279 -72.5t-212 -193.5t-111 -269q-27 -147 13.5 -269t145 -194t253.5 -72q238 0 403 187l-24 -137
q-29 -162 -135.5 -248t-260.5 -86q-210 0 -336 129l-106 -156q69 -69 166.5 -108t247.5 -39q107 0 206 29.5t184 87t145.5 153.5t82.5 219zM1057 512q-29 -156 -146 -257t-270 -101q-155 0 -225.5 102.5t-44.5 255.5q26 152 134 255t263 103q154 0 234 -100.5t55 -257.5z
" />
    <glyph glyph-name="Gcommaaccent" unicode="&#x122;" horiz-adv-x="1505" 
d="M1061 1272q-144 0 -280 -73.5t-231 -202t-122 -281.5q-15 -70 -9 -138t23.5 -129.5t57 -113.5t93 -90.5t130 -60t168.5 -21.5q188 0 354 96l55 293h-403l29 166h590l-97 -539q-261 -201 -569 -201q-163 0 -295.5 58t-215 157.5t-116 234.5t-6.5 286q35 203 166 374.5
t320 270t391 98.5q157 0 275 -36.5t218 -121.5l-106 -157q-53 38 -103 64t-86 39t-82.5 19.5t-72.5 7.5t-76 1zM645 -600l-22 74q94 29 136.5 71.5t53.5 106.5q-71 -23 -111 11.5t-30 90.5q8 57 48.5 94t104.5 37q42 0 71 -18.5t39 -45t14.5 -55t-1.5 -49.5
q-23 -126 -97.5 -202t-205.5 -115z" />
    <glyph glyph-name="gcommaaccent" unicode="&#x123;" horiz-adv-x="1316" 
d="M991 1663l21 -74q-93 -30 -136.5 -72.5t-54.5 -105.5q72 23 113 -11.5t31 -90.5q-8 -56 -49 -93.5t-105 -37.5q-42 0 -71 18.5t-39 45t-14.5 55t1.5 49.5q23 126 97.5 202t205.5 115zM1157 8l182 1016h-198l-29 -164q-102 187 -338 187q-150 0 -279 -72.5t-212 -193.5
t-111 -269q-27 -147 13.5 -269t145 -194t253.5 -72q238 0 403 187l-24 -137q-29 -162 -135.5 -248t-260.5 -86q-210 0 -336 129l-106 -156q69 -69 166.5 -108t247.5 -39q107 0 206 29.5t184 87t145.5 153.5t82.5 219zM1055 512q-29 -156 -146 -257t-270 -101
q-155 0 -225.5 102.5t-44.5 255.5q26 152 134 255t263 103q154 0 234 -100.5t55 -257.5z" />
    <glyph glyph-name="Hcircumflex" unicode="&#x124;" horiz-adv-x="1480" 
d="M963 1851h208l172 -284h-155l-141 176l-203 -176h-156zM1180 600h-670l-104 -600h-205l252 1434h204l-118 -668h669l119 668h205l-252 -1434h-205z" />
    <glyph glyph-name="hcircumflex" unicode="&#x125;" 
d="M471 1810h209l180 -243h-155l-150 135l-195 -135h-155zM995 578l-100 -578h199l100 578q42 236 -46 352.5t-263 116.5q-129 0 -231 -59.5t-152 -168.5l114 662h-198l-260 -1481h198l82 475q16 92 53 164.5t81.5 114.5t96.5 69.5t93.5 37t77.5 9.5q90 0 135.5 -70
t19.5 -222z" />
    <glyph glyph-name="Hbar" unicode="&#x126;" horiz-adv-x="1480" 
d="M1208 766l37 205h-670l-36 -205h669zM1589 971h-139l-170 -971h-205l105 600h-670l-104 -600h-205l170 971h-140l23 127h139l60 336h204l-59 -336h670l59 336h205l-59 -336h139z" />
    <glyph glyph-name="hbar" unicode="&#x127;" 
d="M895 0l100 578q26 152 -19.5 222t-135.5 70q-36 0 -77.5 -9.5t-93.5 -37t-96.5 -69.5t-81.5 -114.5t-53 -164.5l-82 -475h-198l204 1157h-147l18 107h148l37 217h198l-36 -217h225l-19 -107h-225l-59 -338q50 109 152 168.5t231 59.5q175 0 263 -116.5t46 -352.5
l-100 -578h-199z" />
    <glyph glyph-name="Itilde" unicode="&#x128;" horiz-adv-x="606" 
d="M406 0l251 1434h-204l-252 -1434h205zM936 1821q-47 -114 -98 -163.5t-119 -49.5q-45 0 -127 41t-113 41q-36 0 -61 -22t-58 -79l-84 27q49 115 99.5 164t118.5 49q46 0 129 -41t114 -41q36 0 59.5 21.5t55.5 78.5z" />
    <glyph glyph-name="itilde" unicode="&#x129;" horiz-adv-x="526" 
d="M362 0l183 1024h-199l-182 -1024h198zM819 1432q-47 -114 -98 -163.5t-119 -49.5q-46 0 -130 40.5t-114 40.5q-34 0 -54.5 -19.5t-59.5 -80.5l-84 27q51 116 100.5 164.5t116.5 48.5q47 0 129 -41t112 -41q36 0 61 21.5t56 78.5z" />
    <glyph glyph-name="Imacron" unicode="&#x12a;" horiz-adv-x="606" 
d="M657 1434l-251 -1434h-205l252 1434h204zM330 1757h571l-29 -155h-571z" />
    <glyph glyph-name="imacron" unicode="&#x12b;" horiz-adv-x="526" 
d="M543 1024l-181 -1024h-198l180 1024h199zM217 1391h571l-28 -156h-572z" />
    <glyph glyph-name="Ibreve" unicode="&#x12c;" horiz-adv-x="606" 
d="M406 0l251 1434h-204l-252 -1434h205zM778 1849l121 -8q-25 -92 -80 -156.5t-116 -91t-123 -26.5q-46 0 -86.5 16t-73 47.5t-49.5 86t-11 124.5l121 8q1 -82 32.5 -117.5t88.5 -35.5q124 0 176 153z" />
    <glyph glyph-name="ibreve" unicode="&#x12d;" horiz-adv-x="526" 
d="M362 0l181 1024h-199l-180 -1024h198zM668 1479l127 -11q-20 -80 -58 -139.5t-85 -92t-94.5 -47.5t-96.5 -15q-48 0 -90 15t-77.5 47.5t-52 92t-8.5 139.5l132 11q-12 -158 124 -158q139 0 179 158z" />
    <glyph glyph-name="Iogonek" unicode="&#x12e;" horiz-adv-x="606" 
d="M655 1434l-249 -1434q-112 0 -190 -61t-91 -136q-10 -51 21 -81.5t77 -30.5q54 0 105 32t86 89l82 -50q-39 -95 -122.5 -157t-180.5 -62q-46 0 -87 13.5t-74.5 40.5t-49 73t-5.5 105q11 70 69 134.5t153 98.5l252 1426h204z" />
    <glyph glyph-name="iogonek" unicode="&#x12f;" horiz-adv-x="528" 
d="M365 1354q11 60 56 99.5t105 39.5t92.5 -39.5t22.5 -99.5t-57 -98.5t-107 -38.5t-91.5 38.5t-20.5 98.5zM166 23l180 1001h199l-180 -1024q-112 0 -190 -61t-91 -136q-10 -51 21 -81.5t77 -30.5q54 0 105 32t86 89l82 -50q-39 -95 -122.5 -157t-180.5 -62q-46 0 -87 13.5
t-74 40.5t-48.5 73t-5.5 105q14 76 73.5 148.5t155.5 99.5z" />
    <glyph glyph-name="Idotaccent" unicode="&#x130;" horiz-adv-x="606" 
d="M406 0l251 1434h-204l-252 -1434h205zM471 1700q11 56 55.5 94.5t100.5 38.5t88 -39t22 -94q-10 -57 -55.5 -95t-101.5 -38q-57 0 -88 38t-21 95z" />
    <glyph glyph-name="dotlessi" unicode="&#x131;" horiz-adv-x="526" 
d="M543 1024l-181 -1024h-198l180 1024h199z" />
    <glyph glyph-name="IJ" unicode="&#x132;" horiz-adv-x="1970" 
d="M657 1434l-251 -1434h-205l252 1434h204zM2046 1434l-137 -785q-57 -328 -240.5 -500t-466.5 -172q-93 0 -169.5 20.5t-128 56.5t-88.5 85t-52.5 106.5t-20 120.5t10.5 128q6 36 26.5 93.5t42.5 82.5h195q-22 -39 -40.5 -89t-23.5 -77q-15 -67 -4 -128.5t41 -109
t92.5 -76t149.5 -28.5q189 0 308 127t161 360l139 785h205z" />
    <glyph glyph-name="ij" unicode="&#x133;" horiz-adv-x="1128" 
d="M362 0l181 1024h-199l-180 -1024h198zM362 1354q11 60 56.5 99.5t105.5 39.5t92.5 -39.5t22.5 -99.5t-56 -98.5t-106 -38.5t-92.5 38.5t-22.5 98.5zM946 1024l-215 -1208q-10 -60 -49.5 -91.5t-93.5 -31.5q-51 0 -81 29t-20 83q6 41 31 84h-180q-16 -27 -27 -71
q-8 -23 -10 -39q-21 -114 46 -187t212 -73q84 0 160 30t134.5 97t74.5 159l217 1219h-199zM965 1354q11 60 56 99.5t105 39.5t92.5 -39.5t22.5 -99.5t-56 -98.5t-106 -38.5t-92 38.5t-22 98.5z" />
    <glyph glyph-name="Jcircumflex" unicode="&#x134;" horiz-adv-x="1363" 
d="M1440 1434l-137 -785q-57 -328 -240.5 -500t-466.5 -172q-93 0 -169.5 20.5t-128 56.5t-89 85t-53 106.5t-20 120.5t10.5 128q6 35 27 93t43 83h195q-22 -39 -40.5 -89t-23.5 -77q-15 -67 -4 -128.5t41 -109t92.5 -76t149.5 -28.5q189 0 308 127t161 360l139 785h205z
M1307 1851h209l172 -284h-156l-141 176l-203 -176h-156z" />
    <glyph glyph-name="jcircumflex" unicode="&#x135;" horiz-adv-x="602" 
d="M420 1024l-215 -1208q-10 -60 -51 -91.5t-95 -31.5q-48 0 -76 29t-18 83q6 41 31 84h-180q-13 -22 -29 -71l-8 -39q-21 -114 45 -187t209 -73q84 0 160 30t134 97t74 159l217 1219h-198zM494 1481h208l187 -307h-156l-155 188l-226 -188h-155z" />
    <glyph glyph-name="Kcommaaccent" unicode="&#x136;" horiz-adv-x="1300" 
d="M475 -600l-22 74q94 29 136.5 71.5t53.5 106.5q-71 -23 -111 11.5t-30 90.5q8 57 48.5 94t104.5 37q42 0 71 -18.5t39 -45t14.5 -55t-1.5 -49.5q-23 -126 -97 -202t-206 -115zM532 733l629 701h221l-4 -23l-655 -721l205 -362q42 -78 89 -125t107 -47q85 0 160 53
l47 -143q-43 -43 -123 -66t-139 -23q-31 0 -60 5.5t-51.5 12.5t-46 23t-38.5 26.5t-34.5 33.5t-29 33.5t-26 37.5t-21.5 35.5t-20 36.5t-17 31l-209 385l-113 -637h-204l252 1434h204z" />
    <glyph glyph-name="kcommaaccent" unicode="&#x137;" horiz-adv-x="1103" 
d="M457 594l430 430h221l-6 -23l-453 -448l129 -264q38 -78 54 -97q33 -40 100 -40q89 0 139 38l45 -133q-92 -80 -237 -80q-66 0 -115 18t-81.5 57t-46 63t-33.5 71q-4 8 -5 11l-154 329l-90 -526h-198l260 1481h198zM340 -600l-23 74q94 29 137 72t54 106
q-71 -23 -111 11.5t-30 90.5q8 57 48.5 94t104.5 37q42 0 71 -18.5t39 -45t14.5 -55t-1.5 -49.5q-23 -126 -97 -202t-206 -115z" />
    <glyph glyph-name="kgreenlandic" unicode="&#x138;" horiz-adv-x="1116" 
d="M449 545l516 479h213l-7 -25l-532 -487l182 -268q37 -54 63 -75.5t72 -21.5q27 0 49.5 10t63.5 38l45 -136q-95 -82 -223 -82q-28 0 -50 3.5t-42.5 15t-33 20t-32 32t-28.5 35.5t-32.5 47.5t-35.5 51.5l-199 285l-82 -467h-198l180 1024h197z" />
    <glyph glyph-name="Lacute" unicode="&#x139;" horiz-adv-x="1091" 
d="M686 1851h211l-252 -284h-170zM1061 0l29 168h-656l223 1266h-204l-252 -1434h860z" />
    <glyph glyph-name="lacute" unicode="&#x13a;" horiz-adv-x="526" 
d="M659 1851h211l-252 -284h-169zM362 0l261 1481h-199l-260 -1481h198z" />
    <glyph glyph-name="Lcommaaccent" unicode="&#x13b;" horiz-adv-x="1091" 
d="M1090 168l-29 -168h-860l252 1434h204l-223 -1266h656zM446 -600l-22 74q94 29 136.5 71.5t53.5 106.5q-71 -23 -111 11.5t-30 90.5q8 56 49 93.5t105 37.5q42 0 71 -18.5t39 -45t14.5 -55t-1.5 -49.5q-23 -126 -97.5 -202t-206.5 -115z" />
    <glyph glyph-name="lcommaaccent" unicode="&#x13c;" horiz-adv-x="526" 
d="M623 1481l-261 -1481h-198l260 1481h199zM53 -600l-22 74q94 29 135.5 71.5t52.5 106.5q-70 -23 -109.5 11.5t-31.5 90.5q8 57 48.5 94t104.5 37q35 0 60.5 -12t38.5 -31t21 -42t7.5 -44.5t-2.5 -38.5q-23 -126 -97.5 -202t-205.5 -115z" />
    <glyph glyph-name="Lcaron" unicode="&#x13d;" horiz-adv-x="1101" 
d="M1059 0l28 168h-655l223 1266h-204l-252 -1434h860zM918 971l-21 73q93 29 136 72.5t54 106.5q-72 -23 -112.5 11.5t-30.5 90.5q8 56 50 93.5t106 37.5q42 0 71 -18.5t39 -45t14.5 -55t-1.5 -49.5q-23 -126 -97.5 -202t-207.5 -115z" />
    <glyph glyph-name="lcaron" unicode="&#x13e;" horiz-adv-x="557" 
d="M362 0l261 1481h-199l-260 -1481h198zM688 1016l-20 74q93 30 136 72.5t54 105.5q-72 -23 -112.5 11.5t-30.5 90.5q8 57 48.5 94t104.5 37q35 0 60.5 -12t38.5 -31t21 -42t7.5 -44.5t-2.5 -38.5q-23 -125 -98 -201.5t-207 -115.5z" />
    <glyph glyph-name="Ldot" unicode="&#x13f;" horiz-adv-x="1118" 
d="M807 641q11 56 55.5 94.5t100.5 38.5t88 -39t22 -94q-10 -57 -56 -95t-102 -38q-57 0 -88 38t-20 95zM1090 168l-29 -168h-860l252 1434h204l-223 -1266h656z" />
    <glyph glyph-name="ldot" unicode="&#x140;" horiz-adv-x="667" 
d="M586 641q11 56 55 94.5t100 38.5t88.5 -39t22.5 -94q-10 -57 -56 -95t-102 -38q-57 0 -88 38t-20 95zM623 1481l-261 -1481h-198l260 1481h199z" />
    <glyph glyph-name="Lslash" unicode="&#x141;" horiz-adv-x="1097" 
d="M553 801l346 139l-22 -133l-347 -139l-90 -500h656l-29 -168h-860l102 580l-188 -76l24 133l185 76l129 721h205z" />
    <glyph glyph-name="lslash" unicode="&#x142;" horiz-adv-x="624" 
d="M512 748l221 90l-22 -133l-224 -91l-106 -614h-199l90 528l-157 -65l20 133l162 66l145 819h199z" />
    <glyph glyph-name="Nacute" unicode="&#x143;" horiz-adv-x="1544" 
d="M1141 1851h211l-252 -284h-170zM592 1061l600 -1061h151l252 1434h-206l-187 -1057l-598 1057h-151l-252 -1434h205z" />
    <glyph glyph-name="nacute" unicode="&#x144;" horiz-adv-x="1236" 
d="M995 578l-100 -578h199l100 578q42 236 -46 352.5t-263 116.5q-129 0 -231 -59.5t-152 -168.5l35 205h-199l-180 -1024h198l82 475q16 92 53 164.5t81.5 114.5t96.5 69.5t93.5 37t77.5 9.5q90 0 135.5 -70t19.5 -222zM946 1481h223l-282 -307h-174z" />
    <glyph glyph-name="Ncommaaccent" unicode="&#x145;" horiz-adv-x="1544" 
d="M1192 0l-600 1061l-186 -1061h-205l252 1434h151l598 -1057l187 1057h206l-252 -1434h-151zM567 -600l-22 74q94 29 136.5 71.5t53.5 106.5q-71 -23 -111 11.5t-30 90.5q8 56 49 93.5t105 37.5q34 0 59.5 -12t38 -31t20.5 -42t7 -44.5t-3 -38.5q-23 -126 -97 -202
t-206 -115z" />
    <glyph glyph-name="ncommaaccent" unicode="&#x146;" horiz-adv-x="1236" 
d="M895 0l100 578q26 152 -19.5 222t-135.5 70q-36 0 -77.5 -9.5t-93.5 -37t-96.5 -69.5t-81.5 -114.5t-53 -164.5l-82 -475h-198l180 1024h199l-35 -205q50 109 152 168.5t231 59.5q175 0 263 -116.5t46 -352.5l-100 -578h-199zM430 -600l-22 74q94 29 136.5 71.5
t53.5 106.5q-71 -23 -111 11.5t-30 90.5q8 57 48.5 94t104.5 37q42 0 71 -18.5t39 -45t14.5 -55t-1.5 -49.5q-23 -126 -97 -202t-206 -115z" />
    <glyph glyph-name="Ncaron" unicode="&#x147;" horiz-adv-x="1544" 
d="M1157 1567h-209l-172 284h156l139 -176l205 176h156zM592 1061l600 -1061h151l252 1434h-206l-187 -1057l-598 1057h-151l-252 -1434h205z" />
    <glyph glyph-name="ncaron" unicode="&#x148;" horiz-adv-x="1236" 
d="M995 578l-100 -578h199l100 578q42 236 -46 352.5t-263 116.5q-129 0 -231 -59.5t-152 -168.5l35 205h-199l-180 -1024h198l82 475q16 92 53 164.5t81.5 114.5t96.5 69.5t93.5 37t77.5 9.5q90 0 135.5 -70t19.5 -222zM918 1174h-209l-187 307h156l158 -189l223 189h155z
" />
    <glyph glyph-name="napostrophe" unicode="&#x149;" horiz-adv-x="1398" 
d="M1190 578l-103 -578h199l103 578q42 236 -46.5 352.5t-263.5 116.5q-129 0 -232 -59.5t-153 -168.5l37 205h-199l-182 -1024h199l84 475q17 92 54.5 164.5t81 114.5t94.5 69.5t92 37t77 9.5q91 0 137.5 -70t20.5 -222zM266 1034l-24 74q94 29 137.5 72t54.5 106
q-72 -23 -112.5 12t-30.5 91q8 57 48.5 94t104.5 37q35 0 60.5 -12t38.5 -31t21 -42t7.5 -44.5t-2.5 -38.5q-24 -126 -98.5 -202.5t-204.5 -115.5z" />
    <glyph glyph-name="Eng" unicode="&#x14a;" horiz-adv-x="1540" 
d="M1114 197l-524 864l-187 -1061h-204l252 1434h151l608 -996l176 996h207l-213 -1198l-8 -46q-60 -329 -241 -500t-463 -171l30 184q162 0 273 96t166 273q11 42 6 67.5t-29 57.5z" />
    <glyph glyph-name="eng" unicode="&#x14b;" horiz-adv-x="1232" 
d="M1192 578l-70 -390l-6 -43q-49 -304 -222.5 -465t-436.5 -161l26 172q165 0 279 110t149 305l82 472q26 152 -19.5 222t-135.5 70q-36 0 -77.5 -9.5t-93.5 -37t-96.5 -69.5t-81.5 -114.5t-53 -164.5l-82 -475h-198l180 1024h199l-35 -205q50 109 152 168.5t231 59.5
q85 0 150 -27t110 -84t57.5 -145.5t-8.5 -212.5z" />
    <glyph glyph-name="Omacron" unicode="&#x14c;" horiz-adv-x="1675" 
d="M219 717q35 200 165.5 370.5t319.5 269.5t390 99q151 0 278 -58.5t208.5 -157.5t116.5 -236t9 -287q-27 -150 -110.5 -287t-201 -236.5t-265.5 -158t-298 -58.5q-151 0 -278 58.5t-208.5 158t-116.5 236.5t-9 287zM428 717q-27 -156 21.5 -283.5t157.5 -199.5t255 -72
q144 0 280 72t232 200t123 283q29 155 -21 283t-160.5 200t-254.5 72q-147 0 -281.5 -72t-228.5 -199.5t-123 -283.5zM862 1757h572l-29 -155h-571z" />
    <glyph glyph-name="omacron" unicode="&#x14d;" 
d="M170 512q24 145 118 268.5t231 195t282 71.5q147 0 258 -72t160.5 -194.5t25.5 -268.5q-27 -145 -121 -268t-230.5 -195t-283.5 -72q-144 0 -255 71t-161.5 194.5t-23.5 269.5zM365 510q-25 -148 56 -252t220 -104q140 0 259 104.5t144 251.5q25 149 -55 254.5
t-221 105.5q-139 0 -256.5 -105.5t-146.5 -254.5zM578 1391h571l-29 -156h-571z" />
    <glyph glyph-name="Obreve" unicode="&#x14e;" horiz-adv-x="1675" 
d="M219 717q35 200 165.5 370.5t319.5 269.5t390 99q151 0 278 -58.5t208.5 -157.5t116.5 -236t9 -287q-27 -150 -110.5 -287t-201 -236.5t-265.5 -158t-298 -58.5q-151 0 -278 58.5t-208.5 158t-116.5 236.5t-9 287zM428 717q-27 -156 21.5 -283.5t157.5 -199.5t255 -72
q144 0 280 72t232 200t123 283q29 155 -21 283t-160.5 200t-254.5 72q-147 0 -281.5 -72t-228.5 -199.5t-123 -283.5zM1311 1849l121 -8q-37 -135 -130.5 -204.5t-191.5 -69.5t-163 69t-54 205l121 8q1 -83 31.5 -118t87.5 -35q126 0 178 153z" />
    <glyph glyph-name="obreve" unicode="&#x14f;" 
d="M170 512q24 145 118 268.5t231 195t282 71.5q147 0 258 -72t160.5 -194.5t25.5 -268.5q-27 -145 -121 -268t-230.5 -195t-283.5 -72q-144 0 -255 71t-161.5 194.5t-23.5 269.5zM365 510q-25 -148 56 -252t220 -104q140 0 259 104.5t144 251.5q25 149 -55 254.5
t-221 105.5q-139 0 -256.5 -105.5t-146.5 -254.5zM1028 1479l127 -11q-20 -80 -58 -139.5t-85 -92t-94.5 -47.5t-96.5 -15q-48 0 -90 15t-77 47.5t-51.5 92t-8.5 139.5l131 11q-12 -158 125 -158q138 0 178 158z" />
    <glyph glyph-name="Ohungarumlaut" unicode="&#x150;" horiz-adv-x="1675" 
d="M1096 1851h186l-229 -284h-174zM1430 1851h186l-230 -284h-174zM219 717q35 200 165.5 370.5t319.5 269.5t390 99q151 0 278 -58.5t208.5 -157.5t116.5 -236t9 -287q-27 -150 -110.5 -287t-201 -236.5t-265.5 -158t-298 -58.5q-151 0 -278 58.5t-208.5 158t-116.5 236.5
t-9 287zM428 717q-27 -156 21.5 -283.5t157.5 -199.5t255 -72q144 0 280 72t232 200t123 283q29 155 -21 283t-160.5 200t-254.5 72q-147 0 -281.5 -72t-228.5 -199.5t-123 -283.5z" />
    <glyph glyph-name="ohungarumlaut" unicode="&#x151;" 
d="M170 512q24 145 118 268.5t231 195t282 71.5q147 0 258 -72t160.5 -194.5t25.5 -268.5q-27 -145 -121 -268t-230.5 -195t-283.5 -72q-144 0 -255 71t-161.5 194.5t-23.5 269.5zM365 510q-25 -148 56 -252t220 -104q140 0 259 104.5t144 251.5q25 149 -55 254.5
t-221 105.5q-139 0 -256.5 -105.5t-146.5 -254.5zM784 1481h187l-246 -307h-174zM1118 1481h187l-246 -307h-174z" />
    <glyph glyph-name="OE" unicode="&#x152;" horiz-adv-x="1984" 
d="M844 168h170l196 1098h-170q-224 0 -395 -146t-215 -381q-26 -156 17 -286.5t148 -207.5t249 -77zM1884 0h-1067q-151 0 -275 58.5t-201.5 157.5t-109.5 235.5t-6 287.5q37 201 159 360t301.5 247t383.5 88h1067l-29 -168h-692l-84 -469h600l-30 -168h-601l-81 -461h-2
h694z" />
    <glyph glyph-name="oe" unicode="&#x153;" horiz-adv-x="1902" 
d="M1731 283l90 -115q-203 -191 -482 -191q-238 0 -354 129q-182 -129 -375 -129q-144 0 -255 71t-161.5 194.5t-23.5 269.5q24 145 118 268.5t231 195t282 71.5q195 0 327 -129q161 129 375 129q104 0 188.5 -33t146.5 -101.5t83.5 -172.5t-0.5 -246h-838
q-33 -152 43.5 -246t245.5 -94q186 0 359 129zM367 510q-25 -148 55 -252t219 -104t256 100q-36 118 -12 254q20 121 104 258q-38 48 -95.5 76t-125.5 28q-138 0 -257 -106.5t-144 -253.5zM1475 872q-234 0 -355 -225h629q-7 54 -27 95t-46.5 65t-62 39t-68.5 20.5t-70 5.5z
" />
    <glyph glyph-name="Racute" unicode="&#x154;" horiz-adv-x="1402" 
d="M1010 1851h211l-252 -284h-170zM199 0h204l95 543h293q-1 -38 -3 -86t7.5 -102.5t22.5 -107.5t41.5 -102t65.5 -86.5t94 -59.5t126 -22q155 0 270 101l-47 139q-78 -65 -180 -65q-57 0 -100 40t-65 102t-31 128.5t-5 128.5q162 32 273 150t141 282q22 122 -10.5 223.5
t-121 164.5t-220.5 63h-598zM877 707h-351l101 559h350q122 0 179.5 -77.5t33.5 -203.5q-24 -125 -108 -201.5t-205 -76.5z" />
    <glyph glyph-name="racute" unicode="&#x155;" horiz-adv-x="749" 
d="M606 1481h223l-282 -307h-174zM537 1024l-41 -231q46 120 133 187t186 67q46 0 90 -23l-35 -195q-46 27 -104 27q-27 0 -55 -6.5t-72.5 -34.5t-81.5 -75t-74 -138.5t-59 -214.5l-68 -387h-198l180 1024h199z" />
    <glyph glyph-name="Rcommaaccent" unicode="&#x156;" horiz-adv-x="1402" 
d="M403 0h-204l252 1434h598q132 0 220.5 -63t121 -164.5t10.5 -223.5q-30 -164 -141 -282t-273 -150q-4 -62 5 -128.5t31 -128.5t65 -102t100 -40q102 0 180 65l47 -139q-115 -101 -270 -101q-69 0 -126 22t-94 59.5t-65.5 86.5t-41.5 102t-22.5 107.5t-7.5 102.5t3 86
h-293zM526 707h351q121 0 205 76.5t108 201.5q24 126 -33.5 203.5t-179.5 77.5h-350zM469 -600l-23 74q94 29 137 72t54 106q-71 -23 -111 11.5t-30 90.5q8 57 48.5 94t104.5 37q42 0 71 -18.5t39 -45t14.5 -55t-1.5 -49.5q-23 -126 -97 -202t-206 -115z" />
    <glyph glyph-name="rcommaaccent" unicode="&#x157;" horiz-adv-x="749" 
d="M537 1024l-41 -231q46 120 133 187t186 67q46 0 90 -23l-37 -195q-46 27 -104 27q-27 0 -55 -6.5t-72.5 -34.5t-81.5 -75t-74 -138.5t-59 -214.5l-68 -387h-196l180 1024h199zM55 -600l-22 74q94 29 135.5 71.5t52.5 106.5q-70 -23 -109.5 11.5t-31.5 90.5q8 57 48.5 94
t104.5 37q35 0 60.5 -12t38.5 -31t21 -42t7.5 -44.5t-2.5 -38.5q-23 -126 -97.5 -202t-205.5 -115z" />
    <glyph glyph-name="Rcaron" unicode="&#x158;" horiz-adv-x="1402" 
d="M1014 1567h-209l-172 284h155l140 -176l205 176h155zM199 0h204l95 543h293q-1 -38 -3 -86t7.5 -102.5t22.5 -107.5t41.5 -102t65.5 -86.5t94 -59.5t126 -22q155 0 270 101l-47 139q-78 -65 -180 -65q-57 0 -100 40t-65 102t-31 128.5t-5 128.5q162 32 273 150t141 282
q22 122 -10.5 223.5t-121 164.5t-220.5 63h-598zM877 707h-351l101 559h350q122 0 179.5 -77.5t33.5 -203.5q-24 -125 -108 -201.5t-205 -76.5z" />
    <glyph glyph-name="rcaron" unicode="&#x159;" horiz-adv-x="749" 
d="M705 1174h-209l-187 307h156l158 -189l223 189h155zM537 1024l-41 -231q46 120 133 187t186 67q46 0 90 -23l-35 -195q-46 27 -104 27q-27 0 -55 -6.5t-72.5 -34.5t-81.5 -75t-74 -138.5t-59 -214.5l-68 -387h-198l180 1024h199z" />
    <glyph glyph-name="Sacute" unicode="&#x15a;" horiz-adv-x="1187" 
d="M125 336l201 49q5 -95 83.5 -160t208.5 -65q138 0 231.5 61.5t111.5 157.5q30 152 -175 225l-198 72q-314 116 -264 385q21 119 101 210.5t192.5 138t236.5 46.5q188 0 295.5 -93.5t112.5 -246.5l-193 -55q-15 211 -248 211q-107 0 -190.5 -56t-100.5 -151
q-24 -139 152 -205l203 -78q160 -61 229.5 -164.5t48.5 -224.5q-34 -190 -191 -303t-382 -113q-209 0 -330.5 101t-134.5 258zM954 1851h211l-252 -284h-170z" />
    <glyph glyph-name="sacute" unicode="&#x15b;" horiz-adv-x="903" 
d="M754 764l182 39q-11 88 -57.5 144.5t-106.5 78t-135 21.5q-150 0 -259 -87.5t-134 -218.5q-39 -202 207 -278l127 -47q56 -21 83.5 -50t20.5 -79q-11 -60 -67.5 -100t-133.5 -40q-78 0 -133 40t-63 102l-185 -43q12 -126 111 -197.5t238 -71.5q156 0 277.5 83.5
t145.5 224.5q32 216 -194 288l-139 50q-54 22 -82 49t-19 73q11 57 58.5 94.5t115.5 37.5q120 0 142 -113zM760 1481h223l-283 -307h-174z" />
    <glyph glyph-name="Scircumflex" unicode="&#x15c;" horiz-adv-x="1187" 
d="M125 336l201 49q5 -95 83.5 -160t208.5 -65q138 0 231.5 61.5t111.5 157.5q30 152 -175 225l-198 72q-314 116 -264 385q21 119 101 210.5t192.5 138t236.5 46.5q188 0 295.5 -93.5t112.5 -246.5l-193 -55q-15 211 -248 211q-107 0 -190.5 -56t-100.5 -151
q-24 -139 152 -205l203 -78q160 -61 229.5 -164.5t48.5 -224.5q-34 -190 -191 -303t-382 -113q-209 0 -330.5 101t-134.5 258zM817 1851h209l172 -284h-156l-141 176l-203 -176h-155z" />
    <glyph glyph-name="scircumflex" unicode="&#x15d;" horiz-adv-x="903" 
d="M754 764l182 39q-11 88 -57.5 144.5t-106.5 78t-135 21.5q-150 0 -259 -87.5t-134 -218.5q-39 -202 207 -278l127 -47q56 -21 83.5 -50t20.5 -79q-11 -60 -67.5 -100t-133.5 -40q-78 0 -133 40t-63 102l-185 -43q12 -126 111 -197.5t238 -71.5q156 0 277.5 83.5
t145.5 224.5q32 216 -194 288l-139 50q-54 22 -82 49t-19 73q11 57 58.5 94.5t115.5 37.5q120 0 142 -113zM625 1481h209l186 -307h-156l-155 188l-226 -188h-155z" />
    <glyph glyph-name="Scedilla" unicode="&#x15e;" horiz-adv-x="1187" 
d="M594 -23h-4q-209 0 -330.5 101t-134.5 258l201 49q5 -95 83.5 -160t208.5 -65q138 0 231.5 61.5t111.5 157.5q30 148 -173 225l-200 74q-315 108 -264 383q21 119 101 210.5t192.5 138t236.5 46.5q188 0 295.5 -93.5t112.5 -246.5l-193 -55q-15 211 -248 211
q-107 0 -190.5 -56t-100.5 -151q-7 -22 -3.5 -49t15.5 -52.5t48 -52.5t92 -51l203 -82q107 -35 176 -98.5t92.5 -136.5t9.5 -150q-29 -165 -151.5 -273t-306.5 -134q75 -97 55 -211q-19 -113 -109.5 -172.5t-191.5 -59.5q-97 0 -156.5 62t-64.5 157l94 50q37 -121 145 -121
q47 0 91.5 34.5t54.5 90.5q15 78 -29 161z" />
    <glyph glyph-name="scedilla" unicode="&#x15f;" horiz-adv-x="905" 
d="M938 803l-184 -39q-20 113 -140 113q-68 0 -115.5 -37.5t-58.5 -94.5q-9 -46 19 -73t82 -49l141 -50q233 -78 190 -288q-22 -119 -110.5 -196t-212.5 -101q77 -99 57 -213q-19 -113 -109.5 -172.5t-191.5 -59.5q-97 0 -156.5 62t-64.5 157l96 50q37 -121 146 -121
q47 0 90 34t53 91q15 83 -27 161q-136 0 -232 72.5t-108 196.5l185 43q8 -62 63 -102t133 -40q77 0 133.5 40t67.5 100q7 50 -21 78.5t-85 50.5l-127 47q-244 77 -205 278q25 131 134 218.5t259 87.5q75 0 135 -21.5t106.5 -78t57.5 -144.5z" />
    <glyph glyph-name="Scaron" unicode="&#x160;" horiz-adv-x="1187" 
d="M125 336l201 49q5 -95 83.5 -160t208.5 -65q138 0 231.5 61.5t111.5 157.5q30 152 -175 225l-198 72q-314 116 -264 385q21 119 101 210.5t192.5 138t236.5 46.5q188 0 295.5 -93.5t112.5 -246.5l-193 -55q-15 211 -248 211q-107 0 -190.5 -56t-100.5 -151
q-24 -139 152 -205l203 -78q160 -61 229.5 -164.5t48.5 -224.5q-34 -190 -191 -303t-382 -113q-209 0 -330.5 101t-134.5 258zM977 1567h-209l-172 284h156l139 -176l205 176h155z" />
    <glyph glyph-name="scaron" unicode="&#x161;" horiz-adv-x="903" 
d="M754 764l182 39q-11 88 -57.5 144.5t-106.5 78t-135 21.5q-150 0 -259 -87.5t-134 -218.5q-39 -202 207 -278l127 -47q56 -21 83.5 -50t20.5 -79q-11 -60 -67.5 -100t-133.5 -40q-78 0 -133 40t-63 102l-185 -43q12 -126 111 -197.5t238 -71.5q156 0 277.5 83.5
t145.5 224.5q32 216 -194 288l-139 50q-54 22 -82 49t-19 73q11 57 58.5 94.5t115.5 37.5q120 0 142 -113zM778 1174h-209l-186 307h156l157 -189l224 189h155z" />
    <glyph glyph-name="Tcommaaccent" unicode="&#x162;" horiz-adv-x="1232" 
d="M289 1434h1159l-29 -168h-477l-223 -1266h-205l223 1266h-477zM406 -600l-23 74q94 29 136.5 71.5t53.5 106.5q-71 -23 -111 11.5t-30 90.5q8 56 49 93.5t105 37.5q42 0 71 -18.5t39 -45t14.5 -55t-1.5 -49.5q-23 -126 -97.5 -202t-205.5 -115z" />
    <glyph glyph-name="tcommaaccent" unicode="&#x163;" horiz-adv-x="858" 
d="M559 868l-98 -559q-16 -81 10.5 -119t81.5 -38q51 0 93 29t52 83q8 54 0 84h174q6 -23 2 -69l-6 -41q-18 -115 -109.5 -188t-236.5 -73q-64 0 -115.5 17.5t-92.5 58t-53 107t3 164.5l96 544h-167l28 156h168l94 295h154l-49 -295h325l-28 -156h-326zM283 -600l-23 74
q94 29 136 71.5t53 106.5q-70 -23 -110 11.5t-32 90.5t49 93.5t105 37.5q35 0 60.5 -12t38.5 -31t21 -42t7.5 -44.5t-2.5 -38.5q-23 -126 -97.5 -202t-205.5 -115z" />
    <glyph glyph-name="Tcaron" unicode="&#x164;" horiz-adv-x="1232" 
d="M289 1434h1159l-29 -168h-477l-223 -1266h-205l223 1266h-477zM997 1567h-209l-170 284h156l139 -176l205 176h156z" />
    <glyph glyph-name="tcaron" unicode="&#x165;" horiz-adv-x="858" 
d="M559 868l-98 -559q-16 -81 10.5 -119t81.5 -38q51 0 93 29t52 83q8 54 0 84h174q6 -23 2 -69l-6 -41q-18 -115 -109.5 -188t-236.5 -73q-64 0 -115.5 17.5t-92.5 58t-53 107t3 164.5l96 544h-167l28 156h168l94 295h154l-49 -295h325l-28 -156h-326zM864 1174l-18 73
q93 29 135 71.5t53 106.5q-70 -23 -109.5 12t-31.5 91t49 93.5t105 37.5q35 0 60.5 -12t38 -31t21 -42t7.5 -44.5t-3 -38.5q-23 -126 -97.5 -202t-209.5 -115z" />
    <glyph glyph-name="Tbar" unicode="&#x166;" horiz-adv-x="1265" 
d="M530 0l127 725h-311l23 127h311l74 414h-478l29 168h1159l-28 -168h-478l-73 -414h313l-22 -127h-314l-127 -725h-205z" />
    <glyph glyph-name="tbar" unicode="&#x167;" horiz-adv-x="860" 
d="M561 868l-47 -252h248l-21 -124h-247l-33 -183q-16 -81 11 -119t83 -38q51 0 93 29t52 83q7 48 0 84h174q7 -26 3 -69l-7 -41q-20 -115 -112 -188t-236 -73q-64 0 -115.5 17.5t-92.5 58t-53 107t3 164.5l31 168h-148l21 124h147l47 252h-167l26 156h168l96 295h154
l-51 -295h325l-26 -156h-326z" />
    <glyph glyph-name="Utilde" unicode="&#x168;" horiz-adv-x="1495" 
d="M1364 1434h205l-160 -904q-24 -131 -88.5 -237.5t-154.5 -174.5t-198.5 -104.5t-224.5 -36.5t-212 36.5t-162.5 104.5t-92.5 174.5t-2 237.5l160 904h205l-160 -904q-32 -178 54 -273t241 -95q156 0 277 95.5t153 272.5zM1303 1847l83 -26q-49 -115 -99 -164t-118 -49
q-47 0 -129 41t-112 41q-36 0 -60.5 -22t-56.5 -79l-84 27q47 114 98 163.5t119 49.5q46 0 130 -41t114 -41q35 0 58 21t57 79z" />
    <glyph glyph-name="utilde" unicode="&#x169;" 
d="M418 446l102 578h-198l-103 -578q-39 -237 46.5 -353t262.5 -116q129 0 230 59.5t155 168.5l-34 -205h198l180 1024h-198l-84 -475q-16 -92 -53 -164.5t-81.5 -114.5t-96.5 -69.5t-93.5 -37t-77.5 -9.5q-90 0 -135.5 70t-19.5 222zM1174 1432q-49 -115 -99.5 -164
t-118.5 -49q-46 0 -129 40.5t-114 40.5q-35 0 -58 -21t-57 -79l-84 27q49 115 99 164t118 49q45 0 127 -41t113 -41q36 0 61 21.5t58 78.5z" />
    <glyph glyph-name="Umacron" unicode="&#x16a;" horiz-adv-x="1495" 
d="M1364 1434h205l-160 -904q-24 -131 -88.5 -237.5t-154.5 -174.5t-198.5 -104.5t-224.5 -36.5t-212 36.5t-162.5 104.5t-92.5 174.5t-2 237.5l160 904h205l-160 -904q-32 -178 54 -273t241 -95q156 0 277 95.5t153 272.5zM772 1757h571l-26 -155h-572z" />
    <glyph glyph-name="umacron" unicode="&#x16b;" 
d="M520 1024l-102 -578q-26 -152 19.5 -222t135.5 -70q36 0 77.5 9.5t93.5 37t96.5 69.5t81.5 114.5t53 164.5l84 475h198l-180 -1024h-198l34 205q-54 -109 -155 -168.5t-230 -59.5q-177 0 -262.5 116t-46.5 353l103 578h198zM584 1391h571l-29 -156h-571z" />
    <glyph glyph-name="Ubreve" unicode="&#x16c;" horiz-adv-x="1495" 
d="M1364 1434h205l-160 -904q-24 -131 -88.5 -237.5t-154.5 -174.5t-198.5 -104.5t-224.5 -36.5t-212 36.5t-162.5 104.5t-92.5 174.5t-2 237.5l160 904h205l-160 -904q-32 -178 54 -273t241 -95q156 0 277 95.5t153 272.5zM1223 1849l120 -8q-37 -135 -130 -204.5
t-191 -69.5q-44 0 -85 16t-74.5 47.5t-49.5 86t-8 124.5l121 8q1 -83 31 -118t87 -35q127 0 179 153z" />
    <glyph glyph-name="ubreve" unicode="&#x16d;" 
d="M418 446l102 578h-198l-103 -578q-39 -237 46.5 -353t262.5 -116q129 0 230 59.5t155 168.5l-34 -205h198l180 1024h-198l-84 -475q-16 -92 -53 -164.5t-81.5 -114.5t-96.5 -69.5t-93.5 -37t-77.5 -9.5q-90 0 -135.5 70t-19.5 222zM1036 1479l127 -11q-20 -80 -58 -139.5
t-85 -92t-94.5 -47.5t-96.5 -15q-48 0 -90 15t-77 47.5t-51.5 92t-8.5 139.5l131 11q-12 -158 125 -158q138 0 178 158z" />
    <glyph glyph-name="Uring" unicode="&#x16e;" horiz-adv-x="1495" 
d="M1364 1434h205l-160 -904q-24 -131 -88.5 -237.5t-154.5 -174.5t-198.5 -104.5t-224.5 -36.5t-212 36.5t-162.5 104.5t-92.5 174.5t-2 237.5l160 904h205l-160 -904q-32 -178 54 -273t241 -95q156 0 277 95.5t153 272.5zM840 1737q17 91 88.5 149t163.5 58q93 0 145 -58
t35 -149q-15 -88 -89.5 -146.5t-166.5 -58.5t-142.5 57.5t-33.5 147.5zM942 1737q-8 -47 19.5 -80t74.5 -33t85.5 33t45.5 80q8 47 -18.5 78.5t-73.5 31.5q-48 0 -87 -31.5t-46 -78.5z" />
    <glyph glyph-name="uring" unicode="&#x16f;" 
d="M418 446l102 578h-198l-103 -578q-39 -237 46.5 -353t262.5 -116q129 0 230 59.5t155 168.5l-34 -205h198l180 1024h-198l-84 -475q-16 -92 -53 -164.5t-81.5 -114.5t-96.5 -69.5t-93.5 -37t-77.5 -9.5q-90 0 -135.5 70t-19.5 222zM653 1389q17 91 89.5 154t162.5 63
q91 0 144 -63.5t36 -153.5q-15 -89 -91 -152t-167 -63t-141 62t-33 153zM756 1389q-8 -48 18.5 -80.5t73.5 -32.5t86.5 33t46.5 80q8 47 -19.5 79.5t-74.5 32.5t-85.5 -32.5t-45.5 -79.5z" />
    <glyph glyph-name="Uhungarumlaut" unicode="&#x170;" horiz-adv-x="1495" 
d="M1364 1434h205l-160 -904q-24 -131 -88.5 -237.5t-154.5 -174.5t-198.5 -104.5t-224.5 -36.5t-212 36.5t-162.5 104.5t-92.5 174.5t-2 237.5l160 904h205l-160 -904q-32 -178 54 -273t241 -95q156 0 277 95.5t153 272.5zM961 1851h186l-229 -284h-175zM1294 1851h187
l-230 -284h-174z" />
    <glyph glyph-name="uhungarumlaut" unicode="&#x171;" 
d="M418 446l102 578h-198l-103 -578q-39 -237 46.5 -353t262.5 -116q129 0 230 59.5t155 168.5l-34 -205h198l180 1024h-198l-84 -475q-16 -92 -53 -164.5t-81.5 -114.5t-96.5 -69.5t-93.5 -37t-77.5 -9.5q-90 0 -135.5 70t-19.5 222zM762 1481h186l-246 -307h-174z
M1096 1481h186l-246 -307h-174z" />
    <glyph glyph-name="Uogonek" unicode="&#x172;" horiz-adv-x="1495" 
d="M1362 1434h205l-160 -904q-22 -126 -81.5 -229t-143.5 -170.5t-185.5 -106t-212.5 -44.5q-62 -26 -92.5 -71.5t-38.5 -92.5q-10 -57 21.5 -91t77.5 -34q54 0 104.5 32t85.5 89l82 -50q-39 -95 -122.5 -157t-180.5 -62q-46 0 -87.5 13.5t-75.5 40.5t-50 73t-6 105
q17 86 180 202l2 3q-105 9 -189.5 48.5t-142 107t-80 169t-0.5 225.5l160 904h205l-160 -904q-32 -178 54 -273t241 -95q156 0 277 95.5t153 272.5z" />
    <glyph glyph-name="uogonek" unicode="&#x173;" 
d="M1257 1024l-180 -1024q-111 0 -189 -61t-91 -136q-10 -51 21.5 -81.5t78.5 -30.5q54 0 103.5 32t86.5 89l80 -50q-39 -95 -122.5 -157t-180.5 -62q-46 0 -87.5 13.5t-75.5 40.5t-50 73t-6 105q13 74 74.5 143t159.5 96l34 191q-54 -109 -155 -168.5t-230 -59.5
q-177 0 -262.5 116t-46.5 353l103 578h198l-102 -578q-26 -152 19.5 -222t135.5 -70q36 0 77.5 9.5t93.5 37t96.5 69.5t81.5 114.5t53 164.5l84 475h198z" />
    <glyph glyph-name="Wcircumflex" unicode="&#x174;" horiz-adv-x="2035" 
d="M1178 1386h168l139 -1042l534 1090h205l-698 -1434h-176l-144 1077l-520 -1077h-176l-195 1434h205l150 -1090zM1239 1851h209l172 -284h-156l-141 176l-203 -176h-155z" />
    <glyph glyph-name="wcircumflex" unicode="&#x175;" horiz-adv-x="1683" 
d="M932 993l-365 -727l-129 758h-207l191 -1024h188l355 713l108 -713h189l550 1024h-206l-404 -758l-102 727h-168zM999 1481h209l187 -307h-156l-156 188l-225 -188h-156z" />
    <glyph glyph-name="Ycircumflex" unicode="&#x176;" horiz-adv-x="1388" 
d="M694 590l-397 821l4 23h225l301 -670l539 670h225l-4 -23l-688 -821l-102 -590h-205zM915 1851h209l172 -284h-155l-142 176l-202 -176h-156z" />
    <glyph glyph-name="ycircumflex" unicode="&#x177;" horiz-adv-x="1134" 
d="M621 260l428 764h231l-893 -1483h-192l278 494l-256 989h227zM725 1481h209l186 -307h-155l-156 188l-225 -188h-156z" />
    <glyph glyph-name="Ydieresis" unicode="&#x178;" horiz-adv-x="1388" 
d="M694 590l-397 821l4 23h225l301 -670l539 670h225l-4 -23l-688 -821l-102 -590h-205zM645 1694q10 55 53 92t97 37q56 0 86 -37t20 -92q-11 -54 -53.5 -90.5t-97.5 -36.5q-54 0 -84.5 36.5t-20.5 90.5zM1083 1694q10 55 53 92t97 37q56 0 86 -37t20 -92
q-11 -54 -53.5 -90.5t-97.5 -36.5q-54 0 -84.5 36.5t-20.5 90.5z" />
    <glyph glyph-name="Zacute" unicode="&#x179;" horiz-adv-x="1316" 
d="M1251 0l29 168h-928l1078 1110l26 156h-1089l-29 -168h819l-1069 -1110l-27 -156h1190zM997 1851h211l-252 -284h-170z" />
    <glyph glyph-name="zacute" unicode="&#x17a;" horiz-adv-x="1140" 
d="M1075 0h-1014l19 125l825 739h-647l29 160h925l-22 -125l-823 -739h737zM852 1481h223l-282 -307h-175z" />
    <glyph glyph-name="Zdotaccent" unicode="&#x17b;" horiz-adv-x="1316" 
d="M1251 0l29 168h-928l1078 1110l26 156h-1089l-29 -168h819l-1069 -1110l-27 -156h1190zM834 1700q11 56 55 94.5t100 38.5t88.5 -39t22.5 -94q-10 -57 -56 -95t-102 -38q-57 0 -88 38t-20 95z" />
    <glyph glyph-name="zdotaccent" unicode="&#x17c;" horiz-adv-x="1140" 
d="M1075 0h-1014l19 125l825 739h-647l29 160h925l-22 -125l-823 -739h737zM672 1317q10 60 57 99.5t107 39.5t91.5 -39.5t20.5 -99.5q-10 -60 -57 -98.5t-107 -38.5t-91.5 38.5t-20.5 98.5z" />
    <glyph glyph-name="Zcaron" unicode="&#x17d;" horiz-adv-x="1316" 
d="M1251 0l29 168h-928l1078 1110l26 156h-1089l-29 -168h819l-1069 -1110l-27 -156h1190zM1036 1567h-209l-172 284h156l139 -176l205 176h156z" />
    <glyph glyph-name="zcaron" unicode="&#x17e;" horiz-adv-x="1140" 
d="M1075 0h-1014l19 125l825 739h-647l29 160h925l-22 -125l-823 -739h737zM879 1174h-209l-187 307h156l158 -189l223 189h156z" />
    <glyph glyph-name="longs" unicode="&#x17f;" horiz-adv-x="626" 
d="M629 1128l-201 -1128h-205l154 868h-162l29 156h159l15 78q72 399 411 399q145 0 213.5 -72t47.5 -186l-5 -16q-3 -5 -8.5 -18.5t-9.5 -20.5h-170q8 18 10 35q10 57 -21.5 80.5t-86.5 23.5q-58 0 -104.5 -46t-65.5 -153z" />
    <glyph glyph-name="florin" unicode="&#x192;" horiz-adv-x="858" 
d="M594 664l-133 -746q-16 -95 -50 -167.5t-75.5 -115.5t-94.5 -70t-101 -36.5t-101 -9.5q-115 0 -174 59l94 135q56 -30 107 -30q151 0 186 204l137 777h-162l29 155h162l41 238q17 95 51.5 167t76.5 115.5t95 70.5t101 36.5t102 9.5q117 0 176 -49l-96 -141
q-41 26 -105 26q-157 0 -192 -205l-45 -268h268l-29 -155h-268z" />
    <glyph glyph-name="Aringacute" unicode="&#x1fa;" horiz-adv-x="1394" 
d="M1100 2091h200l-170 -174q51 -24 76 -71t15 -111q-17 -90 -89 -145.5t-165 -55.5q-92 0 -144 56t-35 145q13 72 64.5 123.5t124.5 70.5zM891 1735q-7 -46 19 -72.5t75 -26.5t86.5 26.5t44.5 72.5t-20 72t-76 26t-85.5 -26t-43.5 -72zM1069 463h-577l421 774zM397 297h701
l63 -297h207l-301 1434h-238l-802 -1434h211z" />
    <glyph glyph-name="aringacute" unicode="&#x1fb;" horiz-adv-x="1316" 
d="M946 1724h201l-168 -174q109 -50 88 -182q-17 -90 -87 -145.5t-163 -55.5t-146 56t-36 145q13 72 65 124t125 71zM737 1368q-7 -46 20.5 -72t76.5 -26t85.5 26t43.5 72t-19.5 72t-75.5 26t-86.5 -26t-44.5 -72zM172 512q-27 -147 13.5 -269t145 -194t253.5 -72
q238 0 403 187l-26 -164h198l180 1024h-198l-29 -164q-102 187 -338 187q-150 0 -279 -72.5t-212 -193.5t-111 -269zM1055 512q-29 -156 -146 -257t-270 -101q-155 0 -225.5 102.5t-44.5 255.5q26 152 134 255t263 103q154 0 234 -100.5t55 -257.5z" />
    <glyph glyph-name="AEacute" unicode="&#x1fc;" horiz-adv-x="1898" 
d="M1513 1851h211l-251 -284h-170zM1049 764h-306l355 502h41zM1823 168h-674l74 428h606l31 168h-607l90 502h674l29 168h-1032l-1026 -1434h221l418 598h393l-105 -598h879z" />
    <glyph glyph-name="aeacute" unicode="&#x1fd;" horiz-adv-x="1912" 
d="M1317 1481h223l-283 -307h-174zM889 444l-6 -116q-83 -100 -176.5 -148.5t-184.5 -48.5q-119 0 -170 54t-37 126q14 71 78 123.5t180 52.5q48 0 142.5 -10.5t173.5 -32.5zM903 618l-6 -34q-125 47 -317 47q-197 0 -317 -90t-146 -232q-19 -104 24.5 -180.5t128 -114
t195.5 -37.5q151 0 272 65t191 169q51 -110 161.5 -172t272.5 -62q262 0 465 191l-90 115q-89 -67 -171 -98t-173 -31q-171 0 -262.5 96.5t-59.5 243.5h862q23 142 2.5 246t-80 172.5t-143 101.5t-186.5 33q-127 0 -242 -48.5t-203 -136.5q-55 185 -350 185
q-116 0 -232.5 -35.5t-201.5 -108.5l47 -143q164 110 338 110q263 0 221 -252zM1497 872q230 0 258 -225h-635q34 64 81.5 110t99 70t99.5 34.5t97 10.5z" />
    <glyph glyph-name="Oslashacute" unicode="&#x1fe;" horiz-adv-x="1675" 
d="M283 0l114 137q-113 105 -161.5 255.5t-16.5 324.5q37 201 167 371t319 269t391 99q191 0 344 -94l137 160l113 -88l-140 -162q101 -105 143 -249t13 -306q-27 -150 -110.5 -287t-201 -236.5t-265.5 -158t-298 -58.5q-181 0 -315 76l-123 -141zM428 717
q-23 -126 6.5 -234.5t100.5 -185.5l770 907q-109 68 -244 68q-147 0 -281.5 -72t-228.5 -199.5t-123 -283.5zM1497 717q22 113 -1 213.5t-83 177.5l-764 -897q100 -49 215 -49q222 0 407 160t226 395zM1219 1851h211l-252 -284h-170z" />
    <glyph glyph-name="oslashacute" unicode="&#x1ff;" horiz-adv-x="1236" 
d="M963 1481h223l-285 -307h-174zM109 31l135 127q-108 153 -72 354q20 109 80.5 208t145 170.5t190.5 114t215 42.5q166 0 282 -95l127 119l84 -88l-125 -117q113 -151 76 -354q-27 -145 -121 -268t-230.5 -195t-283.5 -72q-163 0 -284 93l-135 -127zM1047 510
q22 123 -27 213l-547 -514q74 -55 170 -55q140 0 259.5 104.5t144.5 251.5zM369 510q-22 -122 28 -209l545 514q-76 55 -170 55q-139 0 -258.5 -106.5t-144.5 -253.5z" />
    <glyph glyph-name="Scommaaccent" unicode="&#x218;" horiz-adv-x="1187" 
d="M125 336l201 49q5 -95 83.5 -160t208.5 -65q138 0 231.5 61.5t111.5 157.5q30 152 -175 225l-198 72q-314 116 -264 385q21 119 101 210.5t192.5 138t236.5 46.5q188 0 295.5 -93.5t112.5 -246.5l-193 -55q-15 211 -248 211q-107 0 -190.5 -56t-100.5 -151
q-24 -139 152 -205l203 -78q160 -61 229.5 -164.5t48.5 -224.5q-34 -190 -191 -303t-382 -113q-209 0 -330.5 101t-134.5 258zM385 -600l-23 74q94 29 137 72t54 106q-71 -23 -111 11.5t-30 90.5q8 57 48.5 94t104.5 37q42 0 71 -18.5t39 -45t14.5 -55t-1.5 -49.5
q-23 -126 -97 -202t-206 -115z" />
    <glyph glyph-name="scommaaccent" unicode="&#x219;" horiz-adv-x="903" 
d="M250 -600l-21 74q93 29 135.5 72t53.5 106q-71 -23 -111.5 12t-30.5 90q8 56 49 93.5t105 37.5q42 0 71 -18.5t39 -45t14.5 -55t-1.5 -49.5q-23 -126 -97 -202t-206 -115zM936 803l-182 -39q-22 113 -142 113q-68 0 -115.5 -37.5t-58.5 -94.5q-9 -46 19 -73t82 -49
l139 -50q226 -72 194 -288q-24 -141 -145.5 -224.5t-277.5 -83.5q-139 0 -238 71.5t-111 197.5l185 43q8 -62 63 -102t133 -40q77 0 133.5 40t67.5 100q7 50 -20.5 79t-83.5 50l-127 47q-246 76 -207 278q25 131 134 218.5t259 87.5q75 0 135 -21.5t106.5 -78t57.5 -144.5z
" />
    <glyph glyph-name="uni021A" unicode="&#x21a;" horiz-adv-x="1232" 
d="M719 0h-45q86 -95 65 -225q-19 -113 -109.5 -172.5t-191.5 -59.5q-97 0 -156.5 62t-64.5 157l96 50q37 -121 146 -121q47 0 90 34t53 91q16 95 -39 184h-49l223 1266h-477l29 168h1159l-29 -168h-477z" />
    <glyph glyph-name="uni021B" unicode="&#x21b;" horiz-adv-x="858" 
d="M559 868l-100 -559q-16 -81 11 -119t83 -38q51 0 93 29t52 83q7 48 0 84h174q3 -10 3.5 -21t-0.5 -26.5t-1 -21.5l-6 -41q-14 -93 -80 -160t-170 -90q42 -24 65 -64t24 -77t-2 -72q-19 -113 -110 -172.5t-192 -59.5q-97 0 -156.5 62t-64.5 157l97 50q37 -121 145 -121
q47 0 90 34t53 91q6 23 0 55t-34.5 66.5t-77.5 46.5q-110 13 -164.5 97.5t-28.5 242.5l96 544h-165l26 156h168l96 295h154l-51 -295h325l-26 -156h-326z" />
    <glyph glyph-name="circumflex" unicode="&#x2c6;" horiz-adv-x="1253" 
d="M782 1481h209l187 -307h-156l-156 188l-225 -188h-156z" />
    <glyph glyph-name="caron" unicode="&#x2c7;" horiz-adv-x="1224" 
d="M922 1174h-209l-187 307h156l158 -189l223 189h156z" />
    <glyph glyph-name="uni02C9" unicode="&#x2c9;" horiz-adv-x="1103" 
d="M512 1391h571l-28 -156h-572z" />
    <glyph glyph-name="breve" unicode="&#x2d8;" horiz-adv-x="970" 
d="M897 1479l127 -11q-20 -80 -58 -139.5t-85 -92t-94.5 -47.5t-96.5 -15q-48 0 -90 15t-77 47.5t-51.5 92t-8.5 139.5l131 11q-12 -158 123 -158q140 0 180 158z" />
    <glyph glyph-name="dotaccent" unicode="&#x2d9;" horiz-adv-x="604" 
d="M395 1317q11 60 56.5 99.5t105.5 39.5t92.5 -39.5t22.5 -99.5t-57 -98.5t-107 -38.5t-92 38.5t-21 98.5z" />
    <glyph glyph-name="ring" unicode="&#x2da;" horiz-adv-x="759" 
d="M410 1389q17 91 89.5 154t162.5 63q91 0 144 -63.5t36 -153.5q-15 -89 -91 -152t-167 -63t-141 62t-33 153zM512 1389q-8 -48 18.5 -80.5t73.5 -32.5t86.5 33t46.5 80q8 47 -19.5 79.5t-74.5 32.5t-85.5 -32.5t-45.5 -79.5z" />
    <glyph glyph-name="ogonek" unicode="&#x2db;" horiz-adv-x="931" 
d="M440 35l-2 -17q-102 -97 -123 -202q-10 -57 20.5 -91t76.5 -34q54 0 104.5 32t85.5 89l82 -50q-39 -95 -122.5 -157t-180.5 -62q-46 0 -87.5 13.5t-75.5 40.5t-50 73t-6 105q29 148 194 260h84z" />
    <glyph glyph-name="tilde" unicode="&#x2dc;" horiz-adv-x="1015" 
d="M987 1458l84 -26q-47 -114 -98 -163.5t-119 -49.5q-46 0 -130 40.5t-114 40.5q-34 0 -54.5 -19.5t-59.5 -80.5l-84 27q51 116 100.5 164.5t116.5 48.5q47 0 129 -41t112 -41q36 0 61 21.5t56 78.5z" />
    <glyph glyph-name="hungarumlaut" unicode="&#x2dd;" horiz-adv-x="1107" 
d="M643 1481h186l-245 -307h-174zM977 1481h186l-245 -307h-175z" />
    <glyph glyph-name="uni0394" unicode="&#x394;" horiz-adv-x="1533" 
d="M82 0l823 1434h244l293 -1434h-1360zM989 1235l-610 -1067h825z" />
    <glyph glyph-name="uni03A9" unicode="&#x3a9;" horiz-adv-x="1658" 
d="M942 0l29 178q193 59 327 202t170 337q28 159 -11 286.5t-143 203t-259 75.5q-230 0 -401 -161t-216 -404q-35 -200 45 -339t256 -200l-28 -178h-580l29 168h303q-125 78 -190.5 238t-30.5 348q27 144 102 272.5t184 223.5t254 150.5t303 55.5q212 0 361.5 -95
t210 -254.5t24.5 -352.5q-35 -190 -157 -349.5t-273 -236.5h305l-28 -168h-586z" />
    <glyph glyph-name="uni03BC" unicode="&#x3bc;" horiz-adv-x="1251" 
d="M360 20l-57 -325h-201l238 1329h199l-113 -625q-23 -123 28.5 -184t135.5 -61q36 0 77.5 9.5t93.5 37t96 69.5t81 114.5t53 164.5l84 475h201l-182 -1024h-199l37 205q-54 -109 -155 -168.5t-230 -59.5q-111 0 -187 43z" />
    <glyph glyph-name="pi" unicode="&#x3c0;" horiz-adv-x="1404" 
d="M981 410l-10 -60q-16 -105 22 -151.5t99 -46.5q127 0 145 104l4 35h170q3 -18 0 -39q0 -10 -2 -16q-18 -114 -110.5 -186.5t-237.5 -72.5q-37 0 -70.5 5t-68 17t-61 32t-50 50.5t-33.5 72.5t-13 97.5t11 125.5l6 33l80 454h-278l-152 -864h-199l152 864h-174l31 160h1089
l-31 -160h-239z" />
    <glyph glyph-name="Wgrave" unicode="&#x1e80;" horiz-adv-x="2035" 
d="M1178 1386h168l139 -1042l534 1090h205l-698 -1434h-176l-144 1077l-520 -1077h-176l-195 1434h205l150 -1090zM1067 1851h211l108 -284h-169z" />
    <glyph glyph-name="wgrave" unicode="&#x1e81;" horiz-adv-x="1683" 
d="M932 993l-365 -727l-129 758h-207l191 -1024h188l355 713l108 -713h189l550 1024h-206l-404 -758l-102 727h-168zM795 1481h223l123 -307h-174z" />
    <glyph glyph-name="Wacute" unicode="&#x1e82;" horiz-adv-x="2035" 
d="M1178 1386h168l139 -1042l534 1090h205l-698 -1434h-176l-144 1077l-520 -1077h-176l-195 1434h205l150 -1090zM1405 1851h211l-252 -284h-170z" />
    <glyph glyph-name="wacute" unicode="&#x1e83;" horiz-adv-x="1683" 
d="M932 993l-365 -727l-129 758h-207l191 -1024h188l355 713l108 -713h189l550 1024h-206l-404 -758l-102 727h-168zM1188 1481h223l-283 -307h-174z" />
    <glyph glyph-name="Wdieresis" unicode="&#x1e84;" horiz-adv-x="2035" 
d="M1178 1386h168l139 -1042l534 1090h205l-698 -1434h-176l-144 1077l-520 -1077h-176l-195 1434h205l150 -1090zM969 1694q10 55 53.5 92t97.5 37q56 0 85.5 -37t19.5 -92q-11 -54 -54 -90.5t-98 -36.5q-54 0 -84 36.5t-20 90.5zM1407 1694q10 55 54 92t98 37
q55 0 85 -36.5t19 -92.5q-11 -54 -54 -90.5t-98 -36.5q-54 0 -84 36.5t-20 90.5z" />
    <glyph glyph-name="wdieresis" unicode="&#x1e85;" horiz-adv-x="1683" 
d="M932 993l-365 -727l-129 758h-207l191 -1024h188l355 713l108 -713h189l550 1024h-206l-404 -758l-102 727h-168zM719 1327q11 56 53 92.5t96 36.5q56 0 86.5 -37t20.5 -92q-11 -54 -55 -90.5t-99 -36.5q-54 0 -83.5 36.5t-18.5 90.5zM1157 1327q10 55 53 92t97 37
q56 0 86 -37t20 -92q-11 -54 -54.5 -90.5t-98.5 -36.5q-54 0 -83.5 36.5t-19.5 90.5z" />
    <glyph glyph-name="Ygrave" unicode="&#x1ef2;" horiz-adv-x="1388" 
d="M694 590l-397 821l4 23h225l301 -670l539 670h225l-4 -23l-688 -821l-102 -590h-205zM780 1851h211l109 -284h-170z" />
    <glyph glyph-name="ygrave" unicode="&#x1ef3;" horiz-adv-x="1134" 
d="M621 260l428 764h231l-893 -1483h-192l278 494l-256 989h227zM516 1481h223l123 -307h-174z" />
    <glyph glyph-name="thinspace" unicode="&#x2009;" horiz-adv-x="34" 
 />
    <glyph glyph-name="endash" unicode="&#x2013;" horiz-adv-x="1161" 
d="M229 535l31 182h887l-31 -182h-887z" />
    <glyph glyph-name="emdash" unicode="&#x2014;" horiz-adv-x="1630" 
d="M229 535l31 182h1356l-31 -182h-1356z" />
    <glyph glyph-name="quoteleft" unicode="&#x2018;" horiz-adv-x="505" 
d="M618 1481l23 -74q-91 -29 -139 -85t-60 -124q72 23 110 -11.5t28 -90.5q-8 -57 -51.5 -94t-114.5 -37q-40 0 -67.5 18.5t-36 45t-12 55t2.5 49.5q23 128 105 219t212 129z" />
    <glyph glyph-name="quoteright" unicode="&#x2019;" horiz-adv-x="503" 
d="M332 965l-27 73q91 28 138 84.5t59 124.5q-73 -23 -107.5 11t-29.5 92q6 56 50 93.5t115 37.5q40 0 67.5 -18.5t36 -45t12 -55t-2.5 -49.5q-24 -129 -103.5 -219.5t-207.5 -128.5z" />
    <glyph glyph-name="quotesinglbase" unicode="&#x201a;" horiz-adv-x="524" 
d="M104 -260l-24 74q169 53 196 209q-72 -23 -109.5 11.5t-27.5 90.5q11 58 53.5 94.5t112.5 36.5q40 0 67.5 -18.5t36 -45t12 -55t-2.5 -49.5q-23 -128 -104.5 -219t-209.5 -129z" />
    <glyph glyph-name="quotedblleft" unicode="&#x201c;" horiz-adv-x="907" 
d="M1016 1481l26 -74q-91 -28 -138.5 -84.5t-59.5 -124.5q72 23 109.5 -11.5t27.5 -90.5q-8 -57 -51.5 -94t-114.5 -37q-40 0 -67.5 18.5t-36 45t-12 55t2.5 49.5q24 129 104.5 219.5t209.5 128.5zM618 1481l23 -74q-91 -29 -139 -85t-60 -124q72 23 110 -11.5t28 -90.5
q-8 -57 -51.5 -94t-114.5 -37q-40 0 -67.5 18.5t-36 45t-12 55t2.5 49.5q23 128 105 219t212 129z" />
    <glyph glyph-name="quotedblright" unicode="&#x201d;" horiz-adv-x="903" 
d="M332 965l-27 73q91 28 138 84.5t59 124.5q-73 -23 -107.5 11t-29.5 92q6 56 50 93.5t115 37.5q40 0 67.5 -18.5t36 -45t12 -55t-2.5 -49.5q-24 -129 -103.5 -219.5t-207.5 -128.5zM729 965l-22 73q169 53 196 209q-73 -23 -107.5 11t-29.5 92q6 56 50.5 93.5t115.5 37.5
q33 0 57 -12t35 -31t18 -42t5.5 -44.5t-3.5 -38.5q-23 -128 -105 -219t-210 -129z" />
    <glyph glyph-name="quotedblbase" unicode="&#x201e;" horiz-adv-x="925" 
d="M109 -260l-29 74q169 53 196 209q-72 -23 -109.5 11.5t-27.5 90.5q11 58 53.5 94.5t112.5 36.5q40 0 67.5 -18.5t36 -45t12 -55t-2.5 -49.5q-24 -129 -103 -219.5t-206 -128.5zM506 -260l-25 74q91 28 138 84.5t59 124.5q-72 -23 -109.5 11.5t-27.5 90.5q11 58 53.5 94.5
t112.5 36.5q33 0 57 -12t35 -31t18 -42t5.5 -44.5t-3.5 -38.5q-23 -129 -104 -219.5t-209 -128.5z" />
    <glyph glyph-name="dagger" unicode="&#x2020;" horiz-adv-x="1089" 
d="M1182 907h-396l-215 -1198h-165l215 1198h-394l27 154h393l88 506h166l-88 -506h395z" />
    <glyph glyph-name="daggerdbl" unicode="&#x2021;" horiz-adv-x="1138" 
d="M1098 305h-396l-106 -596h-166l107 596h-394l29 154h393l80 448h-393l27 154h393l88 506h166l-88 -506h395l-27 -154h-395l-80 -448h395z" />
    <glyph glyph-name="bullet" unicode="&#x2022;" horiz-adv-x="823" 
d="M254 508q20 102 104.5 174t186.5 72q103 0 163 -72.5t40 -173.5q-17 -101 -103 -173.5t-188 -72.5t-161 71t-42 175z" />
    <glyph glyph-name="ellipsis" unicode="&#x2026;" horiz-adv-x="1665" 
d="M135 127q11 63 62 107.5t114 44.5t99.5 -44.5t25.5 -107.5q-10 -63 -61.5 -106.5t-114.5 -43.5t-99.5 43.5t-25.5 106.5zM702 127q11 63 62.5 107.5t114.5 44.5t99.5 -44.5t25.5 -107.5q-10 -63 -62 -106.5t-115 -43.5t-99 43.5t-26 106.5zM1270 127q11 63 62 107.5
t114 44.5t99.5 -44.5t25.5 -107.5q-10 -63 -61.5 -106.5t-114.5 -43.5t-99 43.5t-26 106.5z" />
    <glyph glyph-name="perthousand" unicode="&#x2030;" horiz-adv-x="2701" 
d="M428 0l1047 1434h161l-1046 -1434h-162zM262 1094q25 153 150 257.5t278 104.5q154 0 238 -103.5t59 -258.5q-25 -151 -149 -255t-277 -104t-238.5 103t-60.5 256zM426 1094q-17 -92 29 -151.5t133 -59.5t153.5 59t83.5 152q17 92 -29 153.5t-134 61.5q-86 0 -152.5 -61
t-83.5 -154zM1079 336q28 154 151 258t277 104t239.5 -104t57.5 -258q-29 -153 -150.5 -256t-275.5 -103t-241 103.5t-58 255.5zM1243 336q-17 -92 28.5 -151.5t131.5 -59.5q88 0 155 59.5t84 151.5q17 93 -28.5 154t-132.5 61q-86 0 -153.5 -61t-84.5 -154zM1962 336
q28 154 151 258t277 104t239.5 -104t57.5 -258q-29 -153 -150.5 -256t-275.5 -103t-241 103.5t-58 255.5zM2126 336q-17 -92 28.5 -151.5t131.5 -59.5q88 0 155 59.5t84 151.5t-28.5 153.5t-133.5 61.5q-86 0 -153 -61t-84 -154z" />
    <glyph glyph-name="guilsinglleft" unicode="&#x2039;" horiz-adv-x="700" 
d="M195 594l8 33l456 436l105 -94l-375 -359l248 -356l-137 -94z" />
    <glyph glyph-name="guilsinglright" unicode="&#x203a;" horiz-adv-x="700" 
d="M719 627l-8 -33l-457 -434l-104 94l374 356l-248 359l138 94z" />
    <glyph glyph-name="fraction" unicode="&#x2044;" horiz-adv-x="307" 
d="M1061 1505l-1399 -1585h-162l1397 1585h164z" />
    <glyph glyph-name="zerosuperior" unicode="&#x2070;" horiz-adv-x="774" 
d="M938 1286q-30 -160 -136 -266.5t-255 -106.5q-147 0 -216.5 107.5t-39.5 265.5q29 159 135.5 266t253.5 107q148 0 217.5 -107t40.5 -266zM803 1286q20 114 -18.5 185t-125.5 71q-86 0 -149 -71t-84 -185t17 -185t124 -71q87 0 151 71t85 185z" />
    <glyph glyph-name="foursuperior" unicode="&#x2074;" horiz-adv-x="702" 
d="M387 1214h211l41 234zM580 1116h-353l13 72l477 461h88l-76 -435h148l-19 -98h-147l-31 -190h-131z" />
    <glyph glyph-name="fivesuperior" unicode="&#x2075;" horiz-adv-x="661" 
d="M500 1020q81 0 128 40.5t58 106.5q11 54 -21.5 96t-103.5 42q-51 0 -86 -12t-82 -40q-10 4 -39.5 23t-46.5 24l82 347h451l-19 -101h-336l-41 -184q27 19 73.5 29t86.5 10q112 0 170.5 -68.5t40.5 -165.5q-21 -117 -110.5 -186.5t-229.5 -69.5q-145 0 -235 95l86 84
q65 -70 174 -70z" />
    <glyph glyph-name="sixsuperior" unicode="&#x2076;" horiz-adv-x="700" 
d="M662 1554q-78 0 -149.5 -71.5t-98.5 -182.5q41 50 105.5 75.5t125.5 25.5q99 0 160 -71t41 -175q-19 -107 -107.5 -175.5t-210.5 -68.5q-144 0 -206.5 97t-32.5 260q31 168 136 279.5t255 111.5q71 0 125 -24.5t80 -63.5l-101 -76q-17 28 -51 43.5t-71 15.5zM412 1157
q-10 -64 27.5 -100.5t105.5 -36.5q66 0 115 36.5t59 100.5q10 63 -24.5 100t-100.5 37q-68 0 -120 -37.5t-62 -99.5z" />
    <glyph glyph-name="sevensuperior" unicode="&#x2077;" horiz-adv-x="587" 
d="M313 1548l19 101h524l-14 -76l-439 -647h-145l432 622h-377z" />
    <glyph glyph-name="eightsuperior" unicode="&#x2078;" horiz-adv-x="716" 
d="M537 1016q72 0 122.5 35.5t61.5 87.5q8 53 -26.5 87t-110.5 34h-9q-78 0 -125 -34.5t-55 -86.5q-11 -52 28.5 -87.5t113.5 -35.5zM631 1554q-60 0 -101 -28t-49 -70q-7 -46 19.5 -77t89.5 -31h8q62 0 101.5 31.5t45.5 76.5q8 42 -23 70t-91 28zM518 913q-129 0 -201 65.5
t-55 160.5q11 57 64 106t129 66q-58 18 -85.5 59.5t-21.5 85.5q12 85 99 143t202 58q116 0 181 -57t51 -144q-6 -43 -51 -85t-111 -60q73 -17 110.5 -66t26.5 -106q-17 -95 -113.5 -160.5t-224.5 -65.5z" />
    <glyph glyph-name="ninesuperior" unicode="&#x2079;" horiz-adv-x="698" 
d="M492 1018q76 0 148.5 72t96.5 182q-41 -50 -104 -75.5t-123 -25.5q-101 0 -161.5 71t-43.5 175q19 107 107.5 175.5t210.5 68.5q144 0 207.5 -97t33.5 -259q-31 -168 -136 -280t-255 -112q-71 0 -126 25t-79 63l99 76q18 -28 53 -43.5t72 -15.5zM741 1415
q10 64 -28.5 100.5t-106.5 36.5q-65 0 -113.5 -36.5t-58.5 -100.5q-10 -63 24.5 -100t100.5 -37q68 0 120 37.5t62 99.5z" />
    <glyph glyph-name="parenleftsuperior" unicode="&#x207d;" horiz-adv-x="411" 
d="M580 1733l57 -47q-36 -49 -54 -76.5t-56 -92t-63.5 -135.5t-39.5 -147q-41 -223 55 -449l-78 -47q-18 23 -34.5 54t-36.5 80t-30 102t-13.5 122t10.5 140q29 162 116.5 298t166.5 198z" />
    <glyph glyph-name="parenrightsuperior" unicode="&#x207e;" horiz-adv-x="411" 
d="M367 1686l77 47q24 -28 46 -71t44 -111t26 -144t-9 -170q-29 -163 -116.5 -297.5t-168.5 -200.5l-57 47q172 216 215 449q45 252 -57 451z" />
    <glyph glyph-name="zeroinferior" unicode="&#x2080;" horiz-adv-x="774" 
d="M721 74q-25 -158 -134.5 -265.5t-256.5 -107.5t-214.5 106.5t-41.5 266.5q25 157 134 264.5t257 107.5t215 -106t41 -266zM586 74q21 114 -17 185t-125 71t-150.5 -71t-84.5 -185t17.5 -185t125.5 -71t150 71t84 185z" />
    <glyph glyph-name="oneinferior" unicode="&#x2081;" horiz-adv-x="434" 
d="M94 219l-14 100l268 117h72l-129 -723h-135l100 574z" />
    <glyph glyph-name="twoinferior" unicode="&#x2082;" horiz-adv-x="686" 
d="M459 -25l-215 -155q22 0 52 0.5t52.5 1t24.5 0.5h225l-18 -109h-551l-2 78l354 264q104 79 117 158q10 56 -18 85.5t-85 29.5q-68 0 -107 -34.5t-46 -76.5h-142q7 37 28 74t57.5 72.5t97 58t133.5 22.5q119 0 176 -66.5t39 -162.5q-12 -74 -55.5 -128t-116.5 -112z" />
    <glyph glyph-name="threeinferior" unicode="&#x2083;" horiz-adv-x="669" 
d="M10 -203l88 88q33 -36 81.5 -54.5t96.5 -18.5q73 0 123.5 39t61.5 96q10 61 -27 102t-98 41q-64 0 -111 -24l-45 67l266 205h-313l19 100h510l-15 -71l-241 -193q103 -10 153 -74t33 -157q-18 -103 -108.5 -171.5t-227.5 -68.5q-157 0 -246 94z" />
    <glyph glyph-name="fourinferior" unicode="&#x2084;" horiz-adv-x="702" 
d="M172 2h211l41 234zM367 -96h-353l13 71l477 461h88l-78 -434h148l-17 -98h-147l-33 -191h-131z" />
    <glyph glyph-name="fiveinferior" unicode="&#x2085;" horiz-adv-x="661" 
d="M287 -190q81 0 128 40.5t58 106.5q8 55 -23.5 96t-101.5 41q-52 0 -88.5 -12t-81.5 -39q-12 5 -40 23.5t-42 23.5l82 346h451l-21 -100h-336l-43 -184q55 38 160 38q111 0 171 -68.5t42 -164.5q-24 -118 -113 -187t-229 -69q-146 0 -235 94l88 84q64 -69 174 -69z" />
    <glyph glyph-name="sixinferior" unicode="&#x2086;" horiz-adv-x="700" 
d="M446 344q-76 0 -148.5 -72t-96.5 -182q38 50 102 75t125 25q99 0 161 -71t42 -174q-19 -106 -108.5 -175t-211.5 -69q-144 0 -206.5 96.5t-32.5 259.5q30 168 136.5 280t256.5 112q70 0 123.5 -25t79.5 -64l-101 -75q-17 28 -50.5 43.5t-70.5 15.5zM195 -53
q-10 -64 28.5 -100.5t106.5 -36.5q65 0 113.5 36.5t58.5 100.5q10 63 -23.5 100t-99.5 37q-68 0 -121 -38t-63 -99z" />
    <glyph glyph-name="seveninferior" unicode="&#x2087;" horiz-adv-x="587" 
d="M98 336l19 100h524l-16 -76l-439 -647h-145l434 623h-377z" />
    <glyph glyph-name="eightinferior" unicode="&#x2088;" horiz-adv-x="716" 
d="M322 -197q72 0 122.5 35.5t61.5 87.5t-24.5 86.5t-112.5 34.5h-9q-77 0 -123 -34t-57 -87q-11 -52 28.5 -87.5t113.5 -35.5zM418 342q-60 0 -102 -28t-50 -70q-8 -45 20 -77t91 -32h8q62 0 99.5 32t45.5 77q8 43 -22 70.5t-90 27.5zM303 -299q-129 0 -201 65t-55 160
q11 57 65 106t130 66q-60 18 -87.5 59.5t-21.5 86.5q12 85 100 142.5t205 57.5q116 0 179 -56.5t49 -143.5q-6 -43 -50.5 -85.5t-109.5 -60.5q72 -17 109 -66t26 -106q-17 -95 -113.5 -160t-224.5 -65z" />
    <glyph glyph-name="nineinferior" unicode="&#x2089;" horiz-adv-x="700" 
d="M276 -195q78 0 149.5 71.5t98.5 182.5q-41 -50 -104.5 -75t-124.5 -25q-101 0 -160.5 70.5t-42.5 175.5q19 107 107.5 175.5t210.5 68.5q144 0 206.5 -97t32.5 -260q-31 -168 -136 -279.5t-255 -111.5q-70 0 -123.5 24.5t-79.5 63.5l99 76q17 -28 51 -44t71 -16zM528 203
q10 64 -28.5 100.5t-106.5 36.5q-65 0 -113.5 -36.5t-58.5 -100.5q-10 -63 23.5 -100t99.5 -37q68 0 121 38t63 99z" />
    <glyph glyph-name="parenleftinferior" unicode="&#x208d;" horiz-adv-x="409" 
d="M373 561l57 -47q-173 -217 -215 -451q-44 -240 57 -448l-77 -47q-18 24 -35 54.5t-37 79.5t-30.5 102t-15 122t10.5 140q29 162 116.5 295.5t168.5 199.5z" />
    <glyph glyph-name="parenrightinferior" unicode="&#x208e;" horiz-adv-x="409" 
d="M158 514l78 47q23 -28 45.5 -71t43.5 -110.5t24.5 -143.5t-9.5 -170q-29 -163 -115.5 -298t-167.5 -200l-53 47q91 131 134 220q54 114 75 228q11 62 12 124t-4.5 106.5t-18 92t-22 72t-22.5 56.5z" />
    <glyph glyph-name="lira" unicode="&#x20a4;" horiz-adv-x="1312" 
d="M649 1057q-17 -92 8 -228h430l-22 -118h-387q10 -43 22 -125h344l-20 -119h-319q-2 -4 -7 -41q-37 -201 -194 -258l-2 -6q66 6 284 6h465l-28 -168h-1129l29 168q88 0 154 17t103.5 41t63.5 63.5t36 70.5t18 76q4 28 4 31h-285l21 119h262q-7 47 -25 125h-217l23 118h172
q-25 141 -13 228q21 120 102 212t197.5 139.5t249.5 47.5q68 0 125.5 -11t98.5 -31t73.5 -46.5t51 -58t30.5 -65.5t12 -68.5t-4 -67.5h-196q14 80 -42 128t-169 48q-130 0 -215.5 -61t-104.5 -166z" />
    <glyph glyph-name="rupee" unicode="&#x20a8;" horiz-adv-x="1400" 
d="M1460 965h-203q-35 -158 -143.5 -271.5t-265.5 -142.5q-6 -61 2.5 -128.5t31 -129t66 -101.5t99.5 -40q104 0 182 65l47 -139q-115 -101 -270 -101q-69 0 -126 22t-94 59.5t-66 86.5t-42 102t-22.5 107.5t-7.5 102.5t3 86h-434l29 164h491q116 0 198 70t107 188h-751
l22 133h736q-12 79 -66 123.5t-145 44.5h-492l27 168h555h614l-22 -134h-318q56 -71 66 -202h215z" />
    <glyph glyph-name="uni20A9" unicode="&#x20a9;" horiz-adv-x="2152" 
d="M248 838l20 123h166l-63 473h204l64 -473h385l211 425h168l55 -425h383l234 473h204l-231 -473h168l-21 -123h-206l-82 -168h260l-23 -123h-297l-264 -547h-176l-145 1077l-519 -1077h-176l-78 547h-292l22 123h256l-24 168h-203zM657 838l25 -168h203l80 168h-308z
M1475 838l24 -168h203l80 168h-307zM1513 547l29 -203l98 203h-127zM698 547l29 -203l96 203h-125z" />
    <glyph glyph-name="afii57636" unicode="&#x20aa;" horiz-adv-x="1507" 
d="M500 903l-158 -903h-199l195 1102h463q186 0 283.5 -118t64.5 -292l-57 -319h-199l57 319q18 90 -33.5 150.5t-152.5 60.5h-264zM1198 199l162 903h199l-195 -1102h-463q-126 0 -213.5 55t-123 147.5t-15.5 207.5l57 319h199l-57 -319q-18 -90 33.5 -150.5t152.5 -60.5
h264z" />
    <glyph glyph-name="Euro" unicode="&#x20ac;" horiz-adv-x="1368" 
d="M1249 203l-35 -176q-135 -50 -258 -50q-150 0 -262 39.5t-180 112t-102.5 167t-38.5 212.5h-203l27 139h184q1 8 1 21.5t1 25t4 21.5l10 57h-178l25 139h198q44 120 112.5 217.5t162 172t218 115t269.5 40.5q189 0 328 -88l-90 -162q-109 68 -262 68q-193 0 -327 -98
t-204 -265h664l-70 -139h-643l-8 -51q-3 -15 -8 -74h600l-70 -139h-532q18 -162 115.5 -255t281.5 -93q164 0 270 43z" />
    <glyph glyph-name="uni2113" unicode="&#x2113;" horiz-adv-x="974" 
d="M1092 1110q-49 -285 -222 -502t-397 -284q-11 -91 26 -131.5t93 -40.5q129 0 147 104q1 7 1 23.5t1 23.5h170q2 -14 2 -45q0 -14 -2 -22q-19 -114 -112 -186.5t-238 -72.5q-48 0 -89 8t-82.5 29.5t-69.5 56t-43.5 92.5t-10.5 134q-69 0 -149 22l24 136q68 -23 146 -23
l121 678q13 68 37 124t52.5 94t65 66.5t70.5 44.5t71.5 26t66 13t56.5 3q26 0 49 -2.5t52.5 -9t52 -18.5t47 -31.5t39 -47t26.5 -65t9.5 -86.5t-10.5 -111zM913 1110q18 105 -16 151t-94 46q-151 0 -191 -197l-112 -621q146 74 260 233t153 388z" />
    <glyph glyph-name="afii61352" unicode="&#x2116;" horiz-adv-x="2217" 
d="M1690 1124q25 131 129.5 220.5t234.5 89.5t204.5 -90t49.5 -220t-127 -217.5t-233 -87.5q-130 0 -206.5 88.5t-51.5 216.5zM1831 1124q-13 -78 25 -129t110 -51q75 0 134.5 51t72.5 129q14 79 -26 132t-115 53q-72 0 -129.5 -53.5t-71.5 -131.5zM1589 555l23 125h616
l-22 -125h-617zM547 1061l600 -1061h151l252 1434h-207l-186 -1057l-598 1057h-151l-252 -1434h204z" />
    <glyph glyph-name="uni2117" unicode="&#x2117;" horiz-adv-x="1646" 
d="M225 717q27 151 107 287.5t193.5 235.5t258.5 157.5t295 58.5t274 -58.5t202 -157.5t110 -235.5t6 -287.5q-36 -201 -160.5 -371t-309 -269.5t-384.5 -99.5t-348.5 99.5t-213.5 269t-30 371.5zM348 717q-29 -168 25.5 -309.5t178 -224.5t288.5 -83q166 0 319 83
t256.5 224.5t132.5 309.5q22 126 -4.5 239.5t-91.5 196.5t-168 131.5t-227 48.5q-166 0 -319 -82.5t-257 -224t-133 -309.5zM1288 834q-17 -103 -91.5 -164.5t-178.5 -61.5h-150l-45 -268h-147l127 733h297q105 0 155.5 -69t32.5 -170zM889 727h129q46 0 77 29t42 78
t-9.5 84.5t-66.5 35.5h-129z" />
    <glyph glyph-name="trademark" unicode="&#x2122;" horiz-adv-x="1783" 
d="M328 1434h649l-21 -115h-258l-108 -619h-133l108 619h-258zM1757 700h-129l45 506l-293 -497h-98l-115 495l-133 -504h-131l199 734h133l133 -535l313 535h140z" />
    <glyph glyph-name="Omega" unicode="&#x2126;" horiz-adv-x="1671" 
d="M948 0l29 178q193 59 327.5 202t170.5 337q28 159 -11 286.5t-143.5 203t-259.5 75.5q-230 0 -401 -161t-216 -404q-35 -200 45 -339t256 -200l-28 -178h-580l29 168h303q-125 78 -190.5 238t-30.5 348q27 144 102 272.5t184.5 223.5t254.5 150.5t303 55.5
q212 0 361.5 -95t210 -254.5t24.5 -352.5q-35 -189 -157.5 -349t-273.5 -237h306l-29 -168h-586z" />
    <glyph glyph-name="estimated" unicode="&#x212e;" horiz-adv-x="1316" 
d="M1343 578h-878l-78 -396q113 -129 289 -129q67 0 127.5 14.5t107 36.5t92.5 58t79.5 70t72.5 81l57 -39q-56 -67 -109.5 -115.5t-120.5 -89.5t-147 -62t-173 -21q-99 0 -181.5 31.5t-138 87t-91.5 131.5t-40.5 165.5t14.5 188.5q25 121 85.5 227.5t147.5 185.5t202 125
t241 46q102 0 186 -31t139 -86t90 -130t39.5 -163t-12.5 -186zM1110 645l68 334q-51 55 -127 91t-162 36q-196 0 -344 -127l-68 -334h633z" />
    <glyph glyph-name="arrowleft" unicode="&#x2190;" horiz-adv-x="1337" 
d="M1235 590l-27 -158h-723l193 -278l-135 -95l-305 435l6 32l456 437l107 -95l-293 -278h721z" />
    <glyph glyph-name="arrowup" unicode="&#x2191;" horiz-adv-x="1177" 
d="M670 25h-158l129 720l-322 -241l-73 121l506 381h32l365 -381l-115 -121l-235 244z" />
    <glyph glyph-name="arrowright" unicode="&#x2192;" horiz-adv-x="1337" 
d="M279 432l28 158h721l-192 278l135 95l305 -437l-6 -32l-457 -435l-106 95l294 278h-722z" />
    <glyph glyph-name="arrowdown" unicode="&#x2193;" horiz-adv-x="1181" 
d="M690 1006h158l-129 -723l321 243l74 -120l-504 -381h-32l-367 381l115 120l235 -241z" />
    <glyph glyph-name="partialdiff" unicode="&#x2202;" horiz-adv-x="1347" 
d="M791 1241l-27 160q131 55 260 55q100 0 176 -22.5t123 -61.5t75 -95.5t36.5 -119.5t3 -138.5t-21.5 -147.5t-42 -152q-119 -362 -323 -552t-494 -190q-110 0 -192.5 28t-129.5 75.5t-70 111.5t-20.5 134t25.5 145q44 138 145 238t225.5 147t258.5 47q130 0 229 -52
t146 -144q0 4 2 8v4q24 70 38 134.5t19 129t-8.5 117t-42.5 94t-84.5 64t-132.5 22.5q-96 -3 -174 -39zM770 733q-134 0 -246 -71t-155 -197q-48 -149 22 -230t223 -81q334 0 506 405q-81 174 -350 174z" />
    <glyph glyph-name="Delta" unicode="&#x2206;" horiz-adv-x="1482" 
d="M61 0l824 1434h243l293 -1434h-1360zM969 1235l-611 -1067h826z" />
    <glyph glyph-name="product" unicode="&#x220f;" horiz-adv-x="1480" 
d="M1432 1274l-279 -1563h-199l279 1563h-535l-278 -1563h-199l279 1563h-197l25 160h1325l-25 -160h-196z" />
    <glyph glyph-name="summation" unicode="&#x2211;" horiz-adv-x="1175" 
d="M43 -166l635 735l-352 738l22 127h942l-26 -168h-707l-2 -9l332 -684l-598 -690l2 -8h786l-33 -166h-1024z" />
    <glyph glyph-name="minus" unicode="&#x2212;" horiz-adv-x="1349" 
d="M238 535l30 182h1059l-31 -182h-1058z" />
    <glyph glyph-name="uni2219" unicode="&#x2219;" horiz-adv-x="591" 
d="M244 565q12 63 62.5 107.5t113.5 44.5t100 -44.5t25 -107.5t-62.5 -106t-113.5 -43t-100 43t-25 106z" />
    <glyph glyph-name="radical" unicode="&#x221a;" horiz-adv-x="1124" 
d="M463 854l115 -717l2 -45l18 45l588 1430h168l-727 -1757h-166l-148 852l-151 -66l-29 119z" />
    <glyph glyph-name="infinity" unicode="&#x221e;" horiz-adv-x="1761" 
d="M389 612q-17 -85 32.5 -132.5t139.5 -47.5q82 0 203 94l106 86q-19 21 -49.5 58t-46.5 53.5t-40.5 37t-49.5 28.5t-57 8q-90 0 -155.5 -48t-82.5 -137zM967 506l-107 -90q-103 -75 -183.5 -111.5t-172.5 -36.5q-148 0 -232.5 94t-56.5 250q19 106 81 186.5t148 121.5
t183 41q180 0 303 -148l74 -88h8l112 88q97 76 175 112t174 36q149 0 231.5 -94.5t54.5 -254.5q-29 -158 -144 -251t-265 -93q-94 0 -155.5 35t-139.5 113l-80 90h-8zM1583 612q17 89 -29 137t-135 48q-51 0 -98 -24t-109 -73l-106 -88l76 -86q43 -48 81.5 -71t90.5 -23
q88 0 150 47t79 133z" />
    <glyph glyph-name="integral" unicode="&#x222b;" horiz-adv-x="1021" 
d="M823 1194l-227 -1276q-16 -95 -50 -167.5t-75.5 -115.5t-94.5 -70t-101 -36.5t-101 -9.5t-125 26t-119 68l74 160q49 -40 105 -60t92 -20q27 0 54 10t54 31.5t47.5 62t30.5 94.5l229 1276q17 95 51.5 167.5t75.5 115.5t93.5 70.5t100.5 37t101 9.5q54 0 129 -26t117 -68
l-74 -160q-50 40 -106 60t-92 20q-28 0 -55 -10t-54.5 -31.5t-48.5 -62t-31 -95.5z" />
    <glyph glyph-name="approxequal" unicode="&#x2248;" horiz-adv-x="1275" 
d="M1249 1016l35 -135q-115 -131 -274 -131q-68 0 -154 30t-167.5 60t-137.5 30q-127 0 -215 -90l-27 142q109 127 266 127q70 0 160.5 -30.5t173 -60.5t131.5 -30q113 0 209 88zM1157 520l37 -137q-117 -133 -276 -133q-54 0 -119.5 19t-116.5 41.5t-113.5 41.5t-109.5 19
q-126 0 -211 -90l-33 143q102 125 268 125q57 0 127.5 -18.5t124 -41t113.5 -41t98 -18.5q128 0 211 90z" />
    <glyph glyph-name="notequal" unicode="&#x2260;" horiz-adv-x="1212" 
d="M1235 872h-295l-262 -370h493l-30 -174h-588l-203 -281l-117 72l152 209h-199l31 174h293l264 370h-493l32 175h588l191 266l116 -70l-141 -196h201z" />
    <glyph glyph-name="lessequal" unicode="&#x2264;" horiz-adv-x="1273" 
d="M264 729l35 180l1034 361l-33 -178l-821 -273l725 -272l-33 -178zM147 68l29 157h975l-29 -157h-975z" />
    <glyph glyph-name="greaterequal" unicode="&#x2265;" horiz-adv-x="1273" 
d="M1294 909l-34 -180l-1035 -360l33 178l827 272l-731 273l33 178zM1176 225l-29 -157h-975l29 157h975z" />
    <glyph glyph-name="lozenge" unicode="&#x25ca;" horiz-adv-x="1185" 
d="M1235 698l-569 -698h-146l-321 698l575 738h146zM1047 696l-238 545l-422 -545l236 -510z" />
    <glyph glyph-name="commaaccent" unicode="&#xf6c3;" horiz-adv-x="698" 
d="M135 -600l-22 74q94 29 135.5 71.5t52.5 106.5q-70 -23 -109.5 11.5t-31.5 90.5q8 57 48.5 94t104.5 37q35 0 60.5 -12t38.5 -31t21 -42t7.5 -44.5t-2.5 -38.5q-23 -126 -97.5 -202t-205.5 -115z" />
    <glyph glyph-name="rupiah" unicode="&#xf6dd;" horiz-adv-x="2750" 
d="M365 0h-205l252 1434h598q132 0 220.5 -63t121 -164.5t10.5 -223.5q-30 -164 -141 -282t-273 -150q-4 -62 5 -128.5t31 -128.5t65 -102t100 -40q102 0 180 65l47 -139q-115 -101 -270 -101q-69 0 -126 22t-94 59.5t-65.5 86.5t-41.5 102t-22.5 107.5t-7.5 102.5t3 86
h-293zM487 707h351q121 0 205 76.5t108 201.5q24 126 -33.5 203.5t-179.5 77.5h-350zM2765 512q-28 -148 -111.5 -269t-213 -193.5t-279.5 -72.5q-239 0 -336 187l-113 -623h-199l265 1483h198l-28 -164q165 187 403 187q149 0 254 -72t146 -194t14 -269zM1882 512
q-29 -156 50.5 -257t234.5 -101t263 103t134 255q26 153 -44 255.5t-224 102.5t-269.5 -101t-144.5 -257z" />
    <glyph glyph-name="centinferior" unicode="&#xf6df;" horiz-adv-x="610" 
d="M180 -291l35 111q-82 30 -123 98t-24 158q21 108 108 185.5t207 84.5l35 111h69l-34 -113q85 -12 147 -63l-61 -88q-47 47 -119 53l-107 -338q30 0 48 2t53.5 14.5t72.5 38.5l48 -88q-141 -87 -252 -68l-31 -98h-72zM199 76q-14 -88 51 -146l98 312q-56 -18 -97.5 -63
t-51.5 -103z" />
    <glyph glyph-name="centsuperior" unicode="&#xf6e0;" horiz-adv-x="612" 
d="M397 915l33 111q-83 30 -122.5 97.5t-22.5 158.5q19 110 105 185t208 85l33 111h69l-34 -113q47 -6 79.5 -20t69.5 -43l-59 -88q-47 47 -121 53l-107 -338q30 0 48 2t53.5 14.5t72.5 38.5l46 -88q-60 -38 -126.5 -57.5t-123.5 -9.5l-29 -99h-72zM416 1282
q-19 -84 49 -145l98 311q-56 -18 -96.5 -62.5t-50.5 -103.5z" />
    <glyph glyph-name="commainferior" unicode="&#xf6e1;" horiz-adv-x="360" 
d="M31 -442l-13 49q59 19 86 47t39 70q-50 -16 -72.5 6.5t-17.5 62.5q5 37 31.5 61.5t67.5 24.5q37 0 56 -20.5t18.5 -44.5t-1.5 -45q-17 -86 -62.5 -135.5t-131.5 -75.5z" />
    <glyph glyph-name="commasuperior" unicode="&#xf6e2;" horiz-adv-x="360" 
d="M246 770l-10 49q58 19 85.5 47t38.5 70q-50 -16 -74.5 7.5t-17.5 62.5q6 37 32 61.5t67 24.5q38 0 57.5 -20.5t19 -45t-1.5 -45.5q-17 -86 -62.5 -135.5t-133.5 -75.5z" />
    <glyph glyph-name="dollarinferior" unicode="&#xf6e3;" horiz-adv-x="641" 
d="M287 -381h-62l19 92q-99 4 -156.5 56.5t-62.5 130.5l122 32q0 -43 32 -74.5t83 -37.5l35 209l-39 16q-164 69 -143 199q17 85 89 138.5t167 59.5l16 86h62l-17 -86q166 -21 176 -174l-116 -35q-9 80 -78 101l-37 -199l43 -16q77 -29 119.5 -85t31.5 -112
q-17 -91 -88.5 -146t-177.5 -63zM434 -88q10 58 -80 92l-30 -182q46 7 75.5 32t34.5 58zM250 244q-5 -27 8.5 -46t63.5 -38l30 174q-39 -8 -67.5 -32t-34.5 -58z" />
    <glyph glyph-name="dollarsuperior" unicode="&#xf6e4;" horiz-adv-x="643" 
d="M502 829h-62l19 93q-97 4 -155 56t-64 130l125 33q-1 -43 30.5 -75t81.5 -38l37 209l-39 16q-166 69 -145 199q17 84 90.5 139t165.5 60l18 86h62l-19 -86q168 -21 178 -174l-120 -35q-3 75 -76 100l-35 -199l39 -16q78 -32 120.5 -87t32.5 -110q-17 -91 -88.5 -145.5
t-177.5 -62.5zM651 1122q10 58 -80 92l-30 -182q46 7 75 32t35 58zM465 1454q-5 -27 9 -46t65 -38l28 174q-38 -8 -66.5 -32t-35.5 -58z" />
    <glyph glyph-name="hypheninferior" unicode="&#xf6e5;" horiz-adv-x="585" 
d="M86 -25l18 107h402l-19 -107h-401z" />
    <glyph glyph-name="hyphensuperior" unicode="&#xf6e6;" horiz-adv-x="585" 
d="M301 1188l18 106h402l-19 -106h-401z" />
    <glyph glyph-name="periodinferior" unicode="&#xf6e7;" horiz-adv-x="362" 
d="M47 -217q6 35 38 59.5t71 24.5q38 0 60.5 -24.5t16.5 -59.5t-38.5 -58.5t-71.5 -23.5q-38 0 -60 23.5t-16 58.5z" />
    <glyph glyph-name="periodsuperior" unicode="&#xf6e8;" horiz-adv-x="362" 
d="M262 995q6 35 38 59.5t71 24.5q38 0 61 -24.5t17 -59.5t-38 -58.5t-71 -23.5t-61.5 23.5t-16.5 58.5z" />
    <glyph glyph-name="apple" unicode="&#xf8ff;" horiz-adv-x="1437" 
d="M907 311h154q0 80 -24.5 143.5t-66 104t-90 65t-104.5 33.5q68 180 152 338l30 -399h154l-53 684h-150q-133 -245 -192 -416q-57 166 -193 416h-149l-53 -684h153l31 399q58 -108 151 -333q-59 -6 -111.5 -30t-97 -65t-70.5 -107.5t-26 -148.5h156q0 73 32 124t76 72
t93 21q77 0 137.5 -55t60.5 -162zM205 0v1413h1028v-1413h-1028zM297 168v-80h16v55l19 -55h14l21 57v-57h16v80h-25l-18 -55l-18 55h-25zM428 170q-18 0 -28.5 -12t-10.5 -31q0 -18 10.5 -29.5t28.5 -11.5t29.5 11.5t11.5 29.5q0 19 -11 31t-30 12zM428 100q-20 0 -20 27
q0 29 20 29q23 0 23 -29q0 -27 -23 -27zM485 115h-16q0 -29 35 -29q33 0 33 27q0 15 -23 22q-24 8 -25 12q0 9 13 9q14 0 14 -13h19q0 27 -33 27q-12 0 -21.5 -7t-9.5 -18q0 -19 27 -22q22 -6 22 -12q0 -11 -16 -11q-19 0 -19 15zM559 154v-66h19v66h24v14h-67v-14h24z
M618 168l-30 -80h18l6 18h29l6 -18h19l-29 80h-19zM637 119h-21l11 28zM668 168v-80h18v31h16q15 0 15 -15q0 -14 2 -16h18q-4 12 -4 18q0 17 -12 19v2q14 3 14 18q0 23 -24 23h-43zM686 131v23h19q12 0 12 -11q0 -12 -12 -12h-19zM743 168v-80h35q37 0 37 41q0 39 -37 39
h-35zM762 102v52h12q23 0 23 -27q0 -25 -21 -25h-14zM821 168v-80h62v14h-45v21h39v14h-39v17h43v14h-60zM901 115h-18q0 -29 35 -29q32 0 32 27q0 16 -22 22q-24 8 -25 12q0 9 12 9q14 0 17 -13h16q0 27 -33 27q-11 0 -20.5 -7t-9.5 -18q0 -19 26 -22q23 -7 23 -12
q0 -11 -16 -11q-17 0 -17 15zM956 168v-80h17v80h-17zM1040 96l2 -8h13v43h-35v-12h18q-3 -19 -18 -19q-23 0 -23 27q0 29 23 29q13 0 16 -15h17q-3 29 -33 29q-20 0 -30.5 -12t-10.5 -31q0 -18 10.5 -29.5t30.5 -11.5q10 0 20 10zM1063 168v-80h16v53l33 -53h18v80h-16v-53
l-35 53h-16z" />
    <glyph glyph-name="Euro.dnom" horiz-adv-x="737" 
d="M604 266h-266q25 -172 182 -172q82 0 150 27l-19 -105q-82 -28 -145 -28q-303 0 -303 278h-113l10 60h105l10 57h-104l12 61h110q44 133 142 210t254 77q99 0 178 -49l-49 -90q-56 35 -142 35q-169 0 -245 -183h321l-30 -61h-312l-10 -57h295z" />
    <glyph glyph-name="Euro.numr" horiz-adv-x="737" 
d="M731 977h-266q25 -172 182 -172q84 0 150 26l-19 -104q-89 -29 -145 -29q-158 0 -230.5 74t-72.5 205h-113l10 59h105l10 58h-104l10 61h110q44 132 144 209.5t254 77.5q99 0 178 -49l-49 -90q-57 34 -144 34q-163 0 -245 -182h321l-29 -61h-311l-10 -58h295z" />
    <glyph glyph-name="Euroinferior" horiz-adv-x="737" 
d="M553 -20h-266q25 -173 182 -173q81 0 149 27l-18 -104q-85 -29 -147 -29q-158 0 -230.5 74t-70.5 205h-113l10 59h105l10 57h-105l11 62h110q44 132 143.5 209t256.5 77q102 0 176 -49l-49 -90q-52 35 -142 35q-89 0 -151.5 -49.5t-96.5 -132.5h322l-29 -62h-311l-10 -57
h295z" />
    <glyph glyph-name="Eurosuperior" horiz-adv-x="737" 
d="M768 1192h-266q25 -172 182 -172q84 0 152 27l-21 -105q-85 -29 -145 -29q-158 0 -230.5 74t-72.5 205h-113l10 59h105l10 58h-105l13 61h110q44 133 142 210t254 77q99 0 178 -49l-47 -90q-57 34 -144 34q-170 0 -245 -182h321l-31 -61h-311l-10 -58h295z" />
    <glyph glyph-name="a.alt" horiz-adv-x="1181" 
d="M842 0l26 166q-38 -70 -156 -129.5t-247 -59.5q-111 0 -195.5 37.5t-128 114t-24.5 180.5q26 142 146 232t317 90q97 0 200.5 -15t153.5 -36l6 38q12 70 -6.5 121.5t-59.5 79t-88.5 39.5t-103.5 12q-174 0 -338 -110l-47 143q85 73 201.5 108.5t232.5 35.5
q85 0 153 -15.5t113.5 -42t78 -63t49 -76t24 -84.5t6 -84.5t-9.5 -79.5l-105 -602h-198zM573 487q-116 0 -180 -52.5t-78 -123.5q-14 -70 37 -124t170 -54q89 0 192.5 42t178.5 130l25 137q-79 22 -187 33.5t-158 11.5z" />
    <glyph glyph-name="aacute.alt" horiz-adv-x="1181" 
d="M881 1481h223l-283 -307h-174zM868 166l-26 -166h198l105 602q8 40 9.5 79.5t-6 84.5t-24 84.5t-49 76t-78 63t-113.5 42t-153 15.5q-116 0 -232.5 -35.5t-201.5 -108.5l47 -143q164 110 338 110q56 0 103.5 -12t88.5 -39.5t59.5 -79t6.5 -121.5l-6 -38q-50 21 -153.5 36
t-200.5 15q-197 0 -317 -90t-146 -232q-19 -104 24.5 -180.5t128 -114t195.5 -37.5q129 0 247 59.5t156 129.5zM573 487q50 0 158 -11.5t187 -33.5l-25 -137q-75 -88 -178.5 -130t-192.5 -42q-119 0 -170 54t-37 124q14 71 78 123.5t180 52.5z" />
    <glyph glyph-name="abreve.alt" horiz-adv-x="1181" 
d="M1006 1479l127 -11q-20 -80 -58 -139.5t-85 -92t-94.5 -47.5t-96.5 -15q-48 0 -90 15t-77.5 47.5t-52 92t-8.5 139.5l131 11q-12 -158 125 -158q139 0 179 158zM868 166l-26 -166h198l105 602q8 40 9.5 79.5t-6 84.5t-24 84.5t-49 76t-78 63t-113.5 42t-153 15.5
q-116 0 -232.5 -35.5t-201.5 -108.5l47 -143q164 110 338 110q56 0 103.5 -12t88.5 -39.5t59.5 -79t6.5 -121.5l-6 -38q-50 21 -153.5 36t-200.5 15q-197 0 -317 -90t-146 -232q-19 -104 24.5 -180.5t128 -114t195.5 -37.5q129 0 247 59.5t156 129.5zM573 487
q50 0 158 -11.5t187 -33.5l-25 -137q-75 -88 -178.5 -130t-192.5 -42q-119 0 -170 54t-37 124q14 71 78 123.5t180 52.5z" />
    <glyph glyph-name="acircumflex.alt" horiz-adv-x="1181" 
d="M729 1481h209l186 -307h-155l-156 188l-225 -188h-156zM868 166l-26 -166h198l105 602q8 40 9.5 79.5t-6 84.5t-24 84.5t-49 76t-78 63t-113.5 42t-153 15.5q-116 0 -232.5 -35.5t-201.5 -108.5l47 -143q164 110 338 110q56 0 103.5 -12t88.5 -39.5t59.5 -79t6.5 -121.5
l-6 -38q-50 21 -153.5 36t-200.5 15q-197 0 -317 -90t-146 -232q-19 -104 24.5 -180.5t128 -114t195.5 -37.5q129 0 247 59.5t156 129.5zM573 487q50 0 158 -11.5t187 -33.5l-25 -137q-75 -88 -178.5 -130t-192.5 -42q-119 0 -170 54t-37 124q14 71 78 123.5t180 52.5z" />
    <glyph glyph-name="acute.case" horiz-adv-x="739" 
d="M674 1851h211l-254 -284h-170z" />
    <glyph glyph-name="adieresis.alt" horiz-adv-x="1181" 
d="M446 1327q10 55 53 92t97 37q56 0 86 -37t20 -92q-11 -54 -53.5 -90.5t-97.5 -36.5q-54 0 -84.5 36.5t-20.5 90.5zM885 1327q11 56 53 92.5t96 36.5q56 0 86.5 -37t20.5 -92q-11 -54 -54 -90.5t-98 -36.5q-54 0 -84 36.5t-20 90.5zM868 166l-26 -166h198l105 602
q8 40 9.5 79.5t-6 84.5t-24 84.5t-49 76t-78 63t-113.5 42t-153 15.5q-116 0 -232.5 -35.5t-201.5 -108.5l47 -143q164 110 338 110q56 0 103.5 -12t88.5 -39.5t59.5 -79t6.5 -121.5l-6 -38q-50 21 -153.5 36t-200.5 15q-197 0 -317 -90t-146 -232q-19 -104 24.5 -180.5
t128 -114t195.5 -37.5q129 0 247 59.5t156 129.5zM573 487q50 0 158 -11.5t187 -33.5l-25 -137q-75 -88 -178.5 -130t-192.5 -42q-119 0 -170 54t-37 124q14 71 78 123.5t180 52.5z" />
    <glyph glyph-name="agrave.alt" horiz-adv-x="1181" 
d="M541 1481h223l123 -307h-174zM868 166l-26 -166h198l105 602q8 40 9.5 79.5t-6 84.5t-24 84.5t-49 76t-78 63t-113.5 42t-153 15.5q-116 0 -232.5 -35.5t-201.5 -108.5l47 -143q164 110 338 110q56 0 103.5 -12t88.5 -39.5t59.5 -79t6.5 -121.5l-6 -38q-50 21 -153.5 36
t-200.5 15q-197 0 -317 -90t-146 -232q-19 -104 24.5 -180.5t128 -114t195.5 -37.5q129 0 247 59.5t156 129.5zM573 487q50 0 158 -11.5t187 -33.5l-25 -137q-75 -88 -178.5 -130t-192.5 -42q-119 0 -170 54t-37 124q14 71 78 123.5t180 52.5z" />
    <glyph glyph-name="amacron.alt" horiz-adv-x="1181" 
d="M553 1391h571l-28 -156h-572zM842 0l26 166q-38 -70 -156 -129.5t-247 -59.5q-111 0 -195.5 37.5t-128 114t-24.5 180.5q26 142 146 232t317 90q97 0 200.5 -15t153.5 -36l6 38q12 70 -6.5 121.5t-59.5 79t-88.5 39.5t-103.5 12q-174 0 -338 -110l-47 143
q85 73 201.5 108.5t232.5 35.5q85 0 153 -15.5t113.5 -42t78 -63t49 -76t24 -84.5t6 -84.5t-9.5 -79.5l-105 -602h-198zM573 487q-116 0 -180 -52.5t-78 -123.5q-14 -70 37 -124t170 -54q89 0 192.5 42t178.5 130l25 137q-79 22 -187 33.5t-158 11.5z" />
    <glyph glyph-name="aogonek.alt" horiz-adv-x="1181" 
d="M840 8l28 158q-38 -70 -156 -129.5t-247 -59.5q-111 0 -195.5 37.5t-128 114t-24.5 180.5q26 142 146 232t317 90q97 0 200.5 -15t153.5 -36l6 38q12 70 -6.5 121.5t-59.5 79t-88.5 39.5t-103.5 12q-174 0 -338 -110l-47 143q85 73 201.5 108.5t232.5 35.5
q85 0 153 -15.5t113.5 -42t78 -63t49 -76t24 -84.5t6 -84.5t-9.5 -79.5l-105 -602h-73q-145 -65 -164 -184q-10 -57 20 -91t76 -34q54 0 105 32t86 89l81 -50q-39 -95 -122.5 -157t-180.5 -62q-46 0 -87.5 13.5t-75.5 40.5t-50 73t-6 105q12 62 59 126t132 107zM573 487
q-116 0 -180 -52.5t-78 -123.5q-14 -70 37 -124t170 -54q89 0 192.5 42t178.5 130l25 137q-79 22 -187 33.5t-158 11.5z" />
    <glyph glyph-name="aring.alt" horiz-adv-x="1181" 
d="M590 1389q17 91 89.5 154t162.5 63q91 0 144 -63.5t36 -153.5q-15 -89 -91 -152t-167 -63t-141 62t-33 153zM692 1389q-8 -48 18.5 -80.5t73.5 -32.5q48 0 87.5 33t46.5 80t-20.5 79.5t-74.5 32.5t-85.5 -32.5t-45.5 -79.5zM868 166l-26 -166h198l105 602q8 40 9.5 79.5
t-6 84.5t-24 84.5t-49 76t-78 63t-113.5 42t-153 15.5q-116 0 -232.5 -35.5t-201.5 -108.5l47 -143q164 110 338 110q56 0 103.5 -12t88.5 -39.5t59.5 -79t6.5 -121.5l-6 -38q-50 21 -153.5 36t-200.5 15q-197 0 -317 -90t-146 -232q-19 -104 24.5 -180.5t128 -114
t195.5 -37.5q129 0 247 59.5t156 129.5zM573 487q50 0 158 -11.5t187 -33.5l-25 -137q-75 -88 -178.5 -130t-192.5 -42q-119 0 -170 54t-37 124q14 71 78 123.5t180 52.5z" />
    <glyph glyph-name="aringacute.alt" horiz-adv-x="1183" 
d="M907 1724h201l-168 -174q109 -50 88 -182q-17 -90 -87 -145.5t-163 -55.5t-146 56t-36 145q13 72 65 124t123 71zM698 1368q-7 -46 20.5 -72t76.5 -26t85.5 26t43.5 72t-19.5 72t-75.5 26t-86.5 -26t-44.5 -72zM868 166l-26 -166h198l105 602q8 40 9.5 79.5t-6 84.5
t-24 84.5t-49 76t-78 63t-113.5 42t-153 15.5q-116 0 -232.5 -35.5t-201.5 -108.5l47 -143q164 110 338 110q56 0 103.5 -12t88.5 -39.5t59.5 -79t6.5 -121.5l-6 -38q-50 21 -153.5 36t-200.5 15q-197 0 -317 -90t-146 -232q-19 -104 24.5 -180.5t128 -114t195.5 -37.5
q129 0 247 59.5t156 129.5zM573 487q50 0 158 -11.5t187 -33.5l-25 -137q-75 -88 -178.5 -130t-192.5 -42q-119 0 -170 54t-37 124q14 71 78 123.5t180 52.5z" />
    <glyph glyph-name="at.case" horiz-adv-x="2119" 
d="M1636 309q128 5 221 123t136 359q38 216 -30.5 387.5t-232 268.5t-395.5 97q-229 0 -434 -109t-343.5 -298.5t-178.5 -421.5q-22 -141 -11 -265t62.5 -227.5t130.5 -177.5t193.5 -115t251.5 -41q249 0 428 80l45 -135q-109 -47 -241 -72.5t-257 -25.5q-138 0 -257.5 33.5
t-210.5 95.5t-159.5 149.5t-104.5 196.5t-46 236t16 268q36 208 142.5 390.5t257.5 312.5t345 205t400 75q140 0 261.5 -30t215 -86.5t164.5 -137.5t109.5 -181.5t50.5 -219.5t-13 -252q-59 -321 -199.5 -471t-342.5 -150q-76 0 -126 20t-73 55.5t-29 85t7 107.5
q-58 -89 -165 -137.5t-212 -48.5q-124 0 -211.5 62.5t-122.5 167.5t-14 233q33 194 179.5 327.5t340.5 133.5q210 0 293 -172l24 151h172l-125 -717q-11 -64 15 -97.5t73 -31.5zM836 715q-25 -132 40 -222t197 -90q128 0 226 84.5t122 223.5q25 137 -40.5 225t-198.5 88
q-134 0 -229.5 -89t-116.5 -220z" />
    <glyph glyph-name="atilde.alt" horiz-adv-x="1183" 
d="M911 1212q-32 0 -63.5 16t-53.5 35.5t-50.5 35.5t-53.5 16q-97 0 -100 -103h-92q0 112 57 178t160 66q30 0 60 -15.5t51 -33.5t51 -33.5t61 -15.5q101 0 98 98h92q17 -98 -48 -171t-169 -73zM868 166l-26 -166h198l105 602q8 40 9.5 79.5t-6 84.5t-24 84.5t-49 76t-78 63
t-113.5 42t-153 15.5q-116 0 -232.5 -35.5t-201.5 -108.5l47 -143q164 110 338 110q56 0 103.5 -12t88.5 -39.5t59.5 -79t6.5 -121.5l-6 -38q-50 21 -153.5 36t-200.5 15q-197 0 -317 -90t-146 -232q-19 -104 24.5 -180.5t128 -114t195.5 -37.5q129 0 247 59.5t156 129.5z
M573 487q50 0 158 -11.5t187 -33.5l-25 -137q-75 -88 -178.5 -130t-192.5 -42q-119 0 -170 54t-37 124q14 71 78 123.5t180 52.5z" />
    <glyph glyph-name="bitcoin" horiz-adv-x="1212" 
d="M991 1581l-37 -207q160 -25 240 -116.5t57 -217.5q-20 -107 -94 -188.5t-199 -116.5q142 -17 204.5 -108.5t41.5 -216.5q-29 -155 -160 -251t-321 -104l-35 -202h-108l34 202h-133l-35 -202h-108l35 202h-215l237 1327h215l35 199h109l-35 -199h129l35 199h108zM387 217
h338q106 0 182.5 54t93.5 145q12 43 2 84t-35.5 73.5t-84.5 52t-144 19.5h-278zM842 1221h-279l-71 -420h278q129 7 194.5 70.5t79.5 154.5q17 89 -42.5 142t-159.5 53z" />
    <glyph glyph-name="braceleft.case" horiz-adv-x="688" 
d="M451 717v-8q64 -10 88 -64t12 -123q-8 -48 -37.5 -112t-62 -118t-64.5 -123.5t-43 -125.5q-13 -77 11.5 -112t88.5 -35q62 0 134 8l-25 -137q-106 -13 -150 -13q-127 0 -201.5 69t-51.5 202q12 69 53.5 160t95.5 192.5t76 157.5q5 11 10 34q5 27 -10 46.5t-64 29.5
l-100 19l18 106l109 18q52 10 72.5 29t25.5 47q0 2 -5 9.5t-12 28.5t-13.5 58t-11.5 112.5t-5 176.5q0 124 8 160q16 91 71 153.5t125 89.5t150 27q46 0 148 -12l-25 -137q-68 8 -131 8q-64 0 -101 -35t-50 -112q-14 -71 1 -161t31 -175t5 -144q-12 -68 -56 -122t-112 -64
v-2q-2 -2 -2 -6z" />
    <glyph glyph-name="braceright.case" horiz-adv-x="688" 
d="M485 711v6q0 4 2 6v2q-63 10 -87.5 64t-12.5 122q11 59 56 144t91 175t60 161q13 77 -12.5 112t-89.5 35q-62 0 -134 -8l27 137q102 12 152 12q127 0 199.5 -68t49.5 -202q-16 -92 -111.5 -279.5t-111.5 -230.5q-5 -10 -10 -35q-11 -59 72 -76l100 -18l-18 -106l-107 -19
q-51 -10 -72 -29t-26 -47q0 -1 4.5 -8t11 -28t13.5 -58t11.5 -112.5t4.5 -176.5q0 -134 -6 -161q-16 -90 -70 -153t-124.5 -90.5t-151.5 -27.5q-31 0 -150 13l27 137q66 -8 129 -8q128 0 153 147q11 57 4.5 126t-19.5 123t-21.5 118.5t-0.5 111.5q11 67 56 122t110 65z" />
    <glyph glyph-name="bracketleft.case" horiz-adv-x="700" 
d="M113 -244l342 1923h469l-27 -155h-287l-288 -1612h286l-26 -156h-469z" />
    <glyph glyph-name="bracketright.case" horiz-adv-x="700" 
d="M840 1679l-342 -1923h-469l26 156h287l289 1612h-287l27 155h469z" />
    <glyph glyph-name="breve.case" horiz-adv-x="907" 
d="M928 1849l121 -8q-25 -92 -80.5 -156.5t-116.5 -91t-123 -26.5q-98 0 -164 69t-55 205l121 8q1 -82 32.5 -117.5t88.5 -35.5q124 0 176 153z" />
    <glyph glyph-name="bullet.case" horiz-adv-x="813" 
d="M285 717q20 102 103 174t185 72q104 0 163 -72t42 -174q-15 -101 -102.5 -173.5t-190.5 -72.5t-160 71t-40 175z" />
    <glyph glyph-name="caron.case" horiz-adv-x="1024" 
d="M891 1567h-209l-170 284h156l139 -176l205 176h155z" />
    <glyph glyph-name="cedilla.case" horiz-adv-x="890" 
d="M473 18l4 17h84q131 -114 103 -260q-19 -113 -110 -172.5t-192 -59.5q-97 0 -156.5 62t-64.5 157l97 50q37 -121 145 -121q47 0 90 34t53 91q8 42 -4.5 96.5t-48.5 105.5z" />
    <glyph glyph-name="cent.case" horiz-adv-x="1134" 
d="M535 0h-117l78 213q-162 53 -234 185.5t-41 306.5q20 111 73.5 208t134.5 171t194 118.5t243 48.5l70 183h117l-70 -191q148 -26 254 -117l-117 -135q-79 66 -198 80l-256 -706q44 -7 77 -7q155 0 279 84l70 -135q-188 -125 -387 -125q-59 0 -103 8zM422 717
q-19 -109 18 -191t123 -127l240 672q-145 -21 -251 -117.5t-130 -236.5z" />
    <glyph glyph-name="cent.dnom" horiz-adv-x="610" 
d="M213 -109l35 111q-82 30 -123.5 98t-24.5 158q21 108 108.5 185.5t207.5 84.5l35 111h69l-35 -113q85 -12 150 -63l-64 -88q-43 47 -116 53l-107 -338q29 0 47 2t53 14.5t72 38.5l45 -88q-136 -86 -250 -67l-30 -99h-72zM231 258q-13 -85 54 -145l96 311q-56 -18 -98 -63
t-52 -103z" />
    <glyph glyph-name="cent.numr" horiz-adv-x="612" 
d="M358 711l37 110q-84 30 -125 98t-24 158q21 109 108 186.5t207 84.5l35 110h70l-35 -112q83 -11 149 -64l-63 -88q-43 47 -117 53l-106 -338q28 0 47 2t53.5 15t71.5 39l45 -88q-137 -87 -250 -68l-31 -98h-72zM377 1077q-14 -85 53 -145l98 311q-57 -18 -99 -62.5
t-52 -103.5z" />
    <glyph glyph-name="circumflex.case" horiz-adv-x="1024" 
d="M737 1851h209l170 -284h-155l-142 176l-203 -176h-155z" />
    <glyph glyph-name="comma.dnom" horiz-adv-x="360" 
d="M84 -154l-14 50q60 19 88.5 47t36.5 69q-48 -16 -72 7.5t-19 62.5q5 37 31.5 61.5t67.5 24.5q38 0 57.5 -20.5t19.5 -45t-1 -45.5q-17 -86 -63 -135.5t-132 -75.5z" />
    <glyph glyph-name="comma.numr" horiz-adv-x="360" 
d="M207 545l-14 49q62 19 90 47.5t34 69.5q-48 -16 -71.5 7t-18.5 62q5 37 31.5 61.5t67.5 24.5q38 0 58 -20.5t20 -44.5t-1 -45q-17 -86 -62.5 -135.5t-133.5 -75.5z" />
    <glyph glyph-name="commaaccent.case" horiz-adv-x="657" 
d="M135 -600l-22 74q94 29 135.5 71.5t52.5 106.5q-70 -23 -109.5 11.5t-31.5 90.5q8 57 48.5 94t104.5 37q35 0 60.5 -12t38.5 -31t21 -42t7.5 -44.5t-2.5 -38.5q-23 -126 -97.5 -202t-205.5 -115z" />
    <glyph glyph-name="dieresis.case" horiz-adv-x="1062" 
d="M483 1694q10 55 53 92t97 37q56 0 86 -37t20 -92q-11 -54 -54.5 -90.5t-98.5 -36.5q-54 0 -83.5 36.5t-19.5 90.5zM922 1694q11 56 53 92.5t96 36.5q56 0 86.5 -37t20.5 -92q-11 -54 -55 -90.5t-99 -36.5q-54 0 -83.5 36.5t-18.5 90.5z" />
    <glyph glyph-name="dollar.dnom" horiz-adv-x="641" 
d="M334 -98h-62l21 92q-97 4 -155 56t-64 130l125 33q-1 -43 30.5 -75t81.5 -38l37 209l-41 17q-85 35 -119.5 83t-23.5 115q17 85 89 139t167 60l16 86h62l-17 -86q81 -10 126 -55.5t50 -118.5l-118 -35q-3 75 -78 100l-33 -198l39 -17q79 -32 121.5 -86.5t32.5 -109.5
q-17 -91 -89 -146t-178 -63zM485 195q10 57 -82 92l-30 -183q46 7 76 32.5t36 58.5zM299 526q-5 -27 8.5 -46t63.5 -38l28 174q-38 -8 -65.5 -32t-34.5 -58z" />
    <glyph glyph-name="dollar.numr" horiz-adv-x="645" 
d="M465 618h-62l17 93q-97 4 -153.5 56t-61.5 130l123 33q-2 -43 29.5 -75t82.5 -38l37 209l-39 16q-166 69 -145 199q17 85 89 139t167 60l16 86h62l-17 -86q83 -10 128 -55.5t50 -118.5l-120 -35q-3 75 -76 100l-35 -198l39 -17q79 -33 122.5 -87t33.5 -109
q-17 -91 -91 -146t-180 -63zM614 911q10 59 -79 93l-31 -183q46 7 75.5 32t34.5 58zM430 1243q-5 -27 8 -46t64 -38l28 174q-38 -8 -66 -32t-34 -58z" />
    <glyph glyph-name="dotaccent.case" horiz-adv-x="634" 
d="M483 1700q11 56 56 94.5t102 38.5q56 0 87.5 -39t21.5 -94q-10 -57 -56 -95t-102 -38q-57 0 -88 38t-21 95z" />
    <glyph glyph-name="eight.dnom" horiz-adv-x="716" 
d="M373 90q72 0 122.5 35.5t61.5 87.5q8 53 -26.5 87t-110.5 34h-8q-78 0 -125.5 -34.5t-55.5 -86.5q-11 -52 28.5 -87.5t113.5 -35.5zM467 629q-60 0 -101 -28.5t-49 -70.5q-8 -45 19 -76.5t90 -31.5h8q62 0 101 31.5t47 76.5q8 42 -23.5 70.5t-91.5 28.5zM354 -12
q-129 0 -201 65t-55 160q11 58 63 106.5t128 65.5q-57 18 -85 59.5t-20 85.5q17 87 101 144t200 57q117 0 183 -57.5t49 -143.5q-8 -44 -52 -85.5t-112 -59.5q73 -17 111.5 -66t27.5 -106q-17 -95 -113.5 -160t-224.5 -65z" />
    <glyph glyph-name="eight.numr" horiz-adv-x="716" 
d="M500 801q72 0 121.5 35t60.5 88q11 52 -24 86t-111 34h-8q-78 0 -125 -33.5t-58 -86.5q-11 -52 29.5 -87.5t114.5 -35.5zM594 1339q-60 0 -102 -28t-50 -70q-7 -45 20.5 -76.5t90.5 -31.5h8q62 0 101 31.5t45 76.5q8 42 -22.5 70t-90.5 28zM481 698q-129 0 -202 65.5
t-56 160.5q11 57 64 106t129 66q-58 18 -86.5 60t-20.5 85q15 86 101 143.5t202 57.5q117 0 182 -57.5t48 -143.5q-8 -45 -51 -86t-111 -59q73 -17 110.5 -66t26.5 -106q-17 -95 -113 -160.5t-223 -65.5z" />
    <glyph glyph-name="eight.oldstyle" horiz-adv-x="1335" 
d="M692 154q159 0 274 62.5t132 160.5q18 90 -69 154.5t-251 64.5h-16q-165 0 -270 -63.5t-123 -155.5q-17 -98 73 -160.5t250 -62.5zM662 -23q-248 0 -386 110.5t-108 277.5q20 104 111.5 194t220.5 131q-94 43 -141.5 113t-30.5 153q30 151 190.5 253t380.5 102
t346.5 -102.5t97.5 -252.5q-17 -83 -88.5 -153.5t-177.5 -112.5q116 -41 174 -131t39 -194q-30 -168 -205 -278t-423 -110zM868 1135q-143 0 -235 -47.5t-105 -131.5q-13 -85 53 -144.5t212 -59.5h14q143 0 233 60t103 144t-60 131.5t-215 47.5z" />
    <glyph glyph-name="eight.taboldstyle" horiz-adv-x="1392" 
d="M721 154q159 0 273.5 62.5t131.5 160.5q18 90 -68.5 154.5t-250.5 64.5h-16q-165 0 -270.5 -63.5t-123.5 -155.5q-17 -98 73.5 -160.5t250.5 -62.5zM690 -23q-248 0 -385.5 110.5t-107.5 277.5q20 104 111 194t220 131q-94 43 -141.5 113t-30.5 153q30 151 191 253
t381 102t346.5 -102.5t97.5 -252.5q-17 -83 -88.5 -153.5t-177.5 -112.5q116 -41 174 -131t39 -194q-30 -168 -205.5 -278t-423.5 -110zM897 1135q-143 0 -235 -47.5t-105 -131.5q-13 -85 52.5 -144.5t211.5 -59.5h15q143 0 232.5 60t102.5 144t-59.5 131.5t-214.5 47.5z
" />
    <glyph glyph-name="eight.tnum" horiz-adv-x="1392" 
d="M721 154q163 0 281 77t139 189q21 108 -62.5 184t-253.5 76h-16q-173 0 -280.5 -75t-129.5 -185q-21 -112 69.5 -189t252.5 -77zM692 -23q-163 0 -284 59.5t-175.5 160.5t-33.5 223q22 112 115.5 207t226.5 141q-93 43 -139 123t-29 172q33 168 196 280.5t385 112.5
q219 0 345 -113.5t94 -279.5q-17 -91 -91.5 -171.5t-179.5 -123.5q117 -45 178 -140.5t41 -207.5q-33 -186 -218 -314.5t-431 -128.5zM924 1280q-138 0 -237 -62t-114 -155q-19 -94 48 -165t210 -71h15q143 0 235 70.5t111 165.5q18 94 -55.5 155.5t-212.5 61.5z" />
    <glyph glyph-name="emdash.case" horiz-adv-x="1646" 
d="M256 627l31 182h1355l-30 -182h-1356z" />
    <glyph glyph-name="endash.case" horiz-adv-x="1177" 
d="M256 627l31 182h887l-31 -182h-887z" />
    <glyph glyph-name="exclamdown.case" horiz-adv-x="548" 
d="M389 0l129 985h-143l-219 -985h233zM356 1307q12 63 64 106t115 43t98.5 -43t23.5 -106t-63.5 -107.5t-114.5 -44.5t-99 44.5t-24 107.5z" />
    <glyph glyph-name="five.dnom" horiz-adv-x="661" 
d="M336 96q80 0 126.5 41t59.5 107q11 54 -21.5 95.5t-103.5 41.5q-52 0 -87 -11.5t-81 -39.5q-12 5 -41 23.5t-43 23.5l82 346h451l-21 -100h-335l-41 -185q27 19 72 29t85 10q111 0 171 -68.5t42 -164.5q-21 -117 -110.5 -186.5t-229.5 -69.5q-149 0 -235 94l86 84
q65 -70 174 -70z" />
    <glyph glyph-name="five.numr" horiz-adv-x="661" 
d="M463 807q81 0 128 40.5t58 106.5q11 54 -21.5 96t-103.5 42q-52 0 -88 -12t-82 -40q-10 4 -39.5 23t-44.5 24l82 347h451l-19 -101h-335l-41 -184q27 19 72 29t85 10q111 0 171 -69t42 -165q-21 -117 -110.5 -186.5t-229.5 -69.5q-148 0 -235 95l84 84q33 -36 81.5 -53
t94.5 -17z" />
    <glyph glyph-name="five.oldstyle" horiz-adv-x="1200" 
d="M551 -113q166 0 274 77.5t129 197.5q23 111 -48 190.5t-222 79.5q-90 0 -184.5 -30.5t-169.5 -88.5l-135 78l157 633h844l-31 -168h-671l-91 -360q33 22 53 33t65.5 32.5t100.5 32t117 10.5q212 0 331 -124.5t83 -317.5q-16 -92 -64.5 -172t-125 -143t-188.5 -99.5
t-245 -36.5q-301 0 -464 176l139 131q162 -131 346 -131z" />
    <glyph glyph-name="five.taboldstyle" horiz-adv-x="1392" 
d="M647 -113q167 0 275 77.5t129 197.5q23 111 -48.5 190.5t-222.5 79.5q-90 0 -184.5 -30.5t-169.5 -88.5l-135 78l158 633h843l-30 -168h-672l-90 -360q33 22 53 33t65.5 32.5t100.5 32t117 10.5q212 0 330.5 -124.5t82.5 -317.5q-16 -92 -64.5 -172t-124.5 -143
t-188 -99.5t-245 -36.5q-165 0 -280 50.5t-185 125.5l139 131q162 -131 346 -131z" />
    <glyph glyph-name="five.tnum" horiz-adv-x="1392" 
d="M201 143l141 131q39 -46 149 -81t203 -35q181 0 288 90.5t134 230.5q9 36 5 71.5t-15 68.5t-35 61t-56.5 49t-79 33t-101.5 12q-193 0 -355 -106l-133 63l170 703h858l-28 -168h-678l-111 -424q136 112 334 112q115 0 204 -39.5t140 -106t70.5 -151.5t3.5 -178
q-37 -225 -212 -363.5t-440 -138.5q-151 0 -271 47.5t-185 118.5z" />
    <glyph glyph-name="florin.dnom" horiz-adv-x="530" 
d="M385 330l-66 -365q-40 -203 -227 -203q-23 0 -48.5 8t-37.5 19l53 78q19 -8 41 -8q31 0 51.5 25.5t28.5 68.5l70 377h-82l12 67h78l25 131q40 203 227 203q53 0 86 -26l-51 -78q-16 8 -43 8q-32 0 -53 -26t-27 -68l-25 -144h131l-12 -67h-131z" />
    <glyph glyph-name="florin.numr" horiz-adv-x="532" 
d="M514 1040l-65 -364q-12 -60 -37 -102t-58.5 -63t-66 -29.5t-68.5 -8.5q-51 0 -86 27l53 78q18 -9 43 -9q31 0 51.5 26t28.5 69l68 376h-82l12 68h80l25 131q40 203 227 203q53 0 84 -27l-51 -78q-21 9 -41 9q-31 0 -51.5 -26t-28.5 -69l-27 -143h131l-12 -68h-129z" />
    <glyph glyph-name="florininferior" horiz-adv-x="530" 
d="M332 43l-64 -365q-10 -60 -34.5 -102t-58.5 -62.5t-67 -29t-69 -8.5q-20 0 -44 8t-36 18l49 78q13 -8 39 -8q31 0 52.5 25.5t29.5 68.5l68 377h-82l14 68h80l22 131q10 60 34.5 102t59 62.5t67.5 29t69 8.5q51 0 84 -26l-51 -78q-16 8 -41 8q-32 0 -54 -26t-28 -68
l-25 -143h131l-14 -68h-131z" />
    <glyph glyph-name="florinsuperior" horiz-adv-x="530" 
d="M549 1255l-66 -364q-10 -60 -34.5 -102t-58.5 -63t-66.5 -29.5t-67.5 -8.5q-51 0 -86 27l53 78q21 -9 41 -9q31 0 51.5 26t28.5 69l70 376h-82l12 68h78l24 131q40 203 228 203q44 0 88 -27l-53 -78q-18 9 -43 9q-61 0 -78 -95l-27 -143h131l-12 -68h-131z" />
    <glyph glyph-name="four.dnom" horiz-adv-x="702" 
d="M221 289h211l43 233zM416 190h-353l13 72l477 461h88l-78 -434h148l-17 -99h-147l-31 -190h-131z" />
    <glyph glyph-name="four.numr" horiz-adv-x="702" 
d="M348 999h211l41 234zM543 901h-353l11 72l477 461h88l-76 -435h148l-17 -98h-147l-35 -190h-131z" />
    <glyph glyph-name="four.oldstyle" horiz-adv-x="1312" 
d="M328 233h483l84 484zM780 72h-717l23 129l940 823h123l-139 -791h274l-31 -161h-274l-59 -338h-199z" />
    <glyph glyph-name="four.taboldstyle" horiz-adv-x="1392" 
d="M367 233h483l84 484zM819 72h-717l23 129l940 823h123l-139 -791h274l-31 -161h-274l-60 -338h-198z" />
    <glyph glyph-name="four.tnum" horiz-adv-x="1392" 
d="M403 555h508l97 549zM879 385h-758l24 133l996 916h123l-154 -879h313l-32 -170h-314l-65 -385h-199z" />
    <glyph glyph-name="g.alt" horiz-adv-x="1189" 
d="M965 651q19 110 -46.5 166.5t-177.5 56.5q-114 0 -204 -57t-109 -164q-19 -105 51 -164t187 -59q113 0 196.5 55.5t102.5 165.5zM532 -322q150 0 258.5 41.5t120.5 110.5q5 15 0 32t-15 32.5t-38.5 26.5t-71.5 13l-362 11q-90 0 -123 28q-40 -12 -72.5 -50t-38.5 -75
q-27 -170 342 -170zM1135 838q45 -79 26 -191q-18 -99 -72.5 -176t-131 -121t-160 -66t-170.5 -22q-120 0 -207 41q-44 -28 -65.5 -48t-26.5 -48q-4 -26 9 -43.5t38 -26t50.5 -11.5t55.5 -3l369 -8q59 0 105.5 -13.5t74.5 -35.5t48 -50.5t26 -59t9 -60.5t-3 -54
q-8 -48 -35 -93.5t-76.5 -87.5t-116.5 -73.5t-162 -50t-206 -18.5q-70 0 -130 4.5t-125.5 15t-114.5 32t-87.5 53t-53.5 80t-5 110.5q8 46 32 89t53.5 72t52 46.5t38.5 25.5q-40 63 -27 137q6 35 22.5 65.5t43.5 56t44 39t48 34.5q-51 59 -72 118.5t-4 153.5q16 85 57.5 154
t96 113t121.5 74t131 42.5t127 12.5q83 0 165 -23t134 -66q59 10 76.5 46t3.5 96h180q21 -91 -30 -171t-156 -91z" />
    <glyph glyph-name="gbreve.alt" horiz-adv-x="1187" 
d="M991 1479l127 -11q-20 -80 -58.5 -139.5t-86.5 -92t-95.5 -47.5t-95.5 -15t-89.5 15t-76.5 47.5t-51 92t-8 139.5l131 11q-12 -158 123 -158q140 0 180 158zM963 651q19 110 -46.5 166.5t-177.5 56.5q-114 0 -204 -57t-109 -164q-19 -105 51 -164t187 -59
q113 0 196.5 55.5t102.5 165.5zM530 -322q150 0 258.5 41.5t120.5 110.5q5 15 0 32t-15 32.5t-38.5 26.5t-71.5 13l-362 11q-90 0 -123 28q-40 -12 -72.5 -50t-38.5 -75q-27 -170 342 -170zM1133 838q45 -79 26 -191q-18 -99 -72.5 -176t-131 -121t-160 -66t-170.5 -22
q-120 0 -207 41q-44 -28 -65.5 -48t-26.5 -48q-4 -26 9 -43.5t38 -26t50.5 -11.5t55.5 -3l369 -8q59 0 105.5 -13.5t74.5 -35.5t48 -50.5t26 -59t9 -60.5t-3 -54q-8 -48 -35 -93.5t-76.5 -87.5t-116.5 -73.5t-162 -50t-206 -18.5q-70 0 -130 4.5t-125.5 15t-114.5 32
t-87.5 53t-53.5 80t-5 110.5q8 46 32 89t53.5 72t52 46.5t38.5 25.5q-40 63 -27 137q6 35 22.5 65.5t43.5 56t44 39t48 34.5q-51 59 -72 118.5t-4 153.5q16 85 57.5 154t96 113t121.5 74t131 42.5t127 12.5q83 0 165 -23t134 -66q59 10 76.5 46t3.5 96h180q21 -91 -30 -171
t-156 -91z" />
    <glyph glyph-name="gcircumflex.alt" horiz-adv-x="1187" 
d="M735 1481h209l184 -307h-155l-154 188l-227 -188h-156zM963 651q19 110 -46.5 166.5t-177.5 56.5q-114 0 -204 -57t-109 -164q-19 -105 51 -164t187 -59q113 0 196.5 55.5t102.5 165.5zM530 -322q150 0 258.5 41.5t120.5 110.5q5 15 0 32t-15 32.5t-38.5 26.5t-71.5 13
l-362 11q-90 0 -123 28q-40 -12 -72.5 -50t-38.5 -75q-27 -170 342 -170zM1133 838q45 -79 26 -191q-18 -99 -72.5 -176t-131 -121t-160 -66t-170.5 -22q-120 0 -207 41q-44 -28 -65.5 -48t-26.5 -48q-4 -26 9 -43.5t38 -26t50.5 -11.5t55.5 -3l369 -8q59 0 105.5 -13.5
t74.5 -35.5t48 -50.5t26 -59t9 -60.5t-3 -54q-8 -48 -35 -93.5t-76.5 -87.5t-116.5 -73.5t-162 -50t-206 -18.5q-70 0 -130 4.5t-125.5 15t-114.5 32t-87.5 53t-53.5 80t-5 110.5q8 46 32 89t53.5 72t52 46.5t38.5 25.5q-40 63 -27 137q6 35 22.5 65.5t43.5 56t44 39
t48 34.5q-51 59 -72 118.5t-4 153.5q16 85 57.5 154t96 113t121.5 74t131 42.5t127 12.5q83 0 165 -23t134 -66q59 10 76.5 46t3.5 96h180q21 -91 -30 -171t-156 -91z" />
    <glyph glyph-name="gcommaaccent.alt" horiz-adv-x="1187" 
d="M963 651q19 110 -46.5 166.5t-177.5 56.5q-114 0 -204 -57t-109 -164q-19 -105 51 -164t187 -59q113 0 196.5 55.5t102.5 165.5zM530 -322q150 0 258.5 41.5t120.5 110.5q5 15 0 32t-15 32.5t-38.5 26.5t-71.5 13l-362 11q-90 0 -123 28q-40 -12 -72.5 -50t-38.5 -75
q-27 -170 342 -170zM1133 838q45 -79 26 -191q-18 -99 -72.5 -176t-131 -121t-160 -66t-170.5 -22q-120 0 -207 41q-44 -28 -65.5 -48t-26.5 -48q-4 -26 9 -43.5t38 -26t50.5 -11.5t55.5 -3l369 -8q59 0 105.5 -13.5t74.5 -35.5t48 -50.5t26 -59t9 -60.5t-3 -54
q-8 -48 -35 -93.5t-76.5 -87.5t-116.5 -73.5t-162 -50t-206 -18.5q-70 0 -130 4.5t-125.5 15t-114.5 32t-87.5 53t-53.5 80t-5 110.5q8 46 32 89t53.5 72t52 46.5t38.5 25.5q-40 63 -27 137q6 35 22.5 65.5t43.5 56t44 39t48 34.5q-51 59 -72 118.5t-4 153.5q16 85 57.5 154
t96 113t121.5 74t131 42.5t127 12.5q83 0 165 -23t134 -66q59 10 76.5 46t3.5 96h180q21 -91 -30 -171t-156 -91zM987 1663l23 -74q-94 -29 -137 -71.5t-56 -106.5q72 23 113 -11.5t31 -90.5q-8 -56 -49 -93.5t-105 -37.5q-42 0 -71 18.5t-39 45t-14.5 55t1.5 49.5
q23 126 97.5 202t205.5 115z" />
    <glyph glyph-name="gdotaccent.alt" horiz-adv-x="1187" 
d="M670 1317q10 60 57 99.5t107 39.5t91.5 -39.5t20.5 -99.5q-10 -60 -57 -98.5t-107 -38.5t-91.5 38.5t-20.5 98.5zM963 651q19 110 -46.5 166.5t-177.5 56.5q-114 0 -204 -57t-109 -164q-19 -105 51 -164t187 -59q113 0 196.5 55.5t102.5 165.5zM530 -322
q150 0 258.5 41.5t120.5 110.5q5 15 0 32t-15 32.5t-38.5 26.5t-71.5 13l-362 11q-90 0 -123 28q-40 -12 -72.5 -50t-38.5 -75q-27 -170 342 -170zM1133 838q45 -79 26 -191q-18 -99 -72.5 -176t-131 -121t-160 -66t-170.5 -22q-120 0 -207 41q-44 -28 -65.5 -48t-26.5 -48
q-4 -26 9 -43.5t38 -26t50.5 -11.5t55.5 -3l369 -8q59 0 105.5 -13.5t74.5 -35.5t48 -50.5t26 -59t9 -60.5t-3 -54q-8 -48 -35 -93.5t-76.5 -87.5t-116.5 -73.5t-162 -50t-206 -18.5q-70 0 -130 4.5t-125.5 15t-114.5 32t-87.5 53t-53.5 80t-5 110.5q8 46 32 89t53.5 72
t52 46.5t38.5 25.5q-40 63 -27 137q6 35 22.5 65.5t43.5 56t44 39t48 34.5q-51 59 -72 118.5t-4 153.5q16 85 57.5 154t96 113t121.5 74t131 42.5t127 12.5q83 0 165 -23t134 -66q59 10 76.5 46t3.5 96h180q21 -91 -30 -171t-156 -91z" />
    <glyph glyph-name="grave.case" horiz-adv-x="739" 
d="M512 1851h211l106 -284h-170z" />
    <glyph glyph-name="guillemotleft.case" horiz-adv-x="1177" 
d="M664 700l6 33l458 436l103 -94l-375 -358l248 -357l-137 -94zM233 700l7 33l458 436l103 -94l-375 -358l248 -357l-137 -94z" />
    <glyph glyph-name="guillemotright.case" horiz-adv-x="1177" 
d="M766 733l-6 -33l-459 -434l-104 94l374 357l-247 358l139 94zM1196 733l-6 -33l-459 -434l-104 94l374 357l-247 358l139 94z" />
    <glyph glyph-name="guilsinglleft.case" horiz-adv-x="747" 
d="M233 700l7 33l458 436l103 -94l-375 -358l248 -357l-137 -94z" />
    <glyph glyph-name="guilsinglright.case" horiz-adv-x="747" 
d="M766 733l-6 -33l-459 -434l-104 94l374 357l-247 358l139 94z" />
    <glyph glyph-name="hungarumlaut.case" horiz-adv-x="1052" 
d="M678 1851h186l-229 -284h-174zM1012 1851h186l-229 -284h-174z" />
    <glyph glyph-name="hyphen.case" horiz-adv-x="974" 
d="M256 627l31 182h684l-31 -182h-684z" />
    <glyph glyph-name="hyphen.dnom" horiz-adv-x="585" 
d="M141 285l19 106h401l-18 -106h-402z" />
    <glyph glyph-name="hyphen.numr" horiz-adv-x="585" 
d="M262 973l21 106h401l-20 -106h-402z" />
    <glyph glyph-name="macron.case" horiz-adv-x="940" 
d="M496 1757h571l-29 -155h-571z" />
    <glyph glyph-name="nine.dnom" horiz-adv-x="700" 
d="M328 92q76 0 148.5 72t96.5 182q-41 -50 -104.5 -75t-124.5 -25q-101 0 -160.5 70.5t-42.5 175.5q19 106 107.5 174.5t210.5 68.5q144 0 206.5 -96.5t32.5 -259.5q-31 -169 -134.5 -280t-254.5 -111q-71 0 -126 25t-79 63l99 76q18 -28 53 -44t72 -16zM578 489
q10 64 -29 101t-107 37q-65 0 -113.5 -37t-58.5 -101q-10 -63 23.5 -100t99.5 -37q68 0 121.5 38t63.5 99z" />
    <glyph glyph-name="nine.numr" horiz-adv-x="700" 
d="M453 799q78 0 149 71.5t98 182.5q-44 -50 -107.5 -75.5t-123.5 -25.5q-100 0 -161.5 71t-41.5 175q20 107 108 175.5t210 68.5q144 0 206.5 -97t32.5 -260q-31 -169 -134 -280t-253 -111q-71 0 -126 25t-79 63l99 76q18 -28 52 -43.5t71 -15.5zM705 1196
q12 64 -28.5 100.5t-109.5 36.5q-65 0 -111.5 -36.5t-58.5 -100.5q-12 -63 21.5 -100t99.5 -37q68 0 121.5 38t65.5 99z" />
    <glyph glyph-name="nine.oldstyle" horiz-adv-x="1259" 
d="M594 168q-95 0 -177.5 31.5t-141.5 87t-85 139.5t-8 182q33 187 199 313t393 126q271 0 389.5 -172.5t67.5 -464.5q-27 -147 -89.5 -272.5t-153.5 -221t-216.5 -149.5t-269.5 -54q-129 0 -228 40.5t-149 103.5l156 116q30 -40 98.5 -61t146.5 -21q192 0 332.5 138.5
t181.5 365.5q-74 -111 -196.5 -169t-249.5 -58zM641 340q151 0 263 74.5t132 197.5q19 118 -65 188t-215 70q-146 0 -250 -75.5t-125 -186.5q-23 -123 57 -195.5t203 -72.5z" />
    <glyph glyph-name="nine.taboldstyle" horiz-adv-x="1392" 
d="M659 168q-95 0 -177.5 31.5t-141 87t-84.5 139.5t-8 182q33 187 199 313t393 126q271 0 389 -172.5t67 -464.5q-27 -147 -89.5 -272.5t-153.5 -221t-216.5 -149.5t-269.5 -54q-129 0 -228 40.5t-149 103.5l156 116q30 -40 99 -61t147 -21q192 0 332.5 138.5t181.5 365.5
q-74 -111 -197 -169t-250 -58zM707 340q151 0 263 74.5t132 197.5q19 117 -65.5 187.5t-215.5 70.5q-146 0 -250 -75.5t-125 -186.5q-23 -123 57.5 -195.5t203.5 -72.5z" />
    <glyph glyph-name="nine.tnum" horiz-adv-x="1392" 
d="M1167 733q-78 -122 -198 -177.5t-240 -55.5q-100 0 -185 34.5t-143 95.5t-83 152t-7 197q37 207 207 342t397 135q180 0 294.5 -89t151.5 -247.5t-1 -369.5q-29 -162 -94.5 -301.5t-159 -245t-220 -166t-270.5 -60.5q-128 0 -223.5 44.5t-146.5 115.5l153 121
q34 -48 102.5 -74t145.5 -26q185 0 330.5 161.5t189.5 413.5zM1176 977q24 131 -60 215t-223 84q-138 0 -247.5 -83.5t-133.5 -215.5t56 -215.5t218 -83.5q139 0 252.5 83.5t137.5 215.5z" />
    <glyph glyph-name="ogonek.case" horiz-adv-x="890" 
d="M420 35l-2 -17q-102 -97 -123 -202q-10 -57 20 -91t76 -34q54 0 105 32t86 89l82 -50q-39 -95 -123 -157t-181 -62q-46 0 -87.5 13.5t-75.5 40.5t-50 73t-6 105q29 147 195 260h84z" />
    <glyph glyph-name="one.dnom" horiz-adv-x="434" 
d="M145 506l-16 100l270 117h72l-127 -723h-135l100 573z" />
    <glyph glyph-name="one.numr" horiz-adv-x="434" 
d="M272 1217l-16 100l268 117h72l-129 -723h-135l104 573z" />
    <glyph glyph-name="one.oldstyle" horiz-adv-x="1099" 
d="M254 645l-21 166l549 213h101l-152 -856h344l-28 -168h-897l28 168h354l109 614z" />
    <glyph glyph-name="one.taboldstyle" horiz-adv-x="1392" 
d="M399 645l-20 166l549 213h100l-151 -856h344l-29 -168h-897l29 168h354l108 614z" />
    <glyph glyph-name="one.tnum" horiz-adv-x="1392" 
d="M1094 1434l-224 -1266h351l-29 -168h-924l29 168h375l180 1024l-350 -145l-23 165l514 222h101z" />
    <glyph glyph-name="parenleft.case" horiz-adv-x="667" 
d="M776 1696l115 -78q-53 -63 -89.5 -108.5t-102 -141.5t-111.5 -184.5t-92.5 -214t-69.5 -252.5q-16 -91 -19.5 -182t1.5 -162.5t21 -149.5t30.5 -128t39.5 -113t37.5 -90.5t34.5 -73.5l-139 -76q-27 35 -54 80t-60 112.5t-57 150.5t-40.5 179.5t-15.5 215t22 241.5
q26 144 80 284.5t113 242.5t131.5 197.5t123.5 150.5t101 100z" />
    <glyph glyph-name="parenleft.dnom" horiz-adv-x="409" 
d="M422 856l59 -47q-173 -217 -215 -451q-41 -224 56 -448l-76 -47q-56 70 -95.5 203t-11.5 294q15 86 50.5 169t79 146.5t81.5 107t72 73.5z" />
    <glyph glyph-name="parenleft.numr" horiz-adv-x="409" 
d="M545 1548l59 -47q-175 -223 -215 -450q-42 -227 55 -449l-75 -47q-23 29 -45 71.5t-43.5 110.5t-25.5 144.5t9 171.5q15 86 50 169t78.5 146t81 106.5t71.5 73.5z" />
    <glyph glyph-name="parenright.case" horiz-adv-x="667" 
d="M348 1614l139 78q27 -35 54 -79.5t60.5 -112.5t57.5 -151.5t41 -179.5t15.5 -213.5t-23.5 -238.5q-25 -146 -79 -287t-113.5 -244.5t-132 -199t-125 -150.5t-101.5 -98l-114 76q52 60 90.5 108t103 143t111.5 184.5t92.5 214t67.5 249.5q20 106 23.5 209t-9.5 192
t-28.5 161t-43.5 143.5t-45 109t-41 86.5z" />
    <glyph glyph-name="parenright.dnom" horiz-adv-x="409" 
d="M211 809l76 47q24 -29 46 -71.5t44 -110.5t25.5 -143.5t-9.5 -170.5q-15 -87 -50 -170.5t-78.5 -146.5t-81.5 -106.5t-72 -73.5l-60 47q174 223 215 448q11 62 12 124t-4.5 106.5t-18 92t-22 72t-22.5 56.5z" />
    <glyph glyph-name="parenright.numr" horiz-adv-x="409" 
d="M334 1501l76 47q24 -30 46 -72t44.5 -109.5t26.5 -142.5t-9 -171q-15 -86 -50.5 -170t-79.5 -147.5t-82.5 -107.5t-72.5 -73l-59 47q177 228 217 449q11 62 11.5 124t-5 106t-18.5 92t-22 71.5t-23 56.5z" />
    <glyph glyph-name="period.dnom" horiz-adv-x="362" 
d="M98 70q6 35 37.5 59.5t69.5 24.5q39 0 62.5 -24.5t17.5 -59.5t-38 -58.5t-71 -23.5t-61.5 23.5t-16.5 58.5z" />
    <glyph glyph-name="period.numr" horiz-adv-x="362" 
d="M225 780q6 35 37.5 59.5t69.5 24.5q39 0 62.5 -24.5t17.5 -59.5t-38 -58.5t-71 -23.5t-61.5 23.5t-16.5 58.5z" />
    <glyph glyph-name="periodcentered.case" horiz-adv-x="591" 
d="M270 717q12 63 64 107t115 44t98.5 -44t23.5 -107t-62.5 -106.5t-113.5 -43.5t-100 43.5t-25 106.5z" />
    <glyph glyph-name="questiondown.case" horiz-adv-x="1071" 
d="M676 985h184q-9 -46 -13.5 -66t-11.5 -48.5t-15 -40.5t-19 -29t-29 -29t-38.5 -25.5t-53.5 -31.5q-157 -84 -233 -157.5t-95 -180.5q-19 -105 43.5 -166t192.5 -61q116 0 190.5 51.5t91.5 144.5q5 43 4 64h179q7 -33 -2 -93q-9 -57 -43.5 -114t-93.5 -109t-155 -84.5
t-212 -32.5q-134 0 -233 48t-145.5 140t-25.5 212q12 66 46 128.5t73.5 106.5t96.5 88.5t97 69t92.5 55t67.5 39.5q29 16 38.5 38t21.5 83zM973 1307q-12 -63 -62.5 -107.5t-113.5 -44.5t-100 44.5t-25 107.5t64.5 106t115.5 43t98 -43t23 -106z" />
    <glyph glyph-name="ring.case" horiz-adv-x="800" 
d="M492 1737q17 92 87.5 149.5t161.5 57.5q94 0 147 -58t36 -149q-15 -88 -89.5 -146.5t-166.5 -58.5t-142.5 57.5t-33.5 147.5zM594 1737q-8 -48 18.5 -80.5t73.5 -32.5t86.5 33t46.5 80t-20 78.5t-74 31.5q-48 0 -86 -31.5t-45 -78.5z" />
    <glyph glyph-name="seven.dnom" horiz-adv-x="587" 
d="M150 623l18 100h524l-14 -76l-438 -647h-146l432 623h-376z" />
    <glyph glyph-name="seven.numr" horiz-adv-x="585" 
d="M274 1333l17 101h524l-14 -76l-441 -647h-145l436 622h-377z" />
    <glyph glyph-name="seven.oldstyle" horiz-adv-x="1095" 
d="M197 856l32 168h1018l-26 -139l-840 -1151h-219l835 1122h-800z" />
    <glyph glyph-name="seven.taboldstyle" horiz-adv-x="1392" 
d="M344 856l33 168h1018l-27 -139l-840 -1151h-219l836 1122h-801z" />
    <glyph glyph-name="seven.tnum" horiz-adv-x="1392" 
d="M422 1266l29 168h1028l-25 -140l-944 -1294h-219l942 1266h-811z" />
    <glyph glyph-name="six.dnom" horiz-adv-x="700" 
d="M498 631q-76 0 -149 -72t-97 -182q40 50 103 75t124 25q99 0 162 -71.5t43 -174.5q-19 -106 -108 -174.5t-211 -68.5q-144 0 -207 97t-33 259q31 168 136 279.5t255 111.5q71 0 125 -24.5t80 -63.5l-100 -76q-17 28 -51.5 44t-71.5 16zM248 233q-10 -64 27.5 -100.5
t105.5 -36.5q66 0 115 36.5t59 100.5q10 63 -24.5 100.5t-100.5 37.5q-68 0 -120 -38t-62 -100z" />
    <glyph glyph-name="six.numr" horiz-adv-x="700" 
d="M623 1337q-77 0 -147 -70.5t-99 -183.5q40 50 103.5 75.5t123.5 25.5q99 0 162 -71.5t43 -174.5q-19 -107 -107 -175.5t-210 -68.5q-144 0 -207 97.5t-33 259.5q30 168 135 279.5t254 111.5q71 0 125 -24.5t80 -63.5l-101 -76q-17 28 -51 43.5t-71 15.5zM371 940
q-12 -64 28 -100.5t109 -36.5q65 0 111.5 36.5t58.5 100.5q12 62 -22 99.5t-101 37.5q-68 0 -120 -37.5t-64 -99.5z" />
    <glyph glyph-name="six.oldstyle" horiz-adv-x="1290" 
d="M856 856q95 0 178.5 -31.5t142 -87t85 -139.5t8.5 -182q-33 -187 -199.5 -313t-392.5 -126q-180 0 -296 80t-157 223t-8 334q25 146 88 272.5t155.5 221t219 149t270.5 54.5q129 0 227 -40t152 -104l-155 -116q-33 40 -102.5 61t-147.5 21q-191 0 -331 -138.5
t-181 -365.5q73 111 195 169t249 58zM811 684q-153 0 -262 -73.5t-133 -198.5q-16 -78 21 -138.5t105.5 -90t151.5 -29.5q145 0 252.5 76t124.5 186q23 123 -57 195.5t-203 72.5z" />
    <glyph glyph-name="six.taboldstyle" horiz-adv-x="1392" 
d="M907 856q95 0 178.5 -31.5t142 -87t85 -139.5t8.5 -182q-33 -187 -199.5 -313t-392.5 -126q-180 0 -296 80t-157 223t-8 334q25 146 88 272.5t155.5 221t219 149t270.5 54.5q129 0 227 -40t152 -104l-155 -116q-33 40 -102.5 61t-147.5 21q-191 0 -331 -138.5
t-181 -365.5q73 111 195 169t249 58zM862 684q-153 0 -262 -73.5t-133 -198.5q-16 -78 21 -138.5t105.5 -90t151.5 -29.5q145 0 252.5 76t124.5 186q23 123 -57 195.5t-203 72.5z" />
    <glyph glyph-name="six.tnum" horiz-adv-x="1392" 
d="M489 731q179 203 431 203q100 0 185 -34.5t143.5 -95.5t83.5 -152t7 -197q-37 -208 -207 -343t-397 -135q-180 0 -297 89.5t-157 248.5t-2 369q29 162 94.5 301.5t159.5 245t220.5 165.5t270.5 60q128 0 223 -44.5t146 -115.5l-154 -120q-31 47 -100 73.5t-146 26.5
q-177 0 -318 -148.5t-186 -396.5zM465 457q-24 -131 64.5 -215t228.5 -84q138 0 247.5 83.5t133.5 215.5t-56.5 215.5t-218.5 83.5q-140 0 -257.5 -84t-141.5 -215z" />
    <glyph glyph-name="sterling.dnom" horiz-adv-x="708" 
d="M504 631q-54 0 -92.5 -29t-49.5 -74q-12 -71 17 -174h190q-2 -19 -12 -59h-168q5 -24 0 -78q-14 -76 -94 -119v-2q43 2 123 2h248l-17 -98h-592l17 98q53 0 90 11t54.5 30.5t25 38t10.5 43.5q6 34 0 74h-129q10 40 12 59h105v21q-2 10 -6.5 33.5t-6 33t-4.5 31.5t-2 29
t2 26q18 95 98 149t191 54q62 0 107 -16.5t67 -43.5t30.5 -56t4.5 -60q-12 -47 -35 -76h-127q26 43 33 74q6 35 -18.5 56.5t-71.5 21.5z" />
    <glyph glyph-name="sterling.numr" horiz-adv-x="708" 
d="M631 1341q-55 0 -94.5 -28.5t-47.5 -73.5q-12 -71 17 -174h190q-2 -19 -12 -59h-168q6 -45 0 -78q-14 -74 -96 -119l2 -2q19 0 47.5 0.5t50 1t23.5 0.5h248l-19 -98h-592l19 98q100 0 138 34.5t44 88.5q6 34 0 74h-129q10 40 12 59h105v20q-22 121 -17 154q17 95 97 149
t192 54q62 0 107 -16.5t67 -43.5t30.5 -56t4.5 -60q-12 -47 -35 -76h-127q26 43 33 74q5 36 -19 56.5t-71 20.5z" />
    <glyph glyph-name="sterlinginferior" horiz-adv-x="708" 
d="M453 344q-55 0 -93.5 -28.5t-46.5 -73.5q-12 -71 17 -174h190l-16 -60h-168q9 -45 0 -78q-14 -74 -94 -118l2 -2q19 0 47.5 0.5t50 1t23.5 0.5h247l-16 -99h-590l14 99q53 0 90.5 10.5t55.5 30t26 38.5t11 43q9 36 -2 74h-129l16 60h105v20q-25 100 -17 154q17 94 97 148
t192 54q118 0 168.5 -54.5t36.5 -121.5q-13 -49 -33 -75h-127q22 31 31 73q7 35 -17 56.5t-71 21.5z" />
    <glyph glyph-name="sterlingsuperior" horiz-adv-x="708" 
d="M668 1556q-54 0 -91.5 -28.5t-48.5 -73.5q-12 -71 17 -174h190l-14 -59h-168q6 -45 0 -78q-14 -76 -94 -119l2 -2q19 0 47.5 0.5t50 1t23.5 0.5h247l-16 -98h-592l17 98q44 0 77 8t51 19t30 29.5t16 32t8 34.5q8 30 -2 74h-129l14 59h105l-2 20q-2 9 -6.5 33.5t-6 33.5
t-5 32t-2 29.5t2.5 25.5q18 95 98 149t191 54q62 0 107 -16.5t67 -43.5t30.5 -56t4.5 -60q-8 -31 -33 -76h-127q23 38 31 74q7 35 -17.5 56t-72.5 21z" />
    <glyph glyph-name="three.dnom" horiz-adv-x="669" 
d="M61 82l86 88q33 -36 82 -55t97 -19q73 0 123 38.5t61 96.5q10 60 -28 102t-99 42q-60 0 -107 -25l-45 68l263 205h-314l21 100h510l-15 -72l-241 -192q103 -10 153 -74.5t33 -157.5q-19 -104 -109.5 -171.5t-226.5 -67.5q-158 0 -244 94z" />
    <glyph glyph-name="three.numr" horiz-adv-x="669" 
d="M188 793l86 88q33 -36 82 -55t97 -19q73 0 122 38.5t60 96.5q10 61 -27 102t-98 41q-64 0 -109 -24l-43 67l263 205h-314l19 101h510l-13 -72l-241 -193q103 -10 152 -73.5t32 -157.5q-18 -104 -107.5 -172t-226.5 -68q-157 0 -244 95z" />
    <glyph glyph-name="three.oldstyle" horiz-adv-x="1216" 
d="M537 -117q161 0 276.5 85t138.5 196q21 105 -51 179.5t-203 74.5q-130 0 -213 -51l-69 116l487 383h-629l29 158h950l-22 -119l-479 -346q121 3 216.5 -41.5t145.5 -137t29 -214.5q-16 -91 -66 -172t-128.5 -144t-192 -100t-246.5 -37q-314 0 -465 166l139 131
q83 -70 167 -98.5t186 -28.5z" />
    <glyph glyph-name="three.taboldstyle" horiz-adv-x="1392" 
d="M625 -117q161 0 276.5 85t138.5 196q21 105 -51 179.5t-203 74.5q-130 0 -213 -51l-69 116l487 383h-629l29 158h950l-22 -119l-479 -346q121 3 216.5 -41.5t145.5 -137t29 -214.5q-16 -91 -66 -172t-128.5 -144t-192 -100t-246.5 -37q-314 0 -465 166l139 131
q83 -70 167 -98.5t186 -28.5z" />
    <glyph glyph-name="three.tnum" horiz-adv-x="1392" 
d="M668 158q90 0 169 28.5t131.5 74.5t85.5 100t42 108q22 124 -57 205.5t-216 81.5q-47 0 -108.5 -15t-110.5 -53l-78 117l553 461h-651l29 168h960l-22 -125l-504 -400q91 0 171 -29t138.5 -82.5t85 -138.5t8.5 -188t-72.5 -192.5t-137.5 -156.5t-199.5 -106t-249.5 -39
q-316 0 -467 166l141 131q82 -69 158.5 -92.5t200.5 -23.5z" />
    <glyph glyph-name="tilde.case" horiz-adv-x="972" 
d="M1034 1847l84 -26q-47 -114 -98 -163.5t-119 -49.5q-47 0 -129.5 41t-112.5 41q-35 0 -58.5 -21.5t-57.5 -79.5l-84 27q49 115 99 164t118 49q46 0 130 -41t114 -41q36 0 59 21t55 79z" />
    <glyph glyph-name="two.dnom" horiz-adv-x="686" 
d="M508 262l-213 -156q22 0 52 1t52.5 1.5t24.5 0.5h225l-18 -109h-551l-2 78l354 264q103 80 115 158q10 55 -19 84.5t-86 29.5q-68 0 -105 -33.5t-46 -76.5h-141q7 37 27.5 74t56.5 72.5t96 58t133 22.5q119 0 176 -66.5t39 -162.5q-12 -75 -55 -130t-115 -110z" />
    <glyph glyph-name="two.numr" horiz-adv-x="686" 
d="M635 973l-215 -156q22 0 52.5 0.5t53.5 1t25 0.5h225l-22 -108h-551v77l356 265q103 80 115 157q10 56 -18 85.5t-85 29.5q-68 0 -107 -34.5t-44 -76.5h-141q7 37 27.5 74t56.5 73t96 58.5t133 22.5q118 0 174.5 -66.5t38.5 -163.5q-12 -75 -55 -129t-115 -110z" />
    <glyph glyph-name="two.oldstyle" horiz-adv-x="1239" 
d="M774 168h395l-28 -168h-1030l8 113l682 389q123 72 169 115t58 102q17 89 -52.5 127.5t-217.5 38.5q-137 0 -220.5 -45t-97.5 -119h-196q9 44 30.5 86.5t65 87t103 77.5t151 54t201.5 21q217 0 337.5 -83t96.5 -233q-20 -120 -115.5 -211.5t-288.5 -189.5l-311 -164
l-4 -12q134 14 264 14z" />
    <glyph glyph-name="two.taboldstyle" horiz-adv-x="1392" 
d="M850 168h395l-28 -168h-1031l9 113l682 389q123 72 169 115t58 102q17 89 -52.5 127.5t-217.5 38.5q-137 0 -220.5 -45t-97.5 -119h-197q9 44 30.5 86.5t65 87t103 77.5t151 54t201.5 21q217 0 338 -83t97 -233q-20 -120 -115.5 -211.5t-288.5 -189.5l-311 -164l-4 -12
q134 14 264 14z" />
    <glyph glyph-name="two.tnum" horiz-adv-x="1392" 
d="M518 168l-2 -8q96 8 326 8h418l-29 -168h-1028l-6 131l694 539q110 83 176.5 164t83.5 176q23 127 -46 198.5t-206 71.5q-85 0 -151 -23t-103 -60.5t-57 -76t-27 -78.5h-203q8 43 26 86.5t48.5 91.5t77.5 89.5t106 74.5t140.5 52.5t175.5 19.5q230 0 343.5 -119.5
t76.5 -322.5q-14 -79 -46.5 -147.5t-82.5 -127t-98.5 -102t-116.5 -94.5z" />
    <glyph glyph-name="uni02C9.case" horiz-adv-x="940" 
d="M496 1759h571l-29 -155h-571z" />
    <glyph glyph-name="y.alt" horiz-adv-x="1134" 
d="M618 260l431 764h231l-537 -887q-12 -19 -43.5 -75t-54.5 -95t-65 -100t-79.5 -104.5t-93 -92.5t-111 -79.5t-126.5 -51t-147 -20.5q-130 0 -240 84l94 161q32 -26 81 -45.5t93 -19.5q59 0 114 21t95.5 51.5t82 79t68.5 88.5t60 96l-254 989h227z" />
    <glyph glyph-name="yacute.alt" horiz-adv-x="1134" 
d="M618 260l431 764h231l-537 -887q-12 -19 -43.5 -75t-54.5 -95t-65 -100t-79.5 -104.5t-93 -92.5t-111 -79.5t-126.5 -51t-147 -20.5q-130 0 -240 84l94 161q32 -26 81 -45.5t93 -19.5q59 0 114 21t95.5 51.5t82 79t68.5 88.5t60 96l-254 989h227zM883 1481h223l-283 -307
h-174z" />
    <glyph glyph-name="ycircumflex.alt" horiz-adv-x="1134" 
d="M618 260l431 764h231l-537 -887q-12 -19 -43.5 -75t-54.5 -95t-65 -100t-79.5 -104.5t-93 -92.5t-111 -79.5t-126.5 -51t-147 -20.5q-130 0 -240 84l94 161q32 -26 81 -45.5t93 -19.5q59 0 114 21t95.5 51.5t82 79t68.5 88.5t60 96l-254 989h227zM735 1481h209l186 -307
h-155l-156 188l-225 -188h-156z" />
    <glyph glyph-name="ydieresis.alt" horiz-adv-x="1134" 
d="M618 260l431 764h231l-537 -887q-12 -19 -43.5 -75t-54.5 -95t-65 -100t-79.5 -104.5t-93 -92.5t-111 -79.5t-126.5 -51t-147 -20.5q-130 0 -240 84l94 161q32 -26 81 -45.5t93 -19.5q59 0 114 21t95.5 51.5t82 79t68.5 88.5t60 96l-254 989h227zM455 1327q11 56 53 92.5
t96 36.5q56 0 86.5 -37t20.5 -92q-11 -54 -55 -90.5t-99 -36.5q-54 0 -83.5 36.5t-18.5 90.5zM893 1327q11 56 53 92.5t96 36.5q56 0 86.5 -37t20.5 -92q-11 -54 -55 -90.5t-99 -36.5q-54 0 -83.5 36.5t-18.5 90.5z" />
    <glyph glyph-name="yen.dnom" horiz-adv-x="782" 
d="M178 369h162l-174 338l4 16h149l142 -324l256 324h149l-4 -16l-293 -338h162l-8 -60h-197l-16 -14l-12 -72h209l-11 -59h-209l-28 -164h-135l28 164h-209l11 59h208l13 72l-8 14h-197z" />
    <glyph glyph-name="yen.numr" horiz-adv-x="782" 
d="M305 1079h162l-174 338l2 17h149l144 -324l254 324h149l-2 -17l-293 -338h162l-10 -59h-197l-14 -14l-14 -72h208l-10 -60h-209l-30 -163h-136l31 163h-209l11 60h208l15 72l-10 14h-197z" />
    <glyph glyph-name="yeninferior" horiz-adv-x="782" 
d="M127 82h162l-174 338l4 16h149l142 -323l256 323h149l-4 -16l-293 -338h162l-10 -59h-197l-16 -15l-13 -71h209l-8 -60h-209l-30 -164h-136l31 164h-209l8 60h209l13 71l-9 15h-196z" />
    <glyph glyph-name="yensuperior" horiz-adv-x="782" 
d="M342 1294h162l-172 338l2 17h149l142 -324l256 324h149l-2 -17l-295 -338h162l-8 -59h-197l-16 -14l-12 -72h208l-10 -59h-209l-28 -164h-136l29 164h-209l10 59h209l13 72l-9 14h-196z" />
    <glyph glyph-name="ygrave.alt" horiz-adv-x="1134" 
d="M618 260l431 764h231l-537 -887q-12 -19 -43.5 -75t-54.5 -95t-65 -100t-79.5 -104.5t-93 -92.5t-111 -79.5t-126.5 -51t-147 -20.5q-130 0 -240 84l94 161q32 -26 81 -45.5t93 -19.5q59 0 114 21t95.5 51.5t82 79t68.5 88.5t60 96l-254 989h227zM565 1481h223l123 -307
h-174z" />
    <glyph glyph-name="zero.dnom" horiz-adv-x="774" 
d="M772 360q-30 -160 -135 -266t-254 -106q-146 0 -217 107.5t-41 264.5q30 160 136.5 266.5t254.5 106.5t216.5 -107t39.5 -266zM637 360q21 114 -17.5 185t-125.5 71t-150 -71t-84 -185t17.5 -185t125.5 -71t150 71t84 185z" />
    <glyph glyph-name="zero.numr" horiz-adv-x="774" 
d="M899 1071q-30 -160 -135 -266.5t-254 -106.5q-146 0 -217 108t-41 265q29 159 135.5 266t253.5 107q148 0 217.5 -107t40.5 -266zM764 1071q21 114 -17.5 185t-125.5 71t-150 -71t-84 -185t17.5 -185t125.5 -71t150 71t84 185z" />
    <glyph glyph-name="zero.oldstyle" horiz-adv-x="1388" 
d="M1378 512q-38 -227 -229 -381t-461 -154q-136 0 -241 42t-167 115t-86 170t-6 208q38 227 229.5 381t461.5 154q136 0 241 -42t166.5 -115t85.5 -170t6 -208zM1180 512q17 100 -15.5 181.5t-115.5 131t-203 49.5q-179 0 -306.5 -104.5t-152.5 -257.5q-26 -155 63 -258.5
t269 -103.5q179 0 307.5 104.5t153.5 257.5z" />
    <glyph glyph-name="zero.taboldstyle" horiz-adv-x="1392" 
d="M1380 512q-38 -227 -229 -381t-461 -154q-136 0 -241 42t-167 115t-86 170t-6 208q38 227 229.5 381t461.5 154q136 0 241 -42t166.5 -115t85.5 -170t6 -208zM1182 512q17 100 -15.5 181.5t-115.5 131t-203 49.5q-179 0 -306.5 -104.5t-152.5 -257.5q-26 -155 63 -258.5
t269 -103.5q179 0 307.5 104.5t153.5 257.5z" />
    <glyph glyph-name="zero.tnum" horiz-adv-x="1392" 
d="M1440 717q-26 -153 -93.5 -288t-164.5 -235t-224.5 -158.5t-267.5 -58.5q-113 0 -205 38t-152.5 105t-98 160t-43 203.5t13.5 233.5q27 154 94 289t162.5 235.5t223 158.5t267.5 58q113 0 205.5 -37.5t153.5 -105t99.5 -160.5t43.5 -203.5t-14 -234.5zM1241 717
q23 117 10.5 220t-50 179.5t-109.5 121t-168 44.5q-190 0 -334.5 -162t-186.5 -403q-23 -117 -10.5 -219.5t50.5 -179t109.5 -120.5t166.5 -44q127 0 237.5 76t183.5 203.5t101 283.5z" />
    </font>
</defs>
</svg>
