<?xml version="1.0" standalone="no"?>
<!DOCTYPE svg PUBLIC "-//W3C//DTD SVG 1.1//EN" "http://www.w3.org/Graphics/SVG/1.1/DTD/svg11.dtd" >
<svg xmlns="http://www.w3.org/2000/svg" xmlns:xlink="http://www.w3.org/1999/xlink" version="1.1">
<metadata>
Created by FontForge 20170731 at Mon May 15 13:03:47 2023
 By Aleksey,,,
Copyright (c) Olivier Gourvat - Mostardesign Studio, 2014. All rights reserved. |DCNT
</metadata>
<defs>
<font id="FilsonPro-BookItalic" horiz-adv-x="1232" >
  <font-face 
    font-family="Filson Pro Book"
    font-weight="350"
    font-style="italic"
    font-stretch="normal"
    units-per-em="2048"
    panose-1="2 0 0 0 0 0 0 0 0 0"
    ascent="1481"
    descent="-567"
    x-height="1020"
    cap-height="1434"
    bbox="-487 -522 2709.88 2064"
    underline-thickness="102"
    underline-position="-307"
    unicode-range="U+000D-FB04"
  />
<missing-glyph horiz-adv-x="1378" 
d="M205 0l254 1436h968l-253 -1436h-969zM674 526h123q1 4 2.5 14t2 13.5t2 11t2.5 10t3.5 8t4.5 8t5.5 6t7.5 6t9 5.5q7 4 33.5 18.5t43.5 24t47 28.5t50.5 36t46 42t42.5 50.5t31.5 58t20.5 66.5q20 121 -56.5 193.5t-211.5 72.5q-150 0 -239 -70.5t-103 -156.5
q-10 -57 2 -94h129q-9 27 0 90q11 52 59.5 84t122.5 32q87 0 128.5 -40.5t29.5 -110.5q-13 -71 -62.5 -118.5t-156.5 -106.5q-67 -35 -84 -62.5t-35 -118.5zM596 295q-10 -42 14 -71t66 -29t76 28.5t45 71.5q8 41 -16.5 70.5t-67.5 29.5q-41 0 -75 -29.5t-42 -70.5z" />
    <glyph glyph-name="f_f" unicode="ff" horiz-adv-x="1466" 
d="M1067 1333l-143 -51q-21 82 -133 82q-71 0 -129.5 -56t-81.5 -184l-19 -104h580l14 86q16 93 47.5 164.5t69.5 114t86.5 69.5t93.5 37t96 10q139 0 206 -70.5t46 -179.5l-4 -16q-3 -17 -16 -39h-140q15 39 15 41q10 64 -26 95.5t-105 31.5q-71 0 -129.5 -56t-81.5 -184
l-19 -104h283l-21 -123h-282l-158 -897h-153l157 897h-579l-158 -897h-154l158 897h-170l21 123h170l14 86q16 93 47.5 164.5t69.5 114t86.5 69.5t93.5 37t96 10q109 0 173.5 -45.5t78.5 -122.5z" />
    <glyph glyph-name="fi" unicode="fi" horiz-adv-x="1259" 
d="M387 897h-170l21 123h170l16 92q71 389 471 389q55 0 103.5 -12t91.5 -37.5t72.5 -73t39.5 -112.5l-155 -41q-11 73 -60.5 106t-116.5 33q-245 0 -292 -252l-17 -92h703l-179 -1020h-153l158 897h-549l-158 -897h-154z" />
    <glyph glyph-name="fl" unicode="fl" horiz-adv-x="1234" 
d="M408 1020l16 92q71 389 471 389q100 0 225 -20.5t191 -61.5l-250 -1419h-154l230 1319q-103 45 -267 45q-245 0 -292 -252l-17 -92h283l-21 -123h-282l-158 -897h-154l158 897h-170l21 123h170z" />
    <glyph glyph-name="f_f_i" unicode="ffi" horiz-adv-x="1992" 
d="M1147 1386l-131 -98q-26 36 -65 56t-81 20q-245 0 -292 -252l-17 -92h580l16 92q71 389 471 389q55 0 103.5 -12t91.5 -37.5t72.5 -73t39.5 -112.5l-155 -41q-11 73 -60 106t-116 33q-246 0 -293 -252l-17 -92h703l-178 -1020h-154l158 897h-549l-158 -897h-153l157 897
h-579l-158 -897h-154l158 897h-170l21 123h170l16 92q71 389 471 389q161 0 252 -115z" />
    <glyph glyph-name="f_f_l" unicode="ffl" horiz-adv-x="1968" 
d="M1294 1020h283l-21 -123h-282l-158 -897h-153l157 897h-579l-158 -897h-154l158 897h-170l21 123h170l16 92q71 389 471 389q161 0 252 -115l-131 -98q-26 36 -65 56t-81 20q-245 0 -292 -252l-17 -92h580l16 92q71 389 471 389q100 0 225 -20.5t191 -61.5l-250 -1419
h-154l230 1319q-103 45 -266 45q-246 0 -293 -252z" />
    <glyph glyph-name="f_f_j" unicode="ffj" horiz-adv-x="2043" 
d="M1147 1386l-131 -98q-26 36 -65 56t-81 20q-245 0 -292 -252l-17 -92h580l16 92q71 389 471 389q55 0 103.5 -12t91.5 -37.5t72.5 -73t39.5 -112.5l-155 -41q-11 73 -60 106t-116 33q-246 0 -293 -252l-17 -92h754l-213 -1200q-14 -79 -50 -139t-85.5 -94t-104.5 -51
t-114 -17q-133 0 -197 72.5t-45 181.5l8 32q15 47 23 60h143q-21 -36 -29 -74q-10 -63 24.5 -99t94.5 -36q148 0 178 170l193 1071h-600l-158 -897h-153l157 897h-579l-158 -897h-154l158 897h-170l21 123h170l16 92q71 389 471 389q161 0 252 -115z" />
    <glyph glyph-name="f_j" unicode="fj" horiz-adv-x="1310" 
d="M387 897h-170l21 123h170l16 92q71 389 471 389q55 0 103.5 -12t91.5 -37.5t72.5 -73t39.5 -112.5l-155 -41q-11 73 -60.5 106t-116.5 33q-245 0 -292 -252l-17 -92h754l-213 -1200q-14 -79 -50 -139t-85.5 -94t-104.5 -51t-114 -17q-133 0 -197 72.5t-45 181.5l8 32
q16 47 23 60h143q-21 -36 -29 -74q-10 -63 24.5 -99t94.5 -36q148 0 178 170l193 1071h-600l-158 -897h-154z" />
    <glyph glyph-name=".notdef" horiz-adv-x="1378" 
d="M205 0l254 1436h968l-253 -1436h-969zM674 526h123q1 4 2.5 14t2 13.5t2 11t2.5 10t3.5 8t4.5 8t5.5 6t7.5 6t9 5.5q7 4 33.5 18.5t43.5 24t47 28.5t50.5 36t46 42t42.5 50.5t31.5 58t20.5 66.5q20 121 -56.5 193.5t-211.5 72.5q-150 0 -239 -70.5t-103 -156.5
q-10 -57 2 -94h129q-9 27 0 90q11 52 59.5 84t122.5 32q87 0 128.5 -40.5t29.5 -110.5q-13 -71 -62.5 -118.5t-156.5 -106.5q-67 -35 -84 -62.5t-35 -118.5zM596 295q-10 -42 14 -71t66 -29t76 28.5t45 71.5q8 41 -16.5 70.5t-67.5 29.5q-41 0 -75 -29.5t-42 -70.5z" />
    <glyph glyph-name=".null" horiz-adv-x="0" 
 />
    <glyph glyph-name="nonmarkingreturn" horiz-adv-x="682" 
 />
    <glyph glyph-name="NULL" horiz-adv-x="0" 
 />
    <glyph glyph-name="NULL" horiz-adv-x="0" 
 />
    <glyph glyph-name="CR" unicode="&#xd;" horiz-adv-x="512" 
 />
    <glyph glyph-name="space" unicode=" " horiz-adv-x="557" 
 />
    <glyph glyph-name="exclam" unicode="!" horiz-adv-x="495" 
d="M145 96q11 52 51.5 87.5t90.5 35.5q51 0 80.5 -36t19.5 -87q-11 -50 -51.5 -84.5t-91.5 -34.5t-80 35t-19 84zM375 434h-101l95 748l45 252h170l-45 -252z" />
    <glyph glyph-name="quotedbl" unicode="&#x22;" horiz-adv-x="829" 
d="M444 918h-122l84 563h151zM831 918h-122l84 563h151z" />
    <glyph glyph-name="numbersign" unicode="#" horiz-adv-x="1529" 
d="M1360 1122h293l-54 -125h-290l-228 -522h293l-57 -123h-291l-152 -352h-137l152 352h-320l-151 -352h-135l149 352h-297l53 123h299l228 522h-297l53 125h295l139 312h133l-135 -312h320l137 312h135zM850 997l-225 -522h319l227 522h-321z" />
    <glyph glyph-name="dollar" unicode="$" horiz-adv-x="1089" 
d="M571 -160h-98l37 205q-167 12 -264.5 95.5t-110.5 207.5q25 8 73.5 20.5t70.5 18.5q8 -82 74 -139.5t179 -67.5l89 494l-68 24q-282 99 -240 336q29 152 151 249.5t286 109.5l38 217h99l-39 -219q139 -12 221 -91t90 -200l-141 -41q-4 85 -55.5 134t-139.5 60l-84 -465
q374 -119 330 -374q-25 -151 -153 -254t-308 -115zM750 627l-35 12l-84 -457q115 12 190.5 73.5t93.5 150.5q29 148 -165 221zM467 1042q-7 -24 -3.5 -51.5t15 -53t47 -52.5t92.5 -49l29 -11l78 430q-100 -12 -170.5 -68t-87.5 -145z" />
    <glyph glyph-name="percent" unicode="%" horiz-adv-x="1792" 
d="M268 1108q25 147 143 247.5t265 100.5t229 -100.5t53 -247.5q-25 -146 -141 -246t-264 -100q-146 0 -228 100.5t-57 245.5zM426 0l1051 1434h127l-1049 -1434h-129zM393 1108q-17 -98 35 -163.5t145 -65.5q95 0 169.5 65.5t91.5 163.5q19 100 -31.5 165.5t-147.5 65.5
q-93 0 -166.5 -65.5t-95.5 -165.5zM1081 322q25 148 143 248t265 100q148 0 229 -99.5t56 -248.5q-25 -143 -143.5 -244t-264.5 -101q-147 0 -228.5 100.5t-56.5 244.5zM1210 322q-19 -98 32 -163t144 -65q96 0 170 64.5t93 163.5q19 100 -32.5 166.5t-148.5 66.5
q-93 0 -165.5 -66t-92.5 -167z" />
    <glyph glyph-name="ampersand" unicode="&#x26;" horiz-adv-x="1626" 
d="M987 311l-278 404q-67 -23 -127.5 -53t-121.5 -72t-103 -98t-54 -119q-20 -120 65 -193.5t228 -73.5q102 0 209 57.5t182 147.5zM1128 111l-69 98q-96 -108 -227 -170t-261 -62q-137 0 -238.5 44t-152.5 134t-30 212q46 271 493 450q-69 66 -103.5 153.5t-17.5 172.5
q15 86 57 149.5t99.5 97.5t117 50t122.5 16q168 0 248 -87.5t57 -213.5q-19 -108 -132 -214.5t-247 -158.5q41 -60 123 -175.5t123 -176.5l253 281h160v-13l-340 -368l94 -135q34 -43 68 -61.5t86 -18.5q100 0 168 49q27 -93 33 -109q-98 -78 -230 -78q-89 0 -143 32.5
t-111 101.5zM778 872q123 55 202 130.5t91 148.5q13 74 -31.5 129t-146.5 55q-76 0 -138.5 -50.5t-80.5 -147.5q-22 -125 104 -265z" />
    <glyph glyph-name="quotesingle" unicode="'" horiz-adv-x="442" 
d="M444 918h-122l84 563h151z" />
    <glyph glyph-name="parenleft" unicode="(" horiz-adv-x="614" 
d="M197 580q27 145 80.5 285t112.5 242.5t130.5 196.5t123.5 149.5t101 98.5l91 -61q-398 -430 -484 -916q-85 -478 158 -911l-111 -61q-27 37 -52.5 80t-59 111.5t-57 150.5t-41 178.5t-16 215t23.5 241.5z" />
    <glyph glyph-name="parenright" unicode=")" horiz-adv-x="616" 
d="M623 580q-26 -146 -80 -287t-114 -244t-132 -198t-124 -150t-101 -98l-86 61q393 431 479 911q88 497 -160 916l113 61q27 -35 53.5 -78.5t60 -111.5t57.5 -150.5t41.5 -178.5t16 -214t-23.5 -239z" />
    <glyph glyph-name="asterisk" unicode="*" horiz-adv-x="921" 
d="M643 1030l-211 -239l-86 71l225 228l-266 81l60 119l251 -104l39 295h127l-63 -295l291 104l18 -116l-293 -84l146 -226l-111 -73z" />
    <glyph glyph-name="plus" unicode="+" horiz-adv-x="1112" 
d="M649 156h-135l72 399h-400l25 135h399l68 397h135l-68 -397h398l-25 -135h-397z" />
    <glyph glyph-name="comma" unicode="," horiz-adv-x="512" 
d="M100 -258l-24 59q168 66 200 244q-19 -8 -47 -8q-40 0 -59.5 27.5t-13.5 64.5q8 46 43 77.5t92 31.5q44 0 69.5 -28.5t27.5 -63.5t-1 -66q-19 -104 -92 -198t-195 -140z" />
    <glyph glyph-name="hyphen" unicode="-" horiz-adv-x="929" 
d="M240 553l24 137h643l-24 -137h-643z" />
    <glyph glyph-name="period" unicode="." horiz-adv-x="483" 
d="M143 90q7 47 46.5 80t86.5 33t74 -33t19 -80q-7 -47 -46.5 -80t-86.5 -33t-74 33t-19 80z" />
    <glyph glyph-name="slash" unicode="/" horiz-adv-x="1044" 
d="M1253 1505l-1063 -1587h-149l1063 1587h149z" />
    <glyph glyph-name="zero" unicode="0" horiz-adv-x="1447" 
d="M1460 717q-26 -153 -93 -288t-163 -235t-222.5 -158.5t-264.5 -58.5q-184 0 -306.5 100.5t-165 267t-7.5 372.5q27 153 93.5 288t162 235t221.5 158t264 58q111 0 202 -37.5t151.5 -104.5t98.5 -159.5t43 -203t-14 -234.5zM1305 717q16 101 13.5 191t-30 165.5t-72 130
t-112.5 85t-152 30.5q-138 0 -256.5 -81t-195.5 -217t-107 -304t-0.5 -304t119.5 -217t229 -81t258.5 81t197.5 217t108 304z" />
    <glyph glyph-name="one" unicode="1" horiz-adv-x="737" 
d="M266 1087l-14 132l496 215h79l-252 -1434h-155l221 1243z" />
    <glyph glyph-name="two" unicode="2" 
d="M367 131l-2 -8q61 8 387 8h411l-20 -131h-1018l-4 104l704 549q119 90 191.5 178t91.5 191q24 138 -57 216.5t-232 78.5q-89 0 -158 -22t-110.5 -60t-65 -77t-34.5 -83h-158q9 49 32.5 99.5t69 102t106.5 90.5t150 64t193 25q228 0 343 -115.5t79 -314.5
q-14 -77 -46 -145t-82.5 -126t-99.5 -102t-120 -98z" />
    <glyph glyph-name="three" unicode="3" 
d="M575 117q99 0 184.5 29.5t144 78.5t95.5 108.5t48 123.5q24 141 -61 228t-238 87q-147 0 -234 -61q-43 73 -57 94l600 498h-697l23 131h942l-16 -97l-557 -446v-2q16 2 47 2q96 0 177.5 -29.5t138.5 -83.5t82 -136.5t7 -182.5q-38 -209 -213.5 -345.5t-441.5 -136.5
q-156 0 -270.5 42.5t-176.5 109.5q22 19 59.5 54t51.5 48q70 -64 153 -89t209 -25z" />
    <glyph glyph-name="four" unicode="4" horiz-adv-x="1376" 
d="M344 530h590l110 644zM909 397h-788l18 105l1012 932h96l-157 -904h321l-25 -133h-321l-70 -397h-155z" />
    <glyph glyph-name="five" unicode="5" horiz-adv-x="1222" 
d="M127 129l111 102q47 -47 156 -80.5t216 -33.5q184 0 304.5 100t146.5 246q8 53 5 102.5t-27 92.5t-61 75.5t-96 51t-134 18.5q-66 0 -164 -25t-195 -86l-115 56l166 686h836l-23 -131h-696l-121 -467q169 106 365 106q114 0 202.5 -39.5t139.5 -107t70.5 -155t3.5 -183.5
q-25 -134 -107.5 -241.5t-221 -173t-310.5 -65.5q-145 0 -264.5 43.5t-186.5 108.5z" />
    <glyph glyph-name="six" unicode="6" horiz-adv-x="1282" 
d="M389 434q-12 -142 75 -229.5t236 -87.5q152 0 270.5 91.5t147.5 240.5q28 147 -61.5 239t-237.5 92q-100 0 -195 -42.5t-161 -123.5t-74 -180zM395 684l2 8q91 117 214 173.5t249 56.5q98 0 182.5 -34t142.5 -95t83.5 -151.5t7.5 -195.5q-37 -206 -206 -337.5
t-392 -131.5q-176 0 -290.5 88.5t-153.5 247.5t-1 371q23 128 69 244t114 212t152.5 166.5t188.5 110t216 39.5q119 0 210 -39t136 -102l-121 -94q-35 44 -102 68t-154 24q-59 0 -113.5 -18.5t-98.5 -49.5t-86 -79t-74.5 -99t-65 -118t-57.5 -128.5t-52 -136.5z" />
    <glyph glyph-name="seven" unicode="7" horiz-adv-x="1097" 
d="M291 1303l22 131h1012l-18 -113l-971 -1321h-170l967 1303h-842z" />
    <glyph glyph-name="eight" unicode="8" horiz-adv-x="1351" 
d="M696 117q182 0 309 83.5t152 213.5q21 120 -64 193t-270 83h-55q-189 -10 -299 -85.5t-131 -192.5q-25 -127 75.5 -211t282.5 -84zM672 -23q-244 0 -384 125.5t-108 309.5q20 118 117 214t244 140q-103 43 -152.5 125t-30.5 180q28 164 192 274.5t384 110.5
q219 0 340.5 -110t93.5 -275q-19 -99 -96 -182t-193 -125q129 -43 194 -138.5t42 -211.5q-16 -91 -73 -172t-141.5 -139t-196 -92t-232.5 -34zM907 1317q-155 0 -262.5 -69.5t-128.5 -176.5q-19 -101 54.5 -180.5t224.5 -79.5h49q148 0 247.5 79t118.5 181q19 106 -64 176
t-239 70z" />
    <glyph glyph-name="nine" unicode="9" horiz-adv-x="1282" 
d="M1145 999q12 143 -75.5 230.5t-235.5 87.5q-152 0 -273 -92t-145 -240q-24 -149 62 -240.5t235 -91.5q100 0 195.5 42.5t162 123.5t74.5 180zM1141 750l-6 -9q-90 -117 -212.5 -173t-248.5 -56q-98 0 -182.5 34t-142.5 94.5t-83.5 151t-7.5 195.5q37 206 206 337.5
t392 131.5q176 0 289.5 -88t152 -247t0.5 -371q-27 -160 -92 -300.5t-158.5 -245.5t-219.5 -166t-267 -61q-118 0 -210 39.5t-138 102.5l123 94q32 -44 99.5 -68t154.5 -24q136 0 253 86.5t192.5 228t105.5 314.5z" />
    <glyph glyph-name="colon" unicode=":" horiz-adv-x="512" 
d="M158 90q7 47 46.5 80t86.5 33t73.5 -32.5t18.5 -80.5q-7 -47 -46.5 -80t-86.5 -33t-73.5 32.5t-18.5 80.5zM307 930q11 48 48.5 80t84.5 32q48 0 75 -32.5t17 -79.5q-11 -48 -48.5 -80.5t-84.5 -32.5q-48 0 -75 33t-17 80z" />
    <glyph glyph-name="semicolon" unicode=";" horiz-adv-x="546" 
d="M123 -258l-25 59q58 23 100 59.5t62 77t27.5 62.5t11.5 45q-19 -8 -47 -8q-37 0 -58.5 28t-15.5 64q8 46 43 77.5t92 31.5q35 0 58 -16.5t31 -41t11 -52t-3 -48.5q-19 -104 -92 -198t-195 -140zM322 930q11 48 48.5 80t84.5 32q48 0 75 -32.5t17 -79.5
q-11 -48 -48.5 -80.5t-84.5 -32.5q-48 0 -75 33t-17 80z" />
    <glyph glyph-name="less" unicode="&#x3c;" horiz-adv-x="1206" 
d="M170 479l29 156l1054 391l-24 -145l-901 -324l786 -324l-27 -145z" />
    <glyph glyph-name="equal" unicode="=" horiz-adv-x="1236" 
d="M1143 330h-934l24 135h934zM1241 887h-934l25 135h934z" />
    <glyph glyph-name="greater" unicode="&#x3e;" horiz-adv-x="1206" 
d="M1227 635l-27 -156l-1053 -391l27 145l897 324l-784 324l26 145z" />
    <glyph glyph-name="question" unicode="?" horiz-adv-x="1064" 
d="M621 434h-144l19 98q12 60 41 92.5t112 75.5q78 43 129.5 76t105.5 78.5t85 97t41 111.5q20 117 -53.5 186.5t-215.5 69.5q-135 0 -218 -58.5t-101 -150.5q-5 -44 -4 -66h-142q-9 40 0 86q9 43 31 86.5t63.5 87.5t96.5 77t134.5 54t172.5 21q130 0 227.5 -46.5t144 -136
t25.5 -206.5q-13 -69 -50.5 -134t-79 -109.5t-104.5 -91.5t-101 -69.5t-95 -54.5q-68 -36 -86 -56.5t-26 -68.5zM367 96q11 52 52 87.5t91 35.5q51 0 79.5 -36t18.5 -87q-11 -50 -51 -84.5t-90 -34.5q-51 0 -80.5 35t-19.5 84z" />
    <glyph glyph-name="at" unicode="@" horiz-adv-x="2144" 
d="M1386 225l-10 4q-61 -87 -165.5 -140.5t-209.5 -53.5q-196 0 -292.5 131.5t-63.5 325.5t176.5 325t341.5 131q105 0 191 -53.5t116 -140.5l31 172h137l-127 -717q-16 -73 16 -111.5t91 -38.5q138 5 241.5 130.5t145.5 379.5q30 170 -4 317t-123.5 252t-234 164.5
t-326.5 59.5t-352.5 -66.5t-303 -182t-225.5 -277t-125 -344.5q-44 -244 23 -441t234 -310.5t405 -113.5q233 0 424 76l18 -53q3 -10 11 -27.5t10 -23.5q-229 -93 -486 -93q-139 0 -259 34t-211 96.5t-160 151t-105 198t-45.5 237.5t16.5 269q36 210 142.5 393.5t258.5 314
t347 206t403 75.5q281 0 479 -115.5t281 -323t35 -473.5q-59 -322 -198 -470t-339 -148q-133 0 -182 73.5t-27 200.5zM782 492q-26 -142 43 -239t215 -97q144 0 250 94t131 237q25 150 -46.5 245t-217.5 95q-148 0 -248.5 -96t-126.5 -239z" />
    <glyph glyph-name="A" unicode="A" horiz-adv-x="1376" 
d="M436 438h656l-179 842zM1116 307h-751l-170 -307h-166l817 1434h188l314 -1434h-164z" />
    <glyph glyph-name="B" unicode="B" horiz-adv-x="1341" 
d="M1358 1071q-21 -122 -109.5 -213.5t-236.5 -126.5q167 -20 243 -120.5t50 -241.5q-29 -168 -174.5 -268.5t-352.5 -100.5h-567l252 1434h500q199 0 312.5 -98t82.5 -265zM788 657h-305l-94 -526h410q133 0 228.5 65.5t115.5 176.5q22 122 -68 203t-287 81zM506 782h260
q189 0 299 81.5t129 197.5t-54 179t-200 63h-342z" />
    <glyph glyph-name="C" unicode="C" horiz-adv-x="1409" 
d="M225 717q27 150 104.5 284t192.5 235t273 160.5t335 59.5q147 0 252 -39.5t191 -113.5l-84 -119q-153 129 -391 129q-138 0 -262 -48t-214.5 -129.5t-151.5 -189.5t-83 -229q-21 -122 2 -230t84.5 -189.5t168.5 -129t245 -47.5q239 0 436 127l41 -121
q-115 -73 -232 -111.5t-262 -38.5q-179 0 -316.5 59.5t-217 161t-109 235.5t-2.5 284z" />
    <glyph glyph-name="D" unicode="D" horiz-adv-x="1484" 
d="M1348 717q15 97 7.5 184.5t-46.5 161t-98.5 127t-148 83.5t-194.5 30h-270l-209 -1172h270q134 0 253.5 46.5t207.5 126t147.5 186t80.5 227.5zM1507 717q-27 -148 -101.5 -278.5t-184.5 -228t-261 -154t-321 -56.5h-428l252 1434h428q170 0 301.5 -56.5t208.5 -154
t105 -228t1 -278.5z" />
    <glyph glyph-name="E" unicode="E" horiz-adv-x="1206" 
d="M1122 131l-20 -131h-891l252 1434h891l-23 -131h-733l-96 -535h641l-23 -133h-641l-90 -504h733z" />
    <glyph glyph-name="F" unicode="F" horiz-adv-x="1183" 
d="M369 0h-158l252 1434h891l-23 -131h-733l-96 -535h641l-21 -131h-641z" />
    <glyph glyph-name="G" unicode="G" horiz-adv-x="1507" 
d="M1118 1313q-126 0 -238 -35t-194.5 -93.5t-146.5 -136.5t-101.5 -162.5t-52.5 -172.5q-16 -76 -9 -149.5t28.5 -139.5t66.5 -121.5t103.5 -96t140.5 -63t178 -22.5q215 0 391 110l57 334h-413l24 133h557l-96 -530q-245 -191 -555 -191q-220 0 -378.5 99.5t-224.5 267.5
t-30 371q28 154 110.5 291t200.5 236t271.5 156.5t316.5 57.5q123 0 245 -34t212 -113l-80 -123q-166 127 -383 127z" />
    <glyph glyph-name="H" unicode="H" horiz-adv-x="1474" 
d="M1212 616h-737l-106 -616h-158l252 1434h158l-121 -686h737l121 686h158l-252 -1434h-158z" />
    <glyph glyph-name="I" unicode="I" horiz-adv-x="579" 
d="M621 1434l-252 -1434h-158l252 1434h158z" />
    <glyph glyph-name="J" unicode="J" horiz-adv-x="1370" 
d="M1436 1434l-138 -785q-57 -327 -238 -499.5t-460 -172.5q-93 0 -169 19.5t-127.5 55t-89 83.5t-53 105t-20 120.5t10.5 128.5q6 31 25 84.5t38 79.5h156q-43 -68 -60 -155q-8 -59 -6 -114t24.5 -103t58.5 -83.5t96.5 -56t138.5 -20.5q208 0 340.5 137t177.5 391l139 785
h156z" />
    <glyph glyph-name="K" unicode="K" horiz-adv-x="1275" 
d="M492 717l675 717h176l-2 -13l-704 -743l160 -260q10 -16 41 -64.5t46 -71t45 -60.5t52.5 -56.5t54 -33.5t62.5 -15q85 0 166 53l41 -113q-47 -38 -121 -59t-127 -21q-63 0 -114 19t-94.5 63.5t-63 70.5t-56.5 84q-7 10 -10 15l-242 402l-110 -631h-158l252 1434h157z" />
    <glyph glyph-name="L" unicode="L" horiz-adv-x="1071" 
d="M1061 131l-21 -131h-829l252 1434h158l-232 -1303h672z" />
    <glyph glyph-name="M" unicode="M" horiz-adv-x="1976" 
d="M926 18l-299 1184l-318 -1202h-162l388 1434h184l309 -1209l733 1209h187l-119 -1434h-162l105 1202l-721 -1184h-125z" />
    <glyph glyph-name="N" unicode="N" horiz-adv-x="1546" 
d="M1217 0l-646 1149l-202 -1149h-158l252 1434h121l643 -1145l203 1145h157l-252 -1434h-118z" />
    <glyph glyph-name="O" unicode="O" horiz-adv-x="1687" 
d="M225 717q35 200 165.5 370.5t319.5 269.5t390 99q151 0 278 -58.5t208.5 -157.5t116.5 -236t9 -287q-27 -150 -110 -287t-200.5 -236.5t-265.5 -158t-298 -58.5q-151 0 -278 58.5t-209 158t-117 236.5t-9 287zM387 717q-22 -123 4 -234t90.5 -190t163.5 -125.5t217 -46.5
q242 0 442 172.5t246 423.5q22 124 -5 234.5t-91.5 189.5t-163.5 125.5t-217 46.5q-157 0 -304 -78t-250 -215.5t-132 -302.5z" />
    <glyph glyph-name="P" unicode="P" horiz-adv-x="1265" 
d="M369 0h-158l252 1434h559q97 0 171.5 -36.5t114.5 -97.5t56.5 -141.5t-2.5 -167.5q-35 -186 -168 -309t-326 -123h-401zM489 690h371q133 0 225 84.5t117 218.5q24 136 -38.5 223t-194.5 87h-371z" />
    <glyph glyph-name="Q" unicode="Q" horiz-adv-x="1687" 
d="M387 717q-22 -124 4 -235t90.5 -190.5t163.5 -126t217 -46.5q159 0 306.5 79t249.5 216.5t132 302.5q29 164 -25 301.5t-173.5 216t-276.5 78.5t-305 -78.5t-251 -216t-132 -301.5zM944 -12q8 -114 65.5 -178t186.5 -64q39 0 96 17t92 40l39 -114q-111 -76 -258 -76
q-86 0 -153.5 24t-107 60.5t-65.5 87.5t-36 98t-12 99q-190 11 -332.5 111.5t-205.5 265.5t-28 358q35 200 165.5 370.5t319.5 269.5t390 99q151 0 278 -58.5t208.5 -157.5t116.5 -236t9 -287q-32 -185 -145 -344t-277 -260t-346 -125z" />
    <glyph glyph-name="R" unicode="R" horiz-adv-x="1388" 
d="M367 0h-158l252 1434h588q128 0 214 -62.5t117 -162.5t9 -218q-30 -166 -144 -284t-280 -142q-6 -67 2 -141t31 -146t73 -118.5t119 -46.5q93 0 172 59q7 -28 37 -111q-105 -84 -242 -84q-68 0 -123.5 23t-91.5 61t-64 88.5t-40.5 105t-21 110.5t-6.5 105.5t3 88.5h-348z
M487 690h400q132 0 224.5 84.5t117.5 218.5t-39 222t-195 88h-399z" />
    <glyph glyph-name="S" unicode="S" horiz-adv-x="1177" 
d="M823 1313q-122 0 -218 -65t-116 -175q-7 -26 -2 -57t18.5 -60t53 -58.5t100.5 -53.5l218 -82q149 -50 225 -153t53 -226q-29 -179 -187.5 -292.5t-379.5 -113.5q-201 0 -321 95t-138 239l158 39q13 -95 98 -162t225 -67q152 0 257.5 72t123.5 180q16 92 -38.5 156
t-149.5 96l-217 77q-306 114 -260 367q21 116 101 205.5t191.5 135.5t233.5 46q179 0 277 -87.5t106 -233.5l-152 -43q-6 109 -71.5 165t-188.5 56z" />
    <glyph glyph-name="T" unicode="T" horiz-adv-x="1228" 
d="M287 1434h1159l-23 -131h-501l-230 -1303h-157l229 1303h-500z" />
    <glyph glyph-name="U" unicode="U" horiz-adv-x="1497" 
d="M1403 1434h156l-160 -910q-32 -174 -131 -300t-233.5 -186.5t-289.5 -60.5q-115 0 -209.5 35.5t-160 102.5t-91 172.5t-1.5 236.5l159 910h158l-160 -910q-18 -98 0 -176t65 -126.5t114 -74.5t149 -26q111 0 208 44t169 137t96 222z" />
    <glyph glyph-name="V" unicode="V" horiz-adv-x="1302" 
d="M731 0h-162l-258 1434h162l213 -1235l645 1235h164z" />
    <glyph glyph-name="W" unicode="W" horiz-adv-x="2033" 
d="M1327 1386l152 -1126l581 1174h160l-704 -1434h-144l-153 1145l-557 -1145h-144l-201 1434h160l164 -1174l553 1126h133z" />
    <glyph glyph-name="X" unicode="X" horiz-adv-x="1396" 
d="M807 625l-614 -625h-185v12l731 740l-428 669l2 13h179l360 -564l557 564h178l-2 -13l-661 -669l465 -740v-12h-185z" />
    <glyph glyph-name="Y" unicode="Y" horiz-adv-x="1345" 
d="M799 729h2l567 705h176l-2 -13l-688 -829l-102 -592h-158l102 592l-393 829l2 13h176z" />
    <glyph glyph-name="Z" unicode="Z" horiz-adv-x="1296" 
d="M1255 131l-20 -131h-1176l19 123l1130 1180h-866l23 131h1075l-23 -125l-1132 -1178h970z" />
    <glyph glyph-name="bracketleft" unicode="[" horiz-adv-x="622" 
d="M84 -393l340 1911h420l-23 -123h-276l-297 -1667h276l-20 -121h-420z" />
    <glyph glyph-name="backslash" unicode="\" horiz-adv-x="1044" 
d="M821 -82l-497 1587h149l498 -1587h-150z" />
    <glyph glyph-name="bracketright" unicode="]" horiz-adv-x="622" 
d="M735 1518l-340 -1911h-415l20 121h272l297 1667h-276l22 123h420z" />
    <glyph glyph-name="asciicircum" unicode="^" horiz-adv-x="1021" 
d="M1057 788h-146l-168 543l-360 -543h-141l469 693h120z" />
    <glyph glyph-name="underscore" unicode="_" horiz-adv-x="1439" 
d="M-47 -279l24 136h1436l-24 -136h-1436z" />
    <glyph glyph-name="grave" unicode="`" horiz-adv-x="956" 
d="M524 1481h176l127 -307h-133z" />
    <glyph glyph-name="a" unicode="a" horiz-adv-x="1320" 
d="M1333 1020l-178 -1020h-154l35 203q-175 -226 -446 -226q-151 0 -255 72.5t-144 193t-15 267.5q20 110 73.5 207t131.5 169t181.5 114t217.5 42q274 0 365 -225l35 203h153zM330 510q-30 -167 50.5 -281t248.5 -114q167 0 300.5 110t162.5 285q16 87 -2 161.5
t-62.5 125.5t-111.5 79.5t-148 28.5q-167 0 -287.5 -113t-150.5 -282z" />
    <glyph glyph-name="b" unicode="b" horiz-adv-x="1320" 
d="M166 0l260 1481h154l-117 -664q169 225 446 225q91 0 166.5 -27t127 -75.5t85 -115.5t40.5 -146t-7 -168q-18 -109 -71.5 -206.5t-131.5 -170t-182 -114.5t-217 -42q-274 0 -365 226l-35 -203h-153zM1167 510q30 169 -50 282t-249 113q-167 0 -298.5 -109.5
t-163.5 -285.5q-29 -176 63.5 -285.5t259.5 -109.5q168 0 288 114t150 281z" />
    <glyph glyph-name="c" unicode="c" horiz-adv-x="1087" 
d="M176 510q29 165 130.5 287.5t242.5 182.5t301 60q192 0 338 -118l-94 -107q-107 90 -267 90q-187 0 -325.5 -111.5t-171.5 -283.5q-28 -172 70 -283.5t286 -111.5q158 0 301 90l55 -107q-193 -121 -383 -121q-118 2 -215 38t-165 101.5t-96.5 167t-6.5 226.5z" />
    <glyph glyph-name="d" unicode="d" horiz-adv-x="1320" 
d="M1415 1481l-260 -1481h-154l35 203q-175 -226 -446 -226q-151 0 -255 72.5t-144 193t-15 267.5q20 110 73.5 207t131.5 169t181.5 114t217.5 42q274 0 365 -225l117 664h153zM330 510q-30 -167 50.5 -281t248.5 -114q167 0 300.5 110t162.5 285q16 87 -2 161.5
t-62.5 125.5t-111.5 79.5t-148 28.5q-167 0 -287.5 -113t-150.5 -282z" />
    <glyph glyph-name="e" unicode="e" horiz-adv-x="1218" 
d="M1049 248l73 -92q-201 -179 -469 -179q-129 0 -230.5 42t-161 114t-82.5 168.5t-5 204.5q42 226 225.5 381t419.5 155q102 0 185 -32t143.5 -94.5t84.5 -166.5t3 -237h-907q-37 -170 59 -284.5t291 -114.5q198 0 371 135zM799 907q-130 0 -247.5 -70t-186.5 -206h731
q-2 76 -28.5 132t-70 86.5t-92.5 44t-106 13.5z" />
    <glyph glyph-name="f" unicode="f" horiz-adv-x="733" 
d="M922 1237q10 64 -26 95.5t-105 31.5q-71 0 -129.5 -56t-81.5 -184l-19 -104h283l-21 -123h-282l-158 -897h-154l158 897h-170l21 123h170l14 86q72 395 393 395q139 0 206 -70.5t46 -179.5l-4 -16q-3 -17 -16 -39h-140q15 39 15 41z" />
    <glyph glyph-name="g" unicode="g" horiz-adv-x="1318" 
d="M1333 1020l-178 -1008q-20 -119 -78.5 -214t-142 -155t-184 -92t-209.5 -32q-140 0 -236.5 36t-175.5 105l84 121q128 -125 350 -125q171 0 291 97.5t150 271.5l32 178q-175 -226 -446 -226q-151 0 -255 72.5t-144 193t-15 267.5q20 110 73.5 207t131.5 169t181.5 114
t217.5 42q274 0 365 -225l35 203h153zM330 510q-30 -167 50.5 -281t248.5 -114q167 0 300.5 110t162.5 285q16 87 -2 161.5t-62.5 125.5t-111.5 79.5t-148 28.5q-167 0 -287.5 -113t-150.5 -282z" />
    <glyph glyph-name="h" unicode="h" 
d="M930 0l102 580q13 92 4 154.5t-43 100.5t-75.5 54t-92.5 16q-37 0 -80.5 -10.5t-97 -39t-99.5 -72.5t-85.5 -118.5t-56.5 -168.5l-87 -496h-153l260 1481h154l-119 -678q39 79 106.5 134t142 80t152.5 25q86 0 152.5 -25t114.5 -80.5t62 -143.5t-5 -213l-103 -580h-153z
" />
    <glyph glyph-name="i" unicode="i" horiz-adv-x="501" 
d="M506 1020l-178 -1020h-154l178 1020h154zM379 1362q11 50 47.5 82.5t83.5 32.5q48 0 75 -33t17 -82t-48 -81t-85 -32q-48 0 -74 32t-16 81z" />
    <glyph glyph-name="j" unicode="j" horiz-adv-x="575" 
d="M215 -174l211 1194h154l-213 -1200q-14 -79 -50 -139t-85.5 -94t-104 -51t-113.5 -17q-131 0 -194.5 72.5t-44.5 181.5l8 32q17 51 22 60h144q-18 -31 -27 -74q-10 -63 23 -99t90 -36q150 0 180 170zM455 1362q11 50 46.5 82.5t82.5 32.5q48 0 75 -33t17 -82t-48 -81
t-85 -32q-48 0 -73 32t-15 81z" />
    <glyph glyph-name="k" unicode="k" horiz-adv-x="1073" 
d="M422 588l465 432h184l-2 -14l-500 -459l162 -283q48 -80 67 -101q46 -50 115 -50q81 0 138 41l34 -107q-86 -70 -213 -70q-61 0 -107.5 16.5t-81 54t-48 58.5t-38.5 68q-3 5 -5 8.5t-4 7.5l-178 336l-93 -526h-153l260 1481h154z" />
    <glyph glyph-name="l" unicode="l" horiz-adv-x="501" 
d="M588 1481l-260 -1481h-154l260 1481h154z" />
    <glyph glyph-name="m" unicode="m" horiz-adv-x="1925" 
d="M893 0l102 580q13 92 5 154.5t-40.5 100.5t-73.5 54t-93 16q-37 0 -77.5 -10.5t-89 -39t-90 -72.5t-77.5 -118.5t-53 -168.5l-87 -496h-153l178 1020h154l-37 -215q58 116 165.5 176.5t219.5 60.5q37 0 70 -5t72 -21t70 -41t57 -69.5t38 -102.5q42 69 94 118t106 74
t102.5 36t98.5 11q89 0 155.5 -24.5t113.5 -79.5t59.5 -143t-6.5 -215l-102 -580h-154l102 580q13 92 5 154.5t-40.5 100.5t-73.5 54t-93 16q-36 0 -74.5 -9.5t-86.5 -36.5t-89 -69t-77.5 -114t-55.5 -164l-90 -512h-154z" />
    <glyph glyph-name="n" unicode="n" 
d="M930 0l102 580q13 92 4 154.5t-43 100.5t-75.5 54t-92.5 16q-37 0 -80.5 -10.5t-97 -39t-99.5 -72.5t-85.5 -118.5t-56.5 -168.5l-87 -496h-153l178 1020h154l-37 -217q39 79 106.5 134t142 80t152.5 25q86 0 152.5 -25t114.5 -80.5t62 -143.5t-5 -213l-103 -580h-153z
" />
    <glyph glyph-name="o" unicode="o" horiz-adv-x="1243" 
d="M174 510q24 144 118 266.5t231 194t282 71.5q146 0 256 -72t159 -194t25 -266q-27 -145 -121 -268t-229.5 -194t-280.5 -71q-108 0 -199.5 42t-151 113t-84.5 170t-5 208zM328 508q-29 -164 62.5 -278.5t248.5 -114.5q159 0 291.5 114.5t161.5 278.5t-63.5 280.5
t-250.5 116.5q-156 0 -288.5 -116.5t-161.5 -280.5z" />
    <glyph glyph-name="p" unicode="p" horiz-adv-x="1320" 
d="M82 -459l262 1479h154l-35 -203q169 225 446 225q91 0 166.5 -27t127 -75.5t85 -115.5t40.5 -146t-7 -168q-18 -109 -71.5 -206.5t-131.5 -170t-182 -114.5t-217 -42q-274 0 -365 226l-118 -662h-154zM1167 510q30 167 -50.5 281t-248.5 114q-167 0 -298.5 -109.5
t-163.5 -285.5q-29 -176 63.5 -285.5t259.5 -109.5q169 0 288.5 112.5t149.5 282.5z" />
    <glyph glyph-name="q" unicode="q" horiz-adv-x="1318" 
d="M1333 1020l-262 -1479h-153l118 662q-175 -226 -446 -226q-151 0 -255 72.5t-144 193t-15 267.5q20 110 73.5 207t131.5 169t181.5 114t217.5 42q274 0 365 -225l35 203h153zM330 510q-30 -169 50 -282t249 -113q167 0 300.5 110t162.5 285q16 87 -2 161.5t-62.5 125.5
t-111.5 79.5t-148 28.5q-168 0 -288 -114t-150 -281z" />
    <glyph glyph-name="r" unicode="r" horiz-adv-x="722" 
d="M498 1020l-43 -246q55 126 145 197t205 71q40 0 80 -16l-27 -152q-38 21 -92 21q-43 0 -85.5 -15t-88 -52t-83.5 -93t-70.5 -145t-51.5 -201l-68 -389h-153l178 1020h154z" />
    <glyph glyph-name="s" unicode="s" horiz-adv-x="884" 
d="M903 821l-145 -33q-19 119 -142 119q-86 0 -145 -46.5t-70 -110.5q-17 -102 115 -148l143 -49q122 -41 168 -113.5t27 -165.5q-24 -134 -144 -215.5t-268 -81.5q-135 0 -227.5 64.5t-105.5 179.5l141 35q10 -65 70 -104t147 -39q88 0 153.5 44.5t77.5 116.5q10 57 -19 91
t-97 59l-138 47q-231 79 -198 272q21 126 128 212.5t257 86.5q69 0 127 -22t99 -73.5t46 -125.5z" />
    <glyph glyph-name="t" unicode="t" horiz-adv-x="829" 
d="M522 897l-106 -590q-19 -101 18 -146.5t101 -45.5q65 0 112.5 35t57.5 98q8 39 0 74h141q4 -12 4 -60l-4 -33q-19 -110 -110 -181t-228 -71q-48 0 -88 9.5t-77 33t-57.5 62t-29.5 97t8 138.5l105 580h-172l20 123h172l90 309h117l-53 -309h331l-20 -123h-332z" />
    <glyph glyph-name="u" unicode="u" 
d="M481 1020l-102 -580q-13 -94 -4.5 -157t42 -100t74.5 -52.5t93 -15.5q39 0 82 10t96.5 38.5t98.5 72.5t84.5 118.5t58.5 169.5l88 496h153l-178 -1020h-154l37 217q-63 -118 -171 -179t-230 -61q-86 0 -152.5 25.5t-114.5 81t-62 143.5t5 213l103 580h153z" />
    <glyph glyph-name="v" unicode="v" horiz-adv-x="1083" 
d="M1208 1020l-579 -1020h-174l-224 1020h162l172 -864l482 864h161z" />
    <glyph glyph-name="w" unicode="w" horiz-adv-x="1691" 
d="M395 1020l156 -823l401 788h133l121 -788l447 823h162l-562 -1020h-149l-125 768l-391 -768h-148l-207 1020h162z" />
    <glyph glyph-name="x" unicode="x" horiz-adv-x="1155" 
d="M653 442l-444 -442h-184v14l544 521l-325 471v14h176l266 -399l406 399h176v-14l-494 -471l356 -521v-14h-184z" />
    <glyph glyph-name="y" unicode="y" horiz-adv-x="1107" 
d="M592 188l475 832h178l-891 -1479h-155l280 473l-262 1006h176z" />
    <glyph glyph-name="z" unicode="z" horiz-adv-x="1130" 
d="M1067 0h-1006l17 102l885 793h-699l23 125h911l-16 -102l-889 -793h792z" />
    <glyph glyph-name="braceleft" unicode="{" horiz-adv-x="618" 
d="M188 510l19 98q34 3 42 4t35.5 5t36 8t27 11.5t26 17.5t16 24.5t11.5 32.5q2 14 2 49q-1 35 -29 224.5t-12 281.5q16 86 66 145t116.5 84t145.5 25q22 0 44.5 -2t42.5 -5t28 -4l-17 -110q-51 8 -112 8q-68 0 -112.5 -39t-57.5 -117q-9 -55 -1 -129t21.5 -135t21 -133.5
t-2.5 -124.5q-24 -133 -156 -170q118 -40 94 -170q-10 -52 -43 -124.5t-68 -133.5t-68 -135t-42 -129q-26 -156 111 -156q59 0 114 8l-18 -110q-8 -1 -30 -3.5t-45.5 -4.5t-45.5 -2q-123 0 -191.5 63t-45.5 191q12 70 53 160t94.5 190.5t75.5 154.5q12 31 14 50
q4 25 -1.5 42t-17 27t-33.5 16.5t-43.5 9.5t-52.5 6q-8 1 -12 1z" />
    <glyph glyph-name="bar" unicode="|" horiz-adv-x="442" 
d="M72 -459l360 2026h131l-360 -2026h-131z" />
    <glyph glyph-name="braceright" unicode="}" horiz-adv-x="618" 
d="M627 608l-19 -98q-102 -10 -133 -24q-50 -23 -61 -78q-2 -14 -2 -50q1 -35 29 -224t12 -281q-16 -86 -66 -145t-116.5 -84t-145.5 -25q-22 0 -44 2t-43 4.5t-28 3.5l17 110q51 -8 112 -8q68 0 112.5 39t57.5 117q9 55 1 129t-21.5 135t-21 133.5t2.5 124.5
q24 133 156 170q-118 40 -94 170q10 52 43 124.5t68 133.5t68 135t42 129q26 156 -111 156q-59 0 -114 -8l18 110q1 0 46.5 5.5t74.5 5.5q124 0 192.5 -63.5t45.5 -190.5q-12 -70 -53 -160t-95 -191t-76 -155q-12 -32 -14 -49q-5 -25 2 -42.5t16.5 -27.5t36 -17t42 -9
t54.5 -6q6 -1 9 -1z" />
    <glyph glyph-name="asciitilde" unicode="~" horiz-adv-x="1296" 
d="M1198 758l68 -90q-50 -94 -131.5 -147.5t-178.5 -53.5q-50 0 -96 20t-83 48.5t-72.5 57.5t-79 49t-88.5 20q-63 0 -122.5 -39.5t-90.5 -108.5l-68 90q38 87 117.5 145t183.5 58q42 0 87 -17.5t71 -34.5t80 -55q43 -32 63 -45.5t54 -28t65 -14.5q130 0 221 146z" />
    <glyph glyph-name="uni00A0" unicode="&#xa0;" horiz-adv-x="557" 
 />
    <glyph glyph-name="exclamdown" unicode="&#xa1;" horiz-adv-x="471" 
d="M279 920q11 50 51.5 84t91.5 34t79.5 -34.5t18.5 -83.5q-11 -52 -51 -87.5t-90 -35.5q-51 0 -80.5 36t-19.5 87zM287 582h100l-98 -748l-45 -252h-170l45 252z" />
    <glyph glyph-name="cent" unicode="&#xa2;" horiz-adv-x="1144" 
d="M190 510q22 123 83.5 223t149.5 165t195 101.5t224 40.5l73 197h99l-76 -201q156 -27 262 -114l-92 -107q-88 75 -219 88l-285 -780q39 -8 96 -8q155 0 299 90l56 -107q-190 -121 -383 -121q-64 3 -115 11l-76 -209h-98l84 231q-157 52 -234.5 182t-42.5 318zM344 510
q-23 -124 23 -218t151 -142l273 753q-171 -17 -294.5 -125t-152.5 -268z" />
    <glyph glyph-name="sterling" unicode="&#xa3;" horiz-adv-x="1282" 
d="M1188 0h-1108l20 131q170 0 268.5 75.5t123.5 215.5q13 84 4 158h-263l17 96h229q-8 53 -19 111.5t-16.5 86.5t-11.5 70t-4.5 61.5t4.5 61.5q32 176 185 282.5t354 106.5q75 0 136.5 -14.5t102 -39.5t70.5 -58t42.5 -69.5t18 -75.5t-3.5 -75h-153q18 82 -44 138.5
t-190 56.5q-142 0 -239 -68t-117 -184q-4 -23 -5 -46.5t2.5 -54t6 -50t10 -62t10.5 -63.5l19 -115h395l-16 -96h-363q9 -90 -4 -164q-35 -214 -217 -285l-2 -6q82 6 318 6h460z" />
    <glyph glyph-name="currency" unicode="&#xa4;" horiz-adv-x="1071" 
d="M608 418q98 0 183 73t102 175q20 103 -38.5 176t-156.5 73q-101 0 -183.5 -72t-102.5 -177q-17 -103 39 -175.5t157 -72.5zM588 301q-119 0 -195 61l-123 -102l-77 94l120 103q-49 93 -28 211q17 104 98 200l-80 99l111 94l78 -96q106 69 227 69q113 0 201 -69l110 96
l80 -94l-113 -99q43 -103 25 -200q-20 -114 -104 -211l81 -103l-112 -94l-86 102q-94 -61 -213 -61z" />
    <glyph glyph-name="yen" unicode="&#xa5;" horiz-adv-x="1380" 
d="M1190 201h-387l-33 -201h-158l33 201h-389l25 135h389l26 162h-389l25 135h362l-372 788v13h176l317 -705h2l567 705h177v-13l-656 -788h361l-25 -135h-387l-27 -162h387z" />
    <glyph glyph-name="brokenbar" unicode="&#xa6;" horiz-adv-x="466" 
d="M84 -459l154 854h131l-154 -854h-131zM291 713l153 856h131l-153 -856h-131z" />
    <glyph glyph-name="section" unicode="&#xa7;" horiz-adv-x="1177" 
d="M721 328q110 25 193.5 87t95.5 132q21 119 -95 172l-63 22q-9 3 -172 54q-117 -26 -195.5 -84t-95.5 -131q-10 -55 2.5 -93t62.5 -65.5t81.5 -39t116.5 -34.5q46 -13 69 -20zM864 270q233 -105 197 -286q-25 -142 -173.5 -234t-361.5 -92q-301 0 -450 149l76 109
q170 -129 393 -129q150 0 245.5 53t112.5 142q12 65 -47 115.5t-170 84.5l-203 64q-156 51 -216.5 133.5t-41.5 181.5q18 101 100 177.5t207 115.5q-67 31 -112 70t-63 75t-25 73.5t2 66.5q24 141 171 229t339 88q228 0 403 -96l-82 -117q-157 84 -331 84
q-140 0 -230.5 -45.5t-107.5 -138.5q-14 -126 192 -195l287 -90q113 -46 163.5 -117t32.5 -176q-17 -101 -99 -178.5t-208 -116.5z" />
    <glyph glyph-name="dieresis" unicode="&#xa8;" horiz-adv-x="1177" 
d="M500 1323q7 47 42.5 77t80.5 30q47 0 71.5 -30t16.5 -77q-8 -43 -44 -73.5t-83 -30.5q-44 0 -68 30.5t-16 73.5zM934 1323q7 47 42.5 77t80.5 30t70 -30t18 -77q-7 -43 -45 -73.5t-82 -30.5t-68 30.5t-16 73.5z" />
    <glyph glyph-name="copyright" unicode="&#xa9;" horiz-adv-x="1662" 
d="M231 717q27 151 107.5 287.5t194 235.5t259 157.5t295.5 58.5q151 0 275 -58.5t202.5 -157.5t110.5 -235.5t6 -287.5q-36 -201 -161 -371t-310 -269.5t-385 -99.5q-201 0 -350 99.5t-214 269t-30 371.5zM332 717q-32 -174 24.5 -321t186 -232.5t301.5 -85.5
q173 0 331 85.5t265.5 232t140.5 321.5q32 174 -24.5 321t-186 232.5t-301.5 85.5q-173 0 -331 -85.5t-265.5 -232t-140.5 -321.5zM936 444q57 0 102 15.5t101 46.5l41 -84q-75 -47 -132 -68.5t-130 -21.5q-182 0 -279.5 111t-67.5 268q30 160 165 271.5t315 111.5
q73 0 123 -21.5t110 -66.5l-70 -86q-46 33 -86 48t-98 15q-138 0 -225.5 -80.5t-106.5 -189.5q-9 -51 0.5 -98t36.5 -85.5t79 -62t122 -23.5z" />
    <glyph glyph-name="ordfeminine" unicode="&#xaa;" horiz-adv-x="1038" 
d="M350 1102q25 148 136 249t262 101q161 0 223 -127l20 111h121l-121 -674h-121l19 115q-51 -59 -124.5 -94t-146.5 -35q-146 0 -222 102.5t-46 251.5zM471 1102q-19 -105 31.5 -174.5t154.5 -69.5q101 0 177 65.5t96 174.5q19 105 -33.5 174t-157.5 69t-177.5 -69
t-90.5 -170zM256 465l16 100h676l-16 -100h-676z" />
    <glyph glyph-name="guillemotleft" unicode="&#xab;" horiz-adv-x="1101" 
d="M203 592l4 22l446 426l82 -75l-379 -361l250 -358l-106 -74zM623 592l4 22l446 426l82 -75l-379 -361l250 -358l-106 -74z" />
    <glyph glyph-name="logicalnot" unicode="&#xac;" horiz-adv-x="1267" 
d="M276 791l25 137h967l-92 -506h-138l68 369h-830z" />
    <glyph glyph-name="uni00AD" unicode="&#xad;" horiz-adv-x="1132" 
d="M246 594l26 141h846l-26 -141h-846z" />
    <glyph glyph-name="registered" unicode="&#xae;" horiz-adv-x="1662" 
d="M1174 356h-132q-73 216 -96 277h-127l-49 -277h-115l129 731h289q101 0 149.5 -68t30.5 -165q-14 -81 -64.5 -137t-131.5 -76zM836 727h159q53 0 92 36t50 91q11 57 -15.5 97t-79.5 40h-159zM231 717q27 151 107.5 287.5t194 235.5t259 157.5t295.5 58.5q151 0 275 -58.5
t202.5 -157.5t110.5 -235.5t6 -287.5q-36 -201 -161 -371t-310 -269.5t-385 -99.5q-201 0 -350 99.5t-214 269t-30 371.5zM332 717q-32 -174 24.5 -321t186 -232.5t301.5 -85.5q173 0 331 85.5t265.5 232t140.5 321.5q32 174 -24.5 321t-186 232.5t-301.5 85.5
q-173 0 -331 -85.5t-265.5 -232t-140.5 -321.5z" />
    <glyph glyph-name="macron" unicode="&#xaf;" horiz-adv-x="1073" 
d="M510 1384h541l-23 -122h-541z" />
    <glyph glyph-name="degree" unicode="&#xb0;" horiz-adv-x="864" 
d="M297 1143q25 141 141 239.5t256 98.5q142 0 221 -98t54 -240q-25 -140 -140 -238t-256 -98q-139 0 -220 98t-56 238zM418 1143q-17 -92 35 -157.5t141 -65.5q91 0 165 65t91 158q17 97 -33.5 162t-142.5 65q-89 0 -164 -66t-92 -161z" />
    <glyph glyph-name="plusminus" unicode="&#xb1;" horiz-adv-x="1261" 
d="M782 463h-135l58 328h-400l25 135h399l57 327h136l-58 -327h398l-25 -135h-397zM1128 186h-931l22 131h932z" />
    <glyph glyph-name="twosuperior" unicode="&#xb2;" horiz-adv-x="669" 
d="M657 1194l-245 -180h381l-15 -86h-538v63l356 266q111 83 129 175q12 65 -21 98t-102 33q-75 0 -116.5 -34t-53.5 -83h-110q6 35 26.5 70t55 67t90 52t122.5 20q116 0 173.5 -62.5t39.5 -158.5q-22 -128 -172 -240z" />
    <glyph glyph-name="threesuperior" unicode="&#xb3;" horiz-adv-x="661" 
d="M229 997l66 70q71 -68 182 -68q87 0 142.5 43.5t68.5 108.5q13 69 -29.5 112.5t-111.5 43.5q-64 0 -111 -25l-37 55l289 228h-338l12 82h496l-8 -58l-264 -213q106 0 166 -65t43 -162q-20 -103 -109 -170.5t-225 -67.5q-151 0 -232 86z" />
    <glyph glyph-name="acute" unicode="&#xb4;" horiz-adv-x="956" 
d="M707 1481h176l-281 -307h-133z" />
    <glyph glyph-name="mu" unicode="&#xb5;" horiz-adv-x="1216" 
d="M317 70l-67 -369h-156l236 1319h153l-96 -533q-28 -202 22 -288t175 -86q38 0 81.5 10t98 39t101 72.5t85.5 119t56 170.5l88 496h153l-180 -1020h-154l39 217q-63 -118 -171.5 -179t-227.5 -61q-173 0 -236 93z" />
    <glyph glyph-name="paragraph" unicode="&#xb6;" horiz-adv-x="1290" 
d="M647 1434h311l-4 -25q-32 -22 -62.5 -68.5t-41.5 -111.5l-268 -1516h-123l190 1073h-117q-135 0 -211 94.5t-51 229.5t133.5 229.5t243.5 94.5zM1094 1231l-269 -1518h-123l263 1481q23 127 99 194.5t183 67.5q112 0 161.5 -55t35.5 -144l-6 -28q-11 -32 -25 -55h-115
q11 18 18 39.5t7 27.5q7 46 -19 72t-75 26q-50 0 -87.5 -27.5t-47.5 -80.5z" />
    <glyph glyph-name="periodcentered" unicode="&#xb7;" horiz-adv-x="512" 
d="M242 561q7 47 45.5 80t85.5 33t74.5 -33t19.5 -80q-7 -47 -46 -79.5t-87 -32.5q-47 0 -73.5 32.5t-18.5 79.5z" />
    <glyph glyph-name="cedilla" unicode="&#xb8;" horiz-adv-x="931" 
d="M508 12l2 17h70q71 -56 93.5 -124.5t10.5 -127.5q-19 -114 -109 -175t-192 -61q-97 0 -156.5 62t-64.5 157l80 43q23 -145 157 -145q59 0 110 39t64 108q9 48 -5.5 102.5t-59.5 104.5z" />
    <glyph glyph-name="onesuperior" unicode="&#xb9;" horiz-adv-x="415" 
d="M309 1452l-12 82l256 113h57l-125 -719h-106l104 598z" />
    <glyph glyph-name="ordmasculine" unicode="&#xba;" horiz-adv-x="1015" 
d="M348 1096q25 144 148 248t266 104q146 0 231 -105t60 -247q-25 -146 -148 -249.5t-268 -103.5t-229.5 102.5t-59.5 250.5zM469 1094q-17 -99 36.5 -169.5t149.5 -70.5q95 0 177.5 71t99.5 169q20 98 -37.5 170.5t-153.5 72.5q-94 0 -172 -71t-100 -172zM254 465l16 100
h674l-16 -100h-674z" />
    <glyph glyph-name="guillemotright" unicode="&#xbb;" horiz-adv-x="1101" 
d="M1108 614l-4 -22l-445 -420l-81 74l376 358l-247 361l106 75zM688 614l-4 -22l-444 -420l-82 74l377 358l-248 361l106 75z" />
    <glyph glyph-name="onequarter" unicode="&#xbc;" horiz-adv-x="1654" 
d="M1702 1507l-1407 -1589h-133l1403 1589h137zM317 1239l-12 82l256 113h57l-126 -719h-107l107 598zM1108 274h258l51 283zM1352 193h-375l8 57l494 469h69l-78 -445h154l-14 -81h-154l-33 -193h-104z" />
    <glyph glyph-name="onehalf" unicode="&#xbd;" horiz-adv-x="1656" 
d="M1640 1507l-1407 -1589h-133l1403 1589h137zM322 1239l-13 82l256 113h58l-127 -719h-107l107 598zM1458 266l-248 -180h383l-14 -86h-539l2 63l355 267q111 83 129 174q10 65 -23 98t-102 33q-75 0 -116.5 -34t-53.5 -83h-111q6 35 27 70t56 67t91 52t123 20
q116 0 173.5 -62.5t39.5 -158.5q-23 -133 -172 -240z" />
    <glyph glyph-name="threequarters" unicode="&#xbe;" horiz-adv-x="1761" 
d="M1812 1507l-1409 -1589h-133l1405 1589h137zM1217 274h258l51 283zM1460 193h-375l11 57l493 469h70l-80 -445h154l-15 -81h-153l-31 -193h-104zM223 784l66 70q68 -68 182 -68q87 0 142.5 43.5t68.5 108.5q13 69 -29.5 112.5t-111.5 43.5q-64 0 -115 -25l-33 55l289 228
h-338l12 82h496l-8 -58l-264 -213q106 0 164.5 -65t41.5 -162q-18 -103 -106.5 -170.5t-224.5 -67.5q-154 0 -232 86z" />
    <glyph glyph-name="questiondown" unicode="&#xbf;" horiz-adv-x="1044" 
d="M612 582h144l-21 -99q-12 -60 -41 -92.5t-112 -75.5q-77 -42 -129.5 -76t-104.5 -78.5t-83.5 -96t-43.5 -111.5q-23 -116 50.5 -186t215.5 -70q136 0 220 58.5t102 150.5q6 48 6 65h141q6 -46 -2 -86q-9 -54 -43.5 -109t-93 -104.5t-152.5 -80.5t-208 -31
q-200 0 -315.5 106.5t-84.5 282.5q9 50 31 98t48.5 85t66.5 75.5t71 63.5t77.5 55t71.5 44.5t66 37.5q69 37 87.5 57t25.5 67q5 35 10 50zM864 920q-11 -52 -52 -87.5t-91 -35.5q-51 0 -79.5 36t-18.5 87q11 50 51 84t90 34q51 0 80.5 -34.5t19.5 -83.5z" />
    <glyph glyph-name="Agrave" unicode="&#xc0;" horiz-adv-x="1376" 
d="M436 438h656l-179 842zM1116 307h-751l-170 -307h-166l817 1434h188l314 -1434h-164zM788 1851h166l115 -284h-131z" />
    <glyph glyph-name="Aacute" unicode="&#xc1;" horiz-adv-x="1376" 
d="M436 438h656l-179 842zM1116 307h-751l-170 -307h-166l817 1434h188l314 -1434h-164zM1073 1851h168l-252 -284h-131z" />
    <glyph glyph-name="Acircumflex" unicode="&#xc2;" horiz-adv-x="1376" 
d="M436 438h656l-179 842zM1116 307h-751l-170 -307h-166l817 1434h188l314 -1434h-164zM932 1851h166l168 -284h-121l-146 196l-215 -196h-120z" />
    <glyph glyph-name="Atilde" unicode="&#xc3;" horiz-adv-x="1376" 
d="M436 438h656l-179 842zM1116 307h-751l-170 -307h-166l817 1434h188l314 -1434h-164zM1106 1612q-47 0 -129 43t-117 43t-57 -20.5t-60 -80.5l-69 21q49 106 93.5 148t106.5 42q46 0 128.5 -42t115.5 -42q36 0 60 21t57 78l70 -21q-47 -104 -92.5 -147t-106.5 -43z" />
    <glyph glyph-name="Adieresis" unicode="&#xc4;" horiz-adv-x="1376" 
d="M436 438h656l-179 842zM1116 307h-751l-170 -307h-166l817 1434h188l314 -1434h-164zM664 1692q8 44 43 75t79 31q47 0 71.5 -30.5t16.5 -75.5t-43.5 -75t-82.5 -30q-44 0 -68 30t-16 75zM1098 1692q8 44 43.5 75t79.5 31t70 -31t18 -75q-7 -44 -44.5 -74.5t-82.5 -30.5
q-44 0 -68 30t-16 75z" />
    <glyph glyph-name="Aring" unicode="&#xc5;" horiz-adv-x="1376" 
d="M436 438h656l-179 842zM1116 307h-751l-170 -307h-166l817 1434h188l314 -1434h-164zM791 1733q17 85 84 137.5t153 52.5q88 0 137.5 -52.5t32.5 -137.5t-83.5 -138t-153.5 -53t-137 53.5t-33 137.5zM874 1733q-10 -50 18.5 -82.5t80.5 -32.5q51 0 91 32t50 83
q10 50 -19 81t-81 31t-91 -31t-49 -81z" />
    <glyph glyph-name="AE" unicode="&#xc6;" horiz-adv-x="1884" 
d="M707 750h348l98 553h-41zM1102 131h698l-20 -131h-856l108 618h-418l-452 -618h-172l1059 1434h983l-23 -131h-698l-99 -553h621l-23 -132h-620z" />
    <glyph glyph-name="Ccedilla" unicode="&#xc7;" horiz-adv-x="1409" 
d="M225 717q27 150 104 284t192 235t273 160.5t336 59.5q147 0 252 -39.5t191 -113.5l-84 -119q-153 129 -391 129q-138 0 -262 -48t-214.5 -129.5t-151.5 -189.5t-83 -229q-21 -122 2 -230t84.5 -189.5t168.5 -129t245 -47.5q239 0 436 127l41 -121q-106 -70 -218 -108
t-253 -42q71 -92 51 -200q-19 -114 -109 -175t-192 -61q-97 0 -156.5 62t-64.5 157l80 43q23 -145 157 -145q59 0 110.5 39t64.5 108q16 92 -41 175q-128 10 -232.5 53t-174 111.5t-115 159t-54.5 194.5t8 219z" />
    <glyph glyph-name="Egrave" unicode="&#xc8;" horiz-adv-x="1206" 
d="M1122 131l-20 -131h-891l252 1434h891l-23 -131h-733l-96 -535h641l-23 -133h-641l-90 -504h733zM725 1851h166l115 -284h-132z" />
    <glyph glyph-name="Eacute" unicode="&#xc9;" horiz-adv-x="1206" 
d="M1122 131l-20 -131h-891l252 1434h891l-23 -131h-733l-96 -535h641l-23 -133h-641l-90 -504h733zM1016 1851h168l-252 -284h-131z" />
    <glyph glyph-name="Ecircumflex" unicode="&#xca;" horiz-adv-x="1206" 
d="M1122 131l-20 -131h-891l252 1434h891l-23 -131h-733l-96 -535h641l-23 -133h-641l-90 -504h733zM866 1851h166l168 -284h-121l-145 196l-215 -196h-121z" />
    <glyph glyph-name="Edieresis" unicode="&#xcb;" horiz-adv-x="1206" 
d="M1122 131l-20 -131h-891l252 1434h891l-23 -131h-733l-96 -535h641l-23 -133h-641l-90 -504h733zM600 1692q8 44 43.5 75t79.5 31q47 0 71.5 -30.5t16.5 -75.5t-44 -75t-83 -30q-44 0 -68 30t-16 75zM1034 1692q8 44 43.5 75t79.5 31t70 -31t18 -75q-7 -44 -44.5 -74.5
t-82.5 -30.5q-44 0 -68 30t-16 75z" />
    <glyph glyph-name="Igrave" unicode="&#xcc;" horiz-adv-x="579" 
d="M621 1434l-252 -1434h-158l252 1434h158zM385 1851h166l115 -284h-131z" />
    <glyph glyph-name="Iacute" unicode="&#xcd;" horiz-adv-x="579" 
d="M621 1434l-252 -1434h-158l252 1434h158zM682 1851h168l-252 -284h-131z" />
    <glyph glyph-name="Icircumflex" unicode="&#xce;" horiz-adv-x="579" 
d="M621 1434l-252 -1434h-158l252 1434h158zM535 1851h165l168 -284h-120l-146 196l-215 -196h-121z" />
    <glyph glyph-name="Idieresis" unicode="&#xcf;" horiz-adv-x="579" 
d="M621 1434l-252 -1434h-158l252 1434h158zM268 1692q8 44 43.5 75t79.5 31q47 0 71.5 -30.5t16.5 -75.5t-44 -75t-83 -30q-44 0 -68 30t-16 75zM702 1692q8 44 43.5 75t79.5 31t70 -31t18 -75q-7 -44 -44.5 -74.5t-82.5 -30.5q-44 0 -68 30t-16 75z" />
    <glyph glyph-name="Eth" unicode="&#xd0;" horiz-adv-x="1484" 
d="M160 649l20 115h164l117 670h428q170 0 301.5 -56.5t209 -154t106 -228t1.5 -278.5t-101.5 -278.5t-184.5 -228t-261 -154t-321 -56.5h-428l113 649h-164zM1346 717q15 97 7.5 184.5t-46.5 161t-98.5 127t-148 83.5t-194.5 30h-270l-94 -539h358l-20 -115h-359l-94 -518
h270q134 0 253.5 46.5t207.5 126t147.5 186t80.5 227.5z" />
    <glyph glyph-name="Ntilde" unicode="&#xd1;" horiz-adv-x="1546" 
d="M1217 0l-646 1149l-202 -1149h-158l252 1434h121l643 -1145l203 1145h157l-252 -1434h-118zM1186 1612q-47 0 -129 43t-117 43t-57 -20.5t-60 -80.5l-69 21q49 106 93.5 148t106.5 42q46 0 128.5 -42t115.5 -42q36 0 60 21t57 78l69 -21q-47 -104 -92 -147t-106 -43z" />
    <glyph glyph-name="Ograve" unicode="&#xd2;" horiz-adv-x="1687" 
d="M225 717q35 200 165.5 370.5t319.5 269.5t390 99q151 0 278 -58.5t208.5 -157.5t116.5 -236t9 -287q-27 -150 -110 -287t-200.5 -236.5t-265.5 -158t-298 -58.5q-151 0 -278 58.5t-209 158t-117 236.5t-9 287zM387 717q-22 -123 4 -234t90.5 -190t163.5 -125.5t217 -46.5
q242 0 442 172.5t246 423.5q22 124 -5 234.5t-91.5 189.5t-163.5 125.5t-217 46.5q-157 0 -304 -78t-250 -215.5t-132 -302.5zM874 1851h166l113 -284h-131z" />
    <glyph glyph-name="Oacute" unicode="&#xd3;" horiz-adv-x="1687" 
d="M225 717q35 200 165.5 370.5t319.5 269.5t390 99q151 0 278 -58.5t208.5 -157.5t116.5 -236t9 -287q-27 -150 -110 -287t-200.5 -236.5t-265.5 -158t-298 -58.5q-151 0 -278 58.5t-209 158t-117 236.5t-9 287zM387 717q-22 -123 4 -234t90.5 -190t163.5 -125.5t217 -46.5
q242 0 442 172.5t246 423.5q22 124 -5 234.5t-91.5 189.5t-163.5 125.5t-217 46.5q-157 0 -304 -78t-250 -215.5t-132 -302.5zM1286 1851h168l-254 -284h-131z" />
    <glyph glyph-name="Ocircumflex" unicode="&#xd4;" horiz-adv-x="1687" 
d="M225 717q35 200 165.5 370.5t319.5 269.5t390 99q151 0 278 -58.5t208.5 -157.5t116.5 -236t9 -287q-27 -150 -110 -287t-200.5 -236.5t-265.5 -158t-298 -58.5q-151 0 -278 58.5t-209 158t-117 236.5t-9 287zM387 717q-22 -123 4 -234t90.5 -190t163.5 -125.5t217 -46.5
q242 0 442 172.5t246 423.5q22 124 -5 234.5t-91.5 189.5t-163.5 125.5t-217 46.5q-157 0 -304 -78t-250 -215.5t-132 -302.5zM1087 1851h166l166 -284h-121l-143 196l-217 -196h-121z" />
    <glyph glyph-name="Otilde" unicode="&#xd5;" horiz-adv-x="1687" 
d="M225 717q35 200 165.5 370.5t319.5 269.5t390 99q151 0 278 -58.5t208.5 -157.5t116.5 -236t9 -287q-27 -150 -110 -287t-200.5 -236.5t-265.5 -158t-298 -58.5q-151 0 -278 58.5t-209 158t-117 236.5t-9 287zM387 717q-22 -123 4 -234t90.5 -190t163.5 -125.5t217 -46.5
q242 0 442 172.5t246 423.5q22 124 -5 234.5t-91.5 189.5t-163.5 125.5t-217 46.5q-157 0 -304 -78t-250 -215.5t-132 -302.5zM1262 1612q-47 0 -129.5 43t-118.5 43q-35 0 -58 -21t-57 -80l-70 21q50 106 94 148t105 42q46 0 129 -42t117 -42q36 0 60 21t57 78l67 -21
q-47 -105 -91.5 -147.5t-104.5 -42.5z" />
    <glyph glyph-name="Odieresis" unicode="&#xd6;" horiz-adv-x="1687" 
d="M225 717q35 200 165.5 370.5t319.5 269.5t390 99q151 0 278 -58.5t208.5 -157.5t116.5 -236t9 -287q-27 -150 -110 -287t-200.5 -236.5t-265.5 -158t-298 -58.5q-151 0 -278 58.5t-209 158t-117 236.5t-9 287zM387 717q-22 -123 4 -234t90.5 -190t163.5 -125.5t217 -46.5
q242 0 442 172.5t246 423.5q22 124 -5 234.5t-91.5 189.5t-163.5 125.5t-217 46.5q-157 0 -304 -78t-250 -215.5t-132 -302.5zM817 1692q8 44 43.5 75t79.5 31q47 0 73 -31t15 -75q-6 -44 -42 -74.5t-83 -30.5q-44 0 -69 30.5t-17 74.5zM1251 1692q8 44 43.5 75t79.5 31
q45 0 71.5 -31t16.5 -75q-6 -44 -43 -74.5t-82 -30.5q-44 0 -69 30.5t-17 74.5z" />
    <glyph glyph-name="multiply" unicode="&#xd7;" horiz-adv-x="1038" 
d="M721 623l246 -297l-113 -97l-246 297l-348 -297l-78 97l348 297l-241 297l112 94l242 -295l350 295l80 -94z" />
    <glyph glyph-name="Oslash" unicode="&#xd8;" horiz-adv-x="1685" 
d="M381 -82l-90 70l121 141q-119 105 -169 256.5t-18 331.5q27 150 110.5 287t201 236t266 157.5t299.5 58.5q198 0 350 -100l139 162l88 -70l-137 -162q108 -105 154 -252.5t16 -316.5q-27 -150 -110 -287t-200.5 -236.5t-265.5 -158t-298 -58.5q-191 0 -332 84zM387 717
q-26 -139 9.5 -260.5t121.5 -202.5l832 981q-121 78 -275 78q-157 0 -305 -78.5t-251 -216t-132 -301.5zM1550 717q23 133 -7.5 247t-106.5 195l-826 -975q105 -63 252 -63q242 0 442 172.5t246 423.5z" />
    <glyph glyph-name="Ugrave" unicode="&#xd9;" horiz-adv-x="1497" 
d="M1403 1434h156l-160 -910q-32 -174 -131 -300t-233.5 -186.5t-289.5 -60.5q-115 0 -209.5 35.5t-160 102.5t-91 172.5t-1.5 236.5l159 910h158l-160 -910q-18 -98 0 -176t65 -126.5t114 -74.5t149 -26q111 0 208 44t169 137t96 222zM834 1851h165l113 -284h-131z" />
    <glyph glyph-name="Uacute" unicode="&#xda;" horiz-adv-x="1497" 
d="M1403 1434h156l-160 -910q-32 -174 -131 -300t-233.5 -186.5t-289.5 -60.5q-115 0 -209.5 35.5t-160 102.5t-91 172.5t-1.5 236.5l159 910h158l-160 -910q-18 -98 0 -176t65 -126.5t114 -74.5t149 -26q111 0 208 44t169 137t96 222zM1135 1851h168l-254 -284h-131z" />
    <glyph glyph-name="Ucircumflex" unicode="&#xdb;" horiz-adv-x="1497" 
d="M1403 1434h156l-160 -910q-32 -174 -131 -300t-233.5 -186.5t-289.5 -60.5q-115 0 -209.5 35.5t-160 102.5t-91 172.5t-1.5 236.5l159 910h158l-160 -910q-18 -98 0 -176t65 -126.5t114 -74.5t149 -26q111 0 208 44t169 137t96 222zM993 1851h166l166 -284h-121l-145 196
l-215 -196h-121z" />
    <glyph glyph-name="Udieresis" unicode="&#xdc;" horiz-adv-x="1497" 
d="M1403 1434h156l-160 -910q-32 -174 -131 -300t-233.5 -186.5t-289.5 -60.5q-115 0 -209.5 35.5t-160 102.5t-91 172.5t-1.5 236.5l159 910h158l-160 -910q-18 -98 0 -176t65 -126.5t114 -74.5t149 -26q111 0 208 44t169 137t96 222zM725 1692q8 44 43.5 75t79.5 31
q47 0 71.5 -30.5t16.5 -75.5t-43 -75t-82 -30q-44 0 -69 30.5t-17 74.5zM1159 1692q8 44 43.5 75t79.5 31t70 -31t18 -75q-7 -44 -44 -74.5t-81 -30.5t-69 30.5t-17 74.5z" />
    <glyph glyph-name="Yacute" unicode="&#xdd;" horiz-adv-x="1345" 
d="M799 729h2l567 705h176l-2 -13l-688 -829l-102 -592h-158l102 592l-393 829l2 13h176zM1057 1851h168l-252 -284h-131z" />
    <glyph glyph-name="Thorn" unicode="&#xde;" horiz-adv-x="1183" 
d="M825 342h-397l-59 -342h-158l252 1434h158l-60 -340h406q146 0 224 -111.5t48 -265.5q-29 -156 -144.5 -265.5t-269.5 -109.5zM942 963h-405l-86 -490h397q83 0 148 71.5t83 172.5t-21 173.5t-116 72.5z" />
    <glyph glyph-name="germandbls" unicode="&#xdf;" horiz-adv-x="1208" 
d="M817 1372q-124 0 -202 -75.5t-103 -215.5l-190 -1081h-156l190 1081q35 203 161.5 311.5t322.5 108.5q194 0 283.5 -94.5t58.5 -265.5q-22 -120 -106 -213.5t-224 -128.5q185 -21 280 -124t64 -269q-30 -170 -178.5 -288t-347.5 -118h-111l-14 131h145q128 0 226 82
t120 197q26 144 -79 227t-306 88l-14 129q168 7 268 88.5t119 190.5q20 116 -35 177.5t-172 61.5z" />
    <glyph glyph-name="agrave" unicode="&#xe0;" horiz-adv-x="1320" 
d="M1333 1020l-178 -1020h-154l35 203q-175 -226 -446 -226q-151 0 -255 72.5t-144 193t-15 267.5q20 110 73.5 207t131.5 169t181.5 114t217.5 42q274 0 365 -225l35 203h153zM330 510q-30 -167 50.5 -281t248.5 -114q167 0 300.5 110t162.5 285q16 87 -2 161.5
t-62.5 125.5t-111.5 79.5t-148 28.5q-167 0 -287.5 -113t-150.5 -282zM618 1481h177l127 -307h-134z" />
    <glyph glyph-name="aacute" unicode="&#xe1;" horiz-adv-x="1320" 
d="M1333 1020l-178 -1020h-154l35 203q-175 -226 -446 -226q-151 0 -255 72.5t-144 193t-15 267.5q20 110 73.5 207t131.5 169t181.5 114t217.5 42q274 0 365 -225l35 203h153zM330 510q-30 -167 50.5 -281t248.5 -114q167 0 300.5 110t162.5 285q16 87 -2 161.5
t-62.5 125.5t-111.5 79.5t-148 28.5q-167 0 -287.5 -113t-150.5 -282zM930 1481h176l-281 -307h-133z" />
    <glyph glyph-name="acircumflex" unicode="&#xe2;" horiz-adv-x="1320" 
d="M1333 1020l-178 -1020h-154l35 203q-175 -226 -446 -226q-151 0 -255 72.5t-144 193t-15 267.5q20 110 73.5 207t131.5 169t181.5 114t217.5 42q274 0 365 -225l35 203h153zM330 510q-30 -167 50.5 -281t248.5 -114q167 0 300.5 110t162.5 285q16 87 -2 161.5
t-62.5 125.5t-111.5 79.5t-148 28.5q-167 0 -287.5 -113t-150.5 -282zM774 1481h166l182 -307h-121l-159 212l-238 -212h-121z" />
    <glyph glyph-name="atilde" unicode="&#xe3;" horiz-adv-x="1320" 
d="M1333 1020l-178 -1020h-154l35 203q-175 -226 -446 -226q-151 0 -255 72.5t-144 193t-15 267.5q20 110 73.5 207t131.5 169t181.5 114t217.5 42q274 0 365 -225l35 203h153zM330 510q-30 -167 50.5 -281t248.5 -114q167 0 300.5 110t162.5 285q16 87 -2 161.5
t-62.5 125.5t-111.5 79.5t-148 28.5q-167 0 -287.5 -113t-150.5 -282zM948 1237q-47 0 -129 42t-117 42t-56.5 -19.5t-59.5 -78.5l-70 18q50 106 95 149.5t106 43.5q46 0 128.5 -43t115.5 -43q35 0 58 20t60 78l66 -21q-43 -102 -89.5 -145t-107.5 -43z" />
    <glyph glyph-name="adieresis" unicode="&#xe4;" horiz-adv-x="1320" 
d="M1333 1020l-178 -1020h-154l35 203q-175 -226 -446 -226q-151 0 -255 72.5t-144 193t-15 267.5q20 110 73.5 207t131.5 169t181.5 114t217.5 42q274 0 365 -225l35 203h153zM330 510q-30 -167 50.5 -281t248.5 -114q167 0 300.5 110t162.5 285q16 87 -2 161.5
t-62.5 125.5t-111.5 79.5t-148 28.5q-167 0 -287.5 -113t-150.5 -282zM510 1323q7 47 42.5 77t80.5 30q47 0 71.5 -30t16.5 -77q-8 -43 -44 -73.5t-83 -30.5q-44 0 -68 30.5t-16 73.5zM944 1323q7 47 42.5 77t80.5 30t70 -30t18 -77q-7 -43 -45 -73.5t-82 -30.5t-68 30.5
t-16 73.5z" />
    <glyph glyph-name="aring" unicode="&#xe5;" horiz-adv-x="1320" 
d="M1333 1020l-178 -1020h-154l35 203q-175 -226 -446 -226q-151 0 -255 72.5t-144 193t-15 267.5q20 110 73.5 207t131.5 169t181.5 114t217.5 42q274 0 365 -225l35 203h153zM330 510q-30 -167 50.5 -281t248.5 -114q167 0 300.5 110t162.5 285q16 87 -2 161.5
t-62.5 125.5t-111.5 79.5t-148 28.5q-167 0 -287.5 -113t-150.5 -282zM655 1376q17 87 86.5 146t153.5 59q87 0 136 -59.5t32 -145.5q-12 -82 -84 -142t-158 -60q-84 0 -132 58.5t-34 143.5zM739 1376q-10 -51 19 -85t80 -34t90.5 34t50.5 85q10 51 -18.5 86t-79.5 35
t-91 -35t-51 -86z" />
    <glyph glyph-name="ae" unicode="&#xe6;" horiz-adv-x="1939" 
d="M575 498q-135 0 -210 -57.5t-89 -139.5q-18 -87 46 -145t190 -58q99 0 206.5 53t194.5 160q-6 82 2 148q-146 39 -340 39zM1530 907q-129 0 -243 -69.5t-183 -206.5h713q-2 77 -27 132.5t-67 86t-89.5 44t-103.5 13.5zM694 905q-189 0 -350 -110l-37 114q81 65 195.5 99
t228.5 34q305 0 350 -223q84 103 207 163t262 60q101 0 183 -32t140.5 -95t81 -166.5t1.5 -236.5h-891l-4 -16q-30 -163 67 -273t283 -110q185 0 358 135q58 -72 72 -92q-201 -179 -455 -179q-163 0 -273 63.5t-159 176.5q-92 -116 -218 -178t-269 -62q-79 0 -147.5 21
t-118 60.5t-71.5 101.5t-9 139q26 138 145.5 226.5t315.5 88.5q75 0 178 -13t166 -36l8 49q26 150 -35.5 220.5t-204.5 70.5z" />
    <glyph glyph-name="ccedilla" unicode="&#xe7;" horiz-adv-x="1087" 
d="M174 510q29 165 130.5 287.5t242.5 182.5t301 60q192 0 338 -118l-92 -107q-107 90 -269 90q-187 0 -325.5 -111.5t-171.5 -283.5q-28 -172 70.5 -283.5t287.5 -111.5q155 0 299 90l55 -107q-166 -105 -352 -118q73 -95 53 -203q-19 -114 -109 -175t-192 -61
q-97 0 -156.5 62t-64.5 157l78 43q26 -145 160 -145q59 0 110 39t64 108q15 89 -39 177q-143 14 -245.5 78t-151 180.5t-21.5 269.5z" />
    <glyph glyph-name="egrave" unicode="&#xe8;" horiz-adv-x="1218" 
d="M625 1481h176l127 -307h-133zM1049 248l73 -92q-201 -179 -469 -179q-129 0 -230.5 42t-161 114t-82.5 168.5t-5 204.5q42 226 225.5 381t419.5 155q102 0 185 -32t143.5 -94.5t84.5 -166.5t3 -237h-907q-37 -170 59 -284.5t291 -114.5q198 0 371 135zM799 907
q-130 0 -247.5 -70t-186.5 -206h731q-2 76 -28.5 132t-70 86.5t-92.5 44t-106 13.5z" />
    <glyph glyph-name="eacute" unicode="&#xe9;" horiz-adv-x="1218" 
d="M936 1481h176l-281 -307h-133zM1049 248l73 -92q-201 -179 -469 -179q-129 0 -230.5 42t-161 114t-82.5 168.5t-5 204.5q42 226 225.5 381t419.5 155q102 0 185 -32t143.5 -94.5t84.5 -166.5t3 -237h-907q-37 -170 59 -284.5t291 -114.5q198 0 371 135zM799 907
q-130 0 -247.5 -70t-186.5 -206h731q-2 76 -28.5 132t-70 86.5t-92.5 44t-106 13.5z" />
    <glyph glyph-name="ecircumflex" unicode="&#xea;" horiz-adv-x="1218" 
d="M786 1481h166l183 -307h-121l-160 212l-238 -212h-120zM1049 248l73 -92q-201 -179 -469 -179q-129 0 -230.5 42t-161 114t-82.5 168.5t-5 204.5q42 226 225.5 381t419.5 155q102 0 185 -32t143.5 -94.5t84.5 -166.5t3 -237h-907q-37 -170 59 -284.5t291 -114.5
q198 0 371 135zM799 907q-130 0 -247.5 -70t-186.5 -206h731q-2 76 -28.5 132t-70 86.5t-92.5 44t-106 13.5z" />
    <glyph glyph-name="edieresis" unicode="&#xeb;" horiz-adv-x="1218" 
d="M520 1323q7 47 42.5 77t80.5 30q47 0 71.5 -30t16.5 -77q-8 -43 -44 -73.5t-83 -30.5q-44 0 -68 30.5t-16 73.5zM954 1323q7 47 42.5 77t80.5 30t70 -30t18 -77q-7 -43 -45 -73.5t-82 -30.5t-68 30.5t-16 73.5zM1049 248l73 -92q-201 -179 -469 -179q-129 0 -230.5 42
t-161 114t-82.5 168.5t-5 204.5q42 226 225.5 381t419.5 155q102 0 185 -32t143.5 -94.5t84.5 -166.5t3 -237h-907q-37 -170 59 -284.5t291 -114.5q198 0 371 135zM799 907q-130 0 -247.5 -70t-186.5 -206h731q-2 76 -28.5 132t-70 86.5t-92.5 44t-106 13.5z" />
    <glyph glyph-name="igrave" unicode="&#xec;" horiz-adv-x="499" 
d="M504 1020l-178 -1020h-154l178 1020h154zM240 1481h176l127 -307h-133z" />
    <glyph glyph-name="iacute" unicode="&#xed;" horiz-adv-x="499" 
d="M506 1020l-178 -1020h-154l178 1020h154zM606 1481h176l-280 -307h-133z" />
    <glyph glyph-name="icircumflex" unicode="&#xee;" horiz-adv-x="497" 
d="M504 1020l-178 -1020h-154l178 1020h154zM422 1481h166l182 -307h-121l-160 212l-237 -212h-121z" />
    <glyph glyph-name="idieresis" unicode="&#xef;" horiz-adv-x="497" 
d="M504 1020l-178 -1020h-154l178 1020h154zM156 1323q7 47 42.5 77t80.5 30q47 0 71.5 -30t16.5 -77q-8 -43 -44 -73.5t-83 -30.5q-44 0 -68 30.5t-16 73.5zM590 1323q7 47 42.5 77t80.5 30t70 -30t18 -77q-7 -43 -45 -73.5t-82 -30.5t-68 30.5t-16 73.5z" />
    <glyph glyph-name="eth" unicode="&#xf0;" horiz-adv-x="1247" 
d="M844 1223l-285 -113l-22 86l241 98q-51 55 -137 127l133 86q12 -11 37 -35t41 -39t37.5 -37t38.5 -42l260 102l31 -86l-228 -90q142 -177 214.5 -381t37.5 -397q-27 -157 -121.5 -278.5t-225 -184t-273.5 -62.5q-150 0 -262 71t-161.5 192.5t-25.5 267.5
q27 145 116.5 265t219 188.5t270.5 68.5q61 0 136 -22t112 -70q-79 175 -184 285zM328 508q-29 -165 62.5 -279t250.5 -114q169 0 295 113.5t156 283.5q25 163 -59 272t-249 109q-166 0 -296.5 -110.5t-159.5 -274.5z" />
    <glyph glyph-name="ntilde" unicode="&#xf1;" 
d="M930 0l102 580q13 92 4 154.5t-43 100.5t-75.5 54t-92.5 16q-37 0 -80.5 -10.5t-97 -39t-99.5 -72.5t-85.5 -118.5t-56.5 -168.5l-87 -496h-153l178 1020h154l-37 -217q39 79 106.5 134t142 80t152.5 25q86 0 152.5 -25t114.5 -80.5t62 -143.5t-5 -213l-103 -580h-153z
M961 1237q-47 0 -129 42t-117 42t-58 -20.5t-57 -77.5l-72 18q50 106 95 149.5t106 43.5q46 0 129 -43t117 -43q35 0 57.5 19.5t59.5 78.5l65 -21q-43 -102 -89 -145t-107 -43z" />
    <glyph glyph-name="ograve" unicode="&#xf2;" horiz-adv-x="1243" 
d="M174 510q24 144 118 266.5t231 194t282 71.5q146 0 256 -72t159 -194t25 -266q-27 -145 -121 -268t-229.5 -194t-280.5 -71q-108 0 -199.5 42t-151 113t-84.5 170t-5 208zM328 508q-29 -164 62.5 -278.5t248.5 -114.5q159 0 291.5 114.5t161.5 278.5t-63.5 280.5
t-250.5 116.5q-156 0 -288.5 -116.5t-161.5 -280.5zM596 1481h176l127 -307h-133z" />
    <glyph glyph-name="oacute" unicode="&#xf3;" horiz-adv-x="1243" 
d="M174 510q24 144 118 266.5t231 194t282 71.5q146 0 256 -72t159 -194t25 -266q-27 -145 -121 -268t-229.5 -194t-280.5 -71q-108 0 -199.5 42t-151 113t-84.5 170t-5 208zM328 508q-29 -164 62.5 -278.5t248.5 -114.5q159 0 291.5 114.5t161.5 278.5t-63.5 280.5
t-250.5 116.5q-156 0 -288.5 -116.5t-161.5 -280.5zM969 1481h176l-281 -307h-133z" />
    <glyph glyph-name="ocircumflex" unicode="&#xf4;" horiz-adv-x="1243" 
d="M174 510q24 144 118 266.5t231 194t282 71.5q146 0 256 -72t159 -194t25 -266q-27 -145 -121 -268t-229.5 -194t-280.5 -71q-108 0 -199.5 42t-151 113t-84.5 170t-5 208zM328 508q-29 -164 62.5 -278.5t248.5 -114.5q159 0 291.5 114.5t161.5 278.5t-63.5 280.5
t-250.5 116.5q-156 0 -288.5 -116.5t-161.5 -280.5zM797 1481h166l182 -307h-121l-160 212l-237 -212h-121z" />
    <glyph glyph-name="otilde" unicode="&#xf5;" horiz-adv-x="1243" 
d="M174 510q24 144 118 266.5t231 194t282 71.5q146 0 256 -72t159 -194t25 -266q-27 -145 -121 -268t-229.5 -194t-280.5 -71q-108 0 -199.5 42t-151 113t-84.5 170t-5 208zM328 508q-29 -164 62.5 -278.5t248.5 -114.5q159 0 291.5 114.5t161.5 278.5t-63.5 280.5
t-250.5 116.5q-156 0 -288.5 -116.5t-161.5 -280.5zM973 1237q-47 0 -129 42t-117 42t-57 -20t-60 -78l-69 18q50 106 94.5 149.5t105.5 43.5q46 0 128.5 -43t115.5 -43q36 0 60 20.5t57 77.5l67 -21q-43 -102 -89 -145t-107 -43z" />
    <glyph glyph-name="odieresis" unicode="&#xf6;" horiz-adv-x="1243" 
d="M174 510q24 144 118 266.5t231 194t282 71.5q146 0 256 -72t159 -194t25 -266q-27 -145 -121 -268t-229.5 -194t-280.5 -71q-108 0 -199.5 42t-151 113t-84.5 170t-5 208zM328 508q-29 -164 62.5 -278.5t248.5 -114.5q159 0 291.5 114.5t161.5 278.5t-63.5 280.5
t-250.5 116.5q-156 0 -288.5 -116.5t-161.5 -280.5zM532 1323q7 47 42.5 77t80.5 30q47 0 71.5 -30t16.5 -77q-8 -43 -44 -73.5t-83 -30.5q-44 0 -68 30.5t-16 73.5zM967 1323q7 47 42.5 77t80.5 30t70 -30t18 -77q-7 -43 -45 -73.5t-82 -30.5t-68 30.5t-16 73.5z" />
    <glyph glyph-name="divide" unicode="&#xf7;" horiz-adv-x="1300" 
d="M567 227q11 51 52 87t92 36t79.5 -36t18.5 -87q-11 -52 -50.5 -86.5t-90.5 -34.5t-81 35t-20 86zM707 1020q11 52 52 87.5t91 35.5q51 0 79.5 -36t18.5 -87q-11 -52 -50.5 -86.5t-90.5 -34.5t-80.5 35t-19.5 86zM227 551l25 137h1036l-24 -137h-1037z" />
    <glyph glyph-name="oslash" unicode="&#xf8;" horiz-adv-x="1243" 
d="M139 6l127 127q-62 74 -87 171t-5 204q27 145 120.5 268t229.5 194.5t281 71.5q157 0 274 -90l123 125l68 -69l-119 -123q63 -74 88.5 -171.5t5.5 -205.5q-24 -144 -118 -266.5t-231 -193.5t-282 -71q-166 0 -278 86l-127 -124zM1092 508q26 152 -58 264l-585 -600
q77 -57 190 -57q159 0 291.5 114.5t161.5 278.5zM328 508q-27 -153 55 -262l586 600q-77 59 -191 59q-156 0 -288.5 -116.5t-161.5 -280.5z" />
    <glyph glyph-name="ugrave" unicode="&#xf9;" 
d="M481 1020l-102 -580q-13 -94 -4.5 -157t42 -100t74.5 -52.5t93 -15.5q39 0 82 10t96.5 38.5t98.5 72.5t84.5 118.5t58.5 169.5l88 496h153l-178 -1020h-154l37 217q-63 -118 -171 -179t-230 -61q-86 0 -152.5 25.5t-114.5 81t-62 143.5t5 213l103 580h153zM612 1481h176
l127 -307h-133z" />
    <glyph glyph-name="uacute" unicode="&#xfa;" 
d="M481 1020l-102 -580q-13 -94 -4.5 -157t42 -100t74.5 -52.5t93 -15.5q39 0 82 10t96.5 38.5t98.5 72.5t84.5 118.5t58.5 169.5l88 496h153l-178 -1020h-154l37 217q-63 -118 -171 -179t-230 -61q-86 0 -152.5 25.5t-114.5 81t-62 143.5t5 213l103 580h153zM946 1481h176
l-280 -307h-133z" />
    <glyph glyph-name="ucircumflex" unicode="&#xfb;" 
d="M481 1020l-102 -580q-13 -94 -4.5 -157t42 -100t74.5 -52.5t93 -15.5q39 0 82 10t96.5 38.5t98.5 72.5t84.5 118.5t58.5 169.5l88 496h153l-178 -1020h-154l37 217q-63 -118 -171 -179t-230 -61q-86 0 -152.5 25.5t-114.5 81t-62 143.5t5 213l103 580h153zM768 1481h166
l182 -307h-121l-159 212l-238 -212h-121z" />
    <glyph glyph-name="udieresis" unicode="&#xfc;" 
d="M481 1020l-102 -580q-13 -94 -4.5 -157t42 -100t74.5 -52.5t93 -15.5q39 0 82 10t96.5 38.5t98.5 72.5t84.5 118.5t58.5 169.5l88 496h153l-178 -1020h-154l37 217q-63 -118 -171 -179t-230 -61q-86 0 -152.5 25.5t-114.5 81t-62 143.5t5 213l103 580h153zM532 1323
q7 47 42.5 77t80.5 30q47 0 71.5 -30t16.5 -77q-8 -44 -43.5 -74t-81.5 -30q-44 0 -69 30.5t-17 73.5zM967 1323q7 47 42.5 77t80.5 30t70 -30t18 -77q-8 -43 -44.5 -73.5t-80.5 -30.5t-69 30.5t-17 73.5z" />
    <glyph glyph-name="yacute" unicode="&#xfd;" horiz-adv-x="1107" 
d="M592 188l475 832h178l-891 -1479h-155l280 473l-262 1006h176zM866 1481h176l-280 -307h-133z" />
    <glyph glyph-name="thorn" unicode="&#xfe;" horiz-adv-x="1320" 
d="M82 -459l344 1940h154l-117 -664q169 225 446 225q91 0 166.5 -27t127 -75.5t85 -115.5t40.5 -146t-7 -168q-18 -109 -71.5 -206.5t-131.5 -170t-182 -114.5t-217 -42q-274 0 -365 226l-118 -662h-154zM1167 510q30 169 -50 282t-249 113q-167 0 -298.5 -109.5
t-163.5 -285.5q-29 -176 63.5 -285.5t259.5 -109.5q168 0 288 114t150 281z" />
    <glyph glyph-name="ydieresis" unicode="&#xff;" horiz-adv-x="1107" 
d="M592 188l475 832h178l-891 -1479h-155l280 473l-262 1006h176zM461 1323q7 47 42.5 77t80.5 30q47 0 71.5 -30t16.5 -77q-8 -44 -43.5 -74t-81.5 -30q-44 0 -69 30.5t-17 73.5zM895 1323q7 47 42.5 77t80.5 30t70 -30t18 -77q-8 -43 -44.5 -73.5t-80.5 -30.5t-69 30.5
t-17 73.5z" />
    <glyph glyph-name="Amacron" unicode="&#x100;" horiz-adv-x="1376" 
d="M436 438h656l-179 842zM1116 307h-751l-170 -307h-166l817 1434h188l314 -1434h-164zM725 1743h541l-21 -123h-540z" />
    <glyph glyph-name="amacron" unicode="&#x101;" horiz-adv-x="1320" 
d="M1333 1020l-178 -1020h-154l35 203q-175 -226 -446 -226q-151 0 -255 72.5t-144 193t-15 267.5q20 110 73.5 207t131.5 169t181.5 114t217.5 42q274 0 365 -225l35 203h153zM330 510q-30 -167 50.5 -281t248.5 -114q167 0 300.5 110t162.5 285q16 87 -2 161.5
t-62.5 125.5t-111.5 79.5t-148 28.5q-167 0 -287.5 -113t-150.5 -282zM598 1384h541l-23 -122h-541z" />
    <glyph glyph-name="Abreve" unicode="&#x102;" horiz-adv-x="1376" 
d="M436 438h656l-179 842zM1116 307h-751l-170 -307h-166l817 1434h188l314 -1434h-164zM1182 1843q3 0 47 -3t47 -3q-35 -128 -123.5 -199t-189.5 -71q-100 0 -164.5 71.5t-53.5 198.5q1 0 48 3t51 3q0 -82 35 -127t102 -45q68 0 120 44t81 128z" />
    <glyph glyph-name="abreve" unicode="&#x103;" horiz-adv-x="1320" 
d="M1333 1020l-178 -1020h-154l35 203q-175 -226 -446 -226q-151 0 -255 72.5t-144 193t-15 267.5q20 110 73.5 207t131.5 169t181.5 114t217.5 42q274 0 365 -225l35 203h153zM330 510q-30 -167 50.5 -281t248.5 -114q167 0 300.5 110t162.5 285q16 87 -2 161.5
t-62.5 125.5t-111.5 79.5t-148 28.5q-167 0 -287.5 -113t-150.5 -282zM1044 1473q0 -1 49.5 -5.5t49.5 -5.5q-23 -95 -76.5 -160.5t-115.5 -93.5t-130 -28q-106 0 -171 71t-54 211q2 0 52 5.5t52 5.5q-6 -88 33 -132.5t109 -44.5t124 44.5t78 132.5z" />
    <glyph glyph-name="Aogonek" unicode="&#x104;" horiz-adv-x="1368" 
d="M1114 307h-752l-169 -307h-166l817 1434h188l305 -1409q-44 -19 -77.5 -44.5t-51.5 -46t-32 -50t-17.5 -42.5t-9.5 -37q-13 -69 25.5 -108t95.5 -39q134 0 211 145l67 -43q-38 -94 -121.5 -156.5t-181.5 -62.5q-65 0 -118 24t-83.5 79t-17.5 133q9 52 47 111.5t109 111.5
zM434 438h656l-179 842z" />
    <glyph glyph-name="aogonek" unicode="&#x105;" horiz-adv-x="1320" 
d="M1333 1020l-180 -1016q-110 -20 -175.5 -79t-78.5 -128q-10 -63 27.5 -101t95.5 -38q63 0 119.5 38.5t91.5 104.5l70 -41q-39 -95 -122.5 -157t-183.5 -62q-64 0 -116.5 24t-83 79t-17.5 133q14 70 69 136.5t152 100.5l35 189q-175 -226 -446 -226q-151 0 -255 72.5
t-144 193t-15 267.5q20 110 73.5 207t131.5 169t181.5 114t217.5 42q274 0 365 -225l35 203h153zM330 510q-30 -167 50.5 -281t248.5 -114q167 0 300.5 110t162.5 285q16 87 -2 161.5t-62.5 125.5t-111.5 79.5t-148 28.5q-167 0 -287.5 -113t-150.5 -282z" />
    <glyph glyph-name="Cacute" unicode="&#x106;" horiz-adv-x="1409" 
d="M225 717q27 150 104.5 284t192.5 235t273 160.5t335 59.5q147 0 252 -39.5t191 -113.5l-84 -119q-153 129 -391 129q-138 0 -262 -48t-214.5 -129.5t-151.5 -189.5t-83 -229q-21 -122 2 -230t84.5 -189.5t168.5 -129t245 -47.5q239 0 436 127l41 -121
q-115 -73 -232 -111.5t-262 -38.5q-179 0 -316.5 59.5t-217 161t-109 235.5t-2.5 284zM1208 1851h168l-254 -284h-131z" />
    <glyph glyph-name="cacute" unicode="&#x107;" horiz-adv-x="1087" 
d="M176 510q29 165 130.5 287.5t242.5 182.5t301 60q192 0 338 -118l-94 -107q-107 90 -267 90q-187 0 -325.5 -111.5t-171.5 -283.5q-28 -172 70 -283.5t286 -111.5q158 0 301 90l55 -107q-193 -121 -383 -121q-118 2 -215 38t-165 101.5t-96.5 167t-6.5 226.5zM948 1481
h176l-282 -307h-133z" />
    <glyph glyph-name="Ccircumflex" unicode="&#x108;" horiz-adv-x="1409" 
d="M225 717q27 150 104.5 284t192.5 235t273 160.5t335 59.5q147 0 252 -39.5t191 -113.5l-84 -119q-153 129 -391 129q-138 0 -262 -48t-214.5 -129.5t-151.5 -189.5t-83 -229q-21 -122 2 -230t84.5 -189.5t168.5 -129t245 -47.5q239 0 436 127l41 -121
q-115 -73 -232 -111.5t-262 -38.5q-179 0 -316.5 59.5t-217 161t-109 235.5t-2.5 284zM1061 1851h166l166 -284h-121l-144 196l-217 -196h-120z" />
    <glyph glyph-name="ccircumflex" unicode="&#x109;" horiz-adv-x="1087" 
d="M176 510q29 165 130.5 287.5t242.5 182.5t301 60q192 0 338 -118l-94 -107q-107 90 -267 90q-187 0 -325.5 -111.5t-171.5 -283.5q-28 -172 70 -283.5t286 -111.5q158 0 301 90l55 -107q-193 -121 -383 -121q-118 2 -215 38t-165 101.5t-96.5 167t-6.5 226.5zM795 1481
h166l180 -307h-121l-158 212l-239 -212h-121z" />
    <glyph glyph-name="Cdotaccent" unicode="&#x10a;" horiz-adv-x="1409" 
d="M225 717q27 150 104.5 284t192.5 235t273 160.5t335 59.5q147 0 252 -39.5t191 -113.5l-84 -119q-153 129 -391 129q-138 0 -262 -48t-214.5 -129.5t-151.5 -189.5t-83 -229q-21 -122 2 -230t84.5 -189.5t168.5 -129t245 -47.5q239 0 436 127l41 -121
q-115 -73 -232 -111.5t-262 -38.5q-179 0 -316.5 59.5t-217 161t-109 235.5t-2.5 284zM1042 1702q7 47 43.5 77.5t83.5 30.5q45 0 71.5 -31t16.5 -77q-7 -49 -43 -80t-81 -31q-48 0 -74.5 31t-16.5 80z" />
    <glyph glyph-name="cdotaccent" unicode="&#x10b;" horiz-adv-x="1087" 
d="M176 510q29 165 130.5 287.5t242.5 182.5t301 60q192 0 338 -118l-94 -107q-107 90 -267 90q-187 0 -325.5 -111.5t-171.5 -283.5q-28 -172 70 -283.5t286 -111.5q158 0 301 90l55 -107q-193 -121 -383 -121q-118 2 -215 38t-165 101.5t-96.5 167t-6.5 226.5zM739 1313
q11 50 47.5 82t83.5 32q48 0 74.5 -32.5t16.5 -81.5q-7 -49 -45.5 -81t-86.5 -32t-74 32t-16 81z" />
    <glyph glyph-name="Ccaron" unicode="&#x10c;" horiz-adv-x="1409" 
d="M225 717q27 150 104.5 284t192.5 235t273 160.5t335 59.5q147 0 252 -39.5t191 -113.5l-84 -119q-153 129 -391 129q-138 0 -262 -48t-214.5 -129.5t-151.5 -189.5t-83 -229q-21 -122 2 -230t84.5 -189.5t168.5 -129t245 -47.5q239 0 436 127l41 -121
q-115 -73 -232 -111.5t-262 -38.5q-179 0 -316.5 59.5t-217 161t-109 235.5t-2.5 284zM1180 1567h-166l-164 284h121l143 -198l217 198h121z" />
    <glyph glyph-name="ccaron" unicode="&#x10d;" horiz-adv-x="1087" 
d="M176 510q29 165 130.5 287.5t242.5 182.5t301 60q192 0 338 -118l-94 -107q-107 90 -267 90q-187 0 -325.5 -111.5t-171.5 -283.5q-28 -172 70 -283.5t286 -111.5q158 0 301 90l55 -107q-193 -121 -383 -121q-118 2 -215 38t-165 101.5t-96.5 167t-6.5 226.5zM907 1174
h-164l-180 307h121l162 -213l235 213h121z" />
    <glyph glyph-name="Dcaron" unicode="&#x10e;" horiz-adv-x="1484" 
d="M1044 1567h-165l-166 284h121l143 -198l217 198h121zM1348 717q15 97 7.5 184.5t-46.5 161t-98.5 127t-148 83.5t-194.5 30h-270l-209 -1172h270q134 0 253.5 46.5t207.5 126t147.5 186t80.5 227.5zM1507 717q-27 -148 -101.5 -278.5t-184.5 -228t-261 -154t-321 -56.5
h-428l252 1434h428q170 0 301.5 -56.5t208.5 -154t105 -228t1 -278.5z" />
    <glyph glyph-name="dcaron" unicode="&#x10f;" horiz-adv-x="1325" 
d="M1415 1481l-260 -1481h-154l35 203q-175 -226 -446 -226q-151 0 -255 72.5t-144 193t-15 267.5q20 110 73.5 207t131.5 169t181.5 114t217.5 42q274 0 365 -225l117 664h153zM330 510q-30 -167 50.5 -281t248.5 -114q167 0 300.5 110t162.5 285q16 87 -2 161.5
t-62.5 125.5t-111.5 79.5t-148 28.5q-167 0 -287.5 -113t-150.5 -282zM1522 1116l-19 47q49 24 90.5 71t48.5 93q-21 -18 -59 -18q-34 0 -52.5 26t-12.5 58q8 41 38 65.5t74 24.5q54 0 77.5 -48.5t14.5 -93.5q-11 -70 -61.5 -130t-138.5 -95z" />
    <glyph glyph-name="Dcroat" unicode="&#x110;" horiz-adv-x="1484" 
d="M160 649l20 115h164l117 670h428q170 0 301.5 -56.5t209 -154t106 -228t1.5 -278.5t-101.5 -278.5t-184.5 -228t-261 -154t-321 -56.5h-428l113 649h-164zM1346 717q15 97 7.5 184.5t-46.5 161t-98.5 127t-148 83.5t-194.5 30h-270l-94 -539h358l-20 -115h-359l-94 -518
h270q134 0 253.5 46.5t207.5 126t147.5 186t80.5 227.5z" />
    <glyph glyph-name="dcroat" unicode="&#x111;" horiz-adv-x="1320" 
d="M1415 1481l-37 -213h152l-17 -86h-151l-207 -1182h-154l35 203q-175 -226 -446 -226q-151 0 -255 72.5t-144 193t-15 267.5q20 110 73.5 207t131.5 169t181.5 114t217.5 42q274 0 365 -225l63 365h-286l16 86h287l37 213h153zM330 510q-30 -167 50.5 -281t248.5 -114
q167 0 300.5 110t162.5 285q16 87 -2 161.5t-62.5 125.5t-111.5 79.5t-148 28.5q-167 0 -287.5 -113t-150.5 -282z" />
    <glyph glyph-name="Emacron" unicode="&#x112;" horiz-adv-x="1206" 
d="M1122 131l-20 -131h-891l252 1434h891l-23 -131h-733l-96 -535h641l-23 -133h-641l-90 -504h733zM680 1743h541l-21 -123h-541z" />
    <glyph glyph-name="emacron" unicode="&#x113;" horiz-adv-x="1218" 
d="M594 1384h541l-23 -122h-541zM1049 248l73 -92q-201 -179 -469 -179q-129 0 -230.5 42t-161 114t-82.5 168.5t-5 204.5q42 226 225.5 381t419.5 155q102 0 185 -32t143.5 -94.5t84.5 -166.5t3 -237h-907q-37 -170 59 -284.5t291 -114.5q198 0 371 135zM799 907
q-130 0 -247.5 -70t-186.5 -206h731q-2 76 -28.5 132t-70 86.5t-92.5 44t-106 13.5z" />
    <glyph glyph-name="Ebreve" unicode="&#x114;" horiz-adv-x="1206" 
d="M1122 131l-20 -131h-891l252 1434h891l-23 -131h-733l-96 -535h641l-23 -133h-641l-90 -504h733zM1159 1843q3 0 47 -3t47 -3q-35 -128 -123.5 -199t-189.5 -71q-100 0 -164 71.5t-53 198.5q1 0 48 3t50 3q0 -82 35 -127t102 -45q68 0 120 44t81 128z" />
    <glyph glyph-name="ebreve" unicode="&#x115;" horiz-adv-x="1218" 
d="M1063 1473q0 -1 49 -5.5t49 -5.5q-23 -95 -76 -160.5t-115 -93.5t-130 -28q-106 0 -171.5 71t-54.5 211q2 0 52.5 5.5t52.5 5.5q-6 -89 33 -133t108 -44q70 0 124.5 44.5t78.5 132.5zM1049 248l73 -92q-201 -179 -469 -179q-129 0 -230.5 42t-161 114t-82.5 168.5
t-5 204.5q42 226 225.5 381t419.5 155q102 0 185 -32t143.5 -94.5t84.5 -166.5t3 -237h-907q-37 -170 59 -284.5t291 -114.5q198 0 371 135zM799 907q-130 0 -247.5 -70t-186.5 -206h731q-2 76 -28.5 132t-70 86.5t-92.5 44t-106 13.5z" />
    <glyph glyph-name="Edotaccent" unicode="&#x116;" horiz-adv-x="1206" 
d="M1122 131l-20 -131h-891l252 1434h891l-23 -131h-733l-96 -535h641l-23 -133h-641l-90 -504h733zM860 1702q7 47 43.5 77.5t83.5 30.5q45 0 70.5 -31t15.5 -77q-7 -49 -43.5 -80t-81.5 -31q-48 0 -73 31t-15 80z" />
    <glyph glyph-name="edotaccent" unicode="&#x117;" horiz-adv-x="1218" 
d="M741 1313q11 50 47.5 82t83.5 32q48 0 74.5 -32.5t16.5 -81.5t-47.5 -81t-84.5 -32q-48 0 -74 32t-16 81zM1049 248l73 -92q-201 -179 -469 -179q-129 0 -230.5 42t-161 114t-82.5 168.5t-5 204.5q42 226 225.5 381t419.5 155q102 0 185 -32t143.5 -94.5t84.5 -166.5
t3 -237h-907q-37 -170 59 -284.5t291 -114.5q198 0 371 135zM799 907q-130 0 -247.5 -70t-186.5 -206h731q-2 76 -28.5 132t-70 86.5t-92.5 44t-106 13.5z" />
    <glyph glyph-name="Eogonek" unicode="&#x118;" horiz-adv-x="1204" 
d="M1120 131l-20 -131h-424q-55 -45 -85.5 -97.5t-39.5 -97.5q-13 -69 25.5 -108t95.5 -39q134 0 211 145l67 -43q-38 -94 -121.5 -156.5t-181.5 -62.5q-65 0 -118 24t-83.5 79t-17.5 133q9 52 46 111.5t108 111.5h-373l252 1434h891l-23 -131h-733l-96 -535h641l-23 -133
h-641l-90 -504h733z" />
    <glyph glyph-name="eogonek" unicode="&#x119;" horiz-adv-x="1218" 
d="M1049 248l73 -92q-190 -103 -291.5 -184t-117.5 -165q-11 -65 27.5 -107t93.5 -42q62 0 118 39t92 106l70 -43q-40 -95 -122.5 -157t-182.5 -62q-65 0 -117.5 24.5t-82.5 80t-17 133.5q16 111 129 203q-33 -5 -68 -5q-129 0 -230.5 42t-161 114t-82.5 168.5t-5 204.5
q42 226 225.5 381t419.5 155q102 0 185 -32t143.5 -94.5t84.5 -166.5t3 -237h-907q-37 -176 61.5 -287.5t288.5 -111.5q198 0 371 135zM799 907q-130 0 -247.5 -70t-186.5 -206h731q-2 76 -28.5 132t-70 86.5t-92.5 44t-106 13.5z" />
    <glyph glyph-name="Ecaron" unicode="&#x11a;" horiz-adv-x="1206" 
d="M1122 131l-20 -131h-891l252 1434h891l-23 -131h-733l-96 -535h641l-23 -133h-641l-90 -504h733zM1024 1567h-166l-166 284h121l143 -198l218 198h120z" />
    <glyph glyph-name="ecaron" unicode="&#x11b;" horiz-adv-x="1218" 
d="M897 1174h-164l-182 307h121l162 -213l235 213h121zM1049 248l73 -92q-201 -179 -469 -179q-129 0 -230.5 42t-161 114t-82.5 168.5t-5 204.5q42 226 225.5 381t419.5 155q102 0 185 -32t143.5 -94.5t84.5 -166.5t3 -237h-907q-37 -170 59 -284.5t291 -114.5
q198 0 371 135zM799 907q-130 0 -247.5 -70t-186.5 -206h731q-2 76 -28.5 132t-70 86.5t-92.5 44t-106 13.5z" />
    <glyph glyph-name="Gcircumflex" unicode="&#x11c;" horiz-adv-x="1507" 
d="M1118 1313q-126 0 -238 -35t-194.5 -93.5t-146.5 -136.5t-101.5 -162.5t-52.5 -172.5q-16 -76 -9 -149.5t28.5 -139.5t66.5 -121.5t103.5 -96t140.5 -63t178 -22.5q215 0 391 110l57 334h-413l24 133h557l-96 -530q-245 -191 -555 -191q-220 0 -378.5 99.5t-224.5 267.5
t-30 371q28 154 110.5 291t200.5 236t271.5 156.5t316.5 57.5q123 0 245 -34t212 -113l-80 -123q-166 127 -383 127zM1077 1851h166l166 -284h-121l-143 196l-217 -196h-121z" />
    <glyph glyph-name="gcircumflex" unicode="&#x11d;" horiz-adv-x="1318" 
d="M1333 1020l-178 -1008q-20 -119 -78.5 -214t-142 -155t-184 -92t-209.5 -32q-140 0 -236.5 36t-175.5 105l84 121q128 -125 350 -125q171 0 291 97.5t150 271.5l32 178q-175 -226 -446 -226q-151 0 -255 72.5t-144 193t-15 267.5q20 110 73.5 207t131.5 169t181.5 114
t217.5 42q274 0 365 -225l35 203h153zM330 510q-30 -167 50.5 -281t248.5 -114q167 0 300.5 110t162.5 285q16 87 -2 161.5t-62.5 125.5t-111.5 79.5t-148 28.5q-167 0 -287.5 -113t-150.5 -282zM813 1481h166l182 -307h-121l-159 212l-238 -212h-121z" />
    <glyph glyph-name="Gbreve" unicode="&#x11e;" horiz-adv-x="1507" 
d="M1118 1313q-126 0 -238 -35t-194.5 -93.5t-146.5 -136.5t-101.5 -162.5t-52.5 -172.5q-16 -76 -9 -149.5t28.5 -139.5t66.5 -121.5t103.5 -96t140.5 -63t178 -22.5q215 0 391 110l57 334h-413l24 133h557l-96 -530q-245 -191 -555 -191q-220 0 -378.5 99.5t-224.5 267.5
t-30 371q28 154 110.5 291t200.5 236t271.5 156.5t316.5 57.5q123 0 245 -34t212 -113l-80 -123q-166 127 -383 127zM1329 1843q3 0 47 -3t47 -3q-35 -127 -125 -198.5t-190 -71.5t-163 71.5t-52 198.5q1 0 48 3t50 3q0 -83 34 -127.5t101 -44.5q68 0 121 44t82 128z" />
    <glyph glyph-name="gbreve" unicode="&#x11f;" horiz-adv-x="1318" 
d="M1333 1020l-178 -1008q-20 -119 -78.5 -214t-142 -155t-184 -92t-209.5 -32q-140 0 -236.5 36t-175.5 105l84 121q128 -125 350 -125q171 0 291 97.5t150 271.5l32 178q-175 -226 -446 -226q-151 0 -255 72.5t-144 193t-15 267.5q20 110 73.5 207t131.5 169t181.5 114
t217.5 42q274 0 365 -225l35 203h153zM330 510q-30 -167 50.5 -281t248.5 -114q167 0 300.5 110t162.5 285q16 87 -2 161.5t-62.5 125.5t-111.5 79.5t-148 28.5q-167 0 -287.5 -113t-150.5 -282zM1047 1473q0 -1 49 -5.5t49 -5.5q-23 -95 -76.5 -160.5t-115.5 -93.5
t-130 -28q-106 0 -171 71t-54 211q2 0 52 5.5t52 5.5q-6 -88 33 -132.5t109 -44.5t124.5 44.5t78.5 132.5z" />
    <glyph glyph-name="Gdotaccent" unicode="&#x120;" horiz-adv-x="1507" 
d="M1118 1313q-126 0 -238 -35t-194.5 -93.5t-146.5 -136.5t-101.5 -162.5t-52.5 -172.5q-16 -76 -9 -149.5t28.5 -139.5t66.5 -121.5t103.5 -96t140.5 -63t178 -22.5q215 0 391 110l57 334h-413l24 133h557l-96 -530q-245 -191 -555 -191q-220 0 -378.5 99.5t-224.5 267.5
t-30 371q28 154 110.5 291t200.5 236t271.5 156.5t316.5 57.5q123 0 245 -34t212 -113l-80 -123q-166 127 -383 127zM1028 1702q7 47 43.5 77.5t83.5 30.5q45 0 71.5 -31t16.5 -77q-7 -49 -43.5 -80t-81.5 -31q-48 0 -74 31t-16 80z" />
    <glyph glyph-name="gdotaccent" unicode="&#x121;" horiz-adv-x="1318" 
d="M1333 1020l-178 -1008q-20 -119 -78.5 -214t-142 -155t-184 -92t-209.5 -32q-140 0 -236.5 36t-175.5 105l84 121q128 -125 350 -125q171 0 291 97.5t150 271.5l32 178q-175 -226 -446 -226q-151 0 -255 72.5t-144 193t-15 267.5q20 110 73.5 207t131.5 169t181.5 114
t217.5 42q274 0 365 -225l35 203h153zM330 510q-30 -167 50.5 -281t248.5 -114q167 0 300.5 110t162.5 285q16 87 -2 161.5t-62.5 125.5t-111.5 79.5t-148 28.5q-167 0 -287.5 -113t-150.5 -282zM723 1313q11 50 47.5 82t83.5 32q48 0 74 -32.5t16 -81.5
q-11 -50 -47.5 -81.5t-83.5 -31.5q-48 0 -74 32t-16 81z" />
    <glyph glyph-name="Gcommaaccent" unicode="&#x122;" horiz-adv-x="1507" 
d="M1118 1313q-126 0 -238 -35t-194.5 -93.5t-146.5 -136.5t-101.5 -162.5t-52.5 -172.5q-16 -76 -9 -149.5t28.5 -139.5t66.5 -121.5t103.5 -96t140.5 -63t178 -22.5q215 0 391 110l57 334h-413l24 133h557l-96 -530q-245 -191 -555 -191q-220 0 -378.5 99.5t-224.5 267.5
t-30 371q28 154 110.5 291t200.5 236t271.5 156.5t316.5 57.5q123 0 245 -34t212 -113l-80 -123q-166 127 -383 127zM721 -483l-23 47q49 24 90.5 71t51.5 93q-22 -19 -60 -19q-34 0 -52.5 26t-12.5 58q8 41 38 65.5t74 24.5q54 0 78 -48t15 -93q-11 -70 -61.5 -130
t-137.5 -95z" />
    <glyph glyph-name="gcommaaccent" unicode="&#x123;" horiz-adv-x="1318" 
d="M1333 1020l-178 -1008q-20 -119 -78.5 -214t-142 -155t-184 -92t-209.5 -32q-140 0 -236.5 36t-175.5 105l84 121q128 -125 350 -125q170 0 289.5 97.5t151.5 271.5l32 178q-175 -226 -446 -226q-151 0 -255 72.5t-144 193t-15 267.5q20 110 73.5 207t131.5 169
t181.5 114t217.5 42q274 0 365 -225l35 203h153zM330 510q-30 -167 50.5 -281t248.5 -114q167 0 300.5 110t162.5 285q16 87 -2 161.5t-62.5 125.5t-111.5 79.5t-148 28.5q-167 0 -287.5 -113t-150.5 -282zM936 1599l18 -59q-47 -24 -79 -50t-48.5 -53t-23 -44t-12.5 -43
q16 8 45 8q40 0 62.5 -28t16.5 -64q-8 -46 -42 -77.5t-85 -31.5q-35 0 -59.5 16.5t-34 41t-13.5 52t3 48.5q36 196 252 284z" />
    <glyph glyph-name="Hcircumflex" unicode="&#x124;" horiz-adv-x="1474" 
d="M1212 616h-737l-106 -616h-158l252 1434h158l-121 -686h737l121 686h158l-252 -1434h-158zM983 1851h166l168 -284h-121l-145 196l-215 -196h-121z" />
    <glyph glyph-name="hcircumflex" unicode="&#x125;" 
d="M930 0l102 580q13 92 4 154.5t-43 100.5t-75.5 54t-92.5 16q-37 0 -80.5 -10.5t-97 -39t-99.5 -72.5t-85.5 -118.5t-56.5 -168.5l-87 -496h-153l260 1481h154l-119 -678q39 79 106.5 134t142 80t152.5 25q86 0 152.5 -25t114.5 -80.5t62 -143.5t-5 -213l-103 -580h-153z
M487 1851h166l168 -284h-121l-145 196l-215 -196h-121z" />
    <glyph glyph-name="Hbar" unicode="&#x126;" horiz-adv-x="1474" 
d="M1212 616h-737l-106 -616h-158l174 983h-139l16 102h139l62 349h158l-62 -349h737l62 349h158l-62 -349h143l-16 -102h-143l-174 -983h-158zM500 748h737l43 235h-737z" />
    <glyph glyph-name="hbar" unicode="&#x127;" 
d="M930 0l102 580q13 92 4 154.5t-43 100.5t-75.5 54t-92.5 16q-37 0 -80.5 -10.5t-97 -39t-99.5 -72.5t-85.5 -118.5t-56.5 -168.5l-87 -496h-153l207 1182h-137l16 88h137l37 211h154l-37 -211h284l-16 -88h-285l-65 -379q39 79 106.5 134t142 80t152.5 25q86 0 152.5 -25
t114.5 -80.5t62 -143.5t-5 -213l-103 -580h-153z" />
    <glyph glyph-name="Itilde" unicode="&#x128;" horiz-adv-x="579" 
d="M621 1434l-252 -1434h-158l252 1434h158zM711 1612q-47 0 -129 43t-117 43t-57 -20.5t-60 -80.5l-69 21q49 106 93.5 148t106.5 42q46 0 128.5 -42t115.5 -42q36 0 60 21t57 78l69 -21q-47 -104 -92 -147t-106 -43z" />
    <glyph glyph-name="itilde" unicode="&#x129;" horiz-adv-x="497" 
d="M504 1020l-178 -1020h-154l178 1020h154zM596 1237q-47 0 -129.5 42t-118.5 42q-34 0 -55 -19.5t-60 -78.5l-69 18q50 107 93.5 150t104.5 43q46 0 129 -43t117 -43q36 0 60 20.5t57 77.5l66 -21q-42 -102 -88 -145t-107 -43z" />
    <glyph glyph-name="Imacron" unicode="&#x12a;" horiz-adv-x="579" 
d="M621 1434l-252 -1434h-158l252 1434h158zM328 1743h540l-20 -123h-541z" />
    <glyph glyph-name="imacron" unicode="&#x12b;" horiz-adv-x="497" 
d="M504 1020l-178 -1020h-154l178 1020h154zM219 1384h541l-23 -122h-540z" />
    <glyph glyph-name="Ibreve" unicode="&#x12c;" horiz-adv-x="579" 
d="M621 1434l-252 -1434h-158l252 1434h158zM786 1843q3 0 47.5 -3t47.5 -3q-35 -128 -124 -199t-190 -71q-100 0 -164 71.5t-53 198.5l48 3q48 3 51 3q0 -82 35 -127t102 -45q68 0 119.5 44t80.5 128z" />
    <glyph glyph-name="ibreve" unicode="&#x12d;" horiz-adv-x="497" 
d="M504 1020l-178 -1020h-154l178 1020h154zM676 1473q1 -1 26 -3.5t49.5 -4.5t24.5 -3q-23 -95 -76.5 -160.5t-116 -93.5t-130.5 -28q-107 0 -171 70.5t-53 211.5q2 0 51.5 5.5t51.5 5.5q-6 -89 33 -133t108 -44q70 0 124.5 44.5t78.5 132.5z" />
    <glyph glyph-name="Iogonek" unicode="&#x12e;" horiz-adv-x="577" 
d="M618 1434l-249 -1409q-155 -68 -191 -220q-13 -69 25.5 -108t95.5 -39q132 0 209 145l70 -43q-38 -94 -122 -156.5t-182 -62.5q-65 0 -118 24t-83.5 79t-17.5 133q9 52 47 111.5t109 111.5l250 1434h157z" />
    <glyph glyph-name="iogonek" unicode="&#x12f;" horiz-adv-x="501" 
d="M506 1020l-180 -1016q-110 -20 -175.5 -79t-78.5 -128q-10 -63 27.5 -101t95.5 -38q63 0 119.5 38.5t88.5 104.5l72 -41q-40 -95 -122.5 -157t-182.5 -62q-64 0 -115.5 24t-81 79t-16.5 133q14 71 67.5 137t149.5 100l178 1006h154zM379 1362q11 50 47.5 82.5t83.5 32.5
q48 0 75 -33t17 -82t-48 -81t-85 -32q-48 0 -74 32t-16 81z" />
    <glyph glyph-name="Idotaccent" unicode="&#x130;" horiz-adv-x="579" 
d="M621 1434l-252 -1434h-158l252 1434h158zM483 1702q7 47 43.5 77.5t83.5 30.5q45 0 70.5 -31t15.5 -77q-7 -49 -43.5 -80t-81.5 -31q-48 0 -73 31t-15 80z" />
    <glyph glyph-name="dotlessi" unicode="&#x131;" horiz-adv-x="501" 
d="M506 1020l-178 -1020h-154l178 1020h154z" />
    <glyph glyph-name="IJ" unicode="&#x132;" horiz-adv-x="1949" 
d="M621 1434l-252 -1434h-158l252 1434h158zM2017 1434l-137 -785q-57 -327 -239 -499.5t-461 -172.5q-93 0 -169 19.5t-127.5 55t-89 83.5t-53.5 105t-20.5 120.5t10.5 128.5q6 31 25.5 84.5t38.5 79.5h155q-42 -66 -59 -155q-8 -59 -6 -114t24 -103t58 -83.5t96.5 -56
t138.5 -20.5q208 0 340.5 137t177.5 391l140 785h157z" />
    <glyph glyph-name="ij" unicode="&#x133;" horiz-adv-x="1077" 
d="M506 1020l-178 -1020h-154l178 1020h154zM379 1362q11 50 47.5 82.5t83.5 32.5q48 0 75 -33t17 -82t-48 -81t-85 -32q-48 0 -74 32t-16 81zM717 -174l211 1194h153l-213 -1200q-14 -79 -50 -139t-85.5 -94t-104.5 -51t-114 -17q-133 0 -197 72.5t-45 181.5l9 32
q17 51 22 60h143q-17 -29 -26 -74q-10 -64 23.5 -99.5t93.5 -35.5q150 0 180 170zM956 1362q11 50 46.5 82.5t82.5 32.5q48 0 75.5 -33t17.5 -82t-48.5 -81t-85.5 -32q-48 0 -73 32t-15 81z" />
    <glyph glyph-name="Jcircumflex" unicode="&#x134;" horiz-adv-x="1370" 
d="M1436 1434l-138 -785q-57 -327 -238 -499.5t-460 -172.5q-93 0 -169 19.5t-127.5 55t-89 83.5t-53 105t-20 120.5t10.5 128.5q6 31 25 84.5t38 79.5h156q-43 -68 -60 -155q-8 -59 -6 -114t24.5 -103t58.5 -83.5t96.5 -56t138.5 -20.5q208 0 340.5 137t177.5 391l139 785
h156zM1348 1851h165l168 -284h-120l-146 196l-215 -196h-121z" />
    <glyph glyph-name="jcircumflex" unicode="&#x135;" horiz-adv-x="573" 
d="M215 -174l211 1194h154l-213 -1200q-14 -79 -50 -139t-85.5 -94t-104 -51t-113.5 -17q-131 0 -194.5 72.5t-44.5 181.5l8 32q17 51 22 60h144q-18 -31 -27 -74q-10 -63 23 -99t90 -36q150 0 180 170zM496 1481h166l182 -307h-121l-160 212l-237 -212h-121z" />
    <glyph glyph-name="Kcommaaccent" unicode="&#x136;" horiz-adv-x="1275" 
d="M471 -483l-20 47q49 24 90.5 71t48.5 93q-22 -19 -60 -19q-34 0 -52.5 26t-12.5 58q7 41 38 65.5t75 24.5q38 0 62.5 -25.5t31 -57t0.5 -58.5q-11 -70 -62 -130t-139 -95zM492 717l675 717h176l-2 -13l-704 -743l160 -260q10 -16 41 -64.5t46 -71t45 -60.5t52.5 -56.5
t54 -33.5t62.5 -15q85 0 166 53l41 -113q-47 -38 -121 -59t-127 -21q-63 0 -114 19t-94.5 63.5t-63 70.5t-56.5 84q-7 10 -10 15l-242 402l-110 -631h-158l252 1434h157z" />
    <glyph glyph-name="kcommaaccent" unicode="&#x137;" horiz-adv-x="1073" 
d="M403 -483l-20 47q49 24 90.5 71t48.5 93q-22 -19 -59 -19q-34 0 -53 26t-13 58q7 41 38 65.5t75 24.5q38 0 62.5 -25.5t31 -57t0.5 -58.5q-11 -70 -62 -130t-139 -95zM422 588l465 432h184l-2 -14l-500 -459l162 -283q48 -80 67 -101q46 -50 115 -50q81 0 138 41l34 -107
q-86 -70 -213 -70q-61 0 -107.5 16.5t-81 54t-48 58.5t-38.5 68q-3 5 -5 8.5t-4 7.5l-178 336l-93 -526h-153l260 1481h154z" />
    <glyph glyph-name="kgreenlandic" unicode="&#x138;" horiz-adv-x="1073" 
d="M412 535l546 485h170l-2 -12l-569 -506l221 -303q33 -47 62 -68.5t73 -21.5q51 0 119 45l39 -107q-89 -70 -209 -70q-37 0 -66 8.5t-54.5 30.5t-40 38.5t-43.5 55.5t-44 58l-211 295l-81 -463h-156l178 1020h154z" />
    <glyph glyph-name="Lacute" unicode="&#x139;" horiz-adv-x="1071" 
d="M1061 131l-21 -131h-829l252 1434h158l-232 -1303h672zM694 1851h168l-252 -284h-131z" />
    <glyph glyph-name="lacute" unicode="&#x13a;" horiz-adv-x="501" 
d="M588 1481l-260 -1481h-154l260 1481h154zM649 1851h168l-252 -284h-131z" />
    <glyph glyph-name="Lcommaaccent" unicode="&#x13b;" horiz-adv-x="1071" 
d="M1061 131l-21 -131h-829l252 1434h158l-232 -1303h672zM477 -483l-20 47q49 24 90.5 71t48.5 93q-22 -19 -59 -19q-34 0 -53 26t-13 58q7 41 38 65.5t75 24.5q38 0 62.5 -25.5t31 -57t0.5 -58.5q-11 -70 -62 -130t-139 -95z" />
    <glyph glyph-name="lcommaaccent" unicode="&#x13c;" horiz-adv-x="501" 
d="M588 1481l-260 -1481h-154l260 1481h154zM113 -483l-21 47q49 24 90.5 71t48.5 93q-22 -19 -59 -19q-34 0 -53 26t-13 58q7 41 38 65.5t75 24.5q38 0 62.5 -25.5t31 -57t0.5 -58.5q-11 -70 -61.5 -130t-138.5 -95z" />
    <glyph glyph-name="Lcaron" unicode="&#x13d;" horiz-adv-x="1069" 
d="M1059 131l-21 -131h-829l252 1434h157l-231 -1303h672zM866 1116l-18 47q49 24 90.5 71t48.5 93q-21 -18 -59 -18q-34 0 -53 26t-13 58q7 41 38 65.5t75 24.5q38 0 62.5 -26t31 -57.5t0.5 -58.5q-11 -69 -62.5 -129.5t-140.5 -95.5z" />
    <glyph glyph-name="lcaron" unicode="&#x13e;" horiz-adv-x="497" 
d="M588 1481l-260 -1481h-154l260 1481h154zM694 1116l-18 47q49 24 90.5 71t48.5 93q-21 -18 -59 -18q-34 0 -53 26t-13 58q7 41 38 65.5t75 24.5q38 0 62.5 -26t31 -57.5t0.5 -58.5q-11 -69 -62.5 -129.5t-140.5 -95.5z" />
    <glyph glyph-name="Ldot" unicode="&#x13f;" horiz-adv-x="1097" 
d="M811 653q7 47 45 78t86 31q47 0 71.5 -30.5t16.5 -78.5q-7 -47 -44 -77.5t-85 -30.5q-47 0 -72.5 30.5t-17.5 77.5zM1061 131l-21 -131h-829l252 1434h158l-232 -1303h672z" />
    <glyph glyph-name="ldot" unicode="&#x140;" horiz-adv-x="614" 
d="M567 653q7 47 45 78t86 31q47 0 71.5 -30.5t16.5 -78.5q-7 -47 -44 -77.5t-85 -30.5q-47 0 -72.5 30.5t-17.5 77.5zM588 1481l-260 -1481h-154l260 1481h154z" />
    <glyph glyph-name="Lslash" unicode="&#x141;" horiz-adv-x="1079" 
d="M629 1434l-115 -662l358 143l-20 -108l-358 -143l-97 -533h672l-20 -131h-830l103 596l-201 -82l18 109l203 82l129 729h158z" />
    <glyph glyph-name="lslash" unicode="&#x142;" horiz-adv-x="591" 
d="M612 1481l-133 -746l232 94l-21 -108l-229 -94l-111 -627h-153l98 561l-178 -72l18 107l178 74l146 811h153z" />
    <glyph glyph-name="Nacute" unicode="&#x143;" horiz-adv-x="1546" 
d="M1217 0l-646 1149l-202 -1149h-158l252 1434h121l643 -1145l203 1145h157l-252 -1434h-118zM1155 1851h168l-252 -284h-131z" />
    <glyph glyph-name="nacute" unicode="&#x144;" 
d="M930 0l102 580q13 92 4 154.5t-43 100.5t-75.5 54t-92.5 16q-37 0 -80.5 -10.5t-97 -39t-99.5 -72.5t-85.5 -118.5t-56.5 -168.5l-87 -496h-153l178 1020h154l-37 -217q39 79 106.5 134t142 80t152.5 25q86 0 152.5 -25t114.5 -80.5t62 -143.5t-5 -213l-103 -580h-153z
M952 1481h176l-280 -307h-133z" />
    <glyph glyph-name="Ncommaaccent" unicode="&#x145;" horiz-adv-x="1546" 
d="M1217 0l-646 1149l-202 -1149h-158l252 1434h121l643 -1145l203 1145h157l-252 -1434h-118zM627 -483l-21 47q49 24 90.5 71t48.5 93q-22 -19 -59 -19q-34 0 -52.5 26t-12.5 58q8 41 38 65.5t74 24.5q38 0 62.5 -25.5t31 -57t0.5 -58.5q-11 -70 -61.5 -130t-138.5 -95z
" />
    <glyph glyph-name="ncommaaccent" unicode="&#x146;" 
d="M930 0l102 580q13 92 4 154.5t-43 100.5t-75.5 54t-92.5 16q-37 0 -80.5 -10.5t-97 -39t-99.5 -72.5t-85.5 -118.5t-56.5 -168.5l-87 -496h-153l178 1020h154l-37 -217q39 79 106.5 134t142 80t152.5 25q86 0 152.5 -25t114.5 -80.5t62 -143.5t-5 -213l-103 -580h-153z
M469 -483l-20 47q49 24 90.5 71t48.5 93q-22 -19 -60 -19q-34 0 -52.5 26t-12.5 58q8 41 38 65.5t74 24.5q38 0 62.5 -25.5t31 -57t1.5 -58.5q-11 -70 -62 -130t-139 -95z" />
    <glyph glyph-name="Ncaron" unicode="&#x147;" horiz-adv-x="1546" 
d="M1217 0l-646 1149l-202 -1149h-158l252 1434h121l643 -1145l203 1145h157l-252 -1434h-118zM1114 1567h-166l-166 284h121l144 -198l217 198h120z" />
    <glyph glyph-name="ncaron" unicode="&#x148;" 
d="M930 0l102 580q13 92 4 154.5t-43 100.5t-75.5 54t-92.5 16q-37 0 -80.5 -10.5t-97 -39t-99.5 -72.5t-85.5 -118.5t-56.5 -168.5l-87 -496h-153l178 1020h154l-37 -217q39 79 106.5 134t142 80t152.5 25q86 0 152.5 -25t114.5 -80.5t62 -143.5t-5 -213l-103 -580h-153z
M934 1174h-164l-182 307h121l161 -213l236 213h121z" />
    <glyph glyph-name="napostrophe" unicode="&#x149;" horiz-adv-x="1349" 
d="M1077 0l101 580q13 92 4.5 154.5t-41.5 100.5t-74.5 54t-93.5 16q-38 0 -81.5 -10.5t-97.5 -39t-99.5 -72.5t-85 -118.5t-58.5 -168.5l-84 -496h-154l179 1020h153l-37 -217q59 117 169 178t233 61q86 0 152 -25t113.5 -80.5t61 -143.5t-5.5 -213l-102 -580h-152z
M274 1063l-20 59q151 77 164 191q-19 -8 -47 -8q-40 0 -61 27.5t-15 64.5q6 45 41.5 76.5t87.5 31.5q46 0 72.5 -28t28.5 -63t-1 -66q-36 -195 -250 -285z" />
    <glyph glyph-name="Eng" unicode="&#x14a;" horiz-adv-x="1542" 
d="M1149 201q-98 159 -289.5 479.5t-288.5 478.5l-204 -1159h-158l252 1434h114l660 -1096l192 1096h156l-215 -1223q-60 -338 -234.5 -512.5t-451.5 -179.5q8 49 20 143q353 9 476 408q7 44 1 69.5t-30 61.5z" />
    <glyph glyph-name="eng" unicode="&#x14b;" horiz-adv-x="1230" 
d="M1182 580l-82 -459q-54 -291 -209.5 -444t-392.5 -158l20 135q167 5 278 118.5t146 321.5l86 486q13 92 4.5 154.5t-41.5 100.5t-74.5 54t-93.5 16q-37 0 -80.5 -10.5t-97.5 -39t-100 -72.5t-85.5 -118.5t-56.5 -168.5l-86 -496h-153l178 1020h154l-37 -217
q39 79 106.5 134t142 80t152.5 25q86 0 152 -25t114 -80.5t61.5 -143.5t-5.5 -213z" />
    <glyph glyph-name="Omacron" unicode="&#x14c;" horiz-adv-x="1687" 
d="M225 717q35 200 165.5 370.5t319.5 269.5t390 99q151 0 278 -58.5t208.5 -157.5t116.5 -236t9 -287q-27 -150 -110 -287t-200.5 -236.5t-265.5 -158t-298 -58.5q-151 0 -278 58.5t-209 158t-117 236.5t-9 287zM387 717q-22 -123 4 -234t90.5 -190t163.5 -125.5t217 -46.5
q242 0 442 172.5t246 423.5q22 124 -5 234.5t-91.5 189.5t-163.5 125.5t-217 46.5q-157 0 -304 -78t-250 -215.5t-132 -302.5zM881 1743h540l-20 -123h-541z" />
    <glyph glyph-name="omacron" unicode="&#x14d;" horiz-adv-x="1243" 
d="M174 510q24 144 118 266.5t231 194t282 71.5q146 0 256 -72t159 -194t25 -266q-27 -145 -121 -268t-229.5 -194t-280.5 -71q-108 0 -199.5 42t-151 113t-84.5 170t-5 208zM328 508q-29 -164 62.5 -278.5t248.5 -114.5q159 0 291.5 114.5t161.5 278.5t-63.5 280.5
t-250.5 116.5q-156 0 -288.5 -116.5t-161.5 -280.5zM594 1384h541l-23 -122h-541z" />
    <glyph glyph-name="Obreve" unicode="&#x14e;" horiz-adv-x="1687" 
d="M225 717q35 200 165.5 370.5t319.5 269.5t390 99q151 0 278 -58.5t208.5 -157.5t116.5 -236t9 -287q-27 -150 -110 -287t-200.5 -236.5t-265.5 -158t-298 -58.5q-151 0 -278 58.5t-209 158t-117 236.5t-9 287zM387 717q-22 -123 4 -234t90.5 -190t163.5 -125.5t217 -46.5
q242 0 442 172.5t246 423.5q22 124 -5 234.5t-91.5 189.5t-163.5 125.5t-217 46.5q-157 0 -304 -78t-250 -215.5t-132 -302.5zM1337 1843q3 0 47.5 -3t47.5 -3q-35 -127 -125.5 -198.5t-190.5 -71.5t-163 71.5t-52 198.5q1 0 48 3t50 3q0 -83 34.5 -127.5t101.5 -44.5
q68 0 120.5 44t81.5 128z" />
    <glyph glyph-name="obreve" unicode="&#x14f;" horiz-adv-x="1243" 
d="M174 510q24 144 118 266.5t231 194t282 71.5q146 0 256 -72t159 -194t25 -266q-27 -145 -121 -268t-229.5 -194t-280.5 -71q-108 0 -199.5 42t-151 113t-84.5 170t-5 208zM328 508q-29 -164 62.5 -278.5t248.5 -114.5q159 0 291.5 114.5t161.5 278.5t-63.5 280.5
t-250.5 116.5q-156 0 -288.5 -116.5t-161.5 -280.5zM1053 1473q0 -1 49 -5.5t49 -5.5q-23 -95 -76.5 -160.5t-115.5 -93.5t-130 -28q-106 0 -171 71t-54 211q2 0 52.5 5.5t52.5 5.5q-6 -89 33 -133t108 -44q70 0 124.5 44.5t78.5 132.5z" />
    <glyph glyph-name="Ohungarumlaut" unicode="&#x150;" horiz-adv-x="1687" 
d="M225 717q35 200 165.5 370.5t319.5 269.5t390 99q151 0 278 -58.5t208.5 -157.5t116.5 -236t9 -287q-27 -150 -110 -287t-200.5 -236.5t-265.5 -158t-298 -58.5q-151 0 -278 58.5t-209 158t-117 236.5t-9 287zM387 717q-22 -123 4 -234t90.5 -190t163.5 -125.5t217 -46.5
q242 0 442 172.5t246 423.5q22 124 -5 234.5t-91.5 189.5t-163.5 125.5t-217 46.5q-157 0 -304 -78t-250 -215.5t-132 -302.5zM1116 1851h150l-238 -284h-133zM1432 1851h149l-238 -284h-133z" />
    <glyph glyph-name="ohungarumlaut" unicode="&#x151;" horiz-adv-x="1243" 
d="M174 510q24 144 118 266.5t231 194t282 71.5q146 0 256 -72t159 -194t25 -266q-27 -145 -121 -268t-229.5 -194t-280.5 -71q-108 0 -199.5 42t-151 113t-84.5 170t-5 208zM328 508q-29 -164 62.5 -278.5t248.5 -114.5q159 0 291.5 114.5t161.5 278.5t-63.5 280.5
t-250.5 116.5q-156 0 -288.5 -116.5t-161.5 -280.5zM805 1481h149l-254 -307h-133zM1120 1481h150l-254 -307h-133z" />
    <glyph glyph-name="OE" unicode="&#x152;" horiz-adv-x="2004" 
d="M852 131h190l209 1172h-190q-158 0 -301 -72t-242.5 -204t-128.5 -296q-29 -165 21.5 -302.5t167.5 -217.5t274 -80zM1903 0h-1072q-151 0 -277 57.5t-206.5 155t-114 233t-6.5 285.5q37 201 162 362t307.5 251t386.5 90h1071l-22 -131h-723l-94 -529h629l-25 -131h-629
l-90 -512h-2h725z" />
    <glyph glyph-name="oe" unicode="&#x153;" horiz-adv-x="1951" 
d="M1784 248q51 -63 71 -92q-201 -179 -466 -179q-255 0 -375 156q-184 -156 -402 -156q-145 0 -254.5 71t-158.5 193t-25 267q27 145 120 268t228.5 194.5t280.5 71.5q214 0 344 -159q80 75 184.5 117t220.5 42q102 0 185.5 -32t143 -95t83 -166.5t2.5 -236.5h-874
q0 -12 -2 -16q-30 -166 55 -274.5t268 -108.5q198 0 371 135zM326 508q-29 -164 62.5 -278.5t248.5 -114.5q174 0 311 137q-36 118 -12 254q21 123 104 258q-43 65 -111 103t-153 38q-156 0 -288.5 -116.5t-161.5 -280.5zM1532 907q-128 0 -234.5 -67.5t-175.5 -208.5h709
q-2 76 -29 132t-71.5 86t-93.5 44t-105 14z" />
    <glyph glyph-name="Racute" unicode="&#x154;" horiz-adv-x="1388" 
d="M367 0h-158l252 1434h588q128 0 214 -62.5t117 -162.5t9 -218q-30 -166 -144 -284t-280 -142q-6 -67 2 -141t31 -146t73 -118.5t119 -46.5q93 0 172 59q7 -28 37 -111q-105 -84 -242 -84q-68 0 -123.5 23t-91.5 61t-64 88.5t-40.5 105t-21 110.5t-6.5 105.5t3 88.5h-348z
M487 690h400q132 0 224.5 84.5t117.5 218.5t-39 222t-195 88h-399zM1038 1851h168l-252 -284h-131z" />
    <glyph glyph-name="racute" unicode="&#x155;" horiz-adv-x="722" 
d="M498 1020l-43 -246q55 126 145 197t205 71q40 0 80 -16l-27 -152q-38 21 -92 21q-43 0 -85.5 -15t-88 -52t-83.5 -93t-70.5 -145t-51.5 -201l-68 -389h-153l178 1020h154zM610 1481h176l-280 -307h-133z" />
    <glyph glyph-name="Rcommaaccent" unicode="&#x156;" horiz-adv-x="1388" 
d="M367 0h-158l252 1434h588q128 0 214 -62.5t117 -162.5t9 -218q-30 -166 -144 -284t-280 -142q-6 -67 2 -141t31 -146t73 -118.5t119 -46.5q93 0 172 59q7 -28 37 -111q-105 -84 -242 -84q-68 0 -123.5 23t-91.5 61t-64 88.5t-40.5 105t-21 110.5t-6.5 105.5t3 88.5h-348z
M487 690h400q132 0 224.5 84.5t117.5 218.5t-39 222t-195 88h-399zM532 -483l-20 47q49 24 90.5 71t48.5 93q-22 -19 -59 -19q-34 0 -53 26t-13 58q7 41 38 65.5t75 24.5q38 0 62.5 -25.5t31 -57t0.5 -58.5q-11 -70 -62 -130t-139 -95z" />
    <glyph glyph-name="rcommaaccent" unicode="&#x157;" horiz-adv-x="722" 
d="M498 1020l-43 -246q55 126 145 197t205 71q40 0 80 -16l-27 -152q-38 21 -92 21q-43 0 -85.5 -15t-88 -52t-83.5 -93t-70.5 -145t-51.5 -201l-68 -389h-153l178 1020h154zM109 -483l-21 47q49 24 90.5 71t48.5 93q-22 -19 -59 -19q-34 0 -53 26t-13 58q7 41 38 65.5
t75 24.5q38 0 62.5 -25.5t31 -57t0.5 -58.5q-11 -70 -61.5 -130t-138.5 -95z" />
    <glyph glyph-name="Rcaron" unicode="&#x158;" horiz-adv-x="1388" 
d="M367 0h-158l252 1434h588q128 0 214 -62.5t117 -162.5t9 -218q-30 -166 -144 -284t-280 -142q-6 -67 2 -141t31 -146t73 -118.5t119 -46.5q93 0 172 59q7 -28 37 -111q-105 -84 -242 -84q-68 0 -123.5 23t-91.5 61t-64 88.5t-40.5 105t-21 110.5t-6.5 105.5t3 88.5h-348z
M487 690h400q132 0 224.5 84.5t117.5 218.5t-39 222t-195 88h-399zM1006 1567h-166l-166 284h121l143 -198l217 198h121z" />
    <glyph glyph-name="rcaron" unicode="&#x159;" horiz-adv-x="722" 
d="M498 1020l-43 -246q55 126 145 197t205 71q40 0 80 -16l-27 -152q-38 21 -92 21q-43 0 -85.5 -15t-88 -52t-83.5 -93t-70.5 -145t-51.5 -201l-68 -389h-153l178 1020h154zM705 1174h-164l-183 307h121l162 -213l236 213h120z" />
    <glyph glyph-name="Sacute" unicode="&#x15a;" horiz-adv-x="1177" 
d="M987 1851h168l-254 -284h-131zM823 1313q-122 0 -218 -65t-116 -175q-7 -26 -2 -57t18.5 -60t53 -58.5t100.5 -53.5l218 -82q149 -50 225 -153t53 -226q-29 -179 -187.5 -292.5t-379.5 -113.5q-201 0 -321 95t-138 239l158 39q13 -95 98 -162t225 -67q152 0 257.5 72
t123.5 180q16 90 -39.5 155t-150.5 97l-217 77q-307 106 -258 367q21 116 101 205.5t191.5 135.5t233.5 46q179 0 277 -87.5t106 -233.5l-152 -43q-6 109 -71.5 165t-188.5 56z" />
    <glyph glyph-name="sacute" unicode="&#x15b;" horiz-adv-x="884" 
d="M903 821l-145 -33q-19 119 -142 119q-86 0 -145 -46.5t-70 -110.5q-17 -102 115 -148l143 -49q122 -41 168 -113.5t27 -165.5q-24 -134 -144 -215.5t-268 -81.5q-135 0 -227.5 64.5t-105.5 179.5l141 35q10 -65 70 -104t147 -39q88 0 153.5 44.5t77.5 116.5q10 57 -19 91
t-97 59l-138 47q-231 79 -198 272q21 126 128 212.5t257 86.5q69 0 127 -22t99 -73.5t46 -125.5zM776 1481h176l-280 -307h-133z" />
    <glyph glyph-name="Scircumflex" unicode="&#x15c;" horiz-adv-x="1177" 
d="M831 1851h166l166 -284h-121l-143 196l-217 -196h-121zM823 1313q-122 0 -218 -65t-116 -175q-7 -26 -2 -57t18.5 -60t53 -58.5t100.5 -53.5l218 -82q149 -50 225 -153t53 -226q-29 -179 -187.5 -292.5t-379.5 -113.5q-201 0 -321 95t-138 239l158 39q13 -95 98 -162
t225 -67q152 0 257.5 72t123.5 180q16 90 -39.5 155t-150.5 97l-217 77q-307 106 -258 367q21 116 101 205.5t191.5 135.5t233.5 46q179 0 277 -87.5t106 -233.5l-152 -43q-6 109 -71.5 165t-188.5 56z" />
    <glyph glyph-name="scircumflex" unicode="&#x15d;" horiz-adv-x="884" 
d="M903 821l-145 -33q-19 119 -142 119q-86 0 -145 -46.5t-70 -110.5q-17 -102 115 -148l143 -49q122 -41 168 -113.5t27 -165.5q-24 -134 -144 -215.5t-268 -81.5q-135 0 -227.5 64.5t-105.5 179.5l141 35q10 -65 70 -104t147 -39q88 0 153.5 44.5t77.5 116.5q10 57 -19 91
t-97 59l-138 47q-231 79 -198 272q21 126 128 212.5t257 86.5q69 0 127 -22t99 -73.5t46 -125.5zM629 1481h166l182 -307h-121l-160 212l-237 -212h-121z" />
    <glyph glyph-name="Scedilla" unicode="&#x15e;" horiz-adv-x="1177" 
d="M823 1313q-122 0 -218 -65t-116 -175q-7 -26 -2 -57t18.5 -60t53 -58.5t100.5 -53.5l218 -82q149 -50 225 -153t53 -226q-29 -155 -152.5 -262.5t-302.5 -132.5q81 -95 60 -211q-19 -114 -109 -175t-192 -61q-97 0 -156.5 62t-64.5 157l77 43q26 -145 160 -145
q59 0 110 39t64 108q16 92 -37 172h-24q-201 0 -321 95t-138 239l158 39q13 -95 98 -162t225 -67q152 0 257.5 72t123.5 180q16 90 -39.5 155t-150.5 97l-217 77q-307 106 -258 367q21 116 101 205.5t191.5 135.5t233.5 46q179 0 277 -87.5t106 -233.5l-152 -43
q-6 109 -71.5 165t-188.5 56z" />
    <glyph glyph-name="scedilla" unicode="&#x15f;" horiz-adv-x="884" 
d="M903 821l-145 -33q-19 119 -142 119q-86 0 -145 -46.5t-70 -110.5q-17 -102 115 -148l143 -49q122 -41 168 -113.5t27 -165.5q-20 -116 -117 -195t-219 -95q72 -91 51 -207q-19 -114 -109 -175t-192 -61q-97 0 -156.5 62t-64.5 157l80 43q23 -145 158 -145q59 0 110 39
t64 108q16 92 -37 172q-128 5 -214 68.5t-99 175.5l141 35q12 -66 71 -104.5t146 -38.5q88 0 154.5 44.5t78.5 116.5q10 57 -20 91t-98 59l-138 47q-231 79 -198 272q21 126 128 212.5t257 86.5q69 0 127 -22t99 -73.5t46 -125.5z" />
    <glyph glyph-name="Scaron" unicode="&#x160;" horiz-adv-x="1177" 
d="M936 1567h-166l-164 284h121l143 -198l217 198h121zM823 1313q-122 0 -218 -65t-116 -175q-7 -26 -2 -57t18.5 -60t53 -58.5t100.5 -53.5l218 -82q149 -50 225 -153t53 -226q-29 -179 -187.5 -292.5t-379.5 -113.5q-201 0 -321 95t-138 239l158 39q13 -95 98 -162
t225 -67q152 0 257.5 72t123.5 180q16 90 -39.5 155t-150.5 97l-217 77q-307 106 -258 367q21 116 101 205.5t191.5 135.5t233.5 46q179 0 277 -87.5t106 -233.5l-152 -43q-6 109 -71.5 165t-188.5 56z" />
    <glyph glyph-name="scaron" unicode="&#x161;" horiz-adv-x="884" 
d="M903 821l-145 -33q-19 119 -142 119q-86 0 -145 -46.5t-70 -110.5q-17 -102 115 -148l143 -49q122 -41 168 -113.5t27 -165.5q-24 -134 -144 -215.5t-268 -81.5q-135 0 -227.5 64.5t-105.5 179.5l141 35q10 -65 70 -104t147 -39q88 0 153.5 44.5t77.5 116.5q10 57 -19 91
t-97 59l-138 47q-231 79 -198 272q21 126 128 212.5t257 86.5q69 0 127 -22t99 -73.5t46 -125.5zM739 1174h-164l-182 307h121l162 -213l235 213h121z" />
    <glyph glyph-name="Tcommaaccent" unicode="&#x162;" horiz-adv-x="1228" 
d="M287 1434h1159l-23 -131h-501l-230 -1303h-157l229 1303h-500zM473 -483l-20 47q49 24 90.5 71t48.5 93q-19 -19 -57 -19q-34 0 -54 26t-14 58q7 41 38 65.5t75 24.5q38 0 62.5 -25.5t31 -57t0.5 -58.5q-11 -70 -62 -130t-139 -95z" />
    <glyph glyph-name="tcommaaccent" unicode="&#x163;" horiz-adv-x="829" 
d="M522 897l-106 -590q-19 -101 18 -146.5t101 -45.5q65 0 112.5 35t57.5 98q8 39 0 74h141q4 -12 4 -60l-4 -33q-19 -110 -110 -181t-228 -71q-48 0 -88 9.5t-77 33t-57.5 62t-29.5 97t8 138.5l105 580h-172l20 123h172l90 309h117l-53 -309h331l-20 -123h-332zM362 -483
l-22 47q50 24 92 71.5t49 92.5q-22 -19 -59 -19q-34 0 -53 26t-13 58q7 41 38 65.5t75 24.5q38 0 62.5 -25.5t31 -57t0.5 -58.5q-11 -69 -62.5 -129.5t-138.5 -95.5z" />
    <glyph glyph-name="Tcaron" unicode="&#x164;" horiz-adv-x="1228" 
d="M287 1434h1159l-23 -131h-501l-230 -1303h-157l229 1303h-500zM973 1567h-166l-166 284h121l143 -198l217 198h121z" />
    <glyph glyph-name="tcaron" unicode="&#x165;" horiz-adv-x="829" 
d="M522 897l-106 -590q-19 -101 18 -146.5t101 -45.5q65 0 112.5 35t57.5 98q8 39 0 74h141q4 -12 4 -60l-4 -33q-19 -110 -110 -181t-228 -71q-48 0 -88 9.5t-77 33t-57.5 62t-29.5 97t8 138.5l105 580h-172l20 123h172l90 309h117l-53 -309h331l-20 -123h-332zM846 1147
l-23 59q47 23 79.5 49t49.5 53.5t24 45.5t13 43q-16 -8 -45 -8q-40 0 -63 28t-17 64q8 46 42 77t85 31q35 0 59.5 -16.5t33.5 -40.5t13.5 -51.5t-1.5 -48.5q-36 -193 -250 -285z" />
    <glyph glyph-name="Tbar" unicode="&#x166;" horiz-adv-x="1261" 
d="M303 1434h1159l-22 -131h-502l-82 -459h318l-19 -103h-317l-129 -741h-158l129 741h-313l18 103h313l82 459h-499z" />
    <glyph glyph-name="tbar" unicode="&#x167;" horiz-adv-x="831" 
d="M526 897l-53 -287h248l-19 -100h-247l-35 -203q-19 -102 16.5 -147t100.5 -45t112.5 35t57.5 98q9 44 2 74h141q6 -20 2 -60l-4 -33q-18 -109 -108.5 -180.5t-227.5 -71.5q-49 0 -88.5 9.5t-76 33t-56.5 62t-29 97t6 138.5l33 193h-149l18 100h149l54 287h-172l20 123
h172l90 309h117l-53 -309h332l-21 -123h-332z" />
    <glyph glyph-name="Utilde" unicode="&#x168;" horiz-adv-x="1497" 
d="M1403 1434h156l-160 -910q-32 -174 -131 -300t-233.5 -186.5t-289.5 -60.5q-115 0 -209.5 35.5t-160 102.5t-91 172.5t-1.5 236.5l159 910h158l-160 -910q-18 -98 0 -176t65 -126.5t114 -74.5t149 -26q111 0 208 44t169 137t96 222zM1169 1612q-47 0 -129 43t-118 43
q-35 0 -58 -21t-57 -80l-70 21q47 105 92 147.5t107 42.5q46 0 129 -42t117 -42q35 0 56.5 19.5t59.5 79.5l68 -21q-47 -105 -91.5 -147.5t-105.5 -42.5z" />
    <glyph glyph-name="utilde" unicode="&#x169;" 
d="M481 1020l-102 -580q-13 -94 -4.5 -157t42 -100t74.5 -52.5t93 -15.5q39 0 82 10t96.5 38.5t98.5 72.5t84.5 118.5t58.5 169.5l88 496h153l-178 -1020h-154l37 217q-63 -118 -171 -179t-230 -61q-86 0 -152.5 25.5t-114.5 81t-62 143.5t5 213l103 580h153zM973 1237
q-47 0 -129 42t-117 42t-57 -20t-60 -78l-69 18q50 106 94.5 149.5t105.5 43.5q46 0 128.5 -43t115.5 -43q36 0 59 20t60 78l65 -21q-43 -102 -89 -145t-107 -43z" />
    <glyph glyph-name="Umacron" unicode="&#x16a;" horiz-adv-x="1497" 
d="M1403 1434h156l-160 -910q-32 -174 -131 -300t-233.5 -186.5t-289.5 -60.5q-115 0 -209.5 35.5t-160 102.5t-91 172.5t-1.5 236.5l159 910h158l-160 -910q-18 -98 0 -176t65 -126.5t114 -74.5t149 -26q111 0 208 44t169 137t96 222zM786 1743h541l-20 -123h-541z" />
    <glyph glyph-name="umacron" unicode="&#x16b;" 
d="M481 1020l-102 -580q-13 -94 -4.5 -157t42 -100t74.5 -52.5t93 -15.5q39 0 82 10t96.5 38.5t98.5 72.5t84.5 118.5t58.5 169.5l88 496h153l-178 -1020h-154l37 217q-63 -118 -171 -179t-230 -61q-86 0 -152.5 25.5t-114.5 81t-62 143.5t5 213l103 580h153zM596 1384h541
l-23 -122h-541z" />
    <glyph glyph-name="Ubreve" unicode="&#x16c;" horiz-adv-x="1497" 
d="M1403 1434h156l-160 -910q-32 -174 -131 -300t-233.5 -186.5t-289.5 -60.5q-115 0 -209.5 35.5t-160 102.5t-91 172.5t-1.5 236.5l159 910h158l-160 -910q-18 -98 0 -176t65 -126.5t114 -74.5t149 -26q111 0 208 44t169 137t96 222zM1245 1843q3 0 47 -3t47 -3
q-35 -127 -125 -198.5t-190 -71.5t-163 71.5t-52 198.5q1 0 48 3t50 3q0 -83 34 -127.5t101 -44.5q68 0 121 44t82 128z" />
    <glyph glyph-name="ubreve" unicode="&#x16d;" 
d="M481 1020l-102 -580q-13 -94 -4.5 -157t42 -100t74.5 -52.5t93 -15.5q39 0 82 10t96.5 38.5t98.5 72.5t84.5 118.5t58.5 169.5l88 496h153l-178 -1020h-154l37 217q-63 -118 -171 -179t-230 -61q-86 0 -152.5 25.5t-114.5 81t-62 143.5t5 213l103 580h153zM1022 1473
q0 -1 49 -5.5t49 -5.5q-23 -95 -76 -160.5t-115 -93.5t-130 -28q-106 0 -171.5 71t-54.5 211q2 0 52.5 5.5t52.5 5.5q-6 -89 33 -133t108 -44q70 0 124.5 44.5t78.5 132.5z" />
    <glyph glyph-name="Uring" unicode="&#x16e;" horiz-adv-x="1497" 
d="M1403 1434h156l-160 -910q-32 -174 -131 -300t-233.5 -186.5t-289.5 -60.5q-115 0 -209.5 35.5t-160 102.5t-91 172.5t-1.5 236.5l159 910h158l-160 -910q-18 -98 0 -176t65 -126.5t114 -74.5t149 -26q111 0 208 44t169 137t96 222zM852 1733q17 85 83 137.5t152 52.5
q89 0 139.5 -53t33.5 -137q-17 -85 -85 -138t-155 -53t-136 53.5t-32 137.5zM934 1733q-10 -50 19 -82.5t81 -32.5q51 0 90.5 32t49.5 83q10 50 -18.5 81t-80.5 31t-91.5 -31t-49.5 -81z" />
    <glyph glyph-name="uring" unicode="&#x16f;" 
d="M481 1020l-102 -580q-13 -94 -4.5 -157t42 -100t74.5 -52.5t93 -15.5q39 0 82 10t96.5 38.5t98.5 72.5t84.5 118.5t58.5 169.5l88 496h153l-178 -1020h-154l37 217q-63 -118 -171 -179t-230 -61q-86 0 -152.5 25.5t-114.5 81t-62 143.5t5 213l103 580h153zM647 1376
q17 87 86.5 146t153.5 59q87 0 136 -59.5t32 -145.5q-12 -82 -84 -142t-158 -60q-84 0 -132 58.5t-34 143.5zM731 1376q-10 -51 18.5 -85t79.5 -34t91 34t51 85q10 51 -19 86t-80 35t-90.5 -34.5t-50.5 -86.5z" />
    <glyph glyph-name="Uhungarumlaut" unicode="&#x170;" horiz-adv-x="1497" 
d="M1403 1434h156l-160 -910q-32 -174 -131 -300t-233.5 -186.5t-289.5 -60.5q-115 0 -209.5 35.5t-160 102.5t-91 172.5t-1.5 236.5l159 910h158l-160 -910q-18 -98 0 -176t65 -126.5t114 -74.5t149 -26q111 0 208 44t169 137t96 222zM967 1851h149l-237 -284h-134z
M1282 1851h150l-238 -284h-133z" />
    <glyph glyph-name="uhungarumlaut" unicode="&#x171;" 
d="M481 1020l-102 -580q-13 -94 -4.5 -157t42 -100t74.5 -52.5t93 -15.5q39 0 82 10t96.5 38.5t98.5 72.5t84.5 118.5t58.5 169.5l88 496h153l-178 -1020h-154l37 217q-63 -118 -171 -179t-230 -61q-86 0 -152.5 25.5t-114.5 81t-62 143.5t5 213l103 580h153zM803 1481h149
l-254 -307h-133zM1118 1481h150l-254 -307h-133z" />
    <glyph glyph-name="Uogonek" unicode="&#x172;" horiz-adv-x="1497" 
d="M1401 1434h155l-159 -910q-21 -128 -81.5 -231.5t-145.5 -170.5t-187 -104t-213 -41q-83 -83 -98 -172q-13 -69 25.5 -108t95.5 -39q131 0 208 145l70 -43q-38 -94 -121.5 -156.5t-181.5 -62.5q-65 0 -118 24t-83.5 79t-17.5 133q21 117 129 205q-102 9 -184 48
t-138 107.5t-76 165t1 221.5l161 910h158l-162 -910q-18 -97 0.5 -175.5t65.5 -127t114.5 -74.5t149.5 -26q111 0 207.5 44t168 137t95.5 222z" />
    <glyph glyph-name="uogonek" unicode="&#x173;" 
d="M1245 1020l-180 -1016q-110 -20 -175.5 -79t-78.5 -128q-10 -63 27.5 -101t95.5 -38q63 0 119.5 38.5t91.5 104.5l69 -41q-40 -95 -122.5 -157t-182.5 -62q-64 0 -116.5 24t-83 79t-17.5 133q14 68 71 135.5t150 101.5l37 203q-63 -118 -171 -179t-230 -61
q-86 0 -152.5 25.5t-114.5 81t-62 143.5t5 213l103 580h153l-102 -580q-13 -94 -4.5 -157t42 -100t74.5 -52.5t93 -15.5q39 0 82 10t96.5 38.5t98.5 72.5t84.5 118.5t58.5 169.5l88 496h153z" />
    <glyph glyph-name="Wcircumflex" unicode="&#x174;" horiz-adv-x="2033" 
d="M1327 1386l152 -1126l581 1174h160l-704 -1434h-144l-153 1145l-557 -1145h-144l-201 1434h160l164 -1174l553 1126h133zM1260 1851h165l168 -284h-120l-146 196l-215 -196h-121z" />
    <glyph glyph-name="wcircumflex" unicode="&#x175;" horiz-adv-x="1691" 
d="M395 1020l156 -823l401 788h133l121 -788l447 823h162l-562 -1020h-149l-125 768l-391 -768h-148l-207 1020h162zM1016 1481h166l182 -307h-121l-160 212l-237 -212h-121z" />
    <glyph glyph-name="Ycircumflex" unicode="&#x176;" horiz-adv-x="1345" 
d="M799 729h2l567 705h176l-2 -13l-688 -829l-102 -592h-158l102 592l-393 829l2 13h176zM915 1851h166l168 -284h-121l-145 196l-215 -196h-121z" />
    <glyph glyph-name="ycircumflex" unicode="&#x177;" horiz-adv-x="1107" 
d="M592 188l475 832h178l-891 -1479h-155l280 473l-262 1006h176zM725 1481h166l182 -307h-121l-159 212l-238 -212h-121z" />
    <glyph glyph-name="Ydieresis" unicode="&#x178;" horiz-adv-x="1345" 
d="M799 729h2l567 705h176l-2 -13l-688 -829l-102 -592h-158l102 592l-393 829l2 13h176zM649 1692q8 44 43.5 75t79.5 31q47 0 71.5 -30.5t16.5 -75.5t-43 -75t-82 -30q-44 0 -69 30.5t-17 74.5zM1083 1692q8 44 43.5 75t79.5 31t70 -31t18 -75q-7 -44 -44 -74.5t-81 -30.5
t-69 30.5t-17 74.5z" />
    <glyph glyph-name="Zacute" unicode="&#x179;" horiz-adv-x="1296" 
d="M1255 131l-20 -131h-1176l19 123l1130 1180h-866l23 131h1075l-23 -125l-1132 -1178h970zM1010 1851h168l-252 -284h-131z" />
    <glyph glyph-name="zacute" unicode="&#x17a;" horiz-adv-x="1130" 
d="M1067 0h-1006l17 102l885 793h-699l23 125h911l-16 -102l-889 -793h792zM905 1481h176l-280 -307h-133z" />
    <glyph glyph-name="Zdotaccent" unicode="&#x17b;" horiz-adv-x="1296" 
d="M1255 131l-20 -131h-1176l19 123l1130 1180h-866l23 131h1075l-23 -125l-1132 -1178h970zM848 1702q7 47 43.5 77.5t83.5 30.5q45 0 70.5 -31t15.5 -77q-7 -49 -43.5 -80t-81.5 -31q-48 0 -73 31t-15 80z" />
    <glyph glyph-name="zdotaccent" unicode="&#x17c;" horiz-adv-x="1130" 
d="M1067 0h-1006l17 102l885 793h-699l23 125h911l-16 -102l-889 -793h792zM692 1313q11 50 47.5 82t83.5 32q48 0 74 -32.5t16 -81.5q-11 -50 -47.5 -81.5t-83.5 -31.5q-48 0 -74 32t-16 81z" />
    <glyph glyph-name="Zcaron" unicode="&#x17d;" horiz-adv-x="1296" 
d="M1255 131l-20 -131h-1176l19 123l1130 1180h-866l23 131h1075l-23 -125l-1132 -1178h970zM977 1567h-166l-166 284h121l143 -198l217 198h121z" />
    <glyph glyph-name="zcaron" unicode="&#x17e;" horiz-adv-x="1130" 
d="M1067 0h-1006l17 102l885 793h-699l23 125h911l-16 -102l-889 -793h792zM858 1174h-164l-182 307h121l162 -213l235 213h121z" />
    <glyph glyph-name="longs" unicode="&#x17f;" horiz-adv-x="589" 
d="M922 1237q10 64 -26 95.5t-105 31.5q-71 0 -129.5 -56t-81.5 -184l-199 -1124h-152l158 897h-170l21 123h170l14 86q72 395 393 395q139 0 206 -70.5t46 -179.5l-4 -16q-3 -17 -16 -39h-140q15 39 15 41z" />
    <glyph glyph-name="florin" unicode="&#x192;" horiz-adv-x="841" 
d="M561 684l-135 -768q-16 -95 -50 -167.5t-75.5 -115t-94 -69.5t-99 -36t-97.5 -9q-98 0 -155 47l75 106q55 -24 101 -24q39 0 73 11.5t66.5 38t57 77t36.5 121.5l139 788h-170l23 123h170l43 252q18 95 53 167.5t76.5 115t94 69.5t99 36t97.5 9q103 0 151 -41l-75 -110
q-30 22 -97 22q-193 0 -235 -248l-49 -272h284l-22 -123h-285z" />
    <glyph glyph-name="Aringacute" unicode="&#x1fa;" horiz-adv-x="1376" 
d="M1096 2064h159l-157 -163q120 -45 100 -172q-17 -85 -83 -136t-154 -51q-89 0 -139.5 51.5t-33.5 135.5q12 70 64.5 118t126.5 62zM872 1729q-10 -49 19.5 -76t83.5 -27q51 0 89 27t48 76t-19 75.5t-81 26.5q-53 0 -91.5 -26.5t-48.5 -75.5zM436 438h656l-179 842z
M1116 307h-751l-170 -307h-166l817 1434h188l314 -1434h-164z" />
    <glyph glyph-name="aringacute" unicode="&#x1fb;" horiz-adv-x="1320" 
d="M645 1358q13 71 67 120t124 60l114 158h160l-154 -168q55 -19 80 -63.5t15 -106.5q-13 -84 -81 -134t-157 -50q-87 0 -136 50t-32 134zM727 1358q-7 -50 20.5 -79.5t79.5 -29.5q53 0 93 29.5t47 79.5t-22 78t-81 28q-53 0 -91.5 -28t-45.5 -78zM1333 1020l-178 -1020
h-154l35 203q-175 -226 -446 -226q-151 0 -255 72.5t-144 193t-15 267.5q20 110 73.5 207t131.5 169t181.5 114t217.5 42q274 0 365 -225l35 203h153zM330 510q-30 -167 50.5 -281t248.5 -114q167 0 300.5 110t162.5 285q16 87 -2 161.5t-62.5 125.5t-111.5 79.5t-148 28.5
q-167 0 -287.5 -113t-150.5 -282z" />
    <glyph glyph-name="AEacute" unicode="&#x1fc;" horiz-adv-x="1884" 
d="M1503 1851h166l-252 -284h-131zM707 750h348l98 553h-41zM1102 131h698l-20 -131h-856l108 618h-418l-452 -618h-172l1059 1434h983l-23 -131h-698l-99 -553h621l-23 -132h-620z" />
    <glyph glyph-name="aeacute" unicode="&#x1fd;" horiz-adv-x="1939" 
d="M1333 1481h176l-280 -307h-133zM575 498q-135 0 -210 -57.5t-89 -139.5q-18 -87 46 -145t190 -58q99 0 206.5 53t194.5 160q-6 82 2 148q-146 39 -340 39zM1530 907q-129 0 -243 -69.5t-183 -206.5h713q-2 77 -27 132.5t-67 86t-89.5 44t-103.5 13.5zM694 905
q-189 0 -350 -110l-37 114q81 65 195.5 99t228.5 34q305 0 350 -223q84 103 207 163t262 60q101 0 183 -32t140.5 -95t81 -166.5t1.5 -236.5h-891l-4 -16q-30 -163 67 -273t283 -110q185 0 358 135q58 -72 72 -92q-201 -179 -455 -179q-163 0 -273 63.5t-159 176.5
q-92 -116 -218 -178t-269 -62q-79 0 -147.5 21t-118 60.5t-71.5 101.5t-9 139q26 138 145.5 226.5t315.5 88.5q75 0 178 -13t166 -36l8 49q26 150 -35.5 220.5t-204.5 70.5z" />
    <glyph glyph-name="Oslashacute" unicode="&#x1fe;" horiz-adv-x="1685" 
d="M1233 1851h168l-252 -284h-131zM381 -82l-90 70l121 141q-119 105 -169 256.5t-18 331.5q27 150 110.5 287t201 236t266 157.5t299.5 58.5q198 0 350 -100l139 162l88 -70l-137 -162q108 -105 154 -252.5t16 -316.5q-27 -150 -110 -287t-200.5 -236.5t-265.5 -158
t-298 -58.5q-191 0 -332 84zM387 717q-26 -139 9.5 -260.5t121.5 -202.5l832 981q-121 78 -275 78q-157 0 -305 -78.5t-251 -216t-132 -301.5zM1550 717q23 133 -7.5 247t-106.5 195l-826 -975q105 -63 252 -63q242 0 442 172.5t246 423.5z" />
    <glyph glyph-name="oslashacute" unicode="&#x1ff;" horiz-adv-x="1243" 
d="M979 1481h176l-281 -307h-133zM139 6l127 127q-62 74 -87 171t-5 204q27 145 120.5 268t229.5 194.5t281 71.5q157 0 274 -90l123 125l68 -69l-119 -123q63 -74 88.5 -171.5t5.5 -205.5q-24 -144 -118 -266.5t-231 -193.5t-282 -71q-166 0 -278 86l-127 -124zM1092 508
q26 152 -58 264l-585 -600q77 -57 190 -57q159 0 291.5 114.5t161.5 278.5zM328 508q-27 -153 55 -262l586 600q-77 59 -191 59q-156 0 -288.5 -116.5t-161.5 -280.5z" />
    <glyph glyph-name="Scommaaccent" unicode="&#x218;" horiz-adv-x="1177" 
d="M465 -487l-23 47q49 24 90.5 71t51.5 93q-24 -19 -60 -19q-34 0 -53.5 26t-13.5 58q7 41 39 65.5t77 24.5q55 0 77.5 -47.5t13.5 -93.5q-13 -70 -63 -130t-136 -95zM823 1313q-122 0 -218 -65t-116 -175q-7 -26 -2 -57t18.5 -60t53 -58.5t100.5 -53.5l218 -82
q149 -50 225 -153t53 -226q-29 -179 -187.5 -292.5t-379.5 -113.5q-201 0 -321 95t-138 239l158 39q13 -95 98 -162t225 -67q152 0 257.5 72t123.5 180q16 90 -39.5 155t-150.5 97l-217 77q-307 106 -258 367q21 116 101 205.5t191.5 135.5t233.5 46q179 0 277 -87.5
t106 -233.5l-152 -43q-6 109 -71.5 165t-188.5 56z" />
    <glyph glyph-name="scommaaccent" unicode="&#x219;" horiz-adv-x="884" 
d="M311 -483l-20 47q49 24 90.5 71t48.5 93q-22 -19 -59 -19q-34 0 -53 26t-13 58q7 41 38 65.5t75 24.5q38 0 62.5 -25.5t31 -57t0.5 -58.5q-11 -70 -62 -130t-139 -95zM903 821l-145 -33q-19 119 -142 119q-86 0 -145 -46.5t-70 -110.5q-17 -102 115 -148l143 -49
q122 -41 168 -113.5t27 -165.5q-24 -134 -144 -215.5t-268 -81.5q-135 0 -227.5 64.5t-105.5 179.5l141 35q10 -65 70 -104t147 -39q88 0 153.5 44.5t77.5 116.5q10 57 -19 91t-97 59l-138 47q-231 79 -198 272q21 126 128 212.5t257 86.5q69 0 127 -22t99 -73.5t46 -125.5z
" />
    <glyph glyph-name="uni021A" unicode="&#x21a;" horiz-adv-x="1228" 
d="M287 1434h1159l-23 -131h-501l-230 -1303q90 -93 68 -223q-19 -114 -109 -175t-192 -61q-97 0 -156.5 62t-64.5 157l79 43q23 -145 158 -145q59 0 110 39t64 108q9 44 -3 96.5t-50 98.5h-61l229 1303h-500z" />
    <glyph glyph-name="uni021B" unicode="&#x21b;" horiz-adv-x="831" 
d="M522 897l-106 -590q-19 -101 18 -146.5t101 -45.5q65 0 112.5 35t57.5 98q8 39 0 74h141q4 -12 4 -60l-4 -33q-19 -103 -99 -171t-206 -78q73 -92 53 -203q-19 -114 -109 -175t-192 -61q-97 0 -156.5 62t-64.5 157l80 43q23 -145 157 -145q59 0 110 39t64 108
q16 95 -41 179q-103 13 -153 93t-23 240l103 580h-172l20 123h172l92 309h117l-55 -309h331l-20 -123h-332z" />
    <glyph glyph-name="circumflex" unicode="&#x2c6;" horiz-adv-x="1191" 
d="M772 1481h166l182 -307h-121l-159 212l-238 -212h-121z" />
    <glyph glyph-name="caron" unicode="&#x2c7;" horiz-adv-x="1171" 
d="M872 1174h-163l-183 307h121l162 -213l235 213h121z" />
    <glyph glyph-name="uni02C9" unicode="&#x2c9;" horiz-adv-x="1073" 
d="M510 1384h541l-23 -122h-541z" />
    <glyph glyph-name="breve" unicode="&#x2d8;" horiz-adv-x="993" 
d="M926 1473q0 -1 49 -5.5t49 -5.5q-23 -95 -76.5 -160.5t-115.5 -93.5t-130 -28q-106 0 -171 71t-54 211q2 0 52.5 5.5t52.5 5.5q-6 -89 33 -133t108 -44q70 0 124.5 44.5t78.5 132.5z" />
    <glyph glyph-name="dotaccent" unicode="&#x2d9;" horiz-adv-x="616" 
d="M428 1313q11 50 46.5 82t82.5 32q48 0 74 -32.5t16 -81.5q-7 -49 -45 -81t-86 -32t-73 32t-15 81z" />
    <glyph glyph-name="ring" unicode="&#x2da;" horiz-adv-x="796" 
d="M436 1376q17 87 86.5 146t153.5 59q87 0 136 -59.5t32 -145.5q-12 -82 -84 -142t-158 -60q-84 0 -132 58.5t-34 143.5zM520 1376q-10 -51 18.5 -85t79.5 -34t91 34t51 85q10 51 -18.5 86t-79.5 35t-91 -35t-51 -86z" />
    <glyph glyph-name="ogonek" unicode="&#x2db;" horiz-adv-x="931" 
d="M424 29v-17q-62 -50 -96 -105t-43 -102q-13 -69 25.5 -108t95.5 -39q131 0 208 145l70 -43q-38 -94 -121.5 -156.5t-181.5 -62.5q-65 0 -118 24t-83.5 79t-17.5 133q13 62 58.5 129.5t133.5 122.5h70z" />
    <glyph glyph-name="tilde" unicode="&#x2dc;" horiz-adv-x="1028" 
d="M864 1237q-47 0 -129.5 42t-118.5 42q-34 0 -54.5 -19t-59.5 -79l-70 18q50 107 94 150t105 43q46 0 129 -43t117 -43q36 0 59.5 20.5t56.5 77.5l66 -21q-42 -102 -88 -145t-107 -43z" />
    <glyph glyph-name="hungarumlaut" unicode="&#x2dd;" horiz-adv-x="1093" 
d="M666 1481h149l-254 -307h-133zM981 1481h149l-253 -307h-134z" />
    <glyph glyph-name="uni0394" unicode="&#x394;" horiz-adv-x="1505" 
d="M84 0l834 1434h194l303 -1434h-1331zM1227 131l-234 1172l-678 -1172h912z" />
    <glyph glyph-name="uni03A9" unicode="&#x3a9;" horiz-adv-x="1660" 
d="M1063 1321q-248 0 -432.5 -169.5t-231.5 -422.5q-36 -201 54.5 -364t265.5 -230l-23 -135h-559l21 131h331q-134 90 -205 262.5t-36 362.5q25 143 100 271.5t184 223t254 150t301 55.5q158 0 283.5 -55.5t201 -150t104.5 -223t3 -271.5q-36 -191 -168.5 -362.5
t-300.5 -262.5h332l-20 -131h-564l23 135q197 68 348.5 233t183.5 361q30 165 -14 299.5t-158 213.5t-278 79z" />
    <glyph glyph-name="uni03BC" unicode="&#x3bc;" horiz-adv-x="1249" 
d="M334 70l-68 -369h-155l235 1319h154l-97 -533q-28 -202 22 -288t175 -86q38 0 81.5 10t98 39t101 72.5t85.5 119t56 170.5l88 496h154l-181 -1020h-153l39 217q-63 -118 -172 -179t-228 -61q-172 0 -235 93z" />
    <glyph glyph-name="pi" unicode="&#x3c0;" horiz-adv-x="1390" 
d="M1047 897l-95 -518q-48 -266 129 -266q60 0 110.5 33.5t61.5 95.5v39h133q3 -15 3 -37v-17q-21 -110 -109.5 -180t-224.5 -70q-41 0 -76 6t-71.5 22t-60.5 43t-43 69t-19.5 100.5t10.5 136.5l98 543h-346l-158 -897h-153l157 897h-182l20 123h1088l-21 -123h-251z" />
    <glyph glyph-name="Wgrave" unicode="&#x1e80;" horiz-adv-x="2033" 
d="M1327 1386l152 -1126l581 1174h160l-704 -1434h-144l-153 1145l-557 -1145h-144l-201 1434h160l164 -1174l553 1126h133zM1087 1851h166l115 -284h-131z" />
    <glyph glyph-name="wgrave" unicode="&#x1e81;" horiz-adv-x="1691" 
d="M395 1020l156 -823l401 788h133l121 -788l447 823h162l-562 -1020h-149l-125 768l-391 -768h-148l-207 1020h162zM829 1481h177l127 -307h-134z" />
    <glyph glyph-name="Wacute" unicode="&#x1e82;" horiz-adv-x="2033" 
d="M1327 1386l152 -1126l581 1174h160l-704 -1434h-144l-153 1145l-557 -1145h-144l-201 1434h160l164 -1174l553 1126h133zM1427 1851h168l-252 -284h-131z" />
    <glyph glyph-name="wacute" unicode="&#x1e83;" horiz-adv-x="1691" 
d="M395 1020l156 -823l401 788h133l121 -788l447 823h162l-562 -1020h-149l-125 768l-391 -768h-148l-207 1020h162zM1208 1481h176l-280 -307h-133z" />
    <glyph glyph-name="Wdieresis" unicode="&#x1e84;" horiz-adv-x="2033" 
d="M1327 1386l152 -1126l581 1174h160l-704 -1434h-144l-153 1145l-557 -1145h-144l-201 1434h160l164 -1174l553 1126h133zM993 1692q8 44 43.5 75t79.5 31q47 0 71.5 -30.5t16.5 -75.5t-43 -75t-82 -30q-44 0 -69 30.5t-17 74.5zM1427 1692q8 44 43.5 75t79.5 31t70 -31
t18 -75q-7 -44 -44 -74.5t-81 -30.5t-69 30.5t-17 74.5z" />
    <glyph glyph-name="wdieresis" unicode="&#x1e85;" horiz-adv-x="1691" 
d="M395 1020l156 -823l401 788h133l121 -788l447 823h162l-562 -1020h-149l-125 768l-391 -768h-148l-207 1020h162zM752 1323q7 47 42 77t80 30q47 0 72 -30t17 -77q-8 -43 -44 -73.5t-83 -30.5q-44 0 -68 30.5t-16 73.5zM1186 1323q7 47 42.5 77t80.5 30t70 -30t18 -77
q-7 -43 -45 -73.5t-82 -30.5t-68 30.5t-16 73.5z" />
    <glyph glyph-name="Ygrave" unicode="&#x1ef2;" horiz-adv-x="1345" 
d="M799 729h2l567 705h176l-2 -13l-688 -829l-102 -592h-158l102 592l-393 829l2 13h176zM758 1851h166l114 -284h-131z" />
    <glyph glyph-name="ygrave" unicode="&#x1ef3;" horiz-adv-x="1107" 
d="M592 188l475 832h178l-891 -1479h-155l280 473l-262 1006h176zM545 1481h176l127 -307h-133z" />
    <glyph glyph-name="thinspace" unicode="&#x2009;" horiz-adv-x="34" 
 />
    <glyph glyph-name="endash" unicode="&#x2013;" horiz-adv-x="1157" 
d="M244 557l26 137h863l-27 -137h-862z" />
    <glyph glyph-name="emdash" unicode="&#x2014;" horiz-adv-x="1642" 
d="M244 557l26 137h1348l-27 -137h-1347z" />
    <glyph glyph-name="quoteleft" unicode="&#x2018;" horiz-adv-x="481" 
d="M602 1481l21 -60q-58 -23 -99.5 -59.5t-62 -76.5t-28 -62.5t-11.5 -44.5q19 8 47 8q40 0 60 -27.5t14 -64.5q-8 -46 -43 -77.5t-92 -31.5q-34 0 -57.5 16.5t-31.5 41t-11.5 52t3.5 48.5q9 49 30.5 97t56 94t87 84.5t117.5 62.5z" />
    <glyph glyph-name="quoteright" unicode="&#x2019;" horiz-adv-x="481" 
d="M330 985l-23 59q58 23 99.5 59.5t62 77t28 63t11.5 44.5q-19 -8 -47 -8q-40 0 -60 27.5t-14 64.5q8 46 43 77.5t92 31.5q44 0 69.5 -28.5t27.5 -63.5t-1 -66q-19 -105 -91.5 -198.5t-196.5 -139.5z" />
    <glyph glyph-name="quotesinglbase" unicode="&#x201a;" horiz-adv-x="507" 
d="M96 -266l-24 59q168 66 200 244q-19 -8 -47 -8q-40 0 -59.5 27.5t-13.5 64.5q8 46 44 77t93 31q44 0 69 -28t26.5 -63t-1.5 -66q-19 -104 -92 -198t-195 -140z" />
    <glyph glyph-name="quotedblleft" unicode="&#x201c;" horiz-adv-x="860" 
d="M602 1481l21 -60q-58 -23 -99.5 -59.5t-62 -76.5t-28 -62.5t-11.5 -44.5q19 8 47 8q40 0 60 -27.5t14 -64.5q-8 -46 -43 -77.5t-92 -31.5q-34 0 -57.5 16.5t-31.5 41t-11.5 52t3.5 48.5q9 49 30.5 97t56 94t87 84.5t117.5 62.5zM979 1481l20 -60q-47 -19 -84 -48.5
t-56.5 -55.5t-34 -58.5t-18.5 -48t-7 -32.5q19 8 47 8q40 0 60 -27.5t14 -64.5q-8 -46 -43.5 -77.5t-92.5 -31.5q-44 0 -70 28.5t-28 63.5t2 66q9 49 30.5 97t56 94t87 84.5t117.5 62.5z" />
    <glyph glyph-name="quotedblright" unicode="&#x201d;" horiz-adv-x="858" 
d="M707 985l-23 59q58 23 99.5 59.5t62 77t28 63t11.5 44.5q-19 -8 -47 -8q-40 0 -60 27.5t-14 64.5q8 46 43 77.5t92 31.5q44 0 69.5 -28.5t27.5 -63.5t-1 -66q-19 -105 -91.5 -198.5t-196.5 -139.5zM330 985l-23 59q58 23 99.5 59.5t62 77t28 63t11.5 44.5q-19 -8 -47 -8
q-40 0 -60 27.5t-14 64.5q8 46 43 77.5t92 31.5q44 0 69.5 -28.5t27.5 -63.5t-1 -66q-19 -105 -91.5 -198.5t-196.5 -139.5z" />
    <glyph glyph-name="quotedblbase" unicode="&#x201e;" horiz-adv-x="884" 
d="M473 -266l-24 59q168 66 200 244q-19 -8 -47 -8q-40 0 -60 27.5t-14 64.5q8 46 44.5 77t93.5 31q44 0 69 -28t26.5 -63t-1.5 -66q-19 -104 -92 -198t-195 -140zM96 -266l-24 59q168 66 200 244q-19 -8 -47 -8q-40 0 -59.5 27.5t-13.5 64.5q8 46 44 77t93 31q44 0 69 -28
t26.5 -63t-1.5 -66q-19 -104 -92 -198t-195 -140z" />
    <glyph glyph-name="dagger" unicode="&#x2020;" horiz-adv-x="1071" 
d="M1167 928h-401l-221 -1243h-131l221 1243h-402l21 121h401l93 518h131l-93 -518h402z" />
    <glyph glyph-name="daggerdbl" unicode="&#x2021;" horiz-adv-x="1126" 
d="M1081 293h-403l-109 -608h-129l109 608h-402l21 121h401l95 514h-402l21 121h401l90 518h129l-90 -518h404l-21 -121h-403l-95 -514h404z" />
    <glyph glyph-name="bullet" unicode="&#x2022;" horiz-adv-x="817" 
d="M262 500q17 94 97.5 162.5t175.5 68.5t153.5 -69t38.5 -162q-17 -94 -97 -162t-175 -68q-96 0 -153 66.5t-40 163.5z" />
    <glyph glyph-name="ellipsis" unicode="&#x2026;" horiz-adv-x="1564" 
d="M143 90q7 47 46.5 80t86.5 33t74 -33t19 -80q-7 -47 -46.5 -80t-86.5 -33t-74 33t-19 80zM684 90q7 47 46.5 80t86.5 33t73.5 -32.5t18.5 -80.5q-7 -47 -46.5 -80t-86.5 -33t-73.5 32.5t-18.5 80.5zM1225 90q7 47 46.5 80t86.5 33t73.5 -32.5t18.5 -80.5
q-7 -47 -46.5 -80t-86.5 -33t-73.5 32.5t-18.5 80.5z" />
    <glyph glyph-name="perthousand" unicode="&#x2030;" horiz-adv-x="2668" 
d="M268 1108q25 147 143 247.5t265 100.5q148 0 229 -99.5t56 -248.5q-25 -145 -143 -245.5t-265 -100.5q-146 0 -228 100.5t-57 245.5zM426 0l1051 1434h127l-1049 -1434h-129zM393 1108q-17 -98 35 -163.5t145 -65.5q95 0 169.5 65.5t91.5 163.5q19 100 -31.5 165.5
t-147.5 65.5q-93 0 -166.5 -65.5t-95.5 -165.5zM1081 322q25 148 143 248t265 100q149 0 229.5 -99t55.5 -249q-25 -143 -143.5 -244t-264.5 -101q-147 0 -228.5 100.5t-56.5 244.5zM1210 322q-19 -98 32 -163t144 -65q96 0 170 64.5t93 163.5q19 100 -32.5 166.5
t-148.5 66.5q-93 0 -165.5 -66t-92.5 -167zM1960 322q25 148 142.5 248t264.5 100q149 0 229.5 -99t55.5 -249q-25 -143 -143 -244t-264 -101q-147 0 -228.5 100.5t-56.5 244.5zM2089 322q-19 -98 32 -163t144 -65q96 0 169.5 64.5t92.5 163.5q19 100 -32 166.5t-148 66.5
q-93 0 -165.5 -66t-92.5 -167z" />
    <glyph glyph-name="guilsinglleft" unicode="&#x2039;" horiz-adv-x="681" 
d="M203 592l4 22l446 426l82 -75l-379 -361l250 -358l-106 -74z" />
    <glyph glyph-name="guilsinglright" unicode="&#x203a;" horiz-adv-x="681" 
d="M688 614l-4 -22l-444 -420l-82 74l377 358l-248 361l106 75z" />
    <glyph glyph-name="fraction" unicode="&#x2044;" horiz-adv-x="307" 
d="M1049 1507l-1403 -1589h-133l1398 1589h138z" />
    <glyph glyph-name="zerosuperior" unicode="&#x2070;" horiz-adv-x="770" 
d="M930 1286q-30 -159 -135 -266t-250 -107q-143 0 -211.5 107.5t-38.5 265.5q29 159 134 266t249 107t212.5 -107.5t39.5 -265.5zM821 1286q24 123 -19 201t-140 78q-96 0 -165.5 -77.5t-93.5 -201.5t19.5 -202t140.5 -78q96 0 165 77t93 203z" />
    <glyph glyph-name="foursuperior" unicode="&#x2074;" horiz-adv-x="702" 
d="M356 1202h258l54 283zM602 1120h-375l11 58l491 469h70l-80 -445h153l-12 -82h-153l-33 -192h-105z" />
    <glyph glyph-name="fivesuperior" unicode="&#x2075;" horiz-adv-x="653" 
d="M489 999q88 0 142 46t67 116q11 65 -24.5 111.5t-116.5 46.5q-91 0 -178 -49l-68 35l80 342h434l-12 -82h-344l-49 -207q33 19 81.5 30t88.5 11q116 0 173.5 -70t39.5 -168q-21 -112 -107.5 -181t-222.5 -69q-139 0 -231 86l65 68q69 -66 182 -66z" />
    <glyph glyph-name="sixsuperior" unicode="&#x2076;" horiz-adv-x="686" 
d="M659 1575q-88 0 -159.5 -80.5t-106.5 -208.5q39 55 106.5 82t131.5 27q98 0 160.5 -69.5t42.5 -172.5q-19 -106 -106 -173t-206 -67q-139 0 -200 96.5t-31 258.5q31 169 133.5 280t249.5 111q65 0 115.5 -22t76.5 -56l-82 -61q-17 25 -52 40t-73 15zM387 1161
q-12 -64 32 -113t118 -49q73 0 127 42.5t67 113.5q13 70 -27.5 112t-111.5 42t-132 -41.5t-73 -106.5z" />
    <glyph glyph-name="sevensuperior" unicode="&#x2077;" horiz-adv-x="579" 
d="M319 1565l13 82h514l-10 -64l-459 -655h-115l455 637h-398z" />
    <glyph glyph-name="eightsuperior" unicode="&#x2078;" horiz-adv-x="714" 
d="M530 999q84 0 142 39.5t69 98.5q11 58 -30 95.5t-129 37.5h-7q-89 0 -141 -36.5t-63 -96.5q-11 -59 32 -98.5t127 -39.5zM633 1577q-71 0 -118.5 -32.5t-55.5 -82.5q-8 -51 23.5 -85t105.5 -34q76 0 122.5 33.5t57.5 87.5q8 49 -28.5 81t-106.5 32zM518 915
q-128 0 -198.5 64.5t-53.5 159.5q11 57 61 105.5t126 68.5q-55 20 -82 62.5t-19 88.5q12 83 98.5 139t200.5 56t175.5 -54.5t47.5 -140.5q-8 -47 -48.5 -89.5t-106.5 -61.5q72 -20 107 -68t24 -106q-17 -95 -111 -159.5t-221 -64.5z" />
    <glyph glyph-name="ninesuperior" unicode="&#x2079;" horiz-adv-x="686" 
d="M483 997q87 0 162.5 82t104.5 207q-44 -53 -111 -80.5t-129 -27.5q-100 0 -161 69.5t-44 173.5q20 105 106.5 171.5t204.5 66.5q140 0 202 -96t32 -258q-30 -168 -134 -280t-247 -112q-65 0 -117 22t-76 56l82 62q17 -26 52 -41t73 -15zM754 1411q13 72 -31.5 117
t-120.5 45q-71 0 -124 -41.5t-66 -112.5q-13 -70 27 -112.5t110 -42.5q72 0 132.5 41t72.5 106z" />
    <glyph glyph-name="parenleftsuperior" unicode="&#x207d;" horiz-adv-x="403" 
d="M303 1268q15 87 50.5 169.5t79 145t81.5 105t72 71.5q3 0 24.5 -19.5t24.5 -19.5q-186 -206 -229 -454q-44 -247 69 -455l-65 -39q-23 27 -45 69.5t-44.5 110.5t-26.5 144.5t9 171.5z" />
    <glyph glyph-name="parenrightsuperior" unicode="&#x207e;" horiz-adv-x="405" 
d="M547 1268q-15 -87 -50.5 -170t-79 -146.5t-81 -106.5t-72.5 -73l-49 39q188 222 229 455q42 243 -69 454q2 0 32.5 19.5t32.5 19.5q17 -23 33.5 -52t37 -77.5t31 -101t15.5 -121.5t-10 -139z" />
    <glyph glyph-name="zeroinferior" unicode="&#x2080;" horiz-adv-x="770" 
d="M713 76q-30 -160 -134 -266.5t-249 -106.5q-143 0 -211.5 107.5t-40.5 265.5q29 159 134.5 266t250.5 107t212.5 -107t37.5 -266zM604 76q24 123 -19.5 200.5t-140.5 77.5q-96 0 -165 -77t-93 -201q-24 -125 19.5 -203t140.5 -78q96 0 165 77.5t93 203.5z" />
    <glyph glyph-name="oneinferior" unicode="&#x2081;" horiz-adv-x="415" 
d="M94 242l-12 82l258 112h57l-129 -719h-106l106 598z" />
    <glyph glyph-name="twoinferior" unicode="&#x2082;" horiz-adv-x="669" 
d="M444 -16l-247 -181h378l-14 -86h-538l2 64l354 266q114 85 131 174q12 64 -22 97.5t-103 33.5q-75 0 -116.5 -34t-53.5 -82h-111q6 35 28 70t57.5 66.5t91.5 51.5t122 20q116 0 173 -62.5t38 -158.5q-31 -139 -170 -239z" />
    <glyph glyph-name="threeinferior" unicode="&#x2083;" horiz-adv-x="661" 
d="M14 -213l70 70q68 -68 180 -68q87 0 143.5 43.5t67.5 108.5q12 70 -30 112.5t-111 42.5q-64 0 -113 -24l-35 55l287 227h-338l17 82h495l-10 -57l-264 -213q106 0 165 -65t42 -162q-18 -102 -108 -170t-226 -68q-151 0 -232 86z" />
    <glyph glyph-name="fourinferior" unicode="&#x2084;" horiz-adv-x="706" 
d="M150 -8h258l49 282zM391 -90h-375l13 57l493 469h70l-80 -444h154l-17 -82h-153l-33 -193h-105z" />
    <glyph glyph-name="fiveinferior" unicode="&#x2085;" horiz-adv-x="653" 
d="M276 -211q88 0 143 46t66 116q11 66 -23.5 112t-115.5 46q-88 0 -180 -50l-68 35l82 342h434l-16 -82h-344l-47 -207q71 41 168 41q116 0 173.5 -69.5t39.5 -167.5q-19 -112 -106.5 -181t-223.5 -69q-139 0 -231 86l67 68q69 -66 182 -66z" />
    <glyph glyph-name="sixinferior" unicode="&#x2086;" horiz-adv-x="686" 
d="M442 365q-88 0 -159.5 -80.5t-106.5 -208.5q39 55 107 81.5t133 26.5q98 0 160 -69t42 -172q-19 -106 -106 -173t-205 -67q-139 0 -201 96t-32 258q30 168 134.5 280t250.5 112q64 0 114 -22t76 -56l-80 -62q-17 25 -53 40.5t-74 15.5zM170 -49q-11 -64 33.5 -113
t118.5 -49q73 0 127.5 42.5t66.5 113.5q12 70 -27 111.5t-110 41.5t-134.5 -41t-74.5 -106z" />
    <glyph glyph-name="seveninferior" unicode="&#x2087;" horiz-adv-x="579" 
d="M102 354l17 82h514l-15 -63l-458 -656h-115l455 637h-398z" />
    <glyph glyph-name="eightinferior" unicode="&#x2088;" horiz-adv-x="714" 
d="M317 -211q84 0 142 39t69 98q11 58 -30 95.5t-129 37.5h-7q-89 0 -141 -36.5t-63 -96.5q-11 -59 32 -98t127 -39zM420 367q-70 0 -116.5 -32t-57.5 -83q-8 -51 23 -85t104 -34q76 0 123.5 33.5t58.5 87.5q8 49 -28.5 81t-106.5 32zM303 -295q-128 0 -198.5 64t-53.5 159
q11 57 62 105.5t127 68.5q-57 19 -83 62t-18 90q12 83 98.5 139t200.5 56t176 -54.5t48 -140.5q-8 -47 -49.5 -90t-106.5 -62q71 -20 105.5 -68t23.5 -106q-17 -95 -111 -159t-221 -64z" />
    <glyph glyph-name="nineinferior" unicode="&#x2089;" horiz-adv-x="686" 
d="M266 -213q87 0 162 82t104 207q-40 -53 -107.5 -81t-129.5 -28q-100 0 -160 70t-43 174q19 104 105.5 171t203.5 67q139 0 200.5 -96.5t31.5 -258.5q-31 -168 -133 -279.5t-246 -111.5q-65 0 -117 22t-76 56l80 61q17 -25 52 -40t73 -15zM539 201q13 71 -32.5 116
t-121.5 45q-71 0 -124.5 -41.5t-65.5 -111.5t28 -113t109 -43q72 0 133.5 41.5t73.5 106.5z" />
    <glyph glyph-name="parenleftinferior" unicode="&#x208d;" horiz-adv-x="403" 
d="M88 57q15 86 50.5 169.5t80 146t81.5 104.5t71 72l49 -39q-190 -224 -230 -455q-43 -246 70 -454l-65 -39q-18 24 -35 54t-37 78.5t-30.5 101t-15 121.5t10.5 140z" />
    <glyph glyph-name="parenrightinferior" unicode="&#x208e;" horiz-adv-x="405" 
d="M330 57q-29 -164 -115 -296.5t-168 -198.5l-45 39q188 230 225 454q26 148 0.5 266t-69.5 189q3 0 33 19.5t32 19.5q18 -25 34 -54t37 -78t31 -100t15 -120.5t-10 -139.5z" />
    <glyph glyph-name="lira" unicode="&#x20a4;" horiz-adv-x="1286" 
d="M602 1067q-8 -71 -3 -120.5t26 -151.5h436l-17 -97h-401l19 -135h358l-16 -96h-340l-7 -51q-35 -214 -217 -285l-2 -6q40 0 173 3t163 3h443l-21 -131h-1108l21 131q339 0 393 291l4 45h-285l17 96h266q-1 27 -9 75l-10 60h-223l17 97h186q-11 57 -16 82t-10 64.5
t-4.5 68t5.5 57.5q32 176 185 282.5t354 106.5q75 0 136.5 -14.5t102 -39.5t71 -58t43 -69.5t18 -75.5t-3.5 -75h-154q18 82 -44 138.5t-190 56.5q-142 0 -239 -68t-117 -184z" />
    <glyph glyph-name="rupee" unicode="&#x20a8;" horiz-adv-x="1419" 
d="M1487 983h-252q-33 -164 -145 -279t-277 -139q-6 -41 -2.5 -90.5t10 -99.5t25 -97.5t43 -84t63.5 -58.5t86 -22q91 0 170 59l39 -111q-105 -84 -241 -84q-68 0 -123.5 23t-91.5 61t-64 88.5t-40.5 105t-21 110.5t-6.5 105.5t3 88.5h-433l23 131h483q129 0 221 81t117 212
h-770l16 104h758q-5 99 -65.5 157.5t-167.5 58.5h-484l23 131h514h18h652l-21 -105h-389q87 -93 84 -242h262z" />
    <glyph glyph-name="uni20A9" unicode="&#x20a9;" horiz-adv-x="2152" 
d="M248 827l20 105h178l-69 502h160l71 -502h422l223 454h133l62 -454h424l248 502h159l-247 -502h180l-21 -105h-213l-82 -168h267l-19 -104h-299l-270 -555h-143l-76 555h-367l-268 -555h-143l-80 555h-297l18 104h264l-24 168h-211zM621 827l24 -168h252l80 168h-356z
M1460 827l25 -168h250l82 168h-357zM1120 827l-80 -168h301l-22 168h-199zM659 555l41 -295l146 295h-187zM1499 555l39 -295l145 295h-184zM1278 1145l-104 -213h133z" />
    <glyph glyph-name="afii57636" unicode="&#x20aa;" horiz-adv-x="1392" 
d="M467 950l-166 -950h-151l194 1102h356q187 0 284.5 -118t64.5 -292l-58 -319h-151l57 319q21 106 -43.5 182t-181.5 76h-205zM1116 152l170 950h152l-195 -1102h-356q-189 0 -284.5 117t-65.5 293l57 319h151l-55 -319q-18 -108 42.5 -183t178.5 -75h205z" />
    <glyph glyph-name="Euro" unicode="&#x20ac;" horiz-adv-x="1349" 
d="M543 627h616l-55 -111h-565q11 -180 118 -287.5t299 -107.5q144 0 256 39l-16 -137q-136 -46 -258 -46q-141 0 -249 41t-175 115t-102 170.5t-37 212.5h-205l20 111h191q0 46 8 82q1 6 6.5 33t10.5 42h-185l19 111h198q43 119 110 218t159.5 177t217.5 122t271 44
q181 0 320 -78l-74 -127q-115 62 -273 62q-205 0 -350.5 -116.5t-216.5 -301.5h684l-53 -111h-666q-5 -20 -9 -43t-7 -32q-3 -12 -4 -37t-4 -45z" />
    <glyph glyph-name="uni2113" unicode="&#x2113;" horiz-adv-x="958" 
d="M1075 1120q-49 -288 -230 -513.5t-409 -287.5q-8 -59 2.5 -101.5t35 -64t51.5 -31t59 -9.5q149 0 170 131v24h135q2 -22 -2 -53q-19 -106 -106.5 -172t-223.5 -66q-309 0 -281 322q-104 0 -157 25l18 106q67 -22 156 -22l125 712q14 77 42 138t65 99t75.5 64t82 38.5
t75.5 17t65 4.5q25 0 47.5 -2.5t50 -8.5t50 -18.5t45 -30t37.5 -45.5t24.5 -63.5t9 -84.5t-11.5 -108zM936 1120q9 70 3.5 114t-30 69t-50 34t-56.5 9q-35 0 -66.5 -9.5t-64.5 -33t-57.5 -70.5t-36.5 -113l-119 -669q163 59 300 243.5t177 425.5z" />
    <glyph glyph-name="afii61352" unicode="&#x2116;" horiz-adv-x="2258" 
d="M1726 1130q25 132 130 221t237 89q130 0 205.5 -89.5t50.5 -220.5q-25 -130 -130 -216.5t-237 -86.5q-130 0 -205 87t-51 216zM1630 575l19 103h614l-18 -103h-615zM1837 1130q-17 -87 31 -144.5t135 -57.5q86 0 152 57t83 145q17 92 -28.5 150.5t-132.5 58.5t-155 -58.5
t-85 -150.5zM1167 0l-645 1149l-203 -1149h-157l252 1434h121l643 -1145l202 1145h158l-252 -1434h-119z" />
    <glyph glyph-name="uni2117" unicode="&#x2117;" horiz-adv-x="1662" 
d="M1245 836q-17 -98 -89.5 -160t-172.5 -62h-174l-45 -276h-115l127 729h289q102 0 150 -66.5t30 -164.5zM827 709h160q54 0 91 35.5t48 91.5q11 57 -14.5 97t-79.5 40h-160zM231 717q27 151 107.5 287.5t194 235.5t259 157.5t295.5 58.5q151 0 275 -58.5t202.5 -157.5
t110.5 -235.5t6 -287.5q-36 -201 -161 -371t-310 -269.5t-385 -99.5q-201 0 -350 99.5t-214 269t-30 371.5zM332 717q-32 -174 24.5 -321t186 -232.5t301.5 -85.5q173 0 331 85.5t265.5 232t140.5 321.5q32 174 -24.5 321t-186 232.5t-301.5 85.5q-173 0 -331 -85.5
t-265.5 -232t-140.5 -321.5z" />
    <glyph glyph-name="trademark" unicode="&#x2122;" horiz-adv-x="1759" 
d="M330 1434h631l-15 -93h-262l-115 -630h-106l115 630h-263zM1729 711h-103l49 542l-327 -534h-82l-136 532l-149 -540h-104l198 723h109l151 -566l344 566h113z" />
    <glyph glyph-name="Omega" unicode="&#x2126;" horiz-adv-x="1671" 
d="M1069 1321q-248 0 -432 -169.5t-231 -422.5q-36 -201 54 -364t265 -230l-23 -135h-559l21 131h332q-134 91 -205.5 263t-36.5 362q25 143 100 271.5t184.5 223t254.5 150t301 55.5q158 0 283.5 -55.5t201 -150t104.5 -223t3 -271.5q-36 -191 -168.5 -362.5t-300.5 -262.5
h331l-20 -131h-563l22 135q197 68 349.5 233t183.5 361q30 165 -14 299.5t-158.5 213.5t-278.5 79z" />
    <glyph glyph-name="estimated" unicode="&#x212e;" horiz-adv-x="1329" 
d="M1350 578h-879l-78 -396q113 -129 289 -129q67 0 127.5 14.5t107 36.5t92.5 58t79.5 70t72.5 81l58 -39q-117 -140 -245 -214t-306 -74q-99 0 -181.5 31.5t-138 87t-91.5 131.5t-40.5 165.5t14.5 188.5q25 121 85.5 227.5t147.5 185.5t202 125t241 46q169 0 282.5 -82
t153.5 -217t7 -297zM1116 645l68 334q-51 55 -127 91t-162 36q-196 0 -344 -127l-68 -334h633z" />
    <glyph glyph-name="arrowleft" unicode="&#x2190;" horiz-adv-x="1335" 
d="M1214 580l-24 -129h-746l207 -297l-104 -74l-299 420l6 22l444 426l82 -76l-305 -292h739z" />
    <glyph glyph-name="arrowup" unicode="&#x2191;" horiz-adv-x="1171" 
d="M655 39h-129l131 739l-338 -254l-59 94l492 371h22l354 -371l-90 -94l-250 260z" />
    <glyph glyph-name="arrowright" unicode="&#x2192;" horiz-adv-x="1335" 
d="M301 451l25 129h739l-205 292l109 76l295 -426l-4 -22l-445 -420l-82 74l314 297h-746z" />
    <glyph glyph-name="arrowdown" unicode="&#x2193;" horiz-adv-x="1171" 
d="M696 989h129l-133 -739l340 254l60 -94l-492 -371h-22l-355 371l90 94l250 -260z" />
    <glyph glyph-name="partialdiff" unicode="&#x2202;" horiz-adv-x="1337" 
d="M813 1282l-29 123q122 51 254 51q104 0 182 -27.5t123 -76t70.5 -115t24.5 -145.5t-15 -166q-22 -111 -61 -219q-124 -351 -331.5 -540.5t-489.5 -189.5q-148 0 -244 54.5t-129.5 143t-13.5 200.5q21 121 89.5 223t162.5 167t202.5 100.5t216.5 35.5q132 0 234.5 -61
t138.5 -164l10 31q30 90 54 196q19 86 11 161.5t-37 131.5t-92 88.5t-155 32.5t-176 -35zM797 766q-109 0 -210 -44t-175.5 -132t-96.5 -203q-23 -130 51.5 -201t219.5 -71q177 0 318 109.5t233 310.5q-12 66 -53 114.5t-95.5 72t-102.5 34t-89 10.5z" />
    <glyph glyph-name="Delta" unicode="&#x2206;" horiz-adv-x="1458" 
d="M63 0l834 1434h195l303 -1434h-1332zM1206 131l-233 1172l-678 -1172h911z" />
    <glyph glyph-name="product" unicode="&#x220f;" horiz-adv-x="1468" 
d="M1419 1303l-286 -1618h-154l287 1618h-604l-287 -1618h-154l287 1618h-201l23 131h1310l-22 -131h-199z" />
    <glyph glyph-name="summation" unicode="&#x2211;" horiz-adv-x="1159" 
d="M20 -315l17 98q87 102 312.5 365t348.5 409l-362 774l16 103h922l-23 -131h-737v-3l-2 -4l352 -737q-304 -353 -635 -743h820l-23 -131h-1006z" />
    <glyph glyph-name="minus" unicode="&#x2212;" horiz-adv-x="1308" 
d="M248 553l24 137h1006l-25 -137h-1005z" />
    <glyph glyph-name="uni2219" unicode="&#x2219;" horiz-adv-x="528" 
d="M256 608q7 47 45.5 80t85.5 33t74.5 -33t19.5 -80q-7 -47 -46 -79.5t-87 -32.5q-47 0 -73.5 32.5t-18.5 79.5z" />
    <glyph glyph-name="radical" unicode="&#x221a;" horiz-adv-x="1107" 
d="M137 717l295 125l131 -815l637 1540h131l-729 -1760h-131l-154 879l-155 -68z" />
    <glyph glyph-name="infinity" unicode="&#x221e;" horiz-adv-x="1761" 
d="M360 608q-18 -97 33.5 -152t147.5 -55q36 0 68.5 9t70 32.5t61.5 41.5t75 60t79 64q-17 19 -47.5 54.5t-45.5 51.5t-40.5 39.5t-45 34t-46.5 19t-56 8.5q-95 0 -166 -55t-88 -152zM1751 608q-28 -155 -140 -245.5t-255 -90.5q-93 1 -161 37.5t-132 108.5l-90 102
l-125 -102q-92 -73 -174 -109.5t-174 -36.5q-144 0 -224.5 90.5t-52.5 245.5t139 245.5t254 90.5q93 0 163.5 -36t135.5 -109l93 -103l122 103q90 73 169.5 108.5t173.5 36.5q145 0 225.5 -90.5t52.5 -245.5zM1612 608q17 97 -33 152t-145 55q-112 0 -234 -104l-121 -103
l86 -102q45 -54 90.5 -79.5t104.5 -25.5q95 0 164.5 55t87.5 152z" />
    <glyph glyph-name="integral" unicode="&#x222b;" horiz-adv-x="995" 
d="M786 1200l-229 -1296q-16 -92 -48.5 -161.5t-72 -111t-89.5 -68t-96 -35.5t-97 -9t-118 22t-108 60q11 21 31.5 62t32.5 61q36 -36 90 -51t98 -15q31 0 62.5 11t63.5 35t57.5 71t37.5 110l230 1297q17 91 49.5 160.5t71.5 111.5t88 68t95 35.5t97 9.5q50 0 117 -22
t111 -60q-12 -21 -32.5 -62t-31.5 -61q-92 65 -195 65q-70 0 -131 -53.5t-84 -173.5z" />
    <glyph glyph-name="approxequal" unicode="&#x2248;" horiz-adv-x="1259" 
d="M1231 987l31 -104q-108 -113 -256 -113q-56 0 -122.5 20t-117 44.5t-113 44.5t-112.5 20q-115 0 -197 -86l-29 109q99 114 246 114q71 0 159.5 -32t171 -63.5t138.5 -31.5q111 0 201 78zM1139 489l32 -106q-110 -115 -258 -115q-55 0 -120.5 20t-116.5 44.5t-113.5 44.5
t-111.5 20q-117 0 -197 -86l-33 111q101 113 248 113q59 0 128 -20t121 -43.5t112.5 -43.5t105.5 -20q122 0 203 81z" />
    <glyph glyph-name="notequal" unicode="&#x2260;" horiz-adv-x="1208" 
d="M1227 887h-289q-152 -206 -299 -422h514l-25 -135h-587l-203 -283q-17 15 -90 57l160 226h-213l24 135h287l299 422h-512l24 135h586l197 278l94 -55l-160 -223h217z" />
    <glyph glyph-name="lessequal" unicode="&#x2264;" horiz-adv-x="1308" 
d="M276 727l27 154l1053 362l-27 -143l-889 -295l783 -297l-25 -143zM166 96l22 125h986l-23 -125h-985z" />
    <glyph glyph-name="greaterequal" unicode="&#x2265;" horiz-adv-x="1310" 
d="M1315 881l-27 -154l-1052 -362l24 143l893 297l-786 295l26 143zM1196 221l-22 -125h-986l23 125h985z" />
    <glyph glyph-name="lozenge" unicode="&#x25ca;" horiz-adv-x="1155" 
d="M1202 698l-569 -698h-111l-321 698l575 738h111zM1032 700l-233 562l-428 -560l235 -536z" />
    <glyph glyph-name="commaaccent" unicode="&#xf6c3;" horiz-adv-x="675" 
d="M199 -483l-21 47q49 24 90.5 71t48.5 93q-22 -19 -59 -19q-34 0 -52.5 26t-12.5 58q8 41 38 65.5t74 24.5q38 0 62.5 -25.5t31 -57t0.5 -58.5q-11 -70 -61.5 -130t-138.5 -95z" />
    <glyph glyph-name="rupiah" unicode="&#xf6dd;" horiz-adv-x="2689" 
d="M324 0h-158l252 1434h588q128 0 214 -62.5t117 -162.5t9 -218q-30 -166 -144 -284t-280 -142q-6 -67 2 -141t31 -146t73 -118.5t119 -46.5q93 0 172 59q7 -28 37 -111q-105 -84 -242 -84q-68 0 -123.5 23t-91.5 61t-64 88.5t-40.5 105t-21 110.5t-6.5 105.5t3 88.5h-348z
M444 690h400q132 0 224.5 84.5t117.5 218.5t-39 222t-195 88h-399zM1460 -459l262 1479h154l-35 -203q169 225 447 225q151 0 254.5 -72t143.5 -192.5t13 -267.5q-18 -109 -71.5 -206.5t-131.5 -170t-182 -114.5t-217 -42q-273 0 -364 226l-119 -662h-154zM2546 510
q30 167 -50.5 281t-248.5 114q-167 0 -299 -109.5t-164 -285.5q-29 -176 63.5 -285.5t259.5 -109.5q169 0 289 113t150 282z" />
    <glyph glyph-name="centinferior" unicode="&#xf6df;" horiz-adv-x="598" 
d="M489 453l-34 -111q82 -13 129 -57l-49 -70q-39 30 -113 43l-121 -364q9 -3 31 -3q79 0 151 46l29 -70q-97 -62 -197 -62q-29 0 -39 2l-30 -96h-64l35 109q-81 26 -121.5 92.5t-23.5 163.5q20 118 111.5 190.5t209.5 77.5l35 109h61zM176 76q-21 -121 70 -166l114 346
q-70 -11 -120.5 -58t-63.5 -122z" />
    <glyph glyph-name="centsuperior" unicode="&#xf6e0;" horiz-adv-x="598" 
d="M705 1663l-35 -111q76 -12 131 -57l-53 -70q-36 30 -109 43l-121 -364q6 -2 31 -2q80 0 151 45l25 -70q-91 -61 -193 -61q-26 0 -40 2l-31 -96h-64l35 108q-81 26 -120.5 92.5t-22.5 163.5q20 118 110 190.5t209 77.5l35 109h62zM393 1286q-23 -120 70 -166l115 346
q-70 -11 -119 -57t-66 -123z" />
    <glyph glyph-name="commainferior" unicode="&#xf6e1;" horiz-adv-x="348" 
d="M41 -436l-12 41q96 51 108 112q1 3 1 8.5t1 8.5q-18 -6 -33 -6q-28 0 -40 19t-7 46q5 31 26.5 50.5t55.5 19.5q45 0 58.5 -33t7.5 -72q-22 -135 -166 -194z" />
    <glyph glyph-name="commasuperior" unicode="&#xf6e2;" horiz-adv-x="346" 
d="M258 774l-12 41q96 52 108 113q0 12 -2 16q-15 -6 -28 -6q-28 0 -41.5 20t-8.5 46q5 30 26.5 49.5t55.5 19.5q45 0 58.5 -32.5t7.5 -71.5q-23 -137 -164 -195z" />
    <glyph glyph-name="dollarinferior" unicode="&#xf6e3;" horiz-adv-x="622" 
d="M274 -373h-53l15 92q-93 4 -147 52.5t-62 119.5l100 27q2 -42 36.5 -74.5t88.5 -38.5l43 236l-43 16q-159 58 -135 187q12 80 85 132.5t163 57.5l16 88h53l-16 -88q76 -7 120 -51t50 -113l-96 -26q-1 41 -26 67.5t-65 34.5l-41 -221l46 -16q71 -25 112 -77.5t31 -111.5
q-17 -86 -87 -139.5t-173 -61.5zM440 -86q8 62 -65 94l-31 15l-37 -213q55 6 90 35t43 69zM225 246q-6 -30 13 -58.5t75 -40.5l37 201q-46 -6 -82 -34t-43 -68z" />
    <glyph glyph-name="dollarsuperior" unicode="&#xf6e4;" horiz-adv-x="622" 
d="M487 838h-53l19 92q-93 4 -147 52.5t-62 119.5l100 26q0 -42 35 -74t90 -38l41 235l-41 17q-159 66 -137 186q12 80 84.5 133t161.5 58l18 88h53l-18 -88q78 -7 122.5 -51t49.5 -113l-96 -27q-1 41 -26 67.5t-65 34.5l-38 -221l40 -16q75 -30 116.5 -80.5t31.5 -108.5
q-17 -85 -88 -138.5t-172 -61.5zM655 1124q8 62 -63 95l-33 14l-37 -213q55 6 90 35t43 69zM442 1456q-6 -30 12 -58t74 -40l35 201q-45 -6 -79.5 -34.5t-41.5 -68.5z" />
    <glyph glyph-name="hypheninferior" unicode="&#xf6e5;" horiz-adv-x="571" 
d="M92 4l17 86h380l-16 -86h-381z" />
    <glyph glyph-name="hyphensuperior" unicode="&#xf6e6;" horiz-adv-x="571" 
d="M309 1214l13 86h380l-12 -86h-381z" />
    <glyph glyph-name="periodinferior" unicode="&#xf6e7;" horiz-adv-x="346" 
d="M117 -297q-32 0 -50.5 19.5t-13.5 48.5t30.5 50t57.5 21t51.5 -21t14.5 -50q-4 -29 -30.5 -48.5t-59.5 -19.5z" />
    <glyph glyph-name="periodsuperior" unicode="&#xf6e8;" horiz-adv-x="342" 
d="M330 913q-33 0 -51.5 19.5t-12.5 48.5q6 30 32 51t58 21t51 -21.5t13 -50.5t-32 -48.5t-58 -19.5z" />
    <glyph glyph-name="apple" unicode="&#xf8ff;" horiz-adv-x="1431" 
d="M907 311h154q0 80 -24.5 143.5t-66 104t-90 65t-104.5 33.5q68 180 152 338l30 -399h154l-53 684h-150q-133 -245 -192 -416q-57 166 -193 416h-149l-53 -684h153l31 399q58 -108 151 -333q-59 -6 -111.5 -30t-97 -65t-70.5 -107.5t-26 -148.5h156q0 73 32 124t76 72
t93 21q77 0 137.5 -55t60.5 -162zM205 0v1413h1028v-1413h-1028zM297 168v-80h16v55l19 -55h14l21 57v-57h16v80h-25l-18 -55l-18 55h-25zM428 170q-18 0 -28.5 -12t-10.5 -31q0 -18 10.5 -29.5t28.5 -11.5t29.5 11.5t11.5 29.5q0 19 -11 31t-30 12zM428 100q-20 0 -20 27
q0 29 20 29q23 0 23 -29q0 -27 -23 -27zM485 115h-16q0 -29 35 -29q33 0 33 27q0 15 -23 22q-24 8 -25 12q0 9 13 9q14 0 14 -13h19q0 27 -33 27q-12 0 -21.5 -7t-9.5 -18q0 -19 27 -22q22 -6 22 -12q0 -11 -16 -11q-19 0 -19 15zM559 154v-66h19v66h24v14h-67v-14h24z
M618 168l-30 -80h18l6 18h29l6 -18h19l-29 80h-19zM637 119h-21l11 28zM668 168v-80h18v31h16q15 0 15 -15q0 -14 2 -16h18q-4 12 -4 18q0 17 -12 19v2q14 3 14 18q0 23 -24 23h-43zM686 131v23h19q12 0 12 -11q0 -12 -12 -12h-19zM743 168v-80h35q37 0 37 41q0 39 -37 39
h-35zM762 102v52h12q23 0 23 -27q0 -25 -21 -25h-14zM821 168v-80h62v14h-45v21h39v14h-39v17h43v14h-60zM901 115h-18q0 -29 35 -29q32 0 32 27q0 16 -22 22q-24 8 -25 12q0 9 12 9q14 0 17 -13h16q0 27 -33 27q-11 0 -20.5 -7t-9.5 -18q0 -19 26 -22q23 -7 23 -12
q0 -11 -16 -11q-17 0 -17 15zM956 168v-80h17v80h-17zM1040 96l2 -8h13v43h-35v-12h18q-3 -19 -18 -19q-23 0 -23 27q0 29 23 29q13 0 16 -15h17q-3 29 -33 29q-20 0 -30.5 -12t-10.5 -31q0 -18 10.5 -29.5t30.5 -11.5q10 0 20 10zM1063 168v-80h16v53l33 -53h18v80h-16v-53
l-35 53h-16z" />
    <glyph glyph-name="Euro.dnom" horiz-adv-x="722" 
d="M590 266h-279q6 -89 57 -140.5t146 -51.5q71 0 133 26l-10 -86q-76 -26 -137 -26q-152 0 -224.5 74.5t-72.5 203.5h-111l10 51h103q4 46 12 72h-102l8 53h108q44 132 143 210.5t253 78.5q98 0 168 -43l-45 -74q-50 33 -134 33q-187 0 -276 -205h334l-25 -53h-323
q-9 -26 -13 -72h303q-7 -20 -26 -51z" />
    <glyph glyph-name="Euro.numr" horiz-adv-x="722" 
d="M717 981h-279q6 -89 57 -141t146 -52q68 0 133 27l-10 -86q-83 -27 -137 -27q-152 0 -224.5 74.5t-72.5 204.5h-111l12 51h103q-2 23 10 72h-102l10 53h108q44 132 143 210.5t253 78.5q96 0 166 -43l-45 -74q-50 33 -134 33q-188 0 -274 -205h334l-27 -53h-323
q-11 -32 -11 -72h303q-10 -21 -28 -51z" />
    <glyph glyph-name="Euroinferior" horiz-adv-x="722" 
d="M541 -16h-279q5 -88 55.5 -140.5t145.5 -52.5q68 0 133 27l-8 -86q-83 -27 -139 -27q-152 0 -224.5 75t-70.5 204h-111l8 51h103q2 24 14 71h-102l6 54h108q44 132 144 210.5t254 78.5q95 0 165 -43l-43 -74q-52 33 -137 33q-188 0 -274 -205h334l-23 -54h-324
q-14 -32 -14 -71h303q-19 -44 -24 -51z" />
    <glyph glyph-name="Eurosuperior" horiz-adv-x="722" 
d="M754 1194h-279q6 -89 57 -141t146 -52q68 0 133 27l-10 -86q-79 -27 -135 -27q-152 0 -225.5 75t-73.5 204h-111l12 51h103q0 30 10 72h-102l10 53h108q44 132 143 210.5t253 78.5q95 0 165 -43l-43 -74q-50 33 -135 33q-188 0 -274 -205h334l-27 -53h-324
q-10 -29 -10 -72h303q-10 -21 -28 -51z" />
    <glyph glyph-name="a.alt" horiz-adv-x="1148" 
d="M575 614q212 0 359 -59l10 59q28 148 -42 219.5t-208 71.5q-189 0 -350 -110l-37 114q82 65 196 99t230 34q95 0 166 -20t112 -56t66 -78.5t31.5 -95t4.5 -96.5t-11 -92l-107 -604h-151l28 174q-61 -83 -171 -140t-234 -57q-79 0 -147.5 21t-118 60.5t-71.5 101.5t-9 139
q26 138 144 226.5t310 88.5zM578 498q-136 0 -212 -58t-90 -139q-17 -85 47.5 -136.5t192.5 -51.5q94 0 196 48t183 146l27 142q-80 26 -179.5 37.5t-164.5 11.5z" />
    <glyph glyph-name="aacute.alt" horiz-adv-x="1148" 
d="M918 1481h176l-281 -307h-133zM575 614q212 0 359 -59l10 59q28 148 -42 219.5t-208 71.5q-189 0 -350 -110l-37 114q82 65 196 99t230 34q95 0 166 -20t112 -56t66 -78.5t31.5 -95t4.5 -96.5t-11 -92l-107 -604h-151l28 174q-61 -83 -171 -140t-234 -57q-79 0 -147.5 21
t-118 60.5t-71.5 101.5t-9 139q26 138 144 226.5t310 88.5zM578 498q-136 0 -212 -58t-90 -139q-17 -85 47.5 -136.5t192.5 -51.5q94 0 196 48t183 146l27 142q-80 26 -179.5 37.5t-164.5 11.5z" />
    <glyph glyph-name="abreve.alt" horiz-adv-x="1148" 
d="M989 1473q3 0 50.5 -5.5t50.5 -5.5q-23 -95 -76.5 -160.5t-115.5 -93.5t-130 -28q-106 0 -171 71t-54 211q2 0 52 5.5t52 5.5q-6 -89 33 -133t108 -44q70 0 124.5 44.5t76.5 132.5zM575 614q212 0 359 -59l10 59q28 148 -42 219.5t-208 71.5q-189 0 -350 -110l-37 114
q82 65 196 99t230 34q95 0 166 -20t112 -56t66 -78.5t31.5 -95t4.5 -96.5t-11 -92l-107 -604h-151l28 174q-61 -83 -171 -140t-234 -57q-79 0 -147.5 21t-118 60.5t-71.5 101.5t-9 139q26 138 144 226.5t310 88.5zM578 498q-136 0 -212 -58t-90 -139q-17 -85 47.5 -136.5
t192.5 -51.5q94 0 196 48t183 146l27 142q-80 26 -179.5 37.5t-164.5 11.5z" />
    <glyph glyph-name="acircumflex.alt" horiz-adv-x="1148" 
d="M729 1481h164l182 -307h-121l-159 212l-238 -212h-121zM575 614q212 0 359 -59l10 59q28 148 -42 219.5t-208 71.5q-189 0 -350 -110l-37 114q82 65 196 99t230 34q95 0 166 -20t112 -56t66 -78.5t31.5 -95t4.5 -96.5t-11 -92l-107 -604h-151l28 174q-61 -83 -171 -140
t-234 -57q-79 0 -147.5 21t-118 60.5t-71.5 101.5t-9 139q26 138 144 226.5t310 88.5zM578 498q-136 0 -212 -58t-90 -139q-17 -85 47.5 -136.5t192.5 -51.5q94 0 196 48t183 146l27 142q-80 26 -179.5 37.5t-164.5 11.5z" />
    <glyph glyph-name="acute.case" horiz-adv-x="712" 
d="M684 1851h168l-254 -284h-131z" />
    <glyph glyph-name="adieresis.alt" horiz-adv-x="1148" 
d="M494 1323q7 47 42 77t80 30q48 0 72 -30t14 -77q-6 -43 -41.5 -73.5t-82.5 -30.5q-44 0 -68 30.5t-16 73.5zM928 1323q7 47 42.5 77t80.5 30q48 0 72 -30t14 -77q-6 -43 -42 -73.5t-83 -30.5q-44 0 -68 30.5t-16 73.5zM575 614q212 0 359 -59l10 59q28 148 -42 219.5
t-208 71.5q-189 0 -350 -110l-37 114q82 65 196 99t230 34q95 0 166 -20t112 -56t66 -78.5t31.5 -95t4.5 -96.5t-11 -92l-107 -604h-151l28 174q-61 -83 -171 -140t-234 -57q-79 0 -147.5 21t-118 60.5t-71.5 101.5t-9 139q26 138 144 226.5t310 88.5zM578 498
q-136 0 -212 -58t-90 -139q-17 -85 47.5 -136.5t192.5 -51.5q94 0 196 48t183 146l27 142q-80 26 -179.5 37.5t-164.5 11.5z" />
    <glyph glyph-name="agrave.alt" horiz-adv-x="1148" 
d="M543 1481h176l127 -307h-133zM575 614q212 0 359 -59l10 59q28 148 -42 219.5t-208 71.5q-189 0 -350 -110l-37 114q82 65 196 99t230 34q95 0 166 -20t112 -56t66 -78.5t31.5 -95t4.5 -96.5t-11 -92l-107 -604h-151l28 174q-61 -83 -171 -140t-234 -57q-79 0 -147.5 21
t-118 60.5t-71.5 101.5t-9 139q26 138 144 226.5t310 88.5zM578 498q-136 0 -212 -58t-90 -139q-17 -85 47.5 -136.5t192.5 -51.5q94 0 196 48t183 146l27 142q-80 26 -179.5 37.5t-164.5 11.5z" />
    <glyph glyph-name="amacron.alt" horiz-adv-x="1148" 
d="M545 1384h538l-22 -122h-539zM575 614q212 0 359 -59l10 59q28 148 -42 219.5t-208 71.5q-189 0 -350 -110l-37 114q82 65 196 99t230 34q95 0 166 -20t112 -56t66 -78.5t31.5 -95t4.5 -96.5t-11 -92l-107 -604h-151l28 174q-61 -83 -171 -140t-234 -57q-79 0 -147.5 21
t-118 60.5t-71.5 101.5t-9 139q26 138 144 226.5t310 88.5zM578 498q-136 0 -212 -58t-90 -139q-17 -85 47.5 -136.5t192.5 -51.5q94 0 196 48t183 146l27 142q-80 26 -179.5 37.5t-164.5 11.5z" />
    <glyph glyph-name="aogonek.alt" horiz-adv-x="1148" 
d="M575 614q212 0 359 -59l10 59q28 148 -42 219.5t-208 71.5q-189 0 -350 -110l-37 114q82 65 196 99t230 34q95 0 166 -20t112 -56t66 -78.5t31.5 -95t4.5 -96.5t-11 -92l-107 -604q-114 -22 -178 -79t-76 -124q-11 -63 27 -101t96 -38q63 0 120 38.5t89 104.5l72 -41
q-40 -95 -122.5 -157t-182.5 -62q-64 0 -116.5 24t-83 79t-17.5 133q14 70 69 136.5t152 100.5l28 160q-61 -83 -171 -140t-234 -57q-79 0 -147.5 21t-118 60.5t-71.5 101.5t-9 139q26 138 144 226.5t310 88.5zM578 498q-136 0 -212 -58t-90 -139q-17 -85 47.5 -136.5
t192.5 -51.5q94 0 196 48t183 146l27 142q-80 26 -179.5 37.5t-164.5 11.5z" />
    <glyph glyph-name="aring.alt" horiz-adv-x="1148" 
d="M616 1376q17 88 86.5 146.5t155.5 58.5q87 0 136 -59.5t32 -145.5q-12 -81 -85 -141.5t-157 -60.5q-86 0 -134 58.5t-34 143.5zM700 1376q-10 -50 19.5 -84.5t81.5 -34.5q49 0 88.5 34t50.5 85q8 51 -19.5 86t-76.5 35q-51 0 -92 -35t-52 -86zM575 614q212 0 359 -59
l10 59q28 148 -42 219.5t-208 71.5q-189 0 -350 -110l-37 114q82 65 196 99t230 34q95 0 166 -20t112 -56t66 -78.5t31.5 -95t4.5 -96.5t-11 -92l-107 -604h-151l28 174q-61 -83 -171 -140t-234 -57q-79 0 -147.5 21t-118 60.5t-71.5 101.5t-9 139q26 138 144 226.5
t310 88.5zM578 498q-136 0 -212 -58t-90 -139q-17 -85 47.5 -136.5t192.5 -51.5q94 0 196 48t183 146l27 142q-80 26 -179.5 37.5t-164.5 11.5z" />
    <glyph glyph-name="aringacute.alt" horiz-adv-x="1148" 
d="M600 1358q13 71 68 120t125 60l114 158h160l-154 -168q55 -19 80 -63.5t15 -106.5q-13 -84 -81 -134t-157 -50q-88 0 -137.5 50t-32.5 134zM684 1358q-7 -50 20.5 -79.5t79.5 -29.5q53 0 93 29.5t47 79.5t-22 78t-81 28q-53 0 -91.5 -28t-45.5 -78zM575 614
q212 0 359 -59l10 59q28 148 -42 219.5t-208 71.5q-189 0 -350 -110l-37 114q82 65 196 99t230 34q95 0 166 -20t112 -56t66 -78.5t31.5 -95t4.5 -96.5t-11 -92l-107 -604h-151l28 174q-61 -83 -171 -140t-234 -57q-79 0 -147.5 21t-118 60.5t-71.5 101.5t-9 139
q26 138 144 226.5t310 88.5zM578 498q-136 0 -212 -58t-90 -139q-17 -85 47.5 -136.5t192.5 -51.5q94 0 196 48t183 146l27 142q-80 26 -179.5 37.5t-164.5 11.5z" />
    <glyph glyph-name="at.case" horiz-adv-x="2144" 
d="M1425 451l-8 4q-61 -87 -166.5 -141t-210.5 -54q-196 0 -292.5 131.5t-63.5 325.5t176.5 325.5t341.5 131.5q105 0 190.5 -54t116.5 -141l31 172h137l-125 -717q-16 -74 15 -111.5t90 -37.5q138 5 240 130t147 380q41 228 -30.5 408t-243 282t-414.5 102
q-182 0 -352.5 -66.5t-303 -182t-225.5 -277t-125 -344.5q-24 -149 -11.5 -279t67 -237.5t138.5 -185t204.5 -120t263.5 -42.5q238 0 426 75l20 -53l17 -51q-220 -92 -484 -92q-277 0 -470 128t-270.5 352.5t-25.5 504.5q51 280 217 506t412 354.5t524 128.5
q212 0 378.5 -67t269.5 -186.5t142.5 -289t4.5 -368.5q-28 -164 -80.5 -285.5t-123.5 -193t-153.5 -106t-179.5 -34.5q-132 0 -182.5 74.5t-28.5 200.5zM821 717q-26 -142 43 -239t215 -97q144 0 251 94.5t132 237.5q25 150 -45.5 245t-216.5 95q-148 0 -250.5 -96.5
t-128.5 -239.5z" />
    <glyph glyph-name="atilde.alt" horiz-adv-x="1148" 
d="M907 1237q-47 0 -128.5 42t-116.5 42t-57 -20t-60 -78l-68 18q47 105 93 149t106 44q46 0 128.5 -43t115.5 -43q36 0 59.5 20.5t56.5 77.5l68 -21q-43 -102 -89.5 -145t-107.5 -43zM575 614q212 0 359 -59l10 59q28 148 -42 219.5t-208 71.5q-189 0 -350 -110l-37 114
q82 65 196 99t230 34q95 0 166 -20t112 -56t66 -78.5t31.5 -95t4.5 -96.5t-11 -92l-107 -604h-151l28 174q-61 -83 -171 -140t-234 -57q-79 0 -147.5 21t-118 60.5t-71.5 101.5t-9 139q26 138 144 226.5t310 88.5zM578 498q-136 0 -212 -58t-90 -139q-17 -85 47.5 -136.5
t192.5 -51.5q94 0 196 48t183 146l27 142q-80 26 -179.5 37.5t-164.5 11.5z" />
    <glyph glyph-name="bitcoin" horiz-adv-x="1228" 
d="M963 1575l-35 -203q164 0 260.5 -94t71.5 -234q-20 -109 -103 -193t-219 -120q156 -20 228 -113t48 -221q-19 -107 -94 -185.5t-185 -117.5t-241 -39l-35 -202h-90l35 202h-129l-35 -202h-90l35 202h-221l237 1323h222l32 197h90l-32 -197h127l32 197h91zM344 186h387
q126 0 215 57t107 158q22 111 -54 184.5t-258 73.5h-313zM856 1247h-324l-81 -465h299q162 7 245.5 76.5t102.5 175.5q19 100 -53 156.5t-189 56.5z" />
    <glyph glyph-name="braceleft.case" horiz-adv-x="645" 
d="M223 668l17 98q103 10 135 24q51 22 61 78q4 28 4 50q-1 37 -30 224.5t-13 280.5q16 86 66 145t116.5 84t145.5 25q22 0 44.5 -2t43 -4.5t29.5 -3.5l-21 -111q-55 9 -110 9q-68 0 -111.5 -39t-56.5 -117q-9 -55 -1.5 -129t21 -135t20.5 -133.5t-3 -124.5
q-23 -130 -156 -170q118 -37 94 -170q-10 -52 -43.5 -124.5t-69 -133.5t-68.5 -135t-42 -129q-13 -78 18 -117t99 -39q59 0 114 8l-22 -110q-8 -1 -29 -4t-44.5 -5t-45.5 -2q-125 0 -194 63t-46 191q12 69 54.5 160.5t94.5 190t73 155.5q12 24 16 49q5 25 -2.5 43
t-18.5 27.5t-39 16.5t-44.5 9.5t-55.5 6.5z" />
    <glyph glyph-name="braceright.case" horiz-adv-x="645" 
d="M672 766l-17 -98q-34 -3 -42.5 -4t-36 -5t-36.5 -8t-27.5 -11.5t-26 -17.5t-16 -24.5t-11.5 -32.5q-2 -14 -2 -49q1 -35 29 -224.5t12 -281.5q-16 -86 -66 -145t-116.5 -84t-145.5 -25q-29 0 -70.5 5.5t-48.5 5.5l23 110q49 -8 110 -8q68 0 111.5 39t56.5 117
q9 55 1.5 129t-21 135t-20.5 133.5t3 124.5q23 129 154 170q-116 37 -92 170q10 52 43 124.5t68 133.5t68 135t42 129q26 156 -113 156q-52 0 -114 -9l20 111q8 1 30 3.5t45.5 4.5t45.5 2q123 0 191 -63t45 -191q-12 -69 -54 -160.5t-93.5 -189.5t-72.5 -155
q-16 -46 -16 -50q-12 -65 49 -85q27 -8 111 -17z" />
    <glyph glyph-name="bracketleft.case" horiz-adv-x="657" 
d="M121 -238l338 1911h420l-23 -123h-276l-297 -1667h276l-18 -121h-420z" />
    <glyph glyph-name="bracketright.case" horiz-adv-x="657" 
d="M788 1673l-337 -1911h-420l18 121h277l297 1667h-277l23 123h419z" />
    <glyph glyph-name="breve.case" horiz-adv-x="911" 
d="M950 1843q3 0 47 -3t47 -3q-35 -128 -123.5 -199t-189.5 -71q-100 0 -164 71.5t-53 198.5l47 3q47 3 51 3q0 -82 35.5 -127t102.5 -45q68 0 119.5 44t80.5 128z" />
    <glyph glyph-name="bullet.case" horiz-adv-x="804" 
d="M295 717q17 94 97 162.5t175 68.5t152.5 -68.5t40.5 -162.5t-98.5 -162t-176.5 -68q-96 0 -151.5 66t-38.5 164z" />
    <glyph glyph-name="caron.case" horiz-adv-x="983" 
d="M848 1567h-166l-164 284h121l143 -198l217 198h121z" />
    <glyph glyph-name="cedilla.case" horiz-adv-x="931" 
d="M508 12l2 17h70q71 -56 93.5 -124.5t10.5 -127.5q-19 -114 -109 -175t-192 -61q-97 0 -156.5 62t-64.5 157l80 43q23 -145 157 -145q59 0 110 39t64 108q9 48 -5.5 102.5t-59.5 104.5z" />
    <glyph glyph-name="cent.case" horiz-adv-x="1142" 
d="M229 719q22 123 83.5 223t149.5 165t195 101.5t224 40.5l65 185h98l-67 -189q154 -27 262 -115l-92 -106q-87 74 -219 88l-283 -780q36 -8 94 -8q158 0 297 90l56 -107q-190 -121 -381 -121q-71 3 -115 11l-70 -197h-98l78 219q-158 53 -234.5 181.5t-42.5 318.5z
M383 719q-23 -124 23 -218.5t151 -142.5l272 754q-171 -17 -294 -125t-152 -268z" />
    <glyph glyph-name="cent.dnom" horiz-adv-x="598" 
d="M541 735l-37 -110q80 -12 131 -58l-51 -69q-36 30 -109 43l-121 -365q6 -2 31 -2q79 0 150 45l26 -69q-92 -62 -192 -62q-27 0 -41 2l-31 -96h-64l35 108q-81 26 -121.5 92.5t-23.5 163.5q20 118 111.5 191t209.5 78l35 108h62zM227 358q-23 -119 70 -165l115 346
q-69 -11 -118.5 -58t-66.5 -123z" />
    <glyph glyph-name="cent.numr" horiz-adv-x="598" 
d="M668 1450l-35 -111q76 -12 131 -57l-53 -70q-36 30 -109 43l-121 -364q6 -2 31 -2q79 0 150 45l26 -70q-91 -61 -192 -61q-27 0 -41 2l-33 -96h-64l37 108q-81 26 -122 93t-23 163q23 120 111.5 191t209.5 77l35 109h62zM354 1073q-10 -60 9.5 -102.5t62.5 -63.5l115 346
q-72 -11 -123 -58t-64 -122z" />
    <glyph glyph-name="circumflex.case" horiz-adv-x="983" 
d="M737 1851h166l166 -284h-121l-145 196l-215 -196h-121z" />
    <glyph glyph-name="comma.dnom" horiz-adv-x="344" 
d="M92 -154l-14 41q96 51 108 113v16q-15 -6 -30 -6q-28 0 -40 19.5t-7 46.5q5 31 26 50t55 19q45 0 58.5 -32.5t7.5 -71.5q-22 -134 -164 -195z" />
    <glyph glyph-name="comma.numr" horiz-adv-x="346" 
d="M221 561l-14 41q104 55 108 113v16q-15 -6 -30 -6q-28 0 -40 19.5t-7 46.5q5 31 26 50t55 19q45 0 58.5 -32.5t7.5 -71.5q-22 -134 -164 -195z" />
    <glyph glyph-name="commaaccent.case" horiz-adv-x="647" 
d="M182 -483l-20 47q49 24 90.5 71t48.5 93q-22 -19 -59 -19q-34 0 -53 26t-13 58q7 41 38 65.5t75 24.5q38 0 62.5 -25.5t31 -57t0.5 -58.5q-11 -70 -62 -130t-139 -95z" />
    <glyph glyph-name="dieresis.case" horiz-adv-x="1062" 
d="M508 1692q8 44 43.5 75t79.5 31q47 0 72 -31t14 -75q-6 -44 -42 -74.5t-83 -30.5q-44 0 -68 30t-16 75zM942 1692q8 44 43.5 75t79.5 31q45 0 70.5 -31t15.5 -75q-6 -44 -43 -74.5t-82 -30.5q-44 0 -68 30t-16 75z" />
    <glyph glyph-name="dollar.dnom" horiz-adv-x="622" 
d="M324 -90h-54l17 92q-94 4 -147.5 52.5t-59.5 119.5q11 3 44.5 12.5t53.5 14.5q2 -42 36.5 -74.5t90.5 -38.5l41 236l-41 16q-159 65 -137 186q17 83 86.5 134.5t159.5 56.5l18 88h53l-18 -88q77 -7 121.5 -51t50.5 -113l-96 -27q-1 42 -25.5 68.5t-64.5 34.5l-39 -221
l41 -17q72 -31 114.5 -81t32.5 -107q-17 -86 -88 -139.5t-174 -61.5zM492 197q8 61 -64 94l-33 14l-37 -213q55 6 90.5 35.5t43.5 69.5zM276 528q-6 -30 13.5 -58t75.5 -40l34 201q-46 -6 -81 -34.5t-42 -68.5z" />
    <glyph glyph-name="dollar.numr" horiz-adv-x="622" 
d="M449 625h-54l17 92q-93 4 -147 52.5t-60 119.5l100 26q0 -42 35 -74t90 -38l41 235l-41 17q-159 65 -137 186q17 83 86.5 134.5t159.5 56.5l18 88h53l-18 -88q77 -7 121.5 -51t50.5 -113l-96 -27q-9 86 -90 102l-39 -221l41 -16q73 -31 115 -81t32 -107
q-17 -86 -88 -139.5t-174 -61.5zM616 911q8 62 -63 95l-33 14l-37 -213q55 6 90 35t43 69zM403 1243q-6 -30 12 -58t74 -40l35 201q-45 -6 -79.5 -34.5t-41.5 -68.5z" />
    <glyph glyph-name="dotaccent.case" horiz-adv-x="600" 
d="M494 1702q7 47 43.5 77.5t83.5 30.5q45 0 70.5 -31t15.5 -77q-7 -49 -43.5 -80t-81.5 -31q-48 0 -73 31t-15 80z" />
    <glyph glyph-name="eight.dnom" horiz-adv-x="714" 
d="M367 72q84 0 142 39t69 98q11 58 -30.5 95.5t-129.5 37.5h-6q-89 0 -141.5 -36.5t-63.5 -96.5q-11 -59 32.5 -98t127.5 -39zM469 649q-70 0 -116.5 -31.5t-57.5 -82.5q-8 -51 23.5 -85t105.5 -34q76 0 122.5 33.5t57.5 87.5q8 49 -28.5 80.5t-106.5 31.5zM352 -12
q-128 0 -198.5 64t-53.5 159q11 57 61 105.5t126 68.5q-55 19 -81 62.5t-18 89.5q17 86 99 140t198 54t179.5 -54.5t46.5 -139.5q-8 -47 -50 -90t-108 -62q72 -20 107 -68t24 -106q-17 -95 -111 -159t-221 -64z" />
    <glyph glyph-name="eight.numr" horiz-adv-x="714" 
d="M494 786q84 0 142 39.5t69 98.5q11 58 -31.5 95.5t-130.5 37.5h-6q-89 0 -140.5 -36.5t-62.5 -96.5q-11 -59 32.5 -98.5t127.5 -39.5zM596 1364q-70 0 -116.5 -32t-57.5 -83q-8 -51 23.5 -85t105.5 -34q76 0 122.5 33.5t57.5 87.5q11 48 -26.5 80.5t-108.5 32.5zM479 702
q-127 0 -197 64.5t-53 159.5q11 57 61 105.5t126 68.5q-57 19 -83 61.5t-18 89.5q17 86 100 140.5t199 54.5q115 0 178 -55t46 -140q-8 -47 -49.5 -89.5t-106.5 -61.5q71 -20 106.5 -68t24.5 -106q-18 -95 -111.5 -159.5t-222.5 -64.5z" />
    <glyph glyph-name="eight.oldstyle" horiz-adv-x="1343" 
d="M688 113q178 0 305.5 73t147.5 187q21 103 -74.5 175.5t-284.5 72.5h-10q-187 0 -305.5 -72t-136.5 -176q-20 -114 80.5 -187t277.5 -73zM664 -23q-244 0 -382.5 110.5t-109.5 277.5q19 108 114.5 198t239.5 131q-103 41 -153 115.5t-33 161.5q30 151 187.5 250.5
t377.5 99.5q218 0 341.5 -99.5t94.5 -248.5q-17 -91 -91.5 -165.5t-190.5 -115.5q128 -38 191.5 -127.5t43.5 -199.5q-30 -167 -206.5 -277.5t-423.5 -110.5zM879 1186q-156 0 -261 -58t-122 -155q-18 -97 58.5 -164.5t238.5 -67.5h10q159 0 262 67.5t121 164.5
q17 97 -66 155t-241 58z" />
    <glyph glyph-name="eight.taboldstyle" horiz-adv-x="1392" 
d="M713 113q178 0 305 73t147 187q21 103 -74 175.5t-284 72.5h-10q-187 0 -306 -72t-137 -176q-20 -114 81 -187t278 -73zM688 -23q-244 0 -382 110.5t-109 277.5q19 108 114.5 198t239.5 131q-103 41 -153 115.5t-33 161.5q30 151 187.5 250.5t377.5 99.5
q218 0 341.5 -99.5t94.5 -248.5q-17 -91 -91.5 -165.5t-191.5 -115.5q128 -38 192 -128t44 -199q-30 -167 -207 -277.5t-424 -110.5zM903 1186q-156 0 -261 -58t-122 -155q-18 -97 58.5 -164.5t238.5 -67.5h10q159 0 262 67.5t121 164.5q17 97 -66 155t-241 58z" />
    <glyph glyph-name="eight.tnum" horiz-adv-x="1392" 
d="M717 117q182 0 309 83.5t152 213.5q21 120 -64 193t-270 83h-56q-189 -10 -299 -85.5t-131 -192.5q-25 -127 76 -211t283 -84zM692 -23q-244 0 -383.5 125.5t-107.5 309.5q20 118 117 214t243 140q-103 43 -152 125t-30 180q28 164 191.5 274.5t383.5 110.5
q219 0 341 -110.5t94 -274.5q-19 -99 -96 -182t-193 -125q128 -43 193 -138.5t42 -211.5q-16 -91 -73 -172t-141.5 -139t-196 -92t-232.5 -34zM928 1317q-155 0 -262.5 -69.5t-128.5 -176.5q-19 -101 54 -180.5t224 -79.5h49q148 0 248 79.5t119 180.5q19 106 -64 176
t-239 70z" />
    <glyph glyph-name="emdash.case" horiz-adv-x="1650" 
d="M264 649l25 137h1347l-24 -137h-1348z" />
    <glyph glyph-name="endash.case" horiz-adv-x="1165" 
d="M264 651l25 137h862l-25 -137h-862z" />
    <glyph glyph-name="exclamdown.case" horiz-adv-x="516" 
d="M375 1337q11 50 51.5 84.5t91.5 34.5t79.5 -35t18.5 -84q-11 -52 -51 -87.5t-90 -35.5q-51 0 -80.5 36t-19.5 87zM381 999h100l-96 -747l-43 -252h-170l43 252z" />
    <glyph glyph-name="five.dnom" horiz-adv-x="653" 
d="M326 72q88 0 142 45.5t67 115.5q11 65 -25 111.5t-117 46.5q-91 0 -178 -49l-68 35l80 342h435l-13 -82h-344l-49 -207q71 41 166 41q115 0 174 -70.5t41 -167.5q-19 -112 -105.5 -180.5t-222.5 -68.5q-145 0 -231 86l65 67q68 -65 183 -65z" />
    <glyph glyph-name="five.numr" horiz-adv-x="653" 
d="M453 786q88 0 142 46t67 116q11 65 -25 111.5t-117 46.5q-90 0 -180 -49l-66 35l80 342h434l-12 -82h-344l-49 -207q71 41 168 41q116 0 173.5 -70t39.5 -168q-19 -112 -105.5 -181t-222.5 -69q-145 0 -231 86l65 68q69 -66 183 -66z" />
    <glyph glyph-name="five.oldstyle" horiz-adv-x="1191" 
d="M539 -166q183 0 299.5 87.5t142.5 221.5q10 60 -2.5 114t-47 97.5t-99 69t-152.5 25.5q-95 0 -196 -29t-177 -84l-106 61l155 623h826l-23 -131h-692l-102 -410q184 105 356 105q223 0 336 -125t80 -318q-15 -89 -63.5 -168.5t-125 -141t-187 -97t-239.5 -35.5
q-154 0 -268 45t-182 113l106 102q155 -125 361 -125z" />
    <glyph glyph-name="five.taboldstyle" horiz-adv-x="1392" 
d="M639 -166q183 0 299.5 87.5t142.5 221.5q10 60 -2.5 114t-47 97.5t-99 69t-152.5 25.5q-95 0 -195 -29t-177 -84l-107 61l156 623h825l-22 -131h-693l-102 -410q184 105 356 105q223 0 336 -125t80 -318q-15 -90 -63.5 -169t-125 -140.5t-186.5 -97t-239 -35.5
q-154 0 -268.5 45t-182.5 113l107 102q155 -125 360 -125z" />
    <glyph glyph-name="five.tnum" horiz-adv-x="1392" 
d="M211 129l111 102q47 -47 156 -80.5t216 -33.5q184 0 304.5 100t146.5 246q8 53 4.5 102.5t-27 92.5t-60.5 75.5t-96.5 51t-134.5 18.5q-66 0 -163.5 -25t-194.5 -86l-115 56l166 686h836l-23 -131h-696l-121 -467q169 106 365 106q151 0 254.5 -68.5t143 -177.5
t17.5 -239q-18 -100 -71 -186.5t-133 -152t-192.5 -103.5t-241.5 -38q-145 0 -264.5 43.5t-186.5 108.5z" />
    <glyph glyph-name="florin.dnom" horiz-adv-x="536" 
d="M373 336l-66 -373q-39 -203 -221 -203q-50 0 -80 23l45 65q23 -10 43 -10q38 0 66.5 29t38.5 86l65 383h-82l13 59h79l25 131q40 203 223 203q42 0 78 -22l-45 -66q-19 8 -41 8q-38 0 -67 -28.5t-39 -85.5l-25 -140h143l-12 -59h-141z" />
    <glyph glyph-name="florin.numr" horiz-adv-x="534" 
d="M502 1051l-68 -373q-39 -203 -223 -203q-40 0 -78 23l45 65q23 -10 43 -10q37 0 65 28.5t40 86.5l67 383h-82l11 59h81l23 131q10 60 34 102t57.5 63t65 29.5t66.5 8.5q40 0 78 -23l-45 -65q-19 8 -41 8q-37 0 -65.5 -29t-38.5 -86l-25 -139h141l-10 -59h-141z" />
    <glyph glyph-name="florininferior" horiz-adv-x="540" 
d="M324 53l-68 -372q-10 -61 -33.5 -103t-56.5 -62.5t-64 -29t-67 -8.5q-44 0 -72 22l41 66q17 -10 39 -10q38 0 66 28.5t38 85.5l68 383h-82l12 60h82l23 131q10 60 34 102t57.5 62.5t66 29t67.5 8.5q48 0 76 -22l-45 -66q-18 9 -41 9q-38 0 -66.5 -29t-38.5 -86l-24 -139
h141l-12 -60h-141z" />
    <glyph glyph-name="florinsuperior" horiz-adv-x="534" 
d="M539 1264l-68 -373q-39 -203 -221 -203q-42 0 -80 23l45 65q23 -10 43 -10q37 0 65.5 29t38.5 86l68 383h-82l10 59h80l25 131q40 203 223 203q42 0 80 -23l-47 -65q-19 8 -41 8q-38 0 -66.5 -29t-38.5 -86l-24 -139h141l-10 -59h-141z" />
    <glyph glyph-name="four.dnom" horiz-adv-x="708" 
d="M197 274h258l51 283zM440 193h-374l10 57l493 469h70l-80 -445h154l-15 -81h-153l-31 -193h-104z" />
    <glyph glyph-name="four.numr" horiz-adv-x="702" 
d="M319 989h259l51 283zM565 907h-375l11 58l491 469h70l-80 -445h154l-13 -82h-153l-35 -192h-105z" />
    <glyph glyph-name="four.oldstyle" horiz-adv-x="1331" 
d="M276 205h568l100 571zM821 78h-753l16 100l963 842h94l-144 -815h297l-22 -127h-297l-66 -365h-153z" />
    <glyph glyph-name="four.taboldstyle" horiz-adv-x="1392" 
d="M307 205h567l101 571zM852 78h-754l17 100l962 842h94l-143 -815h297l-22 -127h-297l-66 -365h-154z" />
    <glyph glyph-name="four.tnum" horiz-adv-x="1392" 
d="M352 530h590l111 644zM918 397h-789l18 105l1012 932h96l-157 -904h321l-24 -133h-322l-69 -397h-156z" />
    <glyph glyph-name="g.alt" horiz-adv-x="1173" 
d="M991 653q20 119 -53 185.5t-201 66.5t-229.5 -67.5t-122.5 -182.5q-20 -115 57 -181t209 -66q127 0 223.5 65.5t116.5 179.5zM162 57q6 29 2 84q0 17 -4 45q11 64 52.5 108.5t102.5 82.5q-54 59 -78 122.5t-8 153.5q18 97 72.5 174t130 122.5t158.5 69t166 23.5
q89 0 171 -27t130 -75q93 26 108 96q7 18 -4 58h142q1 -8 3.5 -25t2.5 -24t-2 -23q-11 -64 -63 -114.5t-126 -63.5q49 -88 31 -193q-16 -92 -68 -166.5t-126.5 -120.5t-160 -70t-173.5 -24q-127 0 -213 45q-49 -27 -75.5 -51.5t-31.5 -58.5q-7 -42 18.5 -69t61.5 -35.5
t80 -8.5h368q51 0 93 -9.5t70 -26t49.5 -38t32 -46t18 -49.5t6 -49t-3.5 -44q-22 -131 -178.5 -221t-415.5 -90q-82 0 -153.5 7t-143.5 27.5t-120.5 52.5t-73.5 86.5t-13 125.5q8 40 35 81.5t54.5 68t51 51.5t25.5 38zM262 -27q-41 0 -72.5 -42t-42.5 -89q-8 -45 11 -80
t55 -56t88.5 -34.5t105 -18.5t111.5 -5q169 0 286.5 48t129.5 126q12 38 -14.5 78t-100.5 47q-48 4 -231 4h-123l-35 5q-34 6 -83 11.5t-85 5.5z" />
    <glyph glyph-name="gbreve.alt" horiz-adv-x="1173" 
d="M1012 1473q3 0 50 -5.5t50 -5.5q-23 -95 -77 -160.5t-117 -93.5t-132 -28q-106 0 -169 70.5t-52 211.5q2 0 52.5 5.5t52.5 5.5q-6 -89 32 -133t107 -44q70 0 124.5 44.5t78.5 132.5zM991 653q20 119 -53 185.5t-201 66.5t-229.5 -67.5t-122.5 -182.5q-20 -115 57 -181
t209 -66q127 0 223.5 65.5t116.5 179.5zM182 53q-26 35 -26 90q0 15 4 43q11 64 52.5 108.5t102.5 82.5q-54 59 -78 122.5t-8 153.5q18 97 72.5 174t130 122.5t158.5 69t166 23.5q89 0 171 -27t130 -75q93 26 108 96q7 18 -4 58h142q1 -8 3.5 -25t2.5 -24t-2 -23
q-11 -64 -63 -114.5t-126 -63.5q49 -88 31 -193q-16 -92 -68 -166.5t-126.5 -120.5t-160 -70t-173.5 -24q-127 0 -213 45q-49 -27 -75.5 -51.5t-31.5 -58.5q-7 -42 18.5 -69t61.5 -35.5t80 -8.5h368q51 0 93 -9.5t70 -26t49.5 -38t32 -46t18 -49.5t6 -49t-3.5 -44
q-22 -131 -178.5 -221t-415.5 -90q-82 0 -153.5 7t-143.5 27.5t-120.5 52.5t-73.5 86.5t-13 125.5q26 137 186 235zM262 -12q-44 -25 -76.5 -66.5t-38.5 -79.5q-8 -45 11 -80t55 -56t88.5 -34.5t105 -18.5t111.5 -5q169 0 286.5 48t129.5 126q12 38 -14.5 78t-100.5 47
q-48 4 -231 4h-123q-123 0 -203 37z" />
    <glyph glyph-name="gcircumflex.alt" horiz-adv-x="1173" 
d="M768 1481h166l178 -307h-121l-157 210q-100 -90 -240 -210h-121q33 34 94 97t109.5 113.5t91.5 96.5zM991 653q20 119 -53 185.5t-201 66.5t-229.5 -67.5t-122.5 -182.5q-20 -115 57 -181t209 -66q127 0 223.5 65.5t116.5 179.5zM182 53q-26 35 -26 90q0 15 4 43
q11 64 52.5 108.5t102.5 82.5q-54 59 -78 122.5t-8 153.5q18 97 72.5 174t130 122.5t158.5 69t166 23.5q89 0 171 -27t130 -75q93 26 108 96q7 18 -4 58h142q1 -8 3.5 -25t2.5 -24t-2 -23q-11 -64 -63 -114.5t-126 -63.5q49 -88 31 -193q-16 -92 -68 -166.5t-126.5 -120.5
t-160 -70t-173.5 -24q-127 0 -213 45q-49 -27 -75.5 -51.5t-31.5 -58.5q-7 -42 18.5 -69t61.5 -35.5t80 -8.5h368q51 0 93 -9.5t70 -26t49.5 -38t32 -46t18 -49.5t6 -49t-3.5 -44q-22 -131 -178.5 -221t-415.5 -90q-82 0 -153.5 7t-143.5 27.5t-120.5 52.5t-73.5 86.5
t-13 125.5q26 137 186 235zM262 -12q-44 -25 -76.5 -66.5t-38.5 -79.5q-8 -45 11 -80t55 -56t88.5 -34.5t105 -18.5t111.5 -5q169 0 286.5 48t129.5 126q12 38 -14.5 78t-100.5 47q-48 4 -231 4h-123q-123 0 -203 37z" />
    <glyph glyph-name="gcommaaccent.alt" horiz-adv-x="1173" 
d="M920 1599l16 -59q-46 -23 -78 -49t-48.5 -53t-23 -44.5t-12.5 -43.5q16 8 45 8q40 0 62 -28t16 -64q-8 -46 -42 -77.5t-85 -31.5q-35 0 -59.5 16.5t-34 41t-13.5 52t3 48.5q36 196 254 284zM991 653q20 119 -53 185.5t-201 66.5t-229.5 -67.5t-122.5 -182.5
q-20 -115 57 -181t209 -66q127 0 223.5 65.5t116.5 179.5zM182 53q-26 35 -26 90q0 15 4 43q11 64 52.5 108.5t102.5 82.5q-54 59 -78 122.5t-8 153.5q18 97 72.5 174t130 122.5t158.5 69t166 23.5q89 0 171 -27t130 -75q93 26 108 96q7 18 -4 58h142q1 -8 3.5 -25t2.5 -24
t-2 -23q-11 -64 -63 -114.5t-126 -63.5q49 -88 31 -193q-16 -92 -68 -166.5t-126.5 -120.5t-160 -70t-173.5 -24q-127 0 -213 45q-49 -27 -75.5 -51.5t-31.5 -58.5q-7 -42 18.5 -69t61.5 -35.5t80 -8.5h368q51 0 93 -9.5t70 -26t49.5 -38t32 -46t18 -49.5t6 -49t-3.5 -44
q-22 -131 -178.5 -221t-415.5 -90q-82 0 -153.5 7t-143.5 27.5t-120.5 52.5t-73.5 86.5t-13 125.5q26 137 186 235zM262 -12q-44 -25 -76.5 -66.5t-38.5 -79.5q-8 -45 11 -80t55 -56t88.5 -34.5t105 -18.5t111.5 -5q169 0 286.5 48t129.5 126q12 38 -14.5 78t-100.5 47
q-48 4 -231 4h-123q-123 0 -203 37z" />
    <glyph glyph-name="gdotaccent.alt" horiz-adv-x="1173" 
d="M694 1313q11 50 47.5 82t83.5 32q48 0 74 -32.5t16 -81.5q-11 -50 -47.5 -81.5t-83.5 -31.5q-48 0 -74 32t-16 81zM991 653q20 119 -53 185.5t-201 66.5t-229.5 -67.5t-122.5 -182.5q-20 -115 57 -181t209 -66q127 0 223.5 65.5t116.5 179.5zM182 53q-26 35 -26 90
q0 15 4 43q11 64 52.5 108.5t102.5 82.5q-54 59 -78 122.5t-8 153.5q18 97 72.5 174t130 122.5t158.5 69t166 23.5q89 0 171 -27t130 -75q93 26 108 96q7 18 -4 58h142q1 -8 3.5 -25t2.5 -24t-2 -23q-11 -64 -63 -114.5t-126 -63.5q49 -88 31 -193q-16 -92 -68 -166.5
t-126.5 -120.5t-160 -70t-173.5 -24q-127 0 -213 45q-49 -27 -75.5 -51.5t-31.5 -58.5q-7 -42 18.5 -69t61.5 -35.5t80 -8.5h368q51 0 93 -9.5t70 -26t49.5 -38t32 -46t18 -49.5t6 -49t-3.5 -44q-22 -131 -178.5 -221t-415.5 -90q-82 0 -153.5 7t-143.5 27.5t-120.5 52.5
t-73.5 86.5t-13 125.5q26 137 186 235zM262 -12q-44 -25 -76.5 -66.5t-38.5 -79.5q-8 -45 11 -80t55 -56t88.5 -34.5t105 -18.5t111.5 -5q169 0 286.5 48t129.5 126q12 38 -14.5 78t-100.5 47q-48 4 -231 4h-123q-123 0 -203 37z" />
    <glyph glyph-name="grave.case" horiz-adv-x="712" 
d="M518 1851h166l113 -284h-131z" />
    <glyph glyph-name="guillemotleft.case" horiz-adv-x="1153" 
d="M242 705l4 22l446 426l80 -76l-377 -360l250 -359l-106 -73zM662 705l4 22l446 426l80 -76l-377 -360l250 -359l-107 -73z" />
    <glyph glyph-name="guillemotright.case" horiz-adv-x="1155" 
d="M1163 727l-4 -22l-444 -420l-82 73l377 359l-250 360l108 76zM743 727l-4 -22l-444 -420l-82 73l377 359l-250 360l109 76z" />
    <glyph glyph-name="guilsinglleft.case" horiz-adv-x="733" 
d="M242 705l4 22l446 426l80 -76l-377 -360l250 -359l-106 -73z" />
    <glyph glyph-name="guilsinglright.case" horiz-adv-x="735" 
d="M743 727l-4 -22l-444 -420l-82 73l377 359l-250 360l109 76z" />
    <glyph glyph-name="hungarumlaut.case" horiz-adv-x="1013" 
d="M688 1851h150l-238 -284h-133zM1004 1851h149l-238 -284h-133z" />
    <glyph glyph-name="hyphen.case" horiz-adv-x="946" 
d="M264 649l25 137h643l-25 -137h-643z" />
    <glyph glyph-name="hyphen.dnom" horiz-adv-x="571" 
d="M143 287l15 86h381l-15 -86h-381z" />
    <glyph glyph-name="hyphen.numr" horiz-adv-x="571" 
d="M268 1001l15 86h381l-15 -86h-381z" />
    <glyph glyph-name="macron.case" horiz-adv-x="921" 
d="M498 1743h540l-20 -123h-541z" />
    <glyph glyph-name="nine.dnom" horiz-adv-x="686" 
d="M317 70q88 0 161.5 81t103.5 207q-41 -53 -109.5 -80.5t-130.5 -27.5q-100 0 -160 70t-43 174q19 104 106 170.5t204 66.5q139 0 201 -96t32 -258q-31 -168 -133 -279.5t-246 -111.5q-65 0 -116.5 21.5t-75.5 55.5l77 62q18 -25 54.5 -40t74.5 -15zM586 483
q13 72 -31.5 117t-120.5 45q-71 0 -124.5 -41.5t-65.5 -111.5t28 -113t109 -43q72 0 132.5 41t72.5 106z" />
    <glyph glyph-name="nine.numr" horiz-adv-x="686" 
d="M444 784q88 0 161.5 81.5t103.5 207.5q-41 -53 -108.5 -80.5t-129.5 -27.5q-100 0 -161 69.5t-44 173.5q20 105 107 171.5t205 66.5q139 0 200 -96t31 -258q-31 -168 -133 -280t-246 -112q-65 0 -116.5 22t-75.5 56l79 62q17 -25 53 -40.5t74 -15.5zM713 1198
q13 72 -31 117t-119 45q-71 0 -125.5 -42t-66.5 -112t28.5 -112.5t110.5 -42.5q72 0 131.5 41t71.5 106z" />
    <glyph glyph-name="nine.oldstyle" horiz-adv-x="1257" 
d="M635 309q154 0 282 81t152 210q16 93 -25 164.5t-117 107t-171 35.5q-157 0 -274 -84.5t-142 -214.5q-16 -93 22.5 -162.5t110.5 -103t162 -33.5zM1065 401h-2q-78 -109 -206 -168t-257 -59q-95 0 -179 31t-143 86t-85.5 137.5t-8.5 179.5q21 123 104 222.5t209.5 155.5
t272.5 56q268 0 387 -174t66 -467q-27 -146 -90.5 -273t-155.5 -223t-217 -151t-266 -55q-120 0 -212.5 35t-142.5 92l127 96q34 -39 99 -63.5t153 -24.5q140 0 256.5 77.5t189.5 204.5t101 285z" />
    <glyph glyph-name="nine.taboldstyle" horiz-adv-x="1392" 
d="M702 309q154 0 282.5 81t152.5 210q12 70 -9 129t-66 97.5t-107 59.5t-132 21q-157 0 -273.5 -84.5t-141.5 -214.5q-16 -93 22.5 -162.5t110 -103t161.5 -33.5zM1133 401h-3q-78 -109 -205.5 -168t-256.5 -59q-95 0 -179 31t-143 86t-85.5 137.5t-8.5 179.5
q21 123 104 222.5t209.5 155.5t272.5 56q268 0 386.5 -174t65.5 -467q-27 -146 -90.5 -273t-155.5 -223t-217 -151t-266 -55q-120 0 -212 35t-142 92l127 96q34 -39 99 -63.5t153 -24.5q140 0 256.5 77.5t189.5 204.5t101 285z" />
    <glyph glyph-name="nine.tnum" horiz-adv-x="1392" 
d="M1200 999q12 143 -75.5 230.5t-235.5 87.5q-152 0 -273 -92t-145 -240q-24 -149 62 -240.5t235 -91.5q100 0 195.5 42.5t162 123.5t74.5 180zM1196 750l-6 -9q-90 -117 -212.5 -173t-248.5 -56q-98 0 -182.5 34t-142.5 94.5t-83.5 151t-7.5 195.5q37 206 206 337.5
t392 131.5q176 0 290 -88t152.5 -247t0.5 -371q-27 -160 -92 -300.5t-159 -245.5t-220 -166t-267 -61q-118 0 -210 39.5t-138 102.5l123 94q32 -44 99.5 -68t154.5 -24q136 0 253 86.5t192.5 228t105.5 314.5z" />
    <glyph glyph-name="ogonek.case" horiz-adv-x="931" 
d="M424 29v-17q-62 -50 -96 -105t-43 -102q-13 -69 25.5 -108t95.5 -39q131 0 208 145l70 -43q-38 -94 -121.5 -156.5t-181.5 -62.5q-65 0 -118 24t-83.5 79t-17.5 133q13 62 58.5 129.5t133.5 122.5h70z" />
    <glyph glyph-name="one.dnom" horiz-adv-x="415" 
d="M145 524l-14 82l258 113h57l-124 -719h-107l104 598z" />
    <glyph glyph-name="one.numr" horiz-adv-x="415" 
d="M272 1239l-12 82l256 113h57l-127 -719h-106l106 598z" />
    <glyph glyph-name="one.oldstyle" horiz-adv-x="1062" 
d="M256 680l-14 131l518 209h80l-158 -889h350l-20 -131h-869l21 131h364l125 700z" />
    <glyph glyph-name="one.taboldstyle" horiz-adv-x="1392" 
d="M420 680l-14 131l518 209h80l-158 -889h350l-20 -131h-869l21 131h364l125 700z" />
    <glyph glyph-name="one.tnum" horiz-adv-x="1392" 
d="M1077 1434l-231 -1303h348l-20 -131h-881l20 131h377l199 1112q-119 -52 -373 -156q-12 86 -14 132q48 21 223 96.5t270 118.5h82z" />
    <glyph glyph-name="parenleft.case" horiz-adv-x="643" 
d="M236 723q27 146 81 286t112.5 242t130 197t122 149t100.5 99l92 -62q-400 -431 -485 -915q-85 -477 160 -912l-111 -61q-27 36 -53.5 80t-59 112t-56 150.5t-40.5 178.5t-15.5 214.5t22.5 241.5z" />
    <glyph glyph-name="parenleft.dnom" horiz-adv-x="403" 
d="M139 340q15 87 50 169.5t79 145t81 104.5t71 72q2 0 25.5 -19t25.5 -19q-185 -202 -229 -455q-11 -62 -11.5 -124.5t6.5 -110t20 -93t25 -74t25 -53.5l-63 -39q-23 27 -45 69.5t-43.5 110.5t-25.5 144.5t9 171.5z" />
    <glyph glyph-name="parenleft.numr" horiz-adv-x="403" 
d="M266 1055q15 87 50 169.5t78.5 144.5t80.5 104.5t72 72.5q2 0 25.5 -19.5t25.5 -19.5q-186 -206 -229 -454q-44 -250 67 -455l-63 -39q-24 29 -46 71t-44 109.5t-26 143.5t9 172z" />
    <glyph glyph-name="parenright.case" horiz-adv-x="645" 
d="M664 723q-25 -146 -79.5 -287.5t-113 -243t-133 -198.5t-123.5 -149t-100 -99l-90 61q52 56 92.5 104.5t106.5 142.5t115 185.5t96.5 220t70.5 259.5q89 502 -158 915l111 62q27 -35 54 -79t60.5 -112t57.5 -150.5t41 -178.5t15.5 -214t-23.5 -239z" />
    <glyph glyph-name="parenright.dnom" horiz-adv-x="405" 
d="M383 340q-15 -86 -51 -170t-80.5 -147.5t-82 -106t-71.5 -72.5l-51 39q191 212 234 455q42 242 -70 455q2 0 31.5 19t31.5 19q18 -24 34.5 -53t37.5 -77.5t31.5 -100.5t15.5 -121t-10 -139z" />
    <glyph glyph-name="parenright.numr" horiz-adv-x="405" 
d="M510 1055q-15 -87 -50.5 -170.5t-79 -146.5t-81.5 -106.5t-72 -72.5l-51 39q68 74 137 193t95 262q42 242 -70 454q2 0 31.5 19.5t31.5 19.5q18 -24 34.5 -53t37.5 -77.5t31.5 -100.5t15.5 -121t-10 -139z" />
    <glyph glyph-name="period.dnom" horiz-adv-x="346" 
d="M168 -14q-33 0 -51.5 19t-12.5 48q6 30 30.5 51t55.5 21q33 0 53.5 -21.5t14.5 -50.5t-32 -48t-58 -19z" />
    <glyph glyph-name="period.numr" horiz-adv-x="342" 
d="M293 700q-33 0 -51.5 19.5t-12.5 48.5q5 29 30.5 50.5t57.5 21.5t51.5 -21.5t14.5 -50.5q-6 -29 -32 -48.5t-58 -19.5z" />
    <glyph glyph-name="periodcentered.case" horiz-adv-x="544" 
d="M276 717q11 52 51.5 87.5t90.5 35.5q51 0 79.5 -36t18.5 -87q-7 -51 -49.5 -86t-93.5 -35t-79 35t-18 86z" />
    <glyph glyph-name="questiondown.case" horiz-adv-x="1064" 
d="M696 999h144l-19 -98q-12 -60 -41 -92.5t-112 -75.5q-78 -42 -130 -75t-106 -78t-85.5 -97t-41.5 -112q-20 -117 53.5 -186.5t214.5 -69.5q136 0 220 58.5t102 150.5q4 32 4 65h141q9 -40 0 -86q-9 -55 -43.5 -109.5t-93 -104.5t-152.5 -81t-208 -31q-130 0 -228 46.5
t-145.5 136.5t-26.5 207q13 69 50.5 134t79 109t105 91t100.5 69.5t95 54.5q69 37 87 57.5t26 67.5q5 33 10 49zM948 1337q-11 -52 -51 -87.5t-90 -35.5q-51 0 -80.5 36t-19.5 87q11 50 51.5 84.5t91.5 34.5t79.5 -35t18.5 -84z" />
    <glyph glyph-name="ring.case" horiz-adv-x="788" 
d="M496 1733q17 85 83 137.5t152 52.5q88 0 138.5 -53t33.5 -137q-13 -85 -81 -138t-156 -53q-87 0 -137 53.5t-33 137.5zM580 1733q-10 -50 18 -82.5t80 -32.5q51 0 91 32t50 83q7 51 -21 81.5t-79 30.5t-90 -30.5t-49 -81.5z" />
    <glyph glyph-name="seven.dnom" horiz-adv-x="577" 
d="M154 637l12 82h514l-10 -64l-459 -655h-115l455 637h-397z" />
    <glyph glyph-name="seven.numr" horiz-adv-x="579" 
d="M283 1352l12 82h514l-10 -64l-461 -655h-115l457 637h-397z" />
    <glyph glyph-name="seven.oldstyle" horiz-adv-x="1081" 
d="M207 889l22 131h1006l-18 -111l-895 -1194h-172l894 1174h-837z" />
    <glyph glyph-name="seven.taboldstyle" horiz-adv-x="1392" 
d="M362 889l23 131h1006l-19 -111l-895 -1194h-172l895 1174h-838z" />
    <glyph glyph-name="seven.tnum" horiz-adv-x="1392" 
d="M438 1303l23 131h1012l-19 -113l-971 -1321h-170l967 1303h-842z" />
    <glyph glyph-name="six.dnom" horiz-adv-x="686" 
d="M496 647q-89 0 -161.5 -80.5t-107.5 -208.5q41 55 108.5 82t131.5 27q98 0 160.5 -69.5t42.5 -172.5q-19 -106 -106 -172.5t-206 -66.5q-139 0 -200 96t-31 258q31 169 132.5 280t248.5 111q65 0 116.5 -22t75.5 -56l-82 -61q-17 26 -50.5 40.5t-71.5 14.5zM223 233
q-12 -64 32 -112.5t118 -48.5q73 0 127 42t67 113q13 70 -27.5 112t-111.5 42t-132 -41.5t-73 -106.5z" />
    <glyph glyph-name="six.numr" horiz-adv-x="686" 
d="M623 1362q-89 0 -161.5 -80.5t-107.5 -208.5q41 55 107.5 82t130.5 27q98 0 160.5 -69.5t42.5 -172.5q-19 -106 -105.5 -173t-204.5 -67q-139 0 -200 96.5t-31 258.5q30 168 133.5 279.5t249.5 111.5q64 0 114 -22t76 -56l-82 -61q-17 26 -50.5 40.5t-71.5 14.5zM348 948
q-11 -64 33.5 -113t118.5 -49q73 0 126 42.5t66 113.5q13 70 -26.5 112t-110.5 42t-133 -41.5t-74 -106.5z" />
    <glyph glyph-name="six.oldstyle" horiz-adv-x="1284" 
d="M811 711q-155 0 -282.5 -81t-151.5 -210q-16 -93 25 -164.5t117.5 -107t172.5 -35.5q158 0 273.5 84.5t140.5 214.5q16 93 -22.5 162.5t-110.5 103t-162 33.5zM381 618h2q78 109 206 168.5t257 59.5t232.5 -52t156.5 -153t29 -229q-21 -123 -104 -222.5t-210 -156
t-272 -56.5q-267 0 -385 173.5t-68 467.5q25 146 88 273.5t155.5 223t217.5 151t266 55.5q120 0 213.5 -35.5t139.5 -91.5l-125 -96q-33 39 -98.5 63.5t-153.5 24.5q-104 0 -197.5 -45t-163 -122.5t-117.5 -180.5t-69 -220z" />
    <glyph glyph-name="six.taboldstyle" horiz-adv-x="1392" 
d="M864 711q-155 0 -282.5 -81t-151.5 -210q-16 -93 25 -164.5t117.5 -107t172.5 -35.5q158 0 273.5 84.5t140.5 214.5q16 93 -22.5 162.5t-110.5 103t-162 33.5zM434 618h2q78 109 206 168.5t257 59.5t232.5 -52t156.5 -153t29 -229q-21 -123 -104 -222.5t-210 -156
t-272 -56.5q-267 0 -384.5 173.5t-67.5 467.5q25 146 88 273.5t155.5 223t217.5 151t266 55.5q120 0 213 -35.5t139 -91.5l-125 -96q-33 39 -98.5 63.5t-153.5 24.5q-104 0 -197.5 -45t-163 -122.5t-117.5 -180.5t-69 -220z" />
    <glyph glyph-name="six.tnum" horiz-adv-x="1392" 
d="M444 434q-12 -142 75.5 -229.5t236.5 -87.5q152 0 270.5 91.5t147.5 240.5q28 147 -62 239t-238 92q-100 0 -195 -42.5t-161 -123.5t-74 -180zM451 684l2 8q91 117 214 173.5t248 56.5q98 0 182.5 -34t142.5 -95t83.5 -151.5t7.5 -195.5q-37 -206 -206 -337.5
t-392 -131.5q-176 0 -290 88.5t-153 247.5t-1 371q38 215 138.5 388.5t257.5 278.5t343 105q119 0 210 -39t136 -102l-121 -94q-35 44 -102 68t-154 24q-69 0 -130.5 -23.5t-112 -69t-93 -100.5t-81 -131t-68 -146t-61.5 -159z" />
    <glyph glyph-name="sterling.dnom" horiz-adv-x="692" 
d="M498 645q-61 0 -105 -31.5t-55 -81.5q-2 -10 -2.5 -20.5t0 -22.5t0.5 -21t2.5 -23t3.5 -21.5t4 -23t4 -21t5 -22.5t5 -21h195q-8 -30 -10 -55h-176q3 -44 -2 -68q-14 -79 -99 -135q47 2 129 2h248l-12 -80h-576l13 80q168 0 190 135q3 10 3.5 20.5t-0.5 25.5t-1 22h-133
q3 26 10 53h113q-32 144 -23 196q17 90 94.5 142.5t182.5 52.5q109 0 158.5 -50.5t40.5 -113.5q-15 -45 -23 -59h-102q12 19 16 47q6 43 -18.5 68.5t-79.5 25.5z" />
    <glyph glyph-name="sterling.numr" horiz-adv-x="692" 
d="M627 1360q-61 0 -106 -31.5t-56 -81.5q-4 -18 -4.5 -37.5t3 -41.5t7 -38t9.5 -41.5t9 -37.5h195q-11 -41 -12 -56h-176q3 -44 -2 -67q-14 -79 -99 -135q47 2 129 2h248l-14 -80h-576l15 80q167 0 190 135q3 10 3.5 20.5t-0.5 25t-1 21.5h-133q2 14 12 54h113
q-35 138 -25 196q17 90 94.5 142.5t182.5 52.5q109 0 158 -50.5t40 -113.5q-16 -49 -22 -59h-102q12 19 16 47q6 43 -17.5 68.5t-78.5 25.5z" />
    <glyph glyph-name="sterlinginferior" horiz-adv-x="692" 
d="M446 362q-61 0 -104.5 -31t-54.5 -81q-2 -10 -2.5 -20.5t0 -23t0.5 -21t2.5 -23.5t3 -21t4.5 -23.5t4.5 -21t5 -22.5t4.5 -21h195q-10 -38 -10 -55h-177q7 -27 -4 -68q-14 -83 -98 -135q47 2 129 2h248l-12 -80h-574l10 80q170 0 193 135q4 15 4 68h-133q-2 16 8 53h113
q-32 144 -23 197q17 89 95.5 141.5t183.5 52.5q108 0 159 -51t37 -112q-17 -52 -22 -60h-103q5 8 9.5 25.5t5.5 21.5q8 43 -17 68.5t-80 25.5z" />
    <glyph glyph-name="sterlingsuperior" horiz-adv-x="692" 
d="M664 1573q-61 0 -106 -31.5t-56 -81.5q-2 -15 -2.5 -32.5t0.5 -31.5t5 -35l6 -31.5t7.5 -34.5t7.5 -31h195q-11 -41 -12 -56h-177q3 -43 -2 -67q-14 -83 -98 -135q47 2 129 2h248l-12 -80h-576l12 80q165 0 191 135q5 23 2 67h-133q2 14 12 54h113q-35 138 -25 196
q17 90 94.5 142.5t182.5 52.5q109 0 158 -50.5t40 -113.5q-18 -53 -22 -59h-103q14 21 17 47q6 43 -17.5 68.5t-78.5 25.5z" />
    <glyph glyph-name="three.dnom" horiz-adv-x="661" 
d="M66 70l65 69q67 -67 182 -67q87 0 143.5 43t67.5 108q12 70 -30 113t-111 43q-64 0 -115 -25l-32 56l288 227h-338l13 82h495l-8 -57l-264 -213q106 0 165 -65.5t42 -162.5q-20 -103 -108 -170t-224 -67q-156 0 -231 86z" />
    <glyph glyph-name="three.numr" horiz-adv-x="661" 
d="M193 784l65 70q68 -68 182 -68q87 0 142.5 43.5t68.5 108.5q13 69 -29.5 112.5t-111.5 43.5q-64 0 -115 -25l-33 55l289 228h-338l13 82h495l-8 -58l-264 -213q106 0 165 -65t42 -162q-18 -103 -107 -170.5t-225 -67.5q-153 0 -231 86z" />
    <glyph glyph-name="three.oldstyle" horiz-adv-x="1204" 
d="M514 -164q184 0 311 90t148 213q20 124 -60.5 204.5t-228.5 80.5q-146 0 -223 -49l-53 92l550 430h-677l20 123h934l-14 -90l-523 -383v-4q72 10 141.5 -2.5t127.5 -46.5t99.5 -83.5t58.5 -119.5t3 -150q-34 -187 -203.5 -313.5t-432.5 -126.5q-157 0 -271 41t-174 106
q44 47 109 105q133 -117 358 -117z" />
    <glyph glyph-name="three.taboldstyle" horiz-adv-x="1392" 
d="M608 -164q184 0 311 90t148 213q20 124 -60.5 204.5t-228.5 80.5q-146 0 -223 -49l-53 92l551 430h-678l20 123h934l-14 -90l-522 -383v-4q72 10 141.5 -2.5t127.5 -46.5t99.5 -83.5t58.5 -119.5t3 -150q-16 -90 -66.5 -168.5t-129.5 -139.5t-193 -96.5t-248 -35.5
q-157 0 -271 41t-174 106q44 47 109 105q133 -117 358 -117z" />
    <glyph glyph-name="three.tnum" horiz-adv-x="1392" 
d="M655 117q99 0 184.5 29.5t143.5 78.5t95 108.5t48 123.5q24 141 -61 228t-238 87q-146 0 -233 -61q-43 73 -57 94l600 498h-697l23 131h942l-16 -97l-558 -446v-2q16 2 48 2q96 0 177.5 -29.5t138.5 -83.5t82 -136.5t7 -182.5q-38 -209 -213.5 -345.5t-441.5 -136.5
q-156 0 -270.5 42.5t-176.5 109.5q22 19 59.5 54t51.5 48q70 -64 153 -89t209 -25z" />
    <glyph glyph-name="tilde.case" horiz-adv-x="962" 
d="M899 1612q-47 0 -129.5 43t-118.5 43q-34 0 -54.5 -19.5t-59.5 -81.5l-70 21q50 106 94 148t105 42q46 0 128.5 -42t116.5 -42q36 0 60 21t57 78l68 -21q-47 -105 -91.5 -147.5t-105.5 -42.5z" />
    <glyph glyph-name="two.dnom" horiz-adv-x="669" 
d="M494 266l-248 -180h381l-13 -86h-538v63l356 267q111 83 129 174q10 65 -23 98t-102 33q-75 0 -116.5 -34t-53.5 -83h-110q6 35 27 70t56 67t91 52t123 20q116 0 173.5 -62.5t39.5 -158.5q-23 -133 -172 -240z" />
    <glyph glyph-name="two.numr" horiz-adv-x="669" 
d="M621 981l-246 -180h381l-17 -86h-538l2 63l356 266q111 83 129 175q10 65 -22 98t-101 33q-75 0 -117.5 -34.5t-54.5 -82.5h-110q6 35 27 70t56 67t91 52t123 20q116 0 173.5 -62.5t39.5 -158.5q-23 -133 -172 -240z" />
    <glyph glyph-name="two.oldstyle" horiz-adv-x="1236" 
d="M123 94l637 357q140 75 217.5 139.5t89.5 136.5q17 87 -68 132.5t-235 45.5q-89 0 -157.5 -15t-108 -40.5t-61 -51t-31.5 -53.5h-152q11 53 45.5 102t95.5 94t162.5 72t228.5 27q143 0 246.5 -33.5t156.5 -106t34 -175.5q-19 -115 -115.5 -201t-290.5 -190l-391 -211v-4
q132 12 340 12h391l-20 -131h-1020z" />
    <glyph glyph-name="two.taboldstyle" horiz-adv-x="1392" 
d="M201 94l637 357q140 75 217.5 139.5t89.5 136.5q17 87 -68 132.5t-235 45.5q-89 0 -157.5 -15t-108 -40.5t-61.5 -51t-32 -53.5h-151q11 53 45.5 102t95.5 94t162.5 72t228.5 27q143 0 246 -33.5t156 -106t34 -175.5q-10 -61 -41 -113t-87.5 -100t-119 -87.5
t-157.5 -90.5l-391 -211v-4q132 12 340 12h391l-21 -131h-1019z" />
    <glyph glyph-name="two.tnum" horiz-adv-x="1392" 
d="M446 131l-2 -8q61 8 387 8h412l-20 -131h-1018l-4 104l704 549q119 90 191.5 178t91.5 191q24 138 -57 216.5t-232 78.5q-72 0 -131.5 -15.5t-99 -39t-69 -56.5t-45 -64.5t-24.5 -66.5h-157q9 49 32.5 99.5t69 102t106.5 90.5t150 64t193 25q228 0 343 -115.5t79 -314.5
q-11 -62 -36 -119.5t-55.5 -102.5t-75.5 -91.5t-85.5 -80.5t-96.5 -77z" />
    <glyph glyph-name="uni02C9.case" horiz-adv-x="921" 
d="M500 1745h540l-22 -123h-541z" />
    <glyph glyph-name="y.alt" horiz-adv-x="1107" 
d="M592 188l475 832h176l-536 -895q-96 -167 -142 -234q-256 -372 -561 -372q-131 0 -225 73l74 127q31 -25 76.5 -42t90.5 -17q241 0 455 354l-258 1006h176z" />
    <glyph glyph-name="yacute.alt" horiz-adv-x="1107" 
d="M592 188l475 832h176l-536 -895q-96 -167 -142 -234q-256 -372 -561 -372q-131 0 -225 73l74 127q31 -25 76.5 -42t90.5 -17q241 0 455 354l-258 1006h176zM868 1481h176l-280 -307h-133z" />
    <glyph glyph-name="ycircumflex.alt" horiz-adv-x="1107" 
d="M592 188l475 832h176l-536 -895q-96 -167 -142 -234q-256 -372 -561 -372q-131 0 -225 73l74 127q31 -25 76.5 -42t90.5 -17q241 0 455 354l-258 1006h176zM725 1481h166l182 -307h-121l-159 212l-238 -212h-121z" />
    <glyph glyph-name="ydieresis.alt" horiz-adv-x="1107" 
d="M592 188l475 832h176l-536 -895q-96 -167 -142 -234q-256 -372 -561 -372q-131 0 -225 73l74 127q31 -25 76.5 -42t90.5 -17q241 0 455 354l-258 1006h176zM459 1323q7 47 42.5 77t80.5 30q47 0 71.5 -30t16.5 -77q-8 -44 -43.5 -74t-81.5 -30q-44 0 -69 30.5t-17 73.5z
M893 1323q7 47 42.5 77t80.5 30t70 -30t18 -77q-8 -43 -44.5 -73.5t-80.5 -30.5t-69 30.5t-17 73.5z" />
    <glyph glyph-name="yen.dnom" horiz-adv-x="745" 
d="M367 270h-205l8 52h186l-190 387l2 10h119l151 -340l271 340h118l-2 -10l-327 -387h188l-8 -52h-205l-12 -75h205l-13 -52h-204l-23 -143h-107l23 143h-205l13 52h204z" />
    <glyph glyph-name="yen.numr" horiz-adv-x="745" 
d="M494 985h-205l8 51h186l-190 387l2 11h119l151 -340l271 340h118l-2 -11l-327 -387h188l-8 -51h-205l-12 -76h205l-11 -51h-204l-27 -143h-107l27 143h-205l10 51h205z" />
    <glyph glyph-name="yeninferior" horiz-adv-x="747" 
d="M315 -12h-204l8 51h186l-188 387l2 10h119l149 -340l272 340h119l-2 -10l-330 -387h189l-8 -51h-205l-14 -76h204l-8 -51h-205l-26 -144h-107l27 144h-205l8 51h205z" />
    <glyph glyph-name="yensuperior" horiz-adv-x="745" 
d="M530 1198h-204l8 51h186l-188 387v11h119l151 -340l270 340h119v-11l-329 -387h188l-8 -51h-205l-12 -76h204l-10 -51h-205l-24 -143h-107l25 143h-205l10 51h205z" />
    <glyph glyph-name="ygrave.alt" horiz-adv-x="1107" 
d="M592 188l475 832h176l-536 -895q-96 -167 -142 -234q-256 -372 -561 -372q-131 0 -225 73l74 127q31 -25 76.5 -42t90.5 -17q241 0 455 354l-258 1006h176zM553 1481h176l127 -307h-133z" />
    <glyph glyph-name="zero.dnom" horiz-adv-x="770" 
d="M764 358q-30 -160 -134 -266t-249 -106q-143 0 -212.5 107.5t-39.5 264.5q29 159 134 266t249 107t212.5 -107.5t39.5 -265.5zM655 358q24 124 -18 201.5t-139 77.5q-96 0 -166 -77.5t-94 -201.5t20 -202t141 -78q96 0 164 77t92 203z" />
    <glyph glyph-name="zero.numr" horiz-adv-x="770" 
d="M891 1073q-25 -158 -132 -265.5t-251 -107.5q-97 0 -160.5 51t-86 134.5t-5.5 187.5q30 159 136.5 266t248.5 107q145 0 212.5 -107t37.5 -266zM782 1073q24 124 -18 201.5t-139 77.5q-96 0 -166 -77.5t-94 -201.5q-21 -125 21.5 -202.5t139.5 -77.5t166 77.5t90 202.5z
" />
    <glyph glyph-name="zero.oldstyle" horiz-adv-x="1404" 
d="M1386 510q-25 -147 -117.5 -267.5t-243.5 -193t-331 -72.5q-136 0 -241 42t-166.5 114.5t-85.5 169.5t-6 207q28 148 120 268t241 192t329 72q181 0 305.5 -71.5t174 -192t21.5 -268.5zM1231 510q30 169 -70.5 283t-300.5 114q-199 0 -339.5 -114t-170.5 -283
q-29 -168 71 -282.5t298 -114.5q200 0 341.5 114.5t170.5 282.5z" />
    <glyph glyph-name="zero.taboldstyle" horiz-adv-x="1392" 
d="M1380 510q-25 -147 -117.5 -267.5t-243.5 -193t-331 -72.5q-136 0 -241 42t-167 114.5t-86 169.5t-6 207q28 148 120 268t241.5 192t329.5 72q181 0 305.5 -71.5t174 -192t21.5 -268.5zM1225 510q30 169 -70.5 283t-300.5 114q-199 0 -339.5 -114t-170.5 -283
q-29 -168 71 -282.5t298 -114.5q200 0 341.5 114.5t170.5 282.5z" />
    <glyph glyph-name="zero.tnum" horiz-adv-x="1392" 
d="M1434 717q-35 -205 -138.5 -372.5t-262.5 -267.5t-343 -100t-306.5 100.5t-165 267t-7.5 372.5q27 153 93.5 288t162 235t221.5 158t264 58q185 0 308 -99.5t166.5 -266.5t7.5 -373zM1278 717q30 168 -0.5 304t-121.5 217t-230 81q-138 0 -256.5 -81t-195.5 -217
t-107 -304t-0.5 -304t119.5 -217t229 -81t258.5 81t197 217t107.5 304z" />
    </font>
</defs>
</svg>
